<svg width="1440" height="486" viewBox="0 0 1440 486" fill="none" xmlns="http://www.w3.org/2000/svg">
<g clip-path="url(#clip0_1443_962)">
<path fill-rule="evenodd" clip-rule="evenodd" d="M1064.46 149.292L1088.85 161.454C1094.92 164.481 1098.59 165.878 1104.63 164.333L1104.39 162.999C1099.17 163.359 1096.24 161.443 1091.18 158.003L1068.57 142.644C1065.9 140.824 1063.65 141.12 1062.49 142.327C1060.97 143.904 1060.88 147.323 1064.45 149.281L1064.46 149.292Z" fill="#F9C9B3"/>
<path d="M932.117 447.6L1004.95 175.765L1078.79 451.337" stroke="#8299C2" stroke-width="3.64" stroke-miterlimit="22.93"/>
<path d="M910 447.6L982.836 175.765H1004.96" stroke="#8299C2" stroke-width="3.64" stroke-miterlimit="22.93"/>
<path d="M999.619 195.707H977.496" stroke="#8299C2" stroke-width="3.64" stroke-miterlimit="22.93"/>
<path d="M993.886 217.067H971.773" stroke="#8299C2" stroke-width="3.64" stroke-miterlimit="22.93"/>
<path d="M988.171 238.417H966.048" stroke="#8299C2" stroke-width="3.64" stroke-miterlimit="22.93"/>
<path d="M982.445 259.778H960.322" stroke="#8299C2" stroke-width="3.64" stroke-miterlimit="22.93"/>
<path d="M976.72 281.14H954.598" stroke="#8299C2" stroke-width="3.64" stroke-miterlimit="22.93"/>
<path d="M970.995 302.5H948.872" stroke="#8299C2" stroke-width="3.64" stroke-miterlimit="22.93"/>
<path d="M965.261 323.86H943.148" stroke="#8299C2" stroke-width="3.64" stroke-miterlimit="22.93"/>
<path d="M959.547 345.222H937.424" stroke="#8299C2" stroke-width="3.64" stroke-miterlimit="22.93"/>
<path d="M953.821 366.582H931.698" stroke="#8299C2" stroke-width="3.64" stroke-miterlimit="22.93"/>
<path d="M948.095 387.943H925.973" stroke="#8299C2" stroke-width="3.64" stroke-miterlimit="22.93"/>
<path fill-rule="evenodd" clip-rule="evenodd" d="M1332.49 366.445L1329.25 454.798C1329.03 460.694 1325.31 463.732 1321.71 463.764C1317.86 463.806 1314.16 460.419 1313.79 454.375L1308.32 366.445C1307.67 356.008 1314.11 350.525 1320.55 350.99C1326.16 351.393 1332.87 356.336 1332.5 366.445H1332.49Z" fill="#F9C9B3"/>
<path fill-rule="evenodd" clip-rule="evenodd" d="M1318.7 331.555C1318.54 332.148 1318.36 332.73 1318.16 333.312C1315.29 341.325 1306.46 341.039 1308.47 362.58C1308.92 367.439 1310.95 369.143 1315.74 369.143H1352.15C1356.94 369.143 1359.91 367.428 1360.35 362.58C1362.36 341.05 1353.53 341.325 1350.66 333.312C1350.45 332.73 1350.27 332.148 1350.12 331.555H1318.7Z" fill="#FE6A6A"/>
<path fill-rule="evenodd" clip-rule="evenodd" d="M1344.45 268.331L1334.47 268.225C1331.55 268.574 1329.92 265.505 1329.9 260.794L1329.81 244.948C1329.77 234.056 1333.47 232.172 1336.46 233.231C1339.15 234.183 1341.15 237.179 1341.16 243.572L1341.19 259.376C1341.19 263.938 1342.83 268.003 1344.45 268.331Z" fill="#282636"/>
<path fill-rule="evenodd" clip-rule="evenodd" d="M1332.94 235.603C1331.12 235.603 1329.62 237.095 1329.62 238.916V270.015H1336.26V238.916C1336.26 237.095 1334.77 235.603 1332.95 235.603H1332.94Z" fill="#F9C9B3"/>
<path fill-rule="evenodd" clip-rule="evenodd" d="M1370.59 279.91C1373.19 278.746 1374.37 275.655 1373.2 273.051L1345.6 211.541C1344.43 208.937 1341.34 207.763 1338.73 208.927C1336.12 210.091 1334.95 213.182 1336.11 215.786L1363.72 277.296C1364.88 279.9 1367.97 281.075 1370.58 279.91H1370.59Z" fill="#F9C9B3"/>
<path fill-rule="evenodd" clip-rule="evenodd" d="M1373.88 276.979C1373.88 272.036 1370.12 267.981 1365.53 267.981H1309.98C1305.38 267.981 1301.62 272.025 1301.62 276.979C1301.62 281.922 1305.38 285.976 1309.98 285.976H1365.53C1370.12 285.976 1373.88 281.933 1373.88 276.979Z" fill="#F9C9B3"/>
<path fill-rule="evenodd" clip-rule="evenodd" d="M1336.07 366.445L1339.31 454.798C1339.52 460.694 1343.25 463.732 1346.85 463.764C1350.7 463.806 1354.4 460.419 1354.77 454.375L1360.24 366.445C1360.89 356.008 1354.45 350.525 1348.01 350.99C1342.4 351.393 1335.69 356.336 1336.06 366.445H1336.07Z" fill="#F9C9B3"/>
<path fill-rule="evenodd" clip-rule="evenodd" d="M1315.81 268.035C1316.11 274.46 1316.09 280.049 1319.7 281.88C1320.77 282.42 1322.16 282.632 1323.98 282.431H1343.75C1346.01 282.685 1347.77 282.537 1349.12 282.028C1353.24 280.462 1353.74 275.498 1353.76 267.993H1313.57L1315.82 268.035H1315.81Z" fill="#F9C9B3"/>
<path fill-rule="evenodd" clip-rule="evenodd" d="M1310.59 269.178C1308.33 267.431 1304.31 268.532 1302.81 270.967L1276.77 312.905C1275.27 315.329 1275.46 318.441 1277.72 320.187C1279.99 321.934 1283.5 321.669 1285.01 319.235L1311.05 277.297C1312.55 274.873 1312.87 270.914 1310.6 269.178H1310.59Z" fill="#F9C9B3"/>
<path fill-rule="evenodd" clip-rule="evenodd" d="M1342.6 207.583L1313.31 176.781C1307.48 170.641 1302.94 168.683 1294.3 167.868L1294.12 168.778C1299.86 170.419 1304.97 175.405 1309.8 179.798L1334.69 213.945C1342.47 224.625 1351.28 217.057 1342.6 207.583Z" fill="#F9C9B3"/>
<path fill-rule="evenodd" clip-rule="evenodd" d="M1332.63 245.901L1329.8 237.687L1327.12 245.901H1332.63Z" fill="#F9C9B3"/>
<path d="M1330.23 237.285C1330.92 237.285 1331.54 237.571 1331.99 238.026C1332.1 238.142 1332.21 238.28 1332.3 238.418H1336.85V238.841H1332.53C1332.65 239.137 1332.72 239.476 1332.72 239.815C1332.72 240.513 1332.44 241.149 1331.99 241.614C1331.53 242.069 1330.92 242.355 1330.23 242.355C1329.54 242.355 1328.92 242.069 1328.46 241.614C1328.01 241.159 1327.73 240.524 1327.73 239.815C1327.73 239.106 1328.01 238.481 1328.46 238.015C1328.92 237.56 1329.54 237.274 1330.23 237.274V237.285ZM1331.61 238.418C1331.26 238.058 1330.77 237.835 1330.23 237.835C1329.69 237.835 1329.2 238.058 1328.85 238.418C1328.5 238.777 1328.28 239.275 1328.28 239.825C1328.28 240.376 1328.5 240.873 1328.85 241.233C1329.2 241.593 1329.69 241.815 1330.23 241.815C1330.77 241.815 1331.26 241.593 1331.61 241.233C1331.95 240.873 1332.18 240.376 1332.18 239.825C1332.18 239.275 1331.95 238.777 1331.61 238.418Z" fill="#1F1F1F"/>
<path fill-rule="evenodd" clip-rule="evenodd" d="M1327.98 265.801C1328.79 265.801 1329.44 266.468 1329.44 267.293C1329.44 268.119 1328.79 268.786 1327.98 268.786C1327.18 268.786 1326.52 268.119 1326.52 267.293C1326.52 266.468 1327.18 265.801 1327.98 265.801Z" fill="#8299C2"/>
<path fill-rule="evenodd" clip-rule="evenodd" d="M1329.74 268.173C1330.54 268.173 1331.2 268.84 1331.2 269.665C1331.2 270.491 1330.54 271.158 1329.74 271.158C1328.93 271.158 1328.28 270.491 1328.28 269.665C1328.28 268.84 1328.93 268.173 1329.74 268.173Z" fill="#8299C2"/>
<path fill-rule="evenodd" clip-rule="evenodd" d="M1332.12 269.919C1332.93 269.919 1333.58 270.586 1333.58 271.411C1333.58 272.237 1332.93 272.904 1332.12 272.904C1331.32 272.904 1330.66 272.237 1330.66 271.411C1330.66 270.586 1331.32 269.919 1332.12 269.919Z" fill="#8299C2"/>
<path fill-rule="evenodd" clip-rule="evenodd" d="M1334.89 270.945C1335.69 270.945 1336.35 271.612 1336.35 272.438C1336.35 273.263 1335.69 273.93 1334.89 273.93C1334.08 273.93 1333.42 273.263 1333.42 272.438C1333.42 271.612 1334.08 270.945 1334.89 270.945Z" fill="#8299C2"/>
<path fill-rule="evenodd" clip-rule="evenodd" d="M1344.71 265.801C1343.9 265.801 1343.25 266.468 1343.25 267.293C1343.25 268.119 1343.9 268.786 1344.71 268.786C1345.51 268.786 1346.17 268.119 1346.17 267.293C1346.17 266.468 1345.51 265.801 1344.71 265.801Z" fill="#8299C2"/>
<path fill-rule="evenodd" clip-rule="evenodd" d="M1342.94 268.173C1342.13 268.173 1341.48 268.84 1341.48 269.665C1341.48 270.491 1342.13 271.158 1342.94 271.158C1343.74 271.158 1344.4 270.491 1344.4 269.665C1344.4 268.84 1343.74 268.173 1342.94 268.173Z" fill="#8299C2"/>
<path fill-rule="evenodd" clip-rule="evenodd" d="M1340.56 269.919C1339.76 269.919 1339.1 270.586 1339.1 271.411C1339.1 272.237 1339.76 272.904 1340.56 272.904C1341.36 272.904 1342.02 272.237 1342.02 271.411C1342.02 270.586 1341.36 269.919 1340.56 269.919Z" fill="#8299C2"/>
<path fill-rule="evenodd" clip-rule="evenodd" d="M1337.8 270.945C1337 270.945 1336.34 271.612 1336.34 272.438C1336.34 273.263 1337 273.93 1337.8 273.93C1338.61 273.93 1339.26 273.263 1339.26 272.438C1339.26 271.612 1338.61 270.945 1337.8 270.945Z" fill="#8299C2"/>
<path fill-rule="evenodd" clip-rule="evenodd" d="M1156.43 159.908V195.802C1154.64 194.5 1152.44 193.727 1150.05 193.727C1144.05 193.727 1139.19 198.597 1139.19 204.588C1139.19 210.579 1144.06 215.448 1150.05 215.448C1152.43 215.448 1154.63 214.675 1156.43 213.373V249.987H1066.33V213.511C1064.57 214.728 1062.44 215.448 1060.14 215.448C1054.14 215.448 1049.28 210.579 1049.28 204.588C1049.28 198.597 1054.14 193.727 1060.14 193.727C1062.45 193.727 1064.57 194.447 1066.33 195.664V159.897H1156.43V159.908Z" fill="#8299C2"/>
<path fill-rule="evenodd" clip-rule="evenodd" d="M1275.53 313.804L1274.83 264.954C1274.77 261.514 1268.71 260.276 1266.32 260.424C1264.83 260.519 1265.28 259.005 1265.75 259.016C1267.09 259.048 1279.28 258.137 1279.65 263.229L1284.61 314.471C1285.17 320.283 1281.19 321.426 1278.67 320.547C1276.61 319.838 1275.48 318.261 1275.53 313.794V313.804Z" fill="#F9C9B3"/>
<path fill-rule="evenodd" clip-rule="evenodd" d="M1014.39 109.861L1009.65 105.924C1007.51 104.145 1004.24 104.537 1002.37 106.792L983.495 129.486C981.05 132.429 979.039 134.525 976.573 135.985C970.984 139.277 965.945 134.821 956.641 148.412C954.545 151.482 958.631 156.573 961.436 158.902L968.644 164.893L975.853 170.884C978.658 173.213 984.416 176.315 987.041 173.689C992.143 160.86 988.46 153.345 993.964 147.841C996.017 145.787 998.304 146.761 1000.75 143.818L1019.62 121.124C1021.5 118.869 1021.28 115.577 1019.15 113.799L1014.4 109.861H1014.39Z" fill="#A3A4A5"/>
<path fill-rule="evenodd" clip-rule="evenodd" d="M1019.58 115.027C1018.39 116.848 1018.88 119.314 1020.7 120.51L1063.55 148.836C1065.37 150.032 1067.84 149.535 1069.04 147.714C1070.23 145.893 1069.73 143.427 1067.91 142.231L1025.07 113.905C1023.24 112.709 1020.78 113.207 1019.58 115.027Z" fill="#F9C9B3"/>
<path fill-rule="evenodd" clip-rule="evenodd" d="M1034 126.967L1034.15 126.787C1036.24 124.268 1035.89 120.489 1033.37 118.382L1002.09 92.3747C999.574 90.2789 995.795 90.6282 993.689 93.1474L993.541 93.3274C991.445 95.8466 991.794 99.6255 994.313 101.732L1025.59 127.739C1028.11 129.835 1031.89 129.486 1034 126.967Z" fill="#F9C9B3"/>
<path fill-rule="evenodd" clip-rule="evenodd" d="M1007 96.5876L1003.05 93.1792L993.947 104.124C991.184 107.458 989.395 110.761 989.184 114C988.877 118.816 991.184 120.044 994.222 122.563L1006.22 132.535C1008.41 134.355 1010.54 136.843 1013.69 136.737C1016.87 136.631 1020.53 134.175 1024.17 129.433L1033.37 118.372L1029.29 114.984C1024.39 120.859 1021.2 123.685 1016.35 118.626L1004.76 109.004C999.695 105.648 1003.16 101.647 1006.99 96.5876H1007Z" fill="#A3A4A5"/>
<path fill-rule="evenodd" clip-rule="evenodd" d="M973.66 159.813L976.126 227.134C976.296 231.622 979.132 233.94 981.874 233.972C984.817 234.004 987.622 231.421 987.907 226.817L992.078 159.813C992.575 151.864 987.664 147.683 982.763 148.042C978.487 148.349 973.374 152.118 973.66 159.813Z" fill="#001E60"/>
<path fill-rule="evenodd" clip-rule="evenodd" d="M975.759 228.732L962.294 293.735H962.273C962.157 293.735 960.707 300.319 960.379 301.409C960.177 302.065 960.453 303.018 961.067 303.018H971.99C973.885 303.05 974.213 302.055 971.779 301.441C968.423 300.583 965.025 298.318 966.603 293.661H966.592L987.529 228.721C989.593 222.328 987.36 218.972 983.867 219.248C980.808 219.491 977.039 222.529 975.759 228.721V228.732Z" fill="#001E60"/>
<path fill-rule="evenodd" clip-rule="evenodd" d="M960.918 299.261C960.685 300.256 960.484 301.092 960.379 301.42C960.177 302.076 960.453 303.029 961.067 303.029H971.99C973.885 303.061 974.213 302.066 971.779 301.452C970.223 301.06 968.667 300.362 967.598 299.261H960.918Z" fill="#282636"/>
<path fill-rule="evenodd" clip-rule="evenodd" d="M1007 96.5882C1004.05 100.494 1001.31 103.765 1002.53 106.591C1002.89 107.427 1003.61 108.232 1004.78 109.004L1016.36 118.626C1017.56 119.875 1018.66 120.648 1019.7 121.008C1022.88 122.098 1025.59 119.431 1029.26 115.038L1020.53 107.777L1015.07 103.236L1005.71 95.4556L1007.01 96.5776L1007 96.5882Z" fill="white"/>
<path fill-rule="evenodd" clip-rule="evenodd" d="M1031.92 88.5855C1032.99 89.4746 1033.14 91.073 1032.25 92.1421L1018.81 108.295L1014.93 105.066L1028.36 88.9136C1029.25 87.8445 1030.85 87.6964 1031.92 88.5855Z" fill="#F9C9B3"/>
<path fill-rule="evenodd" clip-rule="evenodd" d="M1012.92 101.383L1016.11 104.03L1021.57 108.571L1022.51 109.354L1013.65 110.254L1012.92 101.383Z" fill="#F9C9B3"/>
<path fill-rule="evenodd" clip-rule="evenodd" d="M1027.07 96.7887L1032.55 91.6655L1029.59 98.6834L1027.07 96.7887Z" fill="#F9C9B3"/>
<path fill-rule="evenodd" clip-rule="evenodd" d="M994.694 95.6986C992.693 96.556 991.751 98.8953 992.608 100.896L1012.79 148.137C1013.65 150.138 1015.99 151.08 1017.99 150.222C1019.99 149.365 1020.93 147.026 1020.08 145.025L999.891 97.7838C999.033 95.7833 996.694 94.8412 994.694 95.6986Z" fill="#F9C9B3"/>
<path fill-rule="evenodd" clip-rule="evenodd" d="M1017.35 151.271L1054.11 169.212C1060.21 172.187 1064.29 172.515 1070.11 170.303L1069.73 169.001C1064.58 169.953 1061.32 168.62 1056.05 165.529L1020.31 144.57C1014.03 140.887 1009.98 148.614 1017.35 151.281V151.271Z" fill="#F9C9B3"/>
<path fill-rule="evenodd" clip-rule="evenodd" d="M970.402 173.859L971.757 225.471C971.588 229.96 968.751 232.278 966.01 232.309C963.067 232.341 960.262 229.758 959.976 225.154L953.583 177.373C952.492 159.876 949.031 150.878 962.337 137.689C972.011 128.099 979.072 130.989 985.147 126.469C985.687 126.067 986.217 125.643 986.735 125.209L1003.93 139.785C996.04 150.73 991.53 154.551 991.001 171.71C985.899 176.981 977.801 176.896 970.381 173.869L970.402 173.859Z" fill="#001E60"/>
<path fill-rule="evenodd" clip-rule="evenodd" d="M959.198 228.732L945.734 293.735H945.713C945.596 293.735 944.146 300.319 943.818 301.409C943.617 302.065 943.892 303.018 944.506 303.018H955.43C957.325 303.05 957.653 302.055 955.229 301.441C951.873 300.583 948.475 298.318 950.053 293.661H950.042L970.979 228.721C973.043 222.328 970.81 218.972 967.317 219.248C964.258 219.491 960.489 222.529 959.209 228.721L959.198 228.732Z" fill="#001E60"/>
<path fill-rule="evenodd" clip-rule="evenodd" d="M944.348 299.261C944.115 300.256 943.914 301.092 943.808 301.42C943.607 302.076 943.882 303.029 944.496 303.029H955.42C957.315 303.061 957.643 302.066 955.219 301.452C953.663 301.06 952.107 300.362 951.038 299.261H944.359H944.348Z" fill="#282636"/>
<path fill-rule="evenodd" clip-rule="evenodd" d="M1297.99 168.915V204.809C1296.2 203.507 1294 202.735 1291.61 202.735C1285.6 202.735 1280.75 207.604 1280.75 213.595C1280.75 219.586 1285.61 224.455 1291.61 224.455C1293.99 224.455 1296.19 223.683 1297.99 222.381V258.994H1207.89V222.518C1206.13 223.736 1203.99 224.455 1201.7 224.455C1195.69 224.455 1190.84 219.586 1190.84 213.595C1190.84 207.604 1195.71 202.735 1201.7 202.735C1204 202.735 1206.13 203.455 1207.89 204.672V168.905H1297.99V168.915Z" fill="#001E60"/>
<path fill-rule="evenodd" clip-rule="evenodd" d="M1073.61 259.111V295.005C1075.39 293.703 1077.6 292.931 1079.99 292.931C1085.99 292.931 1090.85 297.8 1090.85 303.791C1090.85 309.782 1085.98 314.651 1079.99 314.651C1077.61 314.651 1075.4 313.878 1073.61 312.576V349.19H1163.71V312.714C1165.46 313.931 1167.6 314.651 1169.9 314.651C1175.9 314.651 1180.76 309.793 1180.76 303.791C1180.76 297.789 1175.89 292.931 1169.9 292.931C1167.59 292.931 1165.46 293.65 1163.71 294.868V259.101H1073.61V259.111Z" fill="#758AAF"/>
<path fill-rule="evenodd" clip-rule="evenodd" d="M1163.59 259.111V295.005C1165.38 293.703 1167.58 292.931 1169.97 292.931C1175.97 292.931 1180.83 297.8 1180.83 303.791C1180.83 309.782 1175.96 314.651 1169.97 314.651C1167.59 314.651 1165.39 313.878 1163.59 312.576V349.19H1253.69V312.714C1255.45 313.931 1257.58 314.651 1259.88 314.651C1265.88 314.651 1270.74 309.793 1270.74 303.791C1270.74 297.789 1265.87 292.931 1259.88 292.931C1257.57 292.931 1255.45 293.65 1253.69 294.868V259.101H1163.59V259.111Z" fill="#A1CAB7"/>
<path fill-rule="evenodd" clip-rule="evenodd" d="M1027.19 76C1023.7 76 1020.88 78.8262 1020.88 82.3087C1020.88 85.7912 1023.7 88.6174 1027.19 88.6174C1030.67 88.6174 1033.49 85.7912 1033.49 82.3087C1033.49 78.8262 1030.67 76 1027.19 76Z" fill="#282636"/>
<path fill-rule="evenodd" clip-rule="evenodd" d="M1033.14 80.2124C1029.94 80.2124 1027.35 82.8058 1027.35 86.0024C1027.35 89.1991 1029.94 91.7925 1033.14 91.7925C1036.33 91.7925 1038.93 89.1991 1038.93 86.0024C1038.93 82.8058 1036.33 80.2124 1033.14 80.2124Z" fill="#282636"/>
<path fill-rule="evenodd" clip-rule="evenodd" d="M1319.55 318.854C1319.39 319.489 1319.21 320.124 1319 320.738C1316.09 329.333 1305.67 332.318 1307.22 355.478L1313.36 447.6H1355.2L1360.36 362.475C1360.51 360.908 1360.6 359.458 1360.63 358.114L1360.77 355.838C1362.16 332.731 1352.5 329.333 1349.59 320.738C1349.42 320.23 1349.26 319.711 1349.12 319.192V305.051C1351.68 305.051 1354.22 304.744 1356.26 302.944C1359.39 300.16 1361 294.624 1360.7 286.781V267.897H1353.75C1353.73 282.134 1316.43 281.626 1315.8 268.024L1308.96 267.897V286.58C1308.98 292.264 1309.94 297.101 1312.45 300.541C1314.82 303.802 1317.05 304.701 1319.69 304.924V318.843H1319.55V318.854Z" fill="#282636"/>
<path fill-rule="evenodd" clip-rule="evenodd" d="M1273.35 150.921H1256.78C1257.38 150.095 1257.73 149.079 1257.73 147.978C1257.73 145.205 1255.49 142.961 1252.71 142.961C1249.94 142.961 1247.69 145.205 1247.69 147.978C1247.69 149.079 1248.05 150.095 1248.65 150.921H1231.74V109.322H1248.58C1248.02 108.507 1247.68 107.522 1247.68 106.464C1247.68 103.69 1249.93 101.446 1252.7 101.446C1255.47 101.446 1257.72 103.69 1257.72 106.464C1257.72 107.522 1257.39 108.517 1256.82 109.322H1273.33V150.921H1273.35Z" fill="#758AAF"/>
<path fill-rule="evenodd" clip-rule="evenodd" d="M1064.39 260.095H1066.04C1068.38 260.095 1070.29 262.002 1070.29 264.326V288.398H1060.97V263.491C1060.97 261.622 1062.5 260.095 1064.38 260.095H1064.39Z" fill="#E75E30"/>
<path fill-rule="evenodd" clip-rule="evenodd" d="M1064.39 260.095H1066.04C1068.38 260.095 1070.29 262.002 1070.29 264.326V288.398H1060.97V263.491C1060.97 261.622 1062.5 260.095 1064.38 260.095H1064.39Z" fill="#F9C9B3"/>
<path d="M1095.54 287.848H1092.89C1090.22 287.848 1088.06 290.001 1088.06 292.657V355.258C1088.06 357.914 1090.22 360.067 1092.89 360.067H1095.54C1098.21 360.067 1100.37 357.914 1100.37 355.258V292.657C1100.37 290.001 1098.21 287.848 1095.54 287.848Z" fill="#001E60"/>
<path d="M1095.54 287.848H1092.89C1090.22 287.848 1088.06 290.001 1088.06 292.657V355.258C1088.06 357.914 1090.22 360.067 1092.89 360.067H1095.54C1098.21 360.067 1100.37 357.914 1100.37 355.258V292.657C1100.37 290.001 1098.21 287.848 1095.54 287.848Z" fill="#001E60"/>
<path fill-rule="evenodd" clip-rule="evenodd" d="M1093.35 348.959L1127.23 336.325C1127.36 336.278 1127.51 336.23 1127.64 336.183L1128.08 335.832L1129.7 343.069L1099.79 359.895C1094.82 362.684 1090.96 361.546 1089.37 358.634C1087.73 355.608 1088.58 350.723 1093.33 348.95L1093.35 348.959Z" fill="#FFFFCC"/>
<path fill-rule="evenodd" clip-rule="evenodd" d="M1093.35 348.959L1127.23 336.325C1127.36 336.278 1127.51 336.23 1127.64 336.183L1128.08 335.832L1129.7 343.069L1099.79 359.895C1094.82 362.684 1090.96 361.546 1089.37 358.634C1087.73 355.608 1088.58 350.723 1093.33 348.95L1093.35 348.959Z" fill="#F7F7EF"/>
<path fill-rule="evenodd" clip-rule="evenodd" d="M1123.69 337.645L1127.23 336.326C1127.36 336.279 1127.5 336.232 1127.64 336.184L1128.12 335.805L1132.14 341.647C1131.48 342.112 1130.55 342.596 1129.71 343.07L1127.3 344.426L1123.69 337.645Z" fill="white"/>
<path fill-rule="evenodd" clip-rule="evenodd" d="M1123.69 337.645L1127.23 336.326C1127.36 336.279 1127.5 336.232 1127.64 336.184L1128.12 335.805L1132.14 341.647C1131.48 342.112 1130.55 342.596 1129.71 343.07L1127.3 344.426L1123.69 337.645Z" fill="white"/>
<path fill-rule="evenodd" clip-rule="evenodd" d="M1128.09 335.841L1140.25 326.186L1141.84 328.263C1140.71 329.828 1132.54 341.437 1132.08 341.798L1128.09 335.841Z" fill="#FE6A6A"/>
<path fill-rule="evenodd" clip-rule="evenodd" d="M1128.09 335.841L1140.25 326.186L1141.84 328.263C1140.71 329.828 1132.54 341.437 1132.08 341.798L1128.09 335.841Z" fill="#FE6A6A"/>
<path fill-rule="evenodd" clip-rule="evenodd" d="M1086.17 338.051L1097.37 307.377C1099.25 302.359 1102.01 297.219 1098.88 291.679C1095.95 286.519 1091.76 287.904 1087.1 287.904H1032.26C1027.99 287.904 1024.51 291.85 1024.51 296.678C1024.51 299.182 1025.45 301.458 1026.95 303.061L1042.6 335.737L1086.19 338.051H1086.17Z" fill="#001E60"/>
<path fill-rule="evenodd" clip-rule="evenodd" d="M1086.17 338.051L1097.37 307.377C1099.25 302.359 1102.01 297.219 1098.88 291.679C1095.95 286.519 1091.76 287.904 1087.1 287.904H1032.26C1027.99 287.904 1024.51 291.85 1024.51 296.678C1024.51 299.182 1025.45 301.458 1026.95 303.061L1042.6 335.737L1086.19 338.051H1086.17Z" fill="#001E60"/>
<path d="M1031.8 290.323H1029.15C1026.48 290.323 1024.31 292.476 1024.31 295.132V357.733C1024.31 360.389 1026.48 362.542 1029.15 362.542H1031.8C1034.46 362.542 1036.63 360.389 1036.63 357.733V295.132C1036.63 292.476 1034.46 290.323 1031.8 290.323Z" fill="#001E60"/>
<path d="M1031.8 290.323H1029.15C1026.48 290.323 1024.31 292.476 1024.31 295.132V357.733C1024.31 360.389 1026.48 362.542 1029.15 362.542H1031.8C1034.46 362.542 1036.63 360.389 1036.63 357.733V295.132C1036.63 292.476 1034.46 290.323 1031.8 290.323Z" fill="#001E60"/>
<path fill-rule="evenodd" clip-rule="evenodd" d="M1087.37 334.875V340.727C1087.37 394.706 1084.62 446.674 1081.02 500.852H1081.04C1080.82 503.413 1082.2 505.272 1084.22 506.581C1084.67 506.875 1085.17 507.15 1085.69 507.387C1085.72 507.406 1085.75 507.415 1085.79 507.425C1085.85 507.453 1085.91 507.482 1085.97 507.51C1086.03 507.538 1086.08 507.557 1086.13 507.586H1086.16C1086.21 507.624 1086.27 507.643 1086.31 507.662L1086.36 507.681C1086.41 507.7 1086.46 507.719 1086.51 507.738L1086.57 507.757C1086.57 507.757 1086.67 507.795 1086.71 507.814L1086.8 507.842C1086.8 507.842 1086.88 507.87 1086.9 507.88C1086.94 507.889 1086.98 507.908 1087.02 507.918L1087.1 507.946C1087.1 507.946 1087.18 507.975 1087.22 507.984C1087.26 507.994 1087.3 508.013 1087.33 508.022L1087.44 508.06C1087.44 508.06 1087.5 508.079 1087.54 508.098L1087.66 508.136L1087.75 508.164C1087.8 508.183 1087.85 508.193 1087.91 508.212L1087.95 508.231C1088 508.25 1088.06 508.259 1088.11 508.278L1088.16 508.297C1088.22 508.316 1088.27 508.326 1088.32 508.345H1088.37C1088.43 508.373 1088.48 508.392 1088.53 508.402H1088.58C1088.64 508.43 1088.7 508.449 1088.75 508.459H1088.78C1088.85 508.487 1088.92 508.496 1088.97 508.515H1088.98C1089.05 508.534 1089.11 508.553 1089.17 508.563H1089.2C1089.27 508.582 1089.33 508.601 1089.39 508.61H1089.41C1089.48 508.629 1089.54 508.648 1089.6 508.658H1089.63C1089.7 508.677 1089.75 508.696 1089.82 508.705H1089.84C1089.91 508.724 1089.97 508.734 1090.03 508.753H1090.05C1090.12 508.772 1090.19 508.781 1090.26 508.8C1093.56 509.435 1093.47 510.45 1091.06 510.412H1077.19C1076.41 510.412 1075.74 509.445 1075.77 508.772C1075.77 508.734 1075.77 508.696 1075.77 508.648V508.572C1075.77 508.496 1075.77 508.411 1075.77 508.316V508.221C1075.77 508.051 1075.77 507.861 1075.75 507.652V507.624V507.614C1075.75 507.491 1075.75 507.349 1075.74 507.216V507.197V507.112V507.074V506.988V506.941V506.894V506.846V506.799V506.77V506.751V506.704V506.656V506.618V506.571C1075.65 504.2 1075.48 500.909 1075.58 500.909H1075.61C1072.4 458.995 1069.88 417.346 1066.79 375.48H1064.08C1062.36 417.678 1060.3 458.644 1057.7 500.842H1057.72C1057.52 503.413 1058.85 505.272 1060.82 506.581C1061 506.704 1061.19 506.818 1061.38 506.931C1061.44 506.96 1061.49 506.998 1061.54 507.026H1061.55C1061.6 507.064 1061.66 507.093 1061.7 507.121L1061.73 507.14C1061.78 507.169 1061.84 507.197 1061.89 507.216H1061.9C1062.02 507.282 1062.13 507.339 1062.25 507.396C1062.28 507.415 1062.31 507.425 1062.33 507.434C1062.38 507.453 1062.43 507.482 1062.48 507.501L1062.51 507.52C1062.51 507.52 1062.6 507.557 1062.65 507.576L1062.71 507.605C1062.71 507.605 1062.79 507.643 1062.83 507.662L1062.91 507.69C1062.91 507.69 1062.98 507.728 1063.03 507.738L1063.11 507.766C1063.11 507.766 1063.18 507.795 1063.23 507.814L1063.32 507.852C1063.32 507.852 1063.39 507.88 1063.42 507.889C1063.46 507.908 1063.5 507.918 1063.53 507.927L1063.61 507.956C1063.61 507.956 1063.69 507.984 1063.73 508.003L1063.81 508.032C1063.81 508.032 1063.9 508.06 1063.93 508.079L1064.01 508.108C1064.01 508.108 1064.11 508.136 1064.14 508.155L1064.21 508.174C1064.26 508.193 1064.32 508.212 1064.36 508.221L1064.42 508.24C1064.47 508.259 1064.52 508.269 1064.57 508.288L1064.63 508.307C1064.68 508.326 1064.74 508.335 1064.78 508.354H1064.83C1064.88 508.383 1064.94 508.402 1064.98 508.411H1065.03C1065.09 508.44 1065.14 508.459 1065.19 508.468H1065.23C1065.3 508.496 1065.36 508.515 1065.42 508.525H1065.43C1065.49 508.544 1065.56 508.563 1065.61 508.572H1065.64C1065.7 508.591 1065.76 508.61 1065.82 508.62H1065.85C1065.91 508.639 1065.97 508.658 1066.02 508.667H1066.06C1066.12 508.686 1066.18 508.705 1066.24 508.715H1066.26C1066.33 508.734 1066.38 508.743 1066.45 508.762H1066.47C1066.54 508.781 1066.6 508.791 1066.67 508.809C1069.87 509.445 1069.79 510.46 1067.45 510.422H1054.01C1053.26 510.422 1052.61 509.454 1052.63 508.781C1052.63 508.762 1052.63 508.753 1052.63 508.734V508.677V508.639V508.601V508.544V508.515V508.487V508.43V508.411V508.373V508.345V508.316V508.278V508.25V508.221V508.193V508.127V508.108V508.089V508.051V508.013V507.984V507.946V507.908V507.87V507.842V507.804V507.766V507.747V507.728V507.69V507.652V507.624V507.576V507.538V507.529V507.453V507.415V507.377V507.358V507.33V507.282V507.235V507.207V507.188V507.14V507.093V507.055V507.007V506.96V506.913V506.865V506.818V506.77V506.742V506.723V506.675V506.628V506.59V506.543C1052.53 504.171 1052.36 500.88 1052.46 500.88H1052.49C1048.47 448.495 1042.18 391.651 1042.18 340.679V334.827H1087.42L1087.37 334.875Z" fill="#758AAF"/>
<path fill-rule="evenodd" clip-rule="evenodd" d="M1087.37 334.875V340.727C1087.37 394.706 1084.62 446.674 1081.02 500.852H1081.04C1080.82 503.413 1082.2 505.272 1084.22 506.581C1084.67 506.875 1085.17 507.15 1085.69 507.387C1085.72 507.406 1085.75 507.415 1085.79 507.425C1085.85 507.453 1085.91 507.482 1085.97 507.51C1086.03 507.538 1086.08 507.557 1086.13 507.586H1086.16C1086.21 507.624 1086.27 507.643 1086.31 507.662L1086.36 507.681C1086.41 507.7 1086.46 507.719 1086.51 507.738L1086.57 507.757C1086.57 507.757 1086.67 507.795 1086.71 507.814L1086.8 507.842C1086.8 507.842 1086.88 507.87 1086.9 507.88C1086.94 507.889 1086.98 507.908 1087.02 507.918L1087.1 507.946C1087.1 507.946 1087.18 507.975 1087.22 507.984C1087.26 507.994 1087.3 508.013 1087.33 508.022L1087.44 508.06C1087.44 508.06 1087.5 508.079 1087.54 508.098L1087.66 508.136L1087.75 508.164C1087.8 508.183 1087.85 508.193 1087.91 508.212L1087.95 508.231C1088 508.25 1088.06 508.259 1088.11 508.278L1088.16 508.297C1088.22 508.316 1088.27 508.326 1088.32 508.345H1088.37C1088.43 508.373 1088.48 508.392 1088.53 508.402H1088.58C1088.64 508.43 1088.7 508.449 1088.75 508.459H1088.78C1088.85 508.487 1088.92 508.496 1088.97 508.515H1088.98C1089.05 508.534 1089.11 508.553 1089.17 508.563H1089.2C1089.27 508.582 1089.33 508.601 1089.39 508.61H1089.41C1089.48 508.629 1089.54 508.648 1089.6 508.658H1089.63C1089.7 508.677 1089.75 508.696 1089.82 508.705H1089.84C1089.91 508.724 1089.97 508.734 1090.03 508.753H1090.05C1090.12 508.772 1090.19 508.781 1090.26 508.8C1093.56 509.435 1093.47 510.45 1091.06 510.412H1077.19C1076.41 510.412 1075.74 509.445 1075.77 508.772C1075.77 508.734 1075.77 508.696 1075.77 508.648V508.572C1075.77 508.496 1075.77 508.411 1075.77 508.316V508.221C1075.77 508.051 1075.77 507.861 1075.75 507.652V507.624V507.614C1075.75 507.491 1075.75 507.349 1075.74 507.216V507.197V507.112V507.074V506.988V506.941V506.894V506.846V506.799V506.77V506.751V506.704V506.656V506.618V506.571C1075.65 504.2 1075.48 500.909 1075.58 500.909H1075.61C1072.4 458.995 1069.88 417.346 1066.79 375.48H1064.08C1062.36 417.678 1060.3 458.644 1057.7 500.842H1057.72C1057.52 503.413 1058.85 505.272 1060.82 506.581C1061 506.704 1061.19 506.818 1061.38 506.931C1061.44 506.96 1061.49 506.998 1061.54 507.026H1061.55C1061.6 507.064 1061.66 507.093 1061.7 507.121L1061.73 507.14C1061.78 507.169 1061.84 507.197 1061.89 507.216H1061.9C1062.02 507.282 1062.13 507.339 1062.25 507.396C1062.28 507.415 1062.31 507.425 1062.33 507.434C1062.38 507.453 1062.43 507.482 1062.48 507.501L1062.51 507.52C1062.51 507.52 1062.6 507.557 1062.65 507.576L1062.71 507.605C1062.71 507.605 1062.79 507.643 1062.83 507.662L1062.91 507.69C1062.91 507.69 1062.98 507.728 1063.03 507.738L1063.11 507.766C1063.11 507.766 1063.18 507.795 1063.23 507.814L1063.32 507.852C1063.32 507.852 1063.39 507.88 1063.42 507.889C1063.46 507.908 1063.5 507.918 1063.53 507.927L1063.61 507.956C1063.61 507.956 1063.69 507.984 1063.73 508.003L1063.81 508.032C1063.81 508.032 1063.9 508.06 1063.93 508.079L1064.01 508.108C1064.01 508.108 1064.11 508.136 1064.14 508.155L1064.21 508.174C1064.26 508.193 1064.32 508.212 1064.36 508.221L1064.42 508.24C1064.47 508.259 1064.52 508.269 1064.57 508.288L1064.63 508.307C1064.68 508.326 1064.74 508.335 1064.78 508.354H1064.83C1064.88 508.383 1064.94 508.402 1064.98 508.411H1065.03C1065.09 508.44 1065.14 508.459 1065.19 508.468H1065.23C1065.3 508.496 1065.36 508.515 1065.42 508.525H1065.43C1065.49 508.544 1065.56 508.563 1065.61 508.572H1065.64C1065.7 508.591 1065.76 508.61 1065.82 508.62H1065.85C1065.91 508.639 1065.97 508.658 1066.02 508.667H1066.06C1066.12 508.686 1066.18 508.705 1066.24 508.715H1066.26C1066.33 508.734 1066.38 508.743 1066.45 508.762H1066.47C1066.54 508.781 1066.6 508.791 1066.67 508.809C1069.87 509.445 1069.79 510.46 1067.45 510.422H1054.01C1053.26 510.422 1052.61 509.454 1052.63 508.781C1052.63 508.762 1052.63 508.753 1052.63 508.734V508.677V508.639V508.601V508.544V508.515V508.487V508.43V508.411V508.373V508.345V508.316V508.278V508.25V508.221V508.193V508.127V508.108V508.089V508.051V508.013V507.984V507.946V507.908V507.87V507.842V507.804V507.766V507.747V507.728V507.69V507.652V507.624V507.576V507.538V507.529V507.453V507.415V507.377V507.358V507.33V507.282V507.235V507.207V507.188V507.14V507.093V507.055V507.007V506.96V506.913V506.865V506.818V506.77V506.742V506.723V506.675V506.628V506.59V506.543C1052.53 504.171 1052.36 500.88 1052.46 500.88H1052.49C1048.47 448.495 1042.18 391.651 1042.18 340.679V334.827H1087.42L1087.37 334.875Z" fill="#A3A4A5"/>
<path fill-rule="evenodd" clip-rule="evenodd" d="M1063.33 266.128H1063.3V268.1C1063.07 269.903 1062.06 271.543 1060.05 271.79V266.128H1060.04C1060.04 262.542 1062.52 259.63 1065.58 259.63C1066.55 259.63 1067.51 259.962 1068.36 260.531C1068.02 261.727 1067.22 263.937 1065.53 263.937C1064.31 263.937 1063.46 264.876 1063.34 266.118L1063.33 266.128Z" fill="#001E60"/>
<path fill-rule="evenodd" clip-rule="evenodd" d="M1063.33 266.128H1063.3V268.1C1063.07 269.903 1062.06 271.543 1060.05 271.79V266.128H1060.04C1060.04 262.542 1062.52 259.63 1065.58 259.63C1066.55 259.63 1067.51 259.962 1068.36 260.531C1068.02 261.727 1067.22 263.937 1065.53 263.937C1064.31 263.937 1063.46 264.876 1063.34 266.118L1063.33 266.128Z" fill="#001E60"/>
<path fill-rule="evenodd" clip-rule="evenodd" d="M1055.66 287.857H1075.48C1073.26 291.328 1069.64 293.586 1065.56 293.586C1061.49 293.586 1057.87 291.328 1055.65 287.857H1055.66Z" fill="#FFFFCC"/>
<path fill-rule="evenodd" clip-rule="evenodd" d="M1055.66 287.857H1075.48C1073.26 291.328 1069.64 293.586 1065.56 293.586C1061.49 293.586 1057.87 291.328 1055.65 287.857H1055.66Z" fill="#F7F7EF"/>
<path fill-rule="evenodd" clip-rule="evenodd" d="M1067.77 271.411L1069.63 262.912L1072.96 271.211L1067.77 271.411Z" fill="#E75E30"/>
<path fill-rule="evenodd" clip-rule="evenodd" d="M1067.77 271.411L1069.63 262.912L1072.96 271.211L1067.77 271.411Z" fill="#F9C9B3"/>
<path fill-rule="evenodd" clip-rule="evenodd" d="M1036.15 354.166L1059.24 383C1059.34 383.114 1059.43 383.238 1059.51 383.351L1054.05 387.762L1028.57 364.287C1024.34 360.388 1024.03 356.196 1026.1 353.645C1028.24 350.989 1032.92 350.126 1036.15 354.166Z" fill="#FFFFCC"/>
<path fill-rule="evenodd" clip-rule="evenodd" d="M1036.15 354.166L1059.24 383C1059.34 383.114 1059.43 383.238 1059.51 383.351L1054.05 387.762L1028.57 364.287C1024.34 360.388 1024.03 356.196 1026.1 353.645C1028.24 350.989 1032.92 350.126 1036.15 354.166Z" fill="#F7F7EF"/>
<path fill-rule="evenodd" clip-rule="evenodd" d="M1059.25 383.011C1059.34 383.125 1059.43 383.248 1059.51 383.362L1072.86 392.24L1071.55 394.516L1056.8 390.058C1056.05 389.698 1055.01 388.654 1054.05 387.763L1059.25 383.001V383.011Z" fill="#E75E30"/>
<path fill-rule="evenodd" clip-rule="evenodd" d="M1059.25 383.011C1059.34 383.125 1059.43 383.248 1059.51 383.362L1072.86 392.24L1071.55 394.516L1056.8 390.058C1056.05 389.698 1055.01 388.654 1054.05 387.763L1059.25 383.001V383.011Z" fill="#F9C9B3"/>
<path fill-rule="evenodd" clip-rule="evenodd" d="M1107.12 312.092V363.14H1139.02L1140.75 362.144L1153.81 354.642L1155.54 353.646V302.598L1153.81 303.594L1140.75 311.096L1139.02 312.092H1107.12Z" fill="#001E60"/>
<path fill-rule="evenodd" clip-rule="evenodd" d="M1153.4 305.68V350.952L1142.09 357.458V312.187L1153.4 305.68Z" fill="#FFFFCC"/>
<path d="M1127.75 315.117H1125.01V317.905H1127.75V315.117Z" fill="#4F9475"/>
<path d="M1127.75 318.598H1125.01V321.386H1127.75V318.598Z" fill="#4F9475"/>
<path d="M1127.75 322.07H1125.01V324.858H1127.75V322.07Z" fill="#4F9475"/>
<path d="M1127.75 325.55H1125.01V328.338H1127.75V325.55Z" fill="#4F9475"/>
<path d="M1127.75 329.022H1125.01V331.811H1127.75V329.022Z" fill="#4F9475"/>
<path d="M1127.75 332.502H1125.01V335.291H1127.75V332.502Z" fill="#4F9475"/>
<path d="M1127.75 335.974H1125.01V338.763H1127.75V335.974Z" fill="#4F9475"/>
<path d="M1127.75 339.456H1125.01V342.244H1127.75V339.456Z" fill="#4F9475"/>
<path d="M1127.75 342.937H1125.01V345.725H1127.75V342.937Z" fill="#4F9475"/>
<path d="M1127.75 346.408H1125.01V349.196H1127.75V346.408Z" fill="#4F9475"/>
<path d="M1127.75 349.889H1125.01V352.677H1127.75V349.889Z" fill="#4F9475"/>
<path d="M1127.75 353.36H1125.01V356.148H1127.75V353.36Z" fill="#4F9475"/>
<path d="M1127.75 356.842H1125.01V359.631H1127.75V356.842Z" fill="#4F9475"/>
<path d="M1124.3 315.117H1121.56V317.905H1124.3V315.117Z" fill="#4F9475"/>
<path d="M1124.3 318.598H1121.56V321.386H1124.3V318.598Z" fill="#4F9475"/>
<path d="M1124.3 322.07H1121.56V324.858H1124.3V322.07Z" fill="#4F9475"/>
<path d="M1124.3 325.55H1121.56V328.338H1124.3V325.55Z" fill="#4F9475"/>
<path d="M1124.3 329.022H1121.56V331.811H1124.3V329.022Z" fill="#4F9475"/>
<path d="M1124.3 332.502H1121.56V335.291H1124.3V332.502Z" fill="#4F9475"/>
<path d="M1124.3 335.974H1121.56V338.763H1124.3V335.974Z" fill="#4F9475"/>
<path d="M1124.3 339.456H1121.56V342.244H1124.3V339.456Z" fill="#4F9475"/>
<path d="M1124.3 342.937H1121.56V345.725H1124.3V342.937Z" fill="#4F9475"/>
<path d="M1124.3 346.408H1121.56V349.196H1124.3V346.408Z" fill="#4F9475"/>
<path d="M1124.3 349.889H1121.56V352.677H1124.3V349.889Z" fill="#4F9475"/>
<path d="M1124.3 353.36H1121.56V356.148H1124.3V353.36Z" fill="#4F9475"/>
<path d="M1124.3 356.842H1121.56V359.631H1124.3V356.842Z" fill="#4F9475"/>
<path d="M1120.98 315.117H1118.23V317.905H1120.98V315.117Z" fill="#4F9475"/>
<path d="M1120.98 318.598H1118.23V321.386H1120.98V318.598Z" fill="#4F9475"/>
<path d="M1120.98 322.07H1118.23V324.858H1120.98V322.07Z" fill="#4F9475"/>
<path d="M1120.98 325.55H1118.23V328.338H1120.98V325.55Z" fill="#4F9475"/>
<path d="M1120.98 329.022H1118.23V331.811H1120.98V329.022Z" fill="#4F9475"/>
<path d="M1120.98 332.502H1118.23V335.291H1120.98V332.502Z" fill="#4F9475"/>
<path d="M1120.98 335.974H1118.23V338.763H1120.98V335.974Z" fill="#4F9475"/>
<path d="M1120.98 339.456H1118.23V342.244H1120.98V339.456Z" fill="#4F9475"/>
<path d="M1120.98 342.937H1118.23V345.725H1120.98V342.937Z" fill="#4F9475"/>
<path d="M1120.98 346.408H1118.23V349.196H1120.98V346.408Z" fill="#4F9475"/>
<path d="M1120.98 349.889H1118.23V352.677H1120.98V349.889Z" fill="#4F9475"/>
<path d="M1120.98 353.36H1118.23V356.148H1120.98V353.36Z" fill="#4F9475"/>
<path d="M1120.98 356.842H1118.23V359.631H1120.98V356.842Z" fill="#4F9475"/>
<path fill-rule="evenodd" clip-rule="evenodd" d="M1107.12 312.092V363.14H1139.02L1140.75 362.144L1153.81 354.642L1155.54 353.646V302.598L1153.81 303.594L1140.75 311.096L1139.02 312.092H1107.12Z" fill="#001E60"/>
<path fill-rule="evenodd" clip-rule="evenodd" d="M1153.4 305.68V350.952L1142.09 357.458V312.187L1153.4 305.68Z" fill="#F7F7EF"/>
<path d="M1127.75 315.117H1125.01V317.905H1127.75V315.117Z" fill="#F7F7EF"/>
<path d="M1127.75 318.598H1125.01V321.386H1127.75V318.598Z" fill="#F7F7EF"/>
<path d="M1127.75 322.07H1125.01V324.858H1127.75V322.07Z" fill="#F7F7EF"/>
<path d="M1127.75 325.55H1125.01V328.338H1127.75V325.55Z" fill="#F7F7EF"/>
<path d="M1127.75 329.022H1125.01V331.811H1127.75V329.022Z" fill="#F7F7EF"/>
<path d="M1127.75 332.502H1125.01V335.291H1127.75V332.502Z" fill="#F7F7EF"/>
<path d="M1127.75 335.974H1125.01V338.763H1127.75V335.974Z" fill="#F7F7EF"/>
<path d="M1127.75 339.456H1125.01V342.244H1127.75V339.456Z" fill="#F7F7EF"/>
<path d="M1127.75 342.937H1125.01V345.725H1127.75V342.937Z" fill="#F7F7EF"/>
<path d="M1127.75 346.408H1125.01V349.196H1127.75V346.408Z" fill="#F7F7EF"/>
<path d="M1127.75 349.889H1125.01V352.677H1127.75V349.889Z" fill="#F7F7EF"/>
<path d="M1127.75 353.36H1125.01V356.148H1127.75V353.36Z" fill="#F7F7EF"/>
<path d="M1127.75 356.842H1125.01V359.631H1127.75V356.842Z" fill="#F7F7EF"/>
<path d="M1124.3 315.117H1121.56V317.905H1124.3V315.117Z" fill="#F7F7EF"/>
<path d="M1124.3 318.598H1121.56V321.386H1124.3V318.598Z" fill="#F7F7EF"/>
<path d="M1124.3 322.07H1121.56V324.858H1124.3V322.07Z" fill="#F7F7EF"/>
<path d="M1124.3 325.55H1121.56V328.338H1124.3V325.55Z" fill="#F7F7EF"/>
<path d="M1124.3 329.022H1121.56V331.811H1124.3V329.022Z" fill="#F7F7EF"/>
<path d="M1124.3 332.502H1121.56V335.291H1124.3V332.502Z" fill="#F7F7EF"/>
<path d="M1124.3 335.974H1121.56V338.763H1124.3V335.974Z" fill="#F7F7EF"/>
<path d="M1124.3 339.456H1121.56V342.244H1124.3V339.456Z" fill="#F7F7EF"/>
<path d="M1124.3 342.937H1121.56V345.725H1124.3V342.937Z" fill="#F7F7EF"/>
<path d="M1124.3 346.408H1121.56V349.196H1124.3V346.408Z" fill="#F7F7EF"/>
<path d="M1124.3 349.889H1121.56V352.677H1124.3V349.889Z" fill="#F7F7EF"/>
<path d="M1124.3 353.36H1121.56V356.148H1124.3V353.36Z" fill="#F7F7EF"/>
<path d="M1124.3 356.842H1121.56V359.631H1124.3V356.842Z" fill="#F7F7EF"/>
<path d="M1120.98 315.117H1118.23V317.905H1120.98V315.117Z" fill="#F7F7EF"/>
<path d="M1120.98 318.598H1118.23V321.386H1120.98V318.598Z" fill="#F7F7EF"/>
<path d="M1120.98 322.07H1118.23V324.858H1120.98V322.07Z" fill="#F7F7EF"/>
<path d="M1120.98 325.55H1118.23V328.338H1120.98V325.55Z" fill="#F7F7EF"/>
<path d="M1120.98 329.022H1118.23V331.811H1120.98V329.022Z" fill="#F7F7EF"/>
<path d="M1120.98 332.502H1118.23V335.291H1120.98V332.502Z" fill="#F7F7EF"/>
<path d="M1120.98 335.974H1118.23V338.763H1120.98V335.974Z" fill="#F7F7EF"/>
<path d="M1120.98 339.456H1118.23V342.244H1120.98V339.456Z" fill="#F7F7EF"/>
<path d="M1120.98 342.937H1118.23V345.725H1120.98V342.937Z" fill="#F7F7EF"/>
<path d="M1120.98 346.408H1118.23V349.196H1120.98V346.408Z" fill="#F7F7EF"/>
<path d="M1120.98 349.889H1118.23V352.677H1120.98V349.889Z" fill="#F7F7EF"/>
<path d="M1120.98 353.36H1118.23V356.148H1120.98V353.36Z" fill="#F7F7EF"/>
<path d="M1120.98 356.842H1118.23V359.631H1120.98V356.842Z" fill="#F7F7EF"/>
<path d="M1109.71 173.203C1094.76 169.686 1085.49 154.705 1089 139.744C1092.52 124.782 1107.49 115.505 1122.44 119.023C1137.39 122.54 1146.66 137.52 1143.14 152.482C1139.63 167.443 1124.66 176.72 1109.71 173.203Z" fill="#E9B317"/>
<path d="M1122.18 148.403C1122.57 149.001 1122.89 149.666 1123.14 150.397C1123.38 151.129 1123.49 151.95 1123.46 152.869C1123.43 153.788 1123.21 154.635 1122.8 155.425C1122.31 156.38 1121.56 157.169 1120.58 157.798C1119.59 158.423 1118.52 158.775 1117.37 158.851H1117.26L1117.23 160.479L1115.9 160.453L1115.93 158.766C1115.44 158.691 1114.92 158.561 1114.38 158.374C1111.98 157.513 1109.96 155.893 1108.3 153.52L1110.64 151.892C1111.96 153.783 1113.53 155.055 1115.33 155.71C1115.56 155.786 1115.78 155.849 1115.98 155.907L1116.1 147.685C1115.23 147.328 1114.5 146.918 1113.89 146.449C1113.29 145.981 1112.81 145.325 1112.45 144.486C1111.83 142.987 1111.83 141.595 1112.45 140.306C1112.81 139.557 1113.33 138.941 1114.02 138.455C1114.7 137.969 1115.45 137.688 1116.26 137.612L1116.29 135.983H1117.62L1117.59 137.665C1118.25 137.795 1118.87 138.058 1119.44 138.45C1120.02 138.843 1120.51 139.343 1120.91 139.954C1121.31 140.561 1121.59 141.23 1121.74 141.961L1118.95 142.523C1118.76 141.627 1118.3 140.989 1117.56 140.614L1117.48 145.191C1117.48 145.191 1117.57 145.218 1117.7 145.276C1118.19 145.463 1118.58 145.624 1118.86 145.753C1119.14 145.883 1119.51 146.074 1119.95 146.329C1120.39 146.583 1120.8 146.882 1121.17 147.225C1121.53 147.573 1121.87 147.97 1122.17 148.417L1122.18 148.403ZM1116.16 144.558L1116.22 140.489C1115.67 140.659 1115.27 140.993 1115.03 141.502C1114.77 142.046 1114.78 142.68 1115.09 143.411C1115.3 143.88 1115.66 144.263 1116.16 144.562L1116.16 144.558ZM1120.29 154.127C1120.59 153.395 1120.68 152.672 1120.57 151.95C1120.46 151.227 1120.2 150.571 1119.8 149.969C1119.32 149.237 1118.52 148.649 1117.43 148.202L1117.32 156.005C1117.9 155.929 1118.47 155.733 1119.03 155.416C1119.58 155.099 1120 154.667 1120.29 154.127Z" fill="white"/>
<path fill-rule="evenodd" clip-rule="evenodd" d="M1220.87 328.453C1196.06 328.453 1175.96 348.563 1175.96 373.365V429.936L1195.47 410.417C1202.7 415.376 1211.44 418.284 1220.87 418.284C1245.67 418.284 1265.78 398.174 1265.78 373.372C1265.78 348.569 1245.67 328.453 1220.87 328.453Z" fill="#8299C2"/>
<path fill-rule="evenodd" clip-rule="evenodd" d="M1180.63 417.105L1194.54 403.533L1198.12 405.935C1204.84 410.438 1212.72 412.809 1220.87 412.809C1243.09 412.809 1261.11 395.235 1261.11 373.547C1261.11 351.859 1243.1 334.285 1220.87 334.285C1198.64 334.285 1180.34 351.752 1180.63 373.478V373.516V417.099V417.105Z" fill="white"/>
<path fill-rule="evenodd" clip-rule="evenodd" d="M1200.12 366.752L1193.45 373.463L1213.32 392.609L1244.78 362.3L1237.49 355.282L1212.95 378.922L1200.12 366.752Z" fill="#FFCC00"/>
<path fill-rule="evenodd" clip-rule="evenodd" d="M1443 486V448.055C1364.43 440.353 1228.4 440.167 1146.91 446.539C1057.83 453.499 988.625 452.07 898.075 447.608C575.885 431.734 495.354 462.336 293.089 446.539C211.597 440.167 75.5694 440.353 -3 448.055V486H1443Z" fill="#C2CDE1"/>
</g>
<defs>
<clipPath id="clip0_1443_962">
<rect width="1440" height="486" fill="white"/>
</clipPath>
</defs>
</svg>
