<svg width="1440" height="486" viewBox="0 0 1440 486" fill="none" xmlns="http://www.w3.org/2000/svg">
<g clip-path="url(#clip0_1380_13)" filter="url(#filter0_d_1380_13)">
<path fill-rule="evenodd" clip-rule="evenodd" d="M1162.85 413.509C1161.57 413.509 1160.52 414.556 1160.52 415.837V423.614C1160.52 424.895 1161.57 425.943 1162.85 425.943C1164.13 425.943 1165.18 424.895 1165.18 423.614V415.837C1165.18 414.556 1164.13 413.509 1162.85 413.509Z" fill="#C2CDE1"/>
<path fill-rule="evenodd" clip-rule="evenodd" d="M1142.5 413.509C1141.22 413.509 1140.17 414.556 1140.17 415.837V423.614C1140.17 424.895 1141.22 425.943 1142.5 425.943C1143.78 425.943 1144.82 424.895 1144.82 423.614V415.837C1144.82 414.556 1143.78 413.509 1142.5 413.509Z" fill="#C2CDE1"/>
<path fill-rule="evenodd" clip-rule="evenodd" d="M1151.72 435.892C1150.44 435.892 1149.39 436.939 1149.39 438.221V445.997C1149.39 447.279 1150.44 448.326 1151.72 448.326C1153 448.326 1154.04 447.279 1154.04 445.997V438.221C1154.04 436.939 1153 435.892 1151.72 435.892Z" fill="#C2CDE1"/>
<path fill-rule="evenodd" clip-rule="evenodd" d="M1171.49 435.892C1170.21 435.892 1169.16 436.939 1169.16 438.221V445.997C1169.16 447.279 1170.21 448.326 1171.49 448.326C1172.77 448.326 1173.82 447.279 1173.82 445.997V438.221C1173.82 436.939 1172.77 435.892 1171.49 435.892Z" fill="#C2CDE1"/>
<path fill-rule="evenodd" clip-rule="evenodd" d="M1134.04 435.892C1132.75 435.892 1131.71 436.939 1131.71 438.221V445.997C1131.71 447.279 1132.75 448.326 1134.04 448.326C1135.32 448.326 1136.36 447.279 1136.36 445.997V438.221C1136.36 436.939 1135.32 435.892 1134.04 435.892Z" fill="#C2CDE1"/>
<path fill-rule="evenodd" clip-rule="evenodd" d="M1292.28 302.651C1290.99 302.651 1289.95 303.699 1289.95 304.98V312.757C1289.95 314.038 1290.99 315.085 1292.28 315.085C1293.56 315.085 1294.6 314.038 1294.6 312.757V304.98C1294.6 303.699 1293.56 302.651 1292.28 302.651Z" fill="#C2CDE1"/>
<path fill-rule="evenodd" clip-rule="evenodd" d="M1271.92 302.651C1270.64 302.651 1269.59 303.699 1269.59 304.98V312.757C1269.59 314.038 1270.64 315.085 1271.92 315.085C1273.2 315.085 1274.25 314.038 1274.25 312.757V304.98C1274.25 303.699 1273.2 302.651 1271.92 302.651Z" fill="#C2CDE1"/>
<path fill-rule="evenodd" clip-rule="evenodd" d="M1281.14 325.035C1279.86 325.035 1278.81 326.082 1278.81 327.363V335.14C1278.81 336.421 1279.86 337.469 1281.14 337.469C1282.42 337.469 1283.47 336.421 1283.47 335.14V327.363C1283.47 326.082 1282.42 325.035 1281.14 325.035Z" fill="#C2CDE1"/>
<path fill-rule="evenodd" clip-rule="evenodd" d="M1263.45 325.035C1262.17 325.035 1261.12 326.082 1261.12 327.363V335.14C1261.12 336.421 1262.17 337.469 1263.45 337.469C1264.73 337.469 1265.78 336.421 1265.78 335.14V327.363C1265.78 326.082 1264.73 325.035 1263.45 325.035Z" fill="#C2CDE1"/>
<path fill-rule="evenodd" clip-rule="evenodd" d="M887.899 414.021C886.619 414.021 885.572 415.069 885.572 416.35V424.127C885.572 425.408 886.619 426.455 887.899 426.455C889.18 426.455 890.226 425.408 890.226 424.127V416.35C890.226 415.069 889.18 414.021 887.899 414.021Z" fill="#C2CDE1"/>
<path fill-rule="evenodd" clip-rule="evenodd" d="M905.915 413.52C904.635 413.52 903.588 414.567 903.588 415.849V423.625C903.588 424.907 904.635 425.954 905.915 425.954C907.195 425.954 908.242 424.907 908.242 423.625V415.849C908.242 414.567 907.195 413.52 905.915 413.52Z" fill="#C2CDE1"/>
<path fill-rule="evenodd" clip-rule="evenodd" d="M894.681 437.775C893.4 437.775 892.354 438.822 892.354 440.103V447.88C892.354 449.161 893.4 450.209 894.681 450.209C895.961 450.209 897.008 449.161 897.008 447.88V440.103C897.008 438.822 895.961 437.775 894.681 437.775Z" fill="#C2CDE1"/>
<path fill-rule="evenodd" clip-rule="evenodd" d="M911.46 438.377C910.179 438.377 909.133 439.424 909.133 440.706V448.482C909.133 449.764 910.179 450.811 911.46 450.811C912.74 450.811 913.787 449.764 913.787 448.482V440.706C913.787 439.424 912.74 438.377 911.46 438.377Z" fill="#C2CDE1"/>
<path fill-rule="evenodd" clip-rule="evenodd" d="M874.327 438.377C873.047 438.377 872 439.424 872 440.706V448.482C872 449.764 873.047 450.811 874.327 450.811C875.608 450.811 876.654 449.764 876.654 448.482V440.706C876.654 439.424 875.608 438.377 874.327 438.377Z" fill="#C2CDE1"/>
<path fill-rule="evenodd" clip-rule="evenodd" d="M904.668 390.858C903.387 390.858 902.341 391.906 902.341 393.187V400.964C902.341 402.245 903.387 403.292 904.668 403.292C905.948 403.292 906.995 402.245 906.995 400.964V393.187C906.995 391.906 905.948 390.858 904.668 390.858Z" fill="#C2CDE1"/>
<path fill-rule="evenodd" clip-rule="evenodd" d="M1105.22 410.791C1105.22 410.791 1105.22 410.88 1105.22 410.935C1105.22 410.935 1105.22 411.036 1105.22 411.08C1105.22 411.08 1105.22 411.181 1105.22 411.225C1105.22 411.225 1105.22 411.325 1105.22 411.37C1105.22 411.415 1105.22 411.47 1105.22 411.515C1105.22 411.515 1105.22 411.615 1105.22 411.66C1105.22 411.66 1105.22 411.76 1105.22 411.805C1105.22 411.805 1105.22 411.905 1105.22 411.949C1105.22 411.949 1105.22 412.05 1105.22 412.105C1105.22 412.161 1105.22 412.206 1105.22 412.261C1105.22 412.261 1105.22 412.362 1105.23 412.417C1105.23 412.417 1105.23 412.518 1105.24 412.573C1105.24 412.629 1105.25 412.674 1105.26 412.729C1105.26 412.729 1105.27 412.83 1105.29 412.885C1105.29 412.941 1105.3 412.986 1105.31 413.041C1105.31 413.041 1105.32 413.142 1105.33 413.197C1105.33 413.253 1105.35 413.297 1105.35 413.353C1105.35 413.409 1105.37 413.453 1105.39 413.509C1105.39 413.565 1105.41 413.609 1105.42 413.665C1105.42 413.721 1105.44 413.765 1105.45 413.821C1105.46 413.877 1105.47 413.933 1105.49 413.977C1105.5 414.033 1105.51 414.089 1105.52 414.133C1105.53 414.189 1105.54 414.245 1105.56 414.289C1105.58 414.345 1105.59 414.4 1105.61 414.445C1105.62 414.501 1105.64 414.556 1105.65 414.601C1105.66 414.657 1105.69 414.712 1105.7 414.757C1105.71 414.813 1105.73 414.868 1105.74 414.913C1105.76 414.969 1105.78 415.024 1105.8 415.069C1105.8 415.069 1105.83 415.18 1105.85 415.225C1105.85 415.225 1105.89 415.336 1105.91 415.381C1105.91 415.381 1105.94 415.492 1105.96 415.537C1105.96 415.537 1106 415.648 1106.02 415.693C1106.02 415.693 1106.07 415.804 1106.08 415.849C1106.08 415.849 1106.12 415.96 1106.14 416.005C1106.14 416.005 1106.19 416.116 1106.21 416.161C1106.21 416.161 1106.25 416.272 1106.28 416.317C1106.28 416.317 1106.32 416.428 1106.34 416.473C1106.34 416.473 1106.39 416.584 1106.41 416.629C1106.41 416.629 1106.45 416.74 1106.49 416.785C1106.53 416.896 1106.59 416.996 1106.64 417.097C1106.64 417.097 1106.7 417.197 1106.72 417.253C1106.72 417.253 1106.78 417.353 1106.8 417.409C1106.8 417.409 1106.86 417.509 1106.89 417.565C1106.89 417.565 1106.94 417.665 1106.98 417.721C1106.98 417.721 1107.03 417.821 1107.07 417.877C1107.07 417.877 1107.12 417.977 1107.16 418.033C1107.16 418.033 1107.21 418.133 1107.25 418.189C1107.31 418.289 1107.37 418.389 1107.43 418.489C1107.43 418.489 1107.5 418.59 1107.53 418.634C1107.6 418.735 1107.67 418.835 1107.74 418.935C1107.74 418.935 1107.8 419.035 1107.84 419.08C1107.84 419.08 1107.9 419.18 1107.95 419.225C1107.95 419.225 1107.97 419.247 1107.97 419.258L1107.99 419.28L1108.01 419.314L1108.02 419.347L1108.04 419.381L1108.05 419.414H1108.06L1108.07 419.448V419.47L1108.09 419.481V419.503L1108.11 419.514V419.537L1108.14 419.548V419.57H1108.16C1108.16 419.57 1108.17 419.592 1108.18 419.604C1108.19 419.615 1108.2 419.637 1108.23 419.648L1108.24 419.67H1108.25V419.693H1108.26L1108.27 419.726L1108.28 419.748L1108.29 419.771L1108.3 419.793L1108.31 419.815L1108.33 419.838C1108.33 419.838 1108.36 419.882 1108.38 419.893C1108.38 419.893 1108.38 419.904 1108.39 419.904L1108.4 419.927L1108.41 419.949L1108.43 419.971C1108.43 419.971 1108.43 419.982 1108.44 419.994C1108.44 419.994 1108.44 420.005 1108.45 420.016C1108.45 420.016 1108.45 420.027 1108.46 420.027C1108.46 420.027 1108.53 420.083 1108.56 420.105C1108.56 420.105 1108.56 420.105 1108.57 420.116C1108.57 420.116 1108.57 420.116 1108.58 420.127C1108.58 420.127 1108.58 420.127 1108.59 420.138C1108.59 420.138 1108.59 420.138 1108.6 420.138L1108.63 423.826L1107.32 422.79C1107.32 422.79 1107.32 422.768 1107.33 422.757C1107.33 422.757 1107.33 422.757 1107.33 422.745C1107.33 422.745 1107.33 422.745 1107.33 422.734C1107.33 422.734 1107.36 422.645 1107.37 422.601C1107.37 422.601 1107.37 422.589 1107.37 422.578C1107.37 422.578 1107.37 422.567 1107.37 422.556C1107.37 422.556 1107.37 422.545 1107.37 422.534C1107.37 422.534 1107.37 422.523 1107.37 422.511C1107.37 422.511 1107.37 422.5 1107.37 422.489C1107.37 422.489 1107.37 422.478 1107.37 422.467C1107.37 422.467 1107.37 422.411 1107.37 422.378V422.355V422.333V422.311V422.289V422.266V422.244V422.222V422.2C1107.37 422.2 1107.37 422.177 1107.37 422.166V422.144V422.122C1107.37 422.122 1107.37 422.11 1107.37 422.099V422.066V422.032V421.999V421.966V421.932V421.899V421.865V421.832C1107.37 421.832 1107.37 421.81 1107.37 421.798C1107.37 421.798 1107.37 421.776 1107.37 421.765C1107.37 421.765 1107.37 421.743 1107.37 421.732V421.709V421.676V421.642V421.609V421.587V421.564V421.531V421.486V421.442V421.397V421.353C1107.31 421.13 1107.25 420.918 1107.17 420.707C1107.11 420.551 1107.06 420.395 1107 420.239C1106.84 419.826 1106.67 419.414 1106.48 419.024C1106.45 418.98 1106.43 418.924 1106.4 418.879C1106.32 418.735 1106.25 418.59 1106.17 418.445C1106.11 418.356 1106.05 418.255 1106.01 418.166C1106.01 418.166 1105.95 418.077 1105.93 418.033C1105.93 418.033 1105.88 417.943 1105.85 417.899C1105.82 417.854 1105.8 417.81 1105.76 417.765C1105.68 417.632 1105.6 417.498 1105.51 417.364C1105.51 417.364 1105.45 417.275 1105.42 417.23C1105.42 417.23 1105.36 417.141 1105.33 417.108C1105.3 417.063 1105.27 417.019 1105.24 416.985C1105.24 416.985 1105.17 416.907 1105.15 416.863C1105.15 416.863 1105.09 416.785 1105.06 416.74C1105.06 416.74 1105 416.662 1104.96 416.618C1104.93 416.573 1104.9 416.54 1104.86 416.495C1104.86 416.495 1104.8 416.417 1104.76 416.384C1104.76 416.384 1104.7 416.306 1104.66 416.272C1104.66 416.272 1104.6 416.194 1104.56 416.161C1104.56 416.161 1104.5 416.083 1104.46 416.049C1104.43 416.016 1104.39 415.971 1104.36 415.938C1104.33 415.905 1104.29 415.871 1104.26 415.827C1104.26 415.827 1104.19 415.76 1104.16 415.726C1104.13 415.693 1104.09 415.659 1104.06 415.626C1104.03 415.593 1103.99 415.559 1103.96 415.526C1103.93 415.492 1103.89 415.459 1103.86 415.426C1103.86 415.426 1103.79 415.359 1103.76 415.325C1103.73 415.292 1103.69 415.258 1103.66 415.225C1103.63 415.192 1103.59 415.158 1103.56 415.136C1103.53 415.102 1103.49 415.08 1103.45 415.047C1103.42 415.013 1103.38 414.991 1103.34 414.958C1103.29 414.924 1103.27 414.902 1103.23 414.868C1103.18 414.835 1103.16 414.813 1103.11 414.779C1103.11 414.779 1103.05 414.724 1103 414.701C1102.97 414.679 1102.94 414.646 1102.89 414.623C1102.89 414.623 1102.83 414.568 1102.78 414.545C1102.78 414.545 1102.7 414.49 1102.67 414.467C1102.67 414.467 1102.6 414.423 1102.56 414.4C1102.56 414.4 1102.48 414.356 1102.45 414.334C1102.45 414.334 1102.37 414.289 1102.34 414.267C1102.34 414.267 1102.26 414.222 1102.22 414.2C1102.11 414.133 1102 414.077 1101.9 414.022C1101.82 413.988 1101.76 413.944 1101.68 413.91C1101.49 413.821 1101.31 413.754 1101.12 413.699C1101.1 413.699 1101.07 413.687 1101.04 413.676C1100.91 413.643 1100.79 413.609 1100.65 413.598C1100.65 413.598 1100.55 413.587 1100.5 413.576C1100.42 413.576 1100.34 413.565 1100.26 413.554C1100.26 413.554 1100.21 413.554 1100.19 413.554C1100.16 413.554 1100.13 413.554 1100.11 413.554C1100.09 413.554 1100.05 413.554 1100.03 413.554C1100.03 413.554 1099.97 413.554 1099.95 413.554C1099.95 413.554 1099.9 413.554 1099.87 413.554C1099.87 413.554 1099.83 413.554 1099.8 413.554C1099.8 413.554 1099.75 413.554 1099.72 413.554C1099.7 413.554 1099.67 413.554 1099.64 413.554C1099.62 413.554 1099.6 413.554 1099.56 413.554C1099.54 413.554 1099.52 413.554 1099.48 413.565C1099.48 413.565 1099.44 413.565 1099.41 413.576C1099.38 413.576 1099.36 413.576 1099.34 413.587C1099.32 413.587 1099.3 413.587 1099.27 413.598C1099.27 413.598 1099.17 413.621 1099.13 413.632C1099.13 413.632 1099.08 413.643 1099.06 413.654C1099.04 413.654 1099.02 413.665 1098.99 413.676C1098.99 413.676 1098.95 413.687 1098.93 413.699C1098.93 413.699 1098.84 413.732 1098.79 413.754C1098.77 413.754 1098.75 413.777 1098.73 413.777C1098.71 413.777 1098.68 413.799 1098.66 413.81C1098.64 413.81 1098.62 413.832 1098.59 413.843C1098.59 413.843 1098.55 413.866 1098.53 413.877C1098.53 413.877 1098.48 413.899 1098.46 413.91C1098.44 413.91 1098.42 413.933 1098.39 413.944C1098.37 413.955 1098.35 413.966 1098.33 413.977C1098.3 413.988 1098.28 413.999 1098.26 414.011C1098.24 414.022 1098.22 414.033 1098.19 414.044C1098.17 414.055 1098.15 414.066 1098.13 414.089C1098.13 414.089 1098.08 414.111 1098.07 414.133C1098.05 414.144 1098.03 414.155 1098.01 414.178C1098.01 414.178 1097.97 414.211 1097.96 414.222C1097.94 414.233 1097.91 414.256 1097.9 414.267C1097.9 414.267 1097.86 414.3 1097.85 414.311C1097.83 414.322 1097.81 414.345 1097.79 414.356C1097.79 414.356 1097.76 414.389 1097.74 414.4C1097.71 414.412 1097.7 414.434 1097.68 414.445C1097.66 414.456 1097.65 414.478 1097.63 414.49C1097.63 414.49 1097.59 414.523 1097.57 414.545C1097.55 414.568 1097.54 414.579 1097.51 414.601C1097.51 414.601 1097.48 414.634 1097.46 414.657C1097.46 414.657 1097.42 414.69 1097.4 414.712C1097.39 414.724 1097.38 414.735 1097.37 414.757L1097.3 414.701C1097.24 414.657 1097.1 414.646 1097.1 414.724C1097.1 414.802 1097.07 414.88 1097.12 414.924L1097.18 414.969C1096.31 416.049 1095.96 417.609 1096.9 419.058C1098.34 421.252 1101.97 423.113 1105.76 423.291C1106.63 423.336 1107.03 423.225 1107.27 422.979L1108.73 424.138L1108.78 433.397L1107.42 432.316C1107.42 432.316 1107.42 432.294 1107.43 432.283C1107.43 432.283 1107.43 432.283 1107.43 432.271C1107.43 432.271 1107.43 432.271 1107.43 432.26C1107.43 432.26 1107.46 432.171 1107.47 432.127C1107.47 432.127 1107.47 432.115 1107.47 432.104C1107.47 432.104 1107.47 432.093 1107.47 432.082C1107.47 432.082 1107.47 432.071 1107.47 432.06C1107.47 432.06 1107.47 432.049 1107.47 432.037C1107.47 432.037 1107.47 432.026 1107.47 432.015C1107.47 432.015 1107.47 432.004 1107.47 431.993C1107.47 431.993 1107.47 431.937 1107.47 431.904V431.881V431.859V431.837V431.815V431.792V431.77V431.748V431.725C1107.47 431.725 1107.47 431.703 1107.47 431.692V431.67V431.647C1107.47 431.647 1107.47 431.636 1107.47 431.625V431.592V431.558V431.525V431.492V431.458V431.436V431.425V431.391V431.358C1107.47 431.358 1107.47 431.335 1107.47 431.324C1107.47 431.324 1107.47 431.302 1107.47 431.291C1107.47 431.291 1107.47 431.269 1107.47 431.258V431.235V431.202V431.168V431.135V431.113V431.09V431.057V431.012V430.968V430.923V430.879C1107.41 430.656 1107.35 430.444 1107.27 430.233C1107.21 430.077 1107.16 429.921 1107.1 429.765C1106.94 429.352 1106.77 428.94 1106.58 428.55C1106.55 428.506 1106.53 428.45 1106.5 428.405C1106.42 428.26 1106.35 428.116 1106.27 427.971C1106.21 427.882 1106.15 427.781 1106.11 427.692C1106.11 427.692 1106.05 427.603 1106.03 427.559C1106.03 427.559 1105.98 427.469 1105.95 427.425C1105.92 427.38 1105.9 427.336 1105.86 427.291C1105.78 427.157 1105.7 427.024 1105.61 426.89C1105.61 426.89 1105.55 426.801 1105.52 426.756C1105.52 426.756 1105.46 426.667 1105.43 426.634C1105.4 426.589 1105.37 426.545 1105.34 426.511C1105.34 426.511 1105.27 426.433 1105.25 426.389C1105.25 426.389 1105.19 426.311 1105.16 426.266C1105.16 426.266 1105.1 426.188 1105.06 426.144C1105.03 426.099 1105 426.066 1104.96 426.021C1104.96 426.021 1104.9 425.943 1104.86 425.91C1104.86 425.91 1104.8 425.832 1104.76 425.798C1104.76 425.798 1104.7 425.72 1104.66 425.687C1104.66 425.687 1104.6 425.609 1104.56 425.575C1104.53 425.542 1104.5 425.497 1104.46 425.464C1104.43 425.431 1104.39 425.397 1104.36 425.353C1104.36 425.353 1104.29 425.286 1104.26 425.252C1104.23 425.219 1104.19 425.185 1104.16 425.152C1104.13 425.119 1104.09 425.085 1104.06 425.052C1104.03 425.018 1103.99 424.985 1103.96 424.951C1103.96 424.951 1103.89 424.885 1103.86 424.851C1103.83 424.818 1103.79 424.784 1103.76 424.751C1103.73 424.717 1103.69 424.684 1103.66 424.662C1103.63 424.628 1103.59 424.606 1103.55 424.573C1103.5 424.539 1103.48 424.517 1103.44 424.484C1103.4 424.45 1103.37 424.428 1103.33 424.394C1103.28 424.361 1103.26 424.339 1103.21 424.305C1103.21 424.305 1103.15 424.25 1103.1 424.227C1103.07 424.205 1103.04 424.172 1102.99 424.149C1102.99 424.149 1102.93 424.094 1102.88 424.071C1102.88 424.071 1102.8 424.016 1102.77 423.993C1102.77 423.993 1102.7 423.949 1102.66 423.926C1102.66 423.926 1102.58 423.882 1102.55 423.86C1102.55 423.86 1102.47 423.815 1102.44 423.793C1102.44 423.793 1102.36 423.748 1102.32 423.726C1102.21 423.659 1102.1 423.603 1102 423.548C1101.92 423.514 1101.86 423.47 1101.78 423.436C1101.59 423.347 1101.41 423.28 1101.22 423.225C1101.2 423.225 1101.17 423.213 1101.14 423.202C1101.01 423.169 1100.89 423.135 1100.75 423.124C1100.75 423.124 1100.65 423.113 1100.6 423.102C1100.5 423.091 1100.4 423.08 1100.29 423.08C1100.26 423.08 1100.23 423.08 1100.21 423.08C1100.19 423.08 1100.15 423.08 1100.13 423.08C1100.13 423.08 1100.07 423.08 1100.05 423.08C1100.05 423.08 1100 423.08 1099.97 423.08C1099.97 423.08 1099.93 423.08 1099.9 423.08C1099.9 423.08 1099.85 423.08 1099.82 423.08C1099.8 423.08 1099.77 423.08 1099.74 423.08C1099.72 423.08 1099.7 423.08 1099.66 423.08C1099.66 423.08 1099.62 423.08 1099.58 423.091C1099.58 423.091 1099.54 423.091 1099.51 423.102C1099.48 423.102 1099.46 423.102 1099.44 423.113C1099.42 423.113 1099.4 423.113 1099.37 423.124C1099.37 423.124 1099.33 423.135 1099.31 423.147C1099.31 423.147 1099.26 423.158 1099.24 423.169C1099.24 423.169 1099.2 423.18 1099.17 423.191C1099.15 423.191 1099.13 423.202 1099.11 423.213C1099.11 423.213 1099.06 423.225 1099.04 423.236C1099.04 423.236 1098.99 423.247 1098.97 423.258C1098.97 423.258 1098.93 423.28 1098.91 423.28C1098.88 423.28 1098.86 423.303 1098.84 423.314C1098.82 423.314 1098.79 423.336 1098.77 423.347C1098.75 423.347 1098.73 423.369 1098.71 423.381C1098.71 423.381 1098.66 423.403 1098.64 423.414C1098.62 423.414 1098.59 423.436 1098.57 423.447C1098.55 423.447 1098.53 423.47 1098.5 423.481C1098.48 423.492 1098.46 423.503 1098.44 423.514C1098.42 423.525 1098.39 423.536 1098.37 423.548C1098.35 423.559 1098.33 423.57 1098.3 423.581C1098.28 423.592 1098.26 423.603 1098.24 423.626C1098.24 423.626 1098.19 423.648 1098.18 423.67C1098.16 423.681 1098.14 423.692 1098.13 423.715C1098.13 423.715 1098.08 423.748 1098.07 423.759C1098.05 423.77 1098.03 423.793 1098.01 423.804C1098.01 423.804 1097.97 423.837 1097.96 423.848C1097.94 423.86 1097.93 423.882 1097.9 423.893C1097.88 423.904 1097.87 423.926 1097.85 423.938C1097.83 423.949 1097.81 423.971 1097.79 423.982C1097.77 423.993 1097.76 424.016 1097.74 424.027C1097.71 424.038 1097.7 424.06 1097.68 424.082C1097.66 424.105 1097.65 424.116 1097.63 424.138C1097.6 424.16 1097.59 424.172 1097.57 424.194C1097.55 424.216 1097.54 424.227 1097.51 424.25C1097.5 424.261 1097.49 424.272 1097.48 424.294L1097.41 424.238C1097.35 424.194 1097.21 424.183 1097.21 424.261C1097.21 424.339 1097.18 424.417 1097.24 424.461L1097.29 424.506C1096.42 425.587 1096.07 427.146 1097.01 428.595C1098.45 430.79 1102.08 432.65 1105.88 432.828C1106.74 432.873 1107.15 432.762 1107.38 432.516L1108.89 433.72L1108.95 442.911L1107.53 441.786C1107.53 441.786 1107.53 441.764 1107.55 441.753C1107.55 441.753 1107.55 441.753 1107.55 441.742C1107.55 441.742 1107.55 441.742 1107.55 441.731C1107.55 441.731 1107.57 441.641 1107.58 441.586C1107.58 441.586 1107.58 441.575 1107.58 441.563C1107.58 441.563 1107.58 441.552 1107.58 441.541C1107.58 441.541 1107.58 441.53 1107.58 441.519C1107.58 441.519 1107.58 441.508 1107.58 441.497C1107.58 441.497 1107.58 441.485 1107.58 441.474C1107.58 441.474 1107.58 441.463 1107.58 441.452C1107.58 441.452 1107.58 441.396 1107.58 441.363V441.341V441.318V441.296V441.274V441.251V441.229V441.207V441.185C1107.58 441.185 1107.58 441.162 1107.58 441.151V441.129V441.107C1107.58 441.107 1107.58 441.095 1107.58 441.084V441.051V441.017V440.984V440.951V440.917V440.895V440.884V440.85V440.817C1107.58 440.817 1107.58 440.795 1107.58 440.783C1107.58 440.783 1107.58 440.761 1107.58 440.75C1107.58 440.75 1107.58 440.728 1107.58 440.717V440.694V440.661V440.627V440.594V440.572V440.549V440.516V440.483V440.438V440.394V440.349C1107.52 440.137 1107.46 439.914 1107.38 439.703C1107.32 439.547 1107.27 439.391 1107.21 439.235C1107.06 438.823 1106.88 438.41 1106.69 438.02C1106.67 437.976 1106.64 437.92 1106.61 437.876C1106.53 437.731 1106.47 437.586 1106.38 437.441C1106.32 437.352 1106.27 437.252 1106.22 437.163C1106.22 437.163 1106.17 437.073 1106.14 437.029C1106.14 437.029 1106.09 436.94 1106.07 436.895C1106.03 436.851 1106.01 436.806 1105.98 436.761C1105.89 436.628 1105.81 436.494 1105.72 436.36C1105.72 436.36 1105.66 436.271 1105.63 436.227C1105.63 436.227 1105.58 436.137 1105.54 436.104C1105.51 436.059 1105.49 436.015 1105.45 435.982C1105.45 435.982 1105.39 435.904 1105.36 435.859C1105.36 435.859 1105.3 435.781 1105.27 435.736C1105.27 435.736 1105.21 435.658 1105.17 435.614C1105.14 435.569 1105.11 435.536 1105.07 435.491C1105.07 435.491 1105.01 435.413 1104.97 435.38C1104.97 435.38 1104.91 435.302 1104.87 435.268C1104.87 435.268 1104.81 435.19 1104.77 435.157C1104.77 435.157 1104.71 435.079 1104.67 435.046C1104.64 435.012 1104.61 434.968 1104.57 434.934C1104.54 434.901 1104.51 434.867 1104.47 434.823C1104.47 434.823 1104.41 434.756 1104.37 434.723C1104.34 434.689 1104.31 434.656 1104.27 434.622C1104.24 434.589 1104.21 434.555 1104.17 434.522C1104.14 434.489 1104.11 434.455 1104.07 434.422C1104.07 434.422 1104.01 434.355 1103.97 434.321C1103.94 434.288 1103.91 434.255 1103.87 434.221C1103.84 434.188 1103.8 434.154 1103.77 434.132C1103.74 434.099 1103.7 434.076 1103.66 434.043C1103.62 434.009 1103.59 433.987 1103.55 433.954C1103.52 433.92 1103.48 433.898 1103.44 433.865C1103.39 433.831 1103.37 433.809 1103.33 433.775C1103.33 433.775 1103.26 433.72 1103.21 433.697C1103.18 433.675 1103.15 433.642 1103.1 433.62C1103.1 433.62 1103.04 433.564 1102.99 433.542L1102.88 433.464C1102.88 433.464 1102.81 433.419 1102.77 433.397C1102.77 433.397 1102.69 433.352 1102.66 433.33C1102.66 433.33 1102.58 433.285 1102.55 433.263C1102.55 433.263 1102.47 433.218 1102.44 433.196C1102.32 433.129 1102.21 433.074 1102.11 433.018C1102.03 432.984 1101.97 432.94 1101.89 432.906C1101.7 432.817 1101.52 432.75 1101.33 432.695C1101.31 432.695 1101.28 432.684 1101.26 432.672C1101.12 432.639 1101 432.606 1100.87 432.594C1100.87 432.594 1100.77 432.583 1100.71 432.572C1100.63 432.572 1100.55 432.561 1100.48 432.55C1100.48 432.55 1100.42 432.55 1100.4 432.55C1100.38 432.55 1100.34 432.55 1100.32 432.55C1100.3 432.55 1100.26 432.55 1100.24 432.55C1100.24 432.55 1100.19 432.55 1100.16 432.55C1100.16 432.55 1100.11 432.55 1100.09 432.55C1100.09 432.55 1100.04 432.55 1100.01 432.55C1100.01 432.55 1099.96 432.55 1099.93 432.55C1099.91 432.55 1099.89 432.55 1099.85 432.55C1099.83 432.55 1099.81 432.55 1099.77 432.55C1099.75 432.55 1099.73 432.55 1099.7 432.561C1099.7 432.561 1099.65 432.561 1099.62 432.572C1099.6 432.572 1099.57 432.572 1099.55 432.583C1099.53 432.583 1099.51 432.583 1099.48 432.594C1099.48 432.594 1099.38 432.617 1099.34 432.628C1099.34 432.628 1099.3 432.639 1099.27 432.65C1099.25 432.65 1099.23 432.661 1099.21 432.672C1099.21 432.672 1099.16 432.684 1099.14 432.695C1099.14 432.695 1099.05 432.728 1099.01 432.75C1098.98 432.75 1098.96 432.773 1098.94 432.773C1098.92 432.773 1098.89 432.795 1098.87 432.806C1098.85 432.806 1098.83 432.828 1098.81 432.84C1098.81 432.84 1098.76 432.862 1098.74 432.873C1098.74 432.873 1098.69 432.895 1098.67 432.906C1098.65 432.906 1098.63 432.929 1098.61 432.94C1098.58 432.951 1098.56 432.962 1098.54 432.973C1098.52 432.984 1098.49 432.996 1098.47 433.007C1098.45 433.018 1098.43 433.029 1098.4 433.04C1098.38 433.051 1098.36 433.062 1098.34 433.085C1098.34 433.085 1098.29 433.107 1098.28 433.129C1098.26 433.14 1098.24 433.152 1098.23 433.174C1098.23 433.174 1098.18 433.207 1098.17 433.218C1098.15 433.23 1098.13 433.252 1098.12 433.263C1098.12 433.263 1098.07 433.296 1098.06 433.308C1098.04 433.319 1098.03 433.341 1098 433.352C1098 433.352 1097.97 433.386 1097.95 433.397C1097.93 433.408 1097.91 433.43 1097.89 433.441C1097.87 433.452 1097.86 433.475 1097.84 433.486C1097.84 433.486 1097.8 433.519 1097.78 433.542C1097.76 433.564 1097.75 433.575 1097.73 433.597C1097.73 433.597 1097.69 433.631 1097.67 433.653C1097.67 433.653 1097.64 433.686 1097.61 433.709C1097.6 433.72 1097.59 433.731 1097.58 433.753L1097.51 433.697C1097.45 433.653 1097.31 433.642 1097.31 433.72C1097.31 433.798 1097.28 433.876 1097.34 433.92L1097.39 433.965C1096.52 435.046 1096.17 436.605 1097.11 438.054C1098.55 440.249 1102.18 442.109 1105.98 442.288C1106.84 442.332 1107.25 442.221 1107.48 441.976L1109.05 443.223L1109.07 447.769C1109.07 447.925 1109.2 448.059 1109.36 448.059C1109.36 448.059 1109.38 448.059 1109.39 448.059C1109.41 448.059 1109.42 448.059 1109.43 448.059C1109.58 448.059 1109.72 447.925 1109.72 447.769L1109.74 443.223L1111.31 441.976C1111.53 442.21 1111.94 442.321 1112.81 442.288C1116.61 442.109 1120.24 440.249 1121.68 438.054C1122.62 436.605 1122.27 435.046 1121.4 433.965L1121.45 433.92C1121.52 433.876 1121.47 433.798 1121.47 433.72C1121.47 433.642 1121.33 433.642 1121.27 433.697L1121.21 433.753C1121.21 433.753 1121.19 433.731 1121.17 433.709C1121.15 433.686 1121.14 433.675 1121.12 433.653C1121.12 433.653 1121.09 433.62 1121.06 433.597C1121.06 433.597 1121.03 433.564 1121.01 433.542C1120.99 433.519 1120.97 433.508 1120.95 433.486C1120.95 433.486 1120.92 433.452 1120.9 433.441C1120.87 433.43 1120.86 433.408 1120.84 433.397C1120.82 433.386 1120.81 433.363 1120.78 433.352C1120.78 433.352 1120.75 433.319 1120.73 433.308C1120.71 433.296 1120.7 433.274 1120.67 433.263C1120.67 433.263 1120.63 433.23 1120.62 433.218C1120.6 433.207 1120.57 433.185 1120.56 433.174C1120.56 433.174 1120.52 433.14 1120.51 433.129C1120.48 433.118 1120.46 433.107 1120.45 433.085C1120.45 433.085 1120.41 433.062 1120.38 433.04C1120.36 433.029 1120.34 433.018 1120.32 433.007C1120.29 432.996 1120.27 432.984 1120.25 432.973C1120.23 432.962 1120.21 432.951 1120.18 432.94C1120.16 432.929 1120.14 432.918 1120.12 432.906C1120.09 432.906 1120.07 432.884 1120.05 432.873C1120.05 432.873 1120.01 432.851 1119.98 432.84C1119.98 432.84 1119.94 432.817 1119.92 432.806C1119.89 432.806 1119.87 432.784 1119.85 432.773C1119.83 432.773 1119.8 432.75 1119.78 432.75C1119.74 432.728 1119.69 432.717 1119.65 432.695C1119.65 432.695 1119.6 432.684 1119.58 432.672C1119.58 432.672 1119.54 432.661 1119.52 432.65C1119.49 432.65 1119.47 432.639 1119.45 432.628C1119.45 432.628 1119.36 432.606 1119.3 432.594C1119.3 432.594 1119.26 432.594 1119.24 432.583C1119.21 432.583 1119.19 432.583 1119.17 432.572C1119.15 432.572 1119.13 432.572 1119.09 432.561C1119.09 432.561 1119.05 432.561 1119.01 432.55C1118.99 432.55 1118.97 432.55 1118.94 432.55C1118.91 432.55 1118.89 432.55 1118.86 432.55C1118.84 432.55 1118.81 432.55 1118.78 432.55C1118.78 432.55 1118.72 432.55 1118.7 432.55C1118.7 432.55 1118.66 432.55 1118.62 432.55C1118.62 432.55 1118.58 432.55 1118.55 432.55C1118.55 432.55 1118.49 432.55 1118.47 432.55C1118.45 432.55 1118.41 432.55 1118.39 432.55C1118.37 432.55 1118.34 432.55 1118.31 432.55C1118.23 432.55 1118.16 432.55 1118.08 432.572C1118.08 432.572 1117.98 432.583 1117.92 432.594C1117.79 432.617 1117.67 432.639 1117.53 432.672C1117.53 432.672 1117.48 432.684 1117.46 432.695C1117.28 432.75 1117.09 432.817 1116.9 432.906C1116.82 432.94 1116.75 432.973 1116.68 433.018C1116.56 433.074 1116.45 433.129 1116.35 433.196C1116.35 433.196 1116.28 433.241 1116.24 433.263C1116.24 433.263 1116.16 433.308 1116.13 433.33C1116.13 433.33 1116.05 433.374 1116.02 433.397C1116.02 433.397 1115.94 433.441 1115.91 433.464C1115.91 433.464 1115.84 433.508 1115.8 433.542C1115.8 433.542 1115.72 433.597 1115.69 433.62C1115.69 433.62 1115.62 433.675 1115.57 433.697C1115.54 433.72 1115.51 433.753 1115.46 433.775C1115.46 433.775 1115.4 433.831 1115.35 433.865C1115.31 433.898 1115.28 433.92 1115.24 433.954C1115.21 433.987 1115.17 434.009 1115.13 434.043C1115.1 434.076 1115.06 434.099 1115.03 434.132C1114.99 434.165 1114.96 434.199 1114.92 434.221C1114.88 434.255 1114.85 434.288 1114.82 434.321C1114.78 434.355 1114.75 434.388 1114.72 434.422C1114.72 434.422 1114.65 434.489 1114.62 434.522C1114.58 434.555 1114.55 434.589 1114.52 434.622C1114.48 434.656 1114.45 434.689 1114.42 434.723C1114.38 434.756 1114.35 434.789 1114.32 434.823C1114.32 434.823 1114.25 434.89 1114.22 434.934C1114.18 434.968 1114.15 435.001 1114.12 435.046C1114.08 435.079 1114.05 435.124 1114.01 435.157C1114.01 435.157 1113.95 435.235 1113.91 435.268C1113.91 435.268 1113.85 435.346 1113.81 435.38C1113.81 435.38 1113.75 435.458 1113.71 435.491C1113.71 435.491 1113.65 435.569 1113.61 435.614C1113.58 435.658 1113.55 435.692 1113.51 435.736C1113.51 435.736 1113.45 435.814 1113.42 435.859C1113.42 435.859 1113.36 435.937 1113.34 435.982C1113.34 435.982 1113.27 436.059 1113.25 436.104C1113.21 436.149 1113.19 436.193 1113.16 436.227C1113.16 436.227 1113.1 436.316 1113.07 436.36C1112.98 436.494 1112.89 436.628 1112.8 436.761C1112.8 436.761 1112.75 436.851 1112.71 436.895C1112.68 436.94 1112.66 436.984 1112.63 437.029C1112.63 437.029 1112.58 437.118 1112.56 437.163C1112.5 437.252 1112.45 437.352 1112.4 437.441C1112.32 437.586 1112.24 437.731 1112.17 437.876C1112.17 437.876 1112.12 437.976 1112.09 438.02C1111.9 438.41 1111.72 438.823 1111.57 439.235C1111.51 439.391 1111.45 439.547 1111.4 439.703C1111.33 439.914 1111.26 440.126 1111.2 440.349V440.382V440.405V440.416V440.438V440.449V440.472V440.483V440.505V440.516V440.538V440.561V440.583V440.594V440.616V440.627V440.65V440.661V440.683C1111.2 440.683 1111.2 440.705 1111.2 440.717C1111.2 440.717 1111.2 440.739 1111.2 440.75C1111.2 440.75 1111.2 440.772 1111.2 440.783V440.806V440.839V440.873V440.895V440.906V440.939V440.973V441.006V441.04C1111.2 441.04 1111.2 441.062 1111.2 441.073V441.095V441.118C1111.2 441.118 1111.2 441.129 1111.2 441.14V441.162V441.196V441.218V441.24V441.263V441.285V441.307V441.329C1111.2 441.329 1111.2 441.385 1111.2 441.419C1111.2 441.419 1111.2 441.43 1111.2 441.441C1111.2 441.441 1111.2 441.452 1111.2 441.463C1111.2 441.463 1111.2 441.474 1111.2 441.485C1111.2 441.485 1111.2 441.497 1111.2 441.508C1111.2 441.508 1111.2 441.519 1111.2 441.53C1111.2 441.53 1111.2 441.541 1111.2 441.552C1111.2 441.552 1111.22 441.653 1111.23 441.686V441.697C1111.23 441.697 1111.23 441.697 1111.23 441.708C1111.23 441.708 1111.23 441.73 1111.24 441.742L1109.83 442.867L1109.88 433.675L1111.4 432.472C1111.62 432.706 1112.03 432.817 1112.9 432.784C1116.7 432.606 1120.33 430.745 1121.76 428.55C1122.71 427.102 1122.35 425.542 1121.49 424.461L1121.54 424.417C1121.61 424.372 1121.56 424.294 1121.56 424.216C1121.56 424.138 1121.42 424.138 1121.36 424.194L1121.3 424.25C1121.3 424.25 1121.27 424.227 1121.26 424.205C1121.24 424.183 1121.23 424.172 1121.21 424.149C1121.19 424.127 1121.17 424.116 1121.15 424.094C1121.13 424.071 1121.12 424.06 1121.1 424.038C1121.07 424.016 1121.06 424.004 1121.04 423.982C1121.02 423.96 1121.01 423.949 1120.99 423.938C1120.96 423.926 1120.95 423.904 1120.93 423.893C1120.91 423.882 1120.9 423.86 1120.87 423.848C1120.85 423.837 1120.84 423.815 1120.82 423.804C1120.8 423.793 1120.78 423.77 1120.76 423.759C1120.76 423.759 1120.72 423.726 1120.71 423.715C1120.68 423.704 1120.66 423.681 1120.65 423.67C1120.65 423.67 1120.61 423.637 1120.6 423.626C1120.57 423.614 1120.55 423.603 1120.54 423.581C1120.54 423.581 1120.5 423.559 1120.47 423.536C1120.45 423.525 1120.43 423.514 1120.41 423.503C1120.38 423.492 1120.36 423.481 1120.34 423.47C1120.32 423.458 1120.29 423.447 1120.27 423.436C1120.25 423.425 1120.23 423.414 1120.21 423.403C1120.18 423.403 1120.16 423.381 1120.14 423.369C1120.12 423.369 1120.09 423.347 1120.07 423.336C1120.07 423.336 1120.03 423.314 1120.01 423.303C1119.98 423.303 1119.96 423.28 1119.94 423.269C1119.92 423.269 1119.89 423.247 1119.87 423.236C1119.85 423.236 1119.83 423.213 1119.8 423.213C1119.8 423.213 1119.76 423.191 1119.74 423.191C1119.74 423.191 1119.69 423.18 1119.67 423.169C1119.67 423.169 1119.63 423.158 1119.6 423.147C1119.58 423.147 1119.56 423.135 1119.54 423.124C1119.54 423.124 1119.49 423.113 1119.47 423.102C1119.47 423.102 1119.43 423.091 1119.4 423.08C1119.4 423.08 1119.36 423.08 1119.34 423.069C1119.31 423.069 1119.29 423.069 1119.27 423.057C1119.25 423.057 1119.23 423.057 1119.19 423.046C1119.19 423.046 1119.15 423.046 1119.11 423.035C1119.11 423.035 1119.07 423.035 1119.04 423.035C1119.01 423.035 1118.99 423.035 1118.96 423.035C1118.94 423.035 1118.91 423.035 1118.88 423.035C1118.88 423.035 1118.83 423.035 1118.8 423.035C1118.8 423.035 1118.76 423.035 1118.72 423.035C1118.72 423.035 1118.68 423.035 1118.65 423.035C1118.65 423.035 1118.59 423.035 1118.57 423.035C1118.55 423.035 1118.51 423.035 1118.49 423.035C1118.39 423.035 1118.29 423.035 1118.18 423.057C1118.18 423.057 1118.08 423.069 1118.02 423.08C1117.89 423.102 1117.77 423.124 1117.63 423.158C1117.63 423.158 1117.58 423.169 1117.56 423.18C1117.38 423.236 1117.19 423.303 1117 423.392C1116.92 423.425 1116.85 423.458 1116.78 423.503C1116.66 423.559 1116.55 423.614 1116.45 423.681C1116.45 423.681 1116.38 423.726 1116.34 423.748C1116.34 423.748 1116.26 423.793 1116.23 423.815C1116.23 423.815 1116.15 423.86 1116.12 423.882C1116.12 423.882 1116.04 423.926 1116.01 423.949C1116.01 423.949 1115.94 423.993 1115.9 424.027C1115.9 424.027 1115.82 424.082 1115.79 424.105C1115.79 424.105 1115.72 424.16 1115.67 424.183C1115.64 424.205 1115.61 424.238 1115.56 424.261C1115.56 424.261 1115.5 424.316 1115.45 424.35C1115.41 424.383 1115.38 424.406 1115.34 424.439C1115.31 424.472 1115.27 424.495 1115.23 424.528C1115.2 424.561 1115.16 424.584 1115.13 424.617C1115.1 424.651 1115.06 424.684 1115.02 424.706C1114.98 424.74 1114.95 424.773 1114.92 424.807C1114.88 424.84 1114.85 424.873 1114.82 424.907C1114.82 424.907 1114.75 424.974 1114.72 425.007C1114.68 425.041 1114.65 425.074 1114.62 425.107C1114.58 425.141 1114.55 425.174 1114.52 425.208C1114.48 425.241 1114.45 425.275 1114.42 425.308C1114.42 425.308 1114.35 425.375 1114.32 425.419C1114.28 425.453 1114.25 425.497 1114.22 425.531C1114.18 425.564 1114.15 425.609 1114.12 425.642C1114.12 425.642 1114.05 425.72 1114.01 425.754C1114.01 425.754 1113.95 425.832 1113.91 425.865C1113.91 425.865 1113.85 425.943 1113.81 425.976C1113.81 425.976 1113.75 426.054 1113.71 426.099C1113.68 426.144 1113.65 426.177 1113.61 426.222C1113.61 426.222 1113.55 426.3 1113.53 426.344C1113.53 426.344 1113.46 426.422 1113.44 426.467C1113.44 426.467 1113.37 426.545 1113.35 426.589C1113.31 426.634 1113.29 426.678 1113.26 426.712C1113.26 426.712 1113.2 426.801 1113.17 426.845C1113.08 426.979 1112.99 427.113 1112.9 427.247C1112.9 427.247 1112.85 427.336 1112.81 427.38C1112.78 427.425 1112.76 427.469 1112.73 427.514C1112.73 427.514 1112.68 427.603 1112.66 427.648C1112.6 427.737 1112.55 427.837 1112.5 427.926C1112.42 428.071 1112.34 428.216 1112.27 428.361C1112.27 428.361 1112.22 428.461 1112.19 428.506C1112 428.896 1111.82 429.308 1111.67 429.72C1111.61 429.876 1111.55 430.032 1111.5 430.188C1111.43 430.4 1111.37 430.611 1111.3 430.834V430.868V430.89V430.901V430.923V430.934V430.957V430.968V430.99V431.001V431.024V431.046V431.068V431.079V431.102V431.113V431.135V431.146V431.168C1111.3 431.168 1111.3 431.191 1111.3 431.202C1111.3 431.202 1111.3 431.224 1111.3 431.235C1111.3 431.235 1111.3 431.258 1111.3 431.269V431.291V431.324V431.358V431.38V431.391V431.425V431.458V431.492V431.525C1111.3 431.525 1111.3 431.547 1111.3 431.558V431.581V431.603C1111.3 431.603 1111.3 431.614 1111.3 431.625V431.647V431.681V431.703V431.725V431.748V431.77V431.792V431.815C1111.3 431.815 1111.3 431.87 1111.3 431.904C1111.3 431.904 1111.3 431.915 1111.3 431.926C1111.3 431.926 1111.3 431.937 1111.3 431.948C1111.3 431.948 1111.3 431.959 1111.3 431.971C1111.3 431.971 1111.3 431.982 1111.3 431.993C1111.3 431.993 1111.3 432.004 1111.3 432.015C1111.3 432.015 1111.3 432.026 1111.3 432.037C1111.3 432.037 1111.32 432.138 1111.33 432.171C1111.33 432.171 1111.33 432.182 1111.33 432.193C1111.33 432.193 1111.33 432.193 1111.33 432.205C1111.33 432.205 1111.33 432.227 1111.34 432.238L1109.98 433.319L1110.04 424.06L1111.5 422.901C1111.72 423.135 1112.13 423.247 1113 423.213C1116.8 423.035 1120.43 421.174 1121.86 418.98C1122.81 417.531 1122.45 415.971 1121.59 414.891L1121.64 414.846C1121.71 414.802 1121.66 414.724 1121.66 414.646C1121.66 414.568 1121.52 414.568 1121.46 414.623L1121.4 414.679C1121.4 414.679 1121.37 414.657 1121.36 414.634C1121.34 414.612 1121.33 414.601 1121.31 414.579C1121.31 414.579 1121.27 414.545 1121.25 414.523C1121.25 414.523 1121.22 414.49 1121.2 414.467C1121.17 414.445 1121.16 414.434 1121.14 414.412C1121.14 414.412 1121.11 414.378 1121.09 414.367C1121.06 414.356 1121.05 414.334 1121.03 414.323C1121.01 414.311 1121 414.289 1120.97 414.278C1120.97 414.278 1120.94 414.245 1120.92 414.233C1120.9 414.222 1120.88 414.2 1120.86 414.189C1120.86 414.189 1120.82 414.155 1120.81 414.144C1120.78 414.133 1120.76 414.111 1120.75 414.1C1120.75 414.1 1120.71 414.077 1120.7 414.055C1120.67 414.044 1120.65 414.033 1120.64 414.011C1120.64 414.011 1120.6 413.988 1120.57 413.966C1120.55 413.955 1120.53 413.944 1120.51 413.933C1120.48 413.921 1120.46 413.91 1120.44 413.899C1120.42 413.888 1120.39 413.877 1120.37 413.866C1120.35 413.855 1120.33 413.843 1120.31 413.832C1120.28 413.821 1120.26 413.81 1120.24 413.799C1120.24 413.799 1120.19 413.777 1120.17 413.765C1120.17 413.765 1120.13 413.743 1120.11 413.732C1120.08 413.732 1120.06 413.71 1120.04 413.699C1120.02 413.699 1119.99 413.676 1119.97 413.676C1119.93 413.654 1119.88 413.643 1119.84 413.621C1119.84 413.621 1119.79 413.609 1119.77 413.598C1119.77 413.598 1119.73 413.587 1119.7 413.576C1119.68 413.576 1119.66 413.565 1119.64 413.554C1119.64 413.554 1119.55 413.531 1119.49 413.52C1119.49 413.52 1119.45 413.52 1119.43 413.509C1119.4 413.509 1119.38 413.509 1119.36 413.498C1119.34 413.498 1119.31 413.498 1119.28 413.487C1119.28 413.487 1119.24 413.487 1119.2 413.476C1119.18 413.476 1119.16 413.476 1119.13 413.476C1119.1 413.476 1119.08 413.476 1119.05 413.476C1119.03 413.476 1119 413.476 1118.97 413.476C1118.97 413.476 1118.91 413.476 1118.89 413.476C1118.89 413.476 1118.85 413.476 1118.81 413.476C1118.81 413.476 1118.77 413.476 1118.74 413.476C1118.74 413.476 1118.68 413.476 1118.66 413.476C1118.64 413.476 1118.6 413.476 1118.58 413.476C1118.56 413.476 1118.52 413.476 1118.5 413.476C1118.42 413.476 1118.35 413.476 1118.27 413.498C1118.27 413.498 1118.17 413.509 1118.11 413.52C1117.98 413.543 1117.86 413.565 1117.72 413.598C1117.72 413.598 1117.67 413.609 1117.64 413.621C1117.47 413.676 1117.28 413.743 1117.09 413.832C1117.01 413.866 1116.94 413.899 1116.87 413.944C1116.75 413.999 1116.64 414.055 1116.54 414.122C1116.54 414.122 1116.46 414.167 1116.43 414.189C1116.43 414.189 1116.35 414.233 1116.32 414.256C1116.32 414.256 1116.24 414.3 1116.21 414.323C1116.21 414.323 1116.13 414.367 1116.1 414.389C1116.1 414.389 1116.03 414.434 1115.99 414.467C1115.99 414.467 1115.91 414.523 1115.87 414.545C1115.87 414.545 1115.81 414.601 1115.76 414.623C1115.73 414.646 1115.7 414.679 1115.65 414.701C1115.65 414.701 1115.58 414.757 1115.54 414.79C1115.5 414.824 1115.47 414.846 1115.43 414.88C1115.4 414.913 1115.36 414.935 1115.32 414.969C1115.28 415.002 1115.25 415.024 1115.22 415.058C1115.18 415.091 1115.15 415.125 1115.11 415.147C1115.07 415.18 1115.04 415.214 1115.01 415.247C1114.97 415.281 1114.94 415.314 1114.91 415.348C1114.91 415.348 1114.84 415.414 1114.81 415.448C1114.77 415.481 1114.74 415.515 1114.71 415.548C1114.67 415.581 1114.64 415.615 1114.61 415.648C1114.57 415.682 1114.54 415.715 1114.5 415.749C1114.5 415.749 1114.44 415.815 1114.4 415.86C1114.37 415.893 1114.34 415.938 1114.3 415.971C1114.27 416.005 1114.24 416.049 1114.2 416.083C1114.2 416.083 1114.14 416.161 1114.1 416.194C1114.1 416.194 1114.04 416.272 1114 416.306C1114 416.306 1113.94 416.384 1113.9 416.417C1113.9 416.417 1113.84 416.495 1113.8 416.54C1113.77 416.584 1113.74 416.618 1113.7 416.662C1113.7 416.662 1113.64 416.74 1113.61 416.785C1113.61 416.785 1113.55 416.863 1113.53 416.907C1113.53 416.907 1113.46 416.996 1113.44 417.03C1113.4 417.074 1113.38 417.119 1113.35 417.152C1113.35 417.152 1113.29 417.242 1113.26 417.286C1113.17 417.42 1113.08 417.542 1112.99 417.687C1112.99 417.687 1112.93 417.776 1112.9 417.821C1112.87 417.865 1112.85 417.91 1112.82 417.955C1112.82 417.955 1112.77 418.044 1112.75 418.088C1112.69 418.177 1112.63 418.278 1112.59 418.367C1112.51 418.512 1112.43 418.657 1112.36 418.801C1112.36 418.801 1112.31 418.902 1112.28 418.946C1112.09 419.336 1111.91 419.748 1111.75 420.161C1111.7 420.317 1111.64 420.473 1111.59 420.629C1111.52 420.84 1111.45 421.052 1111.39 421.275V421.308V421.33V421.342V421.364V421.375V421.397V421.408V421.431V421.442V421.464V421.486V421.509V421.52V421.542V421.553V421.576V421.587V421.609C1111.39 421.609 1111.39 421.631 1111.39 421.642C1111.39 421.642 1111.39 421.665 1111.39 421.676C1111.39 421.676 1111.39 421.698 1111.39 421.709V421.732V421.765V421.798V421.832V421.865V421.899V421.932V421.966C1111.39 421.966 1111.39 421.988 1111.39 421.999V422.021V422.044C1111.39 422.044 1111.39 422.055 1111.39 422.066V422.088V422.122V422.144V422.166V422.188V422.211V422.233V422.255C1111.39 422.255 1111.39 422.311 1111.39 422.344C1111.39 422.344 1111.39 422.355 1111.39 422.367C1111.39 422.367 1111.39 422.378 1111.39 422.389C1111.39 422.389 1111.39 422.4 1111.39 422.411C1111.39 422.411 1111.39 422.422 1111.39 422.433C1111.39 422.433 1111.39 422.445 1111.39 422.456C1111.39 422.456 1111.39 422.467 1111.39 422.478C1111.39 422.478 1111.41 422.578 1111.42 422.612C1111.42 422.612 1111.42 422.623 1111.42 422.634C1111.42 422.634 1111.42 422.634 1111.42 422.645C1111.42 422.645 1111.42 422.667 1111.43 422.679L1110.13 423.715L1110.15 420.027C1110.15 420.027 1110.15 420.027 1110.16 420.027C1110.16 420.027 1110.16 420.027 1110.17 420.016C1110.17 420.016 1110.17 420.016 1110.18 420.005C1110.18 420.005 1110.18 420.005 1110.2 419.994C1110.2 419.994 1110.26 419.938 1110.31 419.916C1110.31 419.916 1110.31 419.904 1110.32 419.904C1110.32 419.904 1110.32 419.893 1110.33 419.882C1110.33 419.882 1110.33 419.871 1110.34 419.86L1110.35 419.838L1110.36 419.815L1110.37 419.793C1110.37 419.793 1110.37 419.782 1110.39 419.771C1110.39 419.771 1110.42 419.737 1110.44 419.715L1110.45 419.704L1110.46 419.682L1110.47 419.659L1110.49 419.637L1110.5 419.615L1110.51 419.592H1110.52V419.57H1110.53L1110.54 419.548C1110.54 419.548 1110.56 419.503 1110.59 419.492C1110.59 419.492 1110.6 419.47 1110.61 419.47V419.459V419.436L1110.63 419.425V419.403L1110.65 419.392V419.37L1110.67 419.358V419.336L1110.7 419.325H1110.71L1110.72 419.292H1110.73L1110.74 419.258L1110.76 419.225L1110.79 419.191L1110.81 419.158C1110.81 419.147 1110.83 419.136 1110.83 419.124C1110.83 419.124 1110.9 419.024 1110.94 418.98C1110.94 418.98 1111.01 418.879 1111.04 418.835C1111.11 418.735 1111.18 418.634 1111.24 418.534C1111.24 418.534 1111.31 418.434 1111.34 418.389C1111.41 418.289 1111.48 418.189 1111.53 418.088C1111.53 418.088 1111.6 417.988 1111.62 417.932C1111.62 417.932 1111.68 417.832 1111.71 417.776C1111.71 417.776 1111.77 417.676 1111.8 417.62C1111.8 417.62 1111.85 417.52 1111.89 417.464C1111.89 417.464 1111.94 417.364 1111.98 417.308C1111.98 417.308 1112.03 417.208 1112.06 417.152C1112.06 417.152 1112.11 417.052 1112.13 416.996C1112.19 416.896 1112.23 416.785 1112.29 416.684C1112.29 416.684 1112.33 416.573 1112.37 416.529C1112.37 416.529 1112.41 416.417 1112.43 416.373C1112.43 416.373 1112.48 416.261 1112.5 416.217C1112.5 416.217 1112.55 416.105 1112.57 416.061C1112.57 416.061 1112.61 415.949 1112.63 415.905C1112.63 415.905 1112.68 415.793 1112.7 415.749C1112.7 415.749 1112.75 415.637 1112.76 415.593C1112.76 415.593 1112.8 415.481 1112.81 415.437C1112.81 415.437 1112.85 415.325 1112.87 415.281C1112.87 415.281 1112.9 415.169 1112.92 415.125C1112.92 415.125 1112.96 415.013 1112.98 414.969C1112.98 414.969 1113.01 414.857 1113.02 414.813C1113.04 414.757 1113.06 414.701 1113.07 414.657C1113.08 414.601 1113.1 414.545 1113.11 414.501C1113.12 414.445 1113.15 414.389 1113.16 414.345C1113.17 414.289 1113.19 414.233 1113.2 414.189C1113.21 414.133 1113.22 414.077 1113.25 414.033C1113.26 413.977 1113.27 413.921 1113.28 413.877C1113.29 413.821 1113.3 413.765 1113.31 413.721C1113.32 413.665 1113.34 413.621 1113.35 413.565C1113.35 413.509 1113.37 413.465 1113.38 413.409C1113.38 413.353 1113.4 413.309 1113.41 413.253C1113.41 413.197 1113.44 413.153 1113.44 413.097C1113.44 413.041 1113.45 412.997 1113.46 412.941C1113.46 412.941 1113.47 412.841 1113.48 412.785C1113.48 412.729 1113.49 412.685 1113.5 412.629C1113.5 412.629 1113.51 412.529 1113.53 412.473C1113.53 412.417 1113.53 412.373 1113.54 412.317C1113.54 412.317 1113.54 412.217 1113.55 412.161C1113.55 412.161 1113.55 412.061 1113.56 412.005C1113.56 411.949 1113.56 411.905 1113.56 411.849C1113.56 411.849 1113.56 411.749 1113.56 411.704C1113.56 411.704 1113.56 411.604 1113.56 411.559C1113.56 411.559 1113.56 411.459 1113.56 411.415V411.27C1113.56 411.27 1113.56 411.169 1113.56 411.125C1113.56 411.125 1113.56 411.025 1113.56 410.98C1113.56 410.98 1113.56 410.88 1113.56 410.835C1113.56 410.835 1113.56 410.746 1113.56 410.69C1113.53 410.267 1113.47 409.866 1113.38 409.487C1113.35 409.365 1113.31 409.253 1113.28 409.131C1113.28 409.131 1113.26 409.075 1113.25 409.041C1113.25 409.041 1113.22 408.986 1113.21 408.952C1113.17 408.841 1113.12 408.729 1113.08 408.629C1113.08 408.629 1113.02 408.529 1113 408.473C1113 408.473 1112.95 408.373 1112.92 408.328C1112.92 408.328 1112.89 408.284 1112.88 408.262C1112.88 408.262 1112.85 408.217 1112.83 408.195C1112.83 408.195 1112.8 408.15 1112.79 408.128C1112.79 408.128 1112.76 408.083 1112.75 408.061C1112.75 408.061 1112.71 408.016 1112.7 407.994C1112.7 407.994 1112.67 407.95 1112.66 407.927C1112.66 407.927 1112.62 407.883 1112.6 407.86C1112.6 407.86 1112.57 407.816 1112.55 407.794C1112.52 407.771 1112.51 407.749 1112.49 407.738C1112.49 407.738 1112.46 407.693 1112.43 407.682C1112.41 407.66 1112.4 407.649 1112.38 407.626C1112.38 407.626 1112.34 407.593 1112.32 407.571C1112.32 407.571 1112.29 407.537 1112.27 407.515C1112.24 407.493 1112.23 407.482 1112.21 407.459C1112.21 407.459 1112.17 407.426 1112.16 407.404C1112.13 407.381 1112.11 407.37 1112.1 407.348C1112.08 407.326 1112.06 407.315 1112.04 407.303C1112.02 407.292 1112 407.27 1111.98 407.259C1111.96 407.248 1111.93 407.225 1111.91 407.214L1111.84 407.17C1111.84 407.17 1111.8 407.136 1111.78 407.125C1111.75 407.114 1111.73 407.092 1111.71 407.081C1111.69 407.069 1111.67 407.047 1111.64 407.036C1111.64 407.036 1111.6 407.014 1111.58 406.991C1111.55 406.969 1111.53 406.969 1111.51 406.947C1111.49 406.936 1111.47 406.925 1111.44 406.913C1111.42 406.902 1111.4 406.891 1111.38 406.88C1111.35 406.869 1111.33 406.858 1111.31 406.847C1111.29 406.835 1111.26 406.824 1111.24 406.813C1111.22 406.813 1111.2 406.791 1111.18 406.78C1111.15 406.78 1111.13 406.757 1111.11 406.746C1111.09 406.746 1111.06 406.724 1111.03 406.713C1111.01 406.713 1110.99 406.691 1110.95 406.679C1110.95 406.679 1110.91 406.657 1110.88 406.657C1110.85 406.657 1110.83 406.635 1110.8 406.635C1110.77 406.635 1110.75 406.624 1110.72 406.613C1110.7 406.613 1110.66 406.601 1110.64 406.59C1110.62 406.59 1110.59 406.579 1110.56 406.568C1110.54 406.568 1110.51 406.557 1110.49 406.546C1110.46 406.546 1110.43 406.535 1110.41 406.523C1110.39 406.512 1110.35 406.512 1110.33 406.501C1110.31 406.501 1110.27 406.501 1110.25 406.49C1110.23 406.49 1110.2 406.49 1110.17 406.479C1110.17 406.479 1110.12 406.479 1110.1 406.468C1110.07 406.468 1110.04 406.468 1110.02 406.468C1110 406.468 1109.96 406.468 1109.94 406.468C1109.92 406.468 1109.88 406.468 1109.86 406.468C1109.84 406.468 1109.81 406.468 1109.78 406.468C1109.76 406.468 1109.73 406.468 1109.71 406.468C1109.68 406.468 1109.65 406.468 1109.63 406.468C1109.61 406.468 1109.58 406.468 1109.56 406.468C1109.53 406.468 1109.48 406.468 1109.45 406.468C1109.45 406.468 1109.37 406.468 1109.34 406.468C1109.32 406.468 1109.29 406.468 1109.27 406.468C1109.25 406.468 1109.22 406.468 1109.19 406.468C1109.17 406.468 1109.14 406.468 1109.12 406.468C1109.09 406.468 1109.06 406.468 1109.04 406.468C1109.02 406.468 1108.98 406.468 1108.96 406.468C1108.94 406.468 1108.9 406.468 1108.88 406.468C1108.86 406.468 1108.83 406.468 1108.8 406.468C1108.78 406.468 1108.75 406.468 1108.73 406.479C1108.73 406.479 1108.67 406.479 1108.65 406.49C1108.63 406.49 1108.59 406.49 1108.57 406.501C1108.55 406.501 1108.51 406.501 1108.49 406.523C1108.47 406.523 1108.44 406.535 1108.41 406.546C1108.39 406.546 1108.36 406.557 1108.34 406.568C1108.31 406.568 1108.28 406.579 1108.26 406.59C1108.24 406.59 1108.2 406.601 1108.18 406.613C1108.16 406.613 1108.12 406.624 1108.1 406.635C1108.08 406.635 1108.06 406.646 1108.02 406.657C1108 406.657 1107.98 406.679 1107.95 406.679C1107.95 406.679 1107.9 406.702 1107.87 406.713C1107.85 406.713 1107.82 406.735 1107.79 406.746C1107.77 406.746 1107.75 406.769 1107.72 406.78C1107.7 406.78 1107.68 406.802 1107.66 406.813C1107.64 406.813 1107.61 406.835 1107.59 406.847C1107.57 406.858 1107.55 406.869 1107.52 406.88C1107.5 406.891 1107.48 406.902 1107.46 406.913C1107.43 406.925 1107.41 406.936 1107.39 406.947C1107.37 406.958 1107.35 406.969 1107.32 406.991C1107.3 407.003 1107.28 407.014 1107.26 407.036C1107.26 407.036 1107.21 407.058 1107.19 407.081C1107.17 407.092 1107.15 407.114 1107.12 407.125C1107.1 407.136 1107.08 407.159 1107.06 407.17L1106.99 407.214C1106.99 407.214 1106.94 407.248 1106.92 407.259C1106.9 407.27 1106.88 407.292 1106.86 407.303C1106.83 407.315 1106.81 407.337 1106.8 407.348C1106.78 407.37 1106.76 407.381 1106.74 407.404C1106.72 407.426 1106.7 407.437 1106.69 407.459C1106.69 407.459 1106.64 407.493 1106.63 407.515C1106.61 407.537 1106.6 407.548 1106.58 407.571C1106.58 407.571 1106.54 407.604 1106.52 407.626C1106.52 407.626 1106.49 407.66 1106.47 407.682C1106.44 407.704 1106.43 407.727 1106.41 407.738C1106.41 407.738 1106.38 407.782 1106.35 407.794C1106.33 407.816 1106.32 407.838 1106.3 407.86C1106.3 407.86 1106.27 407.905 1106.24 407.927C1106.24 407.927 1106.21 407.972 1106.2 407.994C1106.2 407.994 1106.17 408.039 1106.15 408.061C1106.15 408.061 1106.12 408.106 1106.11 408.128C1106.11 408.128 1106.08 408.172 1106.07 408.195C1106.07 408.195 1106.03 408.239 1106.02 408.262C1106.02 408.262 1105.99 408.306 1105.98 408.328C1105.98 408.328 1105.92 408.429 1105.9 408.473C1105.9 408.473 1105.84 408.574 1105.82 408.629C1105.78 408.729 1105.72 408.841 1105.69 408.952C1105.69 408.952 1105.66 409.008 1105.65 409.041C1105.65 409.041 1105.63 409.097 1105.62 409.131C1105.59 409.242 1105.55 409.365 1105.52 409.487C1105.43 409.866 1105.37 410.267 1105.34 410.69L1105.22 410.791Z" fill="#4EA185"/>
<path fill-rule="evenodd" clip-rule="evenodd" d="M1341.57 376.33C1342.16 376.341 1342.75 376.352 1343.34 376.352L1341.57 376.33ZM1345.27 376.352C1345.93 376.352 1346.58 376.33 1347.22 376.308L1345.27 376.352ZM1350.82 284.725C1350.18 290.039 1347.77 297.938 1344.84 299.231L1344.9 308.144C1345.71 308.144 1346.52 308.122 1347.33 308.099C1348.07 305.57 1352.17 302.261 1355.67 300.412C1362.05 297.047 1369.49 296.746 1380.08 298.395C1382.67 298.796 1383.61 299.253 1383.91 299.877C1384.2 300.501 1383.87 301.303 1382.13 302.908C1375.64 308.913 1370.45 311.821 1362.86 312.623C1357.39 313.202 1348.86 312.523 1347.4 309.715C1347.31 309.548 1347.26 309.381 1347.22 309.202C1346.44 309.225 1345.66 309.247 1344.87 309.247L1344.96 325.057C1345.75 325.057 1346.53 325.035 1347.3 325.012C1348.04 322.483 1352.13 319.174 1355.64 317.325C1362.02 313.96 1369.46 313.659 1380.05 315.308C1382.64 315.709 1383.58 316.166 1383.88 316.79C1384.17 317.414 1383.83 318.216 1382.1 319.82C1375.6 325.826 1370.42 328.733 1362.82 329.536C1357.36 330.115 1348.83 329.435 1347.37 326.628C1347.28 326.461 1347.22 326.293 1347.19 326.115C1346.44 326.137 1345.7 326.149 1344.94 326.16L1345.03 341.97C1345.79 341.97 1346.53 341.947 1347.28 341.925C1348.01 339.396 1352.11 336.087 1355.62 334.237C1362 330.873 1369.44 330.572 1380.02 332.221C1382.62 332.622 1383.55 333.079 1383.85 333.703C1384.14 334.326 1383.81 335.129 1382.07 336.733C1375.58 342.738 1370.39 345.646 1362.8 346.448C1357.33 347.028 1348.8 346.348 1347.35 343.54C1347.26 343.373 1347.2 343.206 1347.17 343.028C1346.45 343.05 1345.73 343.061 1345.01 343.073L1345.1 358.882C1345.82 358.882 1346.53 358.86 1347.25 358.838C1347.98 356.309 1352.08 353 1355.58 351.15C1361.96 347.785 1369.4 347.485 1379.99 349.133C1382.59 349.535 1383.52 349.991 1383.82 350.615C1384.11 351.239 1383.78 352.041 1382.04 353.646C1375.55 359.651 1370.36 362.559 1362.77 363.361C1357.3 363.94 1348.77 363.261 1347.31 360.453C1347.22 360.286 1347.17 360.119 1347.13 359.941C1346.45 359.963 1345.76 359.974 1345.07 359.985L1345.14 371.294L1345.17 376.341L1345.35 408.618C1345.35 409.153 1344.92 409.587 1344.38 409.587C1343.85 409.587 1343.42 409.153 1343.42 408.618L1343.24 376.352L1343.2 371.294L1343.14 359.985C1342.57 359.985 1342 359.974 1341.43 359.963C1341.4 360.13 1341.34 360.297 1341.27 360.453C1339.82 363.261 1331.29 363.929 1325.81 363.361C1318.23 362.559 1313.03 359.651 1306.54 353.646C1304.81 352.041 1304.47 351.239 1304.76 350.615C1305.05 349.991 1305.99 349.535 1308.59 349.133C1319.19 347.485 1326.62 347.785 1332.99 351.15C1336.51 353 1340.62 356.331 1341.34 358.86C1341.93 358.871 1342.52 358.882 1343.11 358.893L1343.03 343.084C1342.49 343.084 1341.96 343.073 1341.42 343.061C1341.39 343.229 1341.33 343.396 1341.26 343.552C1339.81 346.359 1331.28 347.028 1325.8 346.46C1318.22 345.657 1313.02 342.749 1306.53 336.744C1304.8 335.14 1304.46 334.338 1304.75 333.714C1305.04 333.09 1305.98 332.633 1308.58 332.232C1319.18 330.583 1326.61 330.884 1332.98 334.248C1336.5 336.098 1340.61 339.429 1341.33 341.958C1341.89 341.97 1342.45 341.981 1343.01 341.992L1342.93 326.182C1342.42 326.182 1341.91 326.171 1341.41 326.16C1341.38 326.327 1341.32 326.494 1341.24 326.65C1339.8 329.458 1331.27 330.126 1325.79 329.558C1318.21 328.756 1313.01 325.848 1306.52 319.843C1304.79 318.238 1304.45 317.436 1304.73 316.812C1305.02 316.188 1305.97 315.731 1308.56 315.33C1319.16 313.681 1326.6 313.982 1332.97 317.347C1336.49 319.196 1340.6 322.528 1341.32 325.057C1341.85 325.068 1342.38 325.079 1342.9 325.079L1342.81 309.269C1342.34 309.269 1341.87 309.258 1341.4 309.247C1341.37 309.414 1341.31 309.581 1341.23 309.737C1339.79 312.545 1331.26 313.213 1325.78 312.645C1318.2 311.843 1313 308.935 1306.5 302.93C1304.78 301.325 1304.43 300.523 1304.72 299.899C1305.01 299.275 1305.96 298.819 1308.55 298.418C1319.15 296.769 1326.59 297.069 1332.96 300.434C1336.48 302.284 1340.59 305.615 1341.31 308.144C1341.8 308.155 1342.3 308.166 1342.8 308.166L1342.75 299.108C1340.46 297.86 1338.18 293.248 1337.16 289.471C1335.3 282.563 1336.66 275.199 1340.63 265.105C1341.6 262.631 1342.26 261.796 1342.94 261.628C1343.62 261.461 1344.32 261.952 1345.5 263.957C1349.91 271.489 1351.59 277.137 1350.67 284.747L1350.82 284.725ZM1325.92 380.285C1318.34 379.483 1313.14 376.575 1306.65 370.57C1304.92 368.965 1304.58 368.163 1304.87 367.539C1305.16 366.915 1306.1 366.458 1308.7 366.057C1319.3 364.408 1326.74 364.709 1333.1 368.074C1334.71 368.921 1336.43 370.068 1337.9 371.305C1339.91 372.987 1341.44 374.848 1341.56 376.341C1341.59 376.72 1341.52 377.065 1341.36 377.388C1339.91 380.196 1331.38 380.864 1325.9 380.296L1325.92 380.285ZM1362.87 380.285C1357.4 380.864 1348.87 380.185 1347.41 377.377C1347.25 377.054 1347.19 376.697 1347.22 376.308C1347.36 374.826 1348.87 372.987 1350.86 371.305C1352.33 370.057 1354.07 368.91 1355.67 368.063C1362.05 364.698 1369.49 364.397 1380.08 366.046C1382.67 366.447 1383.61 366.904 1383.91 367.528C1384.2 368.152 1383.87 368.954 1382.13 370.559C1375.64 376.564 1370.45 379.472 1362.86 380.274L1362.87 380.285Z" fill="#4EA185"/>
<path d="M1245.52 209.788H1109.33V368.776H1245.52V209.788Z" fill="#F7F7EF"/>
<path fill-rule="evenodd" clip-rule="evenodd" d="M1109.33 209.787H1155.78H1245.53L1178.38 149.98L1109.33 209.787Z" fill="#04315B"/>
<path fill-rule="evenodd" clip-rule="evenodd" d="M1177.42 188.362C1191.72 188.362 1203.3 199.961 1203.3 214.255C1203.3 228.55 1191.71 240.148 1177.42 240.148C1163.14 240.148 1151.55 228.55 1151.55 214.255C1151.55 199.961 1163.14 188.362 1177.42 188.362Z" fill="#F7F7EF"/>
<path fill-rule="evenodd" clip-rule="evenodd" d="M1177.43 201.521C1184.46 201.521 1190.16 207.225 1190.16 214.266C1190.16 221.308 1184.46 227.012 1177.43 227.012C1170.39 227.012 1164.69 221.308 1164.69 214.266C1164.69 207.225 1170.39 201.521 1177.43 201.521Z" fill="#C2CDE1"/>
<path d="M1178.37 201.521H1176.48V227.012H1178.37V201.521Z" fill="#04315B"/>
<path d="M1190.17 213.319H1164.7V215.213H1190.17V213.319Z" fill="#04315B"/>
<path d="M1152.01 141H1142.66V183.661H1152.01V141Z" fill="#04315B"/>
<path d="M1245.52 284.703H1109.33V368.765H1245.52V284.703Z" fill="#034585"/>
<path d="M1152.67 233.786H1129.99V284.714H1152.67V233.786Z" fill="#C2CDE1"/>
<path d="M1152.67 249.373H1129.99V250.821H1152.67V249.373Z" fill="#04315B"/>
<path d="M1142.05 233.786H1140.6V284.714H1142.05V233.786Z" fill="#04315B"/>
<path d="M1152.67 267.389H1129.99V268.837H1152.67V267.389Z" fill="#04315B"/>
<path d="M1223.64 233.786H1200.96V284.714H1223.64V233.786Z" fill="#C2CDE1"/>
<path d="M1223.63 233.786H1213.02V284.714H1223.63V233.786Z" fill="#C2CDE1"/>
<path d="M1223.64 249.373H1200.96V250.821H1223.64V249.373Z" fill="#04315B"/>
<path d="M1213.02 233.786H1211.57V284.714H1213.02V233.786Z" fill="#04315B"/>
<path d="M1223.64 267.389H1200.96V268.837H1223.64V267.389Z" fill="#04315B"/>
<path d="M1152.67 297.203H1129.99V348.131H1152.67V297.203Z" fill="#C2CDE1"/>
<path d="M1141.33 297.203H1129.99V348.131H1141.33V297.203Z" fill="#C2CDE1"/>
<path d="M1152.67 312.779H1129.99V314.227H1152.67V312.779Z" fill="#04315B"/>
<path d="M1142.05 297.203H1140.6V348.131H1142.05V297.203Z" fill="#04315B"/>
<path d="M1152.67 330.806H1129.99V332.255H1152.67V330.806Z" fill="#04315B"/>
<path d="M1223.64 297.203H1200.96V348.131H1223.64V297.203Z" fill="#C2CDE1"/>
<path d="M1223.64 312.779H1200.96V314.227H1223.64V312.779Z" fill="#04315B"/>
<path d="M1213.02 297.203H1211.57V348.131H1213.02V297.203Z" fill="#04315B"/>
<path d="M1223.64 330.806H1200.96V332.255H1223.64V330.806Z" fill="#04315B"/>
<path d="M1190.7 284.703H1164.16V368.765H1190.7V284.703Z" fill="#034585"/>
<path d="M1190.7 312.556H1164.16V368.776H1190.7V312.556Z" fill="#C2CDE1"/>
<path d="M1245.52 368.765H1109.33V379.516H1245.52V368.765Z" fill="#04315B"/>
<path fill-rule="evenodd" clip-rule="evenodd" d="M1372.75 408.618H1180.05V423.87L1190.54 435.892H1363.69L1372.75 425.363V408.618Z" fill="#034585"/>
<path fill-rule="evenodd" clip-rule="evenodd" d="M1264.7 408.618H1180.05V423.87L1190.54 435.892H1264.7V408.618Z" fill="#04315B"/>
<path fill-rule="evenodd" clip-rule="evenodd" d="M1355.85 431.246C1351.42 431.246 1347.82 434.845 1347.82 439.279C1347.82 443.713 1351.42 447.312 1355.85 447.312C1360.28 447.312 1363.88 443.713 1363.88 439.279C1363.88 434.845 1360.28 431.246 1355.85 431.246Z" fill="#C2CDE1"/>
<path fill-rule="evenodd" clip-rule="evenodd" d="M1226.85 431.246C1222.42 431.246 1218.82 434.845 1218.82 439.279C1218.82 443.713 1222.42 447.312 1226.85 447.312C1231.28 447.312 1234.88 443.713 1234.88 439.279C1234.88 434.845 1231.28 431.246 1226.85 431.246Z" fill="#C2CDE1"/>
<path fill-rule="evenodd" clip-rule="evenodd" d="M1329.93 408.618H1210.23V344.298H1304.53L1329.93 408.618Z" fill="#034585"/>
<path fill-rule="evenodd" clip-rule="evenodd" d="M1327.13 408.607H1265.88V346.17H1302.46L1327.13 408.607ZM1263.88 408.607H1218.14V346.17H1263.88V408.607Z" fill="#C2CDE1"/>
<path d="M1277.87 414.623H1269.94V417.308H1277.87V414.623Z" fill="#F2EAFF"/>
<path fill-rule="evenodd" clip-rule="evenodd" d="M1371.57 416.941V421.932C1368.82 421.932 1366.59 419.693 1366.59 416.941C1366.59 414.189 1368.82 411.949 1371.57 411.949V416.941Z" fill="#F2EAFF"/>
<path fill-rule="evenodd" clip-rule="evenodd" d="M1181.59 416.941V421.932C1184.34 421.932 1186.58 419.693 1186.58 416.941C1186.58 414.189 1184.34 411.949 1181.59 411.949V416.941Z" fill="#C2CDE1"/>
<path d="M1083.11 252.805H924.075V438.444H1083.11V252.805Z" fill="#F7F7EF"/>
<path fill-rule="evenodd" clip-rule="evenodd" d="M1083.11 252.805H1028.87H924.075L944.095 196.752H1028.87H1063.1L1083.11 252.805Z" fill="#04315B"/>
<path d="M1003.6 288.268C1020.29 288.268 1033.81 274.73 1033.81 258.03C1033.81 241.33 1020.29 227.792 1003.6 227.792C986.907 227.792 973.378 241.33 973.378 258.03C973.378 274.73 986.907 288.268 1003.6 288.268Z" fill="#F7F7EF"/>
<path fill-rule="evenodd" clip-rule="evenodd" d="M1003.6 243.145C995.379 243.145 988.721 249.808 988.721 258.03C988.721 266.252 995.379 272.915 1003.6 272.915C1011.81 272.915 1018.47 266.252 1018.47 258.03C1018.47 249.808 1011.81 243.145 1003.6 243.145Z" fill="#C2CDE1"/>
<path d="M1004.7 243.145H1002.49V272.904H1004.7V243.145Z" fill="#034585"/>
<path d="M1018.46 256.927H988.721V259.133H1018.46V256.927Z" fill="#034585"/>
<path d="M1044.18 172.486H1033.28V196.752H1044.18V172.486Z" fill="#04315B"/>
<path d="M1083.11 340.287H924.075V438.443H1083.11V340.287Z" fill="#034585"/>
<path d="M1058.99 280.825H1032.5V340.287H1058.99V280.825Z" fill="#C2CDE1"/>
<path d="M1058.99 299.02H1032.5V300.713H1058.99V299.02Z" fill="#034585"/>
<path d="M1046.59 280.825H1044.89V340.287H1046.59V280.825Z" fill="#034585"/>
<path d="M1058.99 320.065H1032.5V321.759H1058.99V320.065Z" fill="#034585"/>
<path d="M976.116 280.825H949.628V340.287H976.116V280.825Z" fill="#C2CDE1"/>
<path d="M962.02 280.825H949.628V340.287H962.02V280.825Z" fill="#C2CDE1"/>
<path d="M976.116 299.02H949.628V300.713H976.116V299.02Z" fill="#034585"/>
<path d="M963.725 280.825H962.032V340.287H963.725V280.825Z" fill="#034585"/>
<path d="M976.116 320.065H949.628V321.759H976.116V320.065Z" fill="#034585"/>
<path d="M1058.99 354.872H1032.5V414.334H1058.99V354.872Z" fill="#C2CDE1"/>
<path d="M1058.98 354.872H1045.74V414.334H1058.98V354.872Z" fill="#C2CDE1"/>
<path d="M1058.99 373.065H1032.5V374.759H1058.99V373.065Z" fill="#034585"/>
<path d="M1046.59 354.872H1044.89V414.334H1046.59V354.872Z" fill="#034585"/>
<path d="M1058.99 394.112H1032.5V395.805H1058.99V394.112Z" fill="#034585"/>
<path d="M976.116 354.872H949.628V414.334H976.116V354.872Z" fill="#C2CDE1"/>
<path d="M976.116 373.065H949.628V374.759H976.116V373.065Z" fill="#034585"/>
<path d="M963.725 354.872H962.032V414.334H963.725V354.872Z" fill="#034585"/>
<path d="M976.116 394.112H949.628V395.805H976.116V394.112Z" fill="#034585"/>
<path d="M1019.08 340.287H988.098V438.443H1019.08V340.287Z" fill="#034585"/>
<path d="M1019.08 372.798H988.098V438.443H1019.08V372.798Z" fill="#C2CDE1"/>
<path d="M1083.11 438.443H924.075V451H1083.11V438.443Z" fill="#04315B"/>
</g>
<path fill-rule="evenodd" clip-rule="evenodd" d="M1443 486V448.055C1364.43 440.353 1228.4 440.167 1146.91 446.539C1057.83 453.499 988.625 452.07 898.075 447.608C575.885 431.734 495.354 462.336 293.089 446.539C211.597 440.167 75.5694 440.353 -3 448.055V486H1443Z" fill="#C2CDE1"/>
<defs>
<filter id="filter0_d_1380_13" x="868" y="141" width="520" height="318" filterUnits="userSpaceOnUse" color-interpolation-filters="sRGB">
<feFlood flood-opacity="0" result="BackgroundImageFix"/>
<feColorMatrix in="SourceAlpha" type="matrix" values="0 0 0 0 0 0 0 0 0 0 0 0 0 0 0 0 0 0 127 0" result="hardAlpha"/>
<feOffset dy="4"/>
<feGaussianBlur stdDeviation="2"/>
<feComposite in2="hardAlpha" operator="out"/>
<feColorMatrix type="matrix" values="0 0 0 0 0 0 0 0 0 0 0 0 0 0 0 0 0 0 0.25 0"/>
<feBlend mode="normal" in2="BackgroundImageFix" result="effect1_dropShadow_1380_13"/>
<feBlend mode="normal" in="SourceGraphic" in2="effect1_dropShadow_1380_13" result="shape"/>
</filter>
<clipPath id="clip0_1380_13">
<rect width="512" height="310" fill="white" transform="translate(872 141)"/>
</clipPath>
</defs>
</svg>
