<svg width="1440" height="486" viewBox="0 0 1440 486" fill="none" xmlns="http://www.w3.org/2000/svg">
<path fill-rule="evenodd" clip-rule="evenodd" d="M1440 486V431.67C1361.43 420.642 1225.4 420.376 1143.91 429.499C1054.83 439.465 985.625 437.419 895.075 431.03C572.885 408.301 492.354 452.118 290.089 429.499C208.597 420.376 72.5694 420.642 -6 431.67V486H1440Z" fill="#C2CDE1"/>
<g clip-path="url(#clip0_1380_7)">
<path d="M1291 178.793H980V298.537H1291V178.793Z" fill="#C6D1E5"/>
<path d="M1291 178.793H980V298.537H1291V178.793Z" fill="#C2CDE1"/>
<path d="M1291 298.546H980V399.332H1291V298.546Z" fill="#91B6A5"/>
<path d="M1291 298.546H980V399.332H1291V298.546Z" fill="#04315B"/>
<path fill-rule="evenodd" clip-rule="evenodd" d="M1207.06 208.647C1215.87 218.445 1228.64 224.597 1242.84 224.597C1269.44 224.597 1291 202.997 1291 176.354C1291 149.711 1269.44 128.111 1242.84 128.111C1228.64 128.111 1215.87 134.263 1207.06 144.06C1198.24 134.263 1185.47 128.111 1171.27 128.111C1157.07 128.111 1144.31 134.263 1135.49 144.06C1126.67 134.263 1113.91 128.111 1099.71 128.111C1085.51 128.111 1072.74 134.263 1063.93 144.06C1055.11 134.263 1042.34 128.111 1028.14 128.111C1001.54 128.111 979.981 149.711 979.981 176.354C979.981 202.997 1001.54 224.597 1028.14 224.597C1042.34 224.597 1055.11 218.445 1063.93 208.647C1072.74 218.445 1085.51 224.597 1099.71 224.597C1113.91 224.597 1126.67 218.445 1135.49 208.647C1144.31 218.445 1157.07 224.597 1171.27 224.597C1185.47 224.597 1198.24 218.445 1207.06 208.647Z" fill="#DAE1EE"/>
<path fill-rule="evenodd" clip-rule="evenodd" d="M1207.06 208.647C1215.87 218.445 1228.64 224.597 1242.84 224.597C1269.44 224.597 1291 202.997 1291 176.354C1291 149.711 1269.44 128.111 1242.84 128.111C1228.64 128.111 1215.87 134.263 1207.06 144.06C1198.24 134.263 1185.47 128.111 1171.27 128.111C1157.07 128.111 1144.31 134.263 1135.49 144.06C1126.67 134.263 1113.91 128.111 1099.71 128.111C1085.51 128.111 1072.74 134.263 1063.93 144.06C1055.11 134.263 1042.34 128.111 1028.14 128.111C1001.54 128.111 979.981 149.711 979.981 176.354C979.981 202.997 1001.54 224.597 1028.14 224.597C1042.34 224.597 1055.11 218.445 1063.93 208.647C1072.74 218.445 1085.51 224.597 1099.71 224.597C1113.91 224.597 1126.67 218.445 1135.49 208.647C1144.31 218.445 1157.07 224.597 1171.27 224.597C1185.47 224.597 1198.24 218.445 1207.06 208.647Z" fill="#C2CDE1"/>
<path fill-rule="evenodd" clip-rule="evenodd" d="M1207.06 439.051C1215.87 448.848 1228.64 455 1242.84 455C1269.44 455 1291 433.4 1291 406.757C1291 380.114 1269.44 358.515 1242.84 358.515C1228.64 358.515 1215.87 364.667 1207.06 374.464C1198.24 364.667 1185.47 358.515 1171.27 358.515C1157.07 358.515 1144.31 364.667 1135.49 374.464C1126.67 364.667 1113.91 358.515 1099.71 358.515C1085.51 358.515 1072.74 364.667 1063.93 374.464C1055.11 364.667 1042.34 358.515 1028.14 358.515C1001.54 358.515 979.981 380.114 979.981 406.757C979.981 433.4 1001.54 455 1028.14 455C1042.34 455 1055.11 448.838 1063.93 439.051C1072.74 448.848 1085.51 455 1099.71 455C1113.91 455 1126.67 448.838 1135.49 439.051C1144.31 448.848 1157.07 455 1171.27 455C1185.47 455 1198.24 448.838 1207.06 439.051Z" fill="#91B6A5"/>
<path fill-rule="evenodd" clip-rule="evenodd" d="M1207.06 439.051C1215.87 448.848 1228.64 455 1242.84 455C1269.44 455 1291 433.4 1291 406.757C1291 380.114 1269.44 358.515 1242.84 358.515C1228.64 358.515 1215.87 364.667 1207.06 374.464C1198.24 364.667 1185.47 358.515 1171.27 358.515C1157.07 358.515 1144.31 364.667 1135.49 374.464C1126.67 364.667 1113.91 358.515 1099.71 358.515C1085.51 358.515 1072.74 364.667 1063.93 374.464C1055.11 364.667 1042.34 358.515 1028.14 358.515C1001.54 358.515 979.981 380.114 979.981 406.757C979.981 433.4 1001.54 455 1028.14 455C1042.34 455 1055.11 448.838 1063.93 439.051C1072.74 448.848 1085.51 455 1099.71 455C1113.91 455 1126.67 448.838 1135.49 439.051C1144.31 448.848 1157.07 455 1171.27 455C1185.47 455 1198.24 448.838 1207.06 439.051Z" fill="#04315B"/>
<path fill-rule="evenodd" clip-rule="evenodd" d="M1291 406.757C1291 380.114 1269.44 358.515 1242.84 358.515C1228.64 358.515 1215.87 364.667 1207.06 374.464C1198.24 364.667 1185.47 358.515 1171.27 358.515C1157.07 358.515 1144.31 364.667 1135.49 374.464C1126.67 364.667 1113.91 358.515 1099.71 358.515C1085.51 358.515 1072.74 364.667 1063.93 374.464C1055.11 364.667 1042.34 358.515 1028.14 358.515C1001.54 358.515 979.981 380.114 979.981 406.757H1290.98H1291Z" fill="#F7F7EF"/>
<path fill-rule="evenodd" clip-rule="evenodd" d="M1003.05 407.432C999.667 410.489 997.54 414.915 997.54 419.833C997.54 429.051 1005 436.524 1014.2 436.524C1023.41 436.524 1030.87 429.051 1030.87 419.833C1030.87 414.915 1028.74 410.489 1025.36 407.432C1028.74 404.375 1030.87 399.949 1030.87 395.032C1030.87 390.114 1028.74 385.688 1025.36 382.631C1028.74 379.574 1030.87 375.148 1030.87 370.231C1030.87 365.313 1028.74 360.887 1025.36 357.83C1028.74 354.773 1030.87 350.347 1030.87 345.429C1030.87 336.211 1023.41 328.738 1014.2 328.738C1005 328.738 997.54 336.211 997.54 345.429C997.54 350.347 999.667 354.773 1003.05 357.83C999.667 360.887 997.54 365.313 997.54 370.231C997.54 375.148 999.667 379.574 1003.05 382.631C999.667 385.688 997.54 390.114 997.54 395.032C997.54 399.949 999.667 404.375 1003.05 407.432Z" fill="#E9B317"/>
<path fill-rule="evenodd" clip-rule="evenodd" d="M1064.64 152.247H1066.3C1068.67 152.247 1070.6 154.185 1070.6 156.548V181.021H1061.18V155.699C1061.18 153.8 1062.73 152.247 1064.63 152.247H1064.64Z" fill="#E75E30"/>
<path fill-rule="evenodd" clip-rule="evenodd" d="M1064.64 152.247H1066.3C1068.67 152.247 1070.6 154.185 1070.6 156.548V181.021H1061.18V155.699C1061.18 153.8 1062.73 152.247 1064.63 152.247H1064.64Z" fill="#F9C9B3"/>
<path d="M1096.1 180.461H1093.42C1090.73 180.461 1088.54 182.65 1088.54 185.35V248.992C1088.54 251.692 1090.73 253.881 1093.42 253.881H1096.1C1098.79 253.881 1100.98 251.692 1100.98 248.992V185.35C1100.98 182.65 1098.79 180.461 1096.1 180.461Z" fill="#001E60"/>
<path d="M1096.1 180.461H1093.42C1090.73 180.461 1088.54 182.65 1088.54 185.35V248.992C1088.54 251.692 1090.73 253.881 1093.42 253.881H1096.1C1098.79 253.881 1100.98 251.692 1100.98 248.992V185.35C1100.98 182.65 1098.79 180.461 1096.1 180.461Z" fill="#001E60"/>
<path fill-rule="evenodd" clip-rule="evenodd" d="M1093.88 242.59L1128.11 229.746C1128.24 229.697 1128.39 229.649 1128.52 229.601L1128.96 229.244L1130.6 236.602L1100.39 253.708C1095.38 256.543 1091.47 255.386 1089.87 252.425C1088.21 249.349 1089.07 244.383 1093.86 242.58L1093.88 242.59Z" fill="#FFFFCC"/>
<path fill-rule="evenodd" clip-rule="evenodd" d="M1093.88 242.59L1128.11 229.746C1128.24 229.697 1128.39 229.649 1128.52 229.601L1128.96 229.244L1130.6 236.602L1100.39 253.708C1095.38 256.543 1091.47 255.386 1089.87 252.425C1088.21 249.349 1089.07 244.383 1093.86 242.58L1093.88 242.59Z" fill="#F7F7EF"/>
<path fill-rule="evenodd" clip-rule="evenodd" d="M1124.54 231.086L1128.11 229.746C1128.24 229.697 1128.39 229.649 1128.52 229.601L1129.01 229.215L1133.06 235.155C1132.4 235.628 1131.46 236.12 1130.61 236.602L1128.17 237.981L1124.54 231.086Z" fill="white"/>
<path fill-rule="evenodd" clip-rule="evenodd" d="M1124.54 231.086L1128.11 229.746C1128.24 229.697 1128.39 229.649 1128.52 229.601L1129.01 229.215L1133.06 235.155C1132.4 235.628 1131.46 236.12 1130.61 236.602L1128.17 237.981L1124.54 231.086Z" fill="white"/>
<path fill-rule="evenodd" clip-rule="evenodd" d="M1128.97 229.254L1141.26 219.438L1142.86 221.549C1141.72 223.14 1133.47 234.943 1133.01 235.309L1128.97 229.254Z" fill="#FE6A6A"/>
<path fill-rule="evenodd" clip-rule="evenodd" d="M1128.97 229.254L1141.26 219.438L1142.86 221.549C1141.72 223.14 1133.47 234.943 1133.01 235.309L1128.97 229.254Z" fill="#FE6A6A"/>
<path fill-rule="evenodd" clip-rule="evenodd" d="M1086.63 231.501L1097.95 200.316C1099.84 195.215 1102.63 189.989 1099.47 184.357C1096.51 179.112 1092.28 180.519 1087.57 180.519H1032.19C1027.87 180.519 1024.35 184.531 1024.35 189.439C1024.35 191.985 1025.3 194.299 1026.81 195.929L1042.62 229.148L1086.65 231.501H1086.63Z" fill="#001E60"/>
<path fill-rule="evenodd" clip-rule="evenodd" d="M1086.63 231.501L1097.95 200.316C1099.84 195.215 1102.63 189.989 1099.47 184.357C1096.51 179.112 1092.28 180.519 1087.57 180.519H1032.19C1027.87 180.519 1024.35 184.531 1024.35 189.439C1024.35 191.985 1025.3 194.299 1026.81 195.929L1042.62 229.148L1086.65 231.501H1086.63Z" fill="#001E60"/>
<path d="M1031.71 182.979H1029.04C1026.34 182.979 1024.16 185.167 1024.16 187.867V251.509C1024.16 254.21 1026.34 256.398 1029.04 256.398H1031.71C1034.41 256.398 1036.6 254.21 1036.6 251.509V187.867C1036.6 185.167 1034.41 182.979 1031.71 182.979Z" fill="#001E60"/>
<path d="M1031.71 182.979H1029.04C1026.34 182.979 1024.16 185.167 1024.16 187.867V251.509C1024.16 254.21 1026.34 256.398 1029.04 256.398H1031.71C1034.41 256.398 1036.6 254.21 1036.6 251.509V187.867C1036.6 185.167 1034.41 182.979 1031.71 182.979Z" fill="#001E60"/>
<path fill-rule="evenodd" clip-rule="evenodd" d="M1087.85 228.27V234.22C1087.85 289.097 1085.07 341.929 1081.44 397.009H1081.46C1081.23 399.612 1082.62 401.502 1084.66 402.833C1085.12 403.132 1085.62 403.411 1086.15 403.653C1086.18 403.672 1086.21 403.681 1086.25 403.691C1086.31 403.72 1086.37 403.749 1086.43 403.778C1086.49 403.807 1086.55 403.826 1086.6 403.855H1086.63C1086.67 403.894 1086.73 403.913 1086.78 403.932L1086.83 403.951C1086.88 403.971 1086.92 403.99 1086.98 404.009L1087.04 404.029C1087.04 404.029 1087.14 404.067 1087.18 404.086L1087.27 404.115C1087.27 404.115 1087.35 404.144 1087.38 404.154C1087.41 404.164 1087.45 404.183 1087.49 404.193L1087.58 404.221C1087.58 404.221 1087.66 404.25 1087.69 404.26C1087.73 404.27 1087.77 404.289 1087.81 404.299L1087.92 404.337C1087.92 404.337 1087.98 404.356 1088.02 404.376L1088.14 404.414L1088.23 404.443C1088.28 404.463 1088.33 404.472 1088.39 404.491L1088.44 404.511C1088.48 404.53 1088.54 404.54 1088.59 404.559L1088.65 404.578C1088.7 404.598 1088.75 404.607 1088.81 404.626H1088.86C1088.92 404.655 1088.96 404.675 1089.02 404.684H1089.07C1089.13 404.713 1089.19 404.733 1089.24 404.742H1089.27C1089.34 404.771 1089.41 404.781 1089.47 404.8H1089.47C1089.54 404.819 1089.6 404.839 1089.67 404.848H1089.7C1089.76 404.868 1089.82 404.887 1089.89 404.896H1089.91C1089.98 404.916 1090.03 404.935 1090.1 404.945H1090.13C1090.2 404.964 1090.25 404.983 1090.32 404.993H1090.34C1090.41 405.012 1090.48 405.022 1090.53 405.041H1090.55C1090.62 405.06 1090.7 405.07 1090.76 405.089C1094.1 405.735 1094.01 406.767 1091.57 406.729H1077.57C1076.78 406.729 1076.1 405.745 1076.13 405.06C1076.13 405.022 1076.13 404.983 1076.13 404.935V404.858C1076.13 404.781 1076.13 404.694 1076.13 404.598V404.501C1076.13 404.328 1076.13 404.135 1076.11 403.923V403.894V403.884C1076.11 403.759 1076.11 403.614 1076.1 403.479V403.46V403.373V403.334V403.248V403.199V403.151V403.103V403.055V403.026V403.006V402.958V402.91V402.871V402.823C1076.01 400.413 1075.83 397.067 1075.94 397.067H1075.97C1072.72 354.455 1070.18 312.114 1067.06 269.551H1064.32C1062.59 312.452 1060.51 354.098 1057.88 396.999H1057.9C1057.7 399.612 1059.04 401.502 1061.03 402.833C1061.21 402.958 1061.4 403.074 1061.6 403.19C1061.65 403.219 1061.7 403.257 1061.76 403.286H1061.77C1061.82 403.325 1061.87 403.354 1061.92 403.383L1061.95 403.402C1062 403.431 1062.06 403.46 1062.11 403.479H1062.13C1062.24 403.546 1062.36 403.604 1062.47 403.662C1062.5 403.681 1062.53 403.691 1062.56 403.701C1062.61 403.72 1062.65 403.749 1062.7 403.768L1062.74 403.788C1062.74 403.788 1062.83 403.826 1062.88 403.845L1062.93 403.874C1062.93 403.874 1063.02 403.913 1063.06 403.932L1063.14 403.961C1063.14 403.961 1063.21 404 1063.26 404.009L1063.34 404.038C1063.34 404.038 1063.42 404.067 1063.46 404.086L1063.55 404.125C1063.55 404.125 1063.63 404.154 1063.66 404.164C1063.69 404.183 1063.73 404.193 1063.77 404.202L1063.85 404.231C1063.85 404.231 1063.93 404.26 1063.96 404.279L1064.05 404.308C1064.05 404.308 1064.14 404.337 1064.18 404.356L1064.25 404.385C1064.25 404.385 1064.35 404.414 1064.39 404.434L1064.45 404.453C1064.5 404.472 1064.56 404.491 1064.61 404.501L1064.67 404.52C1064.71 404.54 1064.76 404.549 1064.82 404.569L1064.88 404.588C1064.93 404.607 1064.98 404.617 1065.03 404.636H1065.08C1065.13 404.665 1065.19 404.684 1065.23 404.694H1065.28C1065.34 404.723 1065.39 404.742 1065.45 404.752H1065.48C1065.55 404.781 1065.61 404.8 1065.68 404.81H1065.69C1065.74 404.829 1065.81 404.848 1065.87 404.858H1065.9C1065.96 404.877 1066.01 404.896 1066.08 404.906H1066.11C1066.17 404.925 1066.23 404.945 1066.28 404.954H1066.32C1066.38 404.974 1066.45 404.993 1066.51 405.003H1066.52C1066.59 405.022 1066.65 405.031 1066.72 405.051H1066.74C1066.8 405.07 1066.87 405.08 1066.94 405.099C1070.17 405.745 1070.09 406.777 1067.73 406.738H1054.15C1053.39 406.738 1052.74 405.755 1052.76 405.07C1052.76 405.051 1052.76 405.041 1052.76 405.022V404.964V404.925V404.887V404.829V404.8V404.771V404.713V404.694V404.655V404.626V404.598V404.559V404.53V404.501V404.472V404.405V404.385V404.366V404.328V404.289V404.26V404.221V404.183V404.144V404.115V404.077V404.038V404.019V404V403.961V403.923V403.894V403.845V403.807V403.797V403.72V403.681V403.643V403.624V403.595V403.546V403.498V403.469V403.45V403.402V403.354V403.315V403.267V403.219V403.17V403.122V403.074V403.026V402.997V402.978V402.929V402.881V402.843V402.794C1052.65 400.384 1052.49 397.038 1052.59 397.038H1052.61C1048.55 343.781 1042.2 285.992 1042.2 234.172V228.222H1087.9L1087.85 228.27Z" fill="#758AAF"/>
<path fill-rule="evenodd" clip-rule="evenodd" d="M1087.85 228.27V234.22C1087.85 289.097 1085.07 341.929 1081.44 397.009H1081.46C1081.23 399.612 1082.62 401.502 1084.66 402.833C1085.12 403.132 1085.62 403.411 1086.15 403.653C1086.18 403.672 1086.21 403.681 1086.25 403.691C1086.31 403.72 1086.37 403.749 1086.43 403.778C1086.49 403.807 1086.55 403.826 1086.6 403.855H1086.63C1086.67 403.894 1086.73 403.913 1086.78 403.932L1086.83 403.951C1086.88 403.971 1086.92 403.99 1086.98 404.009L1087.04 404.029C1087.04 404.029 1087.14 404.067 1087.18 404.086L1087.27 404.115C1087.27 404.115 1087.35 404.144 1087.38 404.154C1087.41 404.164 1087.45 404.183 1087.49 404.193L1087.58 404.221C1087.58 404.221 1087.66 404.25 1087.69 404.26C1087.73 404.27 1087.77 404.289 1087.81 404.299L1087.92 404.337C1087.92 404.337 1087.98 404.356 1088.02 404.376L1088.14 404.414L1088.23 404.443C1088.28 404.463 1088.33 404.472 1088.39 404.491L1088.44 404.511C1088.48 404.53 1088.54 404.54 1088.59 404.559L1088.65 404.578C1088.7 404.598 1088.75 404.607 1088.81 404.626H1088.86C1088.92 404.655 1088.96 404.675 1089.02 404.684H1089.07C1089.13 404.713 1089.19 404.733 1089.24 404.742H1089.27C1089.34 404.771 1089.41 404.781 1089.47 404.8H1089.47C1089.54 404.819 1089.6 404.839 1089.67 404.848H1089.7C1089.76 404.868 1089.82 404.887 1089.89 404.896H1089.91C1089.98 404.916 1090.03 404.935 1090.1 404.945H1090.13C1090.2 404.964 1090.25 404.983 1090.32 404.993H1090.34C1090.41 405.012 1090.48 405.022 1090.53 405.041H1090.55C1090.62 405.06 1090.7 405.07 1090.76 405.089C1094.1 405.735 1094.01 406.767 1091.57 406.729H1077.57C1076.78 406.729 1076.1 405.745 1076.13 405.06C1076.13 405.022 1076.13 404.983 1076.13 404.935V404.858C1076.13 404.781 1076.13 404.694 1076.13 404.598V404.501C1076.13 404.328 1076.13 404.135 1076.11 403.923V403.894V403.884C1076.11 403.759 1076.11 403.614 1076.1 403.479V403.46V403.373V403.334V403.248V403.199V403.151V403.103V403.055V403.026V403.006V402.958V402.91V402.871V402.823C1076.01 400.413 1075.83 397.067 1075.94 397.067H1075.97C1072.72 354.455 1070.18 312.114 1067.06 269.551H1064.32C1062.59 312.452 1060.51 354.098 1057.88 396.999H1057.9C1057.7 399.612 1059.04 401.502 1061.03 402.833C1061.21 402.958 1061.4 403.074 1061.6 403.19C1061.65 403.219 1061.7 403.257 1061.76 403.286H1061.77C1061.82 403.325 1061.87 403.354 1061.92 403.383L1061.95 403.402C1062 403.431 1062.06 403.46 1062.11 403.479H1062.13C1062.24 403.546 1062.36 403.604 1062.47 403.662C1062.5 403.681 1062.53 403.691 1062.56 403.701C1062.61 403.72 1062.65 403.749 1062.7 403.768L1062.74 403.788C1062.74 403.788 1062.83 403.826 1062.88 403.845L1062.93 403.874C1062.93 403.874 1063.02 403.913 1063.06 403.932L1063.14 403.961C1063.14 403.961 1063.21 404 1063.26 404.009L1063.34 404.038C1063.34 404.038 1063.42 404.067 1063.46 404.086L1063.55 404.125C1063.55 404.125 1063.63 404.154 1063.66 404.164C1063.69 404.183 1063.73 404.193 1063.77 404.202L1063.85 404.231C1063.85 404.231 1063.93 404.26 1063.96 404.279L1064.05 404.308C1064.05 404.308 1064.14 404.337 1064.18 404.356L1064.25 404.385C1064.25 404.385 1064.35 404.414 1064.39 404.434L1064.45 404.453C1064.5 404.472 1064.56 404.491 1064.61 404.501L1064.67 404.52C1064.71 404.54 1064.76 404.549 1064.82 404.569L1064.88 404.588C1064.93 404.607 1064.98 404.617 1065.03 404.636H1065.08C1065.13 404.665 1065.19 404.684 1065.23 404.694H1065.28C1065.34 404.723 1065.39 404.742 1065.45 404.752H1065.48C1065.55 404.781 1065.61 404.8 1065.68 404.81H1065.69C1065.74 404.829 1065.81 404.848 1065.87 404.858H1065.9C1065.96 404.877 1066.01 404.896 1066.08 404.906H1066.11C1066.17 404.925 1066.23 404.945 1066.28 404.954H1066.32C1066.38 404.974 1066.45 404.993 1066.51 405.003H1066.52C1066.59 405.022 1066.65 405.031 1066.72 405.051H1066.74C1066.8 405.07 1066.87 405.08 1066.94 405.099C1070.17 405.745 1070.09 406.777 1067.73 406.738H1054.15C1053.39 406.738 1052.74 405.755 1052.76 405.07C1052.76 405.051 1052.76 405.041 1052.76 405.022V404.964V404.925V404.887V404.829V404.8V404.771V404.713V404.694V404.655V404.626V404.598V404.559V404.53V404.501V404.472V404.405V404.385V404.366V404.328V404.289V404.26V404.221V404.183V404.144V404.115V404.077V404.038V404.019V404V403.961V403.923V403.894V403.845V403.807V403.797V403.72V403.681V403.643V403.624V403.595V403.546V403.498V403.469V403.45V403.402V403.354V403.315V403.267V403.219V403.17V403.122V403.074V403.026V402.997V402.978V402.929V402.881V402.843V402.794C1052.65 400.384 1052.49 397.038 1052.59 397.038H1052.61C1048.55 343.781 1042.2 285.992 1042.2 234.172V228.222H1087.9L1087.85 228.27Z" fill="#A3A4A5"/>
<path fill-rule="evenodd" clip-rule="evenodd" d="M1083.54 401.975C1083.88 402.283 1084.26 402.563 1084.66 402.833C1085.12 403.132 1085.62 403.411 1086.15 403.652C1086.18 403.672 1086.21 403.681 1086.25 403.691C1086.31 403.72 1086.38 403.749 1086.43 403.778C1086.49 403.807 1086.55 403.826 1086.6 403.855H1086.63C1086.67 403.894 1086.73 403.913 1086.78 403.932L1086.83 403.951C1086.88 403.971 1086.92 403.99 1086.98 404.009L1087.04 404.028C1087.04 404.028 1087.14 404.067 1087.18 404.086L1087.27 404.115C1087.27 404.115 1087.35 404.144 1087.38 404.154C1087.41 404.163 1087.45 404.183 1087.49 404.192L1087.58 404.221C1087.58 404.221 1087.66 404.25 1087.69 404.26C1087.73 404.27 1087.77 404.289 1087.81 404.298L1087.92 404.337C1087.92 404.337 1087.98 404.356 1088.02 404.376L1088.14 404.414L1088.23 404.443C1088.28 404.462 1088.33 404.472 1088.39 404.491L1088.44 404.511C1088.48 404.53 1088.54 404.54 1088.59 404.559L1088.65 404.578C1088.7 404.597 1088.75 404.607 1088.81 404.626H1088.86C1088.92 404.655 1088.96 404.675 1089.02 404.684H1089.07C1089.13 404.713 1089.19 404.732 1089.24 404.742H1089.27C1089.34 404.771 1089.41 404.781 1089.47 404.8H1089.47C1089.54 404.819 1089.6 404.838 1089.67 404.848H1089.7C1089.76 404.867 1089.82 404.887 1089.89 404.896H1089.91C1089.98 404.916 1090.03 404.935 1090.1 404.945H1090.13C1090.2 404.964 1090.25 404.983 1090.32 404.993H1090.34C1090.41 405.012 1090.48 405.022 1090.53 405.041H1090.55C1090.62 405.06 1090.7 405.07 1090.76 405.089C1094.1 405.735 1094.01 406.767 1091.57 406.728H1077.57C1076.78 406.728 1076.1 405.745 1076.13 405.06C1076.13 405.022 1076.13 404.983 1076.13 404.935V404.858C1076.13 404.781 1076.13 404.694 1076.13 404.597V404.501C1076.13 404.327 1076.13 404.135 1076.11 403.922V403.894V403.884C1076.11 403.759 1076.11 403.614 1076.1 403.479V403.46V403.373V403.334V403.247V403.199V403.151V403.103V403.055V403.026V403.006V402.958V402.91V402.871V402.823C1076.09 402.544 1076.07 402.264 1076.06 401.965H1083.54L1083.54 401.975ZM1059.92 401.975C1060.26 402.283 1060.62 402.572 1061.02 402.833C1061.2 402.958 1061.39 403.074 1061.59 403.19C1061.64 403.219 1061.69 403.257 1061.75 403.286H1061.76C1061.81 403.325 1061.87 403.354 1061.91 403.382L1061.94 403.402C1061.99 403.431 1062.05 403.46 1062.1 403.479H1062.12C1062.23 403.546 1062.35 403.604 1062.46 403.662C1062.49 403.681 1062.52 403.691 1062.55 403.701C1062.6 403.72 1062.65 403.749 1062.69 403.768L1062.73 403.787C1062.73 403.787 1062.82 403.826 1062.87 403.845L1062.92 403.874C1062.92 403.874 1063.01 403.913 1063.05 403.932L1063.13 403.961C1063.13 403.961 1063.2 404 1063.25 404.009L1063.33 404.038C1063.33 404.038 1063.41 404.067 1063.45 404.086L1063.54 404.125C1063.54 404.125 1063.62 404.154 1063.65 404.164C1063.68 404.183 1063.72 404.192 1063.76 404.202L1063.84 404.231C1063.84 404.231 1063.92 404.26 1063.95 404.279L1064.04 404.308C1064.04 404.308 1064.13 404.337 1064.17 404.356L1064.24 404.385C1064.24 404.385 1064.34 404.414 1064.38 404.434L1064.45 404.453C1064.49 404.472 1064.55 404.491 1064.6 404.501L1064.66 404.52C1064.71 404.54 1064.75 404.549 1064.81 404.568L1064.87 404.588C1064.92 404.607 1064.97 404.617 1065.02 404.636H1065.07C1065.12 404.665 1065.18 404.684 1065.23 404.694H1065.27C1065.33 404.723 1065.38 404.742 1065.44 404.752H1065.48C1065.54 404.781 1065.6 404.8 1065.67 404.81H1065.68C1065.74 404.829 1065.8 404.848 1065.86 404.858H1065.89C1065.95 404.877 1066 404.896 1066.07 404.906H1066.1C1066.16 404.925 1066.22 404.945 1066.27 404.954H1066.31C1066.37 404.973 1066.44 404.993 1066.5 405.002H1066.52C1066.58 405.022 1066.64 405.031 1066.71 405.051H1066.73C1066.79 405.07 1066.86 405.08 1066.93 405.099C1070.16 405.745 1070.08 406.777 1067.72 406.738H1054.14C1053.38 406.738 1052.73 405.755 1052.75 405.07C1052.75 405.051 1052.75 405.041 1052.75 405.022V404.964V404.925V404.887V404.829V404.8V404.771V404.713V404.694V404.655V404.626V404.597V404.559V404.53V404.501V404.472V404.405V404.385V404.366V404.327V404.289V404.26V404.221V404.183V404.144V404.115V404.077V404.038V404.019V404V403.961V403.922V403.894V403.845V403.807V403.797V403.72V403.681V403.643V403.624V403.595V403.546V403.498V403.469V403.45V403.402V403.354V403.315V403.267V403.219V403.17V403.122V403.074V403.026V402.997V402.977V402.929V402.881V402.842V402.794C1052.74 402.515 1052.72 402.235 1052.71 401.936H1059.96L1059.92 401.975Z" fill="#1F1F1F"/>
<path fill-rule="evenodd" clip-rule="evenodd" d="M1083.54 401.975C1083.88 402.283 1084.26 402.563 1084.66 402.833C1085.12 403.132 1085.62 403.411 1086.15 403.652C1086.18 403.672 1086.21 403.681 1086.25 403.691C1086.31 403.72 1086.38 403.749 1086.43 403.778C1086.49 403.807 1086.55 403.826 1086.6 403.855H1086.63C1086.67 403.894 1086.73 403.913 1086.78 403.932L1086.83 403.951C1086.88 403.971 1086.92 403.99 1086.98 404.009L1087.04 404.028C1087.04 404.028 1087.14 404.067 1087.18 404.086L1087.27 404.115C1087.27 404.115 1087.35 404.144 1087.38 404.154C1087.41 404.163 1087.45 404.183 1087.49 404.192L1087.58 404.221C1087.58 404.221 1087.66 404.25 1087.69 404.26C1087.73 404.27 1087.77 404.289 1087.81 404.298L1087.92 404.337C1087.92 404.337 1087.98 404.356 1088.02 404.376L1088.14 404.414L1088.23 404.443C1088.28 404.462 1088.33 404.472 1088.39 404.491L1088.44 404.511C1088.48 404.53 1088.54 404.54 1088.59 404.559L1088.65 404.578C1088.7 404.597 1088.75 404.607 1088.81 404.626H1088.86C1088.92 404.655 1088.96 404.675 1089.02 404.684H1089.07C1089.13 404.713 1089.19 404.732 1089.24 404.742H1089.27C1089.34 404.771 1089.41 404.781 1089.47 404.8H1089.47C1089.54 404.819 1089.6 404.838 1089.67 404.848H1089.7C1089.76 404.867 1089.82 404.887 1089.89 404.896H1089.91C1089.98 404.916 1090.03 404.935 1090.1 404.945H1090.13C1090.2 404.964 1090.25 404.983 1090.32 404.993H1090.34C1090.41 405.012 1090.48 405.022 1090.53 405.041H1090.55C1090.62 405.06 1090.7 405.07 1090.76 405.089C1094.1 405.735 1094.01 406.767 1091.57 406.728H1077.57C1076.78 406.728 1076.1 405.745 1076.13 405.06C1076.13 405.022 1076.13 404.983 1076.13 404.935V404.858C1076.13 404.781 1076.13 404.694 1076.13 404.597V404.501C1076.13 404.327 1076.13 404.135 1076.11 403.922V403.894V403.884C1076.11 403.759 1076.11 403.614 1076.1 403.479V403.46V403.373V403.334V403.247V403.199V403.151V403.103V403.055V403.026V403.006V402.958V402.91V402.871V402.823C1076.09 402.544 1076.07 402.264 1076.06 401.965H1083.54L1083.54 401.975ZM1059.92 401.975C1060.26 402.283 1060.62 402.572 1061.02 402.833C1061.2 402.958 1061.39 403.074 1061.59 403.19C1061.64 403.219 1061.69 403.257 1061.75 403.286H1061.76C1061.81 403.325 1061.87 403.354 1061.91 403.382L1061.94 403.402C1061.99 403.431 1062.05 403.46 1062.1 403.479H1062.12C1062.23 403.546 1062.35 403.604 1062.46 403.662C1062.49 403.681 1062.52 403.691 1062.55 403.701C1062.6 403.72 1062.65 403.749 1062.69 403.768L1062.73 403.787C1062.73 403.787 1062.82 403.826 1062.87 403.845L1062.92 403.874C1062.92 403.874 1063.01 403.913 1063.05 403.932L1063.13 403.961C1063.13 403.961 1063.2 404 1063.25 404.009L1063.33 404.038C1063.33 404.038 1063.41 404.067 1063.45 404.086L1063.54 404.125C1063.54 404.125 1063.62 404.154 1063.65 404.164C1063.68 404.183 1063.72 404.192 1063.76 404.202L1063.84 404.231C1063.84 404.231 1063.92 404.26 1063.95 404.279L1064.04 404.308C1064.04 404.308 1064.13 404.337 1064.17 404.356L1064.24 404.385C1064.24 404.385 1064.34 404.414 1064.38 404.434L1064.45 404.453C1064.49 404.472 1064.55 404.491 1064.6 404.501L1064.66 404.52C1064.71 404.54 1064.75 404.549 1064.81 404.568L1064.87 404.588C1064.92 404.607 1064.97 404.617 1065.02 404.636H1065.07C1065.12 404.665 1065.18 404.684 1065.23 404.694H1065.27C1065.33 404.723 1065.38 404.742 1065.44 404.752H1065.48C1065.54 404.781 1065.6 404.8 1065.67 404.81H1065.68C1065.74 404.829 1065.8 404.848 1065.86 404.858H1065.89C1065.95 404.877 1066 404.896 1066.07 404.906H1066.1C1066.16 404.925 1066.22 404.945 1066.27 404.954H1066.31C1066.37 404.973 1066.44 404.993 1066.5 405.002H1066.52C1066.58 405.022 1066.64 405.031 1066.71 405.051H1066.73C1066.79 405.07 1066.86 405.08 1066.93 405.099C1070.16 405.745 1070.08 406.777 1067.72 406.738H1054.14C1053.38 406.738 1052.73 405.755 1052.75 405.07C1052.75 405.051 1052.75 405.041 1052.75 405.022V404.964V404.925V404.887V404.829V404.8V404.771V404.713V404.694V404.655V404.626V404.597V404.559V404.53V404.501V404.472V404.405V404.385V404.366V404.327V404.289V404.26V404.221V404.183V404.144V404.115V404.077V404.038V404.019V404V403.961V403.922V403.894V403.845V403.807V403.797V403.72V403.681V403.643V403.624V403.595V403.546V403.498V403.469V403.45V403.402V403.354V403.315V403.267V403.219V403.17V403.122V403.074V403.026V402.997V402.977V402.929V402.881V402.842V402.794C1052.74 402.515 1052.72 402.235 1052.71 401.936H1059.96L1059.92 401.975Z" fill="#1F1F1F"/>
<path fill-rule="evenodd" clip-rule="evenodd" d="M1063.57 158.38H1063.54V160.385C1063.3 162.217 1062.28 163.886 1060.26 164.136V158.38H1060.25C1060.25 154.735 1062.75 151.774 1065.84 151.774C1066.82 151.774 1067.79 152.112 1068.64 152.69C1068.31 153.905 1067.5 156.152 1065.79 156.152C1064.56 156.152 1063.69 157.107 1063.58 158.37L1063.57 158.38Z" fill="#001E60"/>
<path fill-rule="evenodd" clip-rule="evenodd" d="M1063.57 158.38H1063.54V160.385C1063.3 162.217 1062.28 163.886 1060.26 164.136V158.38H1060.25C1060.25 154.735 1062.75 151.774 1065.84 151.774C1066.82 151.774 1067.79 152.112 1068.64 152.69C1068.31 153.905 1067.5 156.152 1065.79 156.152C1064.56 156.152 1063.69 157.107 1063.58 158.37L1063.57 158.38Z" fill="#001E60"/>
<path fill-rule="evenodd" clip-rule="evenodd" d="M1055.82 180.471H1075.83C1073.59 184 1069.94 186.295 1065.82 186.295C1061.7 186.295 1058.05 184 1055.81 180.471H1055.82Z" fill="#FFFFCC"/>
<path fill-rule="evenodd" clip-rule="evenodd" d="M1055.82 180.471H1075.83C1073.59 184 1069.94 186.295 1065.82 186.295C1061.7 186.295 1058.05 184 1055.81 180.471H1055.82Z" fill="#F7F7EF"/>
<path fill-rule="evenodd" clip-rule="evenodd" d="M1068.06 163.751L1069.93 155.111L1073.29 163.548L1068.06 163.751Z" fill="#E75E30"/>
<path fill-rule="evenodd" clip-rule="evenodd" d="M1068.06 163.751L1069.93 155.111L1073.29 163.548L1068.06 163.751Z" fill="#F9C9B3"/>
<path fill-rule="evenodd" clip-rule="evenodd" d="M1036.11 247.884L1059.44 277.198C1059.54 277.313 1059.62 277.439 1059.71 277.554L1054.19 282.038L1028.46 258.172C1024.19 254.209 1023.87 249.947 1025.96 247.353C1028.12 244.653 1032.85 243.776 1036.11 247.884Z" fill="#FFFFCC"/>
<path fill-rule="evenodd" clip-rule="evenodd" d="M1036.11 247.884L1059.44 277.198C1059.54 277.313 1059.62 277.439 1059.71 277.554L1054.19 282.038L1028.46 258.172C1024.19 254.209 1023.87 249.947 1025.96 247.353C1028.12 244.653 1032.85 243.776 1036.11 247.884Z" fill="#F7F7EF"/>
<path fill-rule="evenodd" clip-rule="evenodd" d="M1059.44 277.207C1059.54 277.323 1059.62 277.448 1059.71 277.564L1073.2 286.589L1071.87 288.904L1056.97 284.371C1056.21 284.005 1055.17 282.944 1054.19 282.038L1059.44 277.197V277.207Z" fill="#E75E30"/>
<path fill-rule="evenodd" clip-rule="evenodd" d="M1059.44 277.207C1059.54 277.323 1059.62 277.448 1059.71 277.564L1073.2 286.589L1071.87 288.904L1056.97 284.371C1056.21 284.005 1055.17 282.944 1054.19 282.038L1059.44 277.197V277.207Z" fill="#F9C9B3"/>
<path fill-rule="evenodd" clip-rule="evenodd" d="M1107.79 205.108V257.006H1140.01L1141.77 255.993L1154.96 248.366L1156.71 247.353V195.456L1154.96 196.469L1141.77 204.096L1140.01 205.108H1107.79Z" fill="#001E60"/>
<path fill-rule="evenodd" clip-rule="evenodd" d="M1154.54 198.59V244.615L1143.11 251.23V205.205L1154.54 198.59Z" fill="#FFFFCC"/>
<path d="M1128.64 208.185H1125.86V211.02H1128.64V208.185Z" fill="#4F9475"/>
<path d="M1128.64 211.723H1125.86V214.558H1128.64V211.723Z" fill="#4F9475"/>
<path d="M1128.64 215.252H1125.86V218.087H1128.64V215.252Z" fill="#4F9475"/>
<path d="M1128.64 218.792H1125.86V221.626H1128.64V218.792Z" fill="#4F9475"/>
<path d="M1128.64 222.321H1125.86V225.156H1128.64V222.321Z" fill="#4F9475"/>
<path d="M1128.64 225.859H1125.86V228.694H1128.64V225.859Z" fill="#4F9475"/>
<path d="M1128.64 229.389H1125.86V232.224H1128.64V229.389Z" fill="#4F9475"/>
<path d="M1128.64 232.928H1125.86V235.763H1128.64V232.928Z" fill="#4F9475"/>
<path d="M1128.64 236.467H1125.86V239.302H1128.64V236.467Z" fill="#4F9475"/>
<path d="M1128.64 239.996H1125.86V242.831H1128.64V239.996Z" fill="#4F9475"/>
<path d="M1128.64 243.535H1125.86V246.37H1128.64V243.535Z" fill="#4F9475"/>
<path d="M1128.64 247.064H1125.86V249.899H1128.64V247.064Z" fill="#4F9475"/>
<path d="M1128.64 250.603H1125.86V253.438H1128.64V250.603Z" fill="#4F9475"/>
<path d="M1125.15 208.185H1122.38V211.02H1125.15V208.185Z" fill="#4F9475"/>
<path d="M1125.15 211.723H1122.38V214.558H1125.15V211.723Z" fill="#4F9475"/>
<path d="M1125.15 215.252H1122.38V218.087H1125.15V215.252Z" fill="#4F9475"/>
<path d="M1125.15 218.792H1122.38V221.626H1125.15V218.792Z" fill="#4F9475"/>
<path d="M1125.15 222.321H1122.38V225.156H1125.15V222.321Z" fill="#4F9475"/>
<path d="M1125.15 225.859H1122.38V228.694H1125.15V225.859Z" fill="#4F9475"/>
<path d="M1125.15 229.389H1122.38V232.224H1125.15V229.389Z" fill="#4F9475"/>
<path d="M1125.15 232.928H1122.38V235.763H1125.15V232.928Z" fill="#4F9475"/>
<path d="M1125.15 236.467H1122.38V239.302H1125.15V236.467Z" fill="#4F9475"/>
<path d="M1125.15 239.996H1122.38V242.831H1125.15V239.996Z" fill="#4F9475"/>
<path d="M1125.15 243.535H1122.38V246.37H1125.15V243.535Z" fill="#4F9475"/>
<path d="M1125.15 247.064H1122.38V249.899H1125.15V247.064Z" fill="#4F9475"/>
<path d="M1125.15 250.603H1122.38V253.438H1125.15V250.603Z" fill="#4F9475"/>
<path d="M1121.79 208.185H1119.02V211.02H1121.79V208.185Z" fill="#4F9475"/>
<path d="M1121.79 211.723H1119.02V214.558H1121.79V211.723Z" fill="#4F9475"/>
<path d="M1121.79 215.252H1119.02V218.087H1121.79V215.252Z" fill="#4F9475"/>
<path d="M1121.79 218.792H1119.02V221.626H1121.79V218.792Z" fill="#4F9475"/>
<path d="M1121.79 222.321H1119.02V225.156H1121.79V222.321Z" fill="#4F9475"/>
<path d="M1121.79 225.859H1119.02V228.694H1121.79V225.859Z" fill="#4F9475"/>
<path d="M1121.79 229.389H1119.02V232.224H1121.79V229.389Z" fill="#4F9475"/>
<path d="M1121.79 232.928H1119.02V235.763H1121.79V232.928Z" fill="#4F9475"/>
<path d="M1121.79 236.467H1119.02V239.302H1121.79V236.467Z" fill="#4F9475"/>
<path d="M1121.79 239.996H1119.02V242.831H1121.79V239.996Z" fill="#4F9475"/>
<path d="M1121.79 243.535H1119.02V246.37H1121.79V243.535Z" fill="#4F9475"/>
<path d="M1121.79 247.064H1119.02V249.899H1121.79V247.064Z" fill="#4F9475"/>
<path d="M1121.79 250.603H1119.02V253.438H1121.79V250.603Z" fill="#4F9475"/>
<path fill-rule="evenodd" clip-rule="evenodd" d="M1107.79 205.108V257.006H1140.01L1141.77 255.993L1154.96 248.366L1156.71 247.353V195.456L1154.96 196.469L1141.77 204.096L1140.01 205.108H1107.79Z" fill="#001E60"/>
<path fill-rule="evenodd" clip-rule="evenodd" d="M1154.54 198.59V244.615L1143.11 251.23V205.205L1154.54 198.59Z" fill="#F7F7EF"/>
<path d="M1128.64 208.185H1125.86V211.02H1128.64V208.185Z" fill="#F7F7EF"/>
<path d="M1128.64 211.723H1125.86V214.558H1128.64V211.723Z" fill="#F7F7EF"/>
<path d="M1128.64 215.252H1125.86V218.087H1128.64V215.252Z" fill="#F7F7EF"/>
<path d="M1128.64 218.792H1125.86V221.626H1128.64V218.792Z" fill="#F7F7EF"/>
<path d="M1128.64 222.321H1125.86V225.156H1128.64V222.321Z" fill="#F7F7EF"/>
<path d="M1128.64 225.859H1125.86V228.694H1128.64V225.859Z" fill="#F7F7EF"/>
<path d="M1128.64 229.389H1125.86V232.224H1128.64V229.389Z" fill="#F7F7EF"/>
<path d="M1128.64 232.928H1125.86V235.763H1128.64V232.928Z" fill="#F7F7EF"/>
<path d="M1128.64 236.467H1125.86V239.302H1128.64V236.467Z" fill="#F7F7EF"/>
<path d="M1128.64 239.996H1125.86V242.831H1128.64V239.996Z" fill="#F7F7EF"/>
<path d="M1128.64 243.535H1125.86V246.37H1128.64V243.535Z" fill="#F7F7EF"/>
<path d="M1128.64 247.064H1125.86V249.899H1128.64V247.064Z" fill="#F7F7EF"/>
<path d="M1128.64 250.603H1125.86V253.438H1128.64V250.603Z" fill="#F7F7EF"/>
<path d="M1125.15 208.185H1122.38V211.02H1125.15V208.185Z" fill="#F7F7EF"/>
<path d="M1125.15 211.723H1122.38V214.558H1125.15V211.723Z" fill="#F7F7EF"/>
<path d="M1125.15 215.252H1122.38V218.087H1125.15V215.252Z" fill="#F7F7EF"/>
<path d="M1125.15 218.792H1122.38V221.626H1125.15V218.792Z" fill="#F7F7EF"/>
<path d="M1125.15 222.321H1122.38V225.156H1125.15V222.321Z" fill="#F7F7EF"/>
<path d="M1125.15 225.859H1122.38V228.694H1125.15V225.859Z" fill="#F7F7EF"/>
<path d="M1125.15 229.389H1122.38V232.224H1125.15V229.389Z" fill="#F7F7EF"/>
<path d="M1125.15 232.928H1122.38V235.763H1125.15V232.928Z" fill="#F7F7EF"/>
<path d="M1125.15 236.467H1122.38V239.302H1125.15V236.467Z" fill="#F7F7EF"/>
<path d="M1125.15 239.996H1122.38V242.831H1125.15V239.996Z" fill="#F7F7EF"/>
<path d="M1125.15 243.535H1122.38V246.37H1125.15V243.535Z" fill="#F7F7EF"/>
<path d="M1125.15 247.064H1122.38V249.899H1125.15V247.064Z" fill="#F7F7EF"/>
<path d="M1125.15 250.603H1122.38V253.438H1125.15V250.603Z" fill="#F7F7EF"/>
<path d="M1121.79 208.185H1119.02V211.02H1121.79V208.185Z" fill="#F7F7EF"/>
<path d="M1121.79 211.723H1119.02V214.558H1121.79V211.723Z" fill="#F7F7EF"/>
<path d="M1121.79 215.252H1119.02V218.087H1121.79V215.252Z" fill="#F7F7EF"/>
<path d="M1121.79 218.792H1119.02V221.626H1121.79V218.792Z" fill="#F7F7EF"/>
<path d="M1121.79 222.321H1119.02V225.156H1121.79V222.321Z" fill="#F7F7EF"/>
<path d="M1121.79 225.859H1119.02V228.694H1121.79V225.859Z" fill="#F7F7EF"/>
<path d="M1121.79 229.389H1119.02V232.224H1121.79V229.389Z" fill="#F7F7EF"/>
<path d="M1121.79 232.928H1119.02V235.763H1121.79V232.928Z" fill="#F7F7EF"/>
<path d="M1121.79 236.467H1119.02V239.302H1121.79V236.467Z" fill="#F7F7EF"/>
<path d="M1121.79 239.996H1119.02V242.831H1121.79V239.996Z" fill="#F7F7EF"/>
<path d="M1121.79 243.535H1119.02V246.37H1121.79V243.535Z" fill="#F7F7EF"/>
<path d="M1121.79 247.064H1119.02V249.899H1121.79V247.064Z" fill="#F7F7EF"/>
<path d="M1121.79 250.603H1119.02V253.438H1121.79V250.603Z" fill="#F7F7EF"/>
<path fill-rule="evenodd" clip-rule="evenodd" d="M1229.75 261.48L1227.28 328.863C1227.12 333.357 1224.28 335.681 1221.54 335.7C1218.61 335.729 1215.8 333.145 1215.51 328.535L1211.34 261.47C1210.85 253.505 1215.75 249.33 1220.65 249.687C1224.92 249.995 1230.03 253.766 1229.75 261.47V261.48Z" fill="#E75E30"/>
<path fill-rule="evenodd" clip-rule="evenodd" d="M1229.75 261.48L1227.28 328.863C1227.12 333.357 1224.28 335.681 1221.54 335.7C1218.61 335.729 1215.8 333.145 1215.51 328.535L1211.34 261.47C1210.85 253.505 1215.75 249.33 1220.65 249.687C1224.92 249.995 1230.03 253.766 1229.75 261.47V261.48Z" fill="#F9C9B3"/>
<path fill-rule="evenodd" clip-rule="evenodd" d="M1227.39 330.686L1223.87 402.148C1223.77 404.298 1223.11 405.398 1222.37 405.533C1221.4 405.716 1220.28 404.221 1220.1 401.261L1215.62 330.695C1215.21 324.158 1218.3 320.706 1221.73 320.995C1224.72 321.246 1227.69 324.36 1227.39 330.695V330.686Z" fill="#E75E30"/>
<path fill-rule="evenodd" clip-rule="evenodd" d="M1219.82 397.182C1220.2 401.946 1216.22 404.27 1212.64 405.147C1210.05 405.783 1210.13 406.796 1212.02 406.757H1222.94C1223.56 406.757 1224.07 405.793 1224.04 405.118C1223.99 404 1224.24 397.259 1224.11 397.259L1219.81 397.192L1219.82 397.182Z" fill="#001E60"/>
<path fill-rule="evenodd" clip-rule="evenodd" d="M1227.39 330.686L1223.87 402.148C1223.77 404.298 1223.11 405.398 1222.37 405.533C1221.4 405.716 1220.28 404.221 1220.1 401.261L1215.62 330.695C1215.21 324.158 1218.3 320.706 1221.73 320.995C1224.72 321.246 1227.69 324.36 1227.39 330.695V330.686Z" fill="#F9C9B3"/>
<path fill-rule="evenodd" clip-rule="evenodd" d="M1219.82 397.182C1220.2 401.946 1216.22 404.27 1212.64 405.147C1210.05 405.783 1210.13 406.796 1212.02 406.757H1222.94C1223.56 406.757 1224.07 405.793 1224.04 405.118C1223.99 404 1224.24 397.259 1224.11 397.259L1219.81 397.192L1219.82 397.182Z" fill="#001E60"/>
<path fill-rule="evenodd" clip-rule="evenodd" d="M1219.25 234.866C1219.14 235.319 1218.99 235.762 1218.84 236.206C1216.65 242.32 1209.92 242.107 1211.45 258.529C1211.8 262.232 1213.35 263.534 1216.99 263.534H1244.71C1248.36 263.534 1250.62 262.232 1250.96 258.529C1252.49 242.107 1245.76 242.32 1243.58 236.206C1243.42 235.762 1243.28 235.319 1243.17 234.866H1219.24H1219.25Z" fill="#FE6A6A"/>
<path fill-rule="evenodd" clip-rule="evenodd" d="M1219.25 234.866C1219.14 235.319 1218.99 235.762 1218.84 236.206C1216.65 242.32 1209.92 242.107 1211.45 258.529C1211.8 262.232 1213.35 263.534 1216.99 263.534H1244.71C1248.36 263.534 1250.62 262.232 1250.96 258.529C1252.49 242.107 1245.76 242.32 1243.58 236.206C1243.42 235.762 1243.28 235.319 1243.17 234.866H1219.24H1219.25Z" fill="#FE6A6A"/>
<path fill-rule="evenodd" clip-rule="evenodd" d="M1238.86 186.643L1231.26 186.556C1229.03 186.826 1227.79 184.483 1227.77 180.896L1227.7 168.813C1227.67 160.501 1230.5 159.074 1232.77 159.874C1234.82 160.598 1236.34 162.893 1236.35 167.762L1236.38 179.816C1236.38 183.297 1237.63 186.392 1238.85 186.643H1238.86Z" fill="#001E60"/>
<path fill-rule="evenodd" clip-rule="evenodd" d="M1238.86 186.643L1231.26 186.556C1229.03 186.826 1227.79 184.483 1227.77 180.896L1227.7 168.813C1227.67 160.501 1230.5 159.074 1232.77 159.874C1234.82 160.598 1236.34 162.893 1236.35 167.762L1236.38 179.816C1236.38 183.297 1237.63 186.392 1238.85 186.643H1238.86Z" fill="#001E60"/>
<path fill-rule="evenodd" clip-rule="evenodd" d="M1230.09 161.687C1228.71 161.687 1227.57 162.825 1227.57 164.213V187.935H1232.62V164.213C1232.62 162.825 1231.49 161.687 1230.1 161.687H1230.09Z" fill="#E75E30"/>
<path fill-rule="evenodd" clip-rule="evenodd" d="M1230.09 161.687C1228.71 161.687 1227.57 162.825 1227.57 164.213V187.935H1232.62V164.213C1232.62 162.825 1231.49 161.687 1230.1 161.687H1230.09Z" fill="#F9C9B3"/>
<path d="M1257.41 188.523H1257.32C1255.16 188.523 1253.41 190.276 1253.41 192.438V243.949C1253.41 246.112 1255.16 247.864 1257.32 247.864H1257.41C1259.57 247.864 1261.32 246.112 1261.32 243.949V192.438C1261.32 190.276 1259.57 188.523 1257.41 188.523Z" fill="#E75E30"/>
<path d="M1257.41 188.523H1257.32C1255.16 188.523 1253.41 190.276 1253.41 192.438V243.949C1253.41 246.112 1255.16 247.864 1257.32 247.864H1257.41C1259.57 247.864 1261.32 246.112 1261.32 243.949V192.438C1261.32 190.276 1259.57 188.523 1257.41 188.523Z" fill="#F9C9B3"/>
<path d="M1255.89 186.382H1207.4C1204.44 186.382 1202.03 188.791 1202.03 191.763V194.723C1202.03 197.695 1204.44 200.104 1207.4 200.104H1255.89C1258.86 200.104 1261.26 197.695 1261.26 194.723V191.763C1261.26 188.791 1258.86 186.382 1255.89 186.382Z" fill="#E75E30"/>
<path d="M1255.89 186.382H1207.4C1204.44 186.382 1202.03 188.791 1202.03 191.763V194.723C1202.03 197.695 1204.44 200.104 1207.4 200.104H1255.89C1258.86 200.104 1261.26 197.695 1261.26 194.723V191.763C1261.26 188.791 1258.86 186.382 1255.89 186.382Z" fill="#F9C9B3"/>
<path fill-rule="evenodd" clip-rule="evenodd" d="M1232.48 261.48L1234.94 328.863C1235.11 333.357 1237.95 335.681 1240.68 335.7C1243.62 335.729 1246.43 333.145 1246.72 328.535L1250.89 261.47C1251.38 253.505 1246.48 249.33 1241.58 249.687C1237.3 249.995 1232.19 253.766 1232.48 261.47V261.48Z" fill="#E75E30"/>
<path fill-rule="evenodd" clip-rule="evenodd" d="M1232.48 261.48L1234.94 328.863C1235.11 333.357 1237.95 335.681 1240.68 335.7C1243.62 335.729 1246.43 333.145 1246.72 328.535L1250.89 261.47C1251.38 253.505 1246.48 249.33 1241.58 249.687C1237.3 249.995 1232.19 253.766 1232.48 261.47V261.48Z" fill="#F9C9B3"/>
<path fill-rule="evenodd" clip-rule="evenodd" d="M1234.84 330.686L1238.35 402.148C1238.46 404.298 1239.11 405.398 1239.85 405.533C1240.83 405.716 1241.94 404.221 1242.13 401.261L1246.6 330.695C1247.02 324.158 1243.93 320.706 1240.5 320.995C1237.5 321.246 1234.53 324.36 1234.84 330.695V330.686Z" fill="#E75E30"/>
<path fill-rule="evenodd" clip-rule="evenodd" d="M1242.39 397.182C1242.02 401.946 1246 404.27 1249.58 405.147C1252.17 405.783 1252.09 406.796 1250.19 406.757H1239.28C1238.66 406.757 1238.15 405.793 1238.18 405.118C1238.23 404 1237.98 397.259 1238.1 397.259L1242.4 397.192L1242.39 397.182Z" fill="#001E60" stroke="#A1CAB7" stroke-width="0.05" stroke-miterlimit="22.93"/>
<path fill-rule="evenodd" clip-rule="evenodd" d="M1234.84 330.686L1238.35 402.148C1238.46 404.298 1239.11 405.398 1239.85 405.533C1240.83 405.716 1241.94 404.221 1242.13 401.261L1246.6 330.695C1247.02 324.158 1243.93 320.706 1240.5 320.995C1237.5 321.246 1234.53 324.36 1234.84 330.695V330.686Z" fill="#F9C9B3"/>
<path fill-rule="evenodd" clip-rule="evenodd" d="M1242.39 397.182C1242.02 401.946 1246 404.27 1249.58 405.147C1252.17 405.783 1252.09 406.796 1250.19 406.757H1239.28C1238.66 406.757 1238.15 405.793 1238.18 405.118C1238.23 404 1237.98 397.259 1238.1 397.259L1242.4 397.192L1242.39 397.182Z" fill="#001E60" stroke="#A1CAB7" stroke-width="0.05" stroke-miterlimit="22.93"/>
<path fill-rule="evenodd" clip-rule="evenodd" d="M1219.9 225.175C1219.77 225.657 1219.64 226.139 1219.47 226.612C1217.26 233.169 1209.33 235.444 1210.5 253.11L1215.18 323.367H1247.04L1250.97 258.442C1251.08 257.247 1251.15 256.138 1251.17 255.116L1251.28 253.38C1252.35 235.753 1244.98 233.169 1242.77 226.612C1242.64 226.226 1242.52 225.831 1242.41 225.435V214.655C1244.37 214.655 1246.3 214.423 1247.84 213.044C1250.23 210.923 1251.45 206.699 1251.23 200.721V186.324H1245.94C1245.94 192.091 1245.56 195.899 1242.4 197.095C1242.34 194.231 1240.09 191.907 1237.36 191.907H1225.04C1222.34 191.907 1220.13 194.173 1220 196.989C1217.25 195.591 1217.27 191.329 1217.04 186.43L1211.83 186.334V200.586C1211.84 204.925 1212.57 208.609 1214.48 211.231C1216.29 213.71 1217.98 214.404 1219.99 214.577V225.194H1219.89L1219.9 225.175Z" fill="#0A5244"/>
<path fill-rule="evenodd" clip-rule="evenodd" d="M1219.9 225.175C1219.77 225.657 1219.64 226.139 1219.47 226.612C1217.26 233.169 1209.33 235.444 1210.5 253.11L1215.18 323.367H1247.04L1250.97 258.442C1251.08 257.247 1251.15 256.138 1251.17 255.116L1251.28 253.38C1252.35 235.753 1244.98 233.169 1242.77 226.612C1242.64 226.226 1242.52 225.831 1242.41 225.435V214.655C1244.37 214.655 1246.3 214.423 1247.84 213.044C1250.23 210.923 1251.45 206.699 1251.23 200.721V186.324H1245.94C1245.94 192.091 1245.56 195.899 1242.4 197.095C1242.34 194.231 1240.09 191.907 1237.36 191.907H1225.04C1222.34 191.907 1220.13 194.173 1220 196.989C1217.25 195.591 1217.27 191.329 1217.04 186.43L1211.83 186.334V200.586C1211.84 204.925 1212.57 208.609 1214.48 211.231C1216.29 213.71 1217.98 214.404 1219.99 214.577V225.194H1219.89L1219.9 225.175Z" fill="#001E60"/>
<path fill-rule="evenodd" clip-rule="evenodd" d="M1215.26 186.382V212.167C1215.01 211.887 1214.75 211.569 1214.5 211.212C1214.41 211.096 1214.33 210.981 1214.26 210.865V186.363L1215.26 186.382ZM1215.26 233.362V323.376H1215.18L1214.25 309.395V234.837C1214.57 234.316 1214.91 233.834 1215.25 233.362H1215.26Z" fill="#3A6C56"/>
<path fill-rule="evenodd" clip-rule="evenodd" d="M1222.29 192.766V323.367H1221.29V193.682C1221.59 193.335 1221.93 193.026 1222.29 192.766Z" fill="#3A6C56"/>
<path d="M1229.33 191.898H1228.33V323.367H1229.33V191.898Z" fill="#3A6C56"/>
<path d="M1236.37 191.898H1235.37V323.367H1236.37V191.898Z" fill="#3A6C56"/>
<path fill-rule="evenodd" clip-rule="evenodd" d="M1243.41 196.565V214.635C1243.08 214.655 1242.74 214.664 1242.41 214.664V225.445C1242.52 225.84 1242.64 226.236 1242.77 226.621C1242.95 227.161 1243.16 227.672 1243.42 228.164V323.367H1242.41V196.893C1242.41 196.96 1242.41 197.028 1242.41 197.095C1242.78 196.951 1243.12 196.777 1243.42 196.565H1243.41Z" fill="#3A6C56"/>
<path fill-rule="evenodd" clip-rule="evenodd" d="M1250.44 186.314V208.58C1250.17 209.486 1249.84 210.306 1249.44 211.019V186.324H1250.44V186.314ZM1250.44 241.519V267.15L1249.44 283.745V238.376C1249.82 239.321 1250.16 240.362 1250.44 241.51V241.519Z" fill="#3A6C56"/>
<path fill-rule="evenodd" clip-rule="evenodd" d="M1215.26 186.382V212.167C1215.01 211.887 1214.75 211.569 1214.5 211.212C1214.41 211.096 1214.33 210.981 1214.26 210.865V186.363L1215.26 186.382ZM1215.26 233.362V323.376H1215.18L1214.25 309.395V234.837C1214.57 234.316 1214.91 233.834 1215.25 233.362H1215.26Z" fill="#758AAF"/>
<path fill-rule="evenodd" clip-rule="evenodd" d="M1222.29 192.766V323.367H1221.29V193.682C1221.59 193.335 1221.93 193.026 1222.29 192.766Z" fill="#758AAF"/>
<path d="M1229.33 191.898H1228.33V323.367H1229.33V191.898Z" fill="#758AAF"/>
<path d="M1236.37 191.898H1235.37V323.367H1236.37V191.898Z" fill="#758AAF"/>
<path fill-rule="evenodd" clip-rule="evenodd" d="M1243.41 196.565V214.635C1243.08 214.655 1242.74 214.664 1242.41 214.664V225.445C1242.52 225.84 1242.64 226.236 1242.77 226.621C1242.95 227.161 1243.16 227.672 1243.42 228.164V323.367H1242.41V196.893C1242.41 196.96 1242.41 197.028 1242.41 197.095C1242.78 196.951 1243.12 196.777 1243.42 196.565H1243.41Z" fill="#758AAF"/>
<path fill-rule="evenodd" clip-rule="evenodd" d="M1250.44 186.314V208.58C1250.17 209.486 1249.84 210.306 1249.44 211.019V186.324H1250.44V186.314ZM1250.44 241.519V267.15L1249.44 283.745V238.376C1249.82 239.321 1250.16 240.362 1250.44 241.51V241.519Z" fill="#758AAF"/>
<path d="M1237.01 209.071H1216.47V236.428H1237.01V209.071Z" fill="#FFFFCC"/>
<path d="M1237.01 209.071H1216.47V236.428H1237.01V209.071Z" fill="#F7F7EF"/>
<path fill-rule="evenodd" clip-rule="evenodd" d="M1217.05 186.421C1217.27 191.319 1217.26 195.591 1220.01 196.98C1220.83 197.394 1221.89 197.558 1223.28 197.404H1238.32C1240.05 197.597 1241.38 197.491 1242.41 197.095C1245.55 195.9 1245.93 192.12 1245.94 186.382H1215.33L1217.05 186.411V186.421Z" fill="#E75E30"/>
<path fill-rule="evenodd" clip-rule="evenodd" d="M1217.05 186.421C1217.27 191.319 1217.26 195.591 1220.01 196.98C1220.83 197.394 1221.89 197.558 1223.28 197.404H1238.32C1240.05 197.597 1241.38 197.491 1242.41 197.095C1245.55 195.9 1245.93 192.12 1245.94 186.382H1215.33L1217.05 186.411V186.421Z" fill="#F9C9B3"/>
<path fill-rule="evenodd" clip-rule="evenodd" d="M1256.84 239.523L1228.72 223.478C1225.7 221.761 1224.81 221.925 1224.4 222.764C1223.97 223.661 1224.44 224.616 1226.82 226.448L1252.47 245.907C1260.49 251.991 1265.26 244.518 1256.84 239.523Z" fill="#E75E30"/>
<path fill-rule="evenodd" clip-rule="evenodd" d="M1227.26 226.669L1225.96 221.915C1221.67 220.035 1217.63 220.199 1212.9 221.154L1213.03 222.562C1217.73 222.494 1222.65 224.432 1227.26 226.669Z" fill="#E75E30"/>
<path fill-rule="evenodd" clip-rule="evenodd" d="M1256.84 239.523L1228.72 223.478C1225.7 221.761 1224.81 221.925 1224.4 222.764C1223.97 223.661 1224.44 224.616 1226.82 226.448L1252.47 245.907C1260.49 251.991 1265.26 244.518 1256.84 239.523Z" fill="#F9C9B3"/>
<path fill-rule="evenodd" clip-rule="evenodd" d="M1227.26 226.669L1225.96 221.915C1221.67 220.035 1217.63 220.199 1212.9 221.154L1213.03 222.562C1217.73 222.494 1222.65 224.432 1227.26 226.669Z" fill="#F9C9B3"/>
<path fill-rule="evenodd" clip-rule="evenodd" d="M1229.86 169.546L1227.7 163.278L1225.67 169.546H1229.86Z" fill="#E75E30"/>
<path fill-rule="evenodd" clip-rule="evenodd" d="M1229.86 169.546L1227.7 163.278L1225.67 169.546H1229.86Z" fill="#F9C9B3"/>
<path d="M1206.32 188.523H1206.24C1204.08 188.523 1202.33 190.276 1202.33 192.438V243.949C1202.33 246.112 1204.08 247.864 1206.24 247.864H1206.32C1208.48 247.864 1210.23 246.112 1210.23 243.949V192.438C1210.23 190.276 1208.48 188.523 1206.32 188.523Z" fill="#E75E30"/>
<path d="M1206.32 188.523H1206.24C1204.08 188.523 1202.33 190.276 1202.33 192.438V243.949C1202.33 246.112 1204.08 247.864 1206.24 247.864H1206.32C1208.48 247.864 1210.23 246.112 1210.23 243.949V192.438C1210.23 190.276 1208.48 188.523 1206.32 188.523Z" fill="#F9C9B3"/>
<path fill-rule="evenodd" clip-rule="evenodd" d="M1202 245.511L1181.87 225.801C1179.72 223.69 1179.66 222.783 1180.28 222.05C1180.95 221.269 1181.87 221.308 1183.98 222.774L1206.45 238.732C1213.48 243.718 1208.19 251.316 1202 245.511Z" fill="#E75E30"/>
<path fill-rule="evenodd" clip-rule="evenodd" d="M1202 245.511L1181.87 225.801C1179.72 223.69 1179.66 222.783 1180.28 222.05C1180.95 221.269 1181.87 221.308 1183.98 222.774L1206.45 238.732C1213.48 243.718 1208.19 251.316 1202 245.511Z" fill="#F9C9B3"/>
<path fill-rule="evenodd" clip-rule="evenodd" d="M1184.26 223.102L1179.91 223.873C1177.32 220.633 1176.54 216.766 1176.27 211.926L1177.5 211.463C1178.51 215.899 1181.29 219.717 1184.26 223.111V223.102Z" fill="#E75E30"/>
<path fill-rule="evenodd" clip-rule="evenodd" d="M1184.26 223.102L1179.91 223.873C1177.32 220.633 1176.54 216.766 1176.27 211.926L1177.5 211.463C1178.51 215.899 1181.29 219.717 1184.26 223.111V223.102Z" fill="#F9C9B3"/>
<path fill-rule="evenodd" clip-rule="evenodd" d="M1181.45 221.25L1179.12 222.668C1177.3 221.78 1176.26 219.457 1175.87 217.644L1176.31 217.2C1177.48 218.849 1179.64 220.431 1181.45 221.25Z" fill="#E75E30"/>
<path fill-rule="evenodd" clip-rule="evenodd" d="M1181.45 221.25L1179.12 222.668C1177.3 221.78 1176.26 219.457 1175.87 217.644L1176.31 217.2C1177.48 218.849 1179.64 220.431 1181.45 221.25Z" fill="#F9C9B3"/>
<path d="M1228.02 162.97C1228.54 162.97 1229.02 163.192 1229.36 163.539C1229.45 163.625 1229.53 163.731 1229.6 163.838H1233.06V164.165H1229.76C1229.86 164.397 1229.91 164.648 1229.91 164.908C1229.91 165.448 1229.7 165.93 1229.35 166.277C1229 166.624 1228.53 166.846 1228.01 166.846C1227.49 166.846 1227.01 166.634 1226.67 166.277C1226.33 165.93 1226.12 165.438 1226.12 164.908C1226.12 164.378 1226.33 163.886 1226.67 163.539C1227.02 163.192 1227.49 162.97 1228.01 162.97H1228.02ZM1229.07 163.838C1228.8 163.568 1228.44 163.394 1228.02 163.394C1227.61 163.394 1227.24 163.568 1226.97 163.838C1226.7 164.108 1226.54 164.493 1226.54 164.908C1226.54 165.323 1226.7 165.708 1226.97 165.978C1227.24 166.248 1227.61 166.422 1228.02 166.422C1228.44 166.422 1228.8 166.248 1229.07 165.978C1229.34 165.708 1229.5 165.323 1229.5 164.908C1229.5 164.493 1229.34 164.108 1229.07 163.838Z" fill="#1F1F1F"/>
<path d="M1228.02 162.97C1228.54 162.97 1229.02 163.192 1229.36 163.539C1229.45 163.625 1229.53 163.731 1229.6 163.838H1233.06V164.165H1229.76C1229.86 164.397 1229.91 164.648 1229.91 164.908C1229.91 165.448 1229.7 165.93 1229.35 166.277C1229 166.624 1228.53 166.846 1228.01 166.846C1227.49 166.846 1227.01 166.634 1226.67 166.277C1226.33 165.93 1226.12 165.438 1226.12 164.908C1226.12 164.378 1226.33 163.886 1226.67 163.539C1227.02 163.192 1227.49 162.97 1228.01 162.97H1228.02ZM1229.07 163.838C1228.8 163.568 1228.44 163.394 1228.02 163.394C1227.61 163.394 1227.24 163.568 1226.97 163.838C1226.7 164.108 1226.54 164.493 1226.54 164.908C1226.54 165.323 1226.7 165.708 1226.97 165.978C1227.24 166.248 1227.61 166.422 1228.02 166.422C1228.44 166.422 1228.8 166.248 1229.07 165.978C1229.34 165.708 1229.5 165.323 1229.5 164.908C1229.5 164.493 1229.34 164.108 1229.07 163.838Z" fill="#1F1F1F"/>
<path d="M1226.32 186.99C1226.94 186.99 1227.44 186.48 1227.44 185.852C1227.44 185.223 1226.94 184.714 1226.32 184.714C1225.7 184.714 1225.2 185.223 1225.2 185.852C1225.2 186.48 1225.7 186.99 1226.32 186.99Z" fill="#FFFFCC"/>
<path fill-rule="evenodd" clip-rule="evenodd" d="M1227.66 186.527C1228.27 186.527 1228.77 187.038 1228.77 187.665C1228.77 188.291 1228.27 188.803 1227.66 188.803C1227.04 188.803 1226.54 188.291 1226.54 187.665C1226.54 187.038 1227.04 186.527 1227.66 186.527Z" fill="#FFFFCC"/>
<path fill-rule="evenodd" clip-rule="evenodd" d="M1229.48 187.857C1230.09 187.857 1230.59 188.368 1230.59 188.995C1230.59 189.622 1230.09 190.133 1229.48 190.133C1228.86 190.133 1228.36 189.622 1228.36 188.995C1228.36 188.368 1228.86 187.857 1229.48 187.857Z" fill="#FFFFCC"/>
<path fill-rule="evenodd" clip-rule="evenodd" d="M1231.57 188.639C1232.19 188.639 1232.69 189.15 1232.69 189.777C1232.69 190.403 1232.19 190.914 1231.57 190.914C1230.96 190.914 1230.46 190.403 1230.46 189.777C1230.46 189.15 1230.96 188.639 1231.57 188.639Z" fill="#FFFFCC"/>
<path d="M1239.05 186.99C1239.67 186.99 1240.17 186.48 1240.17 185.852C1240.17 185.223 1239.67 184.714 1239.05 184.714C1238.44 184.714 1237.94 185.223 1237.94 185.852C1237.94 186.48 1238.44 186.99 1239.05 186.99Z" fill="#FFFFCC"/>
<path d="M1237.71 188.803C1238.32 188.803 1238.82 188.293 1238.82 187.665C1238.82 187.036 1238.32 186.527 1237.71 186.527C1237.09 186.527 1236.59 187.036 1236.59 187.665C1236.59 188.293 1237.09 188.803 1237.71 188.803Z" fill="#FFFFCC"/>
<path fill-rule="evenodd" clip-rule="evenodd" d="M1235.9 187.857C1235.28 187.857 1234.78 188.368 1234.78 188.995C1234.78 189.622 1235.28 190.133 1235.9 190.133C1236.51 190.133 1237.01 189.622 1237.01 188.995C1237.01 188.368 1236.51 187.857 1235.9 187.857Z" fill="#FFFFCC"/>
<path fill-rule="evenodd" clip-rule="evenodd" d="M1233.8 188.639C1233.18 188.639 1232.68 189.15 1232.68 189.777C1232.68 190.403 1233.18 190.914 1233.8 190.914C1234.41 190.914 1234.92 190.403 1234.92 189.777C1234.92 189.15 1234.41 188.639 1233.8 188.639Z" fill="#FFFFCC"/>
<path d="M1226.32 186.99C1226.94 186.99 1227.44 186.48 1227.44 185.852C1227.44 185.223 1226.94 184.714 1226.32 184.714C1225.7 184.714 1225.2 185.223 1225.2 185.852C1225.2 186.48 1225.7 186.99 1226.32 186.99Z" fill="#E9B317"/>
<path fill-rule="evenodd" clip-rule="evenodd" d="M1227.66 186.527C1228.27 186.527 1228.77 187.038 1228.77 187.665C1228.77 188.291 1228.27 188.803 1227.66 188.803C1227.04 188.803 1226.54 188.291 1226.54 187.665C1226.54 187.038 1227.04 186.527 1227.66 186.527Z" fill="#E9B317"/>
<path fill-rule="evenodd" clip-rule="evenodd" d="M1229.48 187.857C1230.09 187.857 1230.59 188.368 1230.59 188.995C1230.59 189.622 1230.09 190.133 1229.48 190.133C1228.86 190.133 1228.36 189.622 1228.36 188.995C1228.36 188.368 1228.86 187.857 1229.48 187.857Z" fill="#E9B317"/>
<path fill-rule="evenodd" clip-rule="evenodd" d="M1231.57 188.639C1232.19 188.639 1232.69 189.15 1232.69 189.777C1232.69 190.403 1232.19 190.914 1231.57 190.914C1230.96 190.914 1230.46 190.403 1230.46 189.777C1230.46 189.15 1230.96 188.639 1231.57 188.639Z" fill="#E9B317"/>
<path d="M1239.05 186.99C1239.67 186.99 1240.17 186.48 1240.17 185.852C1240.17 185.223 1239.67 184.714 1239.05 184.714C1238.44 184.714 1237.94 185.223 1237.94 185.852C1237.94 186.48 1238.44 186.99 1239.05 186.99Z" fill="#E9B317"/>
<path d="M1237.71 188.803C1238.32 188.803 1238.82 188.293 1238.82 187.665C1238.82 187.036 1238.32 186.527 1237.71 186.527C1237.09 186.527 1236.59 187.036 1236.59 187.665C1236.59 188.293 1237.09 188.803 1237.71 188.803Z" fill="#E9B317"/>
<path fill-rule="evenodd" clip-rule="evenodd" d="M1235.9 187.857C1235.28 187.857 1234.78 188.368 1234.78 188.995C1234.78 189.622 1235.28 190.133 1235.9 190.133C1236.51 190.133 1237.01 189.622 1237.01 188.995C1237.01 188.368 1236.51 187.857 1235.9 187.857Z" fill="#E9B317"/>
<path fill-rule="evenodd" clip-rule="evenodd" d="M1233.8 188.639C1233.18 188.639 1232.68 189.15 1232.68 189.777C1232.68 190.403 1233.18 190.914 1233.8 190.914C1234.41 190.914 1234.92 190.403 1234.92 189.777C1234.92 189.15 1234.41 188.639 1233.8 188.639Z" fill="#E9B317"/>
<path fill-rule="evenodd" clip-rule="evenodd" d="M1202.06 65.062C1224.56 65.062 1242.8 83.5248 1242.8 106.296V158.233L1225.09 140.312C1218.54 144.865 1210.61 147.535 1202.06 147.535C1179.56 147.535 1161.32 129.073 1161.32 106.302C1161.32 83.5306 1179.56 65.062 1202.06 65.062Z" fill="#8299C2"/>
<path fill-rule="evenodd" clip-rule="evenodd" d="M1239.36 146.731L1226.66 134.289L1223.39 136.491C1217.26 140.619 1210.07 142.792 1202.63 142.792C1182.35 142.792 1165.91 126.683 1165.91 106.803C1165.91 86.9225 1182.35 70.8135 1202.63 70.8135C1222.92 70.8135 1239.61 86.8248 1239.36 106.74V106.774V146.725V146.731Z" fill="#F7F7EF"/>
<path fill-rule="evenodd" clip-rule="evenodd" d="M1126.65 385.9C1129.65 385.9 1132.08 388.33 1132.08 391.338C1132.08 394.347 1129.66 396.777 1126.65 396.777C1123.65 396.777 1121.22 394.347 1121.22 391.338C1121.22 388.33 1123.65 385.9 1126.65 385.9Z" fill="#001E60"/>
<path fill-rule="evenodd" clip-rule="evenodd" d="M1152.35 385.9C1155.34 385.9 1157.78 388.33 1157.78 391.338C1157.78 394.347 1155.35 396.777 1152.35 396.777C1149.34 396.777 1146.92 394.347 1146.92 391.338C1146.92 388.33 1149.34 385.9 1152.35 385.9Z" fill="#001E60"/>
<path fill-rule="evenodd" clip-rule="evenodd" d="M1178.04 385.9C1181.03 385.9 1183.47 388.33 1183.47 391.338C1183.47 394.347 1181.04 396.777 1178.04 396.777C1175.04 396.777 1172.61 394.347 1172.61 391.338C1172.61 388.33 1175.04 385.9 1178.04 385.9Z" fill="#001E60"/>
<path fill-rule="evenodd" clip-rule="evenodd" d="M1126.65 385.9C1129.65 385.9 1132.08 388.33 1132.08 391.338C1132.08 394.347 1129.66 396.777 1126.65 396.777C1123.65 396.777 1121.22 394.347 1121.22 391.338C1121.22 388.33 1123.65 385.9 1126.65 385.9Z" fill="#001E60"/>
<path fill-rule="evenodd" clip-rule="evenodd" d="M1152.35 385.9C1155.34 385.9 1157.78 388.33 1157.78 391.338C1157.78 394.347 1155.35 396.777 1152.35 396.777C1149.34 396.777 1146.92 394.347 1146.92 391.338C1146.92 388.33 1149.34 385.9 1152.35 385.9Z" fill="#001E60"/>
<path fill-rule="evenodd" clip-rule="evenodd" d="M1178.04 385.9C1181.03 385.9 1183.47 388.33 1183.47 391.338C1183.47 394.347 1181.04 396.777 1178.04 396.777C1175.04 396.777 1172.61 394.347 1172.61 391.338C1172.61 388.33 1175.04 385.9 1178.04 385.9Z" fill="#001E60"/>
<path fill-rule="evenodd" clip-rule="evenodd" d="M1062.19 54.2573C1041.19 54.2573 1024.16 71.3153 1024.16 92.3558V140.338L1040.69 123.781C1046.8 127.986 1054.21 130.454 1062.19 130.454C1083.2 130.454 1100.23 113.396 1100.23 92.3558C1100.23 71.3153 1083.2 54.2573 1062.19 54.2573Z" fill="#8299C2"/>
<path fill-rule="evenodd" clip-rule="evenodd" d="M1062.19 54.2573C1041.19 54.2573 1024.16 71.3153 1024.16 92.3558V140.338L1040.69 123.781C1046.8 127.986 1054.21 130.454 1062.19 130.454C1083.2 130.454 1100.23 113.396 1100.23 92.3558C1100.23 71.3153 1083.2 54.2573 1062.19 54.2573Z" fill="#8299C2"/>
<path fill-rule="evenodd" clip-rule="evenodd" d="M1186.94 99.0246L1180.83 105.436L1199.04 123.725L1227.88 94.772L1221.2 88.0674L1198.7 110.651L1186.94 99.0246Z" fill="#E9B317"/>
</g>
<defs>
<clipPath id="clip0_1380_7">
<rect width="311" height="444" fill="white" transform="translate(980 11)"/>
</clipPath>
</defs>
</svg>
