<svg width="1440" height="486" viewBox="0 0 1440 486" fill="none" xmlns="http://www.w3.org/2000/svg">
<g clip-path="url(#clip0_1380_11)">
<path fill-rule="evenodd" clip-rule="evenodd" d="M1184.9 310.302C1233.03 310.302 1272.04 349.224 1272.04 397.236C1272.04 413.613 1267.5 428.923 1259.61 442H1110.19C1102.3 428.923 1097.76 413.613 1097.76 397.236C1097.76 349.224 1136.78 310.302 1184.9 310.302Z" fill="#04315B"/>
<path fill-rule="evenodd" clip-rule="evenodd" d="M1174.69 265.692C1176.35 263.827 1179.63 264.78 1181.37 265.856C1186.67 269.146 1191.91 273.174 1198.17 284.149L1195.45 286.086C1192.42 281.546 1183.39 276.002 1177.3 272.866C1173.13 271.247 1172.69 267.968 1174.7 265.703L1174.69 265.692Z" fill="#F9C9B3"/>
<path fill-rule="evenodd" clip-rule="evenodd" d="M1112.67 243.167C1114.54 239.088 1119.43 237.275 1123.51 239.15L1179.07 264.739C1179.63 265.016 1180.16 265.293 1180.64 265.559L1177.29 272.856C1177.08 272.794 1176.86 272.733 1176.66 272.651L1116.7 253.979C1112.4 252.647 1110.8 247.246 1112.67 243.167Z" fill="#F9C9B3"/>
<path fill-rule="evenodd" clip-rule="evenodd" d="M1204.03 273.163C1203.58 270.673 1199.83 269.566 1197.5 269.454C1190.38 269.105 1182.85 269.392 1170.1 274.813L1171.53 277.97C1177.23 275.982 1189.33 276.627 1197.13 277.57C1202.14 278.636 1204.58 276.197 1204.03 273.174V273.163Z" fill="#F9C9B3"/>
<path fill-rule="evenodd" clip-rule="evenodd" d="M1277.62 290.39C1278.32 285.963 1274.73 281.649 1269.64 280.839L1200.4 269.853C1199.68 269.751 1199.01 269.679 1198.38 269.618L1197.14 277.55C1197.39 277.621 1197.63 277.693 1197.88 277.755L1267.12 296.959C1272.09 298.333 1276.93 294.818 1277.63 290.39H1277.62Z" fill="#F9C9B3"/>
<path fill-rule="evenodd" clip-rule="evenodd" d="M1209.46 275.264C1208.97 277.99 1206.36 279.814 1203.62 279.323C1200.89 278.841 1199.06 276.238 1199.55 273.502C1200.04 270.776 1202.64 268.952 1205.39 269.443C1208.12 269.925 1209.95 272.528 1209.46 275.264Z" fill="#04315B"/>
<path fill-rule="evenodd" clip-rule="evenodd" d="M1115.49 333.248L1111.98 247.031C1111.81 242.675 1115.23 238.976 1119.59 238.812C1123.96 238.648 1127.68 242.081 1127.85 246.426L1131.36 332.643C1131.54 336.998 1128.12 340.698 1123.75 340.862C1119.39 341.026 1115.67 337.593 1115.49 333.248Z" fill="#F9C9B3"/>
<path fill-rule="evenodd" clip-rule="evenodd" d="M1115.5 333.545L1113.56 285.881L1129.46 285.984L1131.37 332.951C1131.55 337.142 1128.12 340.708 1123.75 340.872C1119.39 341.036 1115.68 337.737 1115.5 333.545Z" fill="#034585"/>
<path fill-rule="evenodd" clip-rule="evenodd" d="M1122.39 393.229H1196.49V420.52C1196.49 429.518 1192.69 436.763 1186.81 442H1132.05C1126.19 436.763 1122.39 429.518 1122.39 420.52V393.229Z" fill="#001E60"/>
<path fill-rule="evenodd" clip-rule="evenodd" d="M1122.37 393.086L1115.48 337.296C1114.94 332.879 1117.7 327.099 1121.78 324.035C1125.59 321.165 1130.9 320.817 1134.91 321.719L1212.12 339.048C1220.84 341.006 1224.32 345.586 1224.43 351.018C1224.55 356.49 1219.89 361.912 1216.41 368.481L1194.61 409.627L1122.37 393.096V393.086Z" fill="#034585"/>
<path fill-rule="evenodd" clip-rule="evenodd" d="M1189.05 275.531C1192.64 276.392 1194.87 280.03 1194.01 283.606L1181.83 334.027C1180.97 337.603 1177.32 339.827 1173.74 338.966C1170.15 338.106 1167.92 334.467 1168.79 330.891L1180.96 280.47C1181.82 276.894 1185.47 274.67 1189.05 275.531Z" fill="#F9C9B3"/>
<path fill-rule="evenodd" clip-rule="evenodd" d="M1188.39 279.066L1183.36 275.695C1187.56 273.133 1193.04 274.455 1195.61 278.636C1198.18 282.827 1196.85 288.289 1192.66 290.851C1188.17 287.613 1186.32 282.643 1188.38 279.066H1188.39Z" fill="#001E60"/>
<path fill-rule="evenodd" clip-rule="evenodd" d="M1179.58 292.409L1182.17 277.959L1172.75 290.77L1179.58 292.409Z" fill="#F9C9B3"/>
<path fill-rule="evenodd" clip-rule="evenodd" d="M1143.14 442L1021.67 371.309C1013.26 366.421 1010.83 358.684 1013.76 353.928C1016.62 349.266 1022.54 346.242 1033.24 351.418L1162.09 412.517C1172.29 417.446 1172.99 427.284 1169.65 435.329C1168.6 437.84 1167.15 440.166 1165.3 442.021H1143.14V442Z" fill="#A3A4A5"/>
<path fill-rule="evenodd" clip-rule="evenodd" d="M1111.65 442L1010.39 417.569C1001.05 415.314 996.561 408.694 997.978 403.365C999.365 398.149 1004.1 393.609 1015.7 395.484L1154.9 416.882C1165.94 418.665 1169.4 427.776 1168.52 436.323C1168.31 438.29 1167.87 440.217 1167.16 442.01H1111.65V442Z" fill="#001E60"/>
<path d="M1193.99 197.558C1227.63 192.111 1250.47 160.495 1245.01 126.941C1239.55 93.3872 1207.86 70.6017 1174.22 76.0483C1140.59 81.4949 1117.75 113.111 1123.21 146.665C1128.67 180.219 1160.36 203.004 1193.99 197.558Z" fill="#E9B317"/>
<g clip-path="url(#clip1_1380_11)">
<path d="M1193.45 147.495L1198.99 153.014C1195.23 156.694 1190.1 158.993 1184.43 158.993C1175.53 158.993 1167.95 153.414 1165.06 145.596H1159V139.963H1163.86C1163.8 139.503 1163.8 138.983 1163.8 138.523C1163.8 138.003 1163.8 137.543 1163.86 137.03H1159V131.398H1165.07C1168.02 123.579 1175.59 118 1184.43 118C1190.1 118 1195.24 120.3 1199 123.979L1193.45 129.498C1191.14 127.199 1187.96 125.759 1184.43 125.759C1179.98 125.759 1176.05 127.998 1173.8 131.391H1186.23V137.024H1171.66C1171.66 137.543 1171.6 138.003 1171.6 138.517C1171.6 138.977 1171.6 139.497 1171.66 139.956H1186.23V145.589H1173.75C1176.06 148.982 1179.99 151.221 1184.44 151.221C1187.96 151.221 1191.15 149.781 1193.46 147.482L1193.45 147.495Z" fill="white"/>
</g>
<path fill-rule="evenodd" clip-rule="evenodd" d="M1184.1 218.388C1186.29 218.388 1188.08 216.604 1188.08 214.422C1188.08 212.239 1186.29 210.456 1184.1 210.456C1181.91 210.456 1180.13 212.239 1180.13 214.422C1180.13 216.604 1181.91 218.388 1184.1 218.388Z" fill="#C2CDE1"/>
<path fill-rule="evenodd" clip-rule="evenodd" d="M1205.31 352.822L1264.1 284.252C1266.94 280.942 1271.98 280.552 1275.3 283.381C1278.62 286.209 1279.01 291.241 1276.17 294.551L1217.38 363.121C1214.54 366.431 1209.5 366.821 1206.18 363.992C1202.86 361.164 1202.47 356.132 1205.31 352.822Z" fill="#F9C9B3"/>
<path fill-rule="evenodd" clip-rule="evenodd" d="M1205.31 352.821L1237.59 315.18L1249.19 326.033L1217.38 363.131C1214.54 366.441 1209.5 366.83 1206.18 364.002C1202.86 361.173 1202.47 356.142 1205.31 352.832V352.821Z" fill="#034585"/>
<path fill-rule="evenodd" clip-rule="evenodd" d="M900.576 362.742C899.456 365.734 895.532 364.791 893.796 364.105C892.06 363.418 893.519 363.992 893.385 363.93C891.67 363.213 885.886 360.815 885.065 360.487C883.154 359.616 882.671 358.478 883.133 357.156L892.707 331.721L893.96 332.213C892.471 338.238 888.167 347.38 895.912 355.394C897.422 356.962 902.733 357.003 900.576 362.752V362.742Z" fill="#F9C9B3"/>
<path fill-rule="evenodd" clip-rule="evenodd" d="M1009.65 413.582L890.386 362.68L894.125 353.221C894.741 353.969 895.779 355.343 899.045 356.347L1016.97 392.574C1032.49 397.339 1025.61 420.397 1009.65 413.582Z" fill="#A3A4A5"/>
<path d="M920.71 164.175H917.381V203.6H920.71V164.175Z" fill="#04315B"/>
<path d="M934.691 147.748H931.362V203.599H934.691V147.748Z" fill="#04315B"/>
<path d="M948.681 131.32H945.353V203.599H948.681V131.32Z" fill="#04315B"/>
<path d="M962.672 114.893H959.344V203.6H962.672V114.893Z" fill="#04315B"/>
<path d="M976.663 98.4648H973.335V203.6H976.663V98.4648Z" fill="#04315B"/>
<path d="M990.654 82.0371H987.326V203.599H990.654V82.0371Z" fill="#E9B317"/>
<path d="M898.028 71.7276L900.925 76.1958L899.98 76.8106L898.121 73.9514V218.336H1031.27L1028.41 216.481L1029.02 215.539L1033.49 218.428L1034.23 218.9L1033.49 219.382L1029.02 222.272L1028.71 221.8L1028.41 221.329L1031.27 219.474H897.556H896.991V218.9V73.9514L895.121 76.8106L894.649 76.5032L894.176 76.1958L897.073 71.7276L897.556 71L898.028 71.7276Z" fill="#04315B"/>
<path d="M1359 388.71H817V442H1359V388.71Z" fill="#04315B"/>
<path fill-rule="evenodd" clip-rule="evenodd" d="M906.339 382.93C906.914 386.066 903.062 387.265 901.223 387.573C899.384 387.87 900.925 387.614 900.781 387.634C898.943 387.901 892.748 388.802 891.875 388.936C889.79 389.171 888.793 388.434 888.506 387.06L883.637 360.323L884.962 360.108C886.78 366.042 887.797 376.095 898.562 379.005C900.668 379.569 905.25 376.894 906.349 382.93H906.339Z" fill="#F9C9B3"/>
<path fill-rule="evenodd" clip-rule="evenodd" d="M1026.11 370.725L897.576 388.085L895.912 378.052C896.826 378.38 898.429 379.026 901.747 378.216L1021.59 348.947C1037.37 345.094 1043.32 368.409 1026.11 370.725Z" fill="#A3A4A5"/>
<path d="M977.999 342.686L968.055 377.13V377.171C967.408 379.005 967.089 380.625 967.079 382.008C967.079 383.043 967.233 383.924 967.572 384.662C967.911 385.39 968.414 385.964 969.103 386.384C969.924 386.886 970.983 387.153 972.287 387.183H987.747V388.72H972.287C970.818 388.69 969.596 388.372 968.64 387.778C967.736 387.224 967.058 386.445 966.607 385.472C966.155 384.498 965.939 383.33 965.949 381.998C965.959 380.409 966.319 378.585 967.017 376.556L976.951 342.143L978.029 342.686H977.999Z" fill="#C2CDE1"/>
<path fill-rule="evenodd" clip-rule="evenodd" d="M900.391 255.291H1021.07L1041.95 343.26H921.275L900.391 255.291Z" fill="#C2CDE1"/>
<path fill-rule="evenodd" clip-rule="evenodd" d="M980.618 255.291H1003.36L972.544 328.492H949.791L980.618 255.291Z" fill="white"/>
<path fill-rule="evenodd" clip-rule="evenodd" d="M970.027 255.291H976.704L945.887 328.492H939.2L970.027 255.291Z" fill="white"/>
<path fill-rule="evenodd" clip-rule="evenodd" d="M961.162 315.724H962.569L967.028 332.346H965.631L961.162 315.724Z" fill="#034585"/>
<path fill-rule="evenodd" clip-rule="evenodd" d="M965.199 308.796H966.607L972.934 332.346H971.527L965.199 308.796Z" fill="#034585"/>
<path fill-rule="evenodd" clip-rule="evenodd" d="M969.236 301.868H970.644L978.831 332.346H977.423L969.236 301.868Z" fill="#034585"/>
<path fill-rule="evenodd" clip-rule="evenodd" d="M973.273 294.94H974.681L984.727 332.346H983.32L973.273 294.94Z" fill="#034585"/>
<path fill-rule="evenodd" clip-rule="evenodd" d="M977.321 288.013H978.718L990.623 332.346H989.226L977.321 288.013Z" fill="#034585"/>
<path fill-rule="evenodd" clip-rule="evenodd" d="M981.357 281.085H982.754L996.53 332.346H995.122L981.357 281.085Z" fill="#034585"/>
<path d="M942.867 276.433L959.457 338.208H1016.48V339.397H959.005H958.543L958.43 338.956L941.717 276.74L942.867 276.433Z" fill="#034585"/>
<path fill-rule="evenodd" clip-rule="evenodd" d="M1026.16 395.064H1044.32V426.362H1026.16C1025.36 426.362 1024.72 425.347 1024.72 424.558V396.499C1024.72 395.71 1025.36 395.064 1026.16 395.064Z" fill="#F7F7EF"/>
<path fill-rule="evenodd" clip-rule="evenodd" d="M1026.53 422.908H1044.33V426.361H1026.53C1024.11 426.361 1024.11 422.908 1026.53 422.908Z" fill="#034585"/>
<path fill-rule="evenodd" clip-rule="evenodd" d="M1066.61 404.697L1060.25 407.782L1066.61 410.867H1102.94V407.782V404.697H1066.61Z" fill="#9AAACF"/>
<path fill-rule="evenodd" clip-rule="evenodd" d="M1099.85 407.782C1099.85 409.483 1101.24 410.867 1102.94 410.867C1104.65 410.867 1106.03 409.483 1106.03 407.782C1106.03 406.081 1104.65 404.697 1102.94 404.697C1101.24 404.697 1099.85 406.081 1099.85 407.782Z" fill="#001E60"/>
<path fill-rule="evenodd" clip-rule="evenodd" d="M1066.61 410.764L1060.24 407.782L1066.61 404.8C1065.25 405.158 1064.32 406.388 1064.32 407.782C1064.32 409.176 1065.26 410.405 1066.61 410.764Z" fill="#001E60"/>
<path fill-rule="evenodd" clip-rule="evenodd" d="M1315.07 403.775C1311.63 406.86 1309.49 411.318 1309.49 416.288C1309.49 425.593 1317.05 433.136 1326.38 433.136C1335.7 433.136 1343.26 425.593 1343.26 416.288C1343.26 411.318 1341.11 406.86 1337.68 403.775C1341.12 400.69 1343.26 396.232 1343.26 391.262C1343.26 386.292 1341.11 381.834 1337.68 378.749C1341.12 375.665 1343.26 371.207 1343.26 366.236C1343.26 361.266 1341.11 356.808 1337.68 353.723C1341.12 350.639 1343.26 346.181 1343.26 341.211C1343.26 331.905 1335.7 324.363 1326.38 324.363C1317.05 324.363 1309.49 331.905 1309.49 341.211C1309.49 346.181 1311.64 350.639 1315.07 353.723C1311.63 356.808 1309.49 361.266 1309.49 366.236C1309.49 371.207 1311.64 375.665 1315.07 378.749C1311.63 381.834 1309.49 386.292 1309.49 391.262C1309.49 396.232 1311.64 400.69 1315.07 403.775Z" fill="#C2CDE1"/>
<path fill-rule="evenodd" clip-rule="evenodd" d="M1184.1 231.577C1186.29 231.577 1188.08 229.793 1188.08 227.611C1188.08 225.428 1186.29 223.645 1184.1 223.645C1181.91 223.645 1180.13 225.428 1180.13 227.611C1180.13 229.793 1181.91 231.577 1184.1 231.577Z" fill="#C2CDE1"/>
<path fill-rule="evenodd" clip-rule="evenodd" d="M1184.1 245.268C1186.29 245.268 1188.08 243.485 1188.08 241.302C1188.08 239.119 1186.29 237.336 1184.1 237.336C1181.91 237.336 1180.13 239.119 1180.13 241.302C1180.13 243.485 1181.91 245.268 1184.1 245.268Z" fill="#C2CDE1"/>
<path d="M1260.38 426.094C1265.03 415.065 1259.84 402.363 1248.79 397.723C1237.73 393.082 1225 398.261 1220.35 409.289C1215.7 420.318 1220.89 433.02 1231.94 437.66C1243 442.301 1255.73 437.122 1260.38 426.094Z" fill="#EDEDE8"/>
<path fill-rule="evenodd" clip-rule="evenodd" d="M1240.33 388.27C1233.72 388.27 1228.31 393.67 1228.31 400.26V417.343C1228.31 423.943 1233.73 429.333 1240.33 429.333C1246.95 429.333 1252.35 423.933 1252.35 417.343V400.26C1252.35 393.66 1246.94 388.27 1240.33 388.27Z" fill="#9AAACF"/>
<path fill-rule="evenodd" clip-rule="evenodd" d="M1240.42 388.321C1233.81 388.321 1228.47 393.66 1228.47 400.239C1228.47 406.819 1233.82 412.158 1240.42 412.158C1247.01 412.158 1252.36 406.819 1252.36 400.239C1252.36 393.66 1247.01 388.321 1240.42 388.321Z" fill="#EDEDE8"/>
<path fill-rule="evenodd" clip-rule="evenodd" d="M1228.93 403.549C1230.37 408.53 1234.96 412.168 1240.42 412.168C1245.87 412.168 1250.46 408.53 1251.9 403.549C1250.46 398.569 1245.87 394.931 1240.42 394.931C1234.96 394.931 1230.37 398.569 1228.93 403.549Z" fill="#E65E30"/>
<path d="M1242.53 359.749C1243.61 360.999 1244.35 362.168 1244.81 363.285C1245.3 364.422 1245.49 365.508 1245.49 366.543C1245.49 367.763 1245.22 368.901 1244.81 369.987C1244.41 371.042 1243.89 372.057 1243.36 373.061C1242.35 374.967 1241.46 377.058 1241.31 379.036C1241.17 380.932 1241.71 382.756 1243.55 384.262L1243.09 385.164C1240.93 383.391 1240.29 381.219 1240.47 378.944C1240.64 376.751 1241.59 374.506 1242.67 372.467C1243.18 371.504 1243.68 370.53 1244.05 369.536C1244.41 368.573 1244.65 367.579 1244.65 366.554C1244.65 365.683 1244.47 364.771 1244.06 363.787C1243.64 362.772 1242.96 361.696 1241.97 360.548L1242.54 359.759L1242.53 359.749Z" fill="white"/>
<path d="M1237.25 359.749C1238.33 360.999 1239.07 362.168 1239.53 363.285C1240.02 364.422 1240.21 365.508 1240.21 366.543C1240.21 367.763 1239.94 368.901 1239.53 369.987C1239.13 371.042 1238.61 372.057 1238.08 373.061C1237.07 374.967 1236.18 377.058 1236.03 379.036C1235.89 380.932 1236.43 382.756 1238.27 384.262L1237.81 385.164C1235.65 383.391 1235.01 381.219 1235.19 378.944C1235.36 376.751 1236.31 374.506 1237.39 372.467C1237.9 371.504 1238.4 370.53 1238.77 369.536C1239.13 368.573 1239.37 367.579 1239.37 366.554C1239.37 365.683 1239.19 364.771 1238.78 363.787C1238.36 362.772 1237.68 361.696 1236.69 360.548L1237.26 359.759L1237.25 359.749Z" fill="white"/>
</g>
<path fill-rule="evenodd" clip-rule="evenodd" d="M1443 486V430.808C1364.43 419.604 1228.4 419.334 1146.91 428.602C1057.83 438.726 988.625 436.647 898.075 430.157C575.885 407.068 495.354 451.58 293.089 428.602C211.597 419.334 75.5694 419.604 -3 430.808V486H1443Z" fill="#C2CDE1"/>
<defs>
<clipPath id="clip0_1380_11">
<rect width="542" height="371" fill="white" transform="translate(817 71)"/>
</clipPath>
<clipPath id="clip1_1380_11">
<rect width="40" height="41" fill="white" transform="translate(1159 118)"/>
</clipPath>
</defs>
</svg>
