<svg width="1440" height="486" viewBox="0 0 1440 486" fill="none" xmlns="http://www.w3.org/2000/svg">
<path fill-rule="evenodd" clip-rule="evenodd" d="M1443 486V430.808C1364.43 419.604 1228.4 419.334 1146.91 428.602C1057.83 438.726 988.625 436.647 898.075 430.157C575.885 407.068 495.354 451.58 293.089 428.602C211.597 419.334 75.5694 419.604 -3 430.808V486H1443Z" fill="#C2CDE1"/>
<g clip-path="url(#clip0_1380_9)">
<path d="M1139.49 403.475H891.221V444.991H1139.49V403.475Z" fill="#C2CDE1"/>
<path d="M1138.69 396.817H1012.15V403.474H1138.69V396.817Z" fill="#566580"/>
<path fill-rule="evenodd" clip-rule="evenodd" d="M995.749 289.146C999.414 290.287 1001.48 294.224 1000.36 297.908L988.502 336.656L976.097 332.804L988.24 293.12C989.21 289.951 992.596 288.174 995.758 289.146H995.749Z" fill="#F9C9B3"/>
<path fill-rule="evenodd" clip-rule="evenodd" d="M1070.02 267.313L1038.46 224.189C1035.38 217.157 1035.6 211.603 1038.41 207.189L1035.94 206.516C1031.44 211.64 1029.5 217.606 1032.69 225.273L1053.81 269.669C1055.69 277.496 1060.61 280.759 1065.13 279.992C1069.84 279.197 1074.36 273.222 1070.03 267.304L1070.02 267.313Z" fill="#F9C9B3"/>
<path fill-rule="evenodd" clip-rule="evenodd" d="M1016.39 346.474C1020.05 348.774 1024.91 347.661 1027.21 343.996L1068.05 278.795C1070.35 275.13 1069.24 270.249 1065.58 267.948C1061.92 265.648 1057.05 266.761 1054.76 270.426L1013.92 335.627C1011.62 339.293 1012.73 344.174 1016.39 346.474Z" fill="#F9C9B3"/>
<path fill-rule="evenodd" clip-rule="evenodd" d="M1016.39 346.474C1020.76 349.232 1026.59 347.895 1029.34 343.51L1046.37 316.319L1030.45 306.304L1013.42 333.495C1010.67 337.881 1012.01 343.725 1016.38 346.474H1016.39Z" fill="#034585"/>
<path fill-rule="evenodd" clip-rule="evenodd" d="M1012.15 403.353L1027.76 356.283C1030.37 348.578 1034.22 340.696 1029.85 332.196C1025.77 324.276 1019.92 326.399 1013.42 326.399H936.998C931.047 326.399 926.179 332.458 926.179 339.863C926.179 343.706 927.494 347.194 929.583 349.653L950.895 403.475L1012.15 403.344V403.353Z" fill="#034585"/>
<path fill-rule="evenodd" clip-rule="evenodd" d="M969.643 326.324H997.26C994.163 331.195 989.136 334.365 983.447 334.365C977.757 334.365 972.73 331.195 969.633 326.324H969.643Z" fill="#F9C9B3"/>
<path fill-rule="evenodd" clip-rule="evenodd" d="M994.34 305.883L1000.52 294.438L1001.14 307.997L994.34 305.883Z" fill="#F9C9B3"/>
<path fill-rule="evenodd" clip-rule="evenodd" d="M991.16 296.121H991.123L990.302 298.758C989.201 301.058 986.991 302.788 983.866 302.19L986.217 294.588H986.198C987.681 289.772 992.634 287.033 997.241 288.463C998.705 288.922 1000.01 289.81 1001.05 290.969C1000.05 292.419 997.913 295.009 995.376 294.223C993.529 293.653 991.859 294.513 991.16 296.121Z" fill="#001E60"/>
<path fill-rule="evenodd" clip-rule="evenodd" d="M1087.19 324.463L1061.05 403.474H1139.49L1165.63 324.463H1087.19Z" fill="#566580"/>
<path d="M1223.16 379.939H1180.93V445H1223.16V379.939Z" fill="#034585"/>
<path d="M1281.96 327.371H1239.72V445H1281.96V327.371Z" fill="#C2CDE1"/>
<path d="M1340.75 251.268H1298.52V445H1340.75V251.268Z" fill="#034585"/>
<path fill-rule="evenodd" clip-rule="evenodd" d="M891.221 445C887.406 441.55 885 436.547 885 430.983C885 425.42 887.397 420.427 891.221 416.967C887.406 413.517 885 408.514 885 402.951C885 392.534 893.422 384.091 903.813 384.091C914.203 384.091 922.625 392.534 922.625 402.951C922.625 408.514 920.228 413.507 916.404 416.967C920.228 420.417 922.625 425.42 922.625 430.983C922.625 436.547 920.228 441.54 916.404 445H891.221Z" fill="#F7F7EF"/>
<path fill-rule="evenodd" clip-rule="evenodd" d="M891.156 267.126L929.639 230.07C933.873 223.674 934.601 218.157 932.596 213.332L935.151 213.089C938.696 218.915 939.6 225.123 935.142 232.127L906.741 272.24C903.542 279.627 898.142 281.993 893.823 280.469C889.318 278.879 885.895 272.212 891.175 267.126H891.156Z" fill="#F9C9B3"/>
<path fill-rule="evenodd" clip-rule="evenodd" d="M942.352 346.474C938.696 348.774 933.827 347.661 931.532 343.996L890.69 278.786C888.395 275.12 889.505 270.239 893.161 267.939C896.817 265.639 901.686 266.752 903.981 270.417L944.823 335.618C947.118 339.283 946.008 344.164 942.352 346.464V346.474Z" fill="#F9C9B3"/>
<path fill-rule="evenodd" clip-rule="evenodd" d="M942.351 346.474C937.977 349.232 932.148 347.895 929.406 343.51L912.375 316.319L928.286 306.304L945.317 333.495C948.069 337.881 946.735 343.725 942.361 346.474H942.351Z" fill="#034585"/>
<path d="M1029.98 242.204C1040.85 217.928 1030.04 189.413 1005.82 178.513C981.606 167.613 953.162 178.456 942.29 202.732C931.417 227.008 942.234 255.524 966.449 266.424C990.664 277.324 1019.11 266.48 1029.98 242.204Z" fill="#E9B317"/>
<path d="M995.883 233.836L1000.86 238.857C997.487 242.205 992.879 244.297 987.797 244.297C979.82 244.297 973.026 239.221 970.436 232.107H965V226.983H969.355C969.301 226.564 969.301 226.091 969.301 225.673C969.301 225.2 969.301 224.781 969.355 224.314H965V219.19H970.442C973.086 212.076 979.874 207 987.803 207C992.879 207 997.493 209.092 1000.86 212.44L995.889 217.461C993.816 215.369 990.963 214.059 987.803 214.059C983.814 214.059 980.288 216.097 978.27 219.184H989.413V224.308H976.354C976.354 224.781 976.299 225.2 976.299 225.667C976.299 226.085 976.299 226.558 976.354 226.977H989.413V232.101H978.222C980.294 235.188 983.82 237.226 987.809 237.226C990.969 237.226 993.822 235.916 995.895 233.824L995.883 233.836Z" fill="white"/>
<path d="M1281.97 128H1089.34V258.608H1281.97V128Z" fill="#F7F7EF"/>
<path d="M1115.76 227.807H1255.23" stroke="#B2B2B2" stroke-width="0.48" stroke-miterlimit="22.93"/>
<path d="M1115.76 227.807V154.434" stroke="#B2B2B2" stroke-width="0.48" stroke-miterlimit="22.93"/>
<path fill-rule="evenodd" clip-rule="evenodd" d="M1137.27 215.352L1115.76 227.807V216.381L1137.27 203.935V215.352Z" fill="#04315B"/>
<path fill-rule="evenodd" clip-rule="evenodd" d="M1137.27 215.352L1158.78 215.399V203.972L1137.27 203.935V215.352Z" fill="#034585"/>
<path fill-rule="evenodd" clip-rule="evenodd" d="M1195.62 190.527L1158.77 215.427V204.001L1195.62 179.101V190.527Z" fill="#04315B"/>
<path fill-rule="evenodd" clip-rule="evenodd" d="M1195.62 190.526L1232.46 190.452V179.025L1195.62 179.1V190.526Z" fill="#034585"/>
<path fill-rule="evenodd" clip-rule="evenodd" d="M1264.49 171.985L1232.46 190.452V179.026L1264.49 160.568V171.985Z" fill="#04315B"/>
<path fill-rule="evenodd" clip-rule="evenodd" d="M1012 406.972C1007.11 406.972 1002.31 411.048 1003.11 415.883L1005.21 428.581C1006.46 436.173 1018.33 435.846 1019.32 428.16L1020.89 415.883C1021.52 411.02 1016.89 406.972 1012.01 406.972H1012Z" fill="#034585"/>
<path fill-rule="evenodd" clip-rule="evenodd" d="M1012.05 406.916C1007.12 406.916 1003.12 410.927 1003.12 415.873C1003.12 420.82 1007.12 424.831 1012.05 424.831C1016.99 424.831 1020.99 420.82 1020.99 415.873C1020.99 410.927 1016.99 406.916 1012.05 406.916Z" fill="white"/>
<path d="M1012.23 422.186C1016.47 422.074 1019.82 418.539 1019.7 414.29C1019.59 410.042 1016.07 406.688 1011.83 406.8C1007.59 406.912 1004.24 410.447 1004.36 414.696C1004.47 418.944 1007.99 422.298 1012.23 422.186Z" fill="#E5E5E5"/>
<path fill-rule="evenodd" clip-rule="evenodd" d="M1012.29 408.552C1011.46 408.552 1010.79 409.225 1010.79 410.048C1010.79 410.871 1011.46 411.544 1012.29 411.544C1013.11 411.544 1013.78 410.871 1013.78 410.048C1013.78 409.225 1013.11 408.552 1012.29 408.552Z" fill="#1F1F1F"/>
<path fill-rule="evenodd" clip-rule="evenodd" d="M956.986 429.974L958.599 433.312L960.222 429.974V410.908H958.599H956.986V429.974Z" fill="#E9B317"/>
<path fill-rule="evenodd" clip-rule="evenodd" d="M958.599 412.535C959.495 412.535 960.222 411.806 960.222 410.908C960.222 410.011 959.495 409.281 958.599 409.281C957.704 409.281 956.977 410.011 956.977 410.908C956.977 411.806 957.704 412.535 958.599 412.535Z" fill="#4D4D4D"/>
<path fill-rule="evenodd" clip-rule="evenodd" d="M960.166 429.974L958.599 433.312L957.032 429.974C957.219 430.684 957.862 431.18 958.599 431.18C959.336 431.18 959.97 430.684 960.166 429.974Z" fill="#4D4D4D"/>
</g>
<defs>
<clipPath id="clip0_1380_9">
<rect width="533" height="317" fill="white" transform="translate(885 128)"/>
</clipPath>
</defs>
</svg>
