<svg width="15" height="10" viewBox="0 0 15 10" fill="none" xmlns="http://www.w3.org/2000/svg">
<path d="M7.5459 9.34546C7.2194 9.34546 6.92057 9.21265 6.64941 8.94702L0.398926 2.55542C0.293783 2.44474 0.213542 2.32577 0.158203 2.19849C0.108398 2.07121 0.0834961 1.93009 0.0834961 1.77515C0.0834961 1.57039 0.133301 1.38224 0.23291 1.21069C0.33252 1.03914 0.465332 0.903564 0.631348 0.803955C0.802897 0.704346 0.991048 0.654541 1.1958 0.654541C1.5057 0.654541 1.77686 0.767985 2.00928 0.994873L7.92773 7.07104H7.17236L13.0742 0.994873C13.3066 0.767985 13.5778 0.654541 13.8877 0.654541C14.0924 0.654541 14.2778 0.704346 14.4438 0.803955C14.6154 0.903564 14.751 1.03914 14.8506 1.21069C14.9502 1.38224 15 1.57039 15 1.77515C15 2.07951 14.8921 2.33683 14.6763 2.54712L8.44238 8.94702C8.30957 9.07983 8.16846 9.17944 8.01904 9.24585C7.87516 9.30672 7.71745 9.33992 7.5459 9.34546Z" fill="white"/>
</svg>
