<svg width="15" height="9" viewBox="0 0 15 9" fill="none" xmlns="http://www.w3.org/2000/svg">
<path d="M7.5376 0.15454C7.8641 0.15454 8.16292 0.287353 8.43408 0.552978L14.6846 6.94458C14.7897 7.05526 14.87 7.17423 14.9253 7.30151C14.9751 7.42879 15 7.56991 15 7.72485C15 7.92961 14.9502 8.11776 14.8506 8.28931C14.751 8.46086 14.6182 8.59644 14.4521 8.69604C14.2806 8.79565 14.0924 8.84546 13.8877 8.84546C13.5778 8.84546 13.3066 8.73201 13.0742 8.50513L7.15576 2.42895L7.91113 2.42895L2.00928 8.50513C1.77686 8.73201 1.5057 8.84546 1.1958 8.84546C0.991048 8.84546 0.805664 8.79565 0.639648 8.69604C0.468099 8.59643 0.33252 8.46085 0.23291 8.28931C0.133301 8.11776 0.0834962 7.9296 0.0834962 7.72485C0.0834962 7.42049 0.191406 7.16317 0.407227 6.95288L6.64111 0.552978C6.77393 0.420165 6.91504 0.320556 7.06445 0.25415C7.20833 0.193278 7.36605 0.160075 7.5376 0.15454Z" fill="black"/>
</svg>
