<svg width="1440" height="486" viewBox="0 0 1440 486" fill="none" xmlns="http://www.w3.org/2000/svg">
<path d="M662 419.5C787.5 390 849.905 379.5 1221 379.5C1333.41 379.5 1388.8 411.569 1440 405.5V486H466C517 461.5 490.5 459.813 662 419.5Z" fill="#EDE7E4"/>
<g clip-path="url(#clip0_1169_3585)">
<path fill-rule="evenodd" clip-rule="evenodd" d="M1409.5 186.444L1420.6 375.114C1421.38 388.304 1411.47 399.154 1400.32 399.154C1389.17 399.154 1379.27 388.304 1380.04 375.114L1391.14 186.444C1392.2 168.444 1408.98 168.594 1409.5 186.444Z" fill="#A1CAB7"/>
<path fill-rule="evenodd" clip-rule="evenodd" d="M1349.5 204.444L1360.6 393.114C1361.38 406.304 1351.47 417.154 1340.32 417.154C1329.17 417.154 1319.27 406.304 1320.04 393.114L1331.14 204.444C1332.2 186.444 1348.98 186.594 1349.5 204.444Z" fill="#A1CAB7"/>
<path fill-rule="evenodd" clip-rule="evenodd" d="M1371.34 308C1373.17 308 1374.67 309.505 1374.67 311.345V322.518C1374.67 324.359 1373.17 325.864 1371.34 325.864C1369.5 325.864 1368 324.359 1368 322.518V311.345C1368 309.505 1369.5 308 1371.34 308Z" fill="#C2CDE1"/>
</g>
<path fill-rule="evenodd" clip-rule="evenodd" d="M1306.34 353C1308.17 353 1309.67 354.505 1309.67 356.345V367.518C1309.67 369.359 1308.17 370.864 1306.34 370.864C1304.5 370.864 1303 369.359 1303 367.518V356.345C1303 354.505 1304.5 353 1306.34 353Z" fill="#C2CDE1"/>
<path fill-rule="evenodd" clip-rule="evenodd" d="M1376.34 415C1378.17 415 1379.67 416.505 1379.67 418.345V429.518C1379.67 431.359 1378.17 432.864 1376.34 432.864C1374.5 432.864 1373 431.359 1373 429.518V418.345C1373 416.505 1374.5 415 1376.34 415Z" fill="#C2CDE1"/>
<path fill-rule="evenodd" clip-rule="evenodd" d="M1329.34 439C1331.17 439 1332.67 440.505 1332.67 442.345V453.518C1332.67 455.359 1331.17 456.864 1329.34 456.864C1327.5 456.864 1326 455.359 1326 453.518V442.345C1326 440.505 1327.5 439 1329.34 439Z" fill="#C2CDE1"/>
<path fill-rule="evenodd" clip-rule="evenodd" d="M1417.34 443C1419.17 443 1420.67 444.505 1420.67 446.345V457.518C1420.67 459.359 1419.17 460.864 1417.34 460.864C1415.5 460.864 1414 459.359 1414 457.518V446.345C1414 444.505 1415.5 443 1417.34 443Z" fill="#C2CDE1"/>
<g clip-path="url(#clip1_1169_3585)">
<path fill-rule="evenodd" clip-rule="evenodd" d="M1153.72 278.746C1146.77 278.746 1141.08 284.442 1141.08 291.403V316.161C1141.08 323.123 1146.77 328.818 1153.72 328.818C1160.68 328.818 1166.37 323.123 1166.37 316.161V291.403C1166.37 284.442 1160.68 278.746 1153.72 278.746Z" fill="#232017"/>
<path fill-rule="evenodd" clip-rule="evenodd" d="M1116.56 287.175C1114.28 286.005 1111.46 286.906 1110.29 289.179L1092.45 323.823C1091.28 326.095 1092.18 328.924 1094.45 330.094C1096.72 331.264 1099.55 330.362 1100.72 328.09L1118.56 293.446C1119.73 291.173 1118.83 288.344 1116.56 287.175Z" fill="#FC5E48"/>
<path fill-rule="evenodd" clip-rule="evenodd" d="M1035.48 292.889L1000.63 361.104C998.297 365.649 993.564 366.521 990.028 365.083C986.233 363.539 983.838 359.368 985.639 354.459L1011.83 283.023C1014.93 274.546 1023.21 272.859 1029.33 275.85C1034.68 278.458 1039.48 285.084 1035.49 292.889H1035.48Z" fill="#FC5E48"/>
<path fill-rule="evenodd" clip-rule="evenodd" d="M1001.31 356.923L1030.16 419.892C1031.03 421.781 1030.75 423.181 1029.93 423.814C1028.84 424.658 1026.82 424.179 1025.22 421.81L987.201 365.256C983.675 360.011 985.783 354.909 990.027 352.723C993.726 350.815 998.747 351.333 1001.31 356.913V356.923Z" fill="#FC5E48"/>
<path fill-rule="evenodd" clip-rule="evenodd" d="M1025.4 422.961L1018.78 433.115C1017.14 435.647 1018.03 436.232 1020.07 434.544L1031.69 424.888C1032.34 424.342 1032.8 423.248 1032.37 422.759L1030.33 420.372C1029.79 419.749 1029.21 419.969 1029.07 420.075L1025.39 422.97L1025.4 422.961Z" fill="#3A1E33"/>
<path fill-rule="evenodd" clip-rule="evenodd" d="M1056.07 287.875L1050.1 364.258C1049.69 369.35 1045.66 371.977 1041.85 372.016C1037.76 372.045 1033.94 369.12 1033.71 363.894L1030.43 287.875C1030.04 278.851 1037.04 274.115 1043.84 274.517C1049.78 274.863 1056.76 279.139 1056.08 287.875H1056.07Z" fill="#FC5E48"/>
<path fill-rule="evenodd" clip-rule="evenodd" d="M1049.97 365.697L1045.88 434.851C1045.76 436.932 1044.86 438.034 1043.83 438.207C1042.48 438.437 1040.92 437.075 1040.62 434.228L1033.61 366.435C1032.95 360.155 1037.22 356.635 1041.99 356.703C1046.16 356.76 1050.34 359.579 1049.97 365.706V365.697Z" fill="#FC5E48"/>
<path fill-rule="evenodd" clip-rule="evenodd" d="M1041.02 433.767L1029.47 437.44C1026.58 438.351 1026.91 439.377 1029.55 439.358L1044.66 439.243C1045.52 439.243 1046.56 438.677 1046.54 438.025L1046.47 434.889C1046.46 434.065 1045.86 433.863 1045.7 433.863L1041.02 433.777V433.767Z" fill="#3A1E33"/>
<path fill-rule="evenodd" clip-rule="evenodd" d="M1031.55 217.56H1038.88C1042.17 217.56 1044.87 220.168 1044.87 223.361V255.532C1044.87 260.719 1045.36 263.174 1048.89 267.316C1051.98 270.941 1056.48 274.527 1055.71 287.769L1007.21 288.047C1007.05 275.419 1010.84 271.324 1013.92 267.69C1017.83 263.078 1018.22 261.247 1018.22 255.541V223.371C1018.22 220.178 1020.92 217.57 1024.22 217.57H1031.55V217.56Z" fill="#A3A4A5"/>
<path fill-rule="evenodd" clip-rule="evenodd" d="M1045.6 261.956C1046.18 263.682 1047.17 265.303 1048.89 267.326C1051.98 270.95 1056.48 274.537 1055.71 287.779L1055.12 298.058H1007.32L1007.2 288.066C1007.04 275.438 1010.83 271.344 1013.91 267.709C1015.9 265.37 1016.97 263.749 1017.55 261.975H1045.59L1045.6 261.956Z" fill="#FC5E48"/>
<path fill-rule="evenodd" clip-rule="evenodd" d="M1059.75 213.399C1062.74 212.392 1065.91 214.07 1067.04 217.023L1082.2 256.471C1083.35 259.434 1081.58 262.762 1078.58 263.768C1075.58 264.775 1072.42 263.097 1071.29 260.144L1056.12 220.696C1054.98 217.733 1056.75 214.405 1059.75 213.399Z" fill="#A3A4A5"/>
<path d="M1035.19 189.149H1026.75V212.066H1035.19V189.149Z" fill="#F9C9B3"/>
<path fill-rule="evenodd" clip-rule="evenodd" d="M1000.95 212.986C1003.94 212.986 1006.38 215.431 1006.38 218.423V268.371C1006.38 271.363 1003.94 273.808 1000.95 273.808C997.961 273.808 995.518 271.363 995.518 268.371V218.423C995.518 215.431 997.961 212.986 1000.95 212.986Z" fill="#A3A4A5"/>
<path fill-rule="evenodd" clip-rule="evenodd" d="M1029.52 180.797C1024.79 180.797 1020.95 184.642 1020.95 189.379C1020.95 194.116 1024.79 197.961 1029.52 197.961C1034.26 197.961 1038.1 194.116 1038.1 189.379C1038.1 184.642 1034.26 180.797 1029.52 180.797Z" fill="#F9C9B3"/>
<path fill-rule="evenodd" clip-rule="evenodd" d="M1030.13 189.312L1034.82 197.74C1037.73 196.005 1039.52 192.783 1039.52 189.312C1039.52 183.932 1035.32 179.579 1030.14 179.579C1028.49 179.579 1026.87 180.03 1025.44 180.883L1030.14 189.312H1030.13Z" fill="#20212F"/>
<path fill-rule="evenodd" clip-rule="evenodd" d="M1030.33 186.569C1028.86 186.569 1027.68 187.758 1027.68 189.216C1027.68 190.673 1028.87 191.862 1030.33 191.862C1031.79 191.862 1032.97 190.673 1032.97 189.216C1032.97 187.758 1031.79 186.569 1030.33 186.569Z" fill="#E36563"/>
<path fill-rule="evenodd" clip-rule="evenodd" d="M1021.69 191.229L1021.57 186.215C1021.16 187.499 1020.72 188.746 1019.24 189.187C1018.24 189.839 1021.38 191.22 1021.7 191.22L1021.69 191.229Z" fill="#F9C9B3"/>
<path fill-rule="evenodd" clip-rule="evenodd" d="M995.796 219.027C995.796 214.923 999.159 211.558 1003.26 211.558H1058.81C1062.91 211.558 1066.27 214.914 1066.27 219.027C1066.27 223.131 1062.91 226.497 1058.81 226.497H1003.26C999.159 226.497 995.796 223.141 995.796 219.027Z" fill="#A3A4A5"/>
<path fill-rule="evenodd" clip-rule="evenodd" d="M1048.39 211.596L1054.59 211.491V227.015C1054.57 231.732 1053.71 235.75 1051.44 238.608C1048.06 242.855 1045.02 242.28 1040.32 242.28H1021.78C1018.39 242.28 1014.55 242.874 1011.76 240.592C1008.92 238.281 1007.46 233.679 1007.73 227.168V211.481H1014.02C1014.04 219.823 1014.8 224.407 1023.09 223.553H1040.98C1048.17 224.272 1048.05 218.509 1048.39 211.586V211.596Z" fill="#A3A4A5"/>
<path fill-rule="evenodd" clip-rule="evenodd" d="M1071.51 258.763L1080.75 292.266C1081.48 294.893 1083.42 296.677 1085.07 296.217C1086.73 295.756 1087.1 293.273 1086.77 290.607L1082.58 257.996C1081.88 252.588 1079.02 250.143 1076.16 250.45C1073.18 250.776 1070.23 254.065 1071.52 258.753L1071.51 258.763Z" fill="#A3A4A5"/>
<path fill-rule="evenodd" clip-rule="evenodd" d="M1081.42 292.17L1079.79 294.04C1079.4 294.491 1079.45 295.181 1079.9 295.574C1080.35 295.967 1081.04 295.919 1081.43 295.469L1083.06 293.599C1083.45 293.148 1083.4 292.458 1082.95 292.065C1082.5 291.672 1081.81 291.72 1081.42 292.17Z" fill="#F9C9B3"/>
<path d="M1082.96 296.658L1082.58 296.788C1082.39 296.852 1082.29 297.054 1082.36 297.239L1085.43 306.209C1085.5 306.394 1085.7 306.493 1085.88 306.429L1086.27 306.299C1086.45 306.235 1086.55 306.033 1086.49 305.848L1083.41 296.878C1083.35 296.693 1083.14 296.594 1082.96 296.658Z" fill="#F9C9B3"/>
<path d="M1084.5 297.789L1084.87 297.662C1085.06 297.596 1085.26 297.701 1085.32 297.882L1088.4 306.852C1088.46 307.043 1088.36 307.241 1088.18 307.303L1087.8 307.43C1087.61 307.496 1087.42 307.391 1087.35 307.21L1084.28 298.24C1084.21 298.05 1084.32 297.852 1084.5 297.789Z" fill="#E36563"/>
<path d="M1085.89 297.323L1086.26 297.196C1086.45 297.13 1086.65 297.235 1086.71 297.416L1089.49 305.506C1089.55 305.697 1089.45 305.895 1089.27 305.957L1088.89 306.088C1088.7 306.153 1088.5 306.049 1088.44 305.867L1085.66 297.777C1085.6 297.587 1085.7 297.389 1085.88 297.327L1085.89 297.323Z" fill="#E36563"/>
<path d="M1086.72 295.188L1087.09 295.06C1087.28 294.995 1087.48 295.099 1087.54 295.281L1090.32 303.371C1090.38 303.562 1090.28 303.76 1090.1 303.822L1089.72 303.953C1089.52 304.018 1089.33 303.913 1089.26 303.732L1086.49 295.641C1086.43 295.451 1086.53 295.253 1086.71 295.191L1086.72 295.188Z" fill="#E36563"/>
<path d="M1082.43 290.864L1083.9 290.357C1085.06 289.958 1086.34 290.575 1086.74 291.745L1088.39 296.561C1088.79 297.722 1088.17 298.998 1087.01 299.399L1085.53 299.907C1084.36 300.308 1083.09 299.688 1082.69 298.518L1081.04 293.703C1080.64 292.542 1081.26 291.266 1082.43 290.864Z" fill="#F9C9B3"/>
<path d="M1079.84 294.447L1080.27 294.298C1080.49 294.223 1080.72 294.336 1080.8 294.554L1082.71 300.123C1082.78 300.341 1082.67 300.572 1082.45 300.647L1082.02 300.796C1081.8 300.871 1081.57 300.758 1081.49 300.54L1079.58 294.971C1079.51 294.753 1079.62 294.522 1079.84 294.447Z" fill="#F9C9B3"/>
<path fill-rule="evenodd" clip-rule="evenodd" d="M1004.74 273.491L993.784 303.83C992.912 306.256 990.967 307.8 989.443 307.253C987.919 306.707 987.718 304.338 988.236 301.855L994.761 270.241C995.987 264.315 999.044 264.325 1001.82 265.025C1004.46 265.696 1006.53 268.553 1004.75 273.491H1004.74Z" fill="#A3A4A5"/>
<path fill-rule="evenodd" clip-rule="evenodd" d="M992.528 303.36L994.109 305.086C994.493 305.499 994.464 306.151 994.042 306.534C993.63 306.918 992.979 306.889 992.595 306.467L991.014 304.741C990.631 304.329 990.66 303.677 991.082 303.293C991.494 302.91 992.145 302.938 992.528 303.36Z" fill="#F9C9B3"/>
<path d="M988.059 316.364L990.752 307.873C990.813 307.681 991.015 307.585 991.198 307.643L991.517 307.744C991.709 307.805 991.806 308.007 991.748 308.19L989.055 316.68C988.994 316.872 988.792 316.969 988.61 316.911L988.29 316.809C988.098 316.748 988.001 316.547 988.059 316.364Z" fill="#F9C9B3"/>
<path d="M986.276 317.359L988.969 308.868C989.03 308.676 989.232 308.579 989.414 308.637L989.734 308.739C989.926 308.8 990.023 309.002 989.965 309.184L987.272 317.675C987.211 317.867 987.009 317.964 986.827 317.906L986.507 317.804C986.315 317.743 986.218 317.541 986.276 317.359Z" fill="#F9C9B3"/>
<path d="M985.202 316.099L987.631 308.44C987.692 308.248 987.894 308.151 988.076 308.209L988.396 308.311C988.588 308.372 988.685 308.574 988.627 308.756L986.197 316.415C986.137 316.607 985.935 316.704 985.752 316.646L985.433 316.545C985.241 316.484 985.144 316.282 985.202 316.099Z" fill="#F9C9B3"/>
<path d="M984.373 314.092L986.802 306.433C986.863 306.241 987.065 306.144 987.247 306.202L987.567 306.304C987.759 306.365 987.856 306.567 987.798 306.749L985.368 314.408C985.307 314.6 985.106 314.697 984.923 314.639L984.604 314.538C984.412 314.477 984.315 314.275 984.373 314.092Z" fill="#F9C9B3"/>
<path d="M986.088 307.54L987.465 303.199C987.836 302.029 989.09 301.371 990.268 301.745L991.428 302.114C992.597 302.485 993.254 303.74 992.88 304.919L991.503 309.26C991.132 310.43 989.878 311.088 988.7 310.714L987.54 310.345C986.371 309.974 985.714 308.719 986.088 307.54Z" fill="#F9C9B3"/>
<path d="M991.483 310.85L993.15 305.595C993.219 305.376 993.448 305.257 993.667 305.327L994.042 305.446C994.261 305.515 994.379 305.744 994.31 305.963L992.643 311.218C992.573 311.438 992.345 311.556 992.126 311.487L991.751 311.368C991.532 311.298 991.413 311.069 991.483 310.85Z" fill="#F9C9B3"/>
<path d="M1045.37 188.641C1050.52 188.641 1054.69 184.468 1054.69 179.32C1054.69 174.173 1050.52 170 1045.37 170C1040.23 170 1036.06 174.173 1036.06 179.32C1036.06 184.468 1040.23 188.641 1045.37 188.641Z" fill="#232017"/>
<path d="M1133.07 271.133H1124.87V287.74H1133.07V271.133Z" fill="#F9C9B3"/>
<path fill-rule="evenodd" clip-rule="evenodd" d="M1114.58 292.602C1112.13 293.331 1110.72 295.939 1111.45 298.393L1122.53 335.761C1123.26 338.215 1125.87 339.625 1128.32 338.896C1130.78 338.167 1132.18 335.559 1131.46 333.105L1120.37 295.737C1119.64 293.283 1117.03 291.873 1114.58 292.602Z" fill="#E36563"/>
<path fill-rule="evenodd" clip-rule="evenodd" d="M1099.39 323.938L1089.84 298.7C1089.09 296.715 1087.43 295.411 1086.14 295.785C1084.86 296.169 1084.72 298.058 1085.17 300.081L1090.64 324.743C1091.55 328.838 1093.98 330.631 1096.24 330.333C1098.59 330.027 1100.73 327.476 1099.39 323.938H1099.39Z" fill="#F9C9B3"/>
<path fill-rule="evenodd" clip-rule="evenodd" d="M1088.92 297.099L1090.02 295.593C1090.29 295.229 1090.18 294.711 1089.78 294.443C1089.39 294.174 1088.85 294.251 1088.58 294.615L1087.47 296.121C1087.21 296.485 1087.32 297.003 1087.71 297.271C1088.11 297.54 1088.65 297.463 1088.92 297.099Z" fill="#F9C9B3"/>
<path fill-rule="evenodd" clip-rule="evenodd" d="M1087.62 293.225L1084.35 286.81C1084.26 286.628 1084.03 286.542 1083.83 286.618L1083.73 286.666C1083.54 286.743 1083.46 286.964 1083.56 287.146L1086.82 293.561C1086.92 293.743 1087.15 293.829 1087.34 293.752L1087.45 293.704C1087.64 293.628 1087.71 293.407 1087.62 293.225Z" fill="#F9C9B3"/>
<path fill-rule="evenodd" clip-rule="evenodd" d="M1086 292.583L1082.73 286.168C1082.64 285.986 1082.41 285.899 1082.21 285.976L1082.11 286.024C1081.92 286.101 1081.84 286.321 1081.94 286.503L1085.2 292.918C1085.3 293.1 1085.53 293.187 1085.72 293.11L1085.83 293.062C1086.02 292.985 1086.1 292.765 1086 292.583Z" fill="#F9C9B3"/>
<path fill-rule="evenodd" clip-rule="evenodd" d="M1084.94 293.024L1081.99 287.251C1081.9 287.069 1081.67 286.983 1081.48 287.059L1081.37 287.107C1081.18 287.184 1081.1 287.405 1081.2 287.587L1084.14 293.359C1084.24 293.541 1084.47 293.628 1084.66 293.551L1084.76 293.503C1084.96 293.426 1085.03 293.206 1084.94 293.024Z" fill="#F9C9B3"/>
<path fill-rule="evenodd" clip-rule="evenodd" d="M1084.49 294.692L1081.55 288.92C1081.46 288.737 1081.23 288.651 1081.04 288.728L1080.93 288.776C1080.74 288.853 1080.66 289.073 1080.76 289.255L1083.7 295.028C1083.8 295.21 1084.03 295.296 1084.22 295.219L1084.32 295.172C1084.51 295.095 1084.59 294.874 1084.49 294.692Z" fill="#F9C9B3"/>
<path fill-rule="evenodd" clip-rule="evenodd" d="M1088.8 295.382L1087.53 292.899C1086.95 291.758 1085.5 291.221 1084.31 291.72C1083.13 292.218 1082.64 293.561 1083.21 294.702L1084.48 297.185C1085.06 298.326 1086.51 298.863 1087.7 298.365C1088.88 297.866 1089.38 296.524 1088.8 295.382Z" fill="#F9C9B3"/>
<path fill-rule="evenodd" clip-rule="evenodd" d="M1090.04 294.788L1088.06 290.895C1087.95 290.684 1087.69 290.579 1087.46 290.674L1087.33 290.722C1087.11 290.818 1087.02 291.068 1087.13 291.279L1089.11 295.172C1089.22 295.382 1089.49 295.488 1089.72 295.392L1089.84 295.344C1090.06 295.248 1090.16 294.999 1090.04 294.788Z" fill="#F9C9B3"/>
<path fill-rule="evenodd" clip-rule="evenodd" d="M1110.34 324.916L1110.24 298.595C1108.89 287.999 1112.08 285.065 1121.12 285.372H1138.48C1142.15 285.372 1145.61 289.255 1144.38 295.507L1144.01 324.925H1110.34V324.916Z" fill="#FC5E48"/>
<path fill-rule="evenodd" clip-rule="evenodd" d="M1144.12 285.957C1137.13 285.957 1131.46 291.633 1131.46 298.633C1131.46 305.633 1137.13 311.309 1144.12 311.309C1151.12 311.309 1156.79 305.633 1156.79 298.633C1156.79 291.633 1151.12 285.957 1144.12 285.957ZM1144.12 289.879C1148.96 289.879 1152.88 293.8 1152.88 298.643C1152.88 303.485 1148.96 307.407 1144.12 307.407C1139.28 307.407 1135.37 303.485 1135.37 298.643C1135.37 293.8 1139.28 289.879 1144.12 289.879Z" fill="#232017"/>
<path fill-rule="evenodd" clip-rule="evenodd" d="M1110.03 329.921L1144.23 329.95L1143.31 344.189L1110.04 344.429L1110.03 329.921Z" fill="#A3A4A5"/>
<path fill-rule="evenodd" clip-rule="evenodd" d="M1122.8 344.486L1087.18 377.059C1084.8 379.236 1081.81 378.699 1080.04 377.069C1078.14 375.324 1077.64 372.332 1079.79 369.83L1111 333.431C1114.71 329.106 1119.96 329.94 1122.92 333.057C1125.51 335.78 1126.88 340.747 1122.79 344.477L1122.8 344.486Z" fill="#A3A4A5"/>
<path fill-rule="evenodd" clip-rule="evenodd" d="M1086.58 371.68L1121.42 397.963C1122.47 398.749 1122.74 399.612 1122.47 400.207C1122.12 400.993 1120.86 401.338 1119.26 400.504L1081.25 380.531C1077.72 378.68 1077.37 375.218 1079.06 372.735C1080.55 370.568 1083.48 369.35 1086.57 371.68H1086.58Z" fill="#A3A4A5"/>
<path fill-rule="evenodd" clip-rule="evenodd" d="M1119.42 400.389L1114.68 406.382C1113.5 407.878 1114.03 408.29 1115.4 407.35L1123.25 401.961C1123.69 401.655 1124.04 401.003 1123.81 400.667L1122.67 399.046C1122.37 398.625 1121.99 398.73 1121.9 398.788L1119.42 400.389Z" fill="#3A1E33"/>
<path fill-rule="evenodd" clip-rule="evenodd" d="M1143.56 339.021L1139.79 387.166C1139.54 390.378 1136.99 392.037 1134.59 392.056C1132.01 392.075 1129.61 390.234 1129.46 386.936L1127.39 339.021C1127.14 333.335 1131.55 330.353 1135.84 330.602C1139.59 330.823 1143.99 333.517 1143.56 339.021Z" fill="#A3A4A5"/>
<path fill-rule="evenodd" clip-rule="evenodd" d="M1139.71 386.859L1147.3 429.855C1147.53 431.15 1147.13 431.955 1146.53 432.214C1145.73 432.559 1144.57 431.945 1143.98 430.239L1129.78 389.697C1128.47 385.939 1130.57 383.158 1133.5 382.506C1136.06 381.931 1139.04 383.043 1139.71 386.859Z" fill="#A3A4A5"/>
<path fill-rule="evenodd" clip-rule="evenodd" d="M1144.43 430.469L1140.08 436.749C1139 438.312 1139.55 438.696 1140.87 437.67L1148.36 431.792C1148.78 431.456 1149.09 430.776 1148.83 430.459L1147.58 428.915C1147.26 428.513 1146.88 428.637 1146.8 428.704L1144.43 430.469Z" fill="#3A1E33"/>
<path d="M1144.23 324.475H1110.04V329.95H1144.23V324.475Z" fill="#FC5E48"/>
<path fill-rule="evenodd" clip-rule="evenodd" d="M1135.46 312.335C1128.88 312.335 1123.53 317.676 1123.53 324.273C1123.53 330.87 1128.87 336.211 1135.46 336.211C1142.05 336.211 1147.39 330.87 1147.39 324.273C1147.39 317.676 1142.05 312.335 1135.46 312.335Z" fill="#EAC93D"/>
<path fill-rule="evenodd" clip-rule="evenodd" d="M1155.56 326.824L1129.03 322.02C1126.95 321.646 1124.97 322.394 1124.63 323.698C1124.3 325.002 1125.85 326.095 1127.81 326.747L1151.75 334.744C1155.73 336.068 1158.52 334.907 1159.43 332.817C1160.37 330.64 1159.28 327.495 1155.56 326.824Z" fill="#F9C9B3"/>
<path fill-rule="evenodd" clip-rule="evenodd" d="M1128.83 322.528L1128.19 320.773C1128.03 320.352 1127.55 320.15 1127.1 320.332C1126.66 320.515 1126.42 321.004 1126.57 321.426L1127.21 323.18C1127.36 323.602 1127.85 323.804 1128.3 323.621C1128.74 323.439 1128.98 322.95 1128.83 322.528Z" fill="#F9C9B3"/>
<path fill-rule="evenodd" clip-rule="evenodd" d="M1124.89 321.464L1117.74 320.62C1117.54 320.591 1117.34 320.745 1117.3 320.946L1117.28 321.061C1117.25 321.263 1117.38 321.445 1117.58 321.473L1124.73 322.317C1124.93 322.346 1125.13 322.193 1125.17 321.991L1125.19 321.876C1125.23 321.675 1125.09 321.493 1124.89 321.464Z" fill="#F9C9B3"/>
<path fill-rule="evenodd" clip-rule="evenodd" d="M1123.46 322.452L1116.31 321.608C1116.11 321.579 1115.9 321.732 1115.87 321.934L1115.85 322.049C1115.81 322.25 1115.94 322.432 1116.14 322.461L1123.29 323.305C1123.49 323.334 1123.69 323.18 1123.73 322.979L1123.75 322.864C1123.79 322.662 1123.66 322.48 1123.46 322.452Z" fill="#F9C9B3"/>
<path fill-rule="evenodd" clip-rule="evenodd" d="M1123.23 323.583L1116.81 322.825C1116.6 322.797 1116.4 322.95 1116.36 323.152L1116.35 323.267C1116.31 323.468 1116.44 323.65 1116.64 323.679L1123.07 324.436C1123.27 324.465 1123.47 324.312 1123.51 324.11L1123.53 323.995C1123.57 323.794 1123.44 323.612 1123.23 323.583Z" fill="#F9C9B3"/>
<path fill-rule="evenodd" clip-rule="evenodd" d="M1124.38 324.877L1117.95 324.12C1117.74 324.091 1117.54 324.245 1117.51 324.446L1117.49 324.561C1117.45 324.762 1117.58 324.945 1117.78 324.973L1124.21 325.731C1124.41 325.76 1124.61 325.606 1124.65 325.405L1124.67 325.29C1124.71 325.088 1124.58 324.906 1124.38 324.877Z" fill="#F9C9B3"/>
<path fill-rule="evenodd" clip-rule="evenodd" d="M1127.34 321.675L1124.57 321.349C1123.29 321.195 1122.05 322.106 1121.81 323.372C1121.56 324.638 1122.4 325.798 1123.68 325.951L1126.44 326.277C1127.72 326.431 1128.96 325.52 1129.2 324.254C1129.45 322.989 1128.61 321.828 1127.34 321.675Z" fill="#F9C9B3"/>
<path fill-rule="evenodd" clip-rule="evenodd" d="M1127.54 320.313L1123.2 319.805C1122.96 319.776 1122.73 319.949 1122.68 320.179L1122.65 320.313C1122.6 320.553 1122.76 320.764 1122.99 320.793L1127.34 321.301C1127.58 321.33 1127.81 321.157 1127.85 320.927L1127.88 320.793C1127.93 320.553 1127.77 320.342 1127.54 320.313Z" fill="#F9C9B3"/>
<path fill-rule="evenodd" clip-rule="evenodd" d="M1126.85 265.264C1123.42 265.264 1120.63 268.045 1120.63 271.487C1120.63 272.369 1120.81 273.204 1121.15 273.971C1121.47 274.239 1121.85 274.421 1122.35 274.345C1122.76 274.402 1122.38 275.006 1122.04 275.428C1123.18 276.819 1124.91 277.71 1126.85 277.71C1130.28 277.71 1133.07 274.93 1133.07 271.487C1133.07 268.045 1130.29 265.264 1126.85 265.264Z" fill="#F9C9B3"/>
<path fill-rule="evenodd" clip-rule="evenodd" d="M1126.97 271.305L1133.03 272.993C1133.17 272.446 1133.24 271.88 1133.24 271.305C1133.24 267.709 1130.43 264.794 1126.96 264.794C1124.72 264.794 1122.65 266.031 1121.53 268.045L1126.96 271.296L1126.97 271.305Z" fill="#20212F" stroke="#4E2944" stroke-width="0.24" stroke-miterlimit="22.93"/>
<path fill-rule="evenodd" clip-rule="evenodd" d="M1127.43 269.445C1126.37 269.445 1125.52 270.308 1125.52 271.363C1125.52 272.417 1126.38 273.28 1127.43 273.28C1128.49 273.28 1129.35 272.417 1129.35 271.363C1129.35 270.308 1128.49 269.445 1127.43 269.445Z" fill="#E36563"/>
<path fill-rule="evenodd" clip-rule="evenodd" d="M1121.17 272.83L1121.09 269.196C1120.79 270.126 1120.47 271.027 1119.4 271.353C1118.67 271.823 1120.95 272.83 1121.17 272.83Z" fill="#F9C9B3"/>
<path fill-rule="evenodd" clip-rule="evenodd" d="M1139.34 290.454C1136.97 291.413 1135.82 294.146 1136.77 296.514L1151.37 332.644C1152.32 335.022 1155.06 336.173 1157.42 335.214C1159.8 334.255 1160.95 331.522 1159.99 329.154L1145.4 293.024C1144.44 290.646 1141.71 289.495 1139.34 290.454Z" fill="#CC4D3B"/>
<path d="M1270.35 171.927C1282.3 171.927 1292 181.631 1292 193.588V253.566C1292 265.523 1282.3 275.227 1270.35 275.227C1258.41 275.227 1248.71 265.523 1248.71 253.566V193.588C1248.71 181.631 1258.41 171.927 1270.35 171.927Z" fill="#232017"/>
<path fill-rule="evenodd" clip-rule="evenodd" d="M1243.28 205.632H1227.76C1229.5 208.039 1232.32 209.602 1235.52 209.602C1238.73 209.602 1241.54 208.039 1243.29 205.632H1243.28Z" fill="#20212F"/>
<path d="M1242.5 183.875H1229.51V210.234H1242.5V183.875Z" fill="#F9C9B3"/>
<path fill-rule="evenodd" clip-rule="evenodd" d="M1220.63 216.371L1215.7 217.838C1213.17 218.586 1211.71 221.281 1212.46 223.812L1231.52 288.028C1232.27 290.559 1234.96 292.026 1237.49 291.269L1242.42 289.802C1244.95 289.054 1246.42 286.359 1245.66 283.818L1226.61 219.603C1225.87 217.071 1223.17 215.604 1220.64 216.362L1220.63 216.371Z" fill="#E36563"/>
<path fill-rule="evenodd" clip-rule="evenodd" d="M1242.72 262.253L1266.49 297.847C1268.36 300.637 1271.4 302.066 1273.26 301.021C1275.11 299.976 1274.65 296.993 1273.24 294.04L1255.96 257.881C1253.1 251.878 1248.69 249.98 1245.3 251.245C1241.77 252.559 1239.39 257.277 1242.72 262.263V262.253Z" fill="#F9C9B3"/>
<path fill-rule="evenodd" clip-rule="evenodd" d="M1268.49 299.985L1267.32 302.708C1267.04 303.36 1267.38 304.127 1268.09 304.396C1268.8 304.674 1269.62 304.358 1269.89 303.706L1271.06 300.982C1271.34 300.33 1271 299.563 1270.29 299.295C1269.58 299.017 1268.76 299.333 1268.49 299.985Z" fill="#F9C9B3"/>
<path fill-rule="evenodd" clip-rule="evenodd" d="M1271.74 305.336L1279.37 314.426C1279.51 314.579 1279.75 314.618 1279.92 314.493L1280.43 314.128C1280.59 314.004 1280.62 313.783 1280.49 313.62L1272.87 304.53C1272.73 304.377 1272.49 304.338 1272.32 304.463L1271.81 304.827C1271.65 304.952 1271.62 305.173 1271.74 305.336Z" fill="#F9C9B3"/>
<path fill-rule="evenodd" clip-rule="evenodd" d="M1274.48 305.758L1282.11 314.848C1282.25 315.001 1282.49 315.039 1282.66 314.915L1283.17 314.55C1283.33 314.426 1283.36 314.205 1283.23 314.042L1275.61 304.952C1275.47 304.799 1275.23 304.76 1275.06 304.885L1274.55 305.249C1274.39 305.374 1274.36 305.595 1274.48 305.758Z" fill="#F9C9B3"/>
<path fill-rule="evenodd" clip-rule="evenodd" d="M1275.97 304.684L1282.86 312.892C1282.99 313.045 1283.23 313.083 1283.41 312.959L1283.91 312.594C1284.08 312.47 1284.1 312.249 1283.98 312.086L1277.09 303.878C1276.96 303.725 1276.72 303.686 1276.54 303.811L1276.04 304.175C1275.87 304.3 1275.85 304.521 1275.97 304.684Z" fill="#F9C9B3"/>
<path fill-rule="evenodd" clip-rule="evenodd" d="M1276.06 301.951L1282.95 310.159C1283.08 310.312 1283.32 310.351 1283.49 310.226L1284 309.861C1284.16 309.737 1284.19 309.516 1284.07 309.353L1277.18 301.145C1277.04 300.992 1276.8 300.954 1276.63 301.078L1276.12 301.443C1275.96 301.567 1275.93 301.788 1276.06 301.951Z" fill="#F9C9B3"/>
<path fill-rule="evenodd" clip-rule="evenodd" d="M1268.42 301.548L1273.02 307.033C1273.84 308.02 1275.38 308.203 1276.42 307.455L1278.65 305.844C1279.7 305.096 1279.88 303.677 1279.05 302.689L1274.46 297.204C1273.63 296.217 1272.1 296.035 1271.05 296.782L1268.82 298.393C1267.78 299.141 1267.59 300.56 1268.42 301.548Z" fill="#F9C9B3"/>
<path fill-rule="evenodd" clip-rule="evenodd" d="M1267.42 303.763L1272.2 309.468C1272.36 309.651 1272.65 309.689 1272.84 309.545L1273.43 309.123C1273.62 308.979 1273.66 308.72 1273.51 308.538L1268.73 302.843C1268.57 302.66 1268.29 302.622 1268.09 302.766L1267.51 303.188C1267.32 303.332 1267.28 303.59 1267.43 303.773L1267.42 303.763Z" fill="#F9C9B3"/>
<path fill-rule="evenodd" clip-rule="evenodd" d="M1205.93 206.926C1201.4 208.71 1199.16 213.869 1200.95 218.394L1210.29 242.079L1226.72 235.587L1217.39 211.903C1215.6 207.377 1210.45 205.143 1205.93 206.926Z" fill="#2D8125"/>
<path d="M1224.94 231.327L1208.34 237.879L1210.28 242.785L1226.87 236.232L1224.94 231.327Z" fill="#43B046"/>
<path fill-rule="evenodd" clip-rule="evenodd" d="M1211.44 268.371L1202.17 226.286C1197.79 210.225 1200.25 205.622 1216.06 205.622H1270.82C1278.62 205.622 1284.63 212.507 1280.19 221.703L1264.85 268.371H1211.44Z" fill="#FC5E48"/>
<path fill-rule="evenodd" clip-rule="evenodd" d="M1210.95 276.31L1265.2 276.358L1263.74 298.95L1210.96 299.323L1210.95 276.31Z" fill="#232017"/>
<path fill-rule="evenodd" clip-rule="evenodd" d="M1234.46 295.766L1199.6 363.98C1197.27 368.525 1192.54 369.398 1189 367.96C1185.21 366.416 1182.81 362.245 1184.62 357.335L1210.8 285.899C1213.91 277.423 1222.19 275.735 1228.31 278.727C1233.66 281.335 1238.46 287.961 1234.47 295.766H1234.46Z" fill="#232017"/>
<path fill-rule="evenodd" clip-rule="evenodd" d="M1200.12 363.3L1167.31 424.303C1166.32 426.135 1165.05 426.758 1164.04 426.489C1162.72 426.135 1161.88 424.236 1162.81 421.522L1184.97 357.077C1187.02 351.103 1192.37 349.712 1196.67 351.774C1200.43 353.577 1203.03 357.892 1200.13 363.3H1200.12Z" fill="#232017"/>
<path fill-rule="evenodd" clip-rule="evenodd" d="M1163.03 421.743L1152.5 415.731C1149.87 414.235 1149.35 415.165 1151.15 417.093L1161.48 428.129C1162.06 428.752 1163.17 429.136 1163.64 428.685L1165.9 426.509C1166.5 425.943 1166.24 425.368 1166.13 425.243L1163.03 421.743Z" fill="#3A1E33"/>
<path fill-rule="evenodd" clip-rule="evenodd" d="M1264.14 290.751L1258.17 367.135C1257.76 372.227 1253.73 374.854 1249.92 374.892C1245.82 374.921 1242.01 371.997 1241.78 366.771L1238.5 290.751C1238.11 281.728 1245.11 276.991 1251.91 277.394C1257.85 277.739 1264.83 282.016 1264.15 290.751H1264.14Z" fill="#232017"/>
<path fill-rule="evenodd" clip-rule="evenodd" d="M1258.03 366.637L1270.08 434.851C1270.44 436.903 1269.82 438.178 1268.87 438.59C1267.61 439.127 1265.77 438.159 1264.83 435.465L1242.29 371.143C1240.2 365.179 1243.52 360.768 1248.18 359.733C1252.24 358.822 1256.97 360.586 1258.03 366.637Z" fill="#232017"/>
<path fill-rule="evenodd" clip-rule="evenodd" d="M1265.06 434.391L1253.51 438.082C1250.64 439.003 1250.96 440.019 1253.61 440L1268.72 439.856C1269.57 439.856 1270.6 439.29 1270.59 438.638L1270.52 435.503C1270.5 434.678 1269.9 434.477 1269.74 434.477L1265.07 434.4L1265.06 434.391Z" fill="#3A1E33"/>
<path d="M1265.2 267.671H1210.96V276.358H1265.2V267.671Z" fill="#CC4D3B"/>
<path fill-rule="evenodd" clip-rule="evenodd" d="M1244.56 271.439L1216.11 303.408C1213.88 305.921 1213.27 309.219 1214.74 310.753C1216.22 312.287 1218.99 311.089 1221.49 308.979L1252.12 283.166C1257.2 278.88 1257.94 274.134 1255.86 271.171C1253.7 268.083 1248.55 266.961 1244.55 271.439H1244.56Z" fill="#F9C9B3"/>
<path fill-rule="evenodd" clip-rule="evenodd" d="M1216.63 304.089L1213.73 303.504C1213.03 303.36 1212.36 303.859 1212.23 304.616C1212.11 305.364 1212.58 306.103 1213.28 306.237L1216.18 306.822C1216.88 306.966 1217.55 306.467 1217.67 305.71C1217.8 304.962 1217.33 304.233 1216.63 304.089Z" fill="#F9C9B3"/>
<path fill-rule="evenodd" clip-rule="evenodd" d="M1212.07 308.375L1204.74 317.705C1204.61 317.868 1204.63 318.108 1204.79 318.252L1205.25 318.674C1205.4 318.817 1205.63 318.798 1205.75 318.635L1213.08 309.305C1213.21 309.142 1213.19 308.903 1213.04 308.759L1212.58 308.337C1212.42 308.193 1212.19 308.212 1212.07 308.375Z" fill="#F9C9B3"/>
<path fill-rule="evenodd" clip-rule="evenodd" d="M1212.21 311.146L1204.88 320.476C1204.76 320.639 1204.78 320.879 1204.93 321.023L1205.39 321.445C1205.54 321.589 1205.77 321.569 1205.9 321.406L1213.23 312.076C1213.35 311.913 1213.33 311.674 1213.18 311.53L1212.72 311.108C1212.57 310.974 1212.34 310.983 1212.21 311.146Z" fill="#F9C9B3"/>
<path fill-rule="evenodd" clip-rule="evenodd" d="M1213.56 312.374L1206.94 320.802C1206.82 320.965 1206.84 321.205 1206.99 321.349L1207.45 321.771C1207.6 321.915 1207.83 321.895 1207.96 321.732L1214.58 313.304C1214.7 313.141 1214.68 312.901 1214.53 312.757L1214.07 312.335C1213.92 312.192 1213.69 312.211 1213.56 312.374Z" fill="#F9C9B3"/>
<path fill-rule="evenodd" clip-rule="evenodd" d="M1216.26 311.904L1209.63 320.332C1209.51 320.495 1209.53 320.735 1209.68 320.879L1210.14 321.301C1210.3 321.445 1210.53 321.426 1210.65 321.263L1217.27 312.834C1217.4 312.671 1217.38 312.431 1217.22 312.287L1216.76 311.866C1216.61 311.722 1216.38 311.741 1216.26 311.904Z" fill="#F9C9B3"/>
<path fill-rule="evenodd" clip-rule="evenodd" d="M1215.09 304.338L1210.67 309.967C1209.87 310.974 1210.01 312.518 1210.96 313.381L1212.99 315.241C1213.94 316.113 1215.36 315.998 1216.15 314.982L1220.57 309.353C1221.36 308.346 1221.23 306.812 1220.28 305.94L1218.25 304.079C1217.3 303.207 1215.87 303.322 1215.09 304.338Z" fill="#F9C9B3"/>
<path fill-rule="evenodd" clip-rule="evenodd" d="M1212.72 303.811L1208.12 309.66C1207.98 309.852 1208 310.13 1208.18 310.293L1208.71 310.782C1208.89 310.945 1209.16 310.926 1209.31 310.734L1213.91 304.885C1214.05 304.693 1214.03 304.415 1213.85 304.252L1213.31 303.763C1213.14 303.6 1212.87 303.619 1212.72 303.811Z" fill="#F9C9B3"/>
<path fill-rule="evenodd" clip-rule="evenodd" d="M1232.64 174.564C1227.2 174.564 1222.78 178.985 1222.78 184.431C1222.78 185.831 1223.07 187.164 1223.59 188.362C1224.11 188.794 1224.72 189.072 1225.52 188.957C1226.16 189.053 1225.56 190.012 1225.01 190.673C1226.82 192.879 1229.56 194.288 1232.64 194.288C1238.08 194.288 1242.5 189.868 1242.5 184.421C1242.5 178.975 1238.08 174.555 1232.64 174.555V174.564Z" fill="#F9C9B3"/>
<path fill-rule="evenodd" clip-rule="evenodd" d="M1232.82 184.153L1241.44 189.321C1242.31 187.749 1242.77 185.975 1242.77 184.153C1242.77 178.448 1238.31 173.826 1232.81 173.826C1229.26 173.826 1225.97 175.792 1224.19 178.994L1232.81 184.163L1232.82 184.153Z" fill="#20212F" stroke="#4E2944" stroke-width="0.24" stroke-miterlimit="22.93"/>
<path fill-rule="evenodd" clip-rule="evenodd" d="M1233.56 181.2C1231.87 181.2 1230.51 182.561 1230.51 184.249C1230.51 185.937 1231.87 187.298 1233.56 187.298C1235.25 187.298 1236.61 185.937 1236.61 184.249C1236.61 182.561 1235.25 181.2 1233.56 181.2Z" fill="#E36563"/>
<path fill-rule="evenodd" clip-rule="evenodd" d="M1223.62 186.56L1223.49 180.797C1223.01 182.274 1222.51 183.702 1220.81 184.22C1219.65 184.968 1223.26 186.56 1223.62 186.56Z" fill="#F9C9B3"/>
<path fill-rule="evenodd" clip-rule="evenodd" d="M1269.91 200.195C1258.97 200.195 1250.1 209.074 1250.1 220.025C1250.1 230.975 1258.97 239.854 1269.91 239.854C1280.86 239.854 1289.73 230.975 1289.73 220.025C1289.73 209.074 1280.86 200.195 1269.91 200.195ZM1269.91 206.322C1277.47 206.322 1283.61 212.459 1283.61 220.025C1283.61 227.59 1277.47 233.727 1269.91 233.727C1262.35 233.727 1256.22 227.59 1256.22 220.025C1256.22 212.459 1262.35 206.322 1269.91 206.322Z" fill="#232017"/>
<path fill-rule="evenodd" clip-rule="evenodd" d="M1274.02 208.47C1270.2 207.108 1265.96 209.122 1264.6 212.948L1243.84 271.19C1242.48 275.016 1244.49 279.264 1248.32 280.625C1252.14 281.987 1256.38 279.973 1257.74 276.147L1278.5 217.905C1279.86 214.079 1277.85 209.832 1274.02 208.47Z" fill="#CC4D3B"/>
<path d="M1246.49 197.059H1227.76V205.632H1246.49V197.059Z" fill="#CC4D3B"/>
<path d="M984.963 324.101L912.042 398.255L912.431 398.639L985.352 324.484L984.963 324.101Z" fill="#20212F"/>
<path fill-rule="evenodd" clip-rule="evenodd" d="M941.428 409.594L951.288 409.537C956.165 409.632 958.12 406.439 957.852 404.627H924.43C915.049 404.627 912.05 402.22 909.3 398.02L898.396 381.355L897.994 386.773L884.32 386.581L887.128 391.184L892.867 393.236H888.948L894.793 396.266V411.368C894.496 413.986 893.097 415.491 890.223 415.539L877.048 417.409L876.99 418.003L896.365 418.828C899.373 418.866 901.041 420.449 901.098 423.872L901.261 439.636L902.2 439.732L906.886 424.265C907.834 421.407 909.741 420.007 912.376 419.691H925.465L922.801 439.952L923.472 439.808L932.977 421.791L945.702 439.751L946.219 439.53L939.627 414.034C938.42 410.15 939.531 409.354 941.409 409.604L941.428 409.594Z" fill="#CC4D3B"/>
<path d="M912.644 397.963H894.247V400.83H912.644V397.963Z" fill="#A3A4A5"/>
<path fill-rule="evenodd" clip-rule="evenodd" d="M986.952 311.846C985.006 311.846 983.406 313.438 983.406 315.394V322.308C983.406 324.254 984.997 325.856 986.952 325.856C988.897 325.856 990.497 324.264 990.497 322.308V315.394C990.497 313.448 988.906 311.846 986.952 311.846ZM986.952 313.304C988.255 313.304 989.318 314.359 989.318 315.672C989.318 316.986 988.264 318.041 986.952 318.041C985.639 318.041 984.585 316.986 984.585 315.672C984.585 314.359 985.639 313.304 986.952 313.304Z" fill="#CC4D3B"/>
<path d="M1040.53 205.641H1019.84V211.558H1040.53V205.641Z" fill="#A3A4A5"/>
<path fill-rule="evenodd" clip-rule="evenodd" d="M1030.33 186.569L1039.29 190.184C1039.49 189.417 1039.58 188.621 1039.58 187.825C1039.58 182.791 1035.65 178.707 1030.8 178.707C1027.66 178.707 1024.75 180.442 1023.18 183.271L1030.33 186.579V186.569Z" fill="#232017"/>
<path d="M1038.98 190.232C1039.27 190.357 1039.6 190.232 1039.73 189.935C1039.85 189.647 1039.73 189.312 1039.43 189.187L1015.14 179.301C1014.85 179.176 1014.52 179.301 1014.39 179.598C1014.27 179.886 1014.39 180.222 1014.69 180.346L1038.08 189.849L1038.98 190.232Z" fill="#232017"/>
<path fill-rule="evenodd" clip-rule="evenodd" d="M1233.5 181.411L1243.21 184.997C1243.43 184.134 1243.54 183.252 1243.54 182.36C1243.54 176.722 1239.15 172.157 1233.71 172.157C1230.2 172.157 1226.96 174.104 1225.21 177.259L1233.51 181.42L1233.5 181.411Z" fill="#CC4D3B"/>
<path d="M1242.22 184.575C1242.52 184.709 1242.86 184.575 1242.99 184.268C1243.12 183.971 1242.99 183.626 1242.68 183.491L1217.55 173.26C1217.25 173.136 1216.91 173.26 1216.78 173.567C1216.65 173.864 1216.78 174.209 1217.09 174.344L1241.29 184.172L1242.22 184.575Z" fill="#CC4D3B"/>
<path fill-rule="evenodd" clip-rule="evenodd" d="M1133.11 271.602C1133.25 271.085 1133.32 270.548 1133.32 270.011C1133.32 266.616 1130.66 263.855 1127.38 263.855C1125.27 263.855 1123.31 265.025 1122.25 266.933L1133.11 271.602Z" fill="#CC4D3B"/>
<path d="M1132.08 271.276C1132.26 271.353 1132.48 271.276 1132.56 271.085C1132.63 270.902 1132.56 270.682 1132.37 270.605L1116.79 264.267C1116.6 264.19 1116.38 264.267 1116.31 264.459C1116.23 264.641 1116.31 264.862 1116.5 264.938L1131.5 271.027L1132.08 271.276Z" fill="#CC4D3B"/>
<path fill-rule="evenodd" clip-rule="evenodd" d="M953.502 308.301C953.502 308.301 953.502 308.492 953.502 308.612C953.502 308.612 953.502 308.828 953.502 308.924C953.502 308.924 953.502 309.14 953.502 309.236C953.502 309.236 953.502 309.451 953.502 309.547C953.502 309.643 953.502 309.763 953.502 309.859C953.502 309.859 953.502 310.075 953.502 310.17C953.502 310.17 953.502 310.386 953.502 310.482C953.502 310.482 953.502 310.698 953.502 310.794C953.502 310.794 953.502 311.009 953.502 311.129C953.502 311.249 953.502 311.345 953.502 311.465C953.502 311.465 953.502 311.681 953.479 311.8C953.479 311.8 953.479 312.016 953.455 312.136C953.455 312.256 953.432 312.352 953.408 312.472C953.408 312.472 953.384 312.687 953.361 312.807C953.361 312.927 953.337 313.023 953.314 313.143C953.314 313.143 953.29 313.359 953.266 313.478C953.266 313.598 953.219 313.694 953.219 313.814C953.219 313.934 953.172 314.03 953.148 314.15C953.148 314.269 953.101 314.365 953.077 314.485C953.077 314.605 953.03 314.701 953.006 314.821C952.983 314.941 952.959 315.06 952.936 315.156C952.912 315.276 952.888 315.396 952.865 315.492C952.841 315.612 952.817 315.732 952.77 315.828C952.747 315.947 952.723 316.067 952.676 316.163C952.652 316.283 952.605 316.403 952.581 316.499C952.558 316.619 952.51 316.738 952.487 316.834C952.463 316.954 952.416 317.074 952.392 317.17C952.345 317.29 952.321 317.41 952.274 317.506C952.274 317.506 952.203 317.745 952.156 317.841C952.156 317.841 952.085 318.081 952.038 318.177C952.038 318.177 951.967 318.416 951.92 318.512C951.92 318.512 951.849 318.752 951.802 318.848C951.802 318.848 951.707 319.088 951.684 319.183C951.684 319.183 951.589 319.423 951.542 319.519C951.542 319.519 951.448 319.759 951.4 319.855C951.4 319.855 951.306 320.094 951.259 320.19C951.259 320.19 951.164 320.43 951.117 320.526C951.117 320.526 951.022 320.766 950.975 320.861C950.975 320.861 950.881 321.101 950.81 321.197C950.715 321.437 950.597 321.652 950.479 321.868C950.479 321.868 950.361 322.084 950.314 322.204C950.314 322.204 950.196 322.42 950.148 322.539C950.148 322.539 950.03 322.755 949.96 322.875C949.96 322.875 949.841 323.091 949.771 323.211C949.771 323.211 949.652 323.426 949.582 323.546C949.582 323.546 949.464 323.762 949.393 323.882C949.393 323.882 949.275 324.097 949.204 324.217C949.062 324.433 948.944 324.649 948.802 324.865C948.802 324.865 948.66 325.08 948.59 325.176C948.448 325.392 948.306 325.608 948.164 325.823C948.164 325.823 948.023 326.039 947.952 326.135C947.952 326.135 947.81 326.351 947.716 326.447C947.716 326.447 947.668 326.495 947.668 326.519L947.621 326.566L947.574 326.638L947.55 326.71L947.527 326.782L947.503 326.854H947.479L947.456 326.926V326.974L947.409 326.998V327.046L947.361 327.07V327.118L947.314 327.142V327.19H947.267C947.267 327.19 947.243 327.238 947.22 327.262C947.196 327.286 947.172 327.334 947.125 327.358L947.102 327.405H947.078V327.453H947.054L947.031 327.525L947.007 327.573L946.983 327.621L946.96 327.669L946.936 327.717L946.913 327.765C946.913 327.765 946.842 327.861 946.794 327.885C946.794 327.885 946.794 327.909 946.771 327.909L946.747 327.957L946.724 328.005L946.7 328.053C946.7 328.053 946.7 328.077 946.676 328.101C946.676 328.101 946.676 328.125 946.653 328.149C946.653 328.149 946.653 328.173 946.629 328.173C946.629 328.173 946.487 328.292 946.417 328.34C946.417 328.34 946.417 328.34 946.393 328.364C946.393 328.364 946.393 328.364 946.369 328.388C946.369 328.388 946.369 328.388 946.346 328.412C946.346 328.412 946.346 328.412 946.322 328.412L946.275 336.347L949.038 334.117C949.038 334.117 949.038 334.069 949.015 334.045C949.015 334.045 949.015 334.045 949.015 334.021C949.015 334.021 949.015 334.021 949.015 333.997C949.015 333.997 948.967 333.806 948.944 333.71C948.944 333.71 948.944 333.686 948.944 333.662C948.944 333.662 948.944 333.638 948.944 333.614C948.944 333.614 948.944 333.59 948.944 333.566C948.944 333.566 948.944 333.542 948.944 333.518C948.944 333.518 948.944 333.494 948.944 333.47C948.944 333.47 948.944 333.446 948.944 333.422C948.944 333.422 948.944 333.302 948.944 333.23V333.182V333.134V333.087V333.039V332.991V332.943V332.895V332.847C948.944 332.847 948.944 332.799 948.944 332.775V332.727V332.679C948.944 332.679 948.944 332.655 948.944 332.631V332.559V332.487V332.415V332.343V332.272V332.2V332.128V332.056C948.944 332.056 948.944 332.008 948.944 331.984C948.944 331.984 948.944 331.936 948.944 331.912C948.944 331.912 948.944 331.864 948.944 331.84V331.792V331.72V331.648V331.576V331.528V331.481V331.409V331.313V331.217V331.121V331.025C949.062 330.546 949.204 330.09 949.369 329.635C949.487 329.299 949.605 328.964 949.723 328.628C950.054 327.741 950.432 326.854 950.833 326.015C950.881 325.919 950.928 325.799 950.999 325.704C951.164 325.392 951.306 325.08 951.495 324.769C951.613 324.577 951.731 324.361 951.825 324.169C951.825 324.169 951.944 323.978 951.991 323.882C951.991 323.882 952.109 323.69 952.156 323.594C952.227 323.498 952.274 323.402 952.345 323.306C952.534 323.019 952.699 322.731 952.888 322.444C952.888 322.444 953.006 322.252 953.077 322.156C953.077 322.156 953.195 321.964 953.266 321.892C953.337 321.796 953.384 321.7 953.455 321.629C953.455 321.629 953.597 321.461 953.644 321.365C953.644 321.365 953.786 321.197 953.833 321.101C953.833 321.101 953.975 320.933 954.046 320.837C954.117 320.742 954.187 320.67 954.258 320.574C954.258 320.574 954.4 320.406 954.471 320.334C954.471 320.334 954.613 320.166 954.683 320.094C954.683 320.094 954.825 319.927 954.896 319.855C954.896 319.855 955.038 319.687 955.109 319.615C955.179 319.543 955.25 319.447 955.321 319.375C955.392 319.303 955.463 319.231 955.534 319.136C955.534 319.136 955.675 318.992 955.746 318.92C955.817 318.848 955.888 318.776 955.959 318.704C956.03 318.632 956.101 318.56 956.171 318.488C956.242 318.416 956.313 318.344 956.384 318.273C956.384 318.273 956.526 318.129 956.597 318.057C956.667 317.985 956.738 317.913 956.809 317.841C956.88 317.769 956.951 317.697 957.022 317.649C957.093 317.577 957.163 317.529 957.258 317.458C957.329 317.386 957.4 317.338 957.494 317.266C957.589 317.194 957.636 317.146 957.73 317.074C957.825 317.002 957.872 316.954 957.967 316.882C957.967 316.882 958.108 316.762 958.203 316.714C958.274 316.667 958.344 316.595 958.439 316.547C958.439 316.547 958.581 316.427 958.675 316.379C958.675 316.379 958.84 316.259 958.911 316.211C958.911 316.211 959.053 316.115 959.148 316.067C959.148 316.067 959.313 315.971 959.384 315.923C959.384 315.923 959.549 315.828 959.62 315.78C959.62 315.78 959.785 315.684 959.856 315.636C960.092 315.492 960.329 315.372 960.541 315.252C960.706 315.18 960.848 315.084 961.013 315.013C961.415 314.821 961.793 314.677 962.194 314.557C962.242 314.557 962.313 314.533 962.36 314.509C962.643 314.437 962.903 314.365 963.187 314.341C963.187 314.341 963.399 314.317 963.517 314.293C963.683 314.293 963.848 314.269 964.013 314.245C964.013 314.245 964.131 314.245 964.179 314.245C964.226 314.245 964.297 314.245 964.344 314.245C964.391 314.245 964.462 314.245 964.509 314.245C964.509 314.245 964.627 314.245 964.675 314.245C964.675 314.245 964.793 314.245 964.84 314.245C964.84 314.245 964.934 314.245 965.005 314.245C965.005 314.245 965.1 314.245 965.171 314.245C965.218 314.245 965.265 314.245 965.336 314.245C965.383 314.245 965.43 314.245 965.501 314.245C965.548 314.245 965.596 314.245 965.667 314.269C965.667 314.269 965.761 314.269 965.832 314.293C965.879 314.293 965.926 314.293 965.974 314.317C966.021 314.317 966.068 314.317 966.115 314.341C966.115 314.341 966.328 314.389 966.422 314.413C966.422 314.413 966.517 314.437 966.564 314.461C966.611 314.461 966.659 314.485 966.706 314.509C966.706 314.509 966.8 314.533 966.848 314.557C966.848 314.557 967.036 314.629 967.131 314.677C967.178 314.677 967.225 314.725 967.273 314.725C967.32 314.725 967.367 314.773 967.414 314.797C967.462 314.797 967.509 314.845 967.556 314.869C967.556 314.869 967.651 314.917 967.698 314.941C967.698 314.941 967.792 314.989 967.84 315.013C967.887 315.013 967.934 315.06 967.981 315.084C968.029 315.108 968.076 315.132 968.123 315.156C968.17 315.18 968.217 315.204 968.265 315.228C968.312 315.252 968.359 315.276 968.406 315.3C968.454 315.324 968.501 315.348 968.548 315.396C968.548 315.396 968.643 315.444 968.666 315.492C968.713 315.516 968.761 315.54 968.784 315.588C968.784 315.588 968.879 315.66 968.902 315.684C968.95 315.708 968.997 315.756 969.021 315.78C969.021 315.78 969.115 315.852 969.139 315.875C969.186 315.899 969.21 315.947 969.257 315.971C969.257 315.971 969.328 316.043 969.375 316.067C969.422 316.091 969.446 316.139 969.493 316.163C969.54 316.187 969.564 316.235 969.611 316.259C969.611 316.259 969.682 316.331 969.729 316.379C969.776 316.427 969.8 316.451 969.847 316.499C969.847 316.499 969.918 316.571 969.965 316.619C969.965 316.619 970.036 316.69 970.083 316.738C970.107 316.762 970.131 316.786 970.154 316.834L970.296 316.714C970.438 316.619 970.721 316.595 970.721 316.762C970.721 316.93 970.792 317.098 970.674 317.194L970.556 317.29C972.398 319.615 973.154 322.971 971.146 326.087C968.099 330.809 960.399 334.812 952.345 335.196C950.503 335.292 949.652 335.052 949.156 334.525L946.062 337.018L945.944 356.938L948.826 354.612C948.826 354.612 948.826 354.564 948.802 354.54C948.802 354.54 948.802 354.54 948.802 354.517C948.802 354.517 948.802 354.517 948.802 354.493C948.802 354.493 948.755 354.301 948.731 354.205C948.731 354.205 948.731 354.181 948.731 354.157C948.731 354.157 948.731 354.133 948.731 354.109C948.731 354.109 948.731 354.085 948.731 354.061C948.731 354.061 948.731 354.037 948.731 354.013C948.731 354.013 948.731 353.989 948.731 353.965C948.731 353.965 948.731 353.941 948.731 353.917C948.731 353.917 948.731 353.797 948.731 353.725V353.678V353.63V353.582V353.534V353.486V353.438V353.39V353.342C948.731 353.342 948.731 353.294 948.731 353.27V353.222V353.174C948.731 353.174 948.731 353.15 948.731 353.126V353.054V352.982V352.91V352.839V352.767V352.719V352.695V352.623V352.551C948.731 352.551 948.731 352.503 948.731 352.479C948.731 352.479 948.731 352.431 948.731 352.407C948.731 352.407 948.731 352.359 948.731 352.335V352.287V352.215V352.143V352.072V352.024V351.976V351.904V351.808V351.712V351.616V351.52C948.849 351.041 948.991 350.585 949.156 350.13C949.275 349.794 949.393 349.459 949.511 349.123C949.841 348.236 950.219 347.349 950.621 346.51C950.668 346.414 950.715 346.294 950.786 346.199C950.952 345.887 951.093 345.575 951.282 345.264C951.4 345.072 951.518 344.856 951.613 344.665C951.613 344.665 951.731 344.473 951.778 344.377C951.778 344.377 951.896 344.185 951.944 344.089C952.014 343.993 952.062 343.897 952.133 343.802C952.321 343.514 952.487 343.226 952.676 342.939C952.676 342.939 952.794 342.747 952.865 342.651C952.865 342.651 952.983 342.459 953.054 342.387C953.125 342.291 953.172 342.196 953.243 342.124C953.243 342.124 953.384 341.956 953.432 341.86C953.432 341.86 953.573 341.692 953.621 341.596C953.621 341.596 953.762 341.428 953.833 341.333C953.904 341.237 953.975 341.165 954.046 341.069C954.046 341.069 954.187 340.901 954.258 340.829C954.258 340.829 954.4 340.661 954.471 340.589C954.471 340.589 954.613 340.422 954.683 340.35C954.683 340.35 954.825 340.182 954.896 340.11C954.967 340.038 955.038 339.942 955.109 339.87C955.179 339.798 955.25 339.726 955.321 339.631C955.321 339.631 955.463 339.487 955.534 339.415C955.605 339.343 955.675 339.271 955.746 339.199C955.817 339.127 955.888 339.055 955.959 338.983C956.03 338.911 956.101 338.84 956.171 338.768C956.171 338.768 956.313 338.624 956.384 338.552C956.455 338.48 956.526 338.408 956.597 338.336C956.667 338.264 956.738 338.192 956.809 338.144C956.88 338.073 956.951 338.025 957.045 337.953C957.14 337.881 957.187 337.833 957.282 337.761C957.352 337.689 957.423 337.641 957.518 337.569C957.612 337.497 957.66 337.449 957.754 337.377C957.754 337.377 957.896 337.258 957.99 337.21C958.061 337.162 958.132 337.09 958.226 337.042C958.226 337.042 958.368 336.922 958.463 336.874C958.463 336.874 958.628 336.754 958.699 336.706C958.699 336.706 958.84 336.61 958.935 336.562C958.935 336.562 959.1 336.466 959.171 336.419C959.171 336.419 959.337 336.323 959.407 336.275C959.407 336.275 959.573 336.179 959.644 336.131C959.88 335.987 960.116 335.867 960.329 335.747C960.494 335.675 960.636 335.58 960.801 335.508C961.202 335.316 961.58 335.172 961.982 335.052C962.029 335.052 962.1 335.028 962.147 335.004C962.431 334.932 962.69 334.86 962.974 334.836C962.974 334.836 963.187 334.812 963.305 334.788C963.517 334.765 963.73 334.741 963.966 334.741C964.013 334.741 964.084 334.741 964.131 334.741C964.179 334.741 964.249 334.741 964.297 334.741C964.297 334.741 964.415 334.741 964.462 334.741C964.462 334.741 964.58 334.741 964.627 334.741C964.627 334.741 964.722 334.741 964.793 334.741C964.793 334.741 964.887 334.741 964.958 334.741C965.005 334.741 965.052 334.741 965.123 334.741C965.171 334.741 965.218 334.741 965.289 334.741C965.289 334.741 965.383 334.741 965.454 334.765C965.454 334.765 965.548 334.765 965.619 334.788C965.667 334.788 965.714 334.789 965.761 334.812C965.808 334.812 965.856 334.812 965.903 334.836C965.903 334.836 965.997 334.86 966.044 334.884C966.044 334.884 966.139 334.908 966.186 334.932C966.186 334.932 966.281 334.956 966.328 334.98C966.375 334.98 966.422 335.004 966.47 335.028C966.47 335.028 966.564 335.052 966.611 335.076C966.611 335.076 966.706 335.1 966.753 335.124C966.753 335.124 966.848 335.172 966.895 335.172C966.942 335.172 966.989 335.22 967.036 335.244C967.084 335.244 967.131 335.292 967.178 335.316C967.225 335.316 967.273 335.364 967.32 335.388C967.32 335.388 967.414 335.436 967.462 335.46C967.509 335.46 967.556 335.508 967.603 335.532C967.651 335.532 967.698 335.58 967.745 335.603C967.792 335.627 967.84 335.651 967.887 335.675C967.934 335.699 967.981 335.723 968.029 335.747C968.076 335.771 968.123 335.795 968.17 335.819C968.217 335.843 968.265 335.867 968.312 335.915C968.312 335.915 968.406 335.963 968.43 336.011C968.477 336.035 968.525 336.059 968.548 336.107C968.548 336.107 968.643 336.179 968.666 336.203C968.713 336.227 968.761 336.275 968.784 336.299C968.784 336.299 968.879 336.371 968.902 336.395C968.95 336.419 968.973 336.466 969.021 336.49C969.068 336.514 969.091 336.562 969.139 336.586C969.186 336.61 969.21 336.658 969.257 336.682C969.304 336.706 969.328 336.754 969.375 336.778C969.422 336.802 969.446 336.85 969.493 336.898C969.54 336.946 969.564 336.97 969.611 337.018C969.658 337.066 969.682 337.09 969.729 337.138C969.776 337.186 969.8 337.21 969.847 337.257C969.871 337.281 969.894 337.305 969.918 337.353L970.06 337.234C970.202 337.138 970.485 337.114 970.485 337.281C970.485 337.449 970.556 337.617 970.438 337.713L970.32 337.809C972.162 340.134 972.918 343.49 970.91 346.606C967.863 351.328 960.163 355.332 952.109 355.715C950.267 355.811 949.416 355.571 948.92 355.044L945.708 357.633L945.59 377.409L948.59 374.988C948.59 374.988 948.59 374.94 948.566 374.916C948.566 374.916 948.566 374.916 948.566 374.892C948.566 374.892 948.566 374.892 948.566 374.868C948.566 374.868 948.519 374.676 948.495 374.556C948.495 374.556 948.495 374.532 948.495 374.508C948.495 374.508 948.495 374.484 948.495 374.46C948.495 374.46 948.495 374.436 948.495 374.412C948.495 374.412 948.495 374.388 948.495 374.364C948.495 374.364 948.495 374.34 948.495 374.316C948.495 374.316 948.495 374.293 948.495 374.269C948.495 374.269 948.495 374.149 948.495 374.077V374.029V373.981V373.933V373.885V373.837V373.789V373.741V373.693C948.495 373.693 948.495 373.645 948.495 373.621V373.573V373.525C948.495 373.525 948.495 373.501 948.495 373.477V373.406V373.334V373.262V373.19V373.118V373.07V373.046V372.974V372.902C948.495 372.902 948.495 372.854 948.495 372.83C948.495 372.83 948.495 372.782 948.495 372.758C948.495 372.758 948.495 372.71 948.495 372.686V372.638V372.567V372.495V372.423V372.375V372.327V372.255V372.183V372.087V371.991V371.895C948.613 371.44 948.755 370.961 948.92 370.505C949.038 370.17 949.156 369.834 949.275 369.498C949.605 368.611 949.983 367.724 950.385 366.885C950.432 366.79 950.479 366.67 950.55 366.574C950.715 366.262 950.857 365.951 951.046 365.639C951.164 365.447 951.282 365.232 951.377 365.04C951.377 365.04 951.495 364.848 951.542 364.752C951.542 364.752 951.66 364.56 951.707 364.464C951.778 364.369 951.825 364.273 951.896 364.177C952.085 363.889 952.251 363.601 952.44 363.314C952.44 363.314 952.558 363.122 952.629 363.026C952.629 363.026 952.747 362.834 952.817 362.762C952.888 362.667 952.936 362.571 953.006 362.499C953.006 362.499 953.148 362.331 953.195 362.235C953.195 362.235 953.337 362.067 953.384 361.971C953.384 361.971 953.526 361.804 953.597 361.708C953.668 361.612 953.739 361.54 953.81 361.444C953.81 361.444 953.951 361.276 954.022 361.204C954.022 361.204 954.164 361.037 954.235 360.965C954.235 360.965 954.376 360.797 954.447 360.725C954.447 360.725 954.589 360.557 954.66 360.485C954.731 360.413 954.802 360.317 954.872 360.246C954.943 360.174 955.014 360.102 955.085 360.006C955.085 360.006 955.227 359.862 955.298 359.79C955.368 359.718 955.439 359.646 955.51 359.574C955.581 359.502 955.652 359.431 955.723 359.359C955.794 359.287 955.864 359.215 955.935 359.143C955.935 359.143 956.077 358.999 956.148 358.927C956.219 358.855 956.29 358.783 956.36 358.711C956.431 358.639 956.502 358.568 956.573 358.52C956.644 358.448 956.715 358.4 956.809 358.328C956.904 358.256 956.951 358.208 957.045 358.136C957.116 358.064 957.187 358.016 957.282 357.944C957.376 357.872 957.423 357.824 957.518 357.753C957.518 357.753 957.66 357.633 957.754 357.585C957.825 357.537 957.896 357.465 957.99 357.417C957.99 357.417 958.132 357.297 958.226 357.249L958.463 357.081C958.463 357.081 958.604 356.986 958.699 356.938C958.699 356.938 958.864 356.842 958.935 356.794C958.935 356.794 959.1 356.698 959.171 356.65C959.171 356.65 959.337 356.554 959.407 356.506C959.644 356.362 959.88 356.242 960.092 356.123C960.258 356.051 960.399 355.955 960.565 355.883C960.966 355.691 961.344 355.547 961.746 355.427C961.793 355.427 961.864 355.403 961.911 355.379C962.194 355.308 962.454 355.236 962.738 355.212C962.738 355.212 962.95 355.188 963.068 355.164C963.234 355.164 963.399 355.14 963.564 355.116C963.564 355.116 963.683 355.116 963.73 355.116C963.777 355.116 963.848 355.116 963.895 355.116C963.942 355.116 964.013 355.116 964.06 355.116C964.06 355.116 964.179 355.116 964.226 355.116C964.226 355.116 964.344 355.116 964.391 355.116C964.391 355.116 964.486 355.116 964.556 355.116C964.556 355.116 964.651 355.116 964.722 355.116C964.769 355.116 964.816 355.116 964.887 355.116C964.934 355.116 964.982 355.116 965.052 355.116C965.1 355.116 965.147 355.116 965.218 355.14C965.218 355.14 965.312 355.14 965.383 355.164C965.43 355.164 965.478 355.164 965.525 355.188C965.572 355.188 965.619 355.188 965.667 355.212C965.667 355.212 965.879 355.26 965.974 355.284C965.974 355.284 966.068 355.308 966.115 355.332C966.163 355.332 966.21 355.356 966.257 355.379C966.257 355.379 966.352 355.403 966.399 355.427C966.399 355.427 966.588 355.499 966.682 355.547C966.729 355.547 966.777 355.595 966.824 355.595C966.871 355.595 966.918 355.643 966.966 355.667C967.013 355.667 967.06 355.715 967.107 355.739C967.107 355.739 967.202 355.787 967.249 355.811C967.249 355.811 967.344 355.859 967.391 355.883C967.438 355.883 967.485 355.931 967.533 355.955C967.58 355.979 967.627 356.003 967.674 356.027C967.721 356.051 967.769 356.075 967.816 356.099C967.863 356.123 967.91 356.147 967.958 356.17C968.005 356.194 968.052 356.218 968.099 356.266C968.099 356.266 968.194 356.314 968.217 356.362C968.265 356.386 968.312 356.41 968.336 356.458C968.336 356.458 968.43 356.53 968.454 356.554C968.501 356.578 968.548 356.626 968.572 356.65C968.572 356.65 968.666 356.722 968.69 356.746C968.737 356.77 968.761 356.818 968.808 356.842C968.808 356.842 968.879 356.914 968.926 356.938C968.973 356.962 968.997 357.01 969.044 357.033C969.091 357.057 969.115 357.105 969.162 357.129C969.162 357.129 969.233 357.201 969.28 357.249C969.328 357.297 969.351 357.321 969.398 357.369C969.398 357.369 969.469 357.441 969.517 357.489C969.517 357.489 969.587 357.561 969.635 357.609C969.658 357.633 969.682 357.657 969.706 357.705L969.847 357.585C969.989 357.489 970.272 357.465 970.272 357.633C970.272 357.801 970.343 357.968 970.225 358.064L970.107 358.16C971.949 360.485 972.705 363.841 970.698 366.957C967.651 371.68 959.951 375.683 951.896 376.066C950.054 376.162 949.204 375.923 948.708 375.395L945.377 378.08L945.33 387.86C945.33 388.196 945.047 388.483 944.716 388.483C944.716 388.483 944.669 388.483 944.645 388.483C944.621 388.483 944.598 388.483 944.574 388.483C944.244 388.483 943.96 388.196 943.96 387.86L943.913 378.08L940.583 375.395C940.11 375.899 939.236 376.138 937.394 376.066C929.34 375.683 921.64 371.68 918.593 366.957C916.585 363.841 917.341 360.485 919.183 358.16L919.065 358.064C918.923 357.968 919.018 357.801 919.018 357.633C919.018 357.465 919.325 357.465 919.443 357.585L919.585 357.705C919.585 357.705 919.632 357.657 919.656 357.609C919.703 357.561 919.726 357.537 919.774 357.489C919.774 357.489 919.845 357.417 919.892 357.369C919.892 357.369 919.963 357.297 920.01 357.249C920.057 357.201 920.081 357.177 920.128 357.129C920.128 357.129 920.199 357.057 920.246 357.033C920.293 357.01 920.317 356.962 920.364 356.938C920.411 356.914 920.435 356.866 920.482 356.842C920.482 356.842 920.553 356.77 920.6 356.746C920.648 356.722 920.671 356.674 920.718 356.65C920.718 356.65 920.813 356.578 920.837 356.554C920.884 356.53 920.931 356.482 920.955 356.458C920.955 356.458 921.049 356.386 921.073 356.362C921.12 356.338 921.167 356.314 921.191 356.266C921.191 356.266 921.285 356.218 921.333 356.17C921.38 356.147 921.427 356.123 921.474 356.099C921.522 356.075 921.569 356.051 921.616 356.027C921.663 356.003 921.71 355.979 921.758 355.955C921.805 355.931 921.852 355.907 921.899 355.883C921.947 355.883 921.994 355.835 922.041 355.811C922.041 355.811 922.136 355.763 922.183 355.739C922.183 355.739 922.277 355.691 922.325 355.667C922.372 355.667 922.419 355.619 922.466 355.595C922.514 355.595 922.561 355.547 922.608 355.547C922.702 355.499 922.797 355.475 922.891 355.427C922.891 355.427 922.986 355.403 923.033 355.379C923.033 355.379 923.128 355.355 923.175 355.332C923.222 355.332 923.269 355.308 923.317 355.284C923.317 355.284 923.506 355.236 923.624 355.212C923.624 355.212 923.718 355.212 923.765 355.188C923.813 355.188 923.86 355.188 923.907 355.164C923.954 355.164 924.002 355.164 924.072 355.14C924.072 355.14 924.167 355.14 924.238 355.116C924.285 355.116 924.332 355.116 924.403 355.116C924.45 355.116 924.498 355.116 924.568 355.116C924.616 355.116 924.663 355.116 924.734 355.116C924.734 355.116 924.852 355.116 924.899 355.116C924.899 355.116 924.994 355.116 925.064 355.116C925.064 355.116 925.159 355.116 925.23 355.116C925.23 355.116 925.348 355.116 925.395 355.116C925.442 355.116 925.513 355.116 925.56 355.116C925.608 355.116 925.679 355.116 925.726 355.116C925.891 355.116 926.056 355.116 926.222 355.164C926.222 355.164 926.434 355.188 926.552 355.212C926.836 355.26 927.096 355.308 927.379 355.379C927.379 355.379 927.497 355.403 927.545 355.427C927.922 355.547 928.324 355.691 928.725 355.883C928.891 355.955 929.033 356.027 929.198 356.123C929.434 356.242 929.67 356.362 929.883 356.506C929.883 356.506 930.048 356.602 930.119 356.65C930.119 356.65 930.284 356.746 930.355 356.794C930.355 356.794 930.521 356.89 930.591 356.938C930.591 356.938 930.757 357.033 930.828 357.081C930.828 357.081 930.969 357.177 931.064 357.249C931.064 357.249 931.229 357.369 931.3 357.417C931.3 357.417 931.442 357.537 931.536 357.585C931.607 357.633 931.678 357.705 931.772 357.753C931.772 357.753 931.914 357.872 932.009 357.944C932.103 358.016 932.15 358.064 932.245 358.136C932.316 358.208 932.387 358.256 932.481 358.328C932.552 358.4 932.623 358.448 932.694 358.52C932.764 358.592 932.835 358.663 932.93 358.711C933.001 358.783 933.071 358.855 933.142 358.927C933.213 358.999 933.284 359.071 933.355 359.143C933.355 359.143 933.497 359.287 933.568 359.359C933.638 359.431 933.709 359.502 933.78 359.574C933.851 359.646 933.922 359.718 933.993 359.79C934.064 359.862 934.134 359.934 934.205 360.006C934.205 360.006 934.347 360.15 934.418 360.246C934.489 360.317 934.56 360.389 934.63 360.485C934.701 360.557 934.772 360.653 934.843 360.725C934.843 360.725 934.985 360.893 935.056 360.965C935.056 360.965 935.197 361.132 935.268 361.204C935.268 361.204 935.41 361.372 935.481 361.444C935.481 361.444 935.622 361.612 935.693 361.708C935.764 361.804 935.835 361.876 935.906 361.971C935.906 361.971 936.048 362.139 936.095 362.235C936.095 362.235 936.237 362.403 936.284 362.499C936.284 362.499 936.425 362.667 936.473 362.762C936.544 362.858 936.591 362.954 936.662 363.026C936.662 363.026 936.78 363.218 936.851 363.314C937.04 363.601 937.229 363.889 937.418 364.177C937.418 364.177 937.536 364.369 937.606 364.464C937.677 364.56 937.725 364.656 937.772 364.752C937.772 364.752 937.89 364.944 937.937 365.04C938.055 365.232 938.173 365.447 938.268 365.639C938.433 365.951 938.598 366.262 938.764 366.574C938.764 366.574 938.858 366.79 938.929 366.885C939.331 367.724 939.709 368.611 940.039 369.498C940.157 369.834 940.275 370.17 940.394 370.505C940.535 370.961 940.677 371.416 940.819 371.895V371.967V372.015V372.039V372.087V372.111V372.159V372.183V372.231V372.255V372.303V372.351V372.399V372.423V372.471V372.495V372.543V372.567V372.615C940.819 372.615 940.819 372.662 940.819 372.686C940.819 372.686 940.819 372.734 940.819 372.758C940.819 372.758 940.819 372.806 940.819 372.83V372.878V372.95V373.022V373.07V373.094V373.166V373.238V373.31V373.382C940.819 373.382 940.819 373.43 940.819 373.453V373.501V373.549C940.819 373.549 940.819 373.573 940.819 373.597V373.645V373.717V373.765V373.813V373.861V373.909V373.957V374.005C940.819 374.005 940.819 374.125 940.819 374.197C940.819 374.197 940.819 374.221 940.819 374.245C940.819 374.245 940.819 374.269 940.819 374.292C940.819 374.292 940.819 374.316 940.819 374.34C940.819 374.34 940.819 374.364 940.819 374.388C940.819 374.388 940.819 374.412 940.819 374.436C940.819 374.436 940.819 374.46 940.819 374.484C940.819 374.484 940.771 374.7 940.748 374.772V374.796C940.748 374.796 940.748 374.796 940.748 374.82C940.748 374.82 940.748 374.868 940.724 374.892L943.724 377.313L943.606 357.537L940.394 354.948C939.921 355.451 939.047 355.691 937.205 355.619C929.151 355.236 921.451 351.233 918.404 346.51C916.396 343.394 917.152 340.038 918.994 337.713L918.876 337.617C918.734 337.521 918.829 337.353 918.829 337.186C918.829 337.018 919.136 337.018 919.254 337.138L919.396 337.257C919.396 337.257 919.443 337.21 919.467 337.162C919.514 337.114 919.537 337.09 919.585 337.042C919.632 336.994 919.656 336.97 919.703 336.922C919.75 336.874 919.774 336.85 919.821 336.802C919.868 336.754 919.892 336.73 919.939 336.682C919.986 336.634 920.01 336.61 920.057 336.586C920.104 336.562 920.128 336.514 920.175 336.49C920.222 336.466 920.246 336.419 920.293 336.395C920.341 336.371 920.364 336.323 920.411 336.299C920.459 336.275 920.482 336.227 920.529 336.203C920.529 336.203 920.624 336.131 920.648 336.107C920.695 336.083 920.742 336.035 920.766 336.011C920.766 336.011 920.86 335.939 920.884 335.915C920.931 335.891 920.978 335.867 921.002 335.819C921.002 335.819 921.096 335.771 921.144 335.723C921.191 335.699 921.238 335.675 921.285 335.651C921.333 335.627 921.38 335.604 921.427 335.58C921.474 335.556 921.522 335.532 921.569 335.508C921.616 335.484 921.663 335.46 921.71 335.436C921.758 335.436 921.805 335.388 921.852 335.364C921.899 335.364 921.947 335.316 921.994 335.292C921.994 335.292 922.088 335.244 922.136 335.22C922.183 335.22 922.23 335.172 922.277 335.148C922.325 335.148 922.372 335.1 922.419 335.076C922.466 335.076 922.514 335.028 922.561 335.028C922.561 335.028 922.655 334.98 922.702 334.98C922.702 334.98 922.797 334.956 922.844 334.932C922.844 334.932 922.939 334.908 922.986 334.884C923.033 334.884 923.08 334.86 923.128 334.836C923.128 334.836 923.222 334.812 923.269 334.788C923.269 334.788 923.364 334.765 923.411 334.741C923.411 334.741 923.506 334.741 923.553 334.717C923.6 334.717 923.647 334.717 923.695 334.693C923.742 334.693 923.789 334.693 923.86 334.669C923.86 334.669 923.954 334.669 924.025 334.645C924.025 334.645 924.12 334.645 924.191 334.645C924.238 334.645 924.285 334.645 924.356 334.645C924.403 334.645 924.45 334.645 924.521 334.645C924.521 334.645 924.639 334.645 924.687 334.645C924.687 334.645 924.781 334.645 924.852 334.645C924.852 334.645 924.946 334.645 925.017 334.645C925.017 334.645 925.135 334.645 925.183 334.645C925.23 334.645 925.301 334.645 925.348 334.645C925.56 334.645 925.773 334.645 926.009 334.693C926.009 334.693 926.222 334.717 926.34 334.741C926.623 334.788 926.883 334.836 927.167 334.908C927.167 334.908 927.285 334.932 927.332 334.956C927.71 335.076 928.111 335.22 928.513 335.412C928.678 335.484 928.82 335.556 928.985 335.651C929.222 335.771 929.458 335.891 929.67 336.035C929.67 336.035 929.836 336.131 929.906 336.179C929.906 336.179 930.072 336.275 930.143 336.323C930.143 336.323 930.308 336.419 930.379 336.466C930.379 336.466 930.544 336.562 930.615 336.61C930.615 336.61 930.757 336.706 930.851 336.778C930.851 336.778 931.017 336.898 931.087 336.946C931.087 336.946 931.229 337.066 931.324 337.114C931.395 337.162 931.465 337.234 931.56 337.281C931.56 337.281 931.702 337.401 931.796 337.473C931.891 337.545 931.938 337.593 932.032 337.665C932.103 337.737 932.174 337.785 932.268 337.857C932.339 337.929 932.41 337.977 932.481 338.049C932.552 338.12 932.623 338.192 932.717 338.24C932.788 338.312 932.859 338.384 932.93 338.456C933.001 338.528 933.071 338.6 933.142 338.672C933.142 338.672 933.284 338.816 933.355 338.888C933.426 338.959 933.497 339.031 933.568 339.103C933.638 339.175 933.709 339.247 933.78 339.319C933.851 339.391 933.922 339.463 933.993 339.535C933.993 339.535 934.134 339.679 934.205 339.774C934.276 339.846 934.347 339.942 934.418 340.014C934.489 340.086 934.56 340.182 934.63 340.254C934.63 340.254 934.772 340.422 934.843 340.494C934.843 340.494 934.985 340.661 935.056 340.733C935.056 340.733 935.197 340.901 935.268 340.973C935.268 340.973 935.41 341.141 935.481 341.237C935.552 341.333 935.622 341.404 935.693 341.5C935.693 341.5 935.835 341.668 935.882 341.764C935.882 341.764 936.024 341.932 936.071 342.028C936.071 342.028 936.213 342.195 936.26 342.291C936.331 342.387 936.378 342.483 936.449 342.555C936.449 342.555 936.567 342.747 936.638 342.843C936.827 343.13 937.016 343.418 937.205 343.706C937.205 343.706 937.323 343.897 937.394 343.993C937.465 344.089 937.512 344.185 937.559 344.281C937.559 344.281 937.677 344.473 937.725 344.569C937.843 344.76 937.961 344.976 938.055 345.168C938.221 345.479 938.386 345.791 938.551 346.103C938.551 346.103 938.646 346.318 938.717 346.414C939.118 347.253 939.496 348.14 939.827 349.027C939.945 349.363 940.063 349.698 940.181 350.034C940.323 350.489 940.464 350.945 940.606 351.424V351.496V351.544V351.568V351.616V351.64V351.688V351.712V351.76V351.784V351.832V351.88V351.928V351.952V352V352.024V352.072V352.095V352.143C940.606 352.143 940.606 352.191 940.606 352.215C940.606 352.215 940.606 352.263 940.606 352.287C940.606 352.287 940.606 352.335 940.606 352.359V352.407V352.479V352.551V352.599V352.623V352.695V352.767V352.839V352.91C940.606 352.91 940.606 352.958 940.606 352.982V353.03V353.078C940.606 353.078 940.606 353.102 940.606 353.126V353.174V353.246V353.294V353.342V353.39V353.438V353.486V353.534C940.606 353.534 940.606 353.654 940.606 353.725C940.606 353.725 940.606 353.749 940.606 353.773C940.606 353.773 940.606 353.797 940.606 353.821C940.606 353.821 940.606 353.845 940.606 353.869C940.606 353.869 940.606 353.893 940.606 353.917C940.606 353.917 940.606 353.941 940.606 353.965C940.606 353.965 940.606 353.989 940.606 354.013C940.606 354.013 940.559 354.229 940.535 354.301C940.535 354.301 940.535 354.325 940.535 354.349C940.535 354.349 940.535 354.349 940.535 354.373C940.535 354.373 940.535 354.421 940.512 354.445L943.393 356.77L943.275 336.85L940.181 334.357C939.709 334.86 938.835 335.1 936.992 335.028C928.938 334.645 921.238 330.642 918.191 325.919C916.183 322.803 916.939 319.447 918.782 317.122L918.664 317.026C918.522 316.93 918.616 316.762 918.616 316.595C918.616 316.427 918.923 316.427 919.041 316.547L919.183 316.667C919.183 316.667 919.23 316.619 919.254 316.571C919.301 316.523 919.325 316.499 919.372 316.451C919.372 316.451 919.443 316.379 919.49 316.331C919.49 316.331 919.561 316.259 919.608 316.211C919.656 316.163 919.679 316.139 919.726 316.091C919.726 316.091 919.797 316.019 919.845 315.995C919.892 315.971 919.915 315.923 919.963 315.899C920.01 315.875 920.033 315.828 920.081 315.804C920.081 315.804 920.152 315.732 920.199 315.708C920.246 315.684 920.27 315.636 920.317 315.612C920.317 315.612 920.411 315.54 920.435 315.516C920.482 315.492 920.529 315.444 920.553 315.42C920.553 315.42 920.648 315.372 920.671 315.324C920.718 315.3 920.766 315.276 920.789 315.228C920.789 315.228 920.884 315.18 920.931 315.132C920.978 315.108 921.025 315.084 921.073 315.06C921.12 315.037 921.167 315.013 921.214 314.989C921.262 314.965 921.309 314.941 921.356 314.917C921.403 314.893 921.451 314.869 921.498 314.845C921.545 314.821 921.592 314.797 921.64 314.773C921.64 314.773 921.734 314.725 921.781 314.701C921.781 314.701 921.876 314.653 921.923 314.629C921.97 314.629 922.018 314.581 922.065 314.557C922.112 314.557 922.159 314.509 922.206 314.509C922.301 314.461 922.395 314.437 922.49 314.389C922.49 314.389 922.584 314.365 922.632 314.341C922.632 314.341 922.726 314.317 922.773 314.293C922.821 314.293 922.868 314.269 922.915 314.245C922.915 314.245 923.104 314.198 923.222 314.174C923.222 314.174 923.317 314.174 923.364 314.15C923.411 314.15 923.458 314.15 923.506 314.126C923.553 314.126 923.6 314.126 923.671 314.102C923.671 314.102 923.765 314.102 923.836 314.078C923.883 314.078 923.931 314.078 924.002 314.078C924.049 314.078 924.096 314.078 924.167 314.078C924.214 314.078 924.261 314.078 924.332 314.078C924.332 314.078 924.45 314.078 924.498 314.078C924.498 314.078 924.592 314.078 924.663 314.078C924.663 314.078 924.757 314.078 924.828 314.078C924.828 314.078 924.946 314.078 924.994 314.078C925.041 314.078 925.112 314.078 925.159 314.078C925.206 314.078 925.277 314.078 925.324 314.078C925.49 314.078 925.655 314.078 925.82 314.126C925.82 314.126 926.033 314.15 926.151 314.174C926.434 314.222 926.694 314.269 926.978 314.341C926.978 314.341 927.096 314.365 927.143 314.389C927.521 314.509 927.922 314.653 928.324 314.845C928.489 314.917 928.631 314.989 928.796 315.084C929.033 315.204 929.269 315.324 929.481 315.468C929.481 315.468 929.647 315.564 929.718 315.612C929.718 315.612 929.883 315.708 929.954 315.756C929.954 315.756 930.119 315.852 930.19 315.899C930.19 315.899 930.355 315.995 930.426 316.043C930.426 316.043 930.568 316.139 930.662 316.211C930.662 316.211 930.828 316.331 930.898 316.379C930.898 316.379 931.04 316.499 931.135 316.547C931.206 316.595 931.276 316.667 931.371 316.714C931.371 316.714 931.513 316.834 931.607 316.906C931.702 316.978 931.749 317.026 931.843 317.098C931.914 317.17 931.985 317.218 932.079 317.29C932.15 317.362 932.221 317.41 932.292 317.482C932.363 317.553 932.434 317.625 932.528 317.673C932.599 317.745 932.67 317.817 932.741 317.889C932.812 317.961 932.883 318.033 932.953 318.105C932.953 318.105 933.095 318.249 933.166 318.321C933.237 318.392 933.308 318.464 933.379 318.536C933.449 318.608 933.52 318.68 933.591 318.752C933.662 318.824 933.733 318.896 933.804 318.968C933.804 318.968 933.945 319.112 934.016 319.207C934.087 319.279 934.158 319.375 934.229 319.447C934.3 319.519 934.371 319.615 934.441 319.687C934.441 319.687 934.583 319.855 934.654 319.927C934.654 319.927 934.796 320.094 934.867 320.166C934.867 320.166 935.008 320.334 935.079 320.406C935.079 320.406 935.221 320.574 935.292 320.67C935.363 320.766 935.433 320.837 935.504 320.933C935.504 320.933 935.646 321.101 935.693 321.197C935.693 321.197 935.835 321.365 935.882 321.461C935.882 321.461 936.024 321.652 936.071 321.724C936.142 321.82 936.189 321.916 936.26 321.988C936.26 321.988 936.378 322.18 936.449 322.276C936.638 322.563 936.827 322.827 937.016 323.139C937.016 323.139 937.134 323.33 937.205 323.426C937.276 323.522 937.323 323.618 937.37 323.714C937.37 323.714 937.488 323.906 937.536 324.002C937.654 324.193 937.772 324.409 937.866 324.601C938.032 324.912 938.197 325.224 938.362 325.536C938.362 325.536 938.457 325.751 938.528 325.847C938.929 326.686 939.307 327.573 939.638 328.46C939.756 328.796 939.874 329.131 939.992 329.467C940.134 329.922 940.275 330.378 940.417 330.857V330.929V330.977V331.001V331.049V331.073V331.121V331.145V331.193V331.217V331.265V331.313V331.361V331.385V331.433V331.457V331.504V331.528V331.576C940.417 331.576 940.417 331.624 940.417 331.648C940.417 331.648 940.417 331.696 940.417 331.72C940.417 331.72 940.417 331.768 940.417 331.792V331.84V331.912V331.984V332.056V332.128V332.2V332.272V332.343C940.417 332.343 940.417 332.391 940.417 332.415V332.463V332.511C940.417 332.511 940.417 332.535 940.417 332.559V332.607V332.679V332.727V332.775V332.823V332.871V332.919V332.967C940.417 332.967 940.417 333.087 940.417 333.158C940.417 333.158 940.417 333.182 940.417 333.206C940.417 333.206 940.417 333.23 940.417 333.254C940.417 333.254 940.417 333.278 940.417 333.302C940.417 333.302 940.417 333.326 940.417 333.35C940.417 333.35 940.417 333.374 940.417 333.398C940.417 333.398 940.417 333.422 940.417 333.446C940.417 333.446 940.37 333.662 940.346 333.734C940.346 333.734 940.346 333.758 940.346 333.782C940.346 333.782 940.346 333.782 940.346 333.806C940.346 333.806 940.346 333.854 940.323 333.878L943.086 336.107L943.039 328.173C943.039 328.173 943.039 328.173 943.015 328.173C943.015 328.173 943.015 328.173 942.992 328.149C942.992 328.149 942.992 328.149 942.968 328.125C942.968 328.125 942.968 328.125 942.944 328.101C942.944 328.101 942.803 327.981 942.708 327.933C942.708 327.933 942.708 327.909 942.685 327.909C942.685 327.909 942.685 327.885 942.661 327.861C942.661 327.861 942.661 327.837 942.637 327.813L942.614 327.765L942.59 327.717L942.567 327.669C942.567 327.669 942.567 327.645 942.543 327.621C942.543 327.621 942.472 327.549 942.425 327.501L942.401 327.477L942.378 327.429L942.354 327.382L942.33 327.334L942.307 327.286L942.283 327.238H942.26V327.19H942.236L942.212 327.142C942.212 327.142 942.165 327.046 942.118 327.022C942.118 327.022 942.094 326.974 942.071 326.974V326.95V326.902L942.023 326.878V326.83L941.976 326.806V326.758L941.929 326.734V326.686L941.882 326.662H941.858L941.834 326.59H941.811L941.787 326.519L941.74 326.447L941.693 326.375L941.645 326.303C941.645 326.279 941.598 326.255 941.598 326.231C941.598 326.231 941.456 326.015 941.362 325.919C941.362 325.919 941.22 325.704 941.149 325.608C941.008 325.392 940.866 325.176 940.724 324.96C940.724 324.96 940.583 324.745 940.512 324.649C940.37 324.433 940.228 324.217 940.11 324.002C940.11 324.002 939.968 323.786 939.921 323.666C939.921 323.666 939.803 323.45 939.732 323.33C939.732 323.33 939.614 323.115 939.543 322.995C939.543 322.995 939.425 322.779 939.354 322.659C939.354 322.659 939.236 322.443 939.165 322.324C939.165 322.324 939.047 322.108 939 321.988C939 321.988 938.882 321.772 938.835 321.652C938.717 321.437 938.622 321.197 938.504 320.981C938.504 320.981 938.41 320.742 938.339 320.646C938.339 320.646 938.244 320.406 938.197 320.31C938.197 320.31 938.102 320.07 938.055 319.975C938.055 319.975 937.961 319.735 937.914 319.639C937.914 319.639 937.819 319.399 937.772 319.303C937.772 319.303 937.677 319.064 937.63 318.968C937.63 318.968 937.536 318.728 937.512 318.632C937.512 318.632 937.417 318.392 937.394 318.297C937.394 318.297 937.323 318.057 937.276 317.961C937.276 317.961 937.205 317.721 937.158 317.625C937.158 317.625 937.087 317.386 937.04 317.29C937.04 317.29 936.969 317.05 936.945 316.954C936.921 316.834 936.874 316.714 936.851 316.619C936.827 316.499 936.78 316.379 936.756 316.283C936.733 316.163 936.685 316.043 936.662 315.947C936.638 315.828 936.591 315.708 936.567 315.612C936.544 315.492 936.52 315.372 936.473 315.276C936.449 315.156 936.425 315.036 936.402 314.941C936.378 314.821 936.355 314.701 936.331 314.605C936.307 314.485 936.284 314.389 936.26 314.269C936.26 314.15 936.213 314.054 936.189 313.934C936.189 313.814 936.142 313.718 936.118 313.598C936.118 313.478 936.071 313.383 936.071 313.263C936.071 313.143 936.048 313.047 936.024 312.927C936.024 312.927 936 312.711 935.977 312.591C935.977 312.472 935.953 312.376 935.929 312.256C935.929 312.256 935.906 312.04 935.882 311.92C935.882 311.8 935.882 311.705 935.859 311.585C935.859 311.585 935.859 311.369 935.835 311.249C935.835 311.249 935.835 311.033 935.811 310.914C935.811 310.794 935.811 310.698 935.811 310.578C935.811 310.578 935.811 310.362 935.811 310.266C935.811 310.266 935.811 310.051 935.811 309.955C935.811 309.955 935.811 309.739 935.811 309.643V309.331C935.811 309.331 935.811 309.116 935.811 309.02C935.811 309.02 935.811 308.804 935.811 308.708C935.811 308.708 935.811 308.492 935.811 308.397C935.811 308.397 935.811 308.205 935.811 308.085C935.882 307.174 936 306.311 936.189 305.496C936.26 305.232 936.331 304.993 936.402 304.729C936.402 304.729 936.449 304.609 936.473 304.537C936.473 304.537 936.52 304.417 936.544 304.345C936.638 304.106 936.733 303.866 936.827 303.65C936.827 303.65 936.945 303.435 936.992 303.315C936.992 303.315 937.11 303.099 937.158 303.003C937.158 303.003 937.229 302.907 937.252 302.859C937.252 302.859 937.323 302.763 937.347 302.715C937.347 302.715 937.418 302.62 937.441 302.572C937.441 302.572 937.512 302.476 937.536 302.428C937.536 302.428 937.606 302.332 937.63 302.284C937.63 302.284 937.701 302.188 937.725 302.14C937.725 302.14 937.795 302.044 937.843 301.996C937.843 301.996 937.914 301.9 937.961 301.853C938.008 301.805 938.032 301.757 938.079 301.733C938.079 301.733 938.15 301.637 938.197 301.613C938.244 301.565 938.268 301.541 938.315 301.493C938.315 301.493 938.386 301.421 938.433 301.373C938.433 301.373 938.504 301.301 938.551 301.253C938.598 301.205 938.622 301.181 938.669 301.133C938.669 301.133 938.764 301.061 938.787 301.014C938.835 300.966 938.882 300.942 938.906 300.894C938.953 300.846 939 300.822 939.024 300.798C939.071 300.774 939.118 300.726 939.165 300.702C939.213 300.678 939.26 300.63 939.307 300.606L939.449 300.51C939.449 300.51 939.543 300.438 939.591 300.414C939.638 300.39 939.685 300.342 939.732 300.318C939.779 300.294 939.827 300.246 939.874 300.223C939.874 300.223 939.968 300.175 940.016 300.127C940.063 300.079 940.11 300.079 940.157 300.031C940.205 300.007 940.252 299.983 940.299 299.959C940.346 299.935 940.394 299.911 940.441 299.887C940.488 299.863 940.535 299.839 940.583 299.815C940.63 299.791 940.677 299.767 940.724 299.743C940.771 299.743 940.819 299.695 940.866 299.671C940.913 299.671 940.96 299.623 941.008 299.599C941.055 299.599 941.102 299.551 941.173 299.527C941.22 299.527 941.267 299.479 941.338 299.455C941.338 299.455 941.433 299.408 941.504 299.408C941.551 299.408 941.598 299.36 941.669 299.36C941.716 299.36 941.764 299.336 941.834 299.312C941.882 299.312 941.952 299.288 942 299.264C942.047 299.264 942.118 299.24 942.165 299.216C942.212 299.216 942.283 299.192 942.33 299.168C942.378 299.168 942.448 299.144 942.496 299.12C942.543 299.096 942.614 299.096 942.661 299.072C942.708 299.072 942.779 299.072 942.826 299.048C942.874 299.048 942.944 299.048 942.992 299.024C942.992 299.024 943.11 299.024 943.157 299C943.204 299 943.275 299 943.322 299C943.37 299 943.441 299 943.488 299C943.535 299 943.606 299 943.653 299C943.7 299 943.771 299 943.818 299C943.866 299 943.937 299 943.984 299C944.031 299 944.102 299 944.149 299C944.196 299 944.244 299 944.291 299C944.362 299 944.456 299 944.527 299C944.527 299 944.692 299 944.763 299C944.81 299 944.858 299 944.905 299C944.952 299 945.023 299 945.07 299C945.117 299 945.188 299 945.236 299C945.283 299 945.354 299 945.401 299C945.448 299 945.519 299 945.566 299C945.614 299 945.684 299 945.732 299C945.779 299 945.85 299 945.897 299C945.944 299 946.015 299 946.062 299.024C946.062 299.024 946.18 299.024 946.228 299.048C946.275 299.048 946.346 299.048 946.393 299.072C946.44 299.072 946.511 299.072 946.558 299.12C946.606 299.12 946.676 299.144 946.724 299.168C946.771 299.168 946.842 299.192 946.889 299.216C946.936 299.216 947.007 299.24 947.054 299.264C947.102 299.264 947.172 299.288 947.22 299.312C947.267 299.312 947.338 299.336 947.385 299.36C947.432 299.36 947.479 299.384 947.55 299.408C947.598 299.408 947.645 299.455 947.716 299.455C947.716 299.455 947.81 299.503 947.881 299.527C947.928 299.527 947.975 299.575 948.046 299.599C948.094 299.599 948.141 299.647 948.188 299.671C948.235 299.671 948.283 299.719 948.33 299.743C948.377 299.743 948.424 299.791 948.471 299.815C948.519 299.839 948.566 299.863 948.613 299.887C948.66 299.911 948.708 299.935 948.755 299.959C948.802 299.983 948.849 300.007 948.897 300.031C948.944 300.055 948.991 300.079 949.038 300.127C949.086 300.151 949.133 300.175 949.18 300.223C949.18 300.223 949.275 300.27 949.322 300.318C949.369 300.342 949.416 300.39 949.464 300.414C949.511 300.438 949.558 300.486 949.605 300.51L949.747 300.606C949.747 300.606 949.841 300.678 949.889 300.702C949.936 300.726 949.983 300.774 950.03 300.798C950.078 300.822 950.125 300.87 950.148 300.894C950.196 300.942 950.243 300.966 950.267 301.014C950.314 301.061 950.361 301.085 950.385 301.133C950.385 301.133 950.479 301.205 950.503 301.253C950.55 301.301 950.574 301.325 950.621 301.373C950.621 301.373 950.692 301.445 950.739 301.493C950.739 301.493 950.81 301.565 950.857 301.613C950.904 301.661 950.928 301.709 950.975 301.733C950.975 301.733 951.046 301.829 951.093 301.853C951.14 301.9 951.164 301.948 951.211 301.996C951.211 301.996 951.282 302.092 951.329 302.14C951.329 302.14 951.4 302.236 951.424 302.284C951.424 302.284 951.495 302.38 951.518 302.428C951.518 302.428 951.589 302.524 951.613 302.572C951.613 302.572 951.684 302.668 951.707 302.715C951.707 302.715 951.778 302.811 951.802 302.859C951.802 302.859 951.873 302.955 951.896 303.003C951.896 303.003 952.014 303.219 952.062 303.315C952.062 303.315 952.18 303.53 952.227 303.65C952.321 303.866 952.44 304.106 952.51 304.345C952.51 304.345 952.558 304.465 952.581 304.537C952.581 304.537 952.629 304.657 952.652 304.729C952.723 304.969 952.794 305.232 952.865 305.496C953.054 306.311 953.172 307.174 953.243 308.085L953.502 308.301Z" fill="#A1CAB7"/>
<path fill-rule="evenodd" clip-rule="evenodd" d="M1287.34 407C1289.17 407 1290.67 408.505 1290.67 410.345V421.518C1290.67 423.359 1289.17 424.864 1287.34 424.864C1285.5 424.864 1284 423.359 1284 421.518V410.345C1284 408.505 1285.5 407 1287.34 407Z" fill="#C2CDE1"/>
</g>
<defs>
<clipPath id="clip0_1169_3585">
<rect width="101.08" height="243.51" fill="white" transform="translate(1320 173)"/>
</clipPath>
<clipPath id="clip1_1169_3585">
<rect width="415" height="270" fill="white" transform="translate(877 170)"/>
</clipPath>
</defs>
</svg>
