<svg width="1440" height="488" viewBox="0 0 1440 488" fill="none" xmlns="http://www.w3.org/2000/svg">
<path d="M663 488H1452.45C1458.34 473.235 1470.37 443.815 1476.27 429.075C1526.95 313.828 1430.75 176.436 1295.4 167.48C1201.75 155.141 1115.79 222.934 1037.46 260.327C1022 267.706 990.797 254.633 981.5 252C933.831 238.5 870.422 291.342 834.582 357.795C806.319 410.201 736.023 458.826 663 488Z" fill="#EDE7E4"/>
<path fill-rule="evenodd" clip-rule="evenodd" d="M1037.41 339.574C1031.49 333.082 1022.91 329 1013.37 329C995.493 329 981 343.328 981 361C981 378.672 995.493 393 1013.37 393C1022.92 393 1031.5 388.918 1037.41 382.426C1043.34 388.918 1051.92 393 1061.46 393C1070.99 393 1079.59 388.918 1085.5 382.426C1091.43 388.918 1100.01 393 1109.54 393C1119.08 393 1127.67 388.918 1133.59 382.426C1139.51 388.918 1148.09 393 1157.63 393C1175.51 393 1190 378.672 1190 361C1190 343.328 1175.51 329 1157.63 329C1148.08 329 1139.5 333.082 1133.59 339.574C1127.66 333.082 1119.08 329 1109.54 329C1100.01 329 1091.41 333.082 1085.5 339.574C1079.57 333.082 1070.99 329 1061.46 329C1051.92 329 1043.33 333.082 1037.41 339.574Z" fill="#F7F7EF"/>
<g clip-path="url(#clip0_1169_3586)">
<path d="M1242.44 410.864C1291.04 410.864 1330.43 371.44 1330.43 322.809C1330.43 274.178 1291.04 234.754 1242.44 234.754C1193.85 234.754 1154.46 274.178 1154.46 322.809C1154.46 371.44 1193.85 410.864 1242.44 410.864Z" fill="#FC5E48"/>
<path d="M1317.57 338.959C1323.09 338.959 1327.57 334.477 1327.57 328.948C1327.57 323.419 1323.09 318.936 1317.57 318.936C1312.04 318.936 1307.57 323.419 1307.57 328.948C1307.57 334.477 1312.04 338.959 1317.57 338.959Z" fill="#CC4D3B"/>
<path d="M1297.55 338.959C1303.08 338.959 1307.56 334.477 1307.56 328.948C1307.56 323.419 1303.08 318.936 1297.55 318.936C1292.03 318.936 1287.55 323.419 1287.55 328.948C1287.55 334.477 1292.03 338.959 1297.55 338.959Z" fill="#CC4D3B"/>
<path d="M1281.97 285.227C1309.55 284.716 1331.5 261.925 1330.99 234.322C1330.48 206.719 1307.71 184.756 1280.13 185.267C1252.54 185.778 1230.6 208.568 1231.11 236.171C1231.62 263.775 1254.39 285.737 1281.97 285.227Z" fill="#FC5E48"/>
<path fill-rule="evenodd" clip-rule="evenodd" d="M1256.16 204.433L1194.74 261.689C1191.77 264.45 1187.09 264.285 1184.32 261.315C1181.55 258.346 1181.73 253.657 1184.69 250.887L1246.11 193.631C1249.08 190.87 1253.77 191.035 1256.53 194.004C1259.3 196.974 1259.13 201.663 1256.16 204.433Z" fill="#F9C9B3"/>
<path fill-rule="evenodd" clip-rule="evenodd" d="M1256.16 204.433L1222.44 235.865L1212.88 224.612L1246.11 193.64C1249.08 190.878 1253.76 191.043 1256.53 194.013C1259.3 196.983 1259.13 201.671 1256.16 204.441V204.433Z" fill="#CC4D3B"/>
<path fill-rule="evenodd" clip-rule="evenodd" d="M1087.55 387.064C1090.49 387.098 1089.92 390.719 1089.42 392.404C1088.92 394.088 1089.33 392.673 1089.29 392.812C1088.76 394.496 1086.97 400.14 1086.72 400.939C1086.06 402.823 1085.01 403.588 1083.71 403.605L1058.7 403.327L1059.06 402.111C1064.92 401.512 1073.99 402.346 1080.95 393.298C1082.32 391.527 1081.91 387.003 1087.56 387.072L1087.55 387.064Z" fill="#F78010"/>
<path fill-rule="evenodd" clip-rule="evenodd" d="M1125.21 278.959L1088.35 395.729L1079.04 395.478C1079.7 394.722 1080.91 393.42 1081.59 390.328L1106.31 274.036C1107.4 269.078 1110.5 266.239 1113.93 265.275C1120.65 263.382 1128.6 268.601 1125.21 278.968V278.959Z" fill="#A3A4A5"/>
<path fill-rule="evenodd" clip-rule="evenodd" d="M1313.24 233.695L1287.46 313.64C1286.21 317.504 1282.04 319.64 1278.19 318.398C1274.33 317.156 1272.19 312.971 1273.43 309.116L1299.21 229.171C1300.46 225.307 1304.63 223.171 1308.49 224.412C1312.35 225.663 1314.48 229.839 1313.24 233.695Z" fill="#F9C9B3"/>
<path fill-rule="evenodd" clip-rule="evenodd" d="M1313.24 233.695L1299.09 277.588L1285.27 272.412L1299.21 229.162C1300.46 225.298 1304.63 223.162 1308.48 224.404C1312.35 225.654 1314.48 229.831 1313.24 233.686V233.695Z" fill="#CC4D3B"/>
<path fill-rule="evenodd" clip-rule="evenodd" d="M1249.48 310.731L1134.02 310.436C1125.58 309.046 1121.31 303.237 1122.37 298.192C1123.41 293.243 1127.48 288.685 1137.94 289.544L1254.76 278.829C1264.72 279.654 1268.16 287.842 1267.7 295.839C1267.2 304.384 1262.06 312.676 1249.48 310.722V310.731Z" fill="#A3A4A5"/>
<path fill-rule="evenodd" clip-rule="evenodd" d="M1227.99 290.265L1120.5 284.386C1111.9 283.865 1106.89 278.716 1107.29 273.776C1107.69 268.931 1111.16 264.172 1121.69 263.99L1229.12 259.188C1239.15 259.014 1246.41 265.857 1246.98 273.559C1247.6 281.799 1240.78 290.925 1228 290.265H1227.99Z" fill="#A3A4A5"/>
<path fill-rule="evenodd" clip-rule="evenodd" d="M1269.44 245.182C1277.57 252.146 1280.16 264.085 1277.58 277.023C1274.96 290.204 1271.53 298.792 1262.34 307.926L1209.46 267.836C1214.2 260.456 1219.66 255.619 1226.88 251.061L1247.44 240.111L1247.47 239.842C1255.81 238.54 1263.6 240.19 1269.44 245.191V245.182Z" fill="#A3A4A5"/>
<path fill-rule="evenodd" clip-rule="evenodd" d="M1177.42 205.206C1178.97 204.32 1178.83 201.576 1178.35 200.004C1176.91 195.203 1174.96 190.288 1168.37 183.116L1166.61 184.8C1169.27 188.109 1171.68 196.279 1172.89 201.663C1173.35 205.232 1175.54 206.274 1177.42 205.197L1177.42 205.206Z" fill="#F9C9B3"/>
<path fill-rule="evenodd" clip-rule="evenodd" d="M1183.25 257.99C1186.36 257.408 1188.37 254.013 1187.71 250.453L1178.76 202.01C1178.66 201.515 1178.55 201.046 1178.44 200.621L1172.89 201.663C1172.89 201.836 1172.9 202.019 1172.92 202.201L1176.43 252.572C1176.68 256.175 1180.15 258.572 1183.25 257.981L1183.25 257.99Z" fill="#F9C9B3"/>
<path fill-rule="evenodd" clip-rule="evenodd" d="M1100.21 410.395C1103.09 409.918 1104.26 413.486 1104.57 415.188C1104.88 416.89 1104.61 415.466 1104.63 415.605C1104.91 417.307 1105.85 423.038 1105.99 423.845C1106.24 425.773 1105.59 426.685 1104.34 426.919L1079.88 431L1079.65 429.776C1085.07 428.187 1094.27 427.405 1096.74 417.524C1097.23 415.596 1094.68 411.324 1100.21 410.404L1100.21 410.395Z" fill="#F78010"/>
<path fill-rule="evenodd" clip-rule="evenodd" d="M1140.52 305.252L1104.93 420.094L1096.08 417.298C1096.7 416.664 1097.85 415.596 1098.46 412.479L1120.94 299.946C1123.9 285.133 1145.29 289.874 1140.52 305.243V305.252Z" fill="#A3A4A5"/>
<path d="M1229.78 234.276H1181.02V312.737H1229.78V234.276Z" fill="#24231F"/>
<path fill-rule="evenodd" clip-rule="evenodd" d="M1158.41 221.208V299.669L1181.02 312.737V234.276L1158.41 221.208Z" fill="#3A3935"/>
<path fill-rule="evenodd" clip-rule="evenodd" d="M1165.47 276.78L1181.02 293V270.728L1176.58 266.1L1160.58 249.42L1158.41 247.153V269.425L1165.47 276.78ZM1158.41 236.795L1168.93 247.753L1179.63 258.902L1181.03 260.369V266.907L1177.89 263.634L1158.41 243.333V236.795Z" fill="white"/>
<path d="M1197.89 244.149H1194.34V247.9H1197.89V244.149Z" fill="#EDEDE8"/>
<path d="M1197.89 248.829H1194.34V252.58H1197.89V248.829Z" fill="#EDEDE8"/>
<path d="M1197.89 253.509H1194.34V257.26H1197.89V253.509Z" fill="#EDEDE8"/>
<path d="M1197.89 258.19H1194.34V261.941H1197.89V258.19Z" fill="#EDEDE8"/>
<path d="M1197.89 262.861H1194.34V266.612H1197.89V262.861Z" fill="#EDEDE8"/>
<path d="M1197.89 267.541H1194.34V271.292H1197.89V267.541Z" fill="#EDEDE8"/>
<path d="M1197.89 272.221H1194.34V275.972H1197.89V272.221Z" fill="#EDEDE8"/>
<path d="M1197.89 276.902H1194.34V280.653H1197.89V276.902Z" fill="#EDEDE8"/>
<path d="M1197.89 281.582H1194.34V285.333H1197.89V281.582Z" fill="#EDEDE8"/>
<path d="M1197.89 286.262H1194.34V290.013H1197.89V286.262Z" fill="#EDEDE8"/>
<path d="M1197.89 290.942H1194.34V294.693H1197.89V290.942Z" fill="#EDEDE8"/>
<path d="M1197.89 295.614H1194.34V299.365H1197.89V295.614Z" fill="#EDEDE8"/>
<path d="M1197.89 300.294H1194.34V304.045H1197.89V300.294Z" fill="#EDEDE8"/>
<path d="M1202.18 244.149H1198.63V247.9H1202.18V244.149Z" fill="#EDEDE8"/>
<path d="M1202.18 248.829H1198.63V252.58H1202.18V248.829Z" fill="#EDEDE8"/>
<path d="M1202.18 253.509H1198.63V257.26H1202.18V253.509Z" fill="#EDEDE8"/>
<path d="M1202.18 258.19H1198.63V261.941H1202.18V258.19Z" fill="#EDEDE8"/>
<path d="M1202.18 262.861H1198.63V266.612H1202.18V262.861Z" fill="#EDEDE8"/>
<path d="M1202.18 267.541H1198.63V271.292H1202.18V267.541Z" fill="#EDEDE8"/>
<path d="M1202.18 272.221H1198.63V275.972H1202.18V272.221Z" fill="#EDEDE8"/>
<path d="M1202.18 276.902H1198.63V280.653H1202.18V276.902Z" fill="#EDEDE8"/>
<path d="M1202.18 281.582H1198.63V285.333H1202.18V281.582Z" fill="#EDEDE8"/>
<path d="M1202.18 286.262H1198.63V290.013H1202.18V286.262Z" fill="#EDEDE8"/>
<path d="M1202.18 290.942H1198.63V294.693H1202.18V290.942Z" fill="#EDEDE8"/>
<path d="M1202.18 295.614H1198.63V299.365H1202.18V295.614Z" fill="#EDEDE8"/>
<path d="M1202.18 300.294H1198.63V304.045H1202.18V300.294Z" fill="#EDEDE8"/>
<path d="M1206.45 244.149H1202.91V247.9H1206.45V244.149Z" fill="#EDEDE8"/>
<path d="M1206.45 248.829H1202.91V252.58H1206.45V248.829Z" fill="#EDEDE8"/>
<path d="M1206.45 253.509H1202.91V257.26H1206.45V253.509Z" fill="#EDEDE8"/>
<path d="M1206.45 258.19H1202.91V261.941H1206.45V258.19Z" fill="#EDEDE8"/>
<path d="M1206.45 262.861H1202.91V266.612H1206.45V262.861Z" fill="#EDEDE8"/>
<path d="M1206.45 267.541H1202.91V271.292H1206.45V267.541Z" fill="#EDEDE8"/>
<path d="M1206.45 272.221H1202.91V275.972H1206.45V272.221Z" fill="#EDEDE8"/>
<path d="M1206.45 276.902H1202.91V280.653H1206.45V276.902Z" fill="#EDEDE8"/>
<path d="M1206.45 281.582H1202.91V285.333H1206.45V281.582Z" fill="#EDEDE8"/>
<path d="M1206.45 286.262H1202.91V290.013H1206.45V286.262Z" fill="#EDEDE8"/>
<path d="M1206.45 290.942H1202.91V294.693H1206.45V290.942Z" fill="#EDEDE8"/>
<path d="M1206.45 295.614H1202.91V299.365H1206.45V295.614Z" fill="#EDEDE8"/>
<path d="M1206.45 300.294H1202.91V304.045H1206.45V300.294Z" fill="#EDEDE8"/>
<path d="M1210.73 244.149H1207.18V247.9H1210.73V244.149Z" fill="#EDEDE8"/>
<path d="M1210.73 248.829H1207.18V252.58H1210.73V248.829Z" fill="#EDEDE8"/>
<path d="M1210.73 253.509H1207.18V257.26H1210.73V253.509Z" fill="#EDEDE8"/>
<path d="M1210.73 258.19H1207.18V261.941H1210.73V258.19Z" fill="#EDEDE8"/>
<path d="M1210.73 262.861H1207.18V266.612H1210.73V262.861Z" fill="#EDEDE8"/>
<path d="M1210.73 267.541H1207.18V271.292H1210.73V267.541Z" fill="#EDEDE8"/>
<path d="M1210.73 272.221H1207.18V275.972H1210.73V272.221Z" fill="#EDEDE8"/>
<path d="M1210.73 276.902H1207.18V280.653H1210.73V276.902Z" fill="#EDEDE8"/>
<path d="M1210.73 281.582H1207.18V285.333H1210.73V281.582Z" fill="#EDEDE8"/>
<path d="M1210.73 286.262H1207.18V290.013H1210.73V286.262Z" fill="#EDEDE8"/>
<path d="M1210.73 290.942H1207.18V294.693H1210.73V290.942Z" fill="#EDEDE8"/>
<path d="M1210.73 295.614H1207.18V299.365H1210.73V295.614Z" fill="#EDEDE8"/>
<path d="M1210.73 300.294H1207.18V304.045H1210.73V300.294Z" fill="#EDEDE8"/>
<path d="M1223.36 265.7H1213.57V281.46H1223.36V265.7Z" fill="#EDEDE8"/>
<path fill-rule="evenodd" clip-rule="evenodd" d="M1251.87 309.55C1248.51 309.55 1245.31 312.276 1244.74 315.637C1244.17 318.997 1246.43 321.724 1249.78 321.724C1253.14 321.724 1256.33 318.997 1256.91 315.637C1257.48 312.276 1255.22 309.55 1251.87 309.55Z" fill="#DBD4CA"/>
<path fill-rule="evenodd" clip-rule="evenodd" d="M1251.37 309.897L1256.9 313.588L1254.94 305.356L1251.37 309.897Z" fill="#DBD4CA"/>
<path fill-rule="evenodd" clip-rule="evenodd" d="M1248.9 310.453L1244.74 315.637L1242.55 305.287L1248.9 310.453Z" fill="#DBD4CA"/>
<path fill-rule="evenodd" clip-rule="evenodd" d="M1251.93 320.1L1245.42 311.677C1246.31 314.065 1241.05 315.593 1239.04 315.055C1235.73 314.881 1224.48 304.878 1218.83 301.588C1204.35 293.156 1176.51 318.172 1189.16 328.948H1250.66C1249.3 328.349 1245.32 322.705 1251.93 320.1Z" fill="#DBD4CA"/>
<path d="M1203.24 319.466C1205.07 319.292 1206.67 317.695 1206.81 315.889C1206.95 314.082 1205.58 312.754 1203.74 312.928C1198.47 313.423 1193.5 315.836 1189.62 319.431C1185.74 323.035 1182.94 327.81 1182.05 333.003C1181.15 338.3 1182.37 343.145 1185.12 346.766C1187.88 350.386 1192.16 352.766 1197.4 353.13C1199.18 353.252 1200.99 351.88 1201.41 350.065C1201.85 348.25 1200.75 346.687 1198.95 346.566C1195.44 346.323 1192.55 344.716 1190.69 342.285C1188.83 339.854 1188.01 336.58 1188.62 333.003C1189.22 329.495 1191.11 326.274 1193.72 323.851C1196.34 321.42 1199.7 319.787 1203.24 319.457L1203.24 319.466Z" fill="#DBD4CA"/>
<path fill-rule="evenodd" clip-rule="evenodd" d="M1173.08 142.123H1209.24C1209.24 122.135 1193.05 105.932 1173.08 105.932C1153.1 105.932 1136.91 122.135 1136.91 142.123H1173.08Z" fill="#FC5E48"/>
<path d="M1173.36 89H1172.79V121.041H1173.36V89Z" fill="#FC5E48"/>
<path fill-rule="evenodd" clip-rule="evenodd" d="M1286.89 157.049C1290.49 156.771 1293.64 159.472 1293.92 163.075C1294.2 166.679 1291.5 169.831 1287.9 170.109C1284.3 170.386 1281.15 167.686 1280.87 164.082C1280.59 160.479 1283.29 157.327 1286.89 157.049Z" fill="#184133"/>
<path fill-rule="evenodd" clip-rule="evenodd" d="M1295.24 148.01C1298.84 147.732 1301.99 150.433 1302.26 154.036C1302.54 157.64 1299.84 160.792 1296.24 161.069C1292.64 161.347 1289.49 158.647 1289.22 155.043C1288.94 151.44 1291.64 148.288 1295.24 148.01Z" fill="#184133"/>
<path fill-rule="evenodd" clip-rule="evenodd" d="M1278.16 166.609C1280.8 166.41 1283.13 168.398 1283.32 171.038L1286.2 208.401C1286.4 211.041 1284.41 213.368 1281.77 213.567C1279.13 213.767 1276.81 211.779 1276.61 209.139L1273.74 171.776C1273.54 169.136 1275.52 166.809 1278.16 166.609Z" fill="#F9C9B3"/>
<path fill-rule="evenodd" clip-rule="evenodd" d="M1279.17 172.14L1274.32 167.981C1276.61 165.298 1280.64 164.994 1283.32 167.287C1286 169.579 1286.3 173.616 1284.01 176.291L1279.16 172.132L1279.17 172.14Z" fill="#184133"/>
<path fill-rule="evenodd" clip-rule="evenodd" d="M1275.44 180.25L1274.01 169.796L1270.41 180.641L1275.44 180.25Z" fill="#F9C9B3"/>
<path fill-rule="evenodd" clip-rule="evenodd" d="M1258.02 193.614L1308.42 222.068C1312.96 224.63 1314.58 230.447 1312.02 234.997C1309.46 239.547 1303.64 241.162 1299.1 238.601L1296.46 237.107L1286.2 243.619C1280.06 247.527 1277.25 250.757 1277.98 257.703L1278.36 261.359C1278.33 261.863 1278.29 262.349 1278.27 262.826L1242.61 242.69L1241.77 226.384C1240.2 219.923 1244.13 214.288 1249.41 210.537L1248.71 210.137C1244.16 207.576 1242.55 201.758 1245.11 197.208C1247.67 192.658 1253.48 191.043 1258.02 193.605V193.614Z" fill="#CC4D3B"/>
<path fill-rule="evenodd" clip-rule="evenodd" d="M1258.14 193.492L1302.18 218.36C1297.34 223.188 1290.66 226.175 1283.29 226.175C1268.51 226.175 1256.54 214.192 1256.54 199.405C1256.54 197.226 1256.8 195.098 1257.3 193.075C1257.58 193.197 1257.86 193.336 1258.14 193.492Z" fill="#F9C9B3"/>
<path fill-rule="evenodd" clip-rule="evenodd" d="M1235.83 273.359C1236.46 271.301 1234.05 269 1232.33 268.001C1227.08 264.971 1221.27 262.262 1209.52 261.428L1209.37 264.381C1214.46 265.084 1223.36 270.276 1228.9 274.01C1232.27 276.771 1235.07 275.86 1235.83 273.359Z" fill="#F9C9B3"/>
<path fill-rule="evenodd" clip-rule="evenodd" d="M1284.83 315.012C1287.07 311.92 1286.03 307.249 1282.49 304.661L1234.36 269.434C1233.85 269.078 1233.38 268.766 1232.93 268.47L1228.9 274.01C1229.06 274.158 1229.21 274.305 1229.38 274.453L1274.32 315.915C1277.54 318.884 1282.58 318.103 1284.83 315.012Z" fill="#F9C9B3"/>
<path fill-rule="evenodd" clip-rule="evenodd" d="M1239.11 277.058C1237.68 278.942 1235 279.307 1233.12 277.874C1231.23 276.441 1230.87 273.758 1232.3 271.874C1233.73 269.99 1236.41 269.625 1238.3 271.058C1240.18 272.491 1240.54 275.174 1239.11 277.058Z" fill="#E5E5E5"/>
<path fill-rule="evenodd" clip-rule="evenodd" d="M1307.57 328.948H1330.33C1330.33 341.53 1320.14 351.732 1307.57 351.732C1294.99 351.732 1284.8 341.53 1284.8 328.948H1307.57Z" fill="#CCA0A0"/>
<path fill-rule="evenodd" clip-rule="evenodd" d="M1173.08 142.123H1182.49C1182.49 147.324 1178.27 151.544 1173.08 151.544C1167.88 151.544 1163.66 147.324 1163.66 142.123H1173.08Z" fill="#E9B317"/>
<path fill-rule="evenodd" clip-rule="evenodd" d="M1177.03 175.657C1172.4 175.657 1168.65 179.417 1168.65 184.045C1168.65 188.673 1172.41 192.433 1177.03 192.433C1180.57 192.433 1183.6 190.236 1184.83 187.127C1183.38 186.849 1182.28 185.573 1182.28 184.045C1182.28 182.517 1183.38 181.232 1184.83 180.962C1183.6 177.854 1180.57 175.657 1177.03 175.657Z" fill="#CC4D3B"/>
<path d="M1070.29 191.855C1087.27 191.357 1100.63 177.177 1100.13 160.184C1099.63 143.191 1085.46 129.82 1068.48 130.318C1051.51 130.817 1038.14 144.996 1038.64 161.989C1039.14 178.982 1053.31 192.353 1070.29 191.855Z" stroke="#617084" stroke-width="2" stroke-miterlimit="22.93"/>
<path d="M1069.39 161.087L1075.29 139.058" stroke="#617084" stroke-width="2" stroke-miterlimit="22.93"/>
<path d="M1069.39 161.087L1085.5 177.211" stroke="#617084" stroke-width="2" stroke-miterlimit="22.93"/>
<path d="M1069.39 135.02V138.754" stroke="#617084" stroke-width="2" stroke-miterlimit="22.93"/>
<path d="M1069.39 183.42V187.153" stroke="#617084" stroke-width="2" stroke-miterlimit="22.93"/>
<path d="M1095.43 161.087H1091.7" stroke="#617084" stroke-width="2" stroke-miterlimit="22.93"/>
<path d="M1047.07 161.087H1043.34" stroke="#617084" stroke-width="2" stroke-miterlimit="22.93"/>
<path fill-rule="evenodd" clip-rule="evenodd" d="M1086.51 234.84H1043.09V309.735H1085.26C1088.49 309.735 1089.96 307.265 1089.96 304.62V238.283C1089.96 236.389 1088.41 234.84 1086.51 234.84Z" fill="#FC5E48"/>
<path fill-rule="evenodd" clip-rule="evenodd" d="M1085.53 301.877H1043V310H1085.53C1091.38 310 1091.38 301.877 1085.53 301.877Z" fill="#DBD4CA"/>
<path fill-rule="evenodd" clip-rule="evenodd" d="M1086.51 218H1043.09V292.895H1085.26C1088.49 292.895 1089.96 290.428 1089.96 287.78V221.443C1089.96 219.549 1088.41 218 1086.51 218Z" fill="#A3A4A5"/>
<path fill-rule="evenodd" clip-rule="evenodd" d="M1085.53 285.037H1043V293.16H1085.53C1091.38 293.16 1091.38 285.037 1085.53 285.037Z" fill="#DBD4CA"/>
<path d="M1079.48 251.805C1081.25 244.318 1076.61 236.818 1069.11 235.051C1061.62 233.284 1054.11 237.92 1052.34 245.406C1050.57 252.892 1055.21 260.393 1062.71 262.16C1070.2 263.927 1077.71 259.291 1079.48 251.805Z" fill="white"/>
<path fill-rule="evenodd" clip-rule="evenodd" d="M1051.96 248.606V266.148L1064.42 253.707L1051.96 248.606Z" fill="white"/>
<path fill-rule="evenodd" clip-rule="evenodd" d="M1059.14 245.944L1056.76 248.428L1063.85 255.5L1075.06 244.302L1072.46 241.709L1063.71 250.445L1059.14 245.944Z" fill="#A3A4A5"/>
</g>
<defs>
<clipPath id="clip0_1169_3586">
<rect width="294" height="342" fill="white" transform="translate(1037 89)"/>
</clipPath>
</defs>
</svg>
