<svg width="1440" height="487" viewBox="0 0 1440 487" fill="none" xmlns="http://www.w3.org/2000/svg">
<g clip-path="url(#clip0_1169_3584)">
<path d="M1350.89 158.168H1338.64V368.747H1350.89V158.168Z" fill="#F7F7EF"/>
<path fill-rule="evenodd" clip-rule="evenodd" d="M1365 151.285L1222.41 125.823V158.168H1365V151.285Z" fill="#F7F7EF"/>
<path d="M1325.81 158.168H1313.57V368.747H1325.81V158.168Z" fill="#F7F7EF"/>
<path d="M1300.73 158.168H1288.49V368.747H1300.73V158.168Z" fill="#F7F7EF"/>
<path d="M1275.66 158.168H1263.41V368.747H1275.66V158.168Z" fill="#F7F7EF"/>
<path d="M1250.58 158.168H1238.34V368.747H1250.58V158.168Z" fill="#F7F7EF"/>
<path fill-rule="evenodd" clip-rule="evenodd" d="M912.669 358.626H1330.4V391.628L1307.66 417.633H932.304L912.669 394.854V358.626Z" fill="#FC5E48"/>
<path fill-rule="evenodd" clip-rule="evenodd" d="M1146.91 358.626H1330.4V394.854L1307.66 417.633H1146.91V358.626Z" fill="#FC5E48"/>
<path d="M949.298 435.011C958.908 435.011 966.699 427.231 966.699 417.633C966.699 408.035 958.908 400.255 949.298 400.255C939.687 400.255 931.896 408.035 931.896 417.633C931.896 427.231 939.687 435.011 949.298 435.011Z" fill="#0C160F"/>
<path d="M1246.03 420.919C1247.86 411.496 1241.69 402.378 1232.25 400.553C1222.82 398.728 1213.69 404.888 1211.86 414.311C1210.03 423.733 1216.2 432.851 1225.64 434.676C1235.07 436.501 1244.2 430.341 1246.03 420.919Z" fill="#0C160F"/>
<path fill-rule="evenodd" clip-rule="evenodd" d="M1005.49 358.626H1264.98V219.485H1060.56L1005.49 358.626Z" fill="#FC5E48"/>
<path fill-rule="evenodd" clip-rule="evenodd" d="M1011.57 358.614H1144.34V223.516H1065.02L1011.57 358.614Z" fill="#A3A4A5"/>
<path d="M1131.2 371.634H1118.36V373.083H1131.2V371.634Z" fill="#8C4A2E"/>
<path fill-rule="evenodd" clip-rule="evenodd" d="M1327.06 376.627V387.427C1321.08 387.427 1316.24 382.593 1316.24 376.627C1316.24 370.66 1321.08 365.826 1327.06 365.826V376.627Z" fill="#CC4D3B"/>
<path d="M1249.47 358.626H1248.64V417.622H1249.47V358.626Z" fill="#8C4A2E"/>
<path d="M1147.31 358.626H1146.49V417.622H1147.31V358.626Z" fill="#8C4A2E"/>
<path d="M1011.98 358.626H1011.15V417.622H1011.98V358.626Z" fill="#8C4A2E"/>
<path d="M1234.35 371.634H1221.5V373.083H1234.35V371.634Z" fill="#8C4A2E"/>
<path fill-rule="evenodd" clip-rule="evenodd" d="M1094.19 223.516H1120.97L1067.1 358.614H1040.33L1094.19 223.516Z" fill="#F7F7EF"/>
<path fill-rule="evenodd" clip-rule="evenodd" d="M1131.9 223.516H1139.7L1085.84 358.614H1078.02L1131.9 223.516Z" fill="#F7F7EF"/>
<path fill-rule="evenodd" clip-rule="evenodd" d="M1144.34 223.516H1065.02L1029.64 312.932H1144.34V223.516Z" fill="white"/>
<path fill-rule="evenodd" clip-rule="evenodd" d="M1069.5 296.55C1069.74 294.863 1067.58 293.369 1066.12 292.803C1061.65 291.071 1056.79 289.667 1047.51 290.425L1047.74 292.735C1051.8 292.667 1059.39 295.644 1064.16 297.886C1067.13 299.63 1069.21 298.588 1069.5 296.539V296.55Z" fill="#F9C9B3"/>
<path fill-rule="evenodd" clip-rule="evenodd" d="M1105.1 312.932L1067.88 293.663C1067.44 293.448 1067.03 293.256 1066.64 293.086L1064.17 297.886C1064.31 297.988 1064.45 298.079 1064.6 298.169L1086.6 312.921H1105.11L1105.1 312.932Z" fill="#F9C9B3"/>
<path fill-rule="evenodd" clip-rule="evenodd" d="M1131.9 235.505C1134.74 236.252 1136.45 239.184 1135.71 242.026L1125.19 282.036C1124.44 284.878 1121.5 286.587 1118.66 285.84C1115.81 285.093 1114.1 282.161 1114.85 279.319L1125.37 239.309C1126.11 236.467 1129.05 234.758 1131.9 235.505Z" fill="#F9C9B3"/>
<path fill-rule="evenodd" clip-rule="evenodd" d="M1131.3 238.313L1127.35 235.539C1130.74 233.569 1135.08 234.701 1137.05 238.086C1139.03 241.471 1137.89 245.807 1134.5 247.777C1130.99 245.128 1129.58 241.132 1131.28 238.313H1131.3Z" fill="#0C160F"/>
<path fill-rule="evenodd" clip-rule="evenodd" d="M1124.07 248.808L1126.38 237.328L1118.66 247.392L1124.07 248.808Z" fill="#F9C9B3"/>
<path fill-rule="evenodd" clip-rule="evenodd" d="M949.297 411.18C952.868 411.18 955.759 414.067 955.759 417.633C955.759 421.199 952.868 424.086 949.297 424.086C945.726 424.086 942.835 421.199 942.835 417.633C942.835 414.067 945.726 411.18 949.297 411.18Z" fill="#C9C9C9"/>
<path fill-rule="evenodd" clip-rule="evenodd" d="M1228.95 411.18C1232.52 411.18 1235.41 414.067 1235.41 417.633C1235.41 421.199 1232.52 424.086 1228.95 424.086C1225.38 424.086 1222.49 421.199 1222.49 417.633C1222.49 414.067 1225.38 411.18 1228.95 411.18Z" fill="#C9C9C9"/>
<path fill-rule="evenodd" clip-rule="evenodd" d="M1005.49 349.58V358.637C1000.48 358.637 996.424 354.584 996.424 349.58C996.424 344.576 1000.48 340.523 1005.49 340.523V349.58Z" fill="#283825"/>
<path d="M1330.4 394.526H912.669V395.194H1330.4V394.526Z" fill="#8C4A2E"/>
<path d="M1247.81 223.516H1148.66V358.603H1247.81V223.516Z" fill="#A3A4A5"/>
<path fill-rule="evenodd" clip-rule="evenodd" d="M1202.32 223.516H1229.09L1175.21 358.614H1148.45L1202.32 223.516Z" fill="#F7F7EF"/>
<path fill-rule="evenodd" clip-rule="evenodd" d="M1240.01 223.516H1247.82L1193.95 358.614H1186.14L1240.01 223.516Z" fill="#F7F7EF"/>
<path fill-rule="evenodd" clip-rule="evenodd" d="M912 376.627V387.427C917.974 387.427 922.815 382.593 922.815 376.627C922.815 370.66 917.974 365.826 912 365.826V376.627Z" fill="#E9B317"/>
<path fill-rule="evenodd" clip-rule="evenodd" d="M1091.63 312.932C1090.68 307.464 1089.3 302.664 1089.15 295.939C1089.06 292.384 1092.04 287.074 1095.94 283.768C1099.59 280.666 1104.35 279.376 1107.84 279.364L1144.34 279.217V312.944H1091.63V312.932Z" fill="#CC4D3B"/>
<path fill-rule="evenodd" clip-rule="evenodd" d="M1141.86 291.739L1101.45 343.579C1099.5 346.081 1095.85 346.534 1093.34 344.587C1090.84 342.64 1090.38 338.994 1092.33 336.492L1132.75 284.651C1134.7 282.149 1138.35 281.696 1140.85 283.644C1143.36 285.591 1143.81 289.237 1141.86 291.739Z" fill="#F9C9B3"/>
<path fill-rule="evenodd" clip-rule="evenodd" d="M1141.86 291.739L1119.68 320.201L1110.88 312.695L1132.75 284.651C1134.7 282.149 1138.35 281.696 1140.85 283.644C1143.36 285.591 1143.81 289.237 1141.86 291.739Z" fill="#F9C9B3"/>
<path fill-rule="evenodd" clip-rule="evenodd" d="M1049.71 291.161C1050.99 290.255 1052.78 290.572 1053.69 291.852L1068.52 312.932H1061.55L1049.01 295.124C1048.11 293.844 1048.43 292.056 1049.71 291.15V291.161Z" fill="#283825"/>
<path d="M1247.81 223.516H1148.66V301.95H1247.81V223.516Z" fill="white"/>
<path fill-rule="evenodd" clip-rule="evenodd" d="M1225.38 236.014C1228.54 236.581 1230.65 239.592 1230.08 242.751C1229.52 245.909 1226.5 248.015 1223.34 247.449C1220.17 246.883 1218.07 243.872 1218.63 240.713C1219.2 237.554 1222.22 235.448 1225.38 236.014Z" fill="#0C160F"/>
<path fill-rule="evenodd" clip-rule="evenodd" d="M1234.57 230.116C1237.74 230.682 1239.84 233.694 1239.28 236.852C1238.71 240.011 1235.69 242.117 1232.53 241.551C1229.37 240.985 1227.26 237.973 1227.83 234.814C1228.39 231.656 1231.41 229.55 1234.57 230.116Z" fill="#0C160F"/>
<path fill-rule="evenodd" clip-rule="evenodd" d="M1215.74 242.287C1218.05 242.694 1219.61 244.924 1219.2 247.234L1213.36 279.942C1212.95 282.251 1210.72 283.802 1208.41 283.395C1206.09 282.987 1204.54 280.757 1204.95 278.447L1210.79 245.74C1211.2 243.43 1213.43 241.879 1215.74 242.287Z" fill="#F9C9B3"/>
<path fill-rule="evenodd" clip-rule="evenodd" d="M1215.38 247.257L1212.14 242.615C1214.71 240.826 1218.25 241.46 1220.04 244.019C1221.83 246.589 1221.2 250.121 1218.63 251.91L1215.39 247.268L1215.38 247.257Z" fill="#0C160F"/>
<path fill-rule="evenodd" clip-rule="evenodd" d="M1210.37 253.382L1211.47 244.098L1205.96 252.6L1210.37 253.382Z" fill="#F9C9B3"/>
<path fill-rule="evenodd" clip-rule="evenodd" d="M1184.52 288.07L1176.68 301.962H1164.31L1175.15 282.783C1176.6 280.202 1179.91 279.285 1182.48 280.745C1185.06 282.195 1185.98 285.5 1184.52 288.07Z" fill="#BD7757"/>
<path fill-rule="evenodd" clip-rule="evenodd" d="M1184.52 288.07L1176.68 301.962H1164.31L1175.15 282.783C1176.6 280.202 1179.91 279.285 1182.48 280.745C1185.06 282.195 1185.98 285.5 1184.52 288.07Z" fill="#F9C9B3"/>
<path fill-rule="evenodd" clip-rule="evenodd" d="M1182.89 277.711H1232.98C1237.5 277.711 1241.19 281.402 1241.19 285.908C1241.19 290.414 1237.5 294.105 1232.98 294.105H1230.37L1226.16 301.951H1181.71C1181.68 299.335 1182.41 296.618 1183.59 294.105H1182.89C1178.38 294.105 1174.68 290.414 1174.68 285.908C1174.68 281.402 1178.38 277.711 1182.89 277.711Z" fill="#F9C9B3"/>
<path fill-rule="evenodd" clip-rule="evenodd" d="M1181.71 301.962C1181.68 299.347 1182.41 296.629 1183.59 294.116L1189.76 277.711H1226.22L1230.16 294.116L1226.14 301.962H1181.72H1181.71Z" fill="#CC4D3B"/>
<path fill-rule="evenodd" clip-rule="evenodd" d="M1232.27 283.768L1258.95 235.482C1260.24 233.15 1263.2 232.29 1265.53 233.58C1267.87 234.871 1268.73 237.826 1267.44 240.158L1240.76 288.444C1239.47 290.776 1236.51 291.637 1234.18 290.346C1231.84 289.055 1230.98 286.1 1232.27 283.768Z" fill="#F9C9B3"/>
<path fill-rule="evenodd" clip-rule="evenodd" d="M1232.27 283.768L1244.99 260.74L1253.16 265.994L1240.75 288.455C1239.46 290.788 1236.5 291.648 1234.16 290.357C1231.83 289.067 1230.97 286.112 1232.26 283.78L1232.27 283.768Z" fill="#F9C9B3"/>
<path fill-rule="evenodd" clip-rule="evenodd" d="M1283.12 202.48C1282.23 201.28 1283.31 199.141 1284.22 198.042C1287 194.68 1290.22 191.397 1297.8 187.819L1298.56 189.732C1295.35 191.51 1290.64 197.239 1287.83 201.133C1286.22 203.828 1284.17 203.952 1283.1 202.48H1283.12Z" fill="#F9C9B3"/>
<path fill-rule="evenodd" clip-rule="evenodd" d="M1260.16 242.649C1257.97 241.177 1257.61 237.826 1259.37 235.199L1283.21 199.503C1283.46 199.141 1283.7 198.801 1283.93 198.495L1287.84 201.122C1287.77 201.258 1287.71 201.405 1287.63 201.541L1267.31 240.532C1265.86 243.328 1262.35 244.109 1260.17 242.637L1260.16 242.649Z" fill="#F9C9B3"/>
<path d="M1210.94 274.473C1212.38 271.903 1215.83 270.092 1219.89 268.915C1224.75 267.499 1230.67 266.933 1234.58 267.024L1235.71 267.047C1240.63 267.171 1244.81 268.235 1248.88 269.277C1254.83 270.794 1260.5 272.254 1267.52 269.277L1269.26 268.541C1273.24 266.854 1278.33 266.503 1283.36 267.013C1289 267.579 1294.7 269.232 1298.6 271.247C1303.59 273.828 1308.43 271.971 1313.27 270.126C1317.42 268.541 1321.57 266.945 1326.5 267.069V272.175C1323.42 272.096 1320.1 273.364 1316.79 274.643C1310.02 277.236 1303.25 279.828 1294.57 275.345C1291.57 273.794 1287.12 272.515 1282.64 272.073C1279.05 271.711 1275.54 271.915 1273.01 272.979L1271.27 273.715C1261.47 277.858 1254.26 276.013 1246.7 274.077C1243.18 273.171 1239.57 272.254 1235.69 272.152L1234.57 272.13C1231.43 272.051 1226.67 272.515 1222.75 273.647C1220.24 274.371 1218.2 275.334 1217.54 276.489L1210.91 274.473H1210.94Z" fill="#E9B317"/>
<path fill-rule="evenodd" clip-rule="evenodd" d="M1203.34 271.971H1219.35L1217.52 277.847H1201.51L1203.34 271.971Z" fill="#E9B317"/>
<path d="M1167 179.023C1168.94 177.087 1171.57 176 1174.32 176C1180.04 176 1184.67 180.63 1184.67 186.336" stroke="#FC5E48" stroke-width="2" stroke-miterlimit="10"/>
<path d="M1202.34 179.023C1200.4 177.087 1197.77 176 1195.01 176C1189.3 176 1184.66 180.63 1184.66 186.336" stroke="#FC5E48" stroke-width="2" stroke-miterlimit="10"/>
<path fill-rule="evenodd" clip-rule="evenodd" d="M1067.43 305.268C1068.17 303.728 1066.6 301.656 1065.38 300.694C1061.68 297.739 1057.49 294.965 1048.44 292.984L1047.94 295.271C1051.81 296.392 1058.1 301.452 1061.93 304.996C1064.21 307.532 1066.5 307.136 1067.41 305.268H1067.43Z" fill="#F9C9B3"/>
<path fill-rule="evenodd" clip-rule="evenodd" d="M1100.28 343.319C1102.43 341.157 1102.22 337.398 1099.79 334.975L1066.79 302.03C1066.44 301.701 1066.11 301.396 1065.79 301.113L1061.94 304.973C1062.04 305.109 1062.14 305.245 1062.26 305.37L1091.96 342.81C1094.09 345.493 1098.11 345.459 1100.27 343.296L1100.28 343.319Z" fill="#F9C9B3"/>
<path fill-rule="evenodd" clip-rule="evenodd" d="M1069.51 308.528C1068.15 309.83 1066.02 309.819 1064.73 308.494C1063.45 307.17 1063.5 305.03 1064.86 303.717C1066.22 302.415 1068.35 302.426 1069.65 303.751C1070.93 305.075 1070.87 307.215 1069.51 308.528Z" fill="#E3E3E3"/>
</g>
<circle cx="1188" cy="99" r="22" fill="#E9B317"/>
<path fill-rule="evenodd" clip-rule="evenodd" d="M1125.86 81.9516C1151.06 81.9516 1166.95 76.1494 1181.89 72.3435C1189.72 70.3473 1205.44 66.728 1212.97 70.9816C1215.14 72.2129 1216.09 73.836 1216.87 75.5151C1219.99 82.3433 1223.84 81.0374 1226.98 81.5971C1229.63 82.0822 1230.31 86 1225.07 86H1125.84C1123.73 86 1122 85.0858 1122 83.9665C1122 82.8471 1123.73 81.9329 1125.84 81.9329L1125.86 81.9516Z" fill="#F7F7EF"/>
<path fill-rule="evenodd" clip-rule="evenodd" d="M1235.07 90.8612C1248.48 90.8612 1256.97 87.7949 1264.92 85.7697C1269.09 84.7098 1277.46 82.7981 1281.47 85.0505C1282.62 85.694 1283.14 86.5647 1283.54 87.4543C1285.19 91.0694 1287.26 90.3691 1288.92 90.6719C1290.34 90.9369 1290.69 93 1287.91 93H1235.05C1233.93 93 1233 92.5079 1233 91.9211C1233 91.3344 1233.91 90.8423 1235.05 90.8423L1235.07 90.8612Z" fill="#F7F7EF"/>
<path fill-rule="evenodd" clip-rule="evenodd" d="M1316.07 118.861C1329.48 118.861 1337.97 115.795 1345.92 113.77C1350.09 112.71 1358.46 110.798 1362.47 113.05C1363.62 113.694 1364.14 114.565 1364.54 115.454C1366.19 119.069 1368.26 118.369 1369.92 118.672C1371.34 118.937 1371.69 121 1368.91 121H1316.05C1314.93 121 1314 120.508 1314 119.921C1314 119.334 1314.91 118.842 1316.05 118.842L1316.07 118.861Z" fill="#F7F7EF"/>
<path fill-rule="evenodd" clip-rule="evenodd" d="M1440 487V432.67C1361.43 421.642 1225.4 421.376 1143.91 430.499C1054.83 440.465 985.625 438.419 895.075 432.03C572.885 409.301 492.354 453.118 290.089 430.499C208.597 421.376 72.5694 421.642 -6 432.67V487H1440Z" fill="#EDE7E4"/>
<defs>
<clipPath id="clip0_1169_3584">
<rect width="453" height="314" fill="white" transform="translate(912 121)"/>
</clipPath>
</defs>
</svg>
