<svg width="429" height="376" viewBox="0 0 429 376" fill="none" xmlns="http://www.w3.org/2000/svg">
<g clip-path="url(#clip0_1163_3487)">
<path d="M377 84H41V213H377V84Z" fill="#DAE1EE"/>
<path d="M377 213H41V320H377V213Z" fill="#91B6A5"/>
<path fill-rule="evenodd" clip-rule="evenodd" d="M286.313 115.809C295.839 126.369 309.629 133 324.969 133C353.704 133 377 109.718 377 81C377 52.282 353.704 29 324.969 29C309.629 29 295.839 35.6312 286.313 46.1913C276.787 35.6312 262.996 29 247.656 29C232.317 29 218.526 35.6312 209 46.1913C199.474 35.6312 185.683 29 170.344 29C155.004 29 141.213 35.6312 131.687 46.1913C122.161 35.6312 108.371 29 93.0307 29C64.2958 29 41 52.282 41 81C41 109.718 64.2958 133 93.0307 133C108.371 133 122.161 126.369 131.687 115.809C141.213 126.369 155.004 133 170.344 133C185.683 133 199.474 126.369 209 115.809C218.526 126.369 232.317 133 247.656 133C262.996 133 276.787 126.369 286.313 115.809Z" fill="#DAE1EE"/>
<path fill-rule="evenodd" clip-rule="evenodd" d="M287.313 355.809C296.839 366.369 310.629 373 325.969 373C354.704 373 378 349.718 378 321C378 292.282 354.704 269 325.969 269C310.629 269 296.839 275.631 287.313 286.191C277.787 275.631 263.996 269 248.656 269C233.317 269 219.526 275.631 210 286.191C200.474 275.631 186.683 269 171.344 269C156.004 269 142.213 275.631 132.687 286.191C123.161 275.631 109.371 269 94.0307 269C65.2958 269 42 292.282 42 321C42 349.718 65.2958 373 94.0307 373C109.371 373 123.161 366.358 132.687 355.809C142.213 366.369 156.004 373 171.344 373C186.683 373 200.474 366.358 210 355.809C219.526 366.369 233.317 373 248.656 373C263.996 373 277.787 366.358 287.313 355.809Z" fill="#91B6A5"/>
<path fill-rule="evenodd" clip-rule="evenodd" d="M125.32 121.408L146.227 131.835C151.436 134.43 154.585 135.628 159.757 134.303L159.557 133.16C155.075 133.468 152.57 131.826 148.232 128.877L128.85 115.71C126.554 114.149 124.63 114.403 123.632 115.437C122.334 116.789 122.252 119.72 125.31 121.399L125.32 121.408Z" fill="#F9C9B3"/>
<path d="M11.8672 377.143L74.3082 144.103L137.611 380.346" stroke="#8299C2" stroke-width="3.64" stroke-miterlimit="22.93"/>
<path d="M-7.09375 377.143L55.3472 144.103H74.3127" stroke="#8299C2" stroke-width="3.64" stroke-miterlimit="22.93"/>
<path d="M69.735 161.2H50.7695" stroke="#8299C2" stroke-width="3.64" stroke-miterlimit="22.93"/>
<path d="M64.8197 179.512H45.8633" stroke="#8299C2" stroke-width="3.64" stroke-miterlimit="22.93"/>
<path d="M59.9225 197.815H40.957" stroke="#8299C2" stroke-width="3.64" stroke-miterlimit="22.93"/>
<path d="M55.0124 216.127H36.0469" stroke="#8299C2" stroke-width="3.64" stroke-miterlimit="22.93"/>
<path d="M50.1022 234.439H31.1367" stroke="#8299C2" stroke-width="3.64" stroke-miterlimit="22.93"/>
<path d="M45.196 252.751H26.2305" stroke="#8299C2" stroke-width="3.64" stroke-miterlimit="22.93"/>
<path d="M40.2807 271.063H21.3242" stroke="#8299C2" stroke-width="3.64" stroke-miterlimit="22.93"/>
<path d="M35.3835 289.376H16.418" stroke="#8299C2" stroke-width="3.64" stroke-miterlimit="22.93"/>
<path d="M30.4733 307.688H11.5078" stroke="#8299C2" stroke-width="3.64" stroke-miterlimit="22.93"/>
<path d="M25.5632 326H6.59766" stroke="#8299C2" stroke-width="3.64" stroke-miterlimit="22.93"/>
<path fill-rule="evenodd" clip-rule="evenodd" d="M125.497 283.16L159.217 284.975C159.344 284.975 159.481 284.975 159.608 284.975L173.401 283.341L174.118 285.483C158.646 288.241 143.128 291.063 127.657 293.913C122.611 294.838 119.671 292.833 119.217 290.02C118.736 287.089 120.932 283.314 125.488 283.169L125.497 283.16Z" fill="#F9C9B3"/>
<path fill-rule="evenodd" clip-rule="evenodd" d="M355.095 307.57L352.318 383.314C352.137 388.368 348.943 390.972 345.857 391C342.554 391.036 339.387 388.132 339.07 382.951L334.378 307.57C333.825 298.622 339.342 293.922 344.859 294.321C349.669 294.666 355.422 298.904 355.104 307.57H355.095Z" fill="#F9C9B3"/>
<path fill-rule="evenodd" clip-rule="evenodd" d="M343.281 277.661C343.145 278.169 342.991 278.668 342.819 279.167C340.36 286.036 332.782 285.791 334.507 304.258C334.897 308.423 336.639 309.884 340.741 309.884H371.957C376.058 309.884 378.608 308.414 378.989 304.258C380.704 285.8 373.136 286.036 370.677 279.167C370.496 278.668 370.341 278.169 370.214 277.661H343.281Z" fill="#FE6A6A"/>
<path fill-rule="evenodd" clip-rule="evenodd" d="M365.351 223.459L356.794 223.368C354.289 223.668 352.892 221.036 352.874 216.998L352.801 203.414C352.765 194.076 355.941 192.461 358.5 193.368C360.805 194.185 362.52 196.753 362.529 202.234L362.556 215.782C362.556 219.693 363.963 223.178 365.351 223.459Z" fill="#282636"/>
<path fill-rule="evenodd" clip-rule="evenodd" d="M355.481 195.401C353.92 195.401 352.641 196.68 352.641 198.241V224.902H358.33V198.241C358.33 196.68 357.051 195.401 355.49 195.401H355.481Z" fill="#F9C9B3"/>
<path fill-rule="evenodd" clip-rule="evenodd" d="M387.761 233.386C389.994 232.388 391.001 229.738 390.003 227.506L366.337 174.775C365.338 172.543 362.689 171.535 360.447 172.533C358.215 173.532 357.208 176.181 358.206 178.414L381.872 231.145C382.87 233.377 385.52 234.385 387.752 233.386H387.761Z" fill="#F9C9B3"/>
<path fill-rule="evenodd" clip-rule="evenodd" d="M390.583 230.873C390.583 226.635 387.361 223.16 383.423 223.16H335.8C331.862 223.16 328.641 226.626 328.641 230.873C328.641 235.111 331.862 238.586 335.8 238.586H383.423C387.361 238.586 390.583 235.12 390.583 230.873Z" fill="#F9C9B3"/>
<path fill-rule="evenodd" clip-rule="evenodd" d="M358.174 307.57L360.951 383.314C361.132 388.368 364.326 390.972 367.412 391C370.715 391.036 373.882 388.132 374.199 382.951L378.891 307.57C379.444 298.622 373.927 293.922 368.41 294.321C363.601 294.666 357.847 298.904 358.165 307.57H358.174Z" fill="#F9C9B3"/>
<path fill-rule="evenodd" clip-rule="evenodd" d="M340.799 223.205C341.053 228.713 341.035 233.504 344.129 235.074C345.046 235.537 346.243 235.719 347.804 235.546H364.746C366.688 235.764 368.194 235.637 369.356 235.201C372.886 233.858 373.312 229.602 373.331 223.169H338.875L340.808 223.205H340.799Z" fill="#F9C9B3"/>
<path fill-rule="evenodd" clip-rule="evenodd" d="M336.328 224.185C334.386 222.688 330.947 223.631 329.658 225.719L307.335 261.671C306.046 263.749 306.21 266.417 308.152 267.915C310.094 269.412 313.106 269.185 314.395 267.098L336.718 231.145C338.007 229.067 338.279 225.673 336.337 224.185H336.328Z" fill="#F9C9B3"/>
<path fill-rule="evenodd" clip-rule="evenodd" d="M363.772 171.381L338.663 144.975C333.663 139.711 329.77 138.033 322.365 137.334L322.211 138.114C327.129 139.521 331.512 143.795 335.65 147.561L356.984 176.835C363.654 185.991 371.213 179.503 363.772 171.381Z" fill="#F9C9B3"/>
<path fill-rule="evenodd" clip-rule="evenodd" d="M355.219 204.23L352.796 197.189L350.5 204.23H355.219Z" fill="#F9C9B3"/>
<path d="M353.161 196.844C353.751 196.844 354.286 197.089 354.667 197.479C354.767 197.579 354.858 197.697 354.94 197.815H358.833V198.178H355.13C355.239 198.432 355.294 198.722 355.294 199.013C355.294 199.612 355.058 200.156 354.667 200.555C354.277 200.946 353.751 201.191 353.161 201.191C352.571 201.191 352.036 200.946 351.646 200.555C351.255 200.165 351.02 199.621 351.02 199.013C351.02 198.405 351.255 197.869 351.646 197.47C352.036 197.08 352.571 196.835 353.161 196.835V196.844ZM354.341 197.815C354.041 197.506 353.624 197.316 353.161 197.316C352.698 197.316 352.281 197.506 351.981 197.815C351.682 198.123 351.491 198.55 351.491 199.022C351.491 199.494 351.682 199.92 351.981 200.229C352.281 200.537 352.698 200.728 353.161 200.728C353.624 200.728 354.041 200.537 354.341 200.229C354.64 199.92 354.831 199.494 354.831 199.022C354.831 198.55 354.64 198.123 354.341 197.815Z" fill="#1F1F1F"/>
<path fill-rule="evenodd" clip-rule="evenodd" d="M351.237 221.29C351.926 221.29 352.489 221.862 352.489 222.57C352.489 223.278 351.926 223.849 351.237 223.849C350.547 223.849 349.984 223.278 349.984 222.57C349.984 221.862 350.547 221.29 351.237 221.29Z" fill="#8299C2"/>
<path fill-rule="evenodd" clip-rule="evenodd" d="M352.741 223.323C353.43 223.323 353.993 223.895 353.993 224.602C353.993 225.31 353.43 225.882 352.741 225.882C352.051 225.882 351.488 225.31 351.488 224.602C351.488 223.895 352.051 223.323 352.741 223.323Z" fill="#8299C2"/>
<path fill-rule="evenodd" clip-rule="evenodd" d="M354.783 224.82C355.473 224.82 356.036 225.392 356.036 226.1C356.036 226.808 355.473 227.379 354.783 227.379C354.094 227.379 353.531 226.808 353.531 226.1C353.531 225.392 354.094 224.82 354.783 224.82Z" fill="#8299C2"/>
<path fill-rule="evenodd" clip-rule="evenodd" d="M357.155 225.701C357.844 225.701 358.407 226.272 358.407 226.98C358.407 227.688 357.844 228.26 357.155 228.26C356.465 228.26 355.902 227.688 355.902 226.98C355.902 226.272 356.465 225.701 357.155 225.701Z" fill="#8299C2"/>
<path fill-rule="evenodd" clip-rule="evenodd" d="M365.573 221.29C364.883 221.29 364.32 221.862 364.32 222.57C364.32 223.278 364.883 223.849 365.573 223.849C366.262 223.849 366.825 223.278 366.825 222.57C366.825 221.862 366.262 221.29 365.573 221.29Z" fill="#8299C2"/>
<path fill-rule="evenodd" clip-rule="evenodd" d="M364.057 223.323C363.367 223.323 362.805 223.895 362.805 224.602C362.805 225.31 363.367 225.882 364.057 225.882C364.747 225.882 365.309 225.31 365.309 224.602C365.309 223.895 364.747 223.323 364.057 223.323Z" fill="#8299C2"/>
<path fill-rule="evenodd" clip-rule="evenodd" d="M362.018 224.82C361.328 224.82 360.766 225.392 360.766 226.1C360.766 226.808 361.328 227.379 362.018 227.379C362.708 227.379 363.27 226.808 363.27 226.1C363.27 225.392 362.708 224.82 362.018 224.82Z" fill="#8299C2"/>
<path fill-rule="evenodd" clip-rule="evenodd" d="M359.655 225.701C358.965 225.701 358.402 226.272 358.402 226.98C358.402 227.688 358.965 228.26 359.655 228.26C360.344 228.26 360.907 227.688 360.907 226.98C360.907 226.272 360.344 225.701 359.655 225.701Z" fill="#8299C2"/>
<path fill-rule="evenodd" clip-rule="evenodd" d="M204.169 130.51V161.281C202.635 160.165 200.748 159.503 198.697 159.503C193.552 159.503 189.387 163.677 189.387 168.813C189.387 173.949 193.561 178.123 198.697 178.123C200.739 178.123 202.626 177.461 204.169 176.345V207.733H126.927V176.463C125.421 177.506 123.588 178.123 121.619 178.123C116.474 178.123 112.309 173.949 112.309 168.813C112.309 163.677 116.474 159.503 121.619 159.503C123.597 159.503 125.421 160.12 126.927 161.163V130.501H204.169V130.51Z" fill="#8299C2"/>
<path fill-rule="evenodd" clip-rule="evenodd" d="M306.263 262.443L305.664 220.564C305.618 217.615 300.419 216.553 298.368 216.68C297.097 216.762 297.479 215.464 297.878 215.474C299.03 215.501 309.484 214.72 309.802 219.085L314.048 263.014C314.529 267.996 311.117 268.976 308.958 268.223C307.188 267.615 306.226 266.263 306.263 262.434V262.443Z" fill="#F9C9B3"/>
<path fill-rule="evenodd" clip-rule="evenodd" d="M94.4023 202.08H99.6746C101.408 202.08 102.832 203.504 102.832 205.238V229.911H94.4023V202.08Z" fill="#F9C9B3"/>
<path fill-rule="evenodd" clip-rule="evenodd" d="M124.461 227.297C127.519 227.297 130.024 229.802 130.024 232.86V287.343C130.024 290.401 127.519 292.905 124.461 292.905C121.403 292.905 118.898 290.401 118.898 287.343V232.86C118.898 229.802 121.403 227.297 124.461 227.297Z" fill="#F9C9B3"/>
<path fill-rule="evenodd" clip-rule="evenodd" d="M124.459 227.297C128.125 227.297 131.119 230.292 131.119 233.958V256.68H117.789V233.958C117.789 230.292 120.784 227.297 124.45 227.297H124.459Z" fill="#758AAF"/>
<path fill-rule="evenodd" clip-rule="evenodd" d="M117.185 272.905L127.303 245.029C129 240.464 131.496 235.8 128.664 230.764C126.024 226.072 122.222 227.334 118.011 227.334H68.4286C64.572 227.334 61.4141 230.918 61.4141 235.31C61.4141 237.588 62.2671 239.648 63.6282 241.109L77.7752 270.8L117.194 272.905H117.185Z" fill="#8A7352"/>
<path fill-rule="evenodd" clip-rule="evenodd" d="M118.28 287.878L77.3633 287.924L78.4704 307.27L118.271 307.588L118.28 287.878Z" fill="#282636"/>
<path fill-rule="evenodd" clip-rule="evenodd" d="M106.646 305.428L157.254 347.134C160.629 349.911 164.359 349.248 166.355 347.179C168.497 344.956 168.651 341.145 165.521 337.942L119.931 291.381C114.522 285.855 107.953 286.898 104.668 290.855C101.8 294.312 100.847 300.646 106.637 305.419L106.646 305.428Z" fill="#282636" stroke="#282636" stroke-width="0.11" stroke-miterlimit="22.93"/>
<path fill-rule="evenodd" clip-rule="evenodd" d="M78.167 300.247L82.6679 365.673C82.9674 370.038 86.0164 372.288 88.893 372.316C91.9782 372.343 94.8548 369.838 95.0273 365.365L97.5046 300.247C97.7949 292.515 92.5227 288.459 87.3957 288.804C82.9129 289.103 77.6588 292.76 78.167 300.247Z" fill="#282636"/>
<path d="M118.271 270.02H77.3633V291.281H118.271V270.02Z" fill="#282636"/>
<path d="M118.271 270.02H77.3633V275.337H118.271V270.02Z" fill="#282636"/>
<path fill-rule="evenodd" clip-rule="evenodd" d="M100.365 202.098H94.3945C94.3945 198.214 97.0624 195.065 100.365 195.065C101.409 195.065 102.444 195.392 103.351 196.009L100.365 202.098Z" fill="#282636"/>
<path fill-rule="evenodd" clip-rule="evenodd" d="M89.6133 227.307H107.535C105.53 230.455 102.263 232.515 98.5788 232.515C94.8946 232.515 91.6278 230.464 89.6224 227.307H89.6133Z" fill="#F9C9B3"/>
<path fill-rule="evenodd" clip-rule="evenodd" d="M100.559 213.722L102.246 204.639L105.25 213.341L100.559 213.722Z" fill="#F9C9B3"/>
<path fill-rule="evenodd" clip-rule="evenodd" d="M102.787 213.531H98.3945C98.3945 216.39 100.364 218.704 102.787 218.704C103.558 218.704 104.311 218.468 104.983 218.014L102.787 213.531Z" fill="#282636"/>
<path fill-rule="evenodd" clip-rule="evenodd" d="M64.9884 230.537C67.493 228.786 70.9866 229.403 72.738 231.907L103.945 276.562C105.696 279.076 105.079 282.561 102.575 284.312C100.07 286.063 96.5764 285.446 94.8251 282.942L63.6182 238.287C61.8668 235.773 62.4839 232.288 64.9884 230.537Z" fill="#F9C9B3"/>
<path fill-rule="evenodd" clip-rule="evenodd" d="M64.7117 229.448C67.7153 227.352 71.8896 228.087 73.9948 231.091L87.0075 249.711L76.0819 257.343L63.0692 238.722C60.973 235.719 61.7081 231.544 64.7117 229.439V229.448Z" fill="#758AAF"/>
<path fill-rule="evenodd" clip-rule="evenodd" d="M82.3986 87.6062L78.3333 84.2305C76.5002 82.706 73.6962 83.0417 72.0901 84.9746L55.9104 104.43C53.8142 106.953 52.0901 108.75 49.9758 110.002C45.1845 112.824 40.8651 109.004 32.8887 120.655C31.0919 123.287 34.5946 127.652 36.9994 129.648L43.179 134.784L49.3587 139.92C51.7634 141.916 56.6999 144.575 58.9503 142.325C63.3242 131.327 60.1663 124.884 64.885 120.165C66.6454 118.405 68.6055 119.24 70.7017 116.717L86.8814 97.2613C88.4875 95.3285 88.306 92.5063 86.473 90.9818L82.4077 87.6062H82.3986Z" fill="#A3A4A5"/>
<path fill-rule="evenodd" clip-rule="evenodd" d="M86.8471 92.0345C85.8217 93.5953 86.2482 95.7097 87.809 96.7351L124.542 121.018C126.103 122.044 128.217 121.617 129.243 120.056C130.268 118.496 129.842 116.381 128.281 115.356L91.5476 91.0727C89.9868 90.0473 87.8725 90.4737 86.8471 92.0345Z" fill="#F9C9B3"/>
<path fill-rule="evenodd" clip-rule="evenodd" d="M99.2044 102.27L99.3314 102.116C101.128 99.9563 100.829 96.7167 98.669 94.9109L71.8541 72.6151C69.6944 70.8184 66.4548 71.1178 64.649 73.2775L64.522 73.4318C62.7252 75.5915 63.0247 78.8311 65.1844 80.6369L91.9993 102.933C94.159 104.729 97.3985 104.43 99.2044 102.27Z" fill="#F9C9B3"/>
<path fill-rule="evenodd" clip-rule="evenodd" d="M76.0614 76.2268L72.6766 73.3048L64.8726 82.6877C62.5042 85.5462 60.9706 88.3774 60.7891 91.1542C60.526 95.283 62.5042 96.3357 65.1086 98.4954L75.3899 107.043C77.2683 108.604 79.1013 110.737 81.7964 110.646C84.5278 110.555 87.6585 108.45 90.78 104.385L98.6657 94.9019L95.1721 91.9981C90.9706 97.0344 88.2392 99.4572 84.0741 95.1197L74.1467 86.871C69.8 83.9945 72.7673 80.5643 76.0523 76.2268H76.0614Z" fill="#A3A4A5"/>
<path fill-rule="evenodd" clip-rule="evenodd" d="M47.4786 130.428L49.5929 188.141C49.7381 191.989 52.17 193.976 54.5203 194.004C57.043 194.031 59.4477 191.817 59.6927 187.869L63.268 130.428C63.6945 123.613 59.484 120.029 55.2826 120.337C51.6165 120.601 47.2336 123.831 47.4786 130.428Z" fill="#001E60"/>
<path fill-rule="evenodd" clip-rule="evenodd" d="M49.2799 189.512L37.7373 245.238H37.7191C37.6193 245.238 36.3761 250.882 36.0948 251.817C35.9224 252.379 36.1583 253.196 36.6847 253.196H46.0494C47.6738 253.223 47.9551 252.37 45.868 251.844C42.9914 251.109 40.0785 249.167 41.4306 245.174H41.4215L59.3707 189.503C61.1402 184.022 59.2255 181.145 56.2309 181.381C53.6084 181.59 50.3779 184.194 49.2799 189.503V189.512Z" fill="#001E60"/>
<path fill-rule="evenodd" clip-rule="evenodd" d="M36.5576 249.975C36.358 250.828 36.1856 251.544 36.0948 251.826C35.9224 252.388 36.1583 253.205 36.6847 253.205H46.0494C47.6738 253.232 47.9551 252.379 45.868 251.853C44.534 251.517 43.2001 250.918 42.2836 249.975H36.5576Z" fill="#282636"/>
<path fill-rule="evenodd" clip-rule="evenodd" d="M76.0636 76.2269C73.5319 79.5754 71.1816 82.3794 72.2342 84.8023C72.5428 85.5191 73.1598 86.2088 74.158 86.8712L84.0854 95.1199C85.1199 96.1906 86.0546 96.8531 86.9529 97.1616C89.6752 98.0963 91.9983 95.8095 95.1471 92.0436L87.6607 85.8186L82.9783 81.9257L74.9566 75.256L76.0727 76.2179L76.0636 76.2269Z" fill="white"/>
<path fill-rule="evenodd" clip-rule="evenodd" d="M97.4238 69.3666C98.3403 70.1288 98.4674 71.4991 97.7051 72.4156L86.1897 86.2631L82.8594 83.4954L94.3748 69.6479C95.137 68.7314 96.5073 68.6043 97.4238 69.3666Z" fill="#F9C9B3"/>
<path fill-rule="evenodd" clip-rule="evenodd" d="M81.1367 80.3375L83.8681 82.6061L88.5505 86.499L89.3581 87.1706L81.7629 87.9419L81.1367 80.3375Z" fill="#F9C9B3"/>
<path fill-rule="evenodd" clip-rule="evenodd" d="M93.2695 76.3992L97.9701 72.0072L95.4292 78.0235L93.2695 76.3992Z" fill="#F9C9B3"/>
<path fill-rule="evenodd" clip-rule="evenodd" d="M65.5127 75.4645C63.7977 76.1995 62.9901 78.2049 63.7251 79.92L81.03 120.419C81.765 122.134 83.7704 122.942 85.4855 122.207C87.2006 121.472 88.0082 119.466 87.2732 117.751L69.9683 77.2521C69.2332 75.5371 67.2278 74.7294 65.5127 75.4645Z" fill="#F9C9B3"/>
<path fill-rule="evenodd" clip-rule="evenodd" d="M84.9341 123.105L116.45 138.486C121.676 141.036 125.179 141.318 130.17 139.421L129.843 138.305C125.424 139.122 122.629 137.978 118.11 135.328L87.4749 117.361C82.0938 114.203 78.6183 120.828 84.9341 123.114V123.105Z" fill="#F9C9B3"/>
<path fill-rule="evenodd" clip-rule="evenodd" d="M44.6859 142.47L45.8475 186.717C45.7023 190.564 43.2703 192.552 40.92 192.579C38.3974 192.606 35.9926 190.392 35.7476 186.445L30.2667 145.483C29.332 130.483 26.3647 122.769 37.7712 111.463C46.0652 103.241 52.1179 105.719 57.3266 101.844C57.7894 101.499 58.2431 101.136 58.6877 100.764L73.4246 113.259C66.6641 122.642 62.7984 125.918 62.3447 140.628C57.9709 145.147 51.0289 145.074 44.6678 142.479L44.6859 142.47Z" fill="#001E60"/>
<path fill-rule="evenodd" clip-rule="evenodd" d="M35.0807 189.512L23.5381 245.238H23.5199C23.4201 245.238 22.1769 250.882 21.8956 251.817C21.7232 252.379 21.9591 253.196 22.4854 253.196H31.8502C33.4745 253.223 33.7559 252.37 31.6778 251.844C28.8012 251.109 25.8883 249.167 27.2404 245.174H27.2314L45.1805 189.503C46.95 184.022 45.0353 181.145 42.0408 181.381C39.4183 181.59 36.1878 184.194 35.0898 189.503L35.0807 189.512Z" fill="#001E60"/>
<path fill-rule="evenodd" clip-rule="evenodd" d="M22.3506 249.975C22.1509 250.828 21.9785 251.544 21.8878 251.826C21.7154 252.388 21.9513 253.205 22.4776 253.205H31.8424C33.4667 253.232 33.748 252.379 31.67 251.853C30.3361 251.517 29.0021 250.918 28.0856 249.975H22.3597H22.3506Z" fill="#282636"/>
<path fill-rule="evenodd" clip-rule="evenodd" d="M325.52 138.232V169.004C323.987 167.887 322.099 167.225 320.048 167.225C314.903 167.225 310.738 171.399 310.738 176.535C310.738 181.671 314.912 185.846 320.048 185.846C322.09 185.846 323.978 185.183 325.52 184.067V215.455H248.279V184.185C246.773 185.229 244.94 185.846 242.97 185.846C237.825 185.846 233.66 181.671 233.66 176.535C233.66 171.399 237.834 167.225 242.97 167.225C244.949 167.225 246.773 167.842 248.279 168.886V138.223H325.52V138.232Z" fill="#001E60"/>
<path fill-rule="evenodd" clip-rule="evenodd" d="M133.164 215.555V246.327C134.698 245.21 136.585 244.548 138.636 244.548C143.781 244.548 147.946 248.722 147.946 253.858C147.946 258.994 143.772 263.169 138.636 263.169C136.594 263.169 134.707 262.506 133.164 261.39V292.778H210.405V261.508C211.912 262.552 213.745 263.169 215.714 263.169C220.859 263.169 225.024 259.003 225.024 253.858C225.024 248.713 220.85 244.548 215.714 244.548C213.736 244.548 211.912 245.165 210.405 246.209V215.546H133.164V215.555Z" fill="#758AAF"/>
<path fill-rule="evenodd" clip-rule="evenodd" d="M210.305 215.555V246.327C211.838 245.21 213.726 244.548 215.777 244.548C220.922 244.548 225.087 248.722 225.087 253.858C225.087 258.994 220.913 263.169 215.777 263.169C213.735 263.169 211.847 262.506 210.305 261.39V292.778H287.546V261.508C289.052 262.552 290.885 263.169 292.855 263.169C298 263.169 302.165 259.003 302.165 253.858C302.165 248.713 297.991 244.548 292.855 244.548C290.876 244.548 289.052 245.165 287.546 246.209V215.546H210.305V215.555Z" fill="#A1CAB7"/>
<path fill-rule="evenodd" clip-rule="evenodd" d="M93.3693 58.577C90.3838 58.577 87.9609 60.9999 87.9609 63.9854C87.9609 66.9709 90.3838 69.3937 93.3693 69.3937C96.3548 69.3937 98.7776 66.9709 98.7776 63.9854C98.7776 60.9999 96.3548 58.577 93.3693 58.577Z" fill="#282636"/>
<path fill-rule="evenodd" clip-rule="evenodd" d="M98.4676 62.1887C95.7271 62.1887 93.5039 64.412 93.5039 67.1524C93.5039 69.8929 95.7271 72.1161 98.4676 72.1161C101.208 72.1161 103.431 69.8929 103.431 67.1524C103.431 64.412 101.208 62.1887 98.4676 62.1887Z" fill="#282636"/>
<path fill-rule="evenodd" clip-rule="evenodd" d="M102.065 274.938L143.462 292.951C143.589 293.005 150.486 290.809 152.273 290.909L152.999 293.069L140.368 296.789C139.624 296.853 138.335 296.499 137.174 296.245L100.803 286.336C95.7126 285.219 93.5439 282.071 93.9704 279.131C94.4241 276.063 97.6727 273.25 102.056 274.938H102.065Z" fill="#F9C9B3"/>
<path fill-rule="evenodd" clip-rule="evenodd" d="M344.006 266.771C343.87 267.316 343.715 267.86 343.534 268.386C341.038 275.755 332.109 278.314 333.434 298.169L338.697 377.143H374.568L378.997 304.167C379.124 302.824 379.196 301.581 379.224 300.428L379.341 298.477C380.539 278.668 372.254 275.755 369.759 268.386C369.614 267.951 369.478 267.506 369.36 267.062V254.938C371.556 254.938 373.734 254.675 375.476 253.132C378.162 250.746 379.541 246 379.287 239.276V223.087H373.325C373.307 235.292 341.329 234.857 340.793 223.196L334.931 223.087V239.103C334.95 243.976 335.766 248.123 337.917 251.072C339.949 253.867 341.864 254.639 344.124 254.829V266.762H344.006V266.771Z" fill="#282636"/>
<path d="M275.021 68.2685C275.112 68.8584 275.366 69.4664 275.784 70.029C276.328 70.7459 277.136 71.372 278.234 71.744C278.969 71.9981 279.822 72.1342 280.802 72.1252H282.444V66.5263H282.871V72.1252H290.157V64.8021H290.584V72.1252H297.989V72.7513H280.802C279.776 72.7604 278.878 72.6152 278.107 72.352C276.918 71.9437 276.029 71.2631 275.43 70.4646C274.912 69.784 274.613 69.0217 274.531 68.2776H275.021V68.2685Z" fill="#08173E"/>
<path fill-rule="evenodd" clip-rule="evenodd" d="M348.04 20.9637C353.54 20.9637 358.022 16.4809 358.022 10.9818C358.022 5.48276 353.54 1 348.04 1C342.541 1 338.059 5.48276 338.059 10.9818C338.059 16.4809 342.541 20.9637 348.04 20.9637Z" fill="#A1CAB7"/>
<path fill-rule="evenodd" clip-rule="evenodd" d="M287.405 15.8094C313.33 15.8094 334.474 13.5862 334.474 10.8548C334.474 8.12338 313.33 5.90015 287.405 5.90015C261.479 5.90015 240.336 8.12338 240.336 10.8548C240.336 13.5862 261.479 15.8094 287.405 15.8094Z" fill="#A1CAB7"/>
<path fill-rule="evenodd" clip-rule="evenodd" d="M278.825 26.0727C275.776 28.3595 273.789 31.9983 273.789 36.0818V55.1834C273.789 62.0618 279.415 67.6879 286.294 67.6879C293.172 67.6879 298.798 62.0618 298.798 55.1834V38.4683C299.07 33.0056 301.366 29.5754 305.985 28.4593L344.279 24.884L349.297 10.9729H348.372L342.745 23.5682H295.223C289.043 23.5682 283.644 22.4429 278.816 26.0636L278.825 26.0727Z" fill="#A1CAB7"/>
<path fill-rule="evenodd" clip-rule="evenodd" d="M274.551 59.4573C274.624 59.4573 274.687 59.4573 274.76 59.4573C278.771 59.4573 282.056 56.1724 282.056 52.1615V37.2432C282.056 33.441 279.116 30.3013 275.395 29.9746C274.37 31.7804 273.789 33.8675 273.789 36.0817V55.1833C273.789 56.6806 274.061 58.1234 274.542 59.4573H274.551Z" fill="#BBD5DB"/>
<path fill-rule="evenodd" clip-rule="evenodd" d="M273.789 49.1214L282.056 44.3483V39.6931L273.789 44.4663V49.1214Z" fill="white"/>
<path fill-rule="evenodd" clip-rule="evenodd" d="M273.789 41.8802L282.056 37.1071C282.038 36.372 281.92 35.6551 281.702 34.9836L273.798 39.5481V41.8802H273.789Z" fill="white"/>
<path d="M287.654 15.8094H287.164V23.4229H287.654V15.8094Z" fill="#1F1F1F"/>
<path d="M287.654 2.09802H287.164V9.70237H287.654V2.09802Z" fill="#1F1F1F"/>
<path fill-rule="evenodd" clip-rule="evenodd" d="M304.402 122.806H290.191C290.709 122.098 291.008 121.227 291.008 120.283C291.008 117.906 289.084 115.982 286.707 115.982C284.329 115.982 282.406 117.906 282.406 120.283C282.406 121.227 282.714 122.098 283.222 122.806H268.73V87.1433H283.168C282.687 86.4446 282.397 85.6007 282.397 84.6932C282.397 82.3157 284.32 80.392 286.698 80.392C289.075 80.392 290.999 82.3157 290.999 84.6932C290.999 85.6007 290.718 86.4537 290.228 87.1433H304.384V122.806H304.402Z" fill="#758AAF"/>
<path fill-rule="evenodd" clip-rule="evenodd" d="M175.433 71.6747H190.823C190.823 63.8163 183.936 57.446 175.433 57.446C166.93 57.446 160.043 63.8163 160.043 71.6747H175.433Z" fill="#758AAF"/>
<path fill-rule="evenodd" clip-rule="evenodd" d="M162.367 71.6746H174.11C174.11 65.6765 168.855 60.8217 162.367 60.8217C155.879 60.8217 150.625 65.6855 150.625 71.6746H162.367Z" fill="#758AAF"/>
<path fill-rule="evenodd" clip-rule="evenodd" d="M224.431 71.6746H233.488C233.488 67.0467 229.431 63.299 224.431 63.299C219.431 63.299 215.375 67.0467 215.375 71.6746H224.431Z" fill="#758AAF"/>
<path fill-rule="evenodd" clip-rule="evenodd" d="M198.558 71.6748H218.05C218.05 61.7201 209.32 53.6439 198.558 53.6439C187.796 53.6439 179.066 61.7201 179.066 71.6748H198.558Z" fill="#F1F3F5"/>
</g>
<defs>
<clipPath id="clip0_1163_3487">
<rect width="429" height="375" fill="white" transform="translate(0 0.5)"/>
</clipPath>
</defs>
</svg>
