<svg width="429" height="375" viewBox="0 0 429 375" fill="none" xmlns="http://www.w3.org/2000/svg">
<g clip-path="url(#clip0_1163_2959)">
<path d="M381.773 67.5H36.7734V198.5H381.773V67.5Z" fill="#C2CDE1"/>
<path d="M382 199H37V315H382V199Z" fill="#04315B"/>
<path fill-rule="evenodd" clip-rule="evenodd" d="M288.657 99.9781C298.439 110.741 312.598 117.5 328.349 117.5C357.854 117.5 381.773 93.7702 381.773 64.5C381.773 35.2298 357.854 11.5 328.349 11.5C312.598 11.5 298.439 18.2588 288.657 29.0219C278.876 18.2588 264.716 11.5 248.965 11.5C233.215 11.5 219.055 18.2588 209.273 29.0219C199.492 18.2588 185.332 11.5 169.582 11.5C153.831 11.5 139.671 18.2588 129.89 29.0219C120.108 18.2588 105.949 11.5 90.1978 11.5C60.6932 11.5 36.7734 35.2298 36.7734 64.5C36.7734 93.7702 60.6932 117.5 90.1978 117.5C105.949 117.5 120.108 110.741 129.89 99.9781C139.671 110.741 153.831 117.5 169.582 117.5C185.332 117.5 199.492 110.741 209.273 99.9781C219.055 110.741 233.215 117.5 248.965 117.5C264.716 117.5 278.876 110.741 288.657 99.9781Z" fill="#C2CDE1"/>
<path fill-rule="evenodd" clip-rule="evenodd" d="M288.884 345.813C298.665 356.677 312.825 363.5 328.576 363.5C358.08 363.5 382 339.546 382 310C382 280.454 358.08 256.5 328.576 256.5C312.825 256.5 298.665 263.322 288.884 274.187C279.102 263.322 264.943 256.5 249.192 256.5C233.441 256.5 219.281 263.322 209.5 274.187C199.719 263.322 185.559 256.5 169.808 256.5C154.057 256.5 139.898 263.322 130.116 274.187C120.335 263.322 106.175 256.5 90.4244 256.5C60.9198 256.5 37 280.454 37 310C37 339.546 60.9198 363.5 90.4244 363.5C106.175 363.5 120.335 356.667 130.116 345.813C139.898 356.677 154.057 363.5 169.808 363.5C185.559 363.5 199.719 356.667 209.5 345.813C219.281 356.677 233.441 363.5 249.192 363.5C264.943 363.5 279.102 356.667 288.884 345.813Z" fill="#04315B"/>
<path fill-rule="evenodd" clip-rule="evenodd" d="M381 295C381 265.73 357.08 242 327.576 242C311.825 242 297.665 248.759 287.884 259.522C278.102 248.759 263.943 242 248.192 242C232.441 242 218.281 248.759 208.5 259.522C198.719 248.759 184.559 242 168.808 242C153.057 242 138.898 248.759 129.116 259.522C119.335 248.759 105.175 242 89.4244 242C59.9198 242 36 265.73 36 295H380.979H381Z" fill="#F7F7EF"/>
<path fill-rule="evenodd" clip-rule="evenodd" d="M184.186 270.658C187.006 270.658 189.301 272.935 189.301 275.754C189.301 278.573 187.015 280.85 184.186 280.85C181.356 280.85 179.07 278.573 179.07 275.754C179.07 272.935 181.356 270.658 184.186 270.658Z" fill="#001E60"/>
<path fill-rule="evenodd" clip-rule="evenodd" d="M208.393 270.658C211.213 270.658 213.508 272.935 213.508 275.754C213.508 278.573 211.222 280.85 208.393 280.85C205.563 280.85 203.277 278.573 203.277 275.754C203.277 272.935 205.563 270.658 208.393 270.658Z" fill="#001E60"/>
<path fill-rule="evenodd" clip-rule="evenodd" d="M232.6 270.658C235.42 270.658 237.715 272.935 237.715 275.754C237.715 278.573 235.429 280.85 232.6 280.85C229.77 280.85 227.484 278.573 227.484 275.754C227.484 272.935 229.77 270.658 232.6 270.658Z" fill="#001E60"/>
<path fill-rule="evenodd" clip-rule="evenodd" d="M169.268 123.945C169.268 123.945 169.268 124.006 169.268 124.042L169.25 123.989L169.277 123.945H169.268ZM208.352 90.2916C207.913 90.1247 207.483 89.9667 207.044 89.8175L203.549 97.4384C202.53 99.6949 200.458 100.81 197.464 100.915C194.935 100.388 192.801 99.2295 191.853 96.1127L190 88C188.999 88.1141 187.998 88.281 187.014 88.4741L187.796 96.8238C188.042 99.291 186.804 101.284 184.266 102.873C181.816 103.672 179.384 103.742 177.004 101.521L171.34 95.4278C170.532 96.0249 169.751 96.6658 168.987 97.3243L173.843 104.164C175.283 106.174 175.213 108.527 173.817 111.17C172.095 113.093 170.023 114.366 166.853 113.629L158.906 111.179C158.696 111.679 158.485 112.18 158.292 112.689C158.125 113.128 157.967 113.558 157.818 113.997L165.44 117.492C167.696 118.51 168.811 120.582 168.917 123.576C168.39 126.105 167.231 128.238 164.114 129.187L156 131.039C156.114 132.04 156.272 133.041 156.474 134.024L164.825 133.243C167.284 132.997 169.286 134.235 170.875 136.773C171.674 139.222 171.744 141.654 169.523 144.034L163.429 149.697C164.026 150.504 164.667 151.286 165.325 152.05L172.166 147.194C174.247 145.702 176.679 145.833 179.436 147.361C181.754 149.495 182.633 151.769 181.877 154.209L179.41 162.226C179.84 162.401 180.262 162.577 180.701 162.744C181.21 162.937 181.728 163.121 182.237 163.288L185.706 155.728C187.269 152.875 189.596 152.173 192.177 152.173C195.084 152.892 196.884 154.403 197.428 156.817L199.299 165C200.3 164.877 201.292 164.71 202.284 164.508L201.503 156.229C201.424 152.98 203.092 151.207 205.323 149.907C208.194 149.073 210.512 149.486 212.189 151.303L217.897 157.449C218.705 156.843 219.477 156.203 220.241 155.535L215.421 148.748C213.726 145.974 214.288 143.603 215.57 141.364C217.642 139.205 219.855 138.406 222.217 139.143L230.225 141.61C230.41 141.18 230.585 140.759 230.743 140.32C230.936 139.81 231.121 139.292 231.288 138.783L223.727 135.315C220.874 133.761 220.171 131.426 220.171 128.844C220.891 125.938 222.401 124.138 224.816 123.603L233 121.733C232.877 120.732 232.71 119.731 232.508 118.747L224.228 119.529C220.979 119.608 219.205 117.94 217.906 115.709C217.071 112.838 217.484 110.521 219.302 108.844L225.448 103.137C224.843 102.338 224.202 101.556 223.534 100.792L216.746 105.613C214.077 107.237 211.785 106.789 209.625 105.613C207.825 103.927 206.675 101.899 207.386 98.852L209.836 90.9062C209.335 90.6954 208.835 90.4847 208.326 90.2916H208.352ZM179.656 147.098L179.638 147.063C179.638 147.063 179.673 147.089 179.691 147.098H179.656ZM171.481 137.089L171.358 136.983V136.816C171.402 136.904 171.437 136.992 171.481 137.089Z" fill="#8299C2"/>
<path fill-rule="evenodd" clip-rule="evenodd" d="M198.204 118.591C193.563 116.824 188.359 119.154 186.592 123.796C184.825 128.437 187.146 133.642 191.796 135.409C196.437 137.176 201.632 134.846 203.408 130.204C205.175 125.563 202.854 120.367 198.204 118.591Z" fill="white"/>
<path fill-rule="evenodd" clip-rule="evenodd" d="M170.849 204.171L156.266 255.897H212.569L227.152 204.171H170.849Z" fill="#A3A4A5"/>
<path fill-rule="evenodd" clip-rule="evenodd" d="M187.82 204.171L198.109 230.884H209.429L199.145 204.171H187.82Z" fill="white"/>
<path fill-rule="evenodd" clip-rule="evenodd" d="M179.891 204.171L190.18 230.884H193.481L183.192 204.171H179.891Z" fill="white"/>
<path fill-rule="evenodd" clip-rule="evenodd" d="M152.081 212.003L192.728 241.477C196.48 244.2 198.568 245.256 203.103 246.489C206.924 247.529 210.317 247.711 214.272 247.02L214.97 249.539C208.562 251.7 199.566 251.582 195.073 249.834L149.762 228.536C141.786 226.654 138.437 221.663 139.194 217.048C139.978 212.244 146.037 207.613 152.081 211.998V212.003Z" fill="#F9C9B3"/>
<path fill-rule="evenodd" clip-rule="evenodd" d="M112.809 97.2981C116.238 98.3435 118.181 102 117.14 105.43L106.217 141.525L94.6133 137.986L105.804 101.019C106.695 98.0701 109.857 96.3975 112.809 97.2981Z" fill="#F9C9B3"/>
<path fill-rule="evenodd" clip-rule="evenodd" d="M128.98 196.435L143.553 156.363C145.995 149.807 149.591 143.095 145.506 135.858C141.706 129.114 136.237 130.921 130.166 130.921H61.3357C55.7805 130.921 51.2344 136.078 51.2344 142.388C51.2344 145.663 52.4581 148.628 54.4172 150.718L71.7752 196.542L128.98 196.435Z" fill="#001E60"/>
<path fill-rule="evenodd" clip-rule="evenodd" d="M111.555 112.877L117.287 102.209L117.915 114.817L111.555 112.877Z" fill="#F9C9B3"/>
<path fill-rule="evenodd" clip-rule="evenodd" d="M108.548 103.806L108.51 103.795L107.753 106.267C106.733 108.411 104.678 110.03 101.758 109.478L103.921 102.396H103.905C105.273 97.9093 109.884 95.3415 114.199 96.6603C115.573 97.0784 116.792 97.904 117.763 98.9815C116.835 100.332 114.854 102.75 112.476 102.026C110.748 101.501 109.192 102.305 108.542 103.812L108.548 103.806Z" fill="black"/>
<path fill-rule="evenodd" clip-rule="evenodd" d="M136.829 130.915C141.107 130.422 145.009 133.521 145.497 137.793L154.235 213.825C154.729 218.098 151.627 221.995 147.349 222.483C143.071 222.971 139.169 219.878 138.675 215.605L129.937 139.573C129.449 135.301 132.546 131.403 136.824 130.915H136.829Z" fill="#F9C9B3"/>
<path fill-rule="evenodd" clip-rule="evenodd" d="M136.832 130.915C141.952 130.326 146.622 134.03 147.212 139.144L150.857 170.848L132.237 172.982L128.593 141.278C128.003 136.164 131.711 131.5 136.832 130.91V130.915Z" fill="#001E60"/>
<path fill-rule="evenodd" clip-rule="evenodd" d="M71.7734 196.543H96.7691V294.597H78.9013L71.7734 196.543Z" fill="#A3A4A5"/>
<path fill-rule="evenodd" clip-rule="evenodd" d="M103.984 196.543H128.98L121.858 294.597H103.984V196.543Z" fill="#A3A4A5"/>
<path fill-rule="evenodd" clip-rule="evenodd" d="M81.1211 196.543H128.976L126.357 230.83H81.1211V196.543Z" fill="#A3A4A5"/>
<path d="M211.727 251.153H124.809V255.897H211.727V251.153Z" fill="#A3A4A5"/>
<path d="M41.6825 102.958C59.0612 100.141 70.8626 83.7859 68.0416 66.4285C65.2206 49.071 48.8456 37.2841 31.4669 40.1016C14.0882 42.9191 2.28684 59.2741 5.1078 76.6316C7.92876 93.9891 24.3038 105.776 41.6825 102.958Z" fill="#8299C2"/>
<path fill-rule="evenodd" clip-rule="evenodd" d="M86.6392 105.141C82.0555 105.141 78.3359 108.856 78.3359 113.434C78.3359 118.012 82.0555 121.727 86.6392 121.727C91.2229 121.727 94.9425 118.012 94.9425 113.434C94.9425 108.856 91.2229 105.141 86.6392 105.141Z" fill="#566580"/>
<path fill-rule="evenodd" clip-rule="evenodd" d="M45.9056 83L53.4883 65.0539L43.2883 73.0993L36.4883 57L29.6883 73.0993L19.4883 65.0539L27.071 83H36.4883H45.9056Z" fill="white"/>
<path d="M294.264 78.7087C296.887 62.5699 285.914 47.3631 269.756 44.7435C253.597 42.1238 238.372 53.0831 235.749 69.2219C233.126 85.3607 244.099 100.567 260.258 103.187C276.416 105.807 291.641 94.8474 294.264 78.7087Z" fill="#E9B317"/>
<path fill-rule="evenodd" clip-rule="evenodd" d="M318.523 127.396C308.32 127.396 300.043 135.662 300.043 145.854C300.043 156.045 308.32 164.312 318.523 164.312C328.727 164.312 337.004 156.051 337.004 145.854C337.004 135.656 328.733 127.396 318.523 127.396Z" fill="#282636"/>
<path fill-rule="evenodd" clip-rule="evenodd" d="M293.589 243.467C293.416 244.121 293.219 244.768 292.99 245.404C289.822 254.244 280.069 253.929 282.28 277.686C282.78 283.041 285.029 284.929 290.316 284.929H330.532C335.819 284.929 339.099 283.041 339.599 277.686C341.81 253.936 332.063 254.244 328.889 245.404C328.66 244.768 328.463 244.121 328.29 243.467H293.596H293.589Z" fill="#FE6A6A"/>
<path fill-rule="evenodd" clip-rule="evenodd" d="M309.315 137.63C307.301 137.63 305.652 139.277 305.652 141.289V175.595H312.978V141.289C312.978 139.277 311.329 137.63 309.315 137.63Z" fill="#F9C9B3"/>
<path fill-rule="evenodd" clip-rule="evenodd" d="M354.53 183.269C354.53 177.816 350.379 173.349 345.308 173.349H283.956C278.885 173.349 274.734 177.816 274.734 183.269C274.734 188.723 278.885 193.189 283.956 193.189H345.308C350.379 193.189 354.53 188.723 354.53 183.269Z" fill="#F9C9B3"/>
<path fill-rule="evenodd" clip-rule="evenodd" d="M290.401 173.399C290.728 180.487 290.71 186.656 294.694 188.673C295.88 189.272 297.418 189.506 299.431 189.284H321.253C323.755 189.568 325.688 189.407 327.189 188.834C331.741 187.106 332.291 181.628 332.309 173.349H287.918L290.401 173.399Z" fill="#F9C9B3"/>
<path fill-rule="evenodd" clip-rule="evenodd" d="M284.639 174.663C282.138 172.739 277.703 173.954 276.041 176.631L247.283 222.893C245.621 225.57 245.832 229.007 248.333 230.925C250.835 232.844 254.713 232.554 256.375 229.883L285.133 183.621C286.795 180.943 287.141 176.588 284.639 174.663Z" fill="#F9C9B3"/>
<path fill-rule="evenodd" clip-rule="evenodd" d="M308.98 148.994L305.855 139.931L302.902 148.994H308.98Z" fill="#F9C9B3"/>
<path fill-rule="evenodd" clip-rule="evenodd" d="M301.081 172.097C301.97 172.097 302.693 172.831 302.693 173.738C302.693 174.645 301.97 175.379 301.081 175.379C300.191 175.379 299.469 174.645 299.469 173.738C299.469 172.831 300.191 172.097 301.081 172.097Z" fill="#001E60"/>
<path fill-rule="evenodd" clip-rule="evenodd" d="M303.034 174.719C303.923 174.719 304.646 175.453 304.646 176.36C304.646 177.267 303.923 178.001 303.034 178.001C302.145 178.001 301.422 177.267 301.422 176.36C301.422 175.453 302.145 174.719 303.034 174.719Z" fill="#001E60"/>
<path fill-rule="evenodd" clip-rule="evenodd" d="M305.659 176.631C306.548 176.631 307.271 177.365 307.271 178.272C307.271 179.179 306.548 179.913 305.659 179.913C304.77 179.913 304.047 179.179 304.047 178.272C304.047 177.365 304.77 176.631 305.659 176.631Z" fill="#001E60"/>
<path fill-rule="evenodd" clip-rule="evenodd" d="M308.706 177.772C309.595 177.772 310.318 178.506 310.318 179.413C310.318 180.32 309.595 181.054 308.706 181.054C307.816 181.054 307.094 180.32 307.094 179.413C307.094 178.506 307.816 177.772 308.706 177.772Z" fill="#001E60"/>
<path fill-rule="evenodd" clip-rule="evenodd" d="M319.557 172.097C318.668 172.097 317.945 172.831 317.945 173.738C317.945 174.645 318.668 175.379 319.557 175.379C320.447 175.379 321.169 174.645 321.169 173.738C321.169 172.831 320.447 172.097 319.557 172.097Z" fill="#001E60"/>
<path fill-rule="evenodd" clip-rule="evenodd" d="M317.604 174.719C316.715 174.719 315.992 175.453 315.992 176.36C315.992 177.267 316.715 178.001 317.604 178.001C318.494 178.001 319.216 177.267 319.216 176.36C319.216 175.453 318.494 174.719 317.604 174.719Z" fill="#001E60"/>
<path fill-rule="evenodd" clip-rule="evenodd" d="M314.979 176.631C314.09 176.631 313.367 177.365 313.367 178.272C313.367 179.179 314.09 179.913 314.979 179.913C315.869 179.913 316.591 179.179 316.591 178.272C316.591 177.365 315.869 176.631 314.979 176.631Z" fill="#001E60"/>
<path fill-rule="evenodd" clip-rule="evenodd" d="M311.936 177.772C311.047 177.772 310.324 178.506 310.324 179.413C310.324 180.32 311.047 181.054 311.936 181.054C312.826 181.054 313.548 180.32 313.548 179.413C313.548 178.506 312.826 177.772 311.936 177.772Z" fill="#001E60"/>
<path fill-rule="evenodd" clip-rule="evenodd" d="M294.529 229.451C294.356 230.154 294.152 230.845 293.918 231.53C290.7 241.012 279.205 244.306 280.91 269.852L283.732 301.808L335.289 302.616L339.606 277.576C339.767 275.848 339.859 274.25 339.896 272.764L340.051 270.253C341.601 244.762 330.916 241.018 327.704 231.536C327.512 230.974 327.345 230.407 327.191 229.833V214.238C330.026 214.238 332.83 213.905 335.072 211.912C338.525 208.84 340.31 202.733 339.989 194.083V173.257H332.305C332.281 188.957 291.095 188.402 290.403 173.399L282.849 173.257V193.868C282.868 200.135 283.924 205.472 286.691 209.266C289.316 212.856 291.768 213.849 294.684 214.102V229.457H294.529V229.451Z" fill="#282636"/>
<path d="M349.687 239.549H272.195V287.674H349.687V239.549Z" fill="#001E60"/>
<path d="M349.687 287.674H272.195V310H349.687V287.674Z" fill="#282636"/>
<path d="M345.297 290.296H276.57V307.378H345.297V290.296Z" fill="white"/>
<path d="M344.141 280.228H339.91V284.226H344.141V280.228Z" fill="white"/>
<path d="M338.86 280.228H334.629V284.226H338.86V280.228Z" fill="white"/>
<path d="M333.583 280.228H329.352V284.226H333.583V280.228Z" fill="white"/>
<path d="M328.301 280.228H324.07V284.226H328.301V280.228Z" fill="white"/>
<path d="M323.028 280.228H318.797V284.226H323.028V280.228Z" fill="white"/>
<path d="M317.747 280.228H313.516V284.226H317.747V280.228Z" fill="white"/>
<path d="M312.473 280.228H308.242V284.226H312.473V280.228Z" fill="white"/>
<path d="M307.192 280.228H302.961V284.226H307.192V280.228Z" fill="white"/>
<path d="M301.918 280.228H297.688V284.226H301.918V280.228Z" fill="white"/>
<path d="M296.637 280.228H292.406V284.226H296.637V280.228Z" fill="white"/>
<path d="M291.36 280.228H287.129V284.226H291.36V280.228Z" fill="white"/>
<path d="M286.079 280.228H281.848V284.226H286.079V280.228Z" fill="white"/>
<path d="M280.801 280.228H276.57V284.226H280.801V280.228Z" fill="white"/>
<path d="M344.141 272.56H339.91V276.558H344.141V272.56Z" fill="white"/>
<path d="M338.86 272.56H334.629V276.558H338.86V272.56Z" fill="white"/>
<path d="M333.583 272.56H329.352V276.558H333.583V272.56Z" fill="white"/>
<path d="M328.301 272.56H324.07V276.558H328.301V272.56Z" fill="white"/>
<path d="M323.028 272.56H318.797V276.558H323.028V272.56Z" fill="white"/>
<path d="M317.747 272.56H313.516V276.558H317.747V272.56Z" fill="white"/>
<path d="M312.473 272.56H308.242V276.558H312.473V272.56Z" fill="white"/>
<path d="M307.192 272.56H302.961V276.558H307.192V272.56Z" fill="white"/>
<path d="M301.918 272.56H297.688V276.558H301.918V272.56Z" fill="white"/>
<path d="M296.637 272.56H292.406V276.558H296.637V272.56Z" fill="white"/>
<path d="M291.36 272.56H287.129V276.558H291.36V272.56Z" fill="white"/>
<path d="M286.079 272.56H281.848V276.558H286.079V272.56Z" fill="white"/>
<path d="M280.801 272.56H276.57V276.558H280.801V272.56Z" fill="white"/>
<path d="M344.141 267.736H339.91V271.733H344.141V267.736Z" fill="white"/>
<path d="M338.86 267.736H334.629V271.733H338.86V267.736Z" fill="white"/>
<path d="M333.583 267.736H329.352V271.733H333.583V267.736Z" fill="white"/>
<path d="M328.301 267.736H324.07V271.733H328.301V267.736Z" fill="white"/>
<path d="M323.028 267.736H318.797V271.733H323.028V267.736Z" fill="white"/>
<path d="M317.747 267.736H313.516V271.733H317.747V267.736Z" fill="white"/>
<path d="M312.473 267.736H308.242V271.733H312.473V267.736Z" fill="white"/>
<path d="M307.192 267.736H302.961V271.733H307.192V267.736Z" fill="white"/>
<path d="M301.918 267.736H297.688V271.733H301.918V267.736Z" fill="white"/>
<path d="M296.637 267.736H292.406V271.733H296.637V267.736Z" fill="white"/>
<path d="M291.36 267.736H287.129V271.733H291.36V267.736Z" fill="white"/>
<path d="M286.079 267.736H281.848V271.733H286.079V267.736Z" fill="white"/>
<path d="M280.801 267.736H276.57V271.733H280.801V267.736Z" fill="white"/>
<path d="M344.141 262.912H339.91V266.909H344.141V262.912Z" fill="white"/>
<path d="M338.86 262.912H334.629V266.909H338.86V262.912Z" fill="white"/>
<path d="M333.583 262.912H329.352V266.909H333.583V262.912Z" fill="white"/>
<path d="M328.301 262.912H324.07V266.909H328.301V262.912Z" fill="white"/>
<path d="M323.028 262.912H318.797V266.909H323.028V262.912Z" fill="white"/>
<path d="M317.747 262.912H313.516V266.909H317.747V262.912Z" fill="white"/>
<path d="M312.473 262.912H308.242V266.909H312.473V262.912Z" fill="white"/>
<path d="M307.192 262.912H302.961V266.909H307.192V262.912Z" fill="white"/>
<path d="M301.918 262.912H297.688V266.909H301.918V262.912Z" fill="white"/>
<path d="M296.637 262.912H292.406V266.909H296.637V262.912Z" fill="white"/>
<path d="M291.36 262.912H287.129V266.909H291.36V262.912Z" fill="white"/>
<path d="M286.079 262.912H281.848V266.909H286.079V262.912Z" fill="white"/>
<path d="M280.801 262.912H276.57V266.909H280.801V262.912Z" fill="white"/>
<path d="M344.141 258.088H339.91V262.085H344.141V258.088Z" fill="white"/>
<path d="M338.86 258.088H334.629V262.085H338.86V258.088Z" fill="white"/>
<path d="M333.583 258.088H329.352V262.085H333.583V258.088Z" fill="white"/>
<path d="M328.301 258.088H324.07V262.085H328.301V258.088Z" fill="white"/>
<path d="M323.028 258.088H318.797V262.085H323.028V258.088Z" fill="white"/>
<path d="M317.747 258.088H313.516V262.085H317.747V258.088Z" fill="white"/>
<path d="M312.473 258.088H308.242V262.085H312.473V258.088Z" fill="white"/>
<path d="M307.192 258.088H302.961V262.085H307.192V258.088Z" fill="white"/>
<path d="M301.918 258.088H297.688V262.085H301.918V258.088Z" fill="white"/>
<path d="M296.637 258.088H292.406V262.085H296.637V258.088Z" fill="white"/>
<path d="M291.36 258.088H287.129V262.085H291.36V258.088Z" fill="white"/>
<path d="M286.079 258.088H281.848V262.085H286.079V258.088Z" fill="white"/>
<path d="M280.801 258.088H276.57V262.085H280.801V258.088Z" fill="white"/>
<path d="M319.819 243.843H302.043V254.886H319.819V243.843Z" fill="white"/>
<path fill-rule="evenodd" clip-rule="evenodd" d="M257.954 222.257L284.161 253.239C286.582 256.101 288.015 257.335 291.332 259.173C294.13 260.728 296.761 261.524 299.998 261.746L300.06 263.855C294.612 264.318 287.571 262.486 284.384 260.247L252.932 234.787C247.034 231.77 245.372 227.205 246.854 223.732C248.399 220.111 254.056 217.643 257.948 222.251L257.954 222.257Z" fill="#F9C9B3"/>
<path fill-rule="evenodd" clip-rule="evenodd" d="M343.267 174.663C345.769 172.739 350.198 173.954 351.865 176.631L380.623 222.893C382.285 225.57 382.075 229.007 379.58 230.925C377.078 232.844 373.199 232.554 371.538 229.883L342.779 183.621C341.118 180.943 340.772 176.588 343.274 174.663H343.267Z" fill="#F9C9B3"/>
<path fill-rule="evenodd" clip-rule="evenodd" d="M370.772 221.344L338.499 245.965C335.516 248.242 333.854 249.136 330.216 250.222C327.153 251.135 324.41 251.351 321.199 250.87L320.68 252.918C325.899 254.54 333.169 254.269 336.77 252.77L372.971 234.67C379.382 232.992 381.989 228.895 381.291 225.175C380.562 221.307 375.571 217.686 370.772 221.344Z" fill="#F9C9B3"/>
<path fill-rule="evenodd" clip-rule="evenodd" d="M297.946 103.534C292.671 103.534 288.391 107.809 288.391 113.077C288.391 118.346 292.671 122.621 297.946 122.621C303.221 122.621 307.501 118.346 307.501 113.077C307.501 107.809 303.221 103.534 297.946 103.534Z" fill="#E9B317"/>
</g>
<defs>
<clipPath id="clip0_1163_2959">
<rect width="429" height="375" fill="white"/>
</clipPath>
</defs>
</svg>
