<svg width="429" height="376" viewBox="0 0 429 376" fill="none" xmlns="http://www.w3.org/2000/svg">
<g clip-path="url(#clip0_1163_2855)">
<path d="M381.773 68H36.7734V199H381.773V68Z" fill="#DAE1EE"/>
<path d="M381.773 199H36.7734V311H381.773V199Z" fill="#91B6A5"/>
<path fill-rule="evenodd" clip-rule="evenodd" d="M288.657 100.478C298.439 111.241 312.598 118 328.349 118C357.854 118 381.773 94.2702 381.773 65C381.773 35.7298 357.854 12 328.349 12C312.598 12 298.439 18.7588 288.657 29.5219C278.876 18.7588 264.716 12 248.965 12C233.215 12 219.055 18.7588 209.273 29.5219C199.492 18.7588 185.332 12 169.582 12C153.831 12 139.671 18.7588 129.89 29.5219C120.108 18.7588 105.949 12 90.1978 12C60.6932 12 36.7734 35.7298 36.7734 65C36.7734 94.2702 60.6932 118 90.1978 118C105.949 118 120.108 111.241 129.89 100.478C139.671 111.241 153.831 118 169.582 118C185.332 118 199.492 111.241 209.273 100.478C219.055 111.241 233.215 118 248.965 118C264.716 118 278.876 111.241 288.657 100.478Z" fill="#DAE1EE"/>
<path fill-rule="evenodd" clip-rule="evenodd" d="M288.884 346.313C298.665 357.177 312.825 364 328.576 364C358.08 364 382 340.046 382 310.5C382 280.954 358.08 257 328.576 257C312.825 257 298.665 263.822 288.884 274.687C279.102 263.822 264.943 257 249.192 257C233.441 257 219.281 263.822 209.5 274.687C199.719 263.822 185.559 257 169.808 257C154.057 257 139.898 263.822 130.116 274.687C120.335 263.822 106.175 257 90.4244 257C60.9198 257 37 280.954 37 310.5C37 340.046 60.9198 364 90.4244 364C106.175 364 120.335 357.167 130.116 346.313C139.898 357.177 154.057 364 169.808 364C185.559 364 199.719 357.167 209.5 346.313C219.281 357.177 233.441 364 249.192 364C264.943 364 279.102 357.167 288.884 346.313Z" fill="#91B6A5"/>
<path fill-rule="evenodd" clip-rule="evenodd" d="M217.512 53.8785V85.5366C219.089 84.3882 221.031 83.7067 223.141 83.7067C228.435 83.7067 232.72 88.0012 232.72 93.2853C232.72 98.5695 228.425 102.864 223.141 102.864C221.041 102.864 219.099 102.182 217.512 101.034V133.327H296.979V101.156C298.529 102.229 300.415 102.864 302.44 102.864C307.734 102.864 312.019 98.5788 312.019 93.2853C312.019 87.9919 307.725 83.7067 302.44 83.7067C300.405 83.7067 298.529 84.3416 296.979 85.4152V53.8692H217.512V53.8785Z" fill="#A1CAB7"/>
<path fill-rule="evenodd" clip-rule="evenodd" d="M92.3298 68.8873H108.163C108.163 60.8024 101.078 54.2486 92.3298 54.2486C83.582 54.2486 76.4961 60.8024 76.4961 68.8873H92.3298Z" fill="#758AAF"/>
<path fill-rule="evenodd" clip-rule="evenodd" d="M78.8853 68.8874H90.966C90.966 62.7163 85.5605 57.7216 78.8853 57.7216C72.2102 57.7216 66.8047 62.7257 66.8047 68.8874H78.8853Z" fill="#758AAF"/>
<path fill-rule="evenodd" clip-rule="evenodd" d="M142.739 68.8872H152.056C152.056 64.1259 147.883 60.2702 142.739 60.2702C137.595 60.2702 133.422 64.1259 133.422 68.8872H142.739Z" fill="#758AAF"/>
<path fill-rule="evenodd" clip-rule="evenodd" d="M116.116 68.8874H136.17C136.17 58.6459 127.188 50.3369 116.116 50.3369C105.044 50.3369 96.0625 58.6459 96.0625 68.8874H116.116Z" fill="#F1F3F5"/>
<path d="M193.733 222.005C226.637 189.102 226.637 135.754 193.733 102.85C160.829 69.9463 107.481 69.9463 74.5777 102.85C41.6738 135.754 41.6738 189.102 74.5777 222.005C107.481 254.909 160.829 254.909 193.733 222.005Z" fill="#001E60"/>
<path d="M170.995 209.854H97.3242V267.865H170.995V209.854Z" fill="#001E60"/>
<path d="M170.995 267.865H97.3242V279.839H170.995V267.865Z" fill="#A1CAB7"/>
<path d="M170.995 279.839H97.3242V291.813H170.995V279.839Z" fill="#001E60"/>
<path d="M170.995 291.813H97.3242V303.788H170.995V291.813Z" fill="#A1CAB7"/>
<path d="M170.995 303.788H97.3242V315.762H170.995V303.788Z" fill="#001E60"/>
<path d="M152.106 315.75H116.195V327.725H152.106V315.75Z" fill="#A1CAB7"/>
<path d="M134.156 234.544C173.984 234.544 206.272 202.257 206.272 162.428C206.272 122.599 173.984 90.3114 134.156 90.3114C94.3267 90.3114 62.0391 122.599 62.0391 162.428C62.0391 202.257 94.3267 234.544 134.156 234.544Z" fill="white"/>
<path fill-rule="evenodd" clip-rule="evenodd" d="M160.916 151.266L166.686 157.024L146.917 176.792L146.858 176.733L146.799 176.792L132.8 162.793L118.8 176.792L118.742 176.733L118.683 176.792L98.9258 157.024L104.683 151.266L118.742 165.324L127.042 157.024L132.8 151.266L138.569 157.024L146.858 165.324L160.916 151.266Z" fill="#A7CDBA"/>
<path d="M193.733 222.005C226.637 189.102 226.637 135.754 193.733 102.85C160.829 69.9463 107.481 69.9463 74.5777 102.85C41.6738 135.754 41.6738 189.102 74.5777 222.005C107.481 254.909 160.829 254.909 193.733 222.005Z" fill="#001E60"/>
<path d="M170.995 209.854H97.3242V267.865H170.995V209.854Z" fill="#001E60"/>
<path d="M170.995 267.865H97.3242V279.839H170.995V267.865Z" fill="#A1CAB7"/>
<path d="M170.995 279.839H97.3242V291.813H170.995V279.839Z" fill="#001E60"/>
<path d="M170.995 291.813H97.3242V303.788H170.995V291.813Z" fill="#A1CAB7"/>
<path d="M170.995 303.788H97.3242V315.762H170.995V303.788Z" fill="#001E60"/>
<path d="M152.106 315.75H116.195V327.725H152.106V315.75Z" fill="#A1CAB7"/>
<path d="M134.156 234.544C173.984 234.544 206.272 202.257 206.272 162.428C206.272 122.599 173.984 90.3114 134.156 90.3114C94.3267 90.3114 62.0391 122.599 62.0391 162.428C62.0391 202.257 94.3267 234.544 134.156 234.544Z" fill="white"/>
<path fill-rule="evenodd" clip-rule="evenodd" d="M160.916 151.266L166.686 157.024L146.917 176.792L146.858 176.733L146.799 176.792L132.8 162.793L118.8 176.792L118.742 176.733L118.683 176.792L98.9258 157.024L104.683 151.266L118.742 165.324L127.042 157.024L132.8 151.266L138.569 157.024L146.858 165.324L160.916 151.266Z" fill="#A7CDBA"/>
<path d="M92.7695 151.266L134.156 234.544" stroke="#C9D4E7" stroke-width="1.85" stroke-miterlimit="22.93"/>
<path d="M175.55 151.266L134.152 234.544" stroke="#C9D4E7" stroke-width="1.85" stroke-miterlimit="22.93"/>
<path d="M92.7695 151.266L134.156 234.544" stroke="#C9D4E7" stroke-width="1.85" stroke-miterlimit="22.93"/>
<path d="M175.55 151.266L134.152 234.544" stroke="#C9D4E7" stroke-width="1.85" stroke-miterlimit="22.93"/>
<path fill-rule="evenodd" clip-rule="evenodd" d="M313.823 274.133C314.67 274.149 315.518 274.165 316.365 274.165L313.823 274.133ZM319.148 274.165C320.091 274.165 321.019 274.133 321.947 274.101L319.148 274.165ZM327.112 142.286C326.2 149.935 322.73 161.305 318.524 163.165L318.604 175.993C319.772 175.993 320.939 175.961 322.106 175.929C323.162 172.289 329.047 167.526 334.084 164.864C343.248 160.022 353.931 159.589 369.139 161.962C372.865 162.539 374.208 163.197 374.64 164.095C375.056 164.993 374.576 166.147 372.082 168.457C362.758 177.1 355.306 181.285 344.399 182.44C336.547 183.274 324.297 182.295 322.202 178.254C322.074 178.014 321.995 177.773 321.947 177.517C320.827 177.549 319.708 177.581 318.572 177.581L318.7 200.336C319.836 200.336 320.955 200.304 322.058 200.272C323.114 196.632 328.999 191.869 334.037 189.207C343.2 184.364 353.883 183.931 369.091 186.304C372.817 186.882 374.16 187.539 374.592 188.437C375.008 189.335 374.528 190.49 372.034 192.799C362.71 201.442 355.258 205.628 344.351 206.782C336.499 207.616 324.249 206.638 322.154 202.597C322.027 202.356 321.947 202.116 321.899 201.859C320.827 201.891 319.756 201.907 318.668 201.923L318.796 224.678C319.884 224.678 320.955 224.646 322.027 224.614C323.082 220.974 328.967 216.211 334.005 213.549C343.168 208.707 353.851 208.274 369.059 210.647C372.785 211.224 374.129 211.882 374.56 212.78C374.976 213.678 374.496 214.832 372.002 217.141C362.678 225.785 355.226 229.97 344.319 231.125C336.467 231.959 324.217 230.98 322.122 226.939C321.995 226.699 321.915 226.458 321.867 226.202C320.843 226.234 319.804 226.25 318.764 226.266L318.892 249.021C319.932 249.021 320.955 248.989 321.979 248.957C323.034 245.316 328.919 240.554 333.957 237.892C343.12 233.049 353.803 232.616 369.011 234.989C372.737 235.567 374.081 236.224 374.512 237.122C374.928 238.02 374.448 239.175 371.954 241.484C362.63 250.127 355.178 254.313 344.271 255.467C336.419 256.301 324.169 255.323 322.074 251.282C321.947 251.041 321.867 250.801 321.819 250.544C320.843 250.576 319.852 250.592 318.86 250.608L318.956 266.885L319.004 274.149L319.26 320.605C319.26 321.375 318.636 322 317.869 322C317.101 322 316.477 321.375 316.477 320.605L316.221 274.165L316.173 266.885L316.077 250.608C315.262 250.608 314.446 250.592 313.631 250.576C313.583 250.817 313.503 251.057 313.391 251.282C311.312 255.323 299.062 256.285 291.194 255.467C280.303 254.313 272.835 250.127 263.512 241.484C261.033 239.175 260.537 238.02 260.953 237.122C261.369 236.224 262.728 235.567 266.454 234.989C281.679 232.616 292.361 233.049 301.509 237.892C306.562 240.554 312.463 245.349 313.503 248.989C314.35 249.005 315.198 249.021 316.045 249.037L315.918 226.282C315.15 226.282 314.382 226.266 313.615 226.25C313.567 226.49 313.487 226.731 313.375 226.955C311.296 230.996 299.046 231.959 291.178 231.141C280.287 229.986 272.819 225.801 263.496 217.157C261.017 214.848 260.521 213.694 260.937 212.796C261.353 211.898 262.712 211.24 266.438 210.663C281.663 208.29 292.345 208.723 301.493 213.565C306.546 216.227 312.447 221.022 313.487 224.662C314.286 224.678 315.086 224.694 315.902 224.71L315.774 201.955C315.054 201.955 314.318 201.939 313.599 201.923C313.551 202.164 313.471 202.404 313.359 202.629C311.28 206.67 299.03 207.632 291.162 206.814C280.271 205.66 272.803 201.474 263.48 192.831C261.001 190.522 260.505 189.367 260.921 188.469C261.337 187.571 262.696 186.914 266.422 186.337C281.647 183.963 292.329 184.396 301.477 189.239C306.53 191.901 312.431 196.696 313.471 200.336C314.222 200.352 314.99 200.368 315.742 200.368L315.614 177.613C314.926 177.613 314.254 177.597 313.583 177.581C313.535 177.821 313.455 178.062 313.343 178.286C311.264 182.328 299.014 183.29 291.146 182.472C280.255 181.317 272.787 177.132 263.464 168.489C260.985 166.179 260.489 165.025 260.905 164.127C261.321 163.229 262.68 162.571 266.406 161.994C281.631 159.621 292.313 160.054 301.461 164.897C306.514 167.559 312.415 172.353 313.455 175.993C314.158 176.009 314.878 176.025 315.598 176.025L315.518 162.988C312.239 161.192 308.961 154.553 307.49 149.117C304.819 139.175 306.77 128.575 312.479 114.047C313.871 110.487 314.814 109.284 315.79 109.044C316.765 108.803 317.773 109.509 319.468 112.395C325.801 123.235 328.215 131.366 326.904 142.318L327.112 142.286ZM291.354 279.826C280.463 278.671 272.995 274.486 263.672 265.842C261.193 263.533 260.697 262.379 261.113 261.481C261.529 260.583 262.888 259.925 266.614 259.348C281.839 256.975 292.521 257.408 301.669 262.25C303.972 263.469 306.45 265.121 308.561 266.901C311.44 269.322 313.647 272 313.807 274.149C313.855 274.694 313.759 275.191 313.519 275.656C311.44 279.697 299.19 280.66 291.322 279.842L291.354 279.826ZM344.415 279.826C336.563 280.66 324.313 279.681 322.218 275.64C321.979 275.175 321.899 274.662 321.947 274.101C322.138 271.968 324.313 269.322 327.176 266.901C329.287 265.105 331.782 263.453 334.084 262.234C343.248 257.391 353.931 256.958 369.139 259.332C372.865 259.909 374.208 260.567 374.64 261.465C375.056 262.363 374.576 263.517 372.082 265.826C362.758 274.47 355.306 278.655 344.399 279.81L344.415 279.826Z" fill="#4EA185"/>
<path fill-rule="evenodd" clip-rule="evenodd" d="M279.715 303.48C281.551 303.48 283.051 304.985 283.051 306.826V317.998C283.051 319.839 281.551 321.344 279.715 321.344C277.88 321.344 276.38 319.839 276.38 317.998V306.826C276.38 304.985 277.88 303.48 279.715 303.48Z" fill="#C2CDE1"/>
<path fill-rule="evenodd" clip-rule="evenodd" d="M256.165 328.206C258 328.206 259.5 329.711 259.5 331.551V342.724C259.5 344.565 258 346.069 256.165 346.069C254.329 346.069 252.829 344.565 252.829 342.724V331.551C252.829 329.711 254.329 328.206 256.165 328.206Z" fill="#C2CDE1"/>
<path fill-rule="evenodd" clip-rule="evenodd" d="M260.88 282.287C262.715 282.287 264.215 283.792 264.215 285.632V296.805C264.215 298.646 262.715 300.15 260.88 300.15C259.044 300.15 257.544 298.646 257.544 296.805V285.632C257.544 283.792 259.044 282.287 260.88 282.287Z" fill="#C2CDE1"/>
<path fill-rule="evenodd" clip-rule="evenodd" d="M197.298 229.303C199.133 229.303 200.633 230.808 200.633 232.649V243.822C200.633 245.662 199.133 247.167 197.298 247.167C195.462 247.167 193.962 245.662 193.962 243.822V232.649C193.962 230.808 195.462 229.303 197.298 229.303Z" fill="#C2CDE1"/>
<path fill-rule="evenodd" clip-rule="evenodd" d="M244.395 229.303C246.23 229.303 247.73 230.808 247.73 232.649V243.822C247.73 245.662 246.23 247.167 244.395 247.167C242.56 247.167 241.06 245.662 241.06 243.822V232.649C241.06 230.808 242.56 229.303 244.395 229.303Z" fill="#C2CDE1"/>
<path fill-rule="evenodd" clip-rule="evenodd" d="M223.2 205.755C225.035 205.755 226.535 207.26 226.535 209.101V220.273C226.535 222.114 225.035 223.619 223.2 223.619C221.365 223.619 219.865 222.114 219.865 220.273V209.101C219.865 207.26 221.365 205.755 223.2 205.755Z" fill="#C2CDE1"/>
<path fill-rule="evenodd" clip-rule="evenodd" d="M226.278 256.265C226.278 256.265 226.278 256.457 226.278 256.577C226.278 256.577 226.278 256.793 226.278 256.889C226.278 256.889 226.278 257.104 226.278 257.2C226.278 257.2 226.278 257.416 226.278 257.512C226.278 257.608 226.278 257.728 226.278 257.823C226.278 257.823 226.278 258.039 226.278 258.135C226.278 258.135 226.278 258.351 226.278 258.447C226.278 258.447 226.278 258.662 226.278 258.758C226.278 258.758 226.278 258.974 226.278 259.094C226.278 259.214 226.278 259.31 226.278 259.429C226.278 259.429 226.278 259.645 226.254 259.765C226.254 259.765 226.254 259.981 226.231 260.101C226.231 260.22 226.207 260.316 226.183 260.436C226.183 260.436 226.16 260.652 226.136 260.772C226.136 260.892 226.113 260.988 226.089 261.107C226.089 261.107 226.065 261.323 226.042 261.443C226.042 261.563 225.994 261.659 225.994 261.779C225.994 261.898 225.947 261.994 225.924 262.114C225.924 262.234 225.876 262.33 225.853 262.45C225.853 262.57 225.805 262.665 225.782 262.785C225.758 262.905 225.735 263.025 225.711 263.121C225.687 263.241 225.664 263.361 225.64 263.457C225.617 263.576 225.593 263.696 225.546 263.792C225.522 263.912 225.498 264.032 225.451 264.128C225.428 264.248 225.38 264.367 225.357 264.463C225.333 264.583 225.286 264.703 225.262 264.799C225.239 264.919 225.191 265.039 225.168 265.135C225.12 265.254 225.097 265.374 225.05 265.47C225.05 265.47 224.979 265.71 224.932 265.806C224.932 265.806 224.861 266.045 224.813 266.141C224.813 266.141 224.743 266.381 224.695 266.477C224.695 266.477 224.624 266.717 224.577 266.812C224.577 266.812 224.483 267.052 224.459 267.148C224.459 267.148 224.365 267.388 224.317 267.484C224.317 267.484 224.223 267.723 224.176 267.819C224.176 267.819 224.081 268.059 224.034 268.155C224.034 268.155 223.94 268.395 223.892 268.49C223.892 268.49 223.798 268.73 223.751 268.826C223.751 268.826 223.656 269.066 223.585 269.162C223.491 269.401 223.373 269.617 223.255 269.833C223.255 269.833 223.136 270.049 223.089 270.168C223.089 270.168 222.971 270.384 222.924 270.504C222.924 270.504 222.806 270.72 222.735 270.84C222.735 270.84 222.617 271.055 222.546 271.175C222.546 271.175 222.428 271.391 222.357 271.511C222.357 271.511 222.239 271.726 222.168 271.846C222.168 271.846 222.05 272.062 221.979 272.182C221.837 272.398 221.719 272.613 221.578 272.829C221.578 272.829 221.436 273.045 221.365 273.141C221.223 273.357 221.082 273.572 220.94 273.788C220.94 273.788 220.798 274.004 220.727 274.1C220.727 274.1 220.586 274.315 220.491 274.411C220.491 274.411 220.444 274.459 220.444 274.483L220.397 274.531L220.349 274.603L220.326 274.675L220.302 274.747L220.278 274.819H220.255L220.231 274.891V274.939L220.184 274.963V275.011L220.137 275.034V275.082L220.09 275.106V275.154H220.042C220.042 275.154 220.019 275.202 219.995 275.226C219.971 275.25 219.948 275.298 219.901 275.322L219.877 275.37H219.853V275.418H219.83L219.806 275.49L219.782 275.538L219.759 275.586L219.735 275.634L219.712 275.682L219.688 275.73C219.688 275.73 219.617 275.826 219.57 275.85C219.57 275.85 219.57 275.873 219.546 275.873L219.523 275.921L219.499 275.969L219.475 276.017C219.475 276.017 219.475 276.041 219.452 276.065C219.452 276.065 219.452 276.089 219.428 276.113C219.428 276.113 219.428 276.137 219.405 276.137C219.405 276.137 219.263 276.257 219.192 276.305C219.192 276.305 219.192 276.305 219.168 276.329C219.168 276.329 219.168 276.329 219.145 276.353C219.145 276.353 219.145 276.353 219.121 276.377C219.121 276.377 219.121 276.377 219.097 276.377L219.05 284.311L221.814 282.082C221.814 282.082 221.814 282.034 221.79 282.01C221.79 282.01 221.79 282.01 221.79 281.986C221.79 281.986 221.79 281.986 221.79 281.962C221.79 281.962 221.743 281.77 221.719 281.674C221.719 281.674 221.719 281.65 221.719 281.626C221.719 281.626 221.719 281.603 221.719 281.579C221.719 281.579 221.719 281.555 221.719 281.531C221.719 281.531 221.719 281.507 221.719 281.483C221.719 281.483 221.719 281.459 221.719 281.435C221.719 281.435 221.719 281.411 221.719 281.387C221.719 281.387 221.719 281.267 221.719 281.195V281.147V281.099V281.051V281.003V280.955V280.907V280.859V280.811C221.719 280.811 221.719 280.764 221.719 280.74V280.692V280.644C221.719 280.644 221.719 280.62 221.719 280.596V280.524V280.452V280.38V280.308V280.236V280.164V280.092V280.02C221.719 280.02 221.719 279.972 221.719 279.949C221.719 279.949 221.719 279.901 221.719 279.877C221.719 279.877 221.719 279.829 221.719 279.805V279.757V279.685V279.613V279.541V279.493V279.445V279.373V279.277V279.181V279.086V278.99C221.837 278.51 221.979 278.055 222.144 277.599C222.263 277.264 222.381 276.928 222.499 276.593C222.829 275.706 223.207 274.819 223.609 273.98C223.656 273.884 223.703 273.764 223.774 273.668C223.94 273.357 224.081 273.045 224.27 272.733C224.388 272.542 224.506 272.326 224.601 272.134C224.601 272.134 224.719 271.942 224.766 271.846C224.766 271.846 224.884 271.655 224.932 271.559C225.002 271.463 225.05 271.367 225.12 271.271C225.309 270.983 225.475 270.696 225.664 270.408C225.664 270.408 225.782 270.216 225.853 270.12C225.853 270.12 225.971 269.929 226.042 269.857C226.113 269.761 226.16 269.665 226.231 269.593C226.231 269.593 226.372 269.425 226.42 269.329C226.42 269.329 226.561 269.162 226.609 269.066C226.609 269.066 226.75 268.898 226.821 268.802C226.892 268.706 226.963 268.634 227.034 268.538C227.034 268.538 227.175 268.371 227.246 268.299C227.246 268.299 227.388 268.131 227.459 268.059C227.459 268.059 227.601 267.891 227.671 267.819C227.671 267.819 227.813 267.651 227.884 267.58C227.955 267.508 228.026 267.412 228.097 267.34C228.167 267.268 228.238 267.196 228.309 267.1C228.309 267.1 228.451 266.956 228.522 266.884C228.593 266.812 228.663 266.741 228.734 266.669C228.805 266.597 228.876 266.525 228.947 266.453C229.018 266.381 229.089 266.309 229.159 266.237C229.159 266.237 229.301 266.093 229.372 266.021C229.443 265.95 229.514 265.878 229.585 265.806C229.655 265.734 229.726 265.662 229.797 265.614C229.868 265.542 229.939 265.494 230.033 265.422C230.104 265.35 230.175 265.302 230.27 265.23C230.364 265.158 230.411 265.111 230.506 265.039C230.6 264.967 230.647 264.919 230.742 264.847C230.742 264.847 230.884 264.727 230.978 264.679C231.049 264.631 231.12 264.559 231.214 264.511C231.214 264.511 231.356 264.391 231.451 264.343C231.451 264.343 231.616 264.224 231.687 264.176C231.687 264.176 231.828 264.08 231.923 264.032C231.923 264.032 232.088 263.936 232.159 263.888C232.159 263.888 232.324 263.792 232.395 263.744C232.395 263.744 232.561 263.648 232.632 263.6C232.868 263.457 233.104 263.337 233.316 263.217C233.482 263.145 233.624 263.049 233.789 262.977C234.19 262.785 234.568 262.642 234.97 262.522C235.017 262.522 235.088 262.498 235.135 262.474C235.419 262.402 235.678 262.33 235.962 262.306C235.962 262.306 236.174 262.282 236.293 262.258C236.458 262.258 236.623 262.234 236.789 262.21C236.789 262.21 236.907 262.21 236.954 262.21C237.001 262.21 237.072 262.21 237.119 262.21C237.166 262.21 237.237 262.21 237.285 262.21C237.285 262.21 237.403 262.21 237.45 262.21C237.45 262.21 237.568 262.21 237.615 262.21C237.615 262.21 237.71 262.21 237.781 262.21C237.781 262.21 237.875 262.21 237.946 262.21C237.993 262.21 238.04 262.21 238.111 262.21C238.159 262.21 238.206 262.21 238.277 262.21C238.324 262.21 238.371 262.21 238.442 262.234C238.442 262.234 238.536 262.234 238.607 262.258C238.655 262.258 238.702 262.258 238.749 262.282C238.796 262.282 238.843 262.282 238.891 262.306C238.891 262.306 239.103 262.354 239.198 262.378C239.198 262.378 239.292 262.402 239.339 262.426C239.387 262.426 239.434 262.45 239.481 262.474C239.481 262.474 239.576 262.498 239.623 262.522C239.623 262.522 239.812 262.594 239.906 262.642C239.954 262.642 240.001 262.689 240.048 262.689C240.095 262.689 240.143 262.737 240.19 262.761C240.237 262.761 240.284 262.809 240.332 262.833C240.332 262.833 240.426 262.881 240.473 262.905C240.473 262.905 240.568 262.953 240.615 262.977C240.662 262.977 240.709 263.025 240.757 263.049C240.804 263.073 240.851 263.097 240.898 263.121C240.946 263.145 240.993 263.169 241.04 263.193C241.087 263.217 241.135 263.241 241.182 263.265C241.229 263.289 241.276 263.313 241.324 263.361C241.324 263.361 241.418 263.409 241.442 263.457C241.489 263.481 241.536 263.504 241.56 263.552C241.56 263.552 241.654 263.624 241.678 263.648C241.725 263.672 241.772 263.72 241.796 263.744C241.796 263.744 241.89 263.816 241.914 263.84C241.961 263.864 241.985 263.912 242.032 263.936C242.032 263.936 242.103 264.008 242.15 264.032C242.197 264.056 242.221 264.104 242.268 264.128C242.316 264.152 242.339 264.2 242.386 264.224C242.386 264.224 242.457 264.296 242.505 264.343C242.552 264.391 242.575 264.415 242.623 264.463C242.623 264.463 242.693 264.535 242.741 264.583C242.741 264.583 242.812 264.655 242.859 264.703C242.882 264.727 242.906 264.751 242.93 264.799L243.071 264.679C243.213 264.583 243.497 264.559 243.497 264.727C243.497 264.895 243.567 265.063 243.449 265.158L243.331 265.254C245.174 267.58 245.929 270.935 243.922 274.052C240.875 278.774 233.175 282.777 225.12 283.161C223.278 283.256 222.428 283.017 221.932 282.489L218.838 284.982L218.72 304.902L221.601 302.577C221.601 302.577 221.601 302.529 221.578 302.505C221.578 302.505 221.578 302.505 221.578 302.481C221.578 302.481 221.578 302.481 221.578 302.457C221.578 302.457 221.53 302.265 221.507 302.169C221.507 302.169 221.507 302.146 221.507 302.122C221.507 302.122 221.507 302.098 221.507 302.074C221.507 302.074 221.507 302.05 221.507 302.026C221.507 302.026 221.507 302.002 221.507 301.978C221.507 301.978 221.507 301.954 221.507 301.93C221.507 301.93 221.507 301.906 221.507 301.882C221.507 301.882 221.507 301.762 221.507 301.69V301.642V301.594V301.546V301.498V301.45V301.402V301.354V301.307C221.507 301.307 221.507 301.259 221.507 301.235V301.187V301.139C221.507 301.139 221.507 301.115 221.507 301.091V301.019V300.947V300.875V300.803V300.731V300.683V300.659V300.587V300.515C221.507 300.515 221.507 300.468 221.507 300.444C221.507 300.444 221.507 300.396 221.507 300.372C221.507 300.372 221.507 300.324 221.507 300.3V300.252V300.18V300.108V300.036V299.988V299.94V299.868V299.772V299.677V299.581V299.485C221.625 299.005 221.767 298.55 221.932 298.094C222.05 297.759 222.168 297.423 222.286 297.088C222.617 296.201 222.995 295.314 223.396 294.475C223.443 294.379 223.491 294.259 223.562 294.163C223.727 293.852 223.869 293.54 224.058 293.228C224.176 293.037 224.294 292.821 224.388 292.629C224.388 292.629 224.506 292.437 224.554 292.341C224.554 292.341 224.672 292.15 224.719 292.054C224.79 291.958 224.837 291.862 224.908 291.766C225.097 291.478 225.262 291.191 225.451 290.903C225.451 290.903 225.569 290.711 225.64 290.616C225.64 290.616 225.758 290.424 225.829 290.352C225.9 290.256 225.947 290.16 226.018 290.088C226.018 290.088 226.16 289.92 226.207 289.824C226.207 289.824 226.349 289.657 226.396 289.561C226.396 289.561 226.538 289.393 226.609 289.297C226.679 289.201 226.75 289.129 226.821 289.033C226.821 289.033 226.963 288.866 227.034 288.794C227.034 288.794 227.175 288.626 227.246 288.554C227.246 288.554 227.388 288.386 227.459 288.314C227.459 288.314 227.601 288.147 227.671 288.075C227.742 288.003 227.813 287.907 227.884 287.835C227.955 287.763 228.026 287.691 228.097 287.595C228.097 287.595 228.238 287.451 228.309 287.379C228.38 287.308 228.451 287.236 228.522 287.164C228.593 287.092 228.663 287.02 228.734 286.948C228.805 286.876 228.876 286.804 228.947 286.732C228.947 286.732 229.089 286.588 229.159 286.517C229.23 286.445 229.301 286.373 229.372 286.301C229.443 286.229 229.514 286.157 229.585 286.109C229.655 286.037 229.726 285.989 229.821 285.917C229.915 285.845 229.963 285.797 230.057 285.725C230.128 285.654 230.199 285.606 230.293 285.534C230.388 285.462 230.435 285.414 230.529 285.342C230.529 285.342 230.671 285.222 230.766 285.174C230.836 285.126 230.907 285.054 231.002 285.006C231.002 285.006 231.143 284.887 231.238 284.839C231.238 284.839 231.403 284.719 231.474 284.671C231.474 284.671 231.616 284.575 231.71 284.527C231.71 284.527 231.876 284.431 231.947 284.383C231.947 284.383 232.112 284.287 232.183 284.239C232.183 284.239 232.348 284.143 232.419 284.095C232.655 283.952 232.891 283.832 233.104 283.712C233.269 283.64 233.411 283.544 233.576 283.472C233.978 283.28 234.356 283.137 234.757 283.017C234.805 283.017 234.875 282.993 234.923 282.969C235.206 282.897 235.466 282.825 235.749 282.801C235.749 282.801 235.962 282.777 236.08 282.753C236.293 282.729 236.505 282.705 236.741 282.705C236.789 282.705 236.859 282.705 236.907 282.705C236.954 282.705 237.025 282.705 237.072 282.705C237.072 282.705 237.19 282.705 237.237 282.705C237.237 282.705 237.355 282.705 237.403 282.705C237.403 282.705 237.497 282.705 237.568 282.705C237.568 282.705 237.663 282.705 237.733 282.705C237.781 282.705 237.828 282.705 237.899 282.705C237.946 282.705 237.993 282.705 238.064 282.705C238.064 282.705 238.159 282.705 238.229 282.729C238.229 282.729 238.324 282.729 238.395 282.753C238.442 282.753 238.489 282.753 238.536 282.777C238.584 282.777 238.631 282.777 238.678 282.801C238.678 282.801 238.773 282.825 238.82 282.849C238.82 282.849 238.914 282.873 238.962 282.897C238.962 282.897 239.056 282.921 239.103 282.945C239.151 282.945 239.198 282.969 239.245 282.993C239.245 282.993 239.339 283.017 239.387 283.041C239.387 283.041 239.481 283.065 239.528 283.089C239.528 283.089 239.623 283.137 239.67 283.137C239.717 283.137 239.765 283.185 239.812 283.209C239.859 283.209 239.906 283.256 239.954 283.28C240.001 283.28 240.048 283.328 240.095 283.352C240.095 283.352 240.19 283.4 240.237 283.424C240.284 283.424 240.332 283.472 240.379 283.496C240.426 283.496 240.473 283.544 240.52 283.568C240.568 283.592 240.615 283.616 240.662 283.64C240.709 283.664 240.757 283.688 240.804 283.712C240.851 283.736 240.898 283.76 240.946 283.784C240.993 283.808 241.04 283.832 241.087 283.88C241.087 283.88 241.182 283.928 241.205 283.976C241.253 284 241.3 284.024 241.324 284.071C241.324 284.071 241.418 284.143 241.442 284.167C241.489 284.191 241.536 284.239 241.56 284.263C241.56 284.263 241.654 284.335 241.678 284.359C241.725 284.383 241.749 284.431 241.796 284.455C241.843 284.479 241.867 284.527 241.914 284.551C241.961 284.575 241.985 284.623 242.032 284.647C242.079 284.671 242.103 284.719 242.15 284.743C242.197 284.767 242.221 284.815 242.268 284.863C242.316 284.91 242.339 284.934 242.386 284.982C242.434 285.03 242.457 285.054 242.505 285.102C242.552 285.15 242.575 285.174 242.623 285.222C242.646 285.246 242.67 285.27 242.693 285.318L242.835 285.198C242.977 285.102 243.26 285.078 243.26 285.246C243.26 285.414 243.331 285.582 243.213 285.678L243.095 285.773C244.937 288.099 245.693 291.455 243.686 294.571C240.639 299.293 232.939 303.296 224.884 303.68C223.042 303.776 222.192 303.536 221.696 303.008L218.483 305.597L218.365 325.373L221.365 322.952C221.365 322.952 221.365 322.904 221.341 322.88C221.341 322.88 221.341 322.88 221.341 322.856C221.341 322.856 221.341 322.856 221.341 322.832C221.341 322.832 221.294 322.641 221.27 322.521C221.27 322.521 221.27 322.497 221.27 322.473C221.27 322.473 221.27 322.449 221.27 322.425C221.27 322.425 221.27 322.401 221.27 322.377C221.27 322.377 221.27 322.353 221.27 322.329C221.27 322.329 221.27 322.305 221.27 322.281C221.27 322.281 221.27 322.257 221.27 322.233C221.27 322.233 221.27 322.113 221.27 322.041V321.993V321.945V321.898V321.85V321.802V321.754V321.706V321.658C221.27 321.658 221.27 321.61 221.27 321.586V321.538V321.49C221.27 321.49 221.27 321.466 221.27 321.442V321.37V321.298V321.226V321.154V321.083V321.035V321.011V320.939V320.867C221.27 320.867 221.27 320.819 221.27 320.795C221.27 320.795 221.27 320.747 221.27 320.723C221.27 320.723 221.27 320.675 221.27 320.651V320.603V320.531V320.459V320.387V320.339V320.291V320.22V320.148V320.052V319.956V319.86C221.389 319.405 221.53 318.925 221.696 318.47C221.814 318.134 221.932 317.798 222.05 317.463C222.381 316.576 222.759 315.689 223.16 314.85C223.207 314.754 223.255 314.634 223.325 314.538C223.491 314.227 223.632 313.915 223.821 313.604C223.94 313.412 224.058 313.196 224.152 313.004C224.152 313.004 224.27 312.813 224.317 312.717C224.317 312.717 224.436 312.525 224.483 312.429C224.554 312.333 224.601 312.237 224.672 312.141C224.861 311.854 225.026 311.566 225.215 311.278C225.215 311.278 225.333 311.087 225.404 310.991C225.404 310.991 225.522 310.799 225.593 310.727C225.664 310.631 225.711 310.535 225.782 310.463C225.782 310.463 225.924 310.296 225.971 310.2C225.971 310.2 226.113 310.032 226.16 309.936C226.16 309.936 226.301 309.768 226.372 309.672C226.443 309.576 226.514 309.505 226.585 309.409C226.585 309.409 226.727 309.241 226.797 309.169C226.797 309.169 226.939 309.001 227.01 308.929C227.01 308.929 227.152 308.761 227.223 308.69C227.223 308.69 227.364 308.522 227.435 308.45C227.506 308.378 227.577 308.282 227.648 308.21C227.719 308.138 227.79 308.066 227.86 307.97C227.86 307.97 228.002 307.827 228.073 307.755C228.144 307.683 228.215 307.611 228.286 307.539C228.356 307.467 228.427 307.395 228.498 307.323C228.569 307.251 228.64 307.179 228.711 307.107C228.711 307.107 228.852 306.964 228.923 306.892C228.994 306.82 229.065 306.748 229.136 306.676C229.207 306.604 229.278 306.532 229.348 306.484C229.419 306.412 229.49 306.364 229.585 306.292C229.679 306.221 229.726 306.173 229.821 306.101C229.892 306.029 229.963 305.981 230.057 305.909C230.151 305.837 230.199 305.789 230.293 305.717C230.293 305.717 230.435 305.597 230.529 305.549C230.6 305.501 230.671 305.43 230.766 305.382C230.766 305.382 230.907 305.262 231.002 305.214L231.238 305.046C231.238 305.046 231.38 304.95 231.474 304.902C231.474 304.902 231.64 304.806 231.71 304.758C231.71 304.758 231.876 304.662 231.947 304.615C231.947 304.615 232.112 304.519 232.183 304.471C232.419 304.327 232.655 304.207 232.868 304.087C233.033 304.015 233.175 303.919 233.34 303.847C233.742 303.656 234.12 303.512 234.521 303.392C234.568 303.392 234.639 303.368 234.686 303.344C234.97 303.272 235.23 303.2 235.513 303.176C235.513 303.176 235.726 303.152 235.844 303.128C236.009 303.128 236.174 303.104 236.34 303.08C236.34 303.08 236.458 303.08 236.505 303.08C236.552 303.08 236.623 303.08 236.67 303.08C236.718 303.08 236.789 303.08 236.836 303.08C236.836 303.08 236.954 303.08 237.001 303.08C237.001 303.08 237.119 303.08 237.166 303.08C237.166 303.08 237.261 303.08 237.332 303.08C237.332 303.08 237.426 303.08 237.497 303.08C237.544 303.08 237.592 303.08 237.663 303.08C237.71 303.08 237.757 303.08 237.828 303.08C237.875 303.08 237.922 303.08 237.993 303.104C237.993 303.104 238.088 303.104 238.159 303.128C238.206 303.128 238.253 303.128 238.3 303.152C238.347 303.152 238.395 303.152 238.442 303.176C238.442 303.176 238.655 303.224 238.749 303.248C238.749 303.248 238.843 303.272 238.891 303.296C238.938 303.296 238.985 303.32 239.032 303.344C239.032 303.344 239.127 303.368 239.174 303.392C239.174 303.392 239.363 303.464 239.458 303.512C239.505 303.512 239.552 303.56 239.599 303.56C239.647 303.56 239.694 303.608 239.741 303.632C239.788 303.632 239.836 303.68 239.883 303.704C239.883 303.704 239.977 303.752 240.024 303.776C240.024 303.776 240.119 303.823 240.166 303.847C240.213 303.847 240.261 303.895 240.308 303.919C240.355 303.943 240.402 303.967 240.45 303.991C240.497 304.015 240.544 304.039 240.591 304.063C240.639 304.087 240.686 304.111 240.733 304.135C240.78 304.159 240.828 304.183 240.875 304.231C240.875 304.231 240.969 304.279 240.993 304.327C241.04 304.351 241.087 304.375 241.111 304.423C241.111 304.423 241.205 304.495 241.229 304.519C241.276 304.543 241.324 304.591 241.347 304.615C241.347 304.615 241.442 304.686 241.465 304.71C241.513 304.734 241.536 304.782 241.583 304.806C241.583 304.806 241.654 304.878 241.701 304.902C241.749 304.926 241.772 304.974 241.82 304.998C241.867 305.022 241.89 305.07 241.938 305.094C241.938 305.094 242.009 305.166 242.056 305.214C242.103 305.262 242.127 305.286 242.174 305.334C242.174 305.334 242.245 305.406 242.292 305.454C242.292 305.454 242.363 305.525 242.41 305.573C242.434 305.597 242.457 305.621 242.481 305.669L242.623 305.549C242.764 305.453 243.048 305.43 243.048 305.597C243.048 305.765 243.119 305.933 243.001 306.029L242.882 306.125C244.725 308.45 245.481 311.806 243.473 314.922C240.426 319.644 232.726 323.647 224.672 324.031C222.829 324.127 221.979 323.887 221.483 323.36L218.153 326.045L218.105 335.825C218.105 336.16 217.822 336.448 217.491 336.448C217.491 336.448 217.444 336.448 217.42 336.448C217.397 336.448 217.373 336.448 217.35 336.448C217.019 336.448 216.736 336.16 216.736 335.825L216.688 326.045L213.358 323.36C212.886 323.863 212.012 324.103 210.169 324.031C202.115 323.647 194.415 319.644 191.368 314.922C189.36 311.806 190.116 308.45 191.959 306.125L191.84 306.029C191.699 305.933 191.793 305.765 191.793 305.597C191.793 305.43 192.1 305.43 192.218 305.549L192.36 305.669C192.36 305.669 192.407 305.621 192.431 305.573C192.478 305.525 192.502 305.501 192.549 305.454C192.549 305.454 192.62 305.382 192.667 305.334C192.667 305.334 192.738 305.262 192.785 305.214C192.832 305.166 192.856 305.142 192.903 305.094C192.903 305.094 192.974 305.022 193.021 304.998C193.069 304.974 193.092 304.926 193.14 304.902C193.187 304.878 193.21 304.83 193.258 304.806C193.258 304.806 193.328 304.734 193.376 304.71C193.423 304.686 193.447 304.639 193.494 304.615C193.494 304.615 193.588 304.543 193.612 304.519C193.659 304.495 193.706 304.447 193.73 304.423C193.73 304.423 193.825 304.351 193.848 304.327C193.895 304.303 193.943 304.279 193.966 304.231C193.966 304.231 194.061 304.183 194.108 304.135C194.155 304.111 194.202 304.087 194.25 304.063C194.297 304.039 194.344 304.015 194.391 303.991C194.439 303.967 194.486 303.943 194.533 303.919C194.58 303.895 194.628 303.871 194.675 303.847C194.722 303.847 194.769 303.8 194.817 303.776C194.817 303.776 194.911 303.728 194.958 303.704C194.958 303.704 195.053 303.656 195.1 303.632C195.147 303.632 195.194 303.584 195.242 303.56C195.289 303.56 195.336 303.512 195.383 303.512C195.478 303.464 195.572 303.44 195.667 303.392C195.667 303.392 195.761 303.368 195.809 303.344C195.809 303.344 195.903 303.32 195.95 303.296C195.998 303.296 196.045 303.272 196.092 303.248C196.092 303.248 196.281 303.2 196.399 303.176C196.399 303.176 196.494 303.176 196.541 303.152C196.588 303.152 196.635 303.152 196.682 303.128C196.73 303.128 196.777 303.128 196.848 303.104C196.848 303.104 196.942 303.104 197.013 303.08C197.06 303.08 197.108 303.08 197.178 303.08C197.226 303.08 197.273 303.08 197.344 303.08C197.391 303.08 197.438 303.08 197.509 303.08C197.509 303.08 197.627 303.08 197.674 303.08C197.674 303.08 197.769 303.08 197.84 303.08C197.84 303.08 197.934 303.08 198.005 303.08C198.005 303.08 198.123 303.08 198.171 303.08C198.218 303.08 198.289 303.08 198.336 303.08C198.383 303.08 198.454 303.08 198.501 303.08C198.667 303.08 198.832 303.08 198.997 303.128C198.997 303.128 199.21 303.152 199.328 303.176C199.611 303.224 199.871 303.272 200.155 303.344C200.155 303.344 200.273 303.368 200.32 303.392C200.698 303.512 201.099 303.656 201.501 303.847C201.666 303.919 201.808 303.991 201.973 304.087C202.209 304.207 202.446 304.327 202.658 304.471C202.658 304.471 202.824 304.567 202.894 304.615C202.894 304.615 203.06 304.71 203.131 304.758C203.131 304.758 203.296 304.854 203.367 304.902C203.367 304.902 203.532 304.998 203.603 305.046C203.603 305.046 203.745 305.142 203.839 305.214C203.839 305.214 204.005 305.334 204.075 305.382C204.075 305.382 204.217 305.501 204.312 305.549C204.382 305.597 204.453 305.669 204.548 305.717C204.548 305.717 204.69 305.837 204.784 305.909C204.878 305.981 204.926 306.029 205.02 306.101C205.091 306.173 205.162 306.221 205.256 306.292C205.327 306.364 205.398 306.412 205.469 306.484C205.54 306.556 205.611 306.628 205.705 306.676C205.776 306.748 205.847 306.82 205.918 306.892C205.989 306.964 206.059 307.036 206.13 307.107C206.13 307.107 206.272 307.251 206.343 307.323C206.414 307.395 206.485 307.467 206.555 307.539C206.626 307.611 206.697 307.683 206.768 307.755C206.839 307.827 206.91 307.899 206.981 307.97C206.981 307.97 207.122 308.114 207.193 308.21C207.264 308.282 207.335 308.354 207.406 308.45C207.477 308.522 207.547 308.618 207.618 308.69C207.618 308.69 207.76 308.857 207.831 308.929C207.831 308.929 207.973 309.097 208.044 309.169C208.044 309.169 208.185 309.337 208.256 309.409C208.256 309.409 208.398 309.576 208.469 309.672C208.54 309.768 208.61 309.84 208.681 309.936C208.681 309.936 208.823 310.104 208.87 310.2C208.87 310.2 209.012 310.368 209.059 310.463C209.059 310.463 209.201 310.631 209.248 310.727C209.319 310.823 209.366 310.919 209.437 310.991C209.437 310.991 209.555 311.183 209.626 311.278C209.815 311.566 210.004 311.854 210.193 312.141C210.193 312.141 210.311 312.333 210.382 312.429C210.453 312.525 210.5 312.621 210.547 312.717C210.547 312.717 210.665 312.908 210.713 313.004C210.831 313.196 210.949 313.412 211.043 313.604C211.209 313.915 211.374 314.227 211.539 314.538C211.539 314.538 211.634 314.754 211.705 314.85C212.106 315.689 212.484 316.576 212.815 317.463C212.933 317.798 213.051 318.134 213.169 318.47C213.311 318.925 213.452 319.381 213.594 319.86V319.932V319.98V320.004V320.052V320.076V320.124V320.148V320.196V320.22V320.268V320.315V320.363V320.387V320.435V320.459V320.507V320.531V320.579C213.594 320.579 213.594 320.627 213.594 320.651C213.594 320.651 213.594 320.699 213.594 320.723C213.594 320.723 213.594 320.771 213.594 320.795V320.843V320.915V320.987V321.035V321.059V321.13V321.202V321.274V321.346C213.594 321.346 213.594 321.394 213.594 321.418V321.466V321.514C213.594 321.514 213.594 321.538 213.594 321.562V321.61V321.682V321.73V321.778V321.826V321.874V321.922V321.969C213.594 321.969 213.594 322.089 213.594 322.161C213.594 322.161 213.594 322.185 213.594 322.209C213.594 322.209 213.594 322.233 213.594 322.257C213.594 322.257 213.594 322.281 213.594 322.305C213.594 322.305 213.594 322.329 213.594 322.353C213.594 322.353 213.594 322.377 213.594 322.401C213.594 322.401 213.594 322.425 213.594 322.449C213.594 322.449 213.547 322.665 213.523 322.737V322.761C213.523 322.761 213.523 322.76 213.523 322.784C213.523 322.784 213.523 322.832 213.5 322.856L216.499 325.277L216.381 305.501L213.169 302.913C212.697 303.416 211.823 303.656 209.98 303.584C201.926 303.2 194.226 299.197 191.179 294.475C189.171 291.359 189.927 288.003 191.77 285.678L191.651 285.582C191.51 285.486 191.604 285.318 191.604 285.15C191.604 284.982 191.911 284.982 192.029 285.102L192.171 285.222C192.171 285.222 192.218 285.174 192.242 285.126C192.289 285.078 192.313 285.054 192.36 285.006C192.407 284.958 192.431 284.934 192.478 284.886C192.525 284.839 192.549 284.815 192.596 284.767C192.644 284.719 192.667 284.695 192.714 284.647C192.762 284.599 192.785 284.575 192.832 284.551C192.88 284.527 192.903 284.479 192.951 284.455C192.998 284.431 193.021 284.383 193.069 284.359C193.116 284.335 193.14 284.287 193.187 284.263C193.234 284.239 193.258 284.191 193.305 284.167C193.305 284.167 193.399 284.095 193.423 284.071C193.47 284.048 193.517 284 193.541 283.976C193.541 283.976 193.636 283.904 193.659 283.88C193.706 283.856 193.754 283.832 193.777 283.784C193.777 283.784 193.872 283.736 193.919 283.688C193.966 283.664 194.013 283.64 194.061 283.616C194.108 283.592 194.155 283.568 194.202 283.544C194.25 283.52 194.297 283.496 194.344 283.472C194.391 283.448 194.439 283.424 194.486 283.4C194.533 283.4 194.58 283.352 194.628 283.328C194.675 283.328 194.722 283.28 194.769 283.256C194.769 283.256 194.864 283.209 194.911 283.185C194.958 283.185 195.005 283.137 195.053 283.113C195.1 283.113 195.147 283.065 195.194 283.041C195.242 283.041 195.289 282.993 195.336 282.993C195.336 282.993 195.431 282.945 195.478 282.945C195.478 282.945 195.572 282.921 195.62 282.897C195.62 282.897 195.714 282.873 195.761 282.849C195.809 282.849 195.856 282.825 195.903 282.801C195.903 282.801 195.998 282.777 196.045 282.753C196.045 282.753 196.139 282.729 196.186 282.705C196.186 282.705 196.281 282.705 196.328 282.681C196.375 282.681 196.423 282.681 196.47 282.657C196.517 282.657 196.564 282.657 196.635 282.633C196.635 282.633 196.73 282.633 196.801 282.609C196.801 282.609 196.895 282.609 196.966 282.609C197.013 282.609 197.06 282.609 197.131 282.609C197.178 282.609 197.226 282.609 197.297 282.609C197.297 282.609 197.415 282.609 197.462 282.609C197.462 282.609 197.556 282.609 197.627 282.609C197.627 282.609 197.722 282.609 197.793 282.609C197.793 282.609 197.911 282.609 197.958 282.609C198.005 282.609 198.076 282.609 198.123 282.609C198.336 282.609 198.548 282.609 198.785 282.657C198.785 282.657 198.997 282.681 199.115 282.705C199.399 282.753 199.659 282.801 199.942 282.873C199.942 282.873 200.06 282.897 200.107 282.921C200.485 283.041 200.887 283.185 201.288 283.376C201.454 283.448 201.595 283.52 201.761 283.616C201.997 283.736 202.233 283.856 202.446 284C202.446 284 202.611 284.095 202.682 284.143C202.682 284.143 202.847 284.239 202.918 284.287C202.918 284.287 203.083 284.383 203.154 284.431C203.154 284.431 203.32 284.527 203.39 284.575C203.39 284.575 203.532 284.671 203.627 284.743C203.627 284.743 203.792 284.863 203.863 284.91C203.863 284.91 204.005 285.03 204.099 285.078C204.17 285.126 204.241 285.198 204.335 285.246C204.335 285.246 204.477 285.366 204.571 285.438C204.666 285.51 204.713 285.558 204.808 285.63C204.878 285.701 204.949 285.749 205.044 285.821C205.115 285.893 205.186 285.941 205.256 286.013C205.327 286.085 205.398 286.157 205.493 286.205C205.563 286.277 205.634 286.349 205.705 286.421C205.776 286.493 205.847 286.564 205.918 286.636C205.918 286.636 206.059 286.78 206.13 286.852C206.201 286.924 206.272 286.996 206.343 287.068C206.414 287.14 206.485 287.212 206.555 287.284C206.626 287.355 206.697 287.427 206.768 287.499C206.768 287.499 206.91 287.643 206.981 287.739C207.051 287.811 207.122 287.907 207.193 287.979C207.264 288.051 207.335 288.147 207.406 288.218C207.406 288.218 207.547 288.386 207.618 288.458C207.618 288.458 207.76 288.626 207.831 288.698C207.831 288.698 207.973 288.866 208.044 288.938C208.044 288.938 208.185 289.105 208.256 289.201C208.327 289.297 208.398 289.369 208.469 289.465C208.469 289.465 208.61 289.633 208.658 289.729C208.658 289.729 208.799 289.896 208.847 289.992C208.847 289.992 208.988 290.16 209.036 290.256C209.106 290.352 209.154 290.448 209.224 290.52C209.224 290.52 209.343 290.711 209.413 290.807C209.602 291.095 209.791 291.383 209.98 291.67C209.98 291.67 210.098 291.862 210.169 291.958C210.24 292.054 210.287 292.15 210.335 292.246C210.335 292.246 210.453 292.437 210.5 292.533C210.618 292.725 210.736 292.941 210.831 293.132C210.996 293.444 211.161 293.756 211.327 294.067C211.327 294.067 211.421 294.283 211.492 294.379C211.894 295.218 212.271 296.105 212.602 296.992C212.72 297.327 212.838 297.663 212.956 297.999C213.098 298.454 213.24 298.909 213.382 299.389V299.461V299.509V299.533V299.581V299.605V299.653V299.677V299.724V299.748V299.796V299.844V299.892V299.916V299.964V299.988V300.036V300.06V300.108C213.382 300.108 213.382 300.156 213.382 300.18C213.382 300.18 213.382 300.228 213.382 300.252C213.382 300.252 213.382 300.3 213.382 300.324V300.372V300.444V300.515V300.563V300.587V300.659V300.731V300.803V300.875C213.382 300.875 213.382 300.923 213.382 300.947V300.995V301.043C213.382 301.043 213.382 301.067 213.382 301.091V301.139V301.211V301.259V301.307V301.354V301.402V301.45V301.498C213.382 301.498 213.382 301.618 213.382 301.69C213.382 301.69 213.382 301.714 213.382 301.738C213.382 301.738 213.382 301.762 213.382 301.786C213.382 301.786 213.382 301.81 213.382 301.834C213.382 301.834 213.382 301.858 213.382 301.882C213.382 301.882 213.382 301.906 213.382 301.93C213.382 301.93 213.382 301.954 213.382 301.978C213.382 301.978 213.334 302.193 213.311 302.265C213.311 302.265 213.311 302.289 213.311 302.313C213.311 302.313 213.311 302.313 213.311 302.337C213.311 302.337 213.311 302.385 213.287 302.409L216.169 304.734L216.051 284.815L212.956 282.322C212.484 282.825 211.61 283.065 209.768 282.993C201.713 282.609 194.013 278.606 190.967 273.884C188.959 270.768 189.715 267.412 191.557 265.087L191.439 264.991C191.297 264.895 191.392 264.727 191.392 264.559C191.392 264.391 191.699 264.391 191.817 264.511L191.959 264.631C191.959 264.631 192.006 264.583 192.029 264.535C192.077 264.487 192.1 264.463 192.148 264.415C192.148 264.415 192.218 264.343 192.266 264.296C192.266 264.296 192.336 264.224 192.384 264.176C192.431 264.128 192.455 264.104 192.502 264.056C192.502 264.056 192.573 263.984 192.62 263.96C192.667 263.936 192.691 263.888 192.738 263.864C192.785 263.84 192.809 263.792 192.856 263.768C192.856 263.768 192.927 263.696 192.974 263.672C193.021 263.648 193.045 263.6 193.092 263.576C193.092 263.576 193.187 263.504 193.21 263.481C193.258 263.457 193.305 263.409 193.328 263.385C193.328 263.385 193.423 263.337 193.447 263.289C193.494 263.265 193.541 263.241 193.565 263.193C193.565 263.193 193.659 263.145 193.706 263.097C193.754 263.073 193.801 263.049 193.848 263.025C193.895 263.001 193.943 262.977 193.99 262.953C194.037 262.929 194.084 262.905 194.132 262.881C194.179 262.857 194.226 262.833 194.273 262.809C194.321 262.785 194.368 262.761 194.415 262.737C194.415 262.737 194.509 262.689 194.557 262.666C194.557 262.666 194.651 262.618 194.698 262.594C194.746 262.594 194.793 262.546 194.84 262.522C194.887 262.522 194.935 262.474 194.982 262.474C195.076 262.426 195.171 262.402 195.265 262.354C195.265 262.354 195.36 262.33 195.407 262.306C195.407 262.306 195.501 262.282 195.549 262.258C195.596 262.258 195.643 262.234 195.69 262.21C195.69 262.21 195.879 262.162 195.998 262.138C195.998 262.138 196.092 262.138 196.139 262.114C196.186 262.114 196.234 262.114 196.281 262.09C196.328 262.09 196.375 262.09 196.446 262.066C196.446 262.066 196.541 262.066 196.612 262.042C196.659 262.042 196.706 262.042 196.777 262.042C196.824 262.042 196.871 262.042 196.942 262.042C196.99 262.042 197.037 262.042 197.108 262.042C197.108 262.042 197.226 262.042 197.273 262.042C197.273 262.042 197.367 262.042 197.438 262.042C197.438 262.042 197.533 262.042 197.604 262.042C197.604 262.042 197.722 262.042 197.769 262.042C197.816 262.042 197.887 262.042 197.934 262.042C197.982 262.042 198.052 262.042 198.1 262.042C198.265 262.042 198.43 262.042 198.596 262.09C198.596 262.09 198.808 262.114 198.926 262.138C199.21 262.186 199.47 262.234 199.753 262.306C199.753 262.306 199.871 262.33 199.918 262.354C200.296 262.474 200.698 262.618 201.099 262.809C201.265 262.881 201.406 262.953 201.572 263.049C201.808 263.169 202.044 263.289 202.257 263.433C202.257 263.433 202.422 263.528 202.493 263.576C202.493 263.576 202.658 263.672 202.729 263.72C202.729 263.72 202.894 263.816 202.965 263.864C202.965 263.864 203.131 263.96 203.201 264.008C203.201 264.008 203.343 264.104 203.438 264.176C203.438 264.176 203.603 264.296 203.674 264.343C203.674 264.343 203.816 264.463 203.91 264.511C203.981 264.559 204.052 264.631 204.146 264.679C204.146 264.679 204.288 264.799 204.382 264.871C204.477 264.943 204.524 264.991 204.619 265.063C204.69 265.135 204.76 265.182 204.855 265.254C204.926 265.326 204.997 265.374 205.067 265.446C205.138 265.518 205.209 265.59 205.304 265.638C205.374 265.71 205.445 265.782 205.516 265.854C205.587 265.926 205.658 265.997 205.729 266.069C205.729 266.069 205.871 266.213 205.941 266.285C206.012 266.357 206.083 266.429 206.154 266.501C206.225 266.573 206.296 266.645 206.367 266.717C206.437 266.788 206.508 266.86 206.579 266.932C206.579 266.932 206.721 267.076 206.792 267.172C206.863 267.244 206.933 267.34 207.004 267.412C207.075 267.484 207.146 267.58 207.217 267.651C207.217 267.651 207.359 267.819 207.429 267.891C207.429 267.891 207.571 268.059 207.642 268.131C207.642 268.131 207.784 268.299 207.855 268.371C207.855 268.371 207.996 268.538 208.067 268.634C208.138 268.73 208.209 268.802 208.28 268.898C208.28 268.898 208.421 269.066 208.469 269.162C208.469 269.162 208.61 269.329 208.658 269.425C208.658 269.425 208.799 269.617 208.847 269.689C208.917 269.785 208.965 269.881 209.036 269.953C209.036 269.953 209.154 270.144 209.224 270.24C209.413 270.528 209.602 270.792 209.791 271.103C209.791 271.103 209.909 271.295 209.98 271.391C210.051 271.487 210.098 271.583 210.146 271.679C210.146 271.679 210.264 271.87 210.311 271.966C210.429 272.158 210.547 272.374 210.642 272.565C210.807 272.877 210.972 273.189 211.138 273.5C211.138 273.5 211.232 273.716 211.303 273.812C211.705 274.651 212.082 275.538 212.413 276.425C212.531 276.76 212.649 277.096 212.767 277.432C212.909 277.887 213.051 278.342 213.193 278.822V278.894V278.942V278.966V279.014V279.038V279.086V279.11V279.157V279.181V279.229V279.277V279.325V279.349V279.397V279.421V279.469V279.493V279.541C213.193 279.541 213.193 279.589 213.193 279.613C213.193 279.613 213.193 279.661 213.193 279.685C213.193 279.685 213.193 279.733 213.193 279.757V279.805V279.877V279.949V280.02V280.092V280.164V280.236V280.308C213.193 280.308 213.193 280.356 213.193 280.38V280.428V280.476C213.193 280.476 213.193 280.5 213.193 280.524V280.572V280.644V280.692V280.74V280.787V280.835V280.883V280.931C213.193 280.931 213.193 281.051 213.193 281.123C213.193 281.123 213.193 281.147 213.193 281.171C213.193 281.171 213.193 281.195 213.193 281.219C213.193 281.219 213.193 281.243 213.193 281.267C213.193 281.267 213.193 281.291 213.193 281.315C213.193 281.315 213.193 281.339 213.193 281.363C213.193 281.363 213.193 281.387 213.193 281.411C213.193 281.411 213.145 281.626 213.122 281.698C213.122 281.698 213.122 281.722 213.122 281.746C213.122 281.746 213.122 281.746 213.122 281.77C213.122 281.77 213.122 281.818 213.098 281.842L215.862 284.071L215.814 276.137C215.814 276.137 215.814 276.137 215.791 276.137C215.791 276.137 215.791 276.137 215.767 276.113C215.767 276.113 215.767 276.113 215.743 276.089C215.743 276.089 215.744 276.089 215.72 276.065C215.72 276.065 215.578 275.945 215.484 275.897C215.484 275.897 215.484 275.873 215.46 275.873C215.46 275.873 215.46 275.849 215.436 275.826C215.436 275.826 215.436 275.802 215.413 275.778L215.389 275.73L215.366 275.682L215.342 275.634C215.342 275.634 215.342 275.61 215.318 275.586C215.318 275.586 215.247 275.514 215.2 275.466L215.177 275.442L215.153 275.394L215.129 275.346L215.106 275.298L215.082 275.25L215.059 275.202H215.035V275.154H215.011L214.988 275.106C214.988 275.106 214.94 275.011 214.893 274.987C214.893 274.987 214.87 274.939 214.846 274.939V274.915V274.867L214.799 274.843V274.795L214.751 274.771V274.723L214.704 274.699V274.651L214.657 274.627H214.633L214.61 274.555H214.586L214.563 274.483L214.515 274.411L214.468 274.339L214.421 274.267C214.421 274.243 214.374 274.219 214.374 274.196C214.374 274.196 214.232 273.98 214.137 273.884C214.137 273.884 213.996 273.668 213.925 273.572C213.783 273.357 213.641 273.141 213.5 272.925C213.5 272.925 213.358 272.709 213.287 272.613C213.145 272.398 213.004 272.182 212.886 271.966C212.886 271.966 212.744 271.75 212.697 271.631C212.697 271.631 212.578 271.415 212.508 271.295C212.508 271.295 212.39 271.079 212.319 270.959C212.319 270.959 212.201 270.744 212.13 270.624C212.13 270.624 212.012 270.408 211.941 270.288C211.941 270.288 211.823 270.073 211.775 269.953C211.775 269.953 211.657 269.737 211.61 269.617C211.492 269.401 211.397 269.162 211.279 268.946C211.279 268.946 211.185 268.706 211.114 268.61C211.114 268.61 211.02 268.371 210.972 268.275C210.972 268.275 210.878 268.035 210.831 267.939C210.831 267.939 210.736 267.699 210.689 267.604C210.689 267.604 210.594 267.364 210.547 267.268C210.547 267.268 210.453 267.028 210.405 266.932C210.405 266.932 210.311 266.693 210.287 266.597C210.287 266.597 210.193 266.357 210.169 266.261C210.169 266.261 210.098 266.021 210.051 265.926C210.051 265.926 209.98 265.686 209.933 265.59C209.933 265.59 209.862 265.35 209.815 265.254C209.815 265.254 209.744 265.015 209.721 264.919C209.697 264.799 209.65 264.679 209.626 264.583C209.602 264.463 209.555 264.343 209.532 264.248C209.508 264.128 209.461 264.008 209.437 263.912C209.413 263.792 209.366 263.672 209.343 263.576C209.319 263.457 209.295 263.337 209.248 263.241C209.224 263.121 209.201 263.001 209.177 262.905C209.154 262.785 209.13 262.666 209.106 262.57C209.083 262.45 209.059 262.354 209.036 262.234C209.036 262.114 208.988 262.018 208.965 261.898C208.965 261.779 208.917 261.683 208.894 261.563C208.894 261.443 208.847 261.347 208.847 261.227C208.847 261.107 208.823 261.012 208.799 260.892C208.799 260.892 208.776 260.676 208.752 260.556C208.752 260.436 208.728 260.34 208.705 260.22C208.705 260.22 208.681 260.005 208.658 259.885C208.658 259.765 208.658 259.669 208.634 259.549C208.634 259.549 208.634 259.334 208.61 259.214C208.61 259.214 208.61 258.998 208.587 258.878C208.587 258.758 208.587 258.662 208.587 258.543C208.587 258.543 208.587 258.327 208.587 258.231C208.587 258.231 208.587 258.015 208.587 257.919C208.587 257.919 208.587 257.704 208.587 257.608V257.296C208.587 257.296 208.587 257.08 208.587 256.984C208.587 256.984 208.587 256.769 208.587 256.673C208.587 256.673 208.587 256.457 208.587 256.361C208.587 256.361 208.587 256.169 208.587 256.05C208.658 255.139 208.776 254.276 208.965 253.461C209.036 253.197 209.106 252.957 209.177 252.694C209.177 252.694 209.224 252.574 209.248 252.502C209.248 252.502 209.295 252.382 209.319 252.31C209.413 252.07 209.508 251.831 209.602 251.615C209.602 251.615 209.721 251.399 209.768 251.279C209.768 251.279 209.886 251.064 209.933 250.968C209.933 250.968 210.004 250.872 210.028 250.824C210.028 250.824 210.098 250.728 210.122 250.68C210.122 250.68 210.193 250.584 210.217 250.536C210.217 250.536 210.287 250.44 210.311 250.392C210.311 250.392 210.382 250.297 210.405 250.249C210.405 250.249 210.476 250.153 210.5 250.105C210.5 250.105 210.571 250.009 210.618 249.961C210.618 249.961 210.689 249.865 210.736 249.817C210.783 249.769 210.807 249.721 210.854 249.697C210.854 249.697 210.925 249.601 210.972 249.577C211.02 249.529 211.043 249.505 211.09 249.458C211.09 249.458 211.161 249.386 211.209 249.338C211.209 249.338 211.279 249.266 211.327 249.218C211.374 249.17 211.397 249.146 211.445 249.098C211.445 249.098 211.539 249.026 211.563 248.978C211.61 248.93 211.657 248.906 211.681 248.858C211.728 248.81 211.775 248.786 211.799 248.762C211.846 248.738 211.894 248.69 211.941 248.667C211.988 248.643 212.035 248.595 212.082 248.571L212.224 248.475C212.224 248.475 212.319 248.403 212.366 248.379C212.413 248.355 212.46 248.307 212.508 248.283C212.555 248.259 212.602 248.211 212.649 248.187C212.649 248.187 212.744 248.139 212.791 248.091C212.838 248.043 212.886 248.043 212.933 247.995C212.98 247.971 213.027 247.947 213.074 247.923C213.122 247.899 213.169 247.875 213.216 247.852C213.263 247.828 213.311 247.804 213.358 247.78C213.405 247.756 213.452 247.732 213.5 247.708C213.547 247.708 213.594 247.66 213.641 247.636C213.689 247.636 213.736 247.588 213.783 247.564C213.83 247.564 213.878 247.516 213.948 247.492C213.996 247.492 214.043 247.444 214.114 247.42C214.114 247.42 214.208 247.372 214.279 247.372C214.326 247.372 214.374 247.324 214.444 247.324C214.492 247.324 214.539 247.3 214.61 247.276C214.657 247.276 214.728 247.252 214.775 247.228C214.822 247.228 214.893 247.204 214.94 247.18C214.988 247.18 215.059 247.156 215.106 247.132C215.153 247.132 215.224 247.108 215.271 247.084C215.318 247.06 215.389 247.06 215.436 247.037C215.484 247.037 215.555 247.036 215.602 247.013C215.649 247.013 215.72 247.013 215.767 246.989C215.767 246.989 215.885 246.989 215.932 246.965C215.98 246.965 216.051 246.965 216.098 246.965C216.145 246.965 216.216 246.965 216.263 246.965C216.31 246.965 216.381 246.965 216.428 246.965C216.476 246.965 216.547 246.965 216.594 246.965C216.641 246.965 216.712 246.965 216.759 246.965C216.806 246.965 216.877 246.965 216.924 246.965C216.972 246.965 217.019 246.965 217.066 246.965C217.137 246.965 217.232 246.965 217.302 246.965C217.302 246.965 217.468 246.965 217.539 246.965C217.586 246.965 217.633 246.965 217.68 246.965C217.728 246.965 217.798 246.965 217.846 246.965C217.893 246.965 217.964 246.965 218.011 246.965C218.058 246.965 218.129 246.965 218.176 246.965C218.224 246.965 218.294 246.965 218.342 246.965C218.389 246.965 218.46 246.965 218.507 246.965C218.554 246.965 218.625 246.965 218.672 246.965C218.72 246.965 218.79 246.965 218.838 246.989C218.838 246.989 218.956 246.989 219.003 247.013C219.05 247.013 219.121 247.013 219.168 247.037C219.216 247.037 219.286 247.037 219.334 247.084C219.381 247.084 219.452 247.108 219.499 247.132C219.546 247.132 219.617 247.156 219.664 247.18C219.712 247.18 219.782 247.204 219.83 247.228C219.877 247.228 219.948 247.252 219.995 247.276C220.042 247.276 220.113 247.3 220.16 247.324C220.208 247.324 220.255 247.348 220.326 247.372C220.373 247.372 220.42 247.42 220.491 247.42C220.491 247.42 220.586 247.468 220.656 247.492C220.704 247.492 220.751 247.54 220.822 247.564C220.869 247.564 220.916 247.612 220.963 247.636C221.011 247.636 221.058 247.684 221.105 247.708C221.152 247.708 221.2 247.756 221.247 247.78C221.294 247.804 221.341 247.828 221.389 247.852C221.436 247.875 221.483 247.899 221.53 247.923C221.578 247.947 221.625 247.971 221.672 247.995C221.719 248.019 221.767 248.043 221.814 248.091C221.861 248.115 221.908 248.139 221.955 248.187C221.955 248.187 222.05 248.235 222.097 248.283C222.144 248.307 222.192 248.355 222.239 248.379C222.286 248.403 222.333 248.451 222.381 248.475L222.522 248.571C222.522 248.571 222.617 248.643 222.664 248.667C222.711 248.69 222.759 248.738 222.806 248.762C222.853 248.786 222.9 248.834 222.924 248.858C222.971 248.906 223.018 248.93 223.042 248.978C223.089 249.026 223.136 249.05 223.16 249.098C223.16 249.098 223.255 249.17 223.278 249.218C223.325 249.266 223.349 249.29 223.396 249.338C223.396 249.338 223.467 249.41 223.514 249.458C223.514 249.458 223.585 249.529 223.632 249.577C223.68 249.625 223.703 249.673 223.751 249.697C223.751 249.697 223.821 249.793 223.869 249.817C223.916 249.865 223.94 249.913 223.987 249.961C223.987 249.961 224.058 250.057 224.105 250.105C224.105 250.105 224.176 250.201 224.199 250.249C224.199 250.249 224.27 250.344 224.294 250.392C224.294 250.392 224.365 250.488 224.388 250.536C224.388 250.536 224.459 250.632 224.483 250.68C224.483 250.68 224.554 250.776 224.577 250.824C224.577 250.824 224.648 250.92 224.672 250.968C224.672 250.968 224.79 251.183 224.837 251.279C224.837 251.279 224.955 251.495 225.002 251.615C225.097 251.831 225.215 252.07 225.286 252.31C225.286 252.31 225.333 252.43 225.357 252.502C225.357 252.502 225.404 252.622 225.428 252.694C225.498 252.933 225.569 253.197 225.64 253.461C225.829 254.276 225.947 255.139 226.018 256.05L226.278 256.265Z" fill="#4EA185"/>
</g>
<defs>
<clipPath id="clip0_1163_2855">
<rect width="429" height="375" fill="white" transform="translate(0 0.5)"/>
</clipPath>
</defs>
</svg>
