<svg width="1440" height="467" viewBox="0 0 1440 467" fill="none" xmlns="http://www.w3.org/2000/svg">
<path d="M1149.83 235.962C1015.27 254.616 629.484 465.439 626 467H1440V315.29C1357.4 275.899 1316.67 212.832 1149.83 235.962Z" fill="#EDE7E4"/>
<path d="M290.087 435.291C207.533 391.915 210.68 305.477 66.6487 380.598C34.5499 397.339 12.4482 401.61 -4 399.033V466.908H458.627C390.143 446.865 338.99 460.972 290.087 435.291Z" fill="#EDE7E4"/>
<path fill-rule="evenodd" clip-rule="evenodd" d="M1088.95 193.154L1099.21 369.93C1099.93 382.289 1090.77 392.455 1080.47 392.455C1070.17 392.455 1061.02 382.289 1061.73 369.93L1071.99 193.154C1072.97 176.288 1088.47 176.429 1088.95 193.154Z" fill="#A1CAB7"/>
<path d="M1326.85 383.79H832V436.965H1326.85V383.79Z" fill="#A1CAB7"/>
<path d="M935.115 326.166H926.02V383.941H935.115V326.166Z" fill="#0A5244"/>
<path d="M935.115 326.166H926.02V383.941H935.115V326.166Z" fill="#0A5244"/>
<path d="M934.714 321.006C982.86 321.006 1021.89 281.977 1021.89 233.831C1021.89 185.685 982.86 146.656 934.714 146.656C886.569 146.656 847.539 185.685 847.539 233.831C847.539 281.977 886.569 321.006 934.714 321.006Z" fill="#4F9475"/>
<path d="M934.714 321.006C982.86 321.006 1021.89 281.977 1021.89 233.831C1021.89 185.685 982.86 146.656 934.714 146.656C886.569 146.656 847.539 185.685 847.539 233.831C847.539 281.977 886.569 321.006 934.714 321.006Z" fill="#4F9475"/>
<path d="M832 233.831C832 262.19 843.5 287.869 862.09 306.459C880.679 325.048 906.359 336.548 934.718 336.548C963.077 336.548 988.756 325.048 1007.35 306.459C1025.94 287.869 1037.44 262.19 1037.44 233.831H1006.34C1006.34 253.615 998.312 271.515 985.357 284.485C972.402 297.44 954.486 305.463 934.702 305.463C914.918 305.463 897.018 297.44 884.048 284.485C871.093 271.53 863.07 253.615 863.07 233.831H832Z" fill="#0A5244"/>
<path d="M832 233.831C832 262.19 843.5 287.869 862.09 306.459C880.679 325.048 906.359 336.548 934.718 336.548C963.077 336.548 988.756 325.048 1007.35 306.459C1025.94 287.869 1037.44 262.19 1037.44 233.831H1006.34C1006.34 253.615 998.312 271.515 985.357 284.485C972.402 297.44 954.486 305.463 934.702 305.463C914.918 305.463 897.018 297.44 884.048 284.485C871.093 271.53 863.07 253.615 863.07 233.831H832Z" fill="#0A5244"/>
<path fill-rule="evenodd" clip-rule="evenodd" d="M929.281 128.801H934.196C937.963 128.801 941.026 131.879 941.026 135.631V164.679H929.266V128.786L929.281 128.801Z" fill="#F9C9B3"/>
<path fill-rule="evenodd" clip-rule="evenodd" d="M929.281 128.801H934.196C937.963 128.801 941.026 131.879 941.026 135.631V164.679H929.266V128.786L929.281 128.801Z" fill="#F9C9B3"/>
<path fill-rule="evenodd" clip-rule="evenodd" d="M971.209 163.974C975.481 163.974 978.972 167.465 978.972 171.737V247.75C978.972 252.022 975.481 255.513 971.209 255.513C966.937 255.513 963.445 252.022 963.445 247.75V171.737C963.445 167.465 966.937 163.974 971.209 163.974Z" fill="#F9C9B3"/>
<path fill-rule="evenodd" clip-rule="evenodd" d="M971.209 163.974C975.481 163.974 978.972 167.465 978.972 171.737V247.75C978.972 252.022 975.481 255.513 971.209 255.513C966.937 255.513 963.445 252.022 963.445 247.75V171.737C963.445 167.465 966.937 163.974 971.209 163.974Z" fill="#F9C9B3"/>
<path fill-rule="evenodd" clip-rule="evenodd" d="M977.269 242.834C990.055 250.123 1004.01 259.617 1016.1 267.488L1037.33 269.8L1036.59 273.031L1016.64 274.669C1015.58 274.593 1013.9 273.873 1012.37 273.291L971.818 257.963C965.096 255.421 963.074 250.736 964.636 246.846C966.259 242.804 971.695 239.664 977.254 242.834H977.269Z" fill="#F9C9B3"/>
<path fill-rule="evenodd" clip-rule="evenodd" d="M977.269 242.834C990.055 250.123 1004.01 259.617 1016.1 267.488L1037.33 269.8L1036.59 273.031L1016.64 274.669C1015.58 274.593 1013.9 273.873 1012.37 273.291L971.818 257.963C965.096 255.421 963.074 250.736 964.636 246.846C966.259 242.804 971.695 239.664 977.254 242.834H977.269Z" fill="#F9C9B3"/>
<path fill-rule="evenodd" clip-rule="evenodd" d="M971.209 163.974C976.323 163.974 980.504 168.154 980.504 173.268V204.966H961.914V173.268C961.914 168.154 966.094 163.974 971.209 163.974Z" fill="#758AAF"/>
<path fill-rule="evenodd" clip-rule="evenodd" d="M971.209 163.974C976.323 163.974 980.504 168.154 980.504 173.268V204.966H961.914V173.268C961.914 168.154 966.094 163.974 971.209 163.974Z" fill="#758AAF"/>
<path fill-rule="evenodd" clip-rule="evenodd" d="M961.058 227.614L975.176 188.72C977.549 182.35 981.025 175.842 977.075 168.828C973.384 162.29 968.086 164.036 962.206 164.036H893.023C887.633 164.036 883.238 169.043 883.238 175.168C883.238 178.353 884.433 181.216 886.316 183.253L906.054 224.674L961.042 227.614H961.058Z" fill="#8299C2"/>
<path fill-rule="evenodd" clip-rule="evenodd" d="M961.058 227.614L975.176 188.72C977.549 182.35 981.025 175.842 977.075 168.828C973.384 162.29 968.086 164.036 962.206 164.036H893.023C887.633 164.036 883.238 169.043 883.238 175.168C883.238 178.353 884.433 181.216 886.316 183.253L906.054 224.674L961.042 227.614H961.058Z" fill="#8299C2"/>
<path fill-rule="evenodd" clip-rule="evenodd" d="M900.57 164.035L961.882 225.347L962.755 222.943L903.847 164.035H900.57Z" fill="#A4B4D3"/>
<path fill-rule="evenodd" clip-rule="evenodd" d="M885.215 168.506L943.388 226.679L946.849 226.863L886.7 166.715C886.149 167.251 885.644 167.848 885.215 168.506Z" fill="#A4B4D3"/>
<path fill-rule="evenodd" clip-rule="evenodd" d="M891.966 195.058L922.454 225.546L925.915 225.73L888.98 188.796L891.966 195.058Z" fill="#A4B4D3"/>
<path fill-rule="evenodd" clip-rule="evenodd" d="M919.511 164.035L890.83 192.716L889.773 190.495L916.234 164.035H919.511Z" fill="#A4B4D3"/>
<path fill-rule="evenodd" clip-rule="evenodd" d="M939.327 164.035L897.232 206.13L896.176 203.909L936.05 164.035H939.327Z" fill="#A4B4D3"/>
<path fill-rule="evenodd" clip-rule="evenodd" d="M959.143 164.035L903.635 219.559L902.578 217.339L955.866 164.035H959.143Z" fill="#A4B4D3"/>
<path fill-rule="evenodd" clip-rule="evenodd" d="M975.906 167.082L917.702 225.285L914.594 225.117L974.252 165.459C974.834 165.887 975.385 166.423 975.921 167.066L975.906 167.082Z" fill="#A4B4D3"/>
<path fill-rule="evenodd" clip-rule="evenodd" d="M975.861 186.959L936.507 226.312L933.398 226.144L977.79 181.752C977.239 183.498 976.55 185.228 975.876 186.959H975.861Z" fill="#A4B4D3"/>
<path fill-rule="evenodd" clip-rule="evenodd" d="M964.499 218.135L955.327 227.307L952.203 227.139L966.383 212.974L964.499 218.135Z" fill="#A4B4D3"/>
<path fill-rule="evenodd" clip-rule="evenodd" d="M903.267 164.035L885.32 181.981C884.876 181.323 884.478 180.619 884.172 179.853L899.99 164.035H903.267Z" fill="#A4B4D3"/>
<path fill-rule="evenodd" clip-rule="evenodd" d="M960.016 164.035L977.763 181.783C978.039 180.925 978.268 180.068 978.452 179.195L963.277 164.02C962.925 164.02 962.573 164.035 962.205 164.035H960.016Z" fill="#A4B4D3"/>
<path fill-rule="evenodd" clip-rule="evenodd" d="M940.199 164.035L972.448 196.284L973.321 193.864L943.491 164.035H940.199Z" fill="#A4B4D3"/>
<path fill-rule="evenodd" clip-rule="evenodd" d="M920.387 164.035L967.167 210.815L968.04 208.411L923.664 164.035H920.387Z" fill="#A4B4D3"/>
<path fill-rule="evenodd" clip-rule="evenodd" d="M900.57 164.035L961.882 225.347L962.755 222.943L903.847 164.035H900.57Z" fill="#A4B4D3"/>
<path fill-rule="evenodd" clip-rule="evenodd" d="M900.57 164.035L961.882 225.347L962.755 222.943L903.847 164.035H900.57Z" fill="#A4B4D3"/>
<path fill-rule="evenodd" clip-rule="evenodd" d="M885.215 168.506L943.388 226.679L946.849 226.863L886.7 166.715C886.149 167.251 885.644 167.848 885.215 168.506Z" fill="#A4B4D3"/>
<path fill-rule="evenodd" clip-rule="evenodd" d="M891.966 195.058L922.454 225.546L925.915 225.73L888.98 188.796L891.966 195.058Z" fill="#A4B4D3"/>
<path fill-rule="evenodd" clip-rule="evenodd" d="M919.511 164.035L890.83 192.716L889.773 190.495L916.234 164.035H919.511Z" fill="#A4B4D3"/>
<path fill-rule="evenodd" clip-rule="evenodd" d="M939.327 164.035L897.232 206.13L896.176 203.909L936.05 164.035H939.327Z" fill="#A4B4D3"/>
<path fill-rule="evenodd" clip-rule="evenodd" d="M959.143 164.035L903.635 219.559L902.578 217.339L955.866 164.035H959.143Z" fill="#A4B4D3"/>
<path fill-rule="evenodd" clip-rule="evenodd" d="M975.906 167.082L917.702 225.285L914.594 225.117L974.252 165.459C974.834 165.887 975.385 166.423 975.921 167.066L975.906 167.082Z" fill="#A4B4D3"/>
<path fill-rule="evenodd" clip-rule="evenodd" d="M975.861 186.959L936.507 226.312L933.398 226.144L977.79 181.752C977.239 183.498 976.55 185.228 975.876 186.959H975.861Z" fill="#A4B4D3"/>
<path fill-rule="evenodd" clip-rule="evenodd" d="M964.499 218.135L955.327 227.307L952.203 227.139L966.383 212.974L964.499 218.135Z" fill="#A4B4D3"/>
<path fill-rule="evenodd" clip-rule="evenodd" d="M903.267 164.035L885.32 181.981C884.876 181.323 884.478 180.619 884.172 179.853L899.99 164.035H903.267Z" fill="#A4B4D3"/>
<path fill-rule="evenodd" clip-rule="evenodd" d="M960.016 164.035L977.763 181.783C978.039 180.925 978.268 180.068 978.452 179.195L963.277 164.02C962.925 164.02 962.573 164.035 962.205 164.035H960.016Z" fill="#A4B4D3"/>
<path fill-rule="evenodd" clip-rule="evenodd" d="M940.199 164.035L972.448 196.284L973.321 193.864L943.491 164.035H940.199Z" fill="#A4B4D3"/>
<path fill-rule="evenodd" clip-rule="evenodd" d="M920.387 164.035L967.167 210.815L968.04 208.411L923.664 164.035H920.387Z" fill="#A4B4D3"/>
<path fill-rule="evenodd" clip-rule="evenodd" d="M900.57 164.035L961.882 225.347L962.755 222.943L903.847 164.035H900.57Z" fill="#A4B4D3"/>
<path fill-rule="evenodd" clip-rule="evenodd" d="M962.586 248.5L905.5 248.561L907.031 275.558L962.571 276.002L962.586 248.5Z" fill="#001E60"/>
<path fill-rule="evenodd" clip-rule="evenodd" d="M962.586 248.5L905.5 248.561L907.031 275.558L962.571 276.002L962.586 248.5Z" fill="#001E60"/>
<path fill-rule="evenodd" clip-rule="evenodd" d="M951.97 276.445L1040 301.39C1045.87 303.059 1050.26 300.119 1051.66 296.352C1053.14 292.309 1051.21 287.348 1045.42 285.02L961.081 251.072C951.067 247.045 943.257 252.052 941.282 258.958C939.567 264.976 941.879 273.612 951.955 276.46L951.97 276.445Z" fill="#001E60"/>
<path fill-rule="evenodd" clip-rule="evenodd" d="M951.97 276.445L1040 301.39C1045.87 303.059 1050.26 300.119 1051.66 296.352C1053.14 292.309 1051.21 287.348 1045.42 285.02L961.081 251.072C951.067 247.045 943.257 252.052 941.282 258.958C939.567 264.976 941.879 273.612 951.955 276.46L951.97 276.445Z" fill="#001E60"/>
<path fill-rule="evenodd" clip-rule="evenodd" d="M914.721 282.218L1003.98 335.384C1009.94 338.936 1015.62 336.992 1018.23 333.271C1021.05 329.274 1020.39 323.271 1014.71 319.014L932.162 257.044C922.362 249.694 912.332 252.894 908.136 259.877C904.476 265.987 904.492 276.124 914.721 282.218Z" fill="#001E60"/>
<path fill-rule="evenodd" clip-rule="evenodd" d="M914.721 282.218L1003.98 335.384C1009.94 338.936 1015.62 336.992 1018.23 333.271C1021.05 329.274 1020.39 323.271 1014.71 319.014L932.162 257.044C922.362 249.694 912.332 252.894 908.136 259.877C904.476 265.987 904.492 276.124 914.721 282.218Z" fill="#001E60"/>
<path d="M962.571 223.586H905.5V253.246H962.571V223.586Z" fill="#001E60"/>
<path d="M962.571 223.586H905.5V253.246H962.571V223.586Z" fill="#001E60"/>
<path d="M962.571 223.586H905.5V230.997H962.571V223.586Z" fill="#001E60"/>
<path d="M962.571 223.586H905.5V230.997H962.571V223.586Z" fill="#001E60"/>
<path fill-rule="evenodd" clip-rule="evenodd" d="M937.596 128.815H929.266C929.266 123.395 932.987 119 937.596 119C939.05 119 940.49 119.459 941.761 120.317L937.596 128.815Z" fill="black" stroke="#1F1F1F" stroke-width="0.12" stroke-miterlimit="22.93"/>
<path fill-rule="evenodd" clip-rule="evenodd" d="M937.596 128.815H929.266C929.266 123.395 932.987 119 937.596 119C939.05 119 940.49 119.459 941.761 120.317L937.596 128.815Z" fill="black" stroke="#1F1F1F" stroke-width="0.12" stroke-miterlimit="22.93"/>
<path fill-rule="evenodd" clip-rule="evenodd" d="M922.59 163.989H947.596C944.793 168.383 940.245 171.247 935.1 171.247C929.955 171.247 925.407 168.383 922.605 163.989H922.59Z" fill="white"/>
<path fill-rule="evenodd" clip-rule="evenodd" d="M922.59 163.989H947.596C944.793 168.383 940.245 171.247 935.1 171.247C929.955 171.247 925.407 168.383 922.605 163.989H922.59Z" fill="white"/>
<path fill-rule="evenodd" clip-rule="evenodd" d="M937.863 145.047L940.221 132.352L944.417 144.495L937.863 145.047Z" fill="#F9C9B3"/>
<path fill-rule="evenodd" clip-rule="evenodd" d="M937.863 145.047L940.221 132.352L944.417 144.495L937.863 145.047Z" fill="#F9C9B3"/>
<path fill-rule="evenodd" clip-rule="evenodd" d="M940.981 144.771H934.855C934.855 148.753 937.596 151.984 940.981 151.984C942.052 151.984 943.109 151.647 944.043 151.019L940.981 144.771Z" fill="black" stroke="#1F1F1F" stroke-width="0.12" stroke-miterlimit="22.93"/>
<path fill-rule="evenodd" clip-rule="evenodd" d="M940.981 144.771H934.855C934.855 148.753 937.596 151.984 940.981 151.984C942.052 151.984 943.109 151.647 944.043 151.019L940.981 144.771Z" fill="black" stroke="#1F1F1F" stroke-width="0.12" stroke-miterlimit="22.93"/>
<path fill-rule="evenodd" clip-rule="evenodd" d="M1007.42 337.789L1081.09 379.731V379.761C1080.97 379.914 1088.35 384.278 1089.5 385.121C1090.19 385.626 1091.69 385.626 1092.22 384.799L1102.01 370.298C1103.74 367.802 1102.74 366.99 1099.74 369.992C1095.61 374.126 1089.57 377.801 1084.84 373.988L1017.97 322.155C1011.39 317.056 1004.95 318.771 1002.2 323.518C999.779 327.667 1000.42 333.792 1007.42 337.789Z" fill="#001E60"/>
<path fill-rule="evenodd" clip-rule="evenodd" d="M1087.14 383.605C1088.24 384.294 1089.16 384.86 1089.51 385.12C1090.2 385.626 1091.7 385.626 1092.24 384.799L1102.02 370.298C1103.75 367.802 1102.76 366.99 1099.75 369.991C1097.84 371.906 1095.53 373.712 1093.12 374.738L1087.14 383.605Z" fill="black"/>
<path fill-rule="evenodd" clip-rule="evenodd" d="M1007.42 337.789L1081.09 379.731V379.761C1080.97 379.914 1088.35 384.278 1089.5 385.121C1090.19 385.626 1091.69 385.626 1092.22 384.799L1102.01 370.298C1103.74 367.802 1102.74 366.99 1099.74 369.992C1095.61 374.126 1089.57 377.801 1084.84 373.988L1017.97 322.155C1011.39 317.056 1004.95 318.771 1002.2 323.518C999.779 327.667 1000.42 333.792 1007.42 337.789Z" fill="#001E60"/>
<path fill-rule="evenodd" clip-rule="evenodd" d="M1087.14 383.605C1088.24 384.294 1089.16 384.86 1089.51 385.12C1090.2 385.626 1091.7 385.626 1092.24 384.799L1102.02 370.298C1103.75 367.802 1102.76 366.99 1099.75 369.991C1097.84 371.906 1095.53 373.712 1093.12 374.738L1087.14 383.605Z" fill="black"/>
<path fill-rule="evenodd" clip-rule="evenodd" d="M1032.6 299.461L1009.42 373.942H1009.38C1009.2 373.942 1006.72 381.491 1006.17 382.732C1005.83 383.482 1006.23 384.569 1007.18 384.569H1024.15C1027.09 384.6 1027.64 383.467 1023.89 382.762C1018.71 381.782 1013.52 379.179 1016.12 373.85H1016.11L1050.9 299.446C1054.33 292.126 1050.99 288.268 1045.54 288.589C1040.79 288.865 1034.83 292.356 1032.63 299.446L1032.6 299.461Z" fill="#001E60"/>
<path fill-rule="evenodd" clip-rule="evenodd" d="M1007.07 380.266C1006.67 381.414 1006.32 382.364 1006.17 382.747C1005.83 383.497 1006.23 384.584 1007.18 384.584H1024.15C1027.09 384.615 1027.64 383.482 1023.89 382.777C1021.5 382.318 1019.09 381.522 1017.47 380.266H1007.09H1007.07Z" fill="black"/>
<path fill-rule="evenodd" clip-rule="evenodd" d="M1032.6 299.461L1009.42 373.942H1009.38C1009.2 373.942 1006.72 381.491 1006.17 382.732C1005.83 383.482 1006.23 384.569 1007.18 384.569H1024.15C1027.09 384.6 1027.64 383.467 1023.89 382.762C1018.71 381.782 1013.52 379.179 1016.12 373.85H1016.11L1050.9 299.446C1054.33 292.126 1050.99 288.268 1045.54 288.589C1040.79 288.865 1034.83 292.356 1032.63 299.446L1032.6 299.461Z" fill="#001E60"/>
<path fill-rule="evenodd" clip-rule="evenodd" d="M1007.07 380.266C1006.67 381.414 1006.32 382.364 1006.17 382.747C1005.83 383.497 1006.23 384.584 1007.18 384.584H1024.15C1027.09 384.615 1027.64 383.482 1023.89 382.777C1021.5 382.318 1019.09 381.522 1017.47 380.266H1007.09H1007.07Z" fill="black"/>
<path d="M970.966 374.845H890.176V383.941H970.966V374.845Z" fill="#0A5244"/>
<path d="M970.966 374.845H890.176V383.941H970.966V374.845Z" fill="#0A5244"/>
<path fill-rule="evenodd" clip-rule="evenodd" d="M1280.33 140.744H1113.75V428.425H1275.52C1287.92 428.425 1293.56 418.946 1293.56 408.778V153.975C1293.56 146.701 1287.6 140.744 1280.33 140.744Z" fill="#4F9475"/>
<path fill-rule="evenodd" clip-rule="evenodd" d="M1276.74 406.206H1113.58V437.414H1276.74C1299.17 437.414 1299.17 406.206 1276.74 406.206Z" fill="#EDE7E4"/>
<path d="M1252.99 296.968C1264.3 269.669 1251.34 238.371 1224.04 227.063C1196.74 215.756 1165.44 228.719 1154.13 256.019C1142.83 283.318 1155.79 314.616 1183.09 325.923C1210.39 337.231 1241.69 324.268 1252.99 296.968Z" fill="#A7CDBA"/>
<path fill-rule="evenodd" clip-rule="evenodd" d="M1150.5 278.559V345.935L1198.29 298.159L1150.5 278.559Z" fill="#A7CDBA"/>
<path d="M1196.76 282.228L1194.54 245.677H1212.52L1210.21 282.228H1196.78H1196.76ZM1203.53 304.064C1201.89 304.034 1200.38 303.636 1199.03 302.839C1197.68 302.058 1196.59 300.987 1195.8 299.685C1194.99 298.383 1194.57 296.929 1194.56 295.367C1194.56 293.744 1194.99 292.274 1195.8 290.957C1196.59 289.64 1197.68 288.599 1199.03 287.802C1200.38 287.021 1201.89 286.608 1203.53 286.593C1205.17 286.593 1206.69 287.006 1208.03 287.802C1209.38 288.583 1210.47 289.64 1211.26 290.957C1212.08 292.274 1212.49 293.759 1212.5 295.367C1212.5 296.929 1212.08 298.383 1211.26 299.685C1210.47 300.987 1209.38 302.043 1208.03 302.839C1206.69 303.62 1205.17 304.034 1203.53 304.064Z" fill="white"/>
<path fill-rule="evenodd" clip-rule="evenodd" d="M890.801 174.922C887.096 177.051 885.825 181.828 887.953 185.534L925.959 251.363C928.088 255.069 932.865 256.34 936.571 254.212C940.277 252.083 941.548 247.306 939.419 243.6L901.413 177.77C899.285 174.065 894.507 172.794 890.801 174.922Z" fill="#F9C9B3"/>
<path fill-rule="evenodd" clip-rule="evenodd" d="M890.801 174.922C887.096 177.051 885.825 181.828 887.953 185.534L925.959 251.363C928.088 255.069 932.865 256.34 936.571 254.212C940.277 252.083 941.548 247.306 939.419 243.6L901.413 177.77C899.285 174.065 894.507 172.794 890.801 174.922Z" fill="#F9C9B3"/>
<path fill-rule="evenodd" clip-rule="evenodd" d="M888.474 170.88C884.049 173.437 882.518 179.149 885.075 183.574L900.923 211.03L917.032 201.735L901.184 174.279C898.627 169.854 892.915 168.323 888.49 170.88H888.474Z" fill="#758AAF"/>
<path fill-rule="evenodd" clip-rule="evenodd" d="M888.474 170.88C884.049 173.437 882.518 179.149 885.075 183.574L900.923 211.03L917.032 201.735L901.184 174.279C898.627 169.854 892.915 168.323 888.49 170.88H888.474Z" fill="#758AAF"/>
<path fill-rule="evenodd" clip-rule="evenodd" d="M984.84 212.807V281.331H1027.44L1029.77 279.999L1047.21 269.923L1049.54 268.576V200.051L1047.21 201.399L1029.77 211.475L1027.44 212.807H984.84Z" fill="#0A5244"/>
<path fill-rule="evenodd" clip-rule="evenodd" d="M1046.67 204.201V264.977L1031.54 273.705V212.929L1046.67 204.201Z" fill="#EDE7E4"/>
<path d="M1012.38 216.864H1008.72V220.6H1012.38V216.864Z" fill="#4F9475"/>
<path d="M1012.38 221.534H1008.72V225.27H1012.38V221.534Z" fill="#4F9475"/>
<path d="M1012.38 226.204H1008.72V229.94H1012.38V226.204Z" fill="#4F9475"/>
<path d="M1012.38 230.876H1008.72V234.612H1012.38V230.876Z" fill="#4F9475"/>
<path d="M1012.38 235.531H1008.72V239.267H1012.38V235.531Z" fill="#4F9475"/>
<path d="M1012.38 240.201H1008.72V243.937H1012.38V240.201Z" fill="#4F9475"/>
<path d="M1012.38 244.871H1008.72V248.607H1012.38V244.871Z" fill="#4F9475"/>
<path d="M1012.38 249.541H1008.72V253.277H1012.38V249.541Z" fill="#4F9475"/>
<path d="M1012.38 254.211H1008.72V257.947H1012.38V254.211Z" fill="#4F9475"/>
<path d="M1012.38 258.866H1008.72V262.602H1012.38V258.866Z" fill="#4F9475"/>
<path d="M1012.38 263.538H1008.72V267.274H1012.38V263.538Z" fill="#4F9475"/>
<path d="M1012.38 268.208H1008.72V271.944H1012.38V268.208Z" fill="#4F9475"/>
<path d="M1012.38 272.878H1008.72V276.614H1012.38V272.878Z" fill="#4F9475"/>
<path d="M1007.79 216.864H1004.13V220.6H1007.79V216.864Z" fill="#4F9475"/>
<path d="M1007.79 221.534H1004.13V225.27H1007.79V221.534Z" fill="#4F9475"/>
<path d="M1007.79 226.204H1004.13V229.94H1007.79V226.204Z" fill="#4F9475"/>
<path d="M1007.79 230.876H1004.13V234.612H1007.79V230.876Z" fill="#4F9475"/>
<path d="M1007.79 235.531H1004.13V239.267H1007.79V235.531Z" fill="#4F9475"/>
<path d="M1007.79 240.201H1004.13V243.937H1007.79V240.201Z" fill="#4F9475"/>
<path d="M1007.79 244.871H1004.13V248.607H1007.79V244.871Z" fill="#4F9475"/>
<path d="M1007.79 249.541H1004.13V253.277H1007.79V249.541Z" fill="#4F9475"/>
<path d="M1007.79 254.211H1004.13V257.947H1007.79V254.211Z" fill="#4F9475"/>
<path d="M1007.79 258.866H1004.13V262.602H1007.79V258.866Z" fill="#4F9475"/>
<path d="M1007.79 263.538H1004.13V267.274H1007.79V263.538Z" fill="#4F9475"/>
<path d="M1007.79 268.208H1004.13V271.944H1007.79V268.208Z" fill="#4F9475"/>
<path d="M1007.79 272.878H1004.13V276.614H1007.79V272.878Z" fill="#4F9475"/>
<path d="M1003.33 216.864H999.672V220.6H1003.33V216.864Z" fill="#4F9475"/>
<path d="M1003.33 221.534H999.672V225.27H1003.33V221.534Z" fill="#4F9475"/>
<path d="M1003.33 226.204H999.672V229.94H1003.33V226.204Z" fill="#4F9475"/>
<path d="M1003.33 230.876H999.672V234.612H1003.33V230.876Z" fill="#4F9475"/>
<path d="M1003.33 235.531H999.672V239.267H1003.33V235.531Z" fill="#4F9475"/>
<path d="M1003.33 240.201H999.672V243.937H1003.33V240.201Z" fill="#4F9475"/>
<path d="M1003.33 244.871H999.672V248.607H1003.33V244.871Z" fill="#4F9475"/>
<path d="M1003.33 249.541H999.672V253.277H1003.33V249.541Z" fill="#4F9475"/>
<path d="M1003.33 254.211H999.672V257.947H1003.33V254.211Z" fill="#4F9475"/>
<path d="M1003.33 258.866H999.672V262.602H1003.33V258.866Z" fill="#4F9475"/>
<path d="M1003.33 263.538H999.672V267.274H1003.33V263.538Z" fill="#4F9475"/>
<path d="M1003.33 268.208H999.672V271.944H1003.33V268.208Z" fill="#4F9475"/>
<path d="M1003.33 272.878H999.672V276.614H1003.33V272.878Z" fill="#4F9475"/>
<path fill-rule="evenodd" clip-rule="evenodd" d="M984.84 212.807V281.331H1027.44L1029.77 279.999L1047.21 269.923L1049.54 268.576V200.051L1047.21 201.399L1029.77 211.475L1027.44 212.807H984.84Z" fill="#0A5244"/>
<path fill-rule="evenodd" clip-rule="evenodd" d="M1046.67 204.201V264.977L1031.54 273.705V212.929L1046.67 204.201Z" fill="#F7F7EF"/>
<path d="M1012.38 216.864H1008.72V220.6H1012.38V216.864Z" fill="#F7F7EF"/>
<path d="M1012.38 221.534H1008.72V225.27H1012.38V221.534Z" fill="#F7F7EF"/>
<path d="M1012.38 226.204H1008.72V229.94H1012.38V226.204Z" fill="#F7F7EF"/>
<path d="M1012.38 230.876H1008.72V234.612H1012.38V230.876Z" fill="#F7F7EF"/>
<path d="M1012.38 235.531H1008.72V239.267H1012.38V235.531Z" fill="#F7F7EF"/>
<path d="M1012.38 240.201H1008.72V243.937H1012.38V240.201Z" fill="#F7F7EF"/>
<path d="M1012.38 244.871H1008.72V248.607H1012.38V244.871Z" fill="#F7F7EF"/>
<path d="M1012.38 249.541H1008.72V253.277H1012.38V249.541Z" fill="#F7F7EF"/>
<path d="M1012.38 254.211H1008.72V257.947H1012.38V254.211Z" fill="#F7F7EF"/>
<path d="M1012.38 258.866H1008.72V262.602H1012.38V258.866Z" fill="#F7F7EF"/>
<path d="M1012.38 263.538H1008.72V267.274H1012.38V263.538Z" fill="#F7F7EF"/>
<path d="M1012.38 268.208H1008.72V271.944H1012.38V268.208Z" fill="#F7F7EF"/>
<path d="M1012.38 272.878H1008.72V276.614H1012.38V272.878Z" fill="#F7F7EF"/>
<path d="M1007.79 216.864H1004.13V220.6H1007.79V216.864Z" fill="#F7F7EF"/>
<path d="M1007.79 221.534H1004.13V225.27H1007.79V221.534Z" fill="#F7F7EF"/>
<path d="M1007.79 226.204H1004.13V229.94H1007.79V226.204Z" fill="#F7F7EF"/>
<path d="M1007.79 230.876H1004.13V234.612H1007.79V230.876Z" fill="#F7F7EF"/>
<path d="M1007.79 235.531H1004.13V239.267H1007.79V235.531Z" fill="#F7F7EF"/>
<path d="M1007.79 240.201H1004.13V243.937H1007.79V240.201Z" fill="#F7F7EF"/>
<path d="M1007.79 244.871H1004.13V248.607H1007.79V244.871Z" fill="#F7F7EF"/>
<path d="M1007.79 249.541H1004.13V253.277H1007.79V249.541Z" fill="#F7F7EF"/>
<path d="M1007.79 254.211H1004.13V257.947H1007.79V254.211Z" fill="#F7F7EF"/>
<path d="M1007.79 258.866H1004.13V262.602H1007.79V258.866Z" fill="#F7F7EF"/>
<path d="M1007.79 263.538H1004.13V267.274H1007.79V263.538Z" fill="#F7F7EF"/>
<path d="M1007.79 268.208H1004.13V271.944H1007.79V268.208Z" fill="#F7F7EF"/>
<path d="M1007.79 272.878H1004.13V276.614H1007.79V272.878Z" fill="#F7F7EF"/>
<path d="M1003.33 216.864H999.672V220.6H1003.33V216.864Z" fill="#F7F7EF"/>
<path d="M1003.33 221.534H999.672V225.27H1003.33V221.534Z" fill="#F7F7EF"/>
<path d="M1003.33 226.204H999.672V229.94H1003.33V226.204Z" fill="#F7F7EF"/>
<path d="M1003.33 230.876H999.672V234.612H1003.33V230.876Z" fill="#F7F7EF"/>
<path d="M1003.33 235.531H999.672V239.267H1003.33V235.531Z" fill="#F7F7EF"/>
<path d="M1003.33 240.201H999.672V243.937H1003.33V240.201Z" fill="#F7F7EF"/>
<path d="M1003.33 244.871H999.672V248.607H1003.33V244.871Z" fill="#F7F7EF"/>
<path d="M1003.33 249.541H999.672V253.277H1003.33V249.541Z" fill="#F7F7EF"/>
<path d="M1003.33 254.211H999.672V257.947H1003.33V254.211Z" fill="#F7F7EF"/>
<path d="M1003.33 258.866H999.672V262.602H1003.33V258.866Z" fill="#F7F7EF"/>
<path d="M1003.33 263.538H999.672V267.274H1003.33V263.538Z" fill="#F7F7EF"/>
<path d="M1003.33 268.208H999.672V271.944H1003.33V268.208Z" fill="#F7F7EF"/>
<path d="M1003.33 272.878H999.672V276.614H1003.33V272.878Z" fill="#F7F7EF"/>
<path fill-rule="evenodd" clip-rule="evenodd" d="M938.465 254.977L981.233 233.356L1001.57 234.014L1001.4 230.691L982.229 227.323L935.709 240.4C928.726 242.406 925.97 246.969 926.827 251.027C927.716 255.253 932.6 257.933 938.45 254.977H938.465Z" fill="#F9C9B3"/>
<path fill-rule="evenodd" clip-rule="evenodd" d="M938.465 254.977L981.233 233.356L1001.57 234.014L1001.4 230.691L982.229 227.323L935.709 240.4C928.726 242.406 925.97 246.969 926.827 251.027C927.716 255.253 932.6 257.933 938.45 254.977H938.465Z" fill="#F9C9B3"/>
<path fill-rule="evenodd" clip-rule="evenodd" d="M1289 363.053C1289.9 363.07 1290.81 363.087 1291.71 363.087L1289 363.053ZM1294.68 363.087C1295.68 363.087 1296.67 363.053 1297.66 363.019L1294.68 363.087ZM1303.17 222.781C1302.2 230.919 1298.5 243.015 1294.01 244.994L1294.1 258.642C1295.34 258.642 1296.59 258.608 1297.83 258.574C1298.96 254.701 1305.23 249.634 1310.6 246.802C1320.37 241.65 1331.76 241.189 1347.97 243.714C1351.95 244.328 1353.38 245.028 1353.84 245.983C1354.28 246.939 1353.77 248.167 1351.11 250.624C1341.17 259.82 1333.23 264.272 1321.6 265.501C1313.23 266.388 1300.17 265.347 1297.93 261.048C1297.8 260.792 1297.71 260.536 1297.66 260.263C1296.47 260.297 1295.27 260.331 1294.06 260.331L1294.2 284.54C1295.41 284.54 1296.6 284.506 1297.78 284.472C1298.9 280.599 1305.18 275.532 1310.55 272.7C1320.32 267.548 1331.71 267.087 1347.92 269.612C1351.9 270.226 1353.33 270.926 1353.79 271.881C1354.23 272.837 1353.72 274.065 1351.06 276.522C1341.12 285.718 1333.17 290.17 1321.55 291.399C1313.18 292.286 1300.12 291.245 1297.88 286.946C1297.75 286.69 1297.66 286.434 1297.61 286.161C1296.47 286.195 1295.32 286.212 1294.17 286.229L1294.3 310.438C1295.46 310.438 1296.6 310.404 1297.75 310.37C1298.87 306.497 1305.15 301.43 1310.52 298.598C1320.29 293.446 1331.67 292.985 1347.89 295.51C1351.86 296.125 1353.29 296.824 1353.75 297.779C1354.2 298.735 1353.69 299.963 1351.03 302.42C1341.09 311.616 1333.14 316.068 1321.51 317.297C1313.14 318.184 1300.08 317.143 1297.85 312.844C1297.71 312.588 1297.63 312.332 1297.57 312.059C1296.48 312.093 1295.38 312.11 1294.27 312.127L1294.4 336.336C1295.51 336.336 1296.6 336.302 1297.69 336.268C1298.82 332.395 1305.09 327.328 1310.46 324.496C1320.23 319.344 1331.62 318.883 1347.84 321.408C1351.81 322.023 1353.24 322.722 1353.7 323.677C1354.15 324.633 1353.63 325.861 1350.97 328.318C1341.03 337.514 1333.09 341.966 1321.46 343.195C1313.09 344.082 1300.03 343.041 1297.8 338.742C1297.66 338.486 1297.57 338.23 1297.52 337.957C1296.48 337.991 1295.43 338.008 1294.37 338.025L1294.47 355.342L1294.52 363.07L1294.8 412.495C1294.8 413.314 1294.13 413.979 1293.31 413.979C1292.49 413.979 1291.83 413.314 1291.83 412.495L1291.56 363.087L1291.51 355.342L1291.4 338.025C1290.53 338.025 1289.66 338.008 1288.79 337.991C1288.74 338.247 1288.66 338.503 1288.54 338.742C1286.32 343.041 1273.26 344.065 1264.87 343.195C1253.26 341.966 1245.3 337.514 1235.36 328.318C1232.72 325.861 1232.19 324.633 1232.63 323.677C1233.08 322.722 1234.53 322.023 1238.5 321.408C1254.73 318.883 1266.12 319.344 1275.87 324.496C1281.26 327.328 1287.55 332.429 1288.66 336.302C1289.56 336.319 1290.47 336.336 1291.37 336.353L1291.23 312.144C1290.41 312.144 1289.6 312.127 1288.78 312.11C1288.73 312.366 1288.64 312.622 1288.52 312.861C1286.31 317.16 1273.25 318.184 1264.86 317.314C1253.25 316.085 1245.28 311.633 1235.34 302.437C1232.7 299.98 1232.17 298.752 1232.62 297.796C1233.06 296.841 1234.51 296.142 1238.48 295.527C1254.71 293.002 1266.1 293.463 1275.85 298.615C1281.24 301.447 1287.53 306.549 1288.64 310.421C1289.49 310.438 1290.35 310.455 1291.22 310.472L1291.08 286.263C1290.31 286.263 1289.53 286.246 1288.76 286.229C1288.71 286.485 1288.62 286.741 1288.5 286.98C1286.29 291.279 1273.23 292.303 1264.84 291.433C1253.23 290.204 1245.27 285.752 1235.33 276.556C1232.68 274.099 1232.16 272.871 1232.6 271.915C1233.04 270.96 1234.49 270.261 1238.46 269.646C1254.7 267.121 1266.08 267.582 1275.84 272.734C1281.22 275.566 1287.52 280.668 1288.62 284.54C1289.43 284.557 1290.24 284.574 1291.04 284.574L1290.91 260.365C1290.18 260.365 1289.46 260.348 1288.74 260.331C1288.69 260.587 1288.61 260.843 1288.49 261.082C1286.27 265.381 1273.21 266.405 1264.82 265.535C1253.21 264.306 1245.25 259.854 1235.31 250.658C1232.67 248.201 1232.14 246.973 1232.58 246.017C1233.02 245.062 1234.47 244.363 1238.45 243.748C1254.68 241.223 1266.07 241.684 1275.82 246.836C1281.21 249.668 1287.5 254.77 1288.61 258.642C1289.36 258.659 1290.12 258.676 1290.89 258.676L1290.81 244.806C1287.31 242.895 1283.82 235.832 1282.25 230.049C1279.4 219.471 1281.48 208.194 1287.57 192.737C1289.05 188.95 1290.06 187.67 1291.1 187.414C1292.14 187.158 1293.21 187.909 1295.02 190.98C1301.77 202.513 1304.34 211.163 1302.95 222.815L1303.17 222.781ZM1265.04 369.11C1253.43 367.881 1245.47 363.429 1235.53 354.233C1232.89 351.776 1232.36 350.548 1232.8 349.592C1233.25 348.637 1234.7 347.938 1238.67 347.323C1254.9 344.798 1266.29 345.259 1276.04 350.411C1278.5 351.708 1281.14 353.465 1283.39 355.359C1286.46 357.935 1288.81 360.784 1288.98 363.07C1289.03 363.65 1288.93 364.179 1288.68 364.674C1286.46 368.973 1273.4 369.997 1265.01 369.127L1265.04 369.11ZM1321.61 369.11C1313.24 369.997 1300.18 368.956 1297.95 364.657C1297.69 364.162 1297.61 363.616 1297.66 363.019C1297.86 360.75 1300.18 357.935 1303.24 355.359C1305.49 353.448 1308.15 351.691 1310.6 350.394C1320.37 345.242 1331.76 344.781 1347.97 347.306C1351.95 347.921 1353.38 348.62 1353.84 349.575C1354.28 350.531 1353.77 351.759 1351.11 354.216C1341.17 363.412 1333.23 367.864 1321.6 369.093L1321.61 369.11Z" fill="#0A5244"/>
</svg>
