<svg width="1440" height="531" viewBox="0 0 1440 531" fill="none" xmlns="http://www.w3.org/2000/svg">
<rect width="1440" height="531" fill="#EEEEE9"/>
<path d="M976.705 478.748C915.451 478.744 876.407 449.291 859.402 411.573C852.734 396.779 849.407 380.737 849.415 364.699C849.425 348.665 852.77 332.612 859.449 317.804C876.516 279.944 915.626 250.349 976.705 250.353V250.382H1334.44C1382 250.382 1412.13 229.753 1425.39 203.348C1430.56 193.064 1433.12 181.894 1433.12 170.704C1433.12 168.133 1432.98 165.561 1432.71 163H1417.2C1417.54 165.557 1417.71 168.133 1417.71 170.704C1417.71 179.82 1415.61 188.95 1411.37 197.382C1400.45 219.12 1375.04 236.104 1334.44 236.104H976.705V236.133C908.365 236.126 864.461 269.566 845.181 312.34C837.742 328.848 834.011 346.77 834 364.703C833.989 382.633 837.698 400.548 845.134 417.04C864.356 459.676 908.186 492.964 976.705 492.971V493H1440V478.723H976.705V478.752V478.748Z" fill="#DAE1EE"/>
<g clip-path="url(#clip0_1176_4391)">
<path d="M1355.14 208.359H1350.61V237.24H1355.14V208.359Z" fill="#DAE1EE"/>
<path d="M1350.81 205.781C1374.8 205.781 1394.25 186.271 1394.25 162.205C1394.25 138.139 1374.8 118.63 1350.81 118.63C1326.81 118.63 1307.36 138.139 1307.36 162.205C1307.36 186.271 1326.81 205.781 1350.81 205.781Z" fill="#758AAF"/>
<path d="M1402 162.205C1402 176.382 1396.27 189.22 1387.01 198.512C1377.74 207.804 1364.94 213.55 1350.81 213.55C1336.67 213.55 1323.87 207.804 1314.6 198.512C1305.34 189.22 1299.61 176.382 1299.61 162.205H1315.11C1315.11 172.094 1319.1 181.045 1325.56 187.524C1332.02 194.002 1340.95 198.011 1350.81 198.011C1360.67 198.011 1369.59 194.006 1376.05 187.524C1382.51 181.045 1386.51 172.094 1386.51 162.205H1402.01H1402Z" fill="#DAE1EE"/>
<path fill-rule="evenodd" clip-rule="evenodd" d="M1372.69 132.759C1370.56 132.759 1368.82 131.011 1368.82 128.876V90.8831C1368.82 88.7474 1370.56 87 1372.69 87C1374.82 87 1376.57 88.7474 1376.57 90.8831V128.879C1376.57 131.015 1374.82 132.762 1372.69 132.762V132.759Z" fill="#F9C9B3"/>
<path fill-rule="evenodd" clip-rule="evenodd" d="M1373.78 94.6333L1355.25 109.764L1351.43 119.185L1349.95 118.429L1352.31 108.994L1367.7 90.4164C1370.02 87.6336 1372.66 87.3032 1374.34 88.5226C1376.08 89.7897 1376.31 92.5623 1373.78 94.6333Z" fill="#F9C9B3"/>
<path fill-rule="evenodd" clip-rule="evenodd" d="M1353.52 100.724C1350.3 100.724 1347.66 103.367 1347.66 106.599V127.639H1353.52V100.724Z" fill="#F9C9B3"/>
<path fill-rule="evenodd" clip-rule="evenodd" d="M1332.62 127.288C1330.49 127.288 1328.75 129.036 1328.75 131.172V169.168C1328.75 171.303 1330.49 173.051 1332.62 173.051C1334.75 173.051 1336.49 171.303 1336.49 169.168V131.172C1336.49 129.036 1334.75 127.288 1332.62 127.288Z" fill="#F9C9B3"/>
<path fill-rule="evenodd" clip-rule="evenodd" d="M1329.6 166.705C1323.23 170.346 1316.28 175.098 1310.25 179.029L1299.67 180.187L1300.04 181.801L1309.98 182.622C1310.51 182.585 1311.35 182.224 1312.11 181.934L1332.32 174.27C1335.67 173 1336.67 170.656 1335.9 168.715C1335.09 166.691 1332.37 165.124 1329.6 166.705Z" fill="#F9C9B3"/>
<path fill-rule="evenodd" clip-rule="evenodd" d="M1332.62 127.288C1330.07 127.288 1327.99 129.38 1327.99 131.935V147.78H1337.25V131.935C1337.25 129.38 1335.17 127.288 1332.62 127.288H1332.62Z" fill="white"/>
<path fill-rule="evenodd" clip-rule="evenodd" d="M1337.68 159.099L1330.64 139.66C1329.46 136.478 1327.72 133.225 1329.69 129.714C1331.53 126.44 1334.17 127.319 1337.1 127.319H1371.58C1374.27 127.319 1376.46 129.823 1376.46 132.881C1376.46 134.469 1375.87 135.906 1374.93 136.925L1365.09 157.631L1337.68 159.099Z" fill="white"/>
<path fill-rule="evenodd" clip-rule="evenodd" d="M1336.91 169.539L1365.37 169.57L1364.6 183.065L1336.92 183.286L1336.91 169.539Z" fill="#282636"/>
<path fill-rule="evenodd" clip-rule="evenodd" d="M1342.2 183.511L1298.33 195.978C1295.4 196.809 1293.21 195.341 1292.52 193.457C1291.78 191.437 1292.74 188.958 1295.63 187.793L1337.66 170.82C1342.65 168.807 1346.54 171.31 1347.52 174.757C1348.38 177.768 1347.23 182.084 1342.2 183.511Z" fill="#282636"/>
<path fill-rule="evenodd" clip-rule="evenodd" d="M1360.78 186.396L1316.29 212.971C1313.33 214.742 1310.5 213.779 1309.18 211.915C1307.78 209.919 1308.11 206.915 1310.94 204.79L1352.08 173.814C1356.96 170.135 1361.97 171.739 1364.05 175.234C1365.87 178.286 1365.87 183.358 1360.78 186.4V186.396Z" fill="#282636"/>
<path fill-rule="evenodd" clip-rule="evenodd" d="M1372.69 135.092C1370.15 135.092 1368.06 133.001 1368.06 130.446V114.6H1377.33V130.446C1377.33 133.001 1375.24 135.092 1372.7 135.092H1372.69Z" fill="white"/>
<path d="M1365.37 157.086H1336.92V171.913H1365.37V157.086Z" fill="#282636"/>
<path fill-rule="evenodd" clip-rule="evenodd" d="M1349.38 102.934H1353.53C1353.53 100.226 1351.67 98.0293 1349.38 98.0293C1348.65 98.0293 1347.93 98.2575 1347.3 98.6867L1349.38 102.934Z" fill="black" stroke="#1F1F1F" stroke-width="0.57" stroke-miterlimit="22.93"/>
<path fill-rule="evenodd" clip-rule="evenodd" d="M1356.85 127.295H1344.39C1345.79 129.496 1348.06 130.926 1350.62 130.926C1353.18 130.926 1355.45 129.496 1356.85 127.295H1356.85Z" fill="#F9C9B3"/>
<path fill-rule="evenodd" clip-rule="evenodd" d="M1349.24 112.288L1348.07 105.949L1345.98 112.019L1349.24 112.288Z" fill="#F9C9B3"/>
<path fill-rule="evenodd" clip-rule="evenodd" d="M1347.69 112.288H1350.74C1350.74 114.28 1349.37 115.895 1347.69 115.895C1347.15 115.895 1346.62 115.728 1346.16 115.411L1347.69 112.288Z" fill="black" stroke="#1F1F1F" stroke-width="0.57" stroke-miterlimit="22.93"/>
<path fill-rule="evenodd" clip-rule="evenodd" d="M1314.57 214.167L1277.85 235.132L1277.86 235.146C1277.92 235.224 1274.24 237.407 1273.66 237.826C1273.32 238.078 1272.58 238.075 1272.3 237.67L1267.42 230.418C1266.56 229.168 1267.06 228.762 1268.55 230.265C1270.61 232.335 1273.62 234.168 1275.98 232.264L1275.98 232.274L1309.31 206.356C1312.59 203.805 1315.8 204.66 1317.18 207.038C1318.38 209.112 1318.06 212.174 1314.57 214.17V214.167Z" fill="#282636"/>
<path fill-rule="evenodd" clip-rule="evenodd" d="M1274.85 237.074C1274.3 237.414 1273.84 237.704 1273.66 237.83C1273.32 238.082 1272.58 238.078 1272.3 237.673L1267.42 230.421C1266.56 229.171 1267.06 228.766 1268.55 230.268C1269.5 231.225 1270.66 232.131 1271.86 232.642L1274.85 237.077V237.074Z" fill="white"/>
<path fill-rule="evenodd" clip-rule="evenodd" d="M1302.02 195.01L1313.58 232.24H1313.6C1313.69 232.24 1314.93 236.011 1315.2 236.638C1315.36 237.016 1315.17 237.557 1314.7 237.557H1306.24C1304.78 237.574 1304.5 237.009 1306.38 236.655C1308.96 236.164 1311.55 234.866 1310.25 232.203H1310.26L1292.92 195.014C1291.21 191.356 1292.87 189.428 1295.59 189.591C1297.96 189.731 1300.93 191.471 1302.03 195.014L1302.02 195.01Z" fill="#282636"/>
<path fill-rule="evenodd" clip-rule="evenodd" d="M1314.74 235.401C1314.94 235.973 1315.11 236.45 1315.2 236.638C1315.36 237.016 1315.17 237.557 1314.69 237.557H1306.24C1304.78 237.574 1304.5 237.009 1306.37 236.655C1307.57 236.43 1308.76 236.028 1309.57 235.401H1314.74H1314.74Z" fill="white"/>
<path fill-rule="evenodd" clip-rule="evenodd" d="M1319.54 149.718V183.971H1298.3L1297.14 183.3L1288.45 178.266L1287.29 177.598V143.342L1288.45 144.013L1297.14 149.047L1298.3 149.718H1319.54Z" fill="#DB4E1D"/>
<path d="M1373.01 232.693H1332.74V237.24H1373.01V232.693Z" fill="#DAE1EE"/>
<path fill-rule="evenodd" clip-rule="evenodd" d="M1288.72 145.413V175.793L1296.25 180.156V149.776L1288.72 145.413Z" fill="white"/>
<path d="M1307.63 151.745H1305.8V153.615H1307.63V151.745Z" fill="white"/>
<path d="M1307.63 154.078H1305.8V155.948H1307.63V154.078Z" fill="white"/>
<path d="M1307.63 156.411H1305.8V158.281H1307.63V156.411Z" fill="white"/>
<path d="M1307.63 158.745H1305.8V160.615H1307.63V158.745Z" fill="white"/>
<path d="M1307.63 161.078H1305.8V162.948H1307.63V161.078Z" fill="white"/>
<path d="M1307.63 163.411H1305.8V165.281H1307.63V163.411Z" fill="white"/>
<path d="M1307.63 165.744H1305.8V167.614H1307.63V165.744Z" fill="white"/>
<path d="M1307.63 168.078H1305.8V169.948H1307.63V168.078Z" fill="white"/>
<path d="M1307.63 170.411H1305.8V172.281H1307.63V170.411Z" fill="white"/>
<path d="M1307.63 172.744H1305.8V174.614H1307.63V172.744Z" fill="white"/>
<path d="M1307.63 175.077H1305.8V176.947H1307.63V175.077Z" fill="white"/>
<path d="M1307.63 177.411H1305.8V179.281H1307.63V177.411Z" fill="white"/>
<path d="M1307.63 179.744H1305.8V181.614H1307.63V179.744Z" fill="white"/>
<path d="M1309.92 151.745H1308.09V153.615H1309.92V151.745Z" fill="white"/>
<path d="M1309.92 154.078H1308.09V155.948H1309.92V154.078Z" fill="white"/>
<path d="M1309.92 156.411H1308.09V158.281H1309.92V156.411Z" fill="white"/>
<path d="M1309.92 158.745H1308.09V160.615H1309.92V158.745Z" fill="white"/>
<path d="M1309.92 161.078H1308.09V162.948H1309.92V161.078Z" fill="white"/>
<path d="M1309.92 163.411H1308.09V165.281H1309.92V163.411Z" fill="white"/>
<path d="M1309.92 165.744H1308.09V167.614H1309.92V165.744Z" fill="white"/>
<path d="M1309.92 168.078H1308.09V169.948H1309.92V168.078Z" fill="white"/>
<path d="M1309.92 170.411H1308.09V172.281H1309.92V170.411Z" fill="white"/>
<path d="M1309.92 172.744H1308.09V174.614H1309.92V172.744Z" fill="white"/>
<path d="M1309.92 175.077H1308.09V176.947H1309.92V175.077Z" fill="white"/>
<path d="M1309.92 177.411H1308.09V179.281H1309.92V177.411Z" fill="white"/>
<path d="M1309.92 179.744H1308.09V181.614H1309.92V179.744Z" fill="white"/>
<path d="M1312.14 151.745H1310.32V153.615H1312.14V151.745Z" fill="white"/>
<path d="M1312.14 154.078H1310.32V155.948H1312.14V154.078Z" fill="white"/>
<path d="M1312.14 156.411H1310.32V158.281H1312.14V156.411Z" fill="white"/>
<path d="M1312.14 158.745H1310.32V160.615H1312.14V158.745Z" fill="white"/>
<path d="M1312.14 161.078H1310.32V162.948H1312.14V161.078Z" fill="white"/>
<path d="M1312.14 163.411H1310.32V165.281H1312.14V163.411Z" fill="white"/>
<path d="M1312.14 165.744H1310.32V167.614H1312.14V165.744Z" fill="white"/>
<path d="M1312.14 168.078H1310.32V169.948H1312.14V168.078Z" fill="white"/>
<path d="M1312.14 170.411H1310.32V172.281H1312.14V170.411Z" fill="white"/>
<path d="M1312.14 172.744H1310.32V174.614H1312.14V172.744Z" fill="white"/>
<path d="M1312.14 175.077H1310.32V176.947H1312.14V175.077Z" fill="white"/>
<path d="M1312.14 177.411H1310.32V179.281H1312.14V177.411Z" fill="white"/>
<path d="M1312.14 179.744H1310.32V181.614H1312.14V179.744Z" fill="white"/>
</g>
<g clip-path="url(#clip1_1176_4391)">
<path fill-rule="evenodd" clip-rule="evenodd" d="M976.592 334.532C978.166 334.532 979.455 335.82 979.455 337.392V355.332H974.297V336.828C974.297 335.566 975.332 334.532 976.596 334.532H976.592Z" fill="#F9C9B3"/>
<path fill-rule="evenodd" clip-rule="evenodd" d="M992.699 355.325C994.575 355.325 996.107 356.855 996.107 358.729V392.045C996.107 393.916 994.575 395.45 992.699 395.45C990.822 395.45 989.29 393.919 989.29 392.045V358.729C989.29 356.855 990.822 355.325 992.699 355.325Z" fill="#001E60"/>
<path fill-rule="evenodd" clip-rule="evenodd" d="M992.216 389.283L1010.98 382.261C1011.05 382.232 1011.13 382.205 1011.2 382.183L1011.45 381.989L1012.35 386.009L995.789 395.36C993.042 396.913 990.896 396.275 990.022 394.658C989.113 392.979 989.584 390.265 992.212 389.279L992.216 389.283Z" fill="#F9C9B3"/>
<path fill-rule="evenodd" clip-rule="evenodd" d="M1009.02 382.993L1010.98 382.261C1011.05 382.232 1011.13 382.205 1011.2 382.183L1011.47 381.97L1013.69 385.218C1013.33 385.475 1012.81 385.744 1012.35 386.005L1011.01 386.76L1009.02 382.993Z" fill="white"/>
<path fill-rule="evenodd" clip-rule="evenodd" d="M1011.45 381.989L1018.18 376.625L1019.07 377.778C1018.44 378.648 1013.91 385.102 1013.66 385.296L1011.45 381.989H1011.45Z" fill="#FE6A6A"/>
<path fill-rule="evenodd" clip-rule="evenodd" d="M988.243 383.217L994.44 366.173C995.479 363.384 997.008 360.528 995.27 357.452C993.651 354.586 991.326 355.354 988.743 355.354H958.388C956.026 355.354 954.093 357.549 954.093 360.23C954.093 361.622 954.617 362.884 955.446 363.776L964.107 381.933L988.243 383.221V383.217Z" fill="#001E60"/>
<path d="M957.409 356.702C959.289 356.702 960.818 358.229 960.818 360.107V393.423C960.818 395.3 959.289 396.827 957.409 396.827C955.529 396.827 954 395.3 954 393.423V360.107C954 358.229 955.529 356.702 957.409 356.702Z" fill="#001E60"/>
<path fill-rule="evenodd" clip-rule="evenodd" d="M988.908 381.451V384.703C988.908 414.693 987.38 443.571 985.395 473.669H985.406C985.286 475.095 986.045 476.129 987.163 476.854C987.417 477.018 987.694 477.171 987.981 477.305C987.996 477.313 988.015 477.32 988.034 477.328C988.067 477.343 988.101 477.358 988.135 477.372C988.165 477.387 988.194 477.399 988.228 477.414L988.247 477.421C988.277 477.432 988.303 477.443 988.333 477.458L988.359 477.47C988.385 477.481 988.415 477.492 988.441 477.503L988.471 477.514C988.497 477.525 988.523 477.533 988.55 477.544L988.598 477.563C988.617 477.57 988.639 477.578 988.658 477.585C988.68 477.593 988.699 477.6 988.721 477.608L988.77 477.626C988.792 477.634 988.811 477.641 988.834 477.649C988.852 477.656 988.875 477.664 988.893 477.671L988.949 477.69C988.949 477.69 988.987 477.701 989.006 477.708L989.069 477.731L989.121 477.746C989.148 477.753 989.177 477.764 989.204 477.772L989.234 477.779C989.263 477.787 989.29 477.798 989.32 477.805L989.349 477.813C989.379 477.82 989.409 477.832 989.439 477.839L989.465 477.847C989.495 477.854 989.525 477.865 989.555 477.873L989.581 477.88C989.615 477.888 989.645 477.899 989.678 477.906H989.697C989.734 477.921 989.768 477.929 989.805 477.94H989.809H989.817C989.854 477.951 989.888 477.959 989.925 477.97H989.94C989.974 477.981 990.011 477.988 990.045 478H990.056C990.09 478.011 990.127 478.018 990.161 478.026H990.175C990.209 478.037 990.247 478.044 990.28 478.052H990.291C990.329 478.063 990.362 478.071 990.4 478.078H990.411C990.448 478.089 990.489 478.097 990.527 478.104C992.355 478.455 992.306 479.019 990.972 479H983.294C982.864 479 982.494 478.462 982.509 478.085C982.509 478.067 982.509 478.044 982.509 478.018V477.977C982.509 477.932 982.509 477.884 982.509 477.832V477.779C982.509 477.686 982.505 477.581 982.502 477.466V477.451V477.443C982.502 477.372 982.498 477.298 982.494 477.219V477.212V477.163V477.141V477.092V477.066V477.059V477.04V477.014V476.988V476.973V476.962V476.936V476.91V476.887V476.861C982.442 475.547 982.348 473.718 982.404 473.718H982.419C980.64 450.432 979.246 427.288 977.538 404.024H976.035C975.086 427.467 973.946 450.234 972.507 473.677H972.514C972.402 475.103 973.142 476.137 974.226 476.865C974.327 476.932 974.432 476.995 974.536 477.059C974.566 477.078 974.596 477.092 974.626 477.111H974.633C974.66 477.13 974.689 477.148 974.719 477.163L974.734 477.171C974.76 477.186 974.79 477.201 974.82 477.216H974.831C974.895 477.253 974.955 477.283 975.018 477.316C975.033 477.324 975.052 477.331 975.067 477.339C975.093 477.35 975.119 477.365 975.145 477.376L975.168 477.387C975.194 477.399 975.216 477.41 975.243 477.421L975.276 477.436C975.299 477.447 975.325 477.455 975.347 477.466L975.388 477.484C975.411 477.492 975.433 477.503 975.456 477.511L975.497 477.525C975.519 477.533 975.542 477.544 975.564 477.552L975.613 477.57C975.631 477.578 975.654 477.585 975.672 477.593C975.691 477.6 975.714 477.608 975.736 477.615L975.781 477.63C975.803 477.637 975.826 477.645 975.848 477.652L975.897 477.671C975.919 477.679 975.942 477.686 975.964 477.693L976.009 477.708C976.035 477.716 976.057 477.727 976.084 477.735L976.121 477.746C976.151 477.753 976.177 477.764 976.207 477.772L976.237 477.779C976.263 477.787 976.293 477.798 976.319 477.805L976.349 477.813C976.379 477.82 976.405 477.832 976.435 477.839L976.461 477.847C976.491 477.854 976.517 477.865 976.547 477.873L976.573 477.88C976.603 477.888 976.633 477.899 976.663 477.906L976.685 477.914C976.719 477.921 976.753 477.932 976.79 477.94H976.794H976.801C976.835 477.951 976.869 477.959 976.906 477.97H976.921C976.955 477.981 976.988 477.988 977.018 477.996H977.033C977.067 478.007 977.097 478.015 977.13 478.022H977.149C977.183 478.033 977.216 478.041 977.25 478.048H977.261C977.295 478.059 977.332 478.067 977.366 478.074H977.373C977.411 478.085 977.448 478.093 977.485 478.1C979.257 478.451 979.212 479.015 977.915 478.996H970.473C970.054 478.996 969.696 478.459 969.711 478.082C969.711 478.074 969.711 478.063 969.711 478.052V478.018V478.011V477.973V477.929V477.917V477.888V477.858V477.843V477.828V477.809V477.794V477.776V477.761V477.723V477.705V477.686V477.667V477.652V477.63V477.611V477.593V477.574V477.552V477.529V477.522V477.511V477.488V477.466V477.451V477.443V477.421V477.399V477.391V477.35V477.328V477.305V477.298V477.283V477.26V477.238V477.223V477.216V477.19V477.163V477.141V477.115V477.089V477.063V477.055V477.036V477.01V476.984V476.969V476.958V476.932V476.906V476.883V476.854C969.654 475.54 969.561 473.71 969.617 473.71H969.632C967.404 444.605 963.924 413.021 963.924 384.703V381.451H988.972H988.908Z" fill="#A3A4A5"/>
<path fill-rule="evenodd" clip-rule="evenodd" d="M986.546 476.387C986.736 476.555 986.942 476.712 987.163 476.854C987.417 477.018 987.693 477.171 987.981 477.305C987.996 477.313 988.015 477.32 988.034 477.328C988.067 477.343 988.101 477.358 988.134 477.372C988.164 477.387 988.194 477.399 988.228 477.414L988.247 477.421C988.276 477.432 988.303 477.443 988.333 477.458L988.359 477.47C988.385 477.481 988.415 477.492 988.441 477.503L988.471 477.514C988.497 477.525 988.523 477.533 988.549 477.544L988.598 477.563C988.617 477.57 988.639 477.578 988.658 477.585C988.68 477.593 988.699 477.6 988.721 477.608L988.77 477.626C988.792 477.634 988.811 477.641 988.833 477.649C988.852 477.656 988.875 477.664 988.893 477.671L988.949 477.69C988.949 477.69 988.987 477.701 989.005 477.708L989.069 477.731L989.121 477.746C989.147 477.753 989.177 477.764 989.203 477.772L989.233 477.779C989.263 477.787 989.289 477.798 989.319 477.805L989.349 477.813C989.379 477.82 989.409 477.832 989.439 477.839L989.465 477.847C989.495 477.854 989.525 477.865 989.555 477.873L989.581 477.88C989.615 477.888 989.645 477.899 989.678 477.906H989.697C989.734 477.921 989.768 477.929 989.805 477.94H989.809H989.816C989.854 477.951 989.888 477.959 989.925 477.97H989.94C989.973 477.981 990.011 477.988 990.044 478H990.056C990.089 478.011 990.127 478.018 990.16 478.026H990.175C990.209 478.037 990.246 478.044 990.28 478.052H990.291C990.329 478.063 990.362 478.071 990.4 478.078H990.411C990.448 478.089 990.489 478.097 990.527 478.104C992.355 478.455 992.306 479.019 990.971 479H983.294C982.864 479 982.494 478.462 982.509 478.085C982.509 478.067 982.509 478.044 982.509 478.018V477.977C982.509 477.932 982.509 477.884 982.509 477.832V477.779C982.509 477.686 982.505 477.581 982.501 477.466V477.451V477.443C982.501 477.372 982.498 477.298 982.494 477.219V477.212V477.163V477.141V477.092V477.066V477.059V477.04V477.014V476.988V476.973V476.962V476.936V476.91V476.887V476.861C982.486 476.712 982.479 476.555 982.475 476.394H986.576L986.546 476.387ZM973.598 476.387C973.781 476.555 973.983 476.712 974.2 476.857C974.301 476.924 974.405 476.988 974.51 477.051C974.54 477.07 974.57 477.085 974.6 477.104H974.607C974.633 477.122 974.663 477.141 974.693 477.156L974.708 477.163C974.734 477.178 974.764 477.193 974.794 477.208H974.805C974.869 477.246 974.928 477.275 974.992 477.309C975.007 477.316 975.026 477.324 975.041 477.331C975.067 477.343 975.093 477.358 975.119 477.369L975.142 477.38C975.168 477.391 975.19 477.402 975.216 477.414L975.25 477.428C975.272 477.44 975.299 477.447 975.321 477.458L975.362 477.477C975.384 477.484 975.407 477.496 975.429 477.503L975.47 477.518C975.493 477.526 975.515 477.537 975.538 477.544L975.586 477.563C975.605 477.57 975.627 477.578 975.646 477.585C975.665 477.593 975.687 477.6 975.71 477.608L975.755 477.623C975.777 477.63 975.799 477.637 975.822 477.645L975.87 477.664C975.893 477.671 975.915 477.679 975.938 477.686L975.983 477.701C976.009 477.708 976.031 477.72 976.057 477.727L976.095 477.738C976.125 477.746 976.151 477.757 976.181 477.764L976.211 477.772C976.237 477.779 976.267 477.791 976.293 477.798L976.323 477.805C976.353 477.813 976.379 477.824 976.409 477.832L976.435 477.839C976.465 477.847 976.491 477.858 976.521 477.865L976.547 477.873C976.577 477.88 976.607 477.891 976.637 477.899L976.659 477.906C976.693 477.914 976.726 477.925 976.764 477.932H976.768H976.775C976.809 477.944 976.842 477.951 976.88 477.962H976.895C976.928 477.973 976.962 477.981 976.992 477.988H977.007C977.04 478 977.07 478.007 977.104 478.015H977.123C977.156 478.026 977.19 478.033 977.224 478.041H977.235C977.268 478.052 977.306 478.059 977.339 478.067H977.347C977.384 478.078 977.422 478.085 977.459 478.093C979.231 478.444 979.186 479.007 977.889 478.989H970.447C970.028 478.989 969.669 478.451 969.684 478.074C969.684 478.067 969.684 478.056 969.684 478.044V478.011V478.003V477.966V477.921V477.91V477.88V477.85V477.835V477.82V477.802V477.787V477.768V477.753V477.716V477.697V477.679V477.66V477.645V477.623V477.604V477.585V477.567V477.544V477.522V477.514V477.503V477.481V477.458V477.443V477.436V477.414V477.391V477.384V477.343V477.32V477.298V477.29V477.275V477.253V477.231V477.216V477.208V477.182V477.156V477.134V477.107V477.081V477.055V477.048V477.029V477.003V476.977V476.962V476.951V476.924V476.898V476.876V476.846C969.677 476.697 969.669 476.54 969.666 476.38H973.639L973.598 476.387Z" fill="#F9C9B3"/>
<path fill-rule="evenodd" clip-rule="evenodd" d="M975.601 337.881H975.586V338.978C975.455 339.979 974.895 340.889 973.788 341.028V337.881H973.781C973.781 335.887 975.153 334.271 976.846 334.271C977.384 334.271 977.911 334.458 978.378 334.771C978.195 335.436 977.747 336.664 976.816 336.664C976.139 336.664 975.668 337.186 975.601 337.877V337.881Z" fill="#282636"/>
<path fill-rule="evenodd" clip-rule="evenodd" d="M971.355 355.332H982.326C981.096 357.262 979.096 358.516 976.838 358.516C974.581 358.516 972.581 357.262 971.351 355.332H971.355Z" fill="#F9C9B3"/>
<path fill-rule="evenodd" clip-rule="evenodd" d="M978.061 340.818L979.092 336.093L980.935 340.707L978.061 340.818Z" fill="#F9C9B3"/>
<path fill-rule="evenodd" clip-rule="evenodd" d="M960.549 392.172L973.336 408.194C973.389 408.257 973.437 408.325 973.482 408.392L970.458 410.844L956.351 397.802C954.011 395.636 953.836 393.307 954.976 391.885C956.164 390.407 958.755 389.929 960.545 392.176L960.549 392.172Z" fill="#F9C9B3"/>
<path fill-rule="evenodd" clip-rule="evenodd" d="M973.336 408.194C973.388 408.257 973.437 408.325 973.482 408.392L980.875 413.327L980.15 414.592L971.979 412.114C971.568 411.912 970.992 411.333 970.461 410.841L973.336 408.194Z" fill="#F9C9B3"/>
<path fill-rule="evenodd" clip-rule="evenodd" d="M999.845 368.797V397.159H1017.5L1018.47 396.603L1025.7 392.434L1026.66 391.881V363.518L1025.7 364.075L1018.47 368.241L1017.5 368.797H999.845Z" fill="#282636"/>
<path fill-rule="evenodd" clip-rule="evenodd" d="M1025.47 365.232V390.384L1019.2 393.998V368.845L1025.47 365.232Z" fill="white"/>
<path d="M1011.27 370.477H1009.75V372.026H1011.27V370.477Z" fill="white"/>
<path d="M1011.27 372.406H1009.75V373.956H1011.27V372.406Z" fill="white"/>
<path d="M1011.27 374.34H1009.75V375.889H1011.27V374.34Z" fill="white"/>
<path d="M1011.27 376.27H1009.75V377.819H1011.27V376.27Z" fill="white"/>
<path d="M1011.27 378.204H1009.75V379.753H1011.27V378.204Z" fill="white"/>
<path d="M1011.27 380.134H1009.75V381.683H1011.27V380.134Z" fill="white"/>
<path d="M1011.27 382.067H1009.75V383.616H1011.27V382.067Z" fill="white"/>
<path d="M1011.27 383.997H1009.75V385.546H1011.27V383.997Z" fill="white"/>
<path d="M1011.27 385.931H1009.75V387.48H1011.27V385.931Z" fill="white"/>
<path d="M1011.27 387.861H1009.75V389.41H1011.27V387.861Z" fill="white"/>
<path d="M1011.27 389.794H1009.75V391.344H1011.27V389.794Z" fill="white"/>
<path d="M1011.27 391.724H1009.75V393.273H1011.27V391.724Z" fill="white"/>
<path d="M1011.27 393.658H1009.75V395.207H1011.27V393.658Z" fill="white"/>
<path d="M1009.36 370.477H1007.84V372.026H1009.36V370.477Z" fill="white"/>
<path d="M1009.36 372.406H1007.84V373.956H1009.36V372.406Z" fill="white"/>
<path d="M1009.36 374.34H1007.84V375.889H1009.36V374.34Z" fill="white"/>
<path d="M1009.36 376.27H1007.84V377.819H1009.36V376.27Z" fill="white"/>
<path d="M1009.36 378.204H1007.84V379.753H1009.36V378.204Z" fill="white"/>
<path d="M1009.36 380.134H1007.84V381.683H1009.36V380.134Z" fill="white"/>
<path d="M1009.36 382.067H1007.84V383.616H1009.36V382.067Z" fill="white"/>
<path d="M1009.36 383.997H1007.84V385.546H1009.36V383.997Z" fill="white"/>
<path d="M1009.36 385.931H1007.84V387.48H1009.36V385.931Z" fill="white"/>
<path d="M1009.36 387.861H1007.84V389.41H1009.36V387.861Z" fill="white"/>
<path d="M1009.36 389.794H1007.84V391.344H1009.36V389.794Z" fill="white"/>
<path d="M1009.36 391.724H1007.84V393.273H1009.36V391.724Z" fill="white"/>
<path d="M1009.36 393.658H1007.84V395.207H1009.36V393.658Z" fill="white"/>
<path d="M1007.52 370.477H1006V372.026H1007.52V370.477Z" fill="white"/>
<path d="M1007.52 372.406H1006V373.956H1007.52V372.406Z" fill="white"/>
<path d="M1007.52 374.34H1006V375.889H1007.52V374.34Z" fill="white"/>
<path d="M1007.52 376.27H1006V377.819H1007.52V376.27Z" fill="white"/>
<path d="M1007.52 378.204H1006V379.753H1007.52V378.204Z" fill="white"/>
<path d="M1007.52 380.134H1006V381.683H1007.52V380.134Z" fill="white"/>
<path d="M1007.52 382.067H1006V383.616H1007.52V382.067Z" fill="white"/>
<path d="M1007.52 383.997H1006V385.546H1007.52V383.997Z" fill="white"/>
<path d="M1007.52 385.931H1006V387.48H1007.52V385.931Z" fill="white"/>
<path d="M1007.52 387.861H1006V389.41H1007.52V387.861Z" fill="white"/>
<path d="M1007.52 389.794H1006V391.344H1007.52V389.794Z" fill="white"/>
<path d="M1007.52 391.724H1006V393.273H1007.52V391.724Z" fill="white"/>
<path d="M1007.52 393.658H1006V395.207H1007.52V393.658Z" fill="white"/>
<path fill-rule="evenodd" clip-rule="evenodd" d="M1066.69 399.601L1065.34 436.43C1065.25 438.886 1063.69 440.152 1062.19 440.166C1060.58 440.181 1059.04 438.77 1058.88 436.254L1056.6 399.601C1056.32 395.248 1059.02 392.967 1061.7 393.158C1064.04 393.326 1066.84 395.383 1066.69 399.601Z" fill="#E75E30"/>
<path fill-rule="evenodd" clip-rule="evenodd" d="M1065.4 437.426L1063.47 476.48C1063.41 477.656 1063.05 478.257 1062.65 478.332C1062.11 478.429 1061.5 477.615 1061.4 475.995L1058.95 437.426C1058.72 433.85 1060.41 431.969 1062.29 432.126C1063.94 432.264 1065.57 433.962 1065.4 437.426Z" fill="#F9C9B3"/>
<path fill-rule="evenodd" clip-rule="evenodd" d="M1061.25 473.766C1061.46 476.368 1059.28 477.641 1057.32 478.119C1055.9 478.466 1055.94 479.019 1056.98 479H1062.97C1063.3 479 1063.58 478.474 1063.57 478.104C1063.54 477.492 1063.68 473.808 1063.61 473.808L1061.25 473.77V473.766Z" fill="#282636"/>
<path fill-rule="evenodd" clip-rule="evenodd" d="M1060.94 385.057C1060.87 385.304 1060.8 385.55 1060.71 385.789C1059.51 389.13 1055.82 389.01 1056.66 397.988C1056.85 400.011 1057.7 400.724 1059.7 400.724H1074.89C1076.89 400.724 1078.13 400.011 1078.32 397.988C1079.16 389.01 1075.47 389.13 1074.27 385.789C1074.18 385.55 1074.11 385.304 1074.04 385.057H1060.93H1060.94Z" fill="#FE6A6A"/>
<path fill-rule="evenodd" clip-rule="evenodd" d="M1071.69 358.707L1067.52 358.662C1066.3 358.807 1065.62 357.527 1065.61 355.567L1065.58 348.964C1065.56 344.424 1067.1 343.641 1068.35 344.081C1069.47 344.477 1070.31 345.727 1070.32 348.393L1070.33 354.977C1070.33 356.878 1071.01 358.572 1071.69 358.71V358.707Z" fill="#282636"/>
<path fill-rule="evenodd" clip-rule="evenodd" d="M1066.88 345.063C1066.12 345.063 1065.5 345.686 1065.5 346.444V359.408H1068.27V346.444C1068.27 345.682 1067.64 345.063 1066.88 345.063H1066.88Z" fill="#F9C9B3"/>
<path fill-rule="evenodd" clip-rule="evenodd" d="M1081.83 359.729C1080.64 359.729 1079.66 360.704 1079.66 361.895V389.996C1079.66 391.187 1080.64 392.161 1081.83 392.161C1083.02 392.161 1084 391.187 1084 389.996V361.895C1084 360.704 1083.02 359.729 1081.83 359.729Z" fill="#F9C9B3"/>
<path fill-rule="evenodd" clip-rule="evenodd" d="M1083.97 362.309C1083.97 360.248 1082.28 358.561 1080.22 358.561H1055.25C1053.19 358.561 1051.5 360.248 1051.5 362.309C1051.5 364.369 1053.19 366.057 1055.25 366.057H1080.22C1082.28 366.057 1083.97 364.369 1083.97 362.309Z" fill="#F9C9B3"/>
<path fill-rule="evenodd" clip-rule="evenodd" d="M1068.19 399.601L1069.55 436.43C1069.64 438.886 1071.19 440.152 1072.69 440.166C1074.3 440.181 1075.84 438.77 1076 436.254L1078.28 399.601C1078.56 395.248 1075.87 392.967 1073.18 393.158C1070.84 393.326 1068.04 395.383 1068.19 399.601Z" fill="#E75E30"/>
<path fill-rule="evenodd" clip-rule="evenodd" d="M1069.49 437.426L1071.41 476.48C1071.47 477.656 1071.83 478.257 1072.24 478.332C1072.77 478.429 1073.38 477.615 1073.48 475.995L1075.93 437.426C1076.16 433.85 1074.47 431.969 1072.59 432.126C1070.95 432.264 1069.31 433.962 1069.49 437.426Z" fill="#F9C9B3"/>
<path fill-rule="evenodd" clip-rule="evenodd" d="M1073.63 473.766C1073.43 476.368 1075.6 477.641 1077.56 478.119C1078.98 478.466 1078.94 479.019 1077.9 479H1071.92C1071.58 479 1071.3 478.474 1071.31 478.104C1071.34 477.492 1071.21 473.808 1071.27 473.808L1073.63 473.77V473.766Z" fill="#282636"/>
<path fill-rule="evenodd" clip-rule="evenodd" d="M1061.29 379.764C1061.23 380.029 1061.15 380.29 1061.06 380.548C1059.85 384.132 1055.5 385.375 1056.14 395.028L1058.71 433.425H1076.17L1078.33 397.943C1078.39 397.29 1078.42 396.685 1078.44 396.125L1078.49 395.177C1079.08 385.546 1075.04 384.132 1073.83 380.548C1073.75 380.335 1073.69 380.122 1073.63 379.906V374.012C1074.7 374.012 1075.76 373.885 1076.61 373.131C1077.91 371.97 1078.59 369.659 1078.47 366.393V358.524H1075.56C1075.56 361.674 1075.36 363.757 1073.63 364.414C1073.59 362.846 1072.36 361.577 1070.87 361.577H1064.11C1062.64 361.577 1061.42 362.813 1061.35 364.355C1059.85 363.593 1059.85 361.26 1059.73 358.583L1056.87 358.527V366.318C1056.88 368.688 1057.28 370.704 1058.33 372.138C1059.32 373.493 1060.25 373.87 1061.35 373.967V379.768H1061.29L1061.29 379.764Z" fill="#001E60"/>
<path d="M1070.67 370.962H1059.42V385.912H1070.67V370.962Z" fill="#DAE1EE"/>
<path fill-rule="evenodd" clip-rule="evenodd" d="M1059.73 358.58C1059.86 361.256 1059.85 363.589 1061.36 364.351C1061.8 364.579 1062.39 364.664 1063.15 364.582H1071.39C1072.34 364.687 1073.07 364.627 1073.63 364.414C1075.35 363.761 1075.56 361.693 1075.57 358.561H1058.79L1059.73 358.58H1059.73Z" fill="#F9C9B3"/>
<path fill-rule="evenodd" clip-rule="evenodd" d="M1081.55 387.607L1066.13 378.838C1064.48 377.898 1063.99 377.991 1063.77 378.45C1063.53 378.939 1063.79 379.462 1065.09 380.462L1079.15 391.093C1083.55 394.416 1086.16 390.336 1081.55 387.603V387.607Z" fill="#F9C9B3"/>
<path fill-rule="evenodd" clip-rule="evenodd" d="M1065.33 380.578L1064.62 377.98C1062.27 376.949 1060.06 377.043 1057.46 377.565L1057.54 378.334C1060.11 378.297 1062.81 379.357 1065.33 380.578Z" fill="#F9C9B3"/>
<path fill-rule="evenodd" clip-rule="evenodd" d="M1066.75 349.359L1065.57 345.933L1064.46 349.359H1066.75Z" fill="#F9C9B3"/>
<path d="M1053.83 359.729C1055.03 359.729 1056 360.7 1056 361.895V389.996C1056 391.191 1055.03 392.161 1053.83 392.161C1052.64 392.161 1051.66 391.191 1051.66 389.996V361.895C1051.66 360.7 1052.64 359.729 1053.83 359.729Z" fill="#F9C9B3"/>
<path fill-rule="evenodd" clip-rule="evenodd" d="M1051.48 390.877L1040.45 380.107C1039.27 378.954 1039.24 378.458 1039.58 378.054C1039.95 377.629 1040.45 377.651 1041.61 378.45L1053.92 387.17C1057.77 389.895 1054.88 394.05 1051.49 390.873L1051.48 390.877Z" fill="#F9C9B3"/>
<path fill-rule="evenodd" clip-rule="evenodd" d="M1041.76 378.629L1039.37 379.051C1037.95 377.278 1037.53 375.165 1037.38 372.522L1038.05 372.268C1038.61 374.695 1040.14 376.778 1041.76 378.633V378.629Z" fill="#F9C9B3"/>
<path fill-rule="evenodd" clip-rule="evenodd" d="M1040.22 377.614L1038.94 378.387C1037.95 377.901 1037.38 376.632 1037.16 375.639L1037.4 375.397C1038.05 376.296 1039.23 377.162 1040.22 377.61V377.614Z" fill="#F9C9B3"/>
<path d="M1065.75 345.765C1066.04 345.765 1066.29 345.884 1066.48 346.074C1066.53 346.123 1066.58 346.179 1066.61 346.239H1068.51V346.418H1066.71C1066.76 346.545 1066.79 346.679 1066.79 346.825C1066.79 347.116 1066.67 347.381 1066.48 347.575C1066.29 347.765 1066.03 347.885 1065.74 347.885C1065.46 347.885 1065.2 347.765 1065.01 347.575C1064.82 347.385 1064.7 347.12 1064.7 346.825C1064.7 346.53 1064.82 346.269 1065.01 346.074C1065.19 345.884 1065.46 345.765 1065.74 345.765H1065.75ZM1066.32 346.239C1066.18 346.089 1065.97 345.996 1065.75 345.996C1065.52 345.996 1065.32 346.089 1065.17 346.239C1065.03 346.388 1064.93 346.597 1064.93 346.825C1064.93 347.052 1065.02 347.262 1065.17 347.411C1065.32 347.56 1065.52 347.653 1065.75 347.653C1065.97 347.653 1066.17 347.56 1066.32 347.411C1066.47 347.262 1066.56 347.052 1066.56 346.825C1066.56 346.597 1066.47 346.388 1066.32 346.239Z" fill="#1F1F1F"/>
<path fill-rule="evenodd" clip-rule="evenodd" d="M1064.81 358.893C1065.15 358.893 1065.42 358.613 1065.42 358.274C1065.42 357.934 1065.15 357.654 1064.81 357.654C1064.48 357.654 1064.2 357.934 1064.2 358.274C1064.2 358.613 1064.48 358.893 1064.81 358.893Z" fill="#DAE1EE"/>
<path fill-rule="evenodd" clip-rule="evenodd" d="M1065.55 359.883C1065.89 359.883 1066.16 359.603 1066.16 359.263C1066.16 358.923 1065.89 358.643 1065.55 358.643C1065.21 358.643 1064.94 358.923 1064.94 359.263C1064.94 359.603 1065.21 359.883 1065.55 359.883Z" fill="#DAE1EE"/>
<path fill-rule="evenodd" clip-rule="evenodd" d="M1066.54 360.607C1066.88 360.607 1067.15 360.327 1067.15 359.987C1067.15 359.647 1066.88 359.367 1066.54 359.367C1066.21 359.367 1065.93 359.647 1065.93 359.987C1065.93 360.327 1066.21 360.607 1066.54 360.607Z" fill="#DAE1EE"/>
<path fill-rule="evenodd" clip-rule="evenodd" d="M1067.7 361.04C1068.03 361.04 1068.3 360.76 1068.3 360.42C1068.3 360.08 1068.03 359.8 1067.7 359.8C1067.36 359.8 1067.09 360.08 1067.09 360.42C1067.09 360.76 1067.36 361.04 1067.7 361.04Z" fill="#DAE1EE"/>
<path fill-rule="evenodd" clip-rule="evenodd" d="M1071.8 358.893C1072.13 358.893 1072.41 358.613 1072.41 358.274C1072.41 357.934 1072.13 357.654 1071.8 357.654C1071.46 357.654 1071.19 357.934 1071.19 358.274C1071.19 358.613 1071.46 358.893 1071.8 358.893Z" fill="#DAE1EE"/>
<path fill-rule="evenodd" clip-rule="evenodd" d="M1071.06 359.883C1071.4 359.883 1071.67 359.603 1071.67 359.263C1071.67 358.923 1071.4 358.643 1071.06 358.643C1070.72 358.643 1070.45 358.923 1070.45 359.263C1070.45 359.603 1070.72 359.883 1071.06 359.883Z" fill="#DAE1EE"/>
<path fill-rule="evenodd" clip-rule="evenodd" d="M1070.07 360.607C1070.4 360.607 1070.67 360.327 1070.67 359.987C1070.67 359.647 1070.4 359.367 1070.07 359.367C1069.73 359.367 1069.46 359.647 1069.46 359.987C1069.46 360.327 1069.73 360.607 1070.07 360.607Z" fill="#DAE1EE"/>
<path fill-rule="evenodd" clip-rule="evenodd" d="M1068.91 361.04C1069.25 361.04 1069.52 360.76 1069.52 360.42C1069.52 360.08 1069.25 359.8 1068.91 359.8C1068.58 359.8 1068.3 360.08 1068.3 360.42C1068.3 360.76 1068.58 361.04 1068.91 361.04Z" fill="#DAE1EE"/>
<path fill-rule="evenodd" clip-rule="evenodd" d="M1078.39 336.585L1066.97 325.185L1064.03 327.205C1058.52 330.986 1052.05 332.979 1045.36 332.979C1027.12 332.979 1012.33 318.212 1012.33 299.992C1012.33 281.771 1027.11 267 1045.36 267C1063.6 267 1078.62 281.674 1078.39 299.932V299.962V336.582V336.585Z" fill="#DAE1EE"/>
<path d="M1017.48 419.859H1003.6V479H1017.48V419.859Z" fill="#282636"/>
<path d="M1031.36 419.859H1017.48V479H1031.36V419.859Z" fill="#758AAF"/>
<path d="M1045.23 419.859H1031.36V479H1045.23V419.859Z" fill="#8299C2"/>
<path fill-rule="evenodd" clip-rule="evenodd" d="M1010.18 473.542C1011.82 473.542 1013.16 472.206 1013.16 470.571C1013.16 468.936 1011.82 467.6 1010.18 467.6C1008.55 467.6 1007.21 468.936 1007.21 470.571C1007.21 472.206 1008.55 473.542 1010.18 473.542Z" fill="#DAE1EE"/>
<path fill-rule="evenodd" clip-rule="evenodd" d="M1024.26 473.542C1025.9 473.542 1027.24 472.206 1027.24 470.571C1027.24 468.936 1025.9 467.6 1024.26 467.6C1022.63 467.6 1021.29 468.936 1021.29 470.571C1021.29 472.206 1022.63 473.542 1024.26 473.542Z" fill="#DAE1EE"/>
<path fill-rule="evenodd" clip-rule="evenodd" d="M1038.35 473.542C1039.99 473.542 1041.32 472.206 1041.32 470.571C1041.32 468.936 1039.99 467.6 1038.35 467.6C1036.71 467.6 1035.37 468.936 1035.37 470.571C1035.37 472.206 1036.71 473.542 1038.35 473.542Z" fill="#DAE1EE"/>
<path d="M1026.45 440.779H1022.39V458.077H1026.45V440.779Z" fill="#DAE1EE"/>
<path d="M1012.37 440.779H1008.31V458.077H1012.37V440.779Z" fill="#DAE1EE"/>
<path d="M1040.33 440.779H1036.27V458.077H1040.33V440.779Z" fill="#DAE1EE"/>
<path fill-rule="evenodd" clip-rule="evenodd" d="M1030.93 293.832L1025.41 299.6L1041.86 316.028L1067.9 290.017L1061.88 283.992L1041.56 304.284L1030.93 293.832Z" fill="#E9B317"/>
</g>
<g clip-path="url(#clip2_1176_4391)">
<path d="M1223.61 342.851H1128.46V443.684H1223.61V342.851Z" fill="#282636"/>
<path fill-rule="evenodd" clip-rule="evenodd" d="M1124.95 455.457H1223.61V443.684H1174.28H1124.95V455.457Z" fill="#282636"/>
<path fill-rule="evenodd" clip-rule="evenodd" d="M1117.92 455.457H1230.65V467.227H1174.28H1117.92V455.457Z" fill="#282636"/>
<path fill-rule="evenodd" clip-rule="evenodd" d="M1109.56 479H1239V467.227H1174.28H1109.56V479Z" fill="#282636"/>
<path fill-rule="evenodd" clip-rule="evenodd" d="M1127.44 331.081L1151.72 285H1176.78L1226.11 331.081V342.851H1176.78H1127.44V331.081Z" fill="#758AAF"/>
<path fill-rule="evenodd" clip-rule="evenodd" d="M1102.39 331.081L1151.72 285L1201.05 331.081V342.851H1151.72H1102.39V331.081Z" fill="#DAE1EE"/>
<path d="M1116.4 342.851H1109.17V443.684H1116.4V342.851Z" fill="#DAE1EE"/>
<path d="M1135.7 342.851H1128.46V443.684H1135.7V342.851Z" fill="#DAE1EE"/>
<path d="M1154.99 342.851H1147.76V443.684H1154.99V342.851Z" fill="#DAE1EE"/>
<path d="M1174.28 342.851H1167.05V443.684H1174.28V342.851Z" fill="#DAE1EE"/>
<path d="M1193.58 342.851H1186.34V443.684H1193.58V342.851Z" fill="#DAE1EE"/>
<path fill-rule="evenodd" clip-rule="evenodd" d="M1102.39 455.457H1201.05V443.684H1151.72H1102.39V455.457Z" fill="#DAE1EE"/>
<path fill-rule="evenodd" clip-rule="evenodd" d="M1095.35 455.457H1208.08V467.227H1151.72H1095.35V455.457Z" fill="#DAE1EE"/>
<path fill-rule="evenodd" clip-rule="evenodd" d="M1087 479H1216.44V467.227H1151.72H1087V479Z" fill="#DAE1EE"/>
</g>
<path fill-rule="evenodd" clip-rule="evenodd" d="M881.166 362.234H912.332C912.332 379.448 898.377 393.4 881.166 393.4C863.955 393.4 850 379.448 850 362.234C850 345.019 863.955 331.068 881.166 331.068V362.234Z" fill="#8299C2"/>
<path fill-rule="evenodd" clip-rule="evenodd" d="M884.234 359.166V328C901.449 328 915.4 341.955 915.4 359.166H884.234Z" fill="#001E60"/>
<path d="M1118.1 211.703H1114.34V235.577H1118.1V211.703Z" fill="#758AAF"/>
<path d="M1143.4 199.021C1157.47 184.956 1157.47 162.151 1143.4 148.085C1129.34 134.019 1106.53 134.019 1092.47 148.085C1078.4 162.151 1078.4 184.956 1092.47 199.021C1106.53 213.087 1129.34 213.087 1143.4 199.021Z" fill="#DAE1EE"/>
<path d="M1075.5 173.552C1075.5 185.27 1080.25 195.882 1087.93 203.561C1095.61 211.243 1106.22 215.992 1117.94 215.992C1129.65 215.992 1140.27 211.24 1147.94 203.561C1155.63 195.88 1160.38 185.27 1160.38 173.552H1147.53C1147.53 181.724 1144.21 189.123 1138.86 194.478C1133.5 199.834 1126.11 203.147 1117.93 203.147C1109.76 203.147 1102.36 199.834 1097.01 194.478C1091.65 189.123 1088.34 181.724 1088.34 173.552H1075.5Z" fill="#758AAF"/>
<path fill-rule="evenodd" clip-rule="evenodd" d="M1117.93 123.712C1119.37 123.712 1120.55 124.886 1120.55 126.325V144.984H1115.69V125.959C1115.69 124.725 1116.7 123.712 1117.94 123.712H1117.93Z" fill="#F9C9B3"/>
<path d="M1163.15 145.305H1131.74C1129.97 145.305 1128.54 146.741 1128.54 148.513C1128.54 150.285 1129.97 151.721 1131.74 151.721H1163.15C1164.92 151.721 1166.36 150.285 1166.36 148.513C1166.36 146.741 1164.92 145.305 1163.15 145.305Z" fill="#F9C9B3"/>
<path fill-rule="evenodd" clip-rule="evenodd" d="M1160.45 147.858C1160.19 141.782 1160.45 134.812 1160.54 128.849L1156.69 120.912L1157.98 120.461L1162.94 127.082C1163.15 127.468 1163.27 128.217 1163.4 128.88L1166.94 146.437C1167.53 149.35 1166.33 151.083 1164.63 151.392C1162.86 151.713 1160.56 150.499 1160.45 147.858Z" fill="#F9C9B3"/>
<path fill-rule="evenodd" clip-rule="evenodd" d="M1128.54 148.513C1128.54 146.4 1130.26 144.673 1132.38 144.673H1145.47V152.354H1132.38C1130.26 152.354 1128.54 150.627 1128.54 148.513Z" fill="#8299C2"/>
<path fill-rule="evenodd" clip-rule="evenodd" d="M1128.82 170.982L1134.66 154.915C1135.63 152.286 1137.07 149.597 1135.44 146.695C1133.91 143.991 1131.72 144.715 1129.3 144.715H1100.71C1098.49 144.715 1096.67 146.783 1096.67 149.313C1096.67 150.626 1097.16 151.815 1097.94 152.655L1106.1 169.771L1128.82 170.985V170.982Z" fill="#8299C2"/>
<path fill-rule="evenodd" clip-rule="evenodd" d="M1125.07 191.163L1161.44 201.466C1163.87 202.153 1165.68 200.942 1166.26 199.381C1166.87 197.713 1166.08 195.662 1163.68 194.698L1128.84 180.671C1124.7 179.005 1121.47 181.076 1120.66 183.927C1119.95 186.415 1120.91 189.983 1125.07 191.161L1125.07 191.163Z" fill="#282636"/>
<path fill-rule="evenodd" clip-rule="evenodd" d="M1109.82 193.596L1139.37 200.347C1141.86 201.751 1144.19 200.897 1145.24 199.332C1146.36 197.652 1146.03 195.179 1143.64 193.477L1116.77 183.021C1112.65 180.079 1108.54 181.503 1106.88 184.433C1105.43 186.989 1105.54 191.182 1109.82 193.593L1109.82 193.596Z" fill="#282636"/>
<path d="M1129.45 169.317H1105.86V187.574H1129.45V169.317Z" fill="#282636"/>
<path fill-rule="evenodd" clip-rule="evenodd" d="M1112.92 144.695H1123.25C1122.09 146.513 1120.21 147.696 1118.08 147.696C1115.96 147.696 1114.08 146.513 1112.92 144.695H1112.92Z" fill="#F9C9B3"/>
<path fill-rule="evenodd" clip-rule="evenodd" d="M1119.28 130.352L1120.22 125.589L1121.94 130.352H1119.28Z" fill="#F9C9B3"/>
<path fill-rule="evenodd" clip-rule="evenodd" d="M1159.88 200.609L1160.62 231.197H1160.6C1160.53 231.197 1160.55 234.298 1160.49 234.811C1160.46 235.123 1160.77 235.566 1161.17 235.566H1168.17C1169.39 235.58 1169.46 235.115 1167.81 234.823C1165.54 234.42 1163.03 233.353 1163.37 231.163H1163.36L1167.43 200.609C1167.83 197.602 1165.92 196.02 1163.72 196.153C1161.79 196.269 1159.81 197.699 1159.88 200.609Z" fill="#282636"/>
<path fill-rule="evenodd" clip-rule="evenodd" d="M1160.53 233.792C1160.52 234.263 1160.51 234.655 1160.5 234.808C1160.47 235.12 1160.77 235.562 1161.17 235.562H1168.18C1169.39 235.576 1169.47 235.111 1167.81 234.819C1166.76 234.632 1165.66 234.306 1164.81 233.789H1160.53V233.792Z" fill="#8299C2"/>
<path d="M1132.91 231.816H1099.53V235.574H1132.91V231.816Z" fill="#758AAF"/>
<path d="M1168.64 114.734H1151.29V136.962H1168.64V114.734Z" fill="#0D4155"/>
<path d="M1167.26 115.883H1152.68V135.195H1167.26V115.883Z" fill="white"/>
<path fill-rule="evenodd" clip-rule="evenodd" d="M1099.79 149.211C1099.26 150.896 1100.21 152.706 1101.89 153.23L1131.87 162.606C1133.55 163.133 1135.36 162.186 1135.89 160.501C1136.42 158.816 1135.47 157.006 1133.78 156.481L1103.81 147.103C1102.12 146.576 1100.31 147.523 1099.79 149.208V149.211Z" fill="#F9C9B3"/>
<path fill-rule="evenodd" clip-rule="evenodd" d="M1097.95 148.635C1097.32 150.651 1098.45 152.816 1100.47 153.448L1112.97 157.357L1115.26 150.025L1102.76 146.116C1100.74 145.486 1098.58 146.618 1097.95 148.635H1097.95Z" fill="#8299C2"/>
<path fill-rule="evenodd" clip-rule="evenodd" d="M1136.27 159.497L1136.18 129.343L1135.06 128.546L1130.84 156.649C1129.7 159.426 1130.47 161.491 1132.01 162.251C1133.61 163.046 1136.27 162.231 1136.27 159.494V159.497Z" fill="#F9C9B3"/>
<path fill-rule="evenodd" clip-rule="evenodd" d="M1117.06 126.196H1117.05V127.232C1116.91 128.173 1116.31 129.033 1115.13 129.163V126.196H1115.12C1115.12 124.318 1116.59 122.795 1118.39 122.795C1118.97 122.795 1119.53 122.968 1120.03 123.269C1119.83 123.896 1119.36 125.053 1118.36 125.053C1117.64 125.053 1117.14 125.544 1117.06 126.196H1117.06Z" fill="#0D4155"/>
<path fill-rule="evenodd" clip-rule="evenodd" d="M1138.16 195.875L1139.22 230.616H1139.2C1139.13 230.616 1139.18 234.139 1139.13 234.721C1139.1 235.075 1139.42 235.578 1139.83 235.572L1147.05 235.501C1148.3 235.507 1148.38 234.976 1146.67 234.661C1144.32 234.227 1141.73 233.039 1142.06 230.548H1142.05L1145.94 195.799C1146.33 192.38 1144.34 190.599 1142.07 190.772C1140.09 190.922 1138.06 192.565 1138.16 195.872L1138.16 195.875Z" fill="#282636"/>
<path fill-rule="evenodd" clip-rule="evenodd" d="M1139.15 233.569C1139.15 234.102 1139.14 234.547 1139.13 234.723C1139.1 235.078 1139.42 235.58 1139.83 235.574L1147.05 235.503C1148.3 235.509 1148.37 234.979 1146.67 234.664C1145.59 234.462 1144.45 234.102 1143.57 233.523L1139.15 233.566V233.569Z" fill="#8299C2"/>
<path fill-rule="evenodd" clip-rule="evenodd" d="M1159.97 127.541C1162.1 127.541 1163.83 125.808 1163.83 123.683C1163.83 121.559 1162.1 119.826 1159.97 119.826C1157.85 119.826 1156.11 121.559 1156.11 123.683C1156.11 125.808 1157.85 127.541 1159.97 127.541Z" fill="#0D4155"/>
<path d="M1161.66 125.854H1158.28V128.509H1161.66V125.854Z" fill="#0D4155"/>
<path d="M1161.66 129.059H1158.28V129.606H1161.66V129.059Z" fill="#0D4155"/>
<path fill-rule="evenodd" clip-rule="evenodd" d="M1158.28 130.155H1161.66C1161.66 130.455 1161.41 130.702 1161.11 130.702H1158.83C1158.53 130.702 1158.29 130.455 1158.29 130.155H1158.28Z" fill="#0D4155"/>
<path d="M1160.79 130.702H1159.15V131.249H1160.79V130.702Z" fill="#0D4155"/>
<path d="M1160.18 104H1159.31V110.116H1160.18V104Z" fill="#0D4155"/>
<path d="M1166.5 105.826L1162.18 110.151L1162.79 110.769L1167.12 106.444L1166.5 105.826Z" fill="#0D4155"/>
<path d="M1152.99 105.829L1152.37 106.447L1156.7 110.772L1157.32 110.154L1152.99 105.829Z" fill="#0D4155"/>
<path d="M1228.12 124.286L1194.32 236.909" stroke="#666666" stroke-width="3" stroke-miterlimit="22.93"/>
<path d="M1228.12 124.286L1261.92 236.909" stroke="#666666" stroke-width="3" stroke-miterlimit="22.93"/>
<path d="M1275.24 124.286H1181V188.023H1275.24V124.286Z" fill="#DEE4F0"/>
<path d="M1193.92 172.993H1262.16" stroke="#B3B3B3" stroke-width="2.83" stroke-miterlimit="22.93"/>
<path d="M1193.92 172.993V137.19" stroke="#B3B3B3" stroke-width="2.83" stroke-miterlimit="22.93"/>
<path d="M1220.01 164.795H1214.67V172.993H1220.01V164.795Z" fill="#E9B317"/>
<path d="M1230.87 158.176H1225.53V172.997H1230.87V158.176Z" fill="#ADBCD7"/>
<path d="M1242.28 148.585H1236.95V172.993H1242.28V148.585Z" fill="#E9B317"/>
<path d="M1253.33 139.391H1247.99V172.993H1253.33V139.391Z" fill="#ADBCD7"/>
<path fill-rule="evenodd" clip-rule="evenodd" d="M1250.66 136.895L1255.66 141.892H1245.66L1250.66 136.895Z" fill="#ADBCD7"/>
<path d="M1207.67 168.488H1202.34V172.997H1207.67V168.488Z" fill="#ADBCD7"/>
<path d="M1275.24 124.286H1181V124.922H1275.24V124.286Z" fill="#8299C2"/>
<path d="M1235.71 123H1220.35V124.287H1235.71V123Z" fill="#8299C2"/>
<path d="M1311.86 371.021C1315.28 367.612 1315.28 362.086 1311.86 358.677C1308.44 355.268 1302.9 355.268 1299.49 358.677C1296.07 362.086 1296.07 367.612 1299.49 371.021C1302.9 374.429 1308.44 374.429 1311.86 371.021Z" fill="#282636"/>
<path fill-rule="evenodd" clip-rule="evenodd" d="M1301.54 359.613C1304.08 359.613 1306.15 361.685 1306.15 364.218V403.39C1306.15 405.923 1304.08 407.995 1301.54 407.995C1299 407.995 1296.92 405.923 1296.92 403.39V364.218C1296.92 361.685 1299 359.613 1301.54 359.613Z" fill="#F9C9B3"/>
<path fill-rule="evenodd" clip-rule="evenodd" d="M1304.2 358.62C1306.63 358.62 1308.62 360.605 1308.62 363.031V363.469H1299.77V363.031C1299.77 360.605 1301.76 358.62 1304.2 358.62Z" fill="#282636"/>
<path fill-rule="evenodd" clip-rule="evenodd" d="M1297.93 374.985L1297.33 364.904L1293.09 374.985H1297.93Z" fill="#F9C9B3"/>
<path fill-rule="evenodd" clip-rule="evenodd" d="M1315.63 362.779C1319.71 362.779 1323.04 359.46 1323.04 355.39C1323.04 351.319 1319.71 348 1315.63 348C1311.55 348 1308.22 351.319 1308.22 355.39C1308.22 359.46 1311.55 362.779 1315.63 362.779Z" fill="#282636"/>
<path fill-rule="evenodd" clip-rule="evenodd" d="M1299.19 368.832C1300.42 368.832 1301.42 367.832 1301.42 366.607C1301.42 365.383 1300.42 364.383 1299.19 364.383C1297.96 364.383 1296.96 365.383 1296.96 366.607C1296.96 367.832 1297.96 368.832 1299.19 368.832Z" stroke="#282636" stroke-width="2.13" stroke-miterlimit="22.93"/>
<path fill-rule="evenodd" clip-rule="evenodd" d="M1293.88 368.832C1295.11 368.832 1296.11 367.832 1296.11 366.607C1296.11 365.383 1295.11 364.383 1293.88 364.383C1292.65 364.383 1291.65 365.383 1291.65 366.607C1291.65 367.832 1292.65 368.832 1293.88 368.832Z" stroke="#282636" stroke-width="2.13" stroke-miterlimit="22.93"/>
<path d="M1295.26 364.836C1295.65 364.541 1296.13 364.38 1296.62 364.38C1297.08 364.38 1297.53 364.523 1297.9 364.79" stroke="#282636" stroke-width="2.13" stroke-miterlimit="22.93"/>
<path d="M1301.37 366.123H1305.15C1307.31 366.017 1308.16 367.579 1309.5 369.674" stroke="#1F1F1F" stroke-width="2.13" stroke-miterlimit="22.93"/>
<path fill-rule="evenodd" clip-rule="evenodd" d="M1306.22 365.697C1307.09 365.697 1307.8 366.407 1307.8 367.272V368.171C1307.8 369.039 1307.09 369.746 1306.22 369.746C1305.35 369.746 1304.64 369.036 1304.64 368.171V367.272C1304.64 366.404 1305.36 365.697 1306.22 365.697Z" fill="#F9C9B3"/>
<path d="M1307.55 369.028C1308.84 369.492 1309.71 370.716 1309.71 372.085C1309.71 373.88 1308.25 375.333 1306.45 375.333C1304.65 375.333 1303.19 373.88 1303.19 372.085C1303.19 370.291 1304.65 368.837 1306.45 368.837" stroke="#E9B317" stroke-width="2.13" stroke-miterlimit="22.93"/>
<path fill-rule="evenodd" clip-rule="evenodd" d="M1299.36 377.655C1299.36 378.2 1298.91 378.643 1298.37 378.643H1297.14C1296.6 378.643 1296.15 378.198 1296.15 377.655C1296.15 377.111 1296.6 376.668 1297.14 376.668H1298.37C1298.92 376.668 1299.36 377.113 1299.36 377.655Z" fill="#E9B317"/>
<path fill-rule="evenodd" clip-rule="evenodd" d="M1279.39 413.357L1251.1 461.245C1249.74 463.559 1246.72 464.335 1244.41 462.974C1242.09 461.612 1241.31 458.603 1242.67 456.292L1270.96 408.404C1272.32 406.09 1275.34 405.314 1277.65 406.675C1279.97 408.037 1280.75 411.046 1279.39 413.357Z" fill="#F9C9B3"/>
<path fill-rule="evenodd" clip-rule="evenodd" d="M1279.39 413.358L1266.33 435.46L1257.96 430.405L1270.95 408.402C1272.32 406.088 1275.34 405.311 1277.65 406.673C1279.97 408.035 1280.75 411.044 1279.38 413.355L1279.39 413.358Z" fill="#001E60"/>
<path fill-rule="evenodd" clip-rule="evenodd" d="M1278.29 403.517H1323.8C1327.9 403.517 1331.26 406.867 1331.26 410.96C1331.26 415.054 1327.9 418.401 1323.8 418.401H1278.29C1274.18 418.401 1270.83 415.051 1270.83 410.96C1270.83 406.867 1274.19 403.517 1278.29 403.517Z" fill="#001E60"/>
<path fill-rule="evenodd" clip-rule="evenodd" d="M1302.64 434.77C1311.05 434.77 1318.7 440.561 1323.78 449.582C1328.95 458.771 1330.62 468.749 1329.8 478.88H1278.37C1277.43 472.061 1278.22 466.4 1280.2 459.995L1286.89 442.976L1286.77 442.796C1291.09 437.763 1296.59 434.77 1302.64 434.77H1302.64Z" fill="#E9B317"/>
<path fill-rule="evenodd" clip-rule="evenodd" d="M1279.81 432.163L1286.68 442.977H1318.89C1318.72 442.641 1318.55 442.294 1318.38 441.938L1316.7 439.589C1313.52 435.129 1314.2 431.838 1316.9 426.803L1322.05 417.216V411.649L1287.7 409.287C1281.68 411.026 1272.75 424.631 1279.81 432.163Z" fill="#001E60"/>
<path fill-rule="evenodd" clip-rule="evenodd" d="M1331.12 409.465L1344.03 463.536C1344.65 466.148 1343.02 468.793 1340.4 469.414C1337.79 470.035 1335.13 468.408 1334.51 465.797L1321.61 411.726C1320.98 409.114 1322.61 406.469 1325.23 405.848C1327.85 405.227 1330.5 406.854 1331.12 409.465Z" fill="#F9C9B3"/>
<path fill-rule="evenodd" clip-rule="evenodd" d="M1331.12 409.465L1337.28 435.256L1327.61 436.877L1321.61 411.726C1320.98 409.114 1322.61 406.469 1325.23 405.848C1327.85 405.227 1330.5 406.854 1331.12 409.465Z" fill="#001E60"/>
<path fill-rule="evenodd" clip-rule="evenodd" d="M1318.62 429.89C1317.16 430.02 1315.9 428.042 1315.43 426.721C1314.01 422.686 1312.87 418.321 1313.69 410.155L1315.68 410.481C1315.56 414.067 1318 420.91 1319.86 425.24C1321.32 427.95 1320.38 429.73 1318.61 429.888L1318.62 429.89Z" fill="#F9C9B3"/>
<path fill-rule="evenodd" clip-rule="evenodd" d="M1340.84 469.441C1338.5 470.533 1335.49 469.143 1334.17 466.348L1316.15 428.314C1315.98 427.917 1315.82 427.545 1315.68 427.194L1319.86 425.242C1319.95 425.369 1320.03 425.501 1320.1 425.634L1342.68 462.38C1344.29 465.009 1343.18 468.347 1340.84 469.439V469.441Z" fill="#F9C9B3"/>
<path fill-rule="evenodd" clip-rule="evenodd" d="M1276.51 430.134C1277.89 430.628 1279.61 429.035 1280.4 427.874C1282.8 424.331 1285.01 420.396 1286.29 412.291L1284.28 412.1C1283.49 415.6 1279.39 421.602 1276.49 425.321C1274.39 427.576 1274.85 429.534 1276.52 430.134H1276.51Z" fill="#F9C9B3"/>
<path fill-rule="evenodd" clip-rule="evenodd" d="M1244.96 462.773C1246.95 464.42 1250.22 463.837 1252.21 461.47L1279.29 429.231C1279.57 428.893 1279.81 428.572 1280.04 428.269L1276.48 425.322C1276.37 425.423 1276.26 425.53 1276.15 425.64L1244.98 455.483C1242.75 457.619 1242.98 461.129 1244.96 462.776V462.773Z" fill="#F9C9B3"/>
<path d="M1313.2 410.356H1285.31V468.867H1313.2V410.356Z" fill="#DAE1EE"/>
<path fill-rule="evenodd" clip-rule="evenodd" d="M1298.4 425.006H1307.14C1307.14 429.822 1303.23 433.727 1298.4 433.727C1293.57 433.727 1289.66 429.822 1289.66 425.006C1289.66 420.19 1293.57 416.288 1298.4 416.288V425.006Z" fill="#E9B317"/>
<path fill-rule="evenodd" clip-rule="evenodd" d="M1299.26 424.148V415.428C1304.09 415.428 1308 419.332 1308 424.148H1299.26Z" fill="#001E60"/>
<path d="M1290.59 443.161L1290.98 443.751L1290.85 443.833L1290.61 443.453V462.547H1308.21L1307.83 462.303L1307.92 462.178L1308.51 462.56L1308.6 462.623L1308.51 462.684L1307.92 463.069L1307.87 463.005L1307.83 462.944L1308.21 462.697H1290.53H1290.46V462.623V443.453L1290.21 443.833L1290.15 443.792L1290.08 443.751L1290.47 443.161L1290.53 443.064L1290.59 443.161Z" fill="#BB692D"/>
<path d="M1293.25 458.757L1295.24 456.16H1297.19L1299.64 452.968H1301.98L1307.14 446.256" stroke="#E75E30" stroke-width="4.25" stroke-miterlimit="22.93"/>
<path d="M1293.29 459.232V460.492" stroke="#71A98F" stroke-width="2.83" stroke-miterlimit="22.93"/>
<path d="M1295.37 456.791V460.492" stroke="#71A98F" stroke-width="2.83" stroke-miterlimit="22.93"/>
<path d="M1297.25 456.668V460.492" stroke="#71A98F" stroke-width="2.83" stroke-miterlimit="22.93"/>
<path d="M1299.81 453.496V460.491" stroke="#71A98F" stroke-width="2.83" stroke-miterlimit="22.93"/>
<path d="M1302.05 453.496V460.491" stroke="#71A98F" stroke-width="2.83" stroke-miterlimit="22.93"/>
<path d="M1306.7 447.885V460.492" stroke="#71A98F" stroke-width="2.83" stroke-miterlimit="22.93"/>
<g clip-path="url(#clip3_1176_4391)">
<path d="M1394.41 332.225C1402.1 312.837 1392.72 290.843 1373.47 283.1C1354.21 275.357 1332.37 284.798 1324.68 304.186C1316.99 323.574 1326.36 345.567 1345.62 353.31C1364.88 361.053 1386.72 351.613 1394.41 332.225Z" fill="#DAE1EE"/>
<path d="M1387.9 326.104C1392.24 310.334 1383.06 294.01 1367.4 289.643C1351.74 285.276 1335.52 294.519 1331.19 310.288C1326.85 326.057 1336.03 342.381 1351.69 346.749C1367.35 351.116 1383.56 341.873 1387.9 326.104Z" fill="#08173E"/>
<path fill-rule="evenodd" clip-rule="evenodd" d="M1359.54 296.742C1371.31 296.742 1380.85 306.347 1380.85 318.197C1380.85 330.046 1371.31 339.651 1359.54 339.651C1347.77 339.651 1338.23 330.046 1338.23 318.197C1338.23 306.347 1347.77 296.742 1359.54 296.742Z" fill="#DAE1EE"/>
<path fill-rule="evenodd" clip-rule="evenodd" d="M1359.54 304.915C1366.83 304.915 1372.73 310.862 1372.73 318.197C1372.73 325.531 1366.83 331.478 1359.54 331.478C1352.26 331.478 1346.35 325.531 1346.35 318.197C1346.35 310.862 1352.26 304.915 1359.54 304.915Z" fill="#08173E"/>
<path fill-rule="evenodd" clip-rule="evenodd" d="M1359.54 312.644C1362.59 312.644 1365.06 315.131 1365.06 318.199C1365.06 321.267 1362.59 323.754 1359.54 323.754C1356.5 323.754 1354.03 321.267 1354.03 318.199C1354.03 315.131 1356.5 312.644 1359.54 312.644Z" fill="#E9B317"/>
<path d="M1359.88 317.535L1408.82 254.495" stroke="#A3A4A5" stroke-width="2" stroke-miterlimit="22.93"/>
<path fill-rule="evenodd" clip-rule="evenodd" d="M1406.36 263.784L1398.08 268.447L1400.75 259.274L1403.55 261.529L1406.36 263.784Z" fill="#A3A4A5" stroke="#A3A4A5" stroke-width="0.57" stroke-miterlimit="22.93"/>
<path fill-rule="evenodd" clip-rule="evenodd" d="M1411.87 256.631L1403.59 261.294L1406.26 252.121L1409.06 254.376L1411.87 256.631Z" fill="#A3A4A5" stroke="#A3A4A5" stroke-width="0.57" stroke-miterlimit="22.93"/>
</g>
<path fill-rule="evenodd" clip-rule="evenodd" d="M990.594 129.675L1006.85 98L1023.1 129.675V236.05H1006.85H990.594V129.675Z" fill="#DAE1EE"/>
<path fill-rule="evenodd" clip-rule="evenodd" d="M1023.1 129.675L1039.36 98L1055.61 129.675V236.05H1039.36H1023.1V129.675Z" fill="#282636"/>
<path fill-rule="evenodd" clip-rule="evenodd" d="M1023.1 129.675L1006.85 98H1039.36L1055.61 129.675H1023.1Z" fill="#758AAF"/>
<path d="M1015.19 204.089H996.81V236.051H1015.19V204.089Z" fill="#758AAF"/>
<path d="M999.385 187.315H997.16V193.943H999.385V187.315Z" fill="#758AAF"/>
<path d="M1007.29 187.315H1005.06V193.943H1007.29V187.315Z" fill="#758AAF"/>
<path d="M1015.2 187.315H1012.97V193.943H1015.2V187.315Z" fill="#758AAF"/>
<path d="M999.385 172.584H997.16V179.212H999.385V172.584Z" fill="#758AAF"/>
<path d="M1007.29 172.584H1005.06V179.212H1007.29V172.584Z" fill="#758AAF"/>
<path d="M1015.2 172.584H1012.97V179.212H1015.2V172.584Z" fill="#758AAF"/>
<path d="M999.385 157.853H997.16V164.48H999.385V157.853Z" fill="#758AAF"/>
<path d="M1007.29 157.853H1005.06V164.48H1007.29V157.853Z" fill="#758AAF"/>
<path d="M1015.2 157.853H1012.97V164.48H1015.2V157.853Z" fill="#758AAF"/>
<path d="M999.385 143.119H997.16V149.747H999.385V143.119Z" fill="#758AAF"/>
<path d="M1007.29 143.119H1005.06V149.747H1007.29V143.119Z" fill="#758AAF"/>
<path d="M1015.2 143.119H1012.97V149.747H1015.2V143.119Z" fill="#758AAF"/>
<path d="M999.385 128.388H997.16V135.016H999.385V128.388Z" fill="#758AAF"/>
<path d="M1007.29 128.388H1005.06V135.016H1007.29V128.388Z" fill="#758AAF"/>
<path d="M1015.2 128.388H1012.97V135.016H1015.2V128.388Z" fill="#758AAF"/>
<defs>
<clipPath id="clip0_1176_4391">
<rect width="135" height="151" fill="white" transform="translate(1267 87)"/>
</clipPath>
<clipPath id="clip1_1176_4391">
<rect width="130" height="212" fill="white" transform="translate(954 267)"/>
</clipPath>
<clipPath id="clip2_1176_4391">
<rect width="152" height="194" fill="white" transform="translate(1087 285)"/>
</clipPath>
<clipPath id="clip3_1176_4391">
<rect width="90" height="104" fill="white" transform="translate(1322 252)"/>
</clipPath>
</defs>
</svg>
