<svg width="149" height="33" viewBox="0 0 149 33" fill="none" xmlns="http://www.w3.org/2000/svg">
<g clip-path="url(#clip0_1934_375)">
<path d="M13.2262 5.02009V2.5115H10.6234V0H8.01758V7.72726H10.6204V10.2358H13.2232V12.7444H15.8291V5.02009H13.2262Z" fill="#62BFAD"/>
<path d="M23.6164 7.72434V10.2329H21.0166V12.7415H18.4077V5.01717H21.0105V2.50858H23.6134V0H26.2222V7.72434H23.6164Z" fill="#009CA2"/>
<path d="M13.2262 27.98V30.4885H10.6234V32.9971H8.01758V25.2728H10.6204V22.7642H13.2232V20.2556H15.8291V27.98H13.2262Z" fill="#D0D602"/>
<path d="M23.6164 25.2757V22.7671H21.0166V20.2585H18.4077V27.9829H21.0105V30.4915H23.6134V33H26.2222V25.2757H23.6164Z" fill="#19AAD1"/>
<path d="M29.0311 12.7474H31.6339V10.2388H34.2367V7.72729H26.2222V10.2359H23.6194V12.7445H21.0166V15.256H29.0311V12.7474Z" fill="#009CA2"/>
<path d="M26.2252 22.7613H23.6223V20.2556H21.0195V17.7412H29.034V20.2498H31.6369V22.7584H34.2397V25.2728H26.2252V22.7613Z" fill="#19AAD1"/>
<path d="M5.20867 12.7474H2.60585V10.2388H0V7.72729H8.01753V10.2359H10.6203V12.7445H13.2232V15.256H5.20867V12.7474Z" fill="#62BFAD"/>
<path d="M8.0145 22.7613H10.6173V20.2556H13.2201V17.7412H5.20564V20.2498H2.60282V22.7584H0V25.2728H8.0145V22.7613Z" fill="#D0D602"/>
<path d="M18.3955 12.7883H15.832V15.2589H18.3955V12.7883Z" fill="#C0D2D8"/>
<path d="M18.3955 17.7412H15.832V20.2118H18.3955V17.7412Z" fill="#C0D2D8"/>
<path d="M20.9648 15.2646H18.4014V17.7353H20.9648V15.2646Z" fill="#C0D2D8"/>
<path d="M15.8261 15.2646H13.2627V17.7353H15.8261V15.2646Z" fill="#C0D2D8"/>
<path d="M11.8464 11.4128H11.8384V11.4215H11.8464V11.4128Z" fill="#C0D2D8"/>
<path d="M47.3873 26.1663V28.8763C47.3933 29.0895 47.3509 29.2998 47.2691 29.4955C47.1994 29.6619 47.0873 29.8079 46.9479 29.9277C46.8025 30.0474 46.6328 30.135 46.448 30.1876C46.2358 30.2489 46.0177 30.2781 45.7965 30.2752C45.5783 30.2752 45.3571 30.2489 45.1481 30.1876C44.9663 30.135 44.7966 30.0474 44.6511 29.9277C44.5178 29.8079 44.4118 29.659 44.3481 29.4955C44.2693 29.3027 44.233 29.0983 44.236 28.891V28.7771H45.1481V28.891C45.1359 29.0603 45.1996 29.2268 45.3238 29.3465C45.4541 29.4517 45.6238 29.5042 45.7935 29.4955C45.9662 29.5042 46.1389 29.4517 46.2752 29.3465C46.3995 29.2268 46.4631 29.0603 46.451 28.891V26.1663H47.3873Z" fill="white"/>
<path d="M52.4868 26.1663V28.7946C52.4929 29.0136 52.4505 29.2297 52.3687 29.4312C52.2929 29.6064 52.1778 29.7641 52.0293 29.8897C51.8748 30.0182 51.696 30.1117 51.5021 30.1671C51.0536 30.2898 50.5749 30.2898 50.1264 30.1671C49.9325 30.1117 49.7537 30.0182 49.6022 29.8897C49.4568 29.7641 49.3416 29.6064 49.2659 29.4312C49.1811 29.2297 49.1417 29.0136 49.1447 28.7946V26.1663H50.0719V28.7946C50.0567 28.9873 50.1295 29.1771 50.2719 29.3115C50.4234 29.4312 50.6143 29.4896 50.8082 29.4809C51.0051 29.4896 51.1991 29.4312 51.3536 29.3115C51.499 29.1771 51.5718 28.9873 51.5566 28.7946V26.1663H52.4868Z" fill="white"/>
<path d="M55.1741 27.8104V30.2051H54.2378V26.1663H55.1044L56.6497 28.561V26.1663H57.5769V30.2051H56.7103L55.1741 27.8104Z" fill="white"/>
<path d="M60.9859 29.4957C61.1829 29.5074 61.3768 29.446 61.5314 29.3263C61.6768 29.192 61.7495 29.0022 61.7344 28.8094V28.7568H60.8496V27.9654H62.6676V30.2024H61.9859L61.8495 29.9104C61.7192 30.033 61.5586 30.1236 61.3859 30.1791C61.192 30.2404 60.9859 30.2725 60.7799 30.2696C60.5799 30.2696 60.3799 30.2404 60.189 30.1791C60.0163 30.1236 59.8618 30.0301 59.7315 29.9075C59.5982 29.779 59.4921 29.6213 59.4285 29.449C59.3527 29.2416 59.3164 29.0226 59.3194 28.8036V27.6004C59.3134 27.3726 59.3558 27.1477 59.4406 26.9345C59.5133 26.7564 59.6315 26.5987 59.78 26.4702C59.9345 26.3417 60.1133 26.2483 60.3072 26.1957C60.5314 26.1344 60.7648 26.1022 60.9981 26.1052C61.2253 26.1052 61.4495 26.1285 61.6707 26.1782C61.8616 26.2191 62.0404 26.2979 62.198 26.4089C62.3464 26.5169 62.4616 26.6571 62.5404 26.8177C62.6282 27.0076 62.6707 27.212 62.6646 27.4193V27.4894H61.7374V27.4222C61.7526 27.2616 61.6738 27.1068 61.5374 27.0134C61.3738 26.9229 61.189 26.8791 61.0011 26.8878C60.8041 26.8761 60.6102 26.9345 60.4557 27.0514C60.3042 27.1974 60.2315 27.3989 60.2527 27.6033V28.7948C60.2375 28.9876 60.3102 29.1774 60.4527 29.3117C60.6011 29.4344 60.792 29.5015 60.9859 29.4957Z" fill="white"/>
<path d="M64.0918 26.1663H67.3885V26.946H66.2037V30.2051H65.2765V26.9431H64.0918V26.1663Z" fill="white"/>
<path d="M68.855 26.1663H69.7822V30.2051H68.855V26.1663Z" fill="white"/>
<path d="M72.5 27.8104V30.2051H71.5728V26.1663H72.4394L73.9847 28.561V26.1663H74.9119V30.2051H74.0453L72.5 27.8104Z" fill="white"/>
<path d="M76.7061 26.1663H79.627V26.946H77.6333V27.7929H79.3271V28.5726H77.6333V29.4254H79.627V30.2051H76.7061V26.1663ZM77.6757 25.1003H78.5423V25.9356H77.6757V25.1003Z" fill="white"/>
<path d="M83.4385 29.0429C83.4445 28.9406 83.3991 28.8443 83.3203 28.7771C83.2324 28.7099 83.1294 28.6661 83.0173 28.6515L82.3295 28.5347C82.0143 28.4938 81.7174 28.3624 81.4841 28.1522C81.278 27.9477 81.169 27.6674 81.1811 27.3812C81.1781 27.1884 81.2144 26.9957 81.2932 26.8176C81.3659 26.6628 81.475 26.5255 81.6144 26.4204C81.7659 26.3094 81.9386 26.2276 82.1234 26.1838C82.3416 26.1283 82.5658 26.1021 82.7931 26.105C83.2112 26.0845 83.6233 26.1926 83.9718 26.4145C84.2657 26.6336 84.4263 26.9782 84.402 27.3345V27.4337H83.4748V27.3345C83.4839 27.2001 83.4142 27.0687 83.2961 26.9957C83.1415 26.9139 82.9688 26.873 82.7931 26.8847C82.6234 26.876 82.4567 26.9081 82.3052 26.984C82.1901 27.057 82.1295 27.1884 82.1416 27.3199C82.1386 27.4191 82.181 27.5184 82.2568 27.5856C82.3416 27.6586 82.4476 27.7024 82.5598 27.717L83.2476 27.8338C83.5688 27.8718 83.8687 28.0061 84.1051 28.2193C84.3081 28.4237 84.4172 28.6983 84.4081 28.9815C84.4142 29.1743 84.3748 29.3699 84.299 29.5481C84.2293 29.7058 84.1172 29.843 83.9778 29.9482C83.8263 30.0591 83.6536 30.1409 83.4688 30.1847C83.2506 30.2402 83.0264 30.2665 82.7991 30.2636C82.381 30.2869 81.9689 30.176 81.6204 29.954C81.3265 29.735 81.1659 29.3904 81.1902 29.0341V28.9348H82.1143V29.0341C82.1053 29.1684 82.1749 29.2999 82.2931 29.3729C82.4476 29.4546 82.6204 29.4955 82.7961 29.4838C82.9658 29.4926 83.1324 29.4605 83.2839 29.3845C83.3961 29.3057 83.4536 29.1743 83.4385 29.0429Z" fill="white"/>
<path d="M90.1653 28.6398L89.8623 28.9786V30.2022H88.9351V26.1663H89.8623V27.7433L91.2046 26.1663H92.3348L90.7834 27.9477L92.4226 30.2022H91.2985L90.1653 28.6398Z" fill="white"/>
<path d="M93.7861 26.1663H95.5708C95.7708 26.1663 95.9708 26.1896 96.1617 26.2422C96.3314 26.2889 96.4859 26.3707 96.6162 26.4817C96.7495 26.5956 96.8556 26.7386 96.9192 26.8993C96.9919 27.0949 97.0283 27.3023 97.0222 27.5096C97.0344 27.7871 96.9707 28.0645 96.8313 28.3098C96.7071 28.5084 96.5223 28.6602 96.2981 28.7449L97.0828 30.2051H96.0041L95.3224 28.8617H94.7164V30.2051H93.7892V26.1663H93.7861ZM94.7133 28.082H95.5405C95.6769 28.0879 95.8072 28.044 95.9102 27.9594C96.0193 27.8338 96.0708 27.6732 96.0526 27.5096C96.0708 27.349 96.0223 27.1884 95.9132 27.0657C95.8102 26.981 95.6769 26.9402 95.5436 26.946H94.7164V28.082H94.7133Z" fill="white"/>
<path d="M98.6768 26.1663H101.598V26.946H99.604V27.7929H101.298V28.5726H99.604V29.4254H101.598V30.2051H98.6768V26.1663Z" fill="white"/>
<path d="M106.613 28.7391C106.616 28.9581 106.576 29.1742 106.491 29.3757C106.416 29.5509 106.301 29.7087 106.152 29.8342C105.998 29.9627 105.819 30.0562 105.625 30.1117C105.401 30.1759 105.167 30.208 104.934 30.2051H103.271V26.1663H104.946C105.179 26.1663 105.41 26.1955 105.631 26.2597C105.825 26.3152 106.004 26.4087 106.155 26.5371C106.301 26.6627 106.416 26.8204 106.491 26.9956C106.576 27.1971 106.616 27.4133 106.613 27.6323V28.7391ZM105.685 27.6323C105.701 27.4395 105.628 27.2497 105.485 27.1154C105.334 26.9956 105.143 26.9372 104.949 26.946H104.201V29.4254H104.937C105.134 29.4341 105.328 29.3757 105.482 29.256C105.628 29.1217 105.701 28.9318 105.685 28.7391V27.6323Z" fill="white"/>
<path d="M108.343 26.1663H109.27V30.2051H108.343V26.1663Z" fill="white"/>
<path d="M110.73 26.1663H114.027V26.946H112.842V30.2051H111.915V26.9431H110.73V26.1663Z" fill="white"/>
<path d="M118.778 28.7946C118.781 29.0137 118.742 29.2298 118.657 29.4313C118.582 29.6065 118.466 29.7642 118.318 29.8898C118.163 30.0183 117.985 30.1117 117.791 30.1672C117.342 30.2899 116.863 30.2899 116.415 30.1672C116.221 30.1117 116.042 30.0183 115.891 29.8898C115.745 29.7642 115.63 29.6065 115.554 29.4313C115.47 29.2298 115.43 29.0137 115.433 28.7946V27.5739C115.43 27.3549 115.47 27.1388 115.554 26.9373C115.63 26.7621 115.745 26.6044 115.894 26.4788C116.048 26.3503 116.227 26.2569 116.421 26.2014C116.87 26.0787 117.348 26.0787 117.797 26.2014C117.991 26.2569 118.169 26.3503 118.321 26.4788C118.466 26.6044 118.582 26.7621 118.657 26.9373C118.742 27.1388 118.781 27.3549 118.778 27.5739V28.7946ZM117.851 27.571C117.866 27.3783 117.794 27.1884 117.651 27.0541C117.5 26.9344 117.309 26.876 117.115 26.8847C116.918 26.876 116.724 26.9344 116.57 27.0541C116.424 27.1884 116.351 27.3783 116.367 27.571V28.7946C116.351 28.9874 116.424 29.1772 116.567 29.3115C116.718 29.4313 116.909 29.4897 117.103 29.4809C117.3 29.4926 117.494 29.4313 117.648 29.3115C117.794 29.1772 117.866 28.9874 117.851 28.7946V27.571Z" fill="white"/>
<path d="M126.671 26.1663V28.7946C126.677 29.0136 126.635 29.2297 126.553 29.4312C126.477 29.6064 126.362 29.7641 126.214 29.8897C126.059 30.0182 125.881 30.1117 125.687 30.1671C125.238 30.2898 124.759 30.2898 124.311 30.1671C124.117 30.1117 123.938 30.0182 123.787 29.8897C123.641 29.7641 123.526 29.6064 123.45 29.4312C123.366 29.2297 123.326 29.0136 123.329 28.7946V26.1663H124.256V28.7946C124.241 28.9873 124.314 29.1771 124.456 29.3115C124.608 29.4312 124.799 29.4896 124.993 29.4809C125.19 29.4896 125.384 29.4312 125.538 29.3115C125.684 29.1771 125.762 28.9873 125.747 28.7946V26.1663H126.671Z" fill="white"/>
<path d="M129.359 27.8104V30.2051H128.432V26.1663H129.299L130.844 28.561V26.1663H131.771V30.2051H130.899L129.359 27.8104Z" fill="white"/>
<path d="M133.568 26.1663H134.495V30.2051H133.568V26.1663Z" fill="white"/>
<path d="M139.08 26.1663V28.8763C139.083 29.0837 139.043 29.2881 138.964 29.4809C138.895 29.6473 138.783 29.7933 138.643 29.9131C138.498 30.0328 138.328 30.1204 138.143 30.173C137.931 30.2343 137.713 30.2635 137.492 30.2606C137.274 30.2606 137.052 30.2343 136.843 30.173C136.662 30.1204 136.492 30.0328 136.346 29.9131C136.213 29.7933 136.107 29.6444 136.043 29.4809C135.965 29.2881 135.928 29.0837 135.931 28.8763V28.7625H136.859V28.8763C136.846 29.0457 136.91 29.2122 137.034 29.3319C137.165 29.4371 137.334 29.4896 137.504 29.4809C137.677 29.4896 137.849 29.4371 137.986 29.3319C138.11 29.2122 138.174 29.0457 138.161 28.8763V26.1663H139.08Z" fill="white"/>
<path d="M144.158 28.7946C144.161 29.0137 144.121 29.2298 144.037 29.4313C143.961 29.6065 143.846 29.7642 143.697 29.8898C143.543 30.0183 143.364 30.1117 143.17 30.1672C142.722 30.2899 142.243 30.2899 141.794 30.1672C141.6 30.1117 141.422 30.0183 141.27 29.8898C141.125 29.7642 141.01 29.6065 140.934 29.4313C140.849 29.2298 140.81 29.0137 140.813 28.7946V27.5739C140.81 27.3549 140.849 27.1388 140.934 26.9373C141.01 26.7621 141.125 26.6044 141.273 26.4788C141.428 26.3503 141.607 26.2569 141.8 26.2014C142.249 26.0787 142.728 26.0787 143.176 26.2014C143.37 26.2569 143.549 26.3503 143.7 26.4788C143.846 26.6044 143.961 26.7621 144.037 26.9373C144.121 27.1388 144.161 27.3549 144.158 27.5739V28.7946ZM143.231 27.571C143.246 27.3783 143.173 27.1884 143.031 27.0541C142.879 26.9344 142.688 26.876 142.494 26.8847C142.297 26.876 142.103 26.9344 141.949 27.0541C141.803 27.1884 141.731 27.3783 141.746 27.571V28.7946C141.731 28.9874 141.803 29.1772 141.946 29.3115C142.097 29.4313 142.288 29.4897 142.482 29.4809C142.679 29.4926 142.873 29.4313 143.028 29.3115C143.173 29.1772 143.246 28.9874 143.231 28.7946V27.571Z" fill="white"/>
<path d="M148.03 29.0429C148.036 28.9406 147.991 28.8443 147.912 28.7771C147.824 28.7099 147.721 28.6661 147.609 28.6515L146.921 28.5347C146.606 28.4938 146.309 28.3624 146.076 28.1522C145.87 27.9477 145.761 27.6674 145.773 27.3812C145.77 27.1884 145.806 26.9957 145.885 26.8176C145.958 26.6628 146.067 26.5255 146.206 26.4204C146.358 26.3094 146.53 26.2276 146.715 26.1838C146.933 26.1283 147.158 26.1021 147.385 26.105C147.803 26.0845 148.215 26.1926 148.564 26.4145C148.857 26.6336 149.018 26.9782 148.994 27.3345V27.4337H148.067V27.3345C148.076 27.2001 148.006 27.0687 147.888 26.9957C147.733 26.9139 147.561 26.873 147.385 26.8847C147.215 26.876 147.049 26.9081 146.897 26.984C146.782 27.057 146.721 27.1884 146.733 27.3199C146.73 27.4191 146.773 27.5184 146.849 27.5856C146.933 27.6586 147.039 27.7024 147.152 27.717L147.839 27.8338C148.161 27.8718 148.461 28.0061 148.697 28.2193C148.9 28.4237 149.009 28.6983 149 28.9815C149.006 29.1743 148.967 29.3699 148.891 29.5481C148.821 29.7058 148.709 29.843 148.57 29.9482C148.418 30.0591 148.245 30.1409 148.061 30.1847C147.842 30.2402 147.618 30.2665 147.391 30.2636C146.973 30.2869 146.561 30.176 146.212 29.954C145.918 29.735 145.758 29.3904 145.782 29.0341V28.9348H146.709V29.0341C146.7 29.1684 146.77 29.2999 146.888 29.3729C147.042 29.4546 147.215 29.4955 147.391 29.4838C147.561 29.4926 147.727 29.4605 147.879 29.3845C147.991 29.3057 148.048 29.1743 148.03 29.0429Z" fill="white"/>
<path d="M49.4747 13.8163L47.5718 15.878V22.0838H44.1812L44.1357 2.862H47.5264L47.5718 11.3894L55.0924 2.84448H59.2224L51.6624 11.2843L59.7527 22.0575H55.65L49.4747 13.8163Z" fill="white"/>
<path d="M65.9189 2.82105L74.1243 2.80353C75.0394 2.79185 75.9515 2.90866 76.8332 3.15397C77.6089 3.36716 78.324 3.74681 78.93 4.26079C79.53 4.78937 79.9905 5.44645 80.2754 6.17946C80.6117 7.07309 80.7723 8.01636 80.7511 8.96548C80.7511 10.5395 80.442 11.7953 79.8208 12.7298C79.1967 13.6643 78.2634 14.3711 77.1756 14.739L80.9814 22.0078H77.0786L73.6304 15.1858H69.3278L69.3429 22.0224H65.9523L65.9189 2.82105ZM69.3308 12.3706H74.0304C74.8879 12.4144 75.7272 12.137 76.3787 11.5967C76.9574 11.0827 77.2453 10.2125 77.2423 8.98592C77.2423 7.75937 76.9453 6.89203 76.3575 6.38096C75.7 5.85238 74.8606 5.58371 74.0062 5.63043H69.3065L69.3308 12.3706Z" fill="white"/>
<path d="M88.426 2.77139L101.81 2.74219V5.57201L91.8106 5.59537V10.9513L100.386 10.9309V13.7607L91.8106 13.7811V19.1633L101.81 19.14V21.9698L88.4199 21.999L88.426 2.77139Z" fill="white"/>
<path d="M124.753 15.0194C124.777 16.0386 124.593 17.052 124.205 18.0011C123.856 18.8276 123.317 19.5635 122.629 20.1593C121.911 20.7667 121.069 21.2164 120.154 21.4822C119.102 21.7888 118.005 21.9407 116.905 21.929L109.385 21.9465L109.339 2.72474L116.914 2.70722C118.008 2.6897 119.102 2.83571 120.151 3.13943C121.057 3.40226 121.893 3.84908 122.605 4.45067C123.293 5.04934 123.829 5.79111 124.178 6.61757C124.565 7.56085 124.759 8.56837 124.741 9.58173L124.753 15.0194ZM121.35 9.59925C121.35 8.27925 120.954 7.27173 120.16 6.57377C119.366 5.8758 118.287 5.53412 116.924 5.54872H112.736L112.769 19.1138H116.899C118.284 19.1138 119.375 18.7662 120.172 18.0741C120.969 17.382 121.366 16.3745 121.363 15.0574L121.35 9.59925Z" fill="white"/>
<path d="M148.988 21.8588H145.313L143.734 17.3585L135.856 17.3761L134.316 21.9026H130.953L137.868 2.6604H141.998L148.988 21.8588ZM136.777 14.5579H142.816L139.786 6.13562L136.777 14.5579Z" fill="white"/>
</g>
<defs>
<clipPath id="clip0_1934_375">
<rect width="149" height="33" fill="white"/>
</clipPath>
</defs>
</svg>
