<svg width="1440" height="469" viewBox="0 0 1440 469" fill="none" xmlns="http://www.w3.org/2000/svg">
<g clip-path="url(#clip0_1163_2343)">
<path fill-rule="evenodd" clip-rule="evenodd" d="M1386.9 162H1362.01C1362.01 149.355 1373.15 139.11 1386.9 139.11C1400.64 139.11 1411.78 149.364 1411.78 162H1386.9Z" fill="#8299C2"/>
<path fill-rule="evenodd" clip-rule="evenodd" d="M1408.01 162H1389.03C1389.03 152.355 1397.53 144.537 1408.01 144.537C1418.5 144.537 1427 152.355 1427 162H1408.01Z" fill="#8299C2"/>
<path fill-rule="evenodd" clip-rule="evenodd" d="M1307.64 162H1293C1293 154.561 1299.56 148.534 1307.64 148.534C1315.72 148.534 1322.28 154.561 1322.28 162H1307.64Z" fill="#8299C2"/>
<path fill-rule="evenodd" clip-rule="evenodd" d="M1349.49 162H1317.96C1317.96 145.986 1332.07 133 1349.49 133C1366.91 133 1381.02 145.986 1381.02 162H1349.49Z" fill="#04315B"/>
</g>
<g clip-path="url(#clip1_1163_2343)">
<path d="M1369.69 214.229H1213.2V378.472H1369.69V214.229Z" fill="#282636"/>
<path fill-rule="evenodd" clip-rule="evenodd" d="M1207.42 397.651H1369.69V378.481H1288.55H1207.42V397.651Z" fill="#282636"/>
<path fill-rule="evenodd" clip-rule="evenodd" d="M1195.85 397.651H1381.26V416.83H1288.55H1195.85V397.651Z" fill="#282636"/>
<path fill-rule="evenodd" clip-rule="evenodd" d="M1182.12 436H1395V416.83H1288.55H1182.12V436Z" fill="#282636"/>
<path fill-rule="evenodd" clip-rule="evenodd" d="M1211.53 195.059L1251.45 120H1292.66L1373.8 195.059V214.229H1292.66H1211.53V195.059Z" fill="#8299C2"/>
<path fill-rule="evenodd" clip-rule="evenodd" d="M1170.31 195.059L1251.45 120L1332.58 195.059V214.229H1251.45H1170.31V195.059Z" fill="#C2CDE1"/>
<path d="M1193.37 214.229H1181.46V378.472H1193.37V214.229Z" fill="#C2CDE1"/>
<path d="M1225.1 214.229H1213.2V378.472H1225.1V214.229Z" fill="#C2CDE1"/>
<path d="M1256.83 214.229H1244.93V378.472H1256.83V214.229Z" fill="#C2CDE1"/>
<path d="M1288.56 214.229H1276.66V378.472H1288.56V214.229Z" fill="#C2CDE1"/>
<path d="M1320.29 214.229H1308.38V378.472H1320.29V214.229Z" fill="#C2CDE1"/>
<path fill-rule="evenodd" clip-rule="evenodd" d="M1170.31 397.651H1332.58V378.481H1251.45H1170.31V397.651Z" fill="#C2CDE1"/>
<path fill-rule="evenodd" clip-rule="evenodd" d="M1158.74 397.651H1344.15V416.83H1251.45H1158.74V397.651Z" fill="#C2CDE1"/>
<path fill-rule="evenodd" clip-rule="evenodd" d="M1145 436H1357.88V416.83H1251.45H1145V436Z" fill="#C2CDE1"/>
</g>
<g clip-path="url(#clip2_1163_2343)">
<path d="M1212.34 399.064H1206.67V435.054H1212.34V399.064Z" fill="#F7F7EF"/>
<path d="M1206.91 395.851C1236.95 395.851 1261.3 371.54 1261.3 341.55C1261.3 311.561 1236.95 287.25 1206.91 287.25C1176.87 287.25 1152.52 311.561 1152.52 341.55C1152.52 371.54 1176.87 395.851 1206.91 395.851Z" fill="#8299C2"/>
<path d="M1271 341.55C1271 359.218 1263.83 375.211 1252.23 386.793C1240.63 398.37 1224.61 405.536 1206.91 405.536C1189.21 405.536 1173.19 398.376 1161.59 386.793C1149.99 375.217 1142.82 359.218 1142.82 341.55H1162.22C1162.22 353.872 1167.22 365.023 1175.31 373.101C1183.39 381.173 1194.57 386.167 1206.91 386.167C1219.25 386.167 1230.42 381.173 1238.51 373.101C1246.6 365.028 1251.6 353.872 1251.6 341.55H1271Z" fill="#F7F7EF"/>
<path d="M1239.16 252.671C1239.16 250 1236.99 247.834 1234.31 247.834C1231.64 247.834 1229.47 250 1229.47 252.671V300.019C1229.47 302.69 1231.64 304.855 1234.31 304.855C1236.99 304.855 1239.16 302.69 1239.16 300.019V252.671Z" fill="#F9C9B3"/>
<path fill-rule="evenodd" clip-rule="evenodd" d="M1235.67 257.345L1212.48 276.199L1207.69 287.938L1205.84 286.998L1208.79 275.242L1228.06 252.094C1230.97 248.623 1234.28 248.215 1236.37 249.732C1238.56 251.311 1238.85 254.764 1235.67 257.345Z" fill="#F9C9B3"/>
<path fill-rule="evenodd" clip-rule="evenodd" d="M1210.31 264.936C1206.27 264.936 1202.97 268.233 1202.97 272.258V298.479H1210.31V264.936Z" fill="#F9C9B3"/>
<path d="M1184.14 298.037C1186.82 298.037 1188.99 300.204 1188.99 302.874V350.222C1188.99 352.892 1186.82 355.058 1184.14 355.058C1181.47 355.058 1179.3 352.892 1179.3 350.222V302.874C1179.3 300.204 1181.47 298.037 1184.14 298.037Z" fill="#F9C9B3"/>
<path fill-rule="evenodd" clip-rule="evenodd" d="M1180.37 347.154C1172.39 351.694 1163.69 357.611 1156.14 362.509L1142.89 363.954L1143.35 365.963L1155.8 366.988C1156.46 366.943 1157.51 366.49 1158.47 366.131L1183.77 356.581C1187.96 354.997 1189.22 352.075 1188.25 349.656C1187.24 347.137 1183.84 345.184 1180.37 347.154Z" fill="#F9C9B3"/>
<path fill-rule="evenodd" clip-rule="evenodd" d="M1184.14 298.037C1180.95 298.037 1178.34 300.64 1178.34 303.825V323.57H1189.95V303.825C1189.95 300.64 1187.34 298.037 1184.15 298.037H1184.14Z" fill="#FFCC00"/>
<path fill-rule="evenodd" clip-rule="evenodd" d="M1190.48 337.677L1181.67 313.454C1180.2 309.491 1178.02 305.432 1180.49 301.06C1182.79 296.985 1186.09 298.076 1189.76 298.076H1232.92C1236.28 298.076 1239.03 301.194 1239.03 305.007C1239.03 306.988 1238.29 308.78 1237.1 310.045L1224.79 335.846L1190.48 337.677Z" fill="#FFCC00"/>
<path fill-rule="evenodd" clip-rule="evenodd" d="M1189.53 350.692L1225.14 350.726L1224.18 367.542L1189.53 367.816L1189.53 350.692Z" fill="#282636"/>
<path fill-rule="evenodd" clip-rule="evenodd" d="M1196.14 368.096L1141.22 383.631C1137.56 384.666 1134.82 382.836 1133.95 380.49C1133.02 377.977 1134.22 374.887 1137.84 373.431L1190.46 352.282C1196.7 349.774 1201.58 352.892 1202.81 357.191C1203.88 360.942 1202.43 366.322 1196.15 368.096H1196.14Z" fill="#282636"/>
<path fill-rule="evenodd" clip-rule="evenodd" d="M1219.4 371.696L1163.71 404.814C1160 407.025 1156.45 405.816 1154.81 403.498C1153.05 401.012 1153.46 397.267 1157 394.614L1208.51 356.016C1214.62 351.431 1220.88 353.429 1223.49 357.785C1225.78 361.586 1225.77 367.906 1219.39 371.696H1219.4Z" fill="#282636"/>
<path fill-rule="evenodd" clip-rule="evenodd" d="M1234.31 307.761C1231.12 307.761 1228.51 305.158 1228.51 301.972V282.228H1240.12V301.972C1240.12 305.158 1237.51 307.761 1234.32 307.761H1234.31Z" fill="#FFCC00"/>
<path d="M1225.14 335.169H1189.53V353.648H1225.14V335.169Z" fill="#282636"/>
<path fill-rule="evenodd" clip-rule="evenodd" d="M1205.13 267.69H1210.32C1210.32 264.315 1207.99 261.577 1205.13 261.577C1204.21 261.577 1203.32 261.857 1202.53 262.395L1205.13 267.69Z" fill="black" stroke="#1F1F1F" stroke-width="0.57" stroke-miterlimit="22.93"/>
<path fill-rule="evenodd" clip-rule="evenodd" d="M1214.48 298.048H1198.88C1200.63 300.791 1203.48 302.572 1206.68 302.572C1209.89 302.572 1212.73 300.786 1214.48 298.048Z" fill="#F9C9B3"/>
<path fill-rule="evenodd" clip-rule="evenodd" d="M1204.95 279.345L1203.49 271.447L1200.87 279.009L1204.95 279.345Z" fill="#F9C9B3"/>
<path fill-rule="evenodd" clip-rule="evenodd" d="M1203.01 279.345H1206.83C1206.83 281.825 1205.12 283.841 1203.01 283.841C1202.34 283.841 1201.68 283.633 1201.1 283.236L1203.01 279.345Z" fill="black" stroke="#1F1F1F" stroke-width="0.57" stroke-miterlimit="22.93"/>
<path fill-rule="evenodd" clip-rule="evenodd" d="M1161.55 406.297L1115.59 432.423L1115.6 432.44C1115.66 432.54 1111.06 435.255 1110.34 435.776C1109.91 436.09 1108.98 436.084 1108.63 435.58L1102.53 426.545C1101.44 424.989 1102.07 424.485 1103.94 426.355C1106.52 428.935 1110.28 431.219 1113.24 428.846V428.857L1154.97 396.562C1159.08 393.382 1163.09 394.452 1164.81 397.413C1166.32 399.999 1165.92 403.811 1161.55 406.297Z" fill="#282636"/>
<path fill-rule="evenodd" clip-rule="evenodd" d="M1111.82 434.841C1111.13 435.267 1110.56 435.625 1110.34 435.782C1109.91 436.095 1108.98 436.09 1108.63 435.586L1102.53 426.551C1101.44 424.994 1102.07 424.491 1103.94 426.36C1105.13 427.553 1106.58 428.683 1108.08 429.316L1111.81 434.841H1111.82Z" fill="#FFCC00"/>
<path fill-rule="evenodd" clip-rule="evenodd" d="M1145.84 382.427L1160.31 428.818H1160.33C1160.45 428.818 1162 433.52 1162.34 434.298C1162.55 434.768 1162.31 435.446 1161.71 435.446H1151.13C1149.3 435.468 1148.96 434.763 1151.29 434.321C1154.52 433.71 1157.77 432.093 1156.15 428.773H1156.16L1134.44 382.433C1132.31 377.87 1134.39 375.474 1137.79 375.676C1140.75 375.849 1144.46 378.021 1145.84 382.433V382.427Z" fill="#282636"/>
<path fill-rule="evenodd" clip-rule="evenodd" d="M1161.77 432.759C1162.02 433.47 1162.23 434.063 1162.34 434.298C1162.54 434.768 1162.3 435.446 1161.71 435.446H1151.13C1149.3 435.468 1148.95 434.763 1151.29 434.321C1152.79 434.041 1154.28 433.542 1155.29 432.759H1161.76H1161.77Z" fill="#FFCC00"/>
<path fill-rule="evenodd" clip-rule="evenodd" d="M1167.77 325.988V368.673H1141.18L1139.73 367.839L1128.85 361.563L1127.4 360.729V318.044L1128.85 318.878L1139.73 325.154L1141.18 325.988H1167.77Z" fill="#A3A4A5"/>
<path d="M1234.71 429.383H1184.3V435.048H1234.71V429.383Z" fill="#F7F7EF"/>
<path fill-rule="evenodd" clip-rule="evenodd" d="M1129.19 320.619V358.479L1138.62 363.914V326.061L1129.19 320.619Z" fill="#F7F7EF"/>
<path d="M1152.86 328.513H1150.57V330.841H1152.86V328.513Z" fill="#D0CCD6"/>
<path d="M1152.86 331.424H1150.57V333.752H1152.86V331.424Z" fill="#D0CCD6"/>
<path d="M1152.86 334.329H1150.57V336.658H1152.86V334.329Z" fill="#D0CCD6"/>
<path d="M1152.86 337.234H1150.57V339.563H1152.86V337.234Z" fill="#D0CCD6"/>
<path d="M1152.86 340.145H1150.57V342.474H1152.86V340.145Z" fill="#D0CCD6"/>
<path d="M1152.86 343.051H1150.57V345.379H1152.86V343.051Z" fill="#D0CCD6"/>
<path d="M1152.86 345.956H1150.57V348.285H1152.86V345.956Z" fill="#D0CCD6"/>
<path d="M1152.86 348.867H1150.57V351.196H1152.86V348.867Z" fill="#D0CCD6"/>
<path d="M1152.86 351.772H1150.57V354.101H1152.86V351.772Z" fill="#D0CCD6"/>
<path d="M1152.86 354.678H1150.57V357.007H1152.86V354.678Z" fill="#D0CCD6"/>
<path d="M1152.86 357.589H1150.57V359.917H1152.86V357.589Z" fill="#D0CCD6"/>
<path d="M1152.86 360.494H1150.57V362.823H1152.86V360.494Z" fill="#D0CCD6"/>
<path d="M1152.86 363.405H1150.57V365.734H1152.86V363.405Z" fill="#D0CCD6"/>
<path d="M1155.74 328.513H1153.45V330.841H1155.74V328.513Z" fill="#D0CCD6"/>
<path d="M1155.74 331.424H1153.45V333.752H1155.74V331.424Z" fill="#D0CCD6"/>
<path d="M1155.74 334.329H1153.45V336.658H1155.74V334.329Z" fill="#D0CCD6"/>
<path d="M1155.74 337.234H1153.45V339.563H1155.74V337.234Z" fill="#D0CCD6"/>
<path d="M1155.74 340.145H1153.45V342.474H1155.74V340.145Z" fill="#D0CCD6"/>
<path d="M1155.74 343.051H1153.45V345.379H1155.74V343.051Z" fill="#D0CCD6"/>
<path d="M1155.74 345.956H1153.45V348.285H1155.74V345.956Z" fill="#D0CCD6"/>
<path d="M1155.74 348.867H1153.45V351.196H1155.74V348.867Z" fill="#D0CCD6"/>
<path d="M1155.74 351.772H1153.45V354.101H1155.74V351.772Z" fill="#D0CCD6"/>
<path d="M1155.74 354.678H1153.45V357.007H1155.74V354.678Z" fill="#D0CCD6"/>
<path d="M1155.74 357.589H1153.45V359.917H1155.74V357.589Z" fill="#D0CCD6"/>
<path d="M1155.74 360.494H1153.45V362.823H1155.74V360.494Z" fill="#D0CCD6"/>
<path d="M1155.74 363.405H1153.45V365.734H1155.74V363.405Z" fill="#D0CCD6"/>
<path d="M1158.51 328.513H1156.22V330.841H1158.51V328.513Z" fill="#D0CCD6"/>
<path d="M1158.51 331.424H1156.22V333.752H1158.51V331.424Z" fill="#D0CCD6"/>
<path d="M1158.51 334.329H1156.22V336.658H1158.51V334.329Z" fill="#D0CCD6"/>
<path d="M1158.51 337.234H1156.22V339.563H1158.51V337.234Z" fill="#D0CCD6"/>
<path d="M1158.51 340.145H1156.22V342.474H1158.51V340.145Z" fill="#D0CCD6"/>
<path d="M1158.51 343.051H1156.22V345.379H1158.51V343.051Z" fill="#D0CCD6"/>
<path d="M1158.51 345.956H1156.22V348.285H1158.51V345.956Z" fill="#D0CCD6"/>
<path d="M1158.51 348.867H1156.22V351.196H1158.51V348.867Z" fill="#D0CCD6"/>
<path d="M1158.51 351.772H1156.22V354.101H1158.51V351.772Z" fill="#D0CCD6"/>
<path d="M1158.51 354.678H1156.22V357.007H1158.51V354.678Z" fill="#D0CCD6"/>
<path d="M1158.51 357.589H1156.22V359.917H1158.51V357.589Z" fill="#D0CCD6"/>
<path d="M1158.51 360.494H1156.22V362.823H1158.51V360.494Z" fill="#D0CCD6"/>
<path d="M1158.51 363.405H1156.22V365.734H1158.51V363.405Z" fill="#D0CCD6"/>
</g>
<path fill-rule="evenodd" clip-rule="evenodd" d="M1440 469V424.156C1361.16 415.053 1224.66 414.834 1142.89 422.364C1053.49 430.59 984.054 428.901 893.191 423.628C569.887 404.867 489.077 441.034 286.113 422.364C204.339 414.834 67.8411 415.053 -11 424.156V469H1440Z" fill="#EDE7E4"/>
<defs>
<clipPath id="clip0_1163_2343">
<rect width="134" height="29" fill="white" transform="translate(1293 133)"/>
</clipPath>
<clipPath id="clip1_1163_2343">
<rect width="250" height="316" fill="white" transform="translate(1145 120)"/>
</clipPath>
<clipPath id="clip2_1163_2343">
<rect width="169" height="263" fill="white" transform="translate(1102 173)"/>
</clipPath>
</defs>
</svg>
