<svg width="1439" height="334" viewBox="0 0 1439 334" fill="none" xmlns="http://www.w3.org/2000/svg">
<g clip-path="url(#clip0_1159_1429)">
<path d="M616 334H1497.09C1503.66 320.335 1517.09 293.108 1523.68 279.467C1580.24 172.81 1472.88 45.6579 1321.8 37.3696C1217.29 25.9505 1121.35 88.6902 1033.92 123.297C1023.53 120.867 1002.86 115.873 992.48 113.436C902.353 90.1787 847.5 152 807.5 213.5C775.955 262 697.5 307 616 334Z" fill="#EDE7E4"/>
<path d="M1144.49 80.2499C1135.27 88.6332 1098.5 138.992 1132.1 153.367H1157.16H1182.22C1201.96 137.271 1195.36 114.152 1166.45 80.2499C1168.68 75.2217 1173.18 65.124 1175.41 60.0987C1176.4 57.3615 1172.62 57.394 1170.91 56.9476C1168.8 56.3209 1166.1 58.0384 1164.24 58.8395L1161 60.3352C1158.03 61.9433 1155.05 59.3922 1152.83 57.6571L1149.95 55.5228C1145.31 52.688 1144.02 62.4517 1137.94 59.3361C1136.77 58.6739 1135.08 58.8543 1135.57 60.5776C1137.8 65.4757 1142.26 75.3518 1144.48 80.2499H1144.49Z" fill="#71A98F"/>
<path d="M1167.31 81.6983H1143.63C1141.49 81.7663 1140.54 78.8694 1141.99 77.4712C1142.41 77.0515 1142.99 76.7913 1143.63 76.7913C1149.53 76.7913 1161.41 76.7913 1167.31 76.7913C1170.37 76.7441 1170.38 81.7456 1167.31 81.6983Z" fill="white"/>
<path d="M1163.12 127.98L1167 131.905C1164.37 134.516 1160.77 136.145 1156.8 136.141C1150.57 136.133 1145.27 132.164 1143.26 126.608L1139.01 126.603L1139.02 122.602L1142.42 122.606C1142.38 122.279 1142.38 121.91 1142.38 121.583C1142.38 121.214 1142.38 120.887 1142.42 120.522L1139.02 120.518L1139.02 116.517L1143.27 116.522C1145.34 110.971 1150.65 107.014 1156.84 107.021C1160.8 107.025 1164.4 108.663 1167.03 111.28L1163.14 115.196C1161.53 113.56 1159.3 112.535 1156.83 112.532C1153.72 112.529 1150.96 114.116 1149.38 116.525L1158.08 116.535L1158.08 120.536L1147.88 120.524C1147.88 120.893 1147.84 121.22 1147.84 121.584C1147.84 121.911 1147.84 122.281 1147.88 122.607L1158.08 122.619L1158.07 126.62L1149.34 126.61C1150.95 129.022 1153.7 130.616 1156.82 130.62C1159.28 130.623 1161.51 129.603 1163.13 127.971L1163.12 127.98Z" fill="white"/>
<path d="M1054.6 188.668C1053.32 192.41 1051.79 196.871 1050.5 200.613C1086.77 213.022 1159.76 237.995 1196.02 250.401C1198.02 244.587 1200.17 238.299 1202.17 232.485C1165.9 220.076 1092.91 195.103 1056.65 182.697C1056.14 184.187 1055.11 187.181 1054.6 188.668Z" fill="white"/>
<path d="M1196.02 250.401C1205.13 251.306 1223.48 253.124 1232.59 254.028C1225.01 248.657 1209.75 237.853 1202.17 232.485C1200.63 236.951 1197.55 245.938 1196.02 250.401Z" fill="white"/>
<mask id="mask0_1159_1429" style="mask-type:luminance" maskUnits="userSpaceOnUse" x="1196" y="232" width="37" height="23">
<path d="M1196.02 250.401C1205.14 251.306 1223.48 253.124 1232.59 254.028C1225.01 248.657 1209.75 237.853 1202.17 232.485C1200.64 236.951 1197.56 245.938 1196.02 250.401Z" fill="white"/>
</mask>
<g mask="url(#mask0_1159_1429)">
<path d="M1220.72 244.291C1224.44 245.562 1231.92 248.125 1235.64 249.396C1234.73 252.042 1232.91 257.363 1232 260.005C1228.28 258.734 1220.8 256.171 1217.08 254.9C1217.99 252.255 1219.81 246.934 1220.72 244.291Z" fill="#36332E"/>
</g>
<path d="M1037.28 176.066C1042.11 177.719 1051.82 181.044 1056.65 182.697C1055.12 187.163 1052.04 196.149 1050.51 200.613C1045.68 198.961 1035.96 195.635 1031.13 193.983C1032.66 189.516 1035.74 180.53 1037.28 176.066Z" fill="#9BABD0"/>
<path d="M1048.46 179.891C1049.53 180.261 1051.7 181 1052.78 181.369C1051.24 185.836 1048.16 194.822 1046.63 199.286C1045.55 198.916 1043.39 198.177 1042.31 197.808C1043.84 193.341 1046.92 184.355 1048.46 179.891Z" fill="#36332E"/>
<path d="M1041.14 177.388C1042.22 177.757 1044.38 178.496 1045.46 178.866C1043.93 183.332 1040.84 192.318 1039.31 196.782C1038.23 196.413 1036.07 195.674 1034.99 195.304C1036.53 190.838 1039.61 181.851 1041.14 177.388Z" fill="#36332E"/>
<path d="M1035.24 175.369C1035.74 175.543 1036.76 175.892 1037.27 176.066C1035.74 180.533 1032.66 189.519 1031.12 193.983C1025.21 192.7 1021.16 187.252 1023.19 181.257C1024.89 176.309 1030.28 173.672 1035.24 175.369Z" fill="white"/>
<path d="M1170.18 238.873C1172.67 235.796 1175.64 232.13 1178.13 229.053C1148.31 204.988 1088.31 156.56 1058.5 132.501C1054.63 137.28 1050.45 142.451 1046.58 147.23C1076.4 171.295 1136.4 219.724 1166.21 243.783C1167.2 242.559 1169.2 240.097 1170.18 238.873Z" fill="#36332E"/>
<path d="M1058.5 132.5C1050.25 128.534 1033.64 120.549 1025.39 116.585C1030.67 124.224 1041.3 139.595 1046.58 147.233C1049.55 143.562 1055.53 136.175 1058.5 132.503L1058.5 132.5Z" fill="white"/>
<mask id="mask1_1159_1429" style="mask-type:luminance" maskUnits="userSpaceOnUse" x="1025" y="116" width="34" height="32">
<path d="M1058.5 132.5C1050.25 128.533 1033.64 120.549 1025.39 116.585C1030.67 124.224 1041.3 139.595 1046.58 147.233C1049.55 143.562 1055.53 136.175 1058.5 132.503L1058.5 132.5Z" fill="white"/>
</mask>
<g mask="url(#mask1_1159_1429)">
<path d="M1033.2 129.793C1030.14 127.324 1023.99 122.361 1020.93 119.893C1022.69 117.72 1026.23 113.345 1027.99 111.17C1031.05 113.638 1037.2 118.601 1040.26 121.07C1038.5 123.242 1034.96 127.617 1033.2 129.793Z" fill="#36332E"/>
</g>
<path d="M1182.14 256.638C1178.17 253.434 1170.18 246.987 1166.21 243.783C1169.18 240.111 1175.16 232.724 1178.13 229.053C1182.1 232.257 1190.09 238.704 1194.06 241.909C1191.09 245.58 1185.11 252.967 1182.14 256.638Z" fill="#9BABD0"/>
<path d="M1172.95 249.219C1172.06 248.503 1170.28 247.067 1169.4 246.354C1172.37 242.683 1178.35 235.296 1181.32 231.625C1182.2 232.34 1183.98 233.777 1184.87 234.489C1181.9 238.16 1175.92 245.547 1172.95 249.219Z" fill="#36332E"/>
<path d="M1178.97 254.079C1178.08 253.363 1176.3 251.927 1175.42 251.214C1178.39 247.543 1184.37 240.156 1187.34 236.484C1188.22 237.2 1190 238.636 1190.89 239.349C1187.92 243.02 1181.94 250.407 1178.97 254.079Z" fill="#36332E"/>
<path d="M1183.82 257.989C1183.4 257.652 1182.56 256.975 1182.14 256.638C1185.12 252.967 1191.1 245.58 1194.07 241.908C1199.18 245.136 1201.12 251.643 1197.15 256.576C1193.86 260.644 1187.89 261.276 1183.82 257.989Z" fill="white"/>
<path d="M1225.73 237.282H1100.4C1098.94 226.171 1096 203.853 1094.54 192.747C1096 181.656 1098.94 159.303 1100.4 148.212H1225.73C1224.61 157.479 1222.36 176.09 1221.24 185.354C1222.36 198.287 1224.61 224.35 1225.73 237.282Z" fill="white"/>
<path d="M1225.72 237.282H1187.5C1186.09 225.538 1183.26 201.946 1181.86 190.208C1183.26 179.75 1186.09 158.67 1187.5 148.212H1225.72C1224.6 157.479 1222.36 176.09 1221.24 185.354C1222.36 198.287 1224.6 224.35 1225.72 237.282Z" fill="#9BABD0"/>
<path d="M1097.39 171.026C1109.51 171.774 1133.9 173.279 1146.01 174.027C1133.59 174.792 1108.58 176.335 1096.15 177.104C1096.46 175.59 1097.08 172.543 1097.39 171.029V171.026Z" fill="#EDE7E4"/>
<path d="M1181.86 190.208C1167.24 192.384 1137.83 196.764 1123.21 198.937H1182.91C1182.65 196.761 1182.12 192.381 1181.86 190.208Z" fill="#EDE7E4"/>
<path d="M1186.23 157.653C1176.63 158.41 1157.29 159.929 1147.68 160.683C1157.11 161.316 1176.07 162.59 1185.49 163.222C1185.67 161.833 1186.05 159.04 1186.23 157.653Z" fill="#EDE7E4"/>
<path d="M1109.3 220.749C1117.19 220.226 1133.03 219.174 1140.91 218.648C1148.74 219.171 1164.53 220.223 1172.36 220.749C1152.68 221.281 1128.93 221.686 1109.3 220.749Z" fill="#EDE7E4"/>
<path d="M1185.34 219.268C1192.94 218.639 1208.22 217.374 1215.81 216.747C1208.11 216.481 1192.61 215.943 1184.91 215.674C1185.02 216.57 1185.23 218.373 1185.34 219.268Z" fill="#EDE7E4"/>
<path d="M1222.84 172.076H1198.83C1204.89 171.47 1217.08 170.252 1223.13 169.649C1223.06 170.255 1222.91 171.473 1222.84 172.076Z" fill="#EDE7E4"/>
<path d="M1181.62 204.858C1184.37 227.596 1212.31 239.621 1230.8 226.254C1196.96 257.12 1154.17 206.182 1190.36 178.254C1183.51 185.227 1180.19 194.991 1181.62 204.858Z" fill="#36332E"/>
<path d="M1230.8 226.257C1256.93 198.671 1222.13 157.257 1190.36 178.257C1224.2 147.39 1266.99 198.328 1230.8 226.257Z" fill="#9BABD0"/>
<path d="M1239.53 199.652C1241.63 214.613 1233.3 230.034 1217.36 231.527C1187.84 236.109 1169.27 199.159 1190.35 178.257C1208.84 164.896 1236.78 176.915 1239.53 199.652H1239.53Z" fill="#9BABD0"/>
<mask id="mask2_1159_1429" style="mask-type:luminance" maskUnits="userSpaceOnUse" x="1181" y="172" width="59" height="60">
<path d="M1239.53 199.652C1241.64 214.613 1233.3 230.034 1217.37 231.527C1187.84 236.109 1169.27 199.159 1190.36 178.257C1208.84 164.895 1236.78 176.915 1239.53 199.652H1239.53Z" fill="white"/>
</mask>
<g mask="url(#mask2_1159_1429)">
<path opacity="0.68" d="M1206.26 166.261C1215.77 179.643 1234.9 206.572 1244.4 219.948C1241.38 222.916 1235.32 228.887 1232.3 231.855C1221.25 217.099 1198.99 187.406 1187.94 172.655C1192.51 171.062 1201.7 167.854 1206.27 166.261H1206.26Z" fill="white"/>
<path opacity="0.68" d="M1178.79 178.257C1190.51 194.252 1214.1 226.437 1225.82 242.426C1221.03 243.798 1211.39 246.555 1206.6 247.927C1197.58 234.344 1179.41 207.016 1170.39 193.436C1172.49 189.652 1176.7 182.037 1178.79 178.254V178.257Z" fill="white"/>
</g>
<path d="M1238.89 178.546C1237.91 179.566 1235.93 181.621 1234.95 182.641C1233.53 181.278 1230.67 178.535 1229.25 177.172C1230.24 176.152 1232.22 174.098 1233.2 173.078C1232.55 172.167 1232.62 170.914 1233.41 170.095L1251.38 151.446C1252.16 151.242 1270.23 130.591 1270.98 132.078C1272.4 131.83 1274.23 134.46 1275.19 135.173C1275.91 136.154 1278.65 137.81 1278.45 139.255C1279.95 139.967 1259.97 158.848 1259.83 159.572L1241.87 178.221C1241.08 179.04 1239.83 179.164 1238.89 178.546Z" fill="#36332E"/>
<path d="M1242.72 276.66H1083.45C1076.83 261.268 1063.49 230.291 1056.87 214.902H1264.84C1259.33 230.294 1248.23 261.271 1242.72 276.66Z" fill="#36332E"/>
<path d="M1220.05 282.131H1100.21V279.338H1220.05V282.131Z" fill="#36332E"/>
<path d="M1102.17 302.829H1097.85V276.656H1102.17V302.829Z" fill="#9BABD0"/>
<path d="M1121.86 306.471C1120.96 335.307 1079.05 335.301 1078.16 306.471C1079.06 277.635 1120.97 277.641 1121.86 306.471Z" fill="#36332E"/>
<path d="M1100.01 318.765C1083.74 318.248 1083.74 294.691 1100.01 294.177C1116.28 294.694 1116.28 318.251 1100.01 318.765Z" fill="#2A437D"/>
<path d="M1109 306.471C1108.7 318.313 1091.32 318.31 1091.02 306.471C1091.33 294.632 1108.7 294.632 1109 306.471Z" fill="#9BABD0"/>
<path d="M1223.86 302.829H1219.53V276.656H1223.86V302.829Z" fill="#9BABD0"/>
<path d="M1243.54 306.471C1242.65 335.307 1200.74 335.301 1199.85 306.471C1200.74 277.635 1242.65 277.641 1243.54 306.471Z" fill="#36332E"/>
<path d="M1221.69 318.765C1205.42 318.248 1205.42 294.691 1221.69 294.177C1237.96 294.694 1237.96 318.251 1221.69 318.765Z" fill="#2A437D"/>
<path d="M1230.68 306.471C1230.38 318.313 1213 318.31 1212.7 306.471C1213 294.632 1230.38 294.632 1230.68 306.471Z" fill="#9BABD0"/>
<path d="M1271.74 218.55C1215.66 217.513 1104.31 220.554 1048.82 217.483C1047.43 216.188 1047.41 213.614 1048.82 212.319C1104.31 209.25 1215.68 212.286 1271.74 211.249C1276.43 211.258 1276.58 218.526 1271.74 218.55Z" fill="#9BABD0"/>
<path d="M1258.75 272.577H1248.07C1243.66 271.986 1232.67 275.004 1232.59 267.777C1232.66 260.552 1243.68 263.567 1248.07 262.976C1252.46 263.567 1263.48 260.549 1263.55 267.777C1263.55 270.428 1261.4 272.577 1258.75 272.577Z" fill="#9BABD0"/>
<path d="M1273.32 268.208C1273.14 278.587 1257.69 278.584 1257.51 268.208C1257.69 257.833 1273.15 257.833 1273.32 268.208Z" fill="#36332E"/>
<path d="M1270.44 268.208C1270.41 274.771 1260.42 274.771 1260.39 268.208C1260.42 261.646 1270.41 261.646 1270.44 268.208Z" fill="#9BABD0"/>
<path d="M1265.42 269.536C1264.44 269.541 1263.75 268.442 1264.25 267.579L1302.74 196.377L1341.23 125.175C1341.58 124.531 1342.39 124.292 1343.03 124.637C1343.68 124.986 1343.92 125.79 1343.57 126.435L1305.08 197.636C1303.94 198.343 1267.44 269.991 1265.42 269.533V269.536Z" fill="#36332E"/>
<path d="M1348 123.077C1347.98 128.123 1340.3 128.12 1340.27 123.077C1340.3 118.034 1347.98 118.034 1348 123.077Z" fill="#36332E"/>
<path d="M1076.21 225.937C1067.84 224.773 1061.74 230.336 1051.97 242.189C1051.13 238.166 1045.61 225.958 1040.06 223.058C1044.73 218.228 1064.31 205.354 1074.59 206.954C1073.99 209.313 1073.03 223.383 1076.21 225.94V225.937Z" fill="white"/>
<path d="M1111.05 234.501C1108.81 243.189 1097.3 262.624 1084.23 267.638C1082.14 263.275 1074.33 255.379 1066.62 254.959C1072.23 251.77 1099.7 229.484 1100.37 219.425C1101.46 222.346 1107.1 232.24 1111.06 234.501H1111.05Z" fill="white"/>
<path d="M1124.04 230.832C1123.25 235.94 1119.06 252.163 1115.39 258.504C1116.99 257.844 1128.49 254.176 1130.79 254.537C1132.26 251.856 1139.92 230.862 1137.08 226.661C1136.03 227.114 1125.52 230.945 1124.04 230.829L1124.04 230.832Z" fill="white"/>
<path d="M1151.65 232.396C1149.82 234.433 1142.41 247.561 1145.81 251.646C1146.83 250.227 1151.92 245.03 1154.41 244.477C1154.54 243.54 1158.23 230.513 1160.37 230.454C1158.27 229.496 1154.27 229.638 1151.65 232.396Z" fill="white"/>
<path d="M1027.64 223.688C1021.1 222.532 1009.69 217.409 1002.35 210.229C1000.3 214.837 990.459 226.458 982.191 226.31C990.983 231.696 1012.05 239.464 1027.64 239.638C1026.51 236.47 1025.67 228.397 1027.64 223.691V223.688Z" fill="white"/>
<path d="M989.313 237.998C982.828 242.73 963.471 253.26 952 255.506C952.352 262.843 957.69 274.108 967.426 280.627C972.443 278.498 999.212 262.075 1001.29 254.052C996.88 252.538 988.979 245.76 989.313 238.001V237.998Z" fill="white"/>
<path d="M1050.57 264.702C1043.67 263.736 1025.29 259.609 1016.03 255.666C1014.56 259.589 1006.67 271.223 1000.21 272.515C1007.15 275.85 1033.42 283.246 1044.3 280.056C1044.41 276.618 1046.77 268.285 1050.57 264.702Z" fill="white"/>
</g>
<defs>
<clipPath id="clip0_1159_1429">
<rect width="1440" height="334" fill="white"/>
</clipPath>
</defs>
</svg>
