<svg width="1440" height="487" viewBox="0 0 1440 487" fill="none" xmlns="http://www.w3.org/2000/svg">
<path fill-rule="evenodd" clip-rule="evenodd" d="M1319.21 224.451C1321.04 224.451 1322.54 225.955 1322.54 227.796V238.969C1322.54 240.81 1321.04 242.314 1319.21 242.314C1317.37 242.314 1315.87 240.81 1315.87 238.969V227.796C1315.87 225.955 1317.37 224.451 1319.21 224.451Z" fill="#C2CDE1"/>
<path fill-rule="evenodd" clip-rule="evenodd" d="M1326.34 146C1328.17 146 1329.67 147.505 1329.67 149.345V160.518C1329.67 162.359 1328.17 163.864 1326.34 163.864C1324.5 163.864 1323 162.359 1323 160.518V149.345C1323 147.505 1324.5 146 1326.34 146Z" fill="#C2CDE1" fill-opacity="0.6"/>
<path fill-rule="evenodd" clip-rule="evenodd" d="M1378.34 128C1380.17 128 1381.67 129.505 1381.67 131.345V142.518C1381.67 144.359 1380.17 145.864 1378.34 145.864C1376.5 145.864 1375 144.359 1375 142.518V131.345C1375 129.505 1376.5 128 1378.34 128Z" fill="#C2CDE1" fill-opacity="0.6"/>
<path fill-rule="evenodd" clip-rule="evenodd" d="M1353.34 83C1355.17 83 1356.67 84.5046 1356.67 86.3454V97.5181C1356.67 99.3589 1355.17 100.864 1353.34 100.864C1351.5 100.864 1350 99.3589 1350 97.5181V86.3454C1350 84.5046 1351.5 83 1353.34 83Z" fill="#C2CDE1" fill-opacity="0.6"/>
<g clip-path="url(#clip0_1169_3582)">
<path fill-rule="evenodd" clip-rule="evenodd" d="M1100.27 323.987C1097.86 327.189 1096.43 331.172 1096.43 335.492C1096.43 346.066 1104.99 354.625 1115.53 354.625C1126.07 354.625 1134.62 346.054 1134.62 335.492C1134.62 331.172 1133.19 327.189 1130.79 323.987C1131.73 321.879 1132.26 319.55 1132.26 317.093C1132.26 312.784 1130.65 308.86 1127.97 305.89C1129.2 303.771 1129.89 301.313 1129.89 298.693C1129.89 294.338 1127.96 290.437 1124.92 287.793C1126.56 285.732 1127.53 283.135 1127.53 280.294C1127.53 275.717 1124.98 271.735 1121.22 269.697C1123.62 267.938 1125.17 265.097 1125.17 261.895C1125.17 256.561 1120.85 252.229 1115.53 252.229C1110.2 252.229 1105.88 256.561 1105.88 261.895C1105.88 265.097 1107.44 267.938 1109.83 269.697C1106.08 271.735 1103.52 275.717 1103.52 280.294C1103.52 283.124 1104.5 285.732 1106.14 287.793C1103.09 290.437 1101.16 294.338 1101.16 298.693C1101.16 301.313 1101.86 303.771 1103.08 305.89C1100.42 308.86 1098.79 312.784 1098.79 317.093C1098.79 319.55 1099.31 321.879 1100.27 323.987Z" fill="#408973"/>
<path fill-rule="evenodd" clip-rule="evenodd" d="M1115.53 354.625C1126.08 354.625 1134.62 346.054 1134.62 335.492C1134.62 331.172 1133.19 327.189 1130.79 323.987C1131.73 321.879 1132.26 319.55 1132.26 317.093C1132.26 312.784 1130.65 308.86 1127.97 305.89C1129.2 303.771 1129.89 301.313 1129.89 298.693C1129.89 294.338 1127.96 290.437 1124.92 287.793C1126.56 285.732 1127.53 283.135 1127.53 280.294C1127.53 275.717 1124.98 271.735 1121.22 269.697C1123.62 267.938 1125.17 265.097 1125.17 261.895C1125.17 256.561 1120.85 252.229 1115.53 252.229V354.625Z" fill="#4EA185"/>
<path fill-rule="evenodd" clip-rule="evenodd" d="M1339.6 399.016C1338.98 399.028 1338.37 399.04 1337.75 399.04L1339.6 399.016ZM1335.73 399.04C1335.04 399.04 1334.37 399.016 1333.7 398.993L1335.73 399.04ZM1329.94 303.27C1330.61 308.825 1333.13 317.081 1336.18 318.432L1336.13 327.748C1335.28 327.748 1334.43 327.725 1333.58 327.701C1332.81 325.058 1328.54 321.599 1324.88 319.666C1318.22 316.149 1310.45 315.835 1299.4 317.558C1296.69 317.978 1295.72 318.455 1295.4 319.107C1295.1 319.759 1295.45 320.598 1297.26 322.275C1304.04 328.552 1309.45 331.591 1317.38 332.429C1323.09 333.035 1331.99 332.325 1333.51 329.39C1333.6 329.215 1333.66 329.041 1333.7 328.854C1334.51 328.878 1335.32 328.901 1336.15 328.901L1336.06 345.425C1335.23 345.425 1334.42 345.402 1333.62 345.379C1332.85 342.735 1328.57 339.277 1324.91 337.344C1318.25 333.827 1310.49 333.512 1299.43 335.236C1296.73 335.655 1295.75 336.133 1295.44 336.785C1295.13 337.437 1295.48 338.275 1297.3 339.952C1304.07 346.229 1309.49 349.268 1317.41 350.107C1323.12 350.712 1332.02 350.002 1333.55 347.067C1333.64 346.893 1333.7 346.718 1333.73 346.532C1334.51 346.555 1335.29 346.567 1336.08 346.578L1335.99 363.103C1335.2 363.103 1334.42 363.079 1333.64 363.056C1332.87 360.413 1328.59 356.954 1324.93 355.021C1318.27 351.504 1310.51 351.19 1299.46 352.913C1296.75 353.332 1295.77 353.81 1295.46 354.462C1295.16 355.114 1295.51 355.953 1297.32 357.63C1304.1 363.906 1309.51 366.946 1317.44 367.784C1323.14 368.39 1332.05 367.679 1333.57 364.745C1333.66 364.57 1333.72 364.395 1333.75 364.209C1334.5 364.232 1335.25 364.244 1336.01 364.256L1335.92 380.78C1335.16 380.78 1334.42 380.757 1333.67 380.734C1332.91 378.09 1328.63 374.631 1324.97 372.698C1318.31 369.181 1310.55 368.867 1299.49 370.591C1296.79 371.01 1295.81 371.487 1295.5 372.139C1295.19 372.792 1295.54 373.63 1297.35 375.307C1304.13 381.584 1309.55 384.623 1317.47 385.461C1323.18 386.067 1332.08 385.357 1333.6 382.422C1333.7 382.247 1333.75 382.073 1333.79 381.886C1334.5 381.91 1335.22 381.921 1335.94 381.933L1335.87 393.753L1335.84 399.028L1335.65 432.764C1335.65 433.323 1336.1 433.777 1336.66 433.777C1337.22 433.777 1337.67 433.323 1337.67 432.764L1337.86 399.04L1337.89 393.753L1337.96 381.933C1338.55 381.933 1339.15 381.921 1339.74 381.91C1339.78 382.084 1339.83 382.259 1339.91 382.422C1341.43 385.357 1350.33 386.055 1356.05 385.461C1363.96 384.623 1369.39 381.584 1376.16 375.307C1377.97 373.63 1378.33 372.792 1378.02 372.139C1377.72 371.487 1376.73 371.01 1374.03 370.591C1362.96 368.867 1355.2 369.181 1348.55 372.698C1344.88 374.631 1340.59 378.113 1339.83 380.757C1339.22 380.768 1338.6 380.78 1337.99 380.792L1338.08 364.267C1338.64 364.267 1339.19 364.256 1339.75 364.244C1339.79 364.419 1339.84 364.593 1339.93 364.756C1341.44 367.691 1350.34 368.39 1356.06 367.796C1363.97 366.957 1369.4 363.918 1376.18 357.641C1377.98 355.964 1378.34 355.126 1378.03 354.474C1377.73 353.822 1376.74 353.344 1374.04 352.925C1362.97 351.201 1355.21 351.516 1348.56 355.033C1344.89 356.966 1340.6 360.448 1339.84 363.091C1339.26 363.103 1338.68 363.114 1338.09 363.126L1338.18 346.602C1338.71 346.602 1339.24 346.59 1339.76 346.578C1339.8 346.753 1339.86 346.928 1339.94 347.091C1341.45 350.025 1350.35 350.724 1356.07 350.13C1363.98 349.292 1369.41 346.252 1376.19 339.975C1377.99 338.299 1378.35 337.46 1378.05 336.808C1377.74 336.156 1376.76 335.678 1374.05 335.259C1362.98 333.536 1355.22 333.85 1348.57 337.367C1344.9 339.3 1340.61 342.782 1339.86 345.425C1339.31 345.437 1338.75 345.449 1338.21 345.449L1338.3 328.924C1338.8 328.924 1339.29 328.913 1339.78 328.901C1339.81 329.076 1339.87 329.25 1339.95 329.413C1341.46 332.348 1350.36 333.047 1356.08 332.453C1364 331.614 1369.42 328.575 1376.2 322.298C1378 320.621 1378.36 319.783 1378.06 319.131C1377.76 318.478 1376.77 318.001 1374.06 317.582C1363 315.858 1355.23 316.173 1348.58 319.69C1344.91 321.623 1340.62 325.105 1339.87 327.748C1339.36 327.76 1338.83 327.771 1338.31 327.771L1338.37 318.304C1340.75 316.999 1343.13 312.178 1344.2 308.231C1346.14 301.011 1344.73 293.313 1340.58 282.763C1339.57 280.177 1338.88 279.304 1338.17 279.129C1337.46 278.955 1336.73 279.467 1335.5 281.563C1330.9 289.435 1329.14 295.339 1330.09 303.293L1329.94 303.27ZM1355.93 403.15C1363.84 402.312 1369.27 399.273 1376.05 392.996C1377.85 391.319 1378.21 390.481 1377.91 389.828C1377.6 389.176 1376.62 388.699 1373.91 388.28C1362.84 386.556 1355.08 386.871 1348.43 390.387C1346.76 391.272 1344.96 392.472 1343.42 393.764C1341.33 395.523 1339.73 397.468 1339.61 399.028C1339.58 399.424 1339.65 399.785 1339.82 400.123C1341.33 403.057 1350.23 403.756 1355.95 403.162L1355.93 403.15ZM1317.37 403.15C1323.07 403.756 1331.98 403.046 1333.5 400.111C1333.67 399.773 1333.73 399.401 1333.7 398.993C1333.56 397.444 1331.98 395.523 1329.9 393.764C1328.36 392.46 1326.55 391.261 1324.88 390.376C1318.22 386.859 1310.45 386.544 1299.4 388.268C1296.69 388.687 1295.72 389.165 1295.4 389.817C1295.1 390.469 1295.45 391.307 1297.26 392.984C1304.04 399.261 1309.45 402.3 1317.38 403.139L1317.37 403.15Z" fill="#4EA185"/>
<path fill-rule="evenodd" clip-rule="evenodd" d="M1299.25 195.668C1297.6 194.015 1294.94 194.015 1293.3 195.668C1291.65 197.31 1291.65 199.989 1293.3 201.631C1294.95 203.284 1297.61 203.284 1299.25 201.631C1300.9 199.989 1300.9 197.31 1299.25 195.668Z" fill="#3E2C47"/>
<path fill-rule="evenodd" clip-rule="evenodd" d="M1291.15 198.766H1284.99C1282.95 198.766 1281.3 200.431 1281.3 202.458C1281.3 204.496 1282.97 206.149 1284.99 206.149H1291.15C1293.18 206.149 1294.83 204.484 1294.83 202.458C1294.83 200.431 1293.17 198.766 1291.15 198.766Z" fill="#3E2C47" stroke="#3E2C47" stroke-width="0.23" stroke-miterlimit="22.93"/>
<path fill-rule="evenodd" clip-rule="evenodd" d="M1277.96 198.824L1273.29 198.766C1273.3 200.012 1273.81 201.2 1274.69 202.097C1276.54 203.948 1279.5 203.983 1281.3 202.178C1282.16 201.316 1282.65 200.129 1282.63 198.883L1277.96 198.824Z" fill="#20212F"/>
<path fill-rule="evenodd" clip-rule="evenodd" d="M1299.84 198.696L1299.91 196.798H1305.94L1299.84 198.696Z" fill="#9E5976"/>
<path fill-rule="evenodd" clip-rule="evenodd" d="M1299.84 198.696L1299.91 200.583H1305.94L1299.84 198.696Z" fill="#9E5976"/>
<path fill-rule="evenodd" clip-rule="evenodd" d="M1290.04 191.383L1290.14 184C1288.18 184.023 1286.3 184.827 1284.9 186.224C1281.98 189.147 1281.92 193.817 1284.77 196.67C1286.13 198.032 1288 198.789 1289.95 198.766L1290.04 191.383Z" fill="#3E2C47"/>
<path fill-rule="evenodd" clip-rule="evenodd" d="M1284.81 193.479L1279.67 188.192C1278.31 189.59 1277.54 191.499 1277.54 193.479C1277.54 197.613 1280.79 200.955 1284.81 200.955C1286.74 200.955 1288.59 200.163 1289.96 198.766L1284.81 193.479Z" fill="#ECBBD2"/>
<path d="M1151.9 257.586H1294.07V423.762H1151.9V257.586Z" fill="#CC4D3B"/>
<path fill-rule="evenodd" clip-rule="evenodd" d="M1294.07 257.586H1245.58H1151.89L1221.97 195.075L1294.07 257.586Z" fill="#CC4D3B"/>
<path fill-rule="evenodd" clip-rule="evenodd" d="M1222.97 235.204C1208.05 235.204 1195.96 247.326 1195.96 262.267C1195.96 277.208 1208.06 289.331 1222.97 289.331C1237.88 289.331 1249.98 277.208 1249.98 262.267C1249.98 247.326 1237.88 235.204 1222.97 235.204Z" fill="#A3A4A5"/>
<path fill-rule="evenodd" clip-rule="evenodd" d="M1222.97 248.957C1215.63 248.957 1209.68 254.919 1209.68 262.279C1209.68 269.639 1215.63 275.601 1222.97 275.601C1230.32 275.601 1236.27 269.639 1236.27 262.279C1236.27 254.919 1230.32 248.957 1222.97 248.957Z" fill="#F7F7EF"/>
<path d="M1221.99 248.957H1223.96V275.601H1221.99V248.957Z" fill="#CC4D3B"/>
<path d="M1209.68 261.289H1236.27V263.269H1209.68V261.289Z" fill="#CC4D3B"/>
<path d="M1249.51 185.7H1259.26V230.29H1249.51V185.7Z" fill="#CC4D3B"/>
<path d="M1151.9 335.9H1294.07V423.762H1151.9V335.9Z" fill="#FC5E48"/>
<path d="M1248.82 282.681H1272.5V335.911H1248.82V282.681Z" fill="#F7F7EF"/>
<path d="M1248.82 298.961H1272.5V300.475H1248.82V298.961Z" fill="#CC4D3B"/>
<path d="M1259.9 282.681H1261.41V335.911H1259.9V282.681Z" fill="#CC4D3B"/>
<path d="M1248.82 317.803H1272.5V319.317H1248.82V317.803Z" fill="#CC4D3B"/>
<path d="M1174.74 282.681H1198.42V335.911H1174.74V282.681Z" fill="#F7F7EF"/>
<path d="M1174.74 282.681H1185.82V335.911H1174.74V282.681Z" fill="#F7F7EF"/>
<path d="M1174.74 298.961H1198.42V300.475H1174.74V298.961Z" fill="#CC4D3B"/>
<path d="M1185.83 282.681H1187.34V335.911H1185.83V282.681Z" fill="#CC4D3B"/>
<path d="M1174.74 317.803H1198.42V319.317H1174.74V317.803Z" fill="#CC4D3B"/>
<path d="M1248.82 348.954H1272.5V402.184H1248.82V348.954Z" fill="#F7F7EF"/>
<path d="M1260.66 348.954H1272.5V402.184H1260.66V348.954Z" fill="#F7F7EF"/>
<path d="M1248.82 365.245H1272.5V366.759H1248.82V365.245Z" fill="#CC4D3B"/>
<path d="M1259.9 348.954H1261.41V402.184H1259.9V348.954Z" fill="#CC4D3B"/>
<path d="M1248.82 384.076H1272.5V385.59H1248.82V384.076Z" fill="#CC4D3B"/>
<path d="M1174.74 348.954H1198.42V402.184H1174.74V348.954Z" fill="#F7F7EF"/>
<path d="M1174.74 365.245H1198.42V366.759H1174.74V365.245Z" fill="#CC4D3B"/>
<path d="M1185.83 348.954H1187.34V402.184H1185.83V348.954Z" fill="#CC4D3B"/>
<path d="M1174.74 384.076H1198.42V385.59H1174.74V384.076Z" fill="#CC4D3B"/>
<path d="M1209.13 335.9H1236.83V423.762H1209.13V335.9Z" fill="#FC5E48"/>
<path d="M1209.13 365.001H1236.83V423.762H1209.13V365.001Z" fill="#CC4D3B"/>
<path d="M1151.9 423.762H1294.07V435H1151.9V423.762Z" fill="#CC4D3B"/>
<path fill-rule="evenodd" clip-rule="evenodd" d="M916 389.071H1117.14V405.014L1106.18 417.579H925.449L916 406.574V389.071Z" fill="#FC5E48"/>
<path fill-rule="evenodd" clip-rule="evenodd" d="M1028.78 389.071H1117.14V405.014L1106.18 417.579H1028.78V389.071Z" fill="#CC4D3B"/>
<path fill-rule="evenodd" clip-rule="evenodd" d="M933.631 412.723C938.256 412.723 942.01 416.484 942.01 421.119C942.01 425.754 938.256 429.515 933.631 429.515C929.005 429.515 925.251 425.754 925.251 421.119C925.251 416.484 929.005 412.723 933.631 412.723Z" fill="#412D46"/>
<path fill-rule="evenodd" clip-rule="evenodd" d="M1068.3 412.723C1072.92 412.723 1076.67 416.484 1076.67 421.119C1076.67 425.754 1072.92 429.515 1068.3 429.515C1063.67 429.515 1059.92 425.754 1059.92 421.119C1059.92 416.484 1063.67 412.723 1068.3 412.723Z" fill="#412D46"/>
<path fill-rule="evenodd" clip-rule="evenodd" d="M960.699 389.071H1085.64V321.844H987.209L960.699 389.071Z" fill="#FC5E48"/>
<path fill-rule="evenodd" clip-rule="evenodd" d="M963.615 389.06H1027.55V323.8H989.358L963.615 389.06ZM1029.63 389.06H1077.37V323.8H1029.63V389.06Z" fill="#F7F7EF"/>
<path d="M1015.03 395.348H1023.31V398.155H1015.03V395.348Z" fill="#F2EAFF"/>
<path fill-rule="evenodd" clip-rule="evenodd" d="M917.22 397.77V402.987C920.091 402.987 922.427 400.647 922.427 397.77C922.427 394.894 920.091 392.553 917.22 392.553V397.77Z" fill="#F2EAFF"/>
<path fill-rule="evenodd" clip-rule="evenodd" d="M1115.53 397.77V402.987C1112.66 402.987 1110.32 400.647 1110.32 397.77C1110.32 394.894 1112.66 392.553 1115.53 392.553V397.77Z" fill="#E9B317"/>
<path fill-rule="evenodd" clip-rule="evenodd" d="M1000.72 306.414L1001.54 305.657V320.528L1003.82 321.844H1000.72V306.414Z" fill="#3E2C47"/>
<path fill-rule="evenodd" clip-rule="evenodd" d="M1004.65 306.414L1005.47 305.657V320.528L1007.76 321.844H1004.65V306.414Z" fill="#3E2C47"/>
<path d="M1010.99 294C1008.11 294 1005.78 291.665 1005.78 288.783C1005.78 285.902 1008.11 283.566 1010.99 283.566C1013.86 283.566 1016.19 285.902 1016.19 288.783C1016.19 291.665 1013.86 294 1010.99 294Z" fill="#3E2C47"/>
<path fill-rule="evenodd" clip-rule="evenodd" d="M1006.62 293.36L997.715 302.28C995.948 304.05 995.948 306.961 997.715 308.731C999.481 310.501 1002.39 310.501 1004.15 308.731L1013.06 299.811C1014.82 298.041 1014.82 295.13 1013.06 293.36C1011.29 291.59 1008.38 291.59 1006.62 293.36Z" fill="#3E2C47" stroke="#3E2C47" stroke-width="0.23" stroke-miterlimit="22.93"/>
<path fill-rule="evenodd" clip-rule="evenodd" d="M995.135 304.947L990.997 308.988C992.09 310.059 993.577 310.665 995.135 310.665C998.366 310.665 1000.98 308.103 1000.98 304.958C1000.98 303.445 1000.36 301.989 999.272 300.918L995.135 304.958V304.947Z" fill="#20212F"/>
<path fill-rule="evenodd" clip-rule="evenodd" d="M1015.4 288.83L1015.48 286.489H1022.95L1015.4 288.83Z" fill="#9E5976"/>
<path fill-rule="evenodd" clip-rule="evenodd" d="M1015.4 288.83L1015.48 291.159H1022.95L1015.4 288.83Z" fill="#9E5976"/>
<path fill-rule="evenodd" clip-rule="evenodd" d="M1001.77 301.348L995.251 307.718C996.983 309.407 999.319 310.35 1001.77 310.35C1006.86 310.35 1010.99 306.321 1010.99 301.348C1010.99 298.961 1010.01 296.667 1008.29 294.978L1001.77 301.348Z" fill="#ECBBD2"/>
<path fill-rule="evenodd" clip-rule="evenodd" d="M1374.34 253C1376.17 253 1377.67 254.505 1377.67 256.345V267.518C1377.67 269.359 1376.17 270.864 1374.34 270.864C1372.5 270.864 1371 269.359 1371 267.518V256.345C1371 254.505 1372.5 253 1374.34 253Z" fill="#C2CDE1" fill-opacity="0.6"/>
<path fill-rule="evenodd" clip-rule="evenodd" d="M1360.34 190C1362.17 190 1363.67 191.505 1363.67 193.345V204.518C1363.67 206.359 1362.17 207.864 1360.34 207.864C1358.5 207.864 1357 206.359 1357 204.518V193.345C1357 191.505 1358.5 190 1360.34 190Z" fill="#C2CDE1" fill-opacity="0.6"/>
</g>
<path fill-rule="evenodd" clip-rule="evenodd" d="M1440 487V432.67C1361.43 421.642 1225.4 421.376 1143.91 430.499C1054.83 440.465 985.625 438.419 895.075 432.03C572.885 409.301 492.354 453.118 290.089 430.499C208.597 421.376 72.5694 421.642 -6 432.67V487H1440Z" fill="#EDE7E4"/>
<defs>
<clipPath id="clip0_1169_3582">
<rect width="462" height="251" fill="white" transform="matrix(-1 0 0 1 1378 184)"/>
</clipPath>
</defs>
</svg>
