<svg width="1440" height="469" viewBox="0 0 1440 469" fill="none" xmlns="http://www.w3.org/2000/svg">
<g clip-path="url(#clip0_1163_2460)">
<path fill-rule="evenodd" clip-rule="evenodd" d="M1365.89 103H1341.01C1341.01 90.3552 1352.15 80.1101 1365.89 80.1101C1379.64 80.1101 1390.78 90.3644 1390.78 103H1365.89Z" fill="#8299C2"/>
<path fill-rule="evenodd" clip-rule="evenodd" d="M1387.02 103H1368.03C1368.03 93.3549 1376.53 85.5372 1387.02 85.5372C1397.5 85.5372 1406 93.3549 1406 103H1387.02Z" fill="#8299C2"/>
<path fill-rule="evenodd" clip-rule="evenodd" d="M1286.64 103H1272C1272 95.5608 1278.56 89.5337 1286.64 89.5337C1294.72 89.5337 1301.28 95.5608 1301.28 103H1286.64Z" fill="#8299C2"/>
<path fill-rule="evenodd" clip-rule="evenodd" d="M1328.49 103H1296.96C1296.96 86.9863 1311.07 74 1328.49 74C1345.91 74 1360.02 86.9863 1360.02 103H1328.49Z" fill="#04315B"/>
</g>
<g clip-path="url(#clip1_1163_2460)">
<path d="M925.82 224V417.77H1104.41" stroke="white" stroke-width="0.57" stroke-miterlimit="22.93"/>
<path d="M926.441 224.48L930.241 230.34L928.991 231.15L926.561 227.4V417.03H1101.01L1097.26 414.59L1098.07 413.35L1103.93 417.15L1104.89 417.77L1103.93 418.39L1098.07 422.19L1097.66 421.57L1097.26 420.95L1101.02 418.51H925.821H925.081V417.77V227.4L922.641 231.15L922.021 230.75L921.391 230.34L925.191 224.48L925.821 223.52L926.441 224.48Z" fill="white" stroke="white" stroke-width="0.57" stroke-miterlimit="22.93"/>
<path d="M952.762 379.37L972.522 353.6H991.752L1016.06 321.89H1039.3L1090.39 255.24" stroke="white" stroke-width="4.25" stroke-miterlimit="22.93"/>
<path d="M953.16 384.09V396.61" stroke="white" stroke-width="2.83" stroke-miterlimit="22.93"/>
<path d="M973.762 359.86V396.61" stroke="white" stroke-width="2.83" stroke-miterlimit="22.93"/>
<path d="M992.328 358.65V396.61" stroke="white" stroke-width="2.83" stroke-miterlimit="22.93"/>
<path d="M1017.78 327.15V396.61" stroke="white" stroke-width="2.83" stroke-miterlimit="22.93"/>
<path d="M1039.99 327.15V396.61" stroke="white" stroke-width="2.83" stroke-miterlimit="22.93"/>
<path d="M1086.03 271.41V396.61" stroke="white" stroke-width="2.83" stroke-miterlimit="22.93"/>
</g>
<g clip-path="url(#clip2_1163_2460)">
<path d="M1329.63 171.015H1141.84V368.003H1329.63V171.015Z" fill="#282636"/>
<path fill-rule="evenodd" clip-rule="evenodd" d="M1134.91 391.005H1329.63V368.014H1232.27H1134.91V391.005Z" fill="#282636"/>
<path fill-rule="evenodd" clip-rule="evenodd" d="M1121.02 391.005H1343.51V414.008H1232.26H1121.02V391.005Z" fill="#282636"/>
<path fill-rule="evenodd" clip-rule="evenodd" d="M1104.54 437H1360V414.008H1232.26H1104.54V437Z" fill="#282636"/>
<path fill-rule="evenodd" clip-rule="evenodd" d="M1139.83 148.024L1187.74 58H1237.19L1334.55 148.024V171.015H1237.19H1139.83V148.024Z" fill="#8299C2"/>
<path fill-rule="evenodd" clip-rule="evenodd" d="M1090.37 148.024L1187.73 58L1285.09 148.024V171.015H1187.73H1090.37V148.024Z" fill="#C2CDE1"/>
<path d="M1118.04 171.015H1103.75V368.003H1118.04V171.015Z" fill="#C2CDE1"/>
<path d="M1156.12 171.015H1141.84V368.003H1156.12V171.015Z" fill="#C2CDE1"/>
<path d="M1194.2 171.015H1179.91V368.003H1194.2V171.015Z" fill="#C2CDE1"/>
<path d="M1232.27 171.015H1217.99V368.003H1232.27V171.015Z" fill="#C2CDE1"/>
<path d="M1270.35 171.015H1256.06V368.003H1270.35V171.015Z" fill="#C2CDE1"/>
<path fill-rule="evenodd" clip-rule="evenodd" d="M1090.37 391.005H1285.09V368.014H1187.73H1090.37V391.005Z" fill="#C2CDE1"/>
<path fill-rule="evenodd" clip-rule="evenodd" d="M1076.48 391.005H1298.98V414.008H1187.74H1076.48V391.005Z" fill="#C2CDE1"/>
<path fill-rule="evenodd" clip-rule="evenodd" d="M1060 437H1315.46V414.008H1187.74H1060V437Z" fill="#C2CDE1"/>
<path d="M1111.05 224.737C1129.42 221.763 1141.89 204.499 1138.91 186.176C1135.93 167.853 1118.62 155.411 1100.25 158.385C1081.89 161.359 1069.42 178.624 1072.4 196.946C1075.38 215.269 1092.68 227.711 1111.05 224.737Z" fill="#E9B317"/>
<path d="M1115.77 198.385L1119.65 202.307C1117.02 204.922 1113.42 206.556 1109.45 206.556C1103.22 206.556 1097.92 202.591 1095.89 197.035H1091.65V193.033H1095.05C1095.01 192.706 1095.01 192.337 1095.01 192.01C1095.01 191.64 1095.01 191.314 1095.05 190.949H1091.65V186.947H1095.9C1097.96 181.391 1103.27 177.426 1109.46 177.426C1113.42 177.426 1117.03 179.06 1119.66 181.675L1115.77 185.597C1114.15 183.962 1111.93 182.939 1109.46 182.939C1106.34 182.939 1103.59 184.531 1102.01 186.942H1110.72V190.944H1100.52C1100.52 191.314 1100.47 191.64 1100.47 192.005C1100.47 192.332 1100.47 192.701 1100.52 193.028H1110.72V197.031H1101.97C1103.59 199.441 1106.35 201.033 1109.46 201.033C1111.93 201.033 1114.16 200.01 1115.78 198.376L1115.77 198.385Z" fill="white"/>
</g>
<path fill-rule="evenodd" clip-rule="evenodd" d="M1440 469V424.156C1361.76 415.053 1226.29 414.834 1145.14 422.364C1056.43 430.59 987.511 428.901 897.336 423.628C576.483 404.867 496.286 441.034 294.861 422.364C213.706 414.834 78.2434 415.053 0 424.156V469H1440Z" fill="#EDE7E4"/>
<g clip-path="url(#clip3_1163_2460)">
<path d="M1303.82 399.547H1308.6V430H1303.82V399.547Z" fill="white"/>
<path d="M1304.03 396.828C1278.73 396.828 1258.22 376.256 1258.22 350.88C1258.22 325.503 1278.73 304.931 1304.03 304.931C1329.32 304.931 1349.83 325.503 1349.83 350.88C1349.83 376.256 1329.32 396.828 1304.03 396.828Z" fill="#8299C2"/>
<path d="M1358 350.88C1358 365.828 1351.96 379.366 1342.19 389.165C1332.42 398.963 1318.93 405.022 1304.03 405.022C1289.12 405.022 1275.63 398.963 1265.86 389.165C1256.1 379.366 1250.06 365.832 1250.06 350.88H1266.39C1266.39 361.307 1270.6 370.744 1277.41 377.577C1284.23 384.409 1293.63 388.634 1304.03 388.634C1314.42 388.634 1323.83 384.409 1330.64 377.577C1337.45 370.744 1341.66 361.307 1341.66 350.88H1358Z" fill="white"/>
<path fill-rule="evenodd" clip-rule="evenodd" d="M1304.03 287.296C1302.21 287.296 1300.71 288.793 1300.71 290.628V314.433H1306.89V290.163C1306.89 288.588 1305.61 287.296 1304.03 287.296Z" fill="#F9C9B3"/>
<path d="M1246.52 314.845H1286.46C1288.72 314.845 1290.54 316.677 1290.54 318.938C1290.54 321.198 1288.72 323.031 1286.46 323.031H1246.52C1244.27 323.031 1242.44 321.198 1242.44 318.938C1242.44 316.677 1244.27 314.845 1246.52 314.845Z" fill="#F9C9B3"/>
<path fill-rule="evenodd" clip-rule="evenodd" d="M1249.96 318.099C1250.29 310.344 1249.96 301.455 1249.84 293.849L1254.74 283.726L1253.09 283.15L1246.79 291.595C1246.53 292.088 1246.38 293.043 1246.21 293.89L1241.71 316.284C1240.96 319.999 1242.48 322.212 1244.65 322.607C1246.9 323.018 1249.82 321.468 1249.96 318.099Z" fill="#F9C9B3"/>
<path fill-rule="evenodd" clip-rule="evenodd" d="M1290.54 318.938C1290.54 316.243 1288.35 314.038 1285.66 314.038H1269V323.841H1285.66C1288.35 323.841 1290.54 321.636 1290.54 318.942V318.938Z" fill="#DB4E1D"/>
<path fill-rule="evenodd" clip-rule="evenodd" d="M1290.19 347.601L1282.77 327.103C1281.52 323.746 1279.69 320.316 1281.77 316.614C1283.7 313.162 1286.49 314.088 1289.58 314.088H1325.93C1328.76 314.088 1331.07 316.725 1331.07 319.954C1331.07 321.628 1330.45 323.146 1329.45 324.215L1319.08 346.05L1290.18 347.601H1290.19Z" fill="#DB4E1D"/>
<path fill-rule="evenodd" clip-rule="evenodd" d="M1294.96 373.344L1248.7 386.487C1245.62 387.363 1243.31 385.816 1242.58 383.829C1241.8 381.698 1242.82 379.086 1245.86 377.856L1290.17 359.962C1295.43 357.84 1299.54 360.477 1300.57 364.117C1301.47 367.293 1300.25 371.842 1294.96 373.348V373.344Z" fill="#282636"/>
<path fill-rule="evenodd" clip-rule="evenodd" d="M1314.35 376.45L1276.77 385.063C1273.6 386.857 1270.64 385.767 1269.31 383.768C1267.88 381.629 1268.3 378.469 1271.34 376.297L1305.51 362.961C1310.75 359.21 1315.98 361.028 1318.09 364.763C1319.93 368.025 1319.8 373.373 1314.35 376.45Z" fill="#282636"/>
<path d="M1289.39 345.478H1319.38V368.77H1289.39V345.478Z" fill="#282636"/>
<path fill-rule="evenodd" clip-rule="evenodd" d="M1310.4 314.063H1297.27C1298.74 316.383 1301.13 317.893 1303.84 317.893C1306.54 317.893 1308.93 316.383 1310.41 314.063H1310.4Z" fill="#F9C9B3"/>
<path fill-rule="evenodd" clip-rule="evenodd" d="M1302.32 295.766L1301.12 289.694L1298.94 295.77L1302.32 295.766Z" fill="#F9C9B3"/>
<path fill-rule="evenodd" clip-rule="evenodd" d="M1250.68 385.392L1249.75 424.414H1249.76C1249.86 424.414 1249.84 428.367 1249.9 429.021C1249.94 429.416 1249.55 429.984 1249.05 429.984H1240.14C1238.59 430 1238.5 429.408 1240.59 429.037C1243.49 428.523 1246.68 427.162 1246.24 424.369H1246.26L1241.08 385.388C1240.57 381.554 1243 379.535 1245.81 379.703C1248.25 379.851 1250.77 381.674 1250.68 385.388V385.392Z" fill="#282636"/>
<path fill-rule="evenodd" clip-rule="evenodd" d="M1249.87 427.725C1249.87 428.326 1249.89 428.824 1249.91 429.021C1249.95 429.416 1249.55 429.984 1249.05 429.984H1240.14C1238.6 430 1238.5 429.408 1240.6 429.037C1241.94 428.799 1243.34 428.383 1244.41 427.725H1249.86H1249.87Z" fill="#DB4E1D"/>
<path d="M1284.99 425.204H1327.43V430H1284.99V425.204Z" fill="white"/>
<path fill-rule="evenodd" clip-rule="evenodd" d="M1327.1 319.826C1327.77 321.974 1326.57 324.281 1324.42 324.956L1286.3 336.918C1284.16 337.589 1281.86 336.383 1281.19 334.232C1280.52 332.085 1281.72 329.777 1283.87 329.102L1321.99 317.14C1324.13 316.47 1326.43 317.675 1327.1 319.826Z" fill="#F9C9B3"/>
<path fill-rule="evenodd" clip-rule="evenodd" d="M1329.44 319.094C1330.25 321.665 1328.8 324.429 1326.24 325.236L1310.34 330.225L1307.43 320.871L1323.32 315.881C1325.89 315.075 1328.64 316.523 1329.45 319.094H1329.44Z" fill="#DB4E1D"/>
<path fill-rule="evenodd" clip-rule="evenodd" d="M1280.71 332.949L1280.82 294.483L1282.24 293.466L1287.61 329.32C1289.07 332.862 1288.08 335.495 1286.13 336.47C1284.09 337.482 1280.7 336.445 1280.71 332.953L1280.71 332.949Z" fill="#F9C9B3"/>
<path fill-rule="evenodd" clip-rule="evenodd" d="M1305.13 290.468H1305.15V291.788C1305.33 292.989 1306.09 294.088 1307.59 294.252V290.468H1307.6C1307.6 288.069 1305.74 286.128 1303.44 286.128C1302.71 286.128 1301.99 286.35 1301.36 286.733C1301.61 287.531 1302.22 289.011 1303.48 289.011C1304.4 289.011 1305.04 289.637 1305.13 290.472L1305.13 290.468Z" fill="#001E60"/>
<path fill-rule="evenodd" clip-rule="evenodd" d="M1278.31 379.358L1276.96 423.677H1276.98C1277.08 423.677 1277.02 428.169 1277.08 428.914C1277.11 429.367 1276.7 430.004 1276.19 430L1267 429.91C1265.41 429.918 1265.32 429.243 1267.48 428.84C1270.47 428.285 1273.77 426.771 1273.35 423.591H1273.37L1268.41 379.259C1267.92 374.899 1270.45 372.628 1273.34 372.846C1275.86 373.039 1278.44 375.133 1278.31 379.35V379.358Z" fill="#282636"/>
<path fill-rule="evenodd" clip-rule="evenodd" d="M1277.05 427.437C1277.05 428.12 1277.06 428.688 1277.08 428.91C1277.12 429.362 1276.71 430 1276.19 429.996L1267 429.905C1265.41 429.914 1265.32 429.239 1267.48 428.836C1268.87 428.581 1270.31 428.116 1271.43 427.38L1277.05 427.433L1277.05 427.437Z" fill="#DB4E1D"/>
<path d="M1277.34 299.039C1290.41 296.922 1299.28 284.639 1297.16 271.604C1295.04 258.568 1282.73 249.715 1269.66 251.831C1256.59 253.947 1247.72 266.23 1249.84 279.266C1251.96 292.302 1264.27 301.155 1277.34 299.039Z" fill="#E9B317"/>
<path d="M1280.7 280.29L1283.46 283.08C1281.59 284.94 1279.03 286.103 1276.2 286.103C1271.77 286.103 1267.99 283.282 1266.56 279.33H1263.54V276.482H1265.96C1265.93 276.25 1265.93 275.987 1265.93 275.754C1265.93 275.491 1265.93 275.259 1265.96 274.999H1263.54V272.152H1266.56C1268.03 268.199 1271.8 265.378 1276.21 265.378C1279.03 265.378 1281.59 266.541 1283.46 268.401L1280.7 271.191C1279.55 270.029 1277.96 269.301 1276.21 269.301C1273.99 269.301 1272.03 270.433 1270.91 272.148H1277.1V274.996H1269.84C1269.84 275.259 1269.81 275.491 1269.81 275.751C1269.81 275.983 1269.81 276.246 1269.84 276.479H1277.1V279.326H1270.88C1272.03 281.041 1273.99 282.174 1276.21 282.174C1277.97 282.174 1279.55 281.446 1280.7 280.283L1280.7 280.29Z" fill="white"/>
</g>
<defs>
<clipPath id="clip0_1163_2460">
<rect width="134" height="29" fill="white" transform="translate(1272 74)"/>
</clipPath>
<clipPath id="clip1_1163_2460">
<rect width="184.41" height="199.59" fill="white" transform="translate(921 223)"/>
</clipPath>
<clipPath id="clip2_1163_2460">
<rect width="300" height="379" fill="white" transform="translate(1060 58)"/>
</clipPath>
<clipPath id="clip3_1163_2460">
<rect width="119" height="184" fill="white" transform="matrix(-1 0 0 1 1358 246)"/>
</clipPath>
</defs>
</svg>
