<svg width="1440" height="469" viewBox="0 0 1440 469" fill="none" xmlns="http://www.w3.org/2000/svg">
<g clip-path="url(#clip0_1163_2460)">
<path fill-rule="evenodd" clip-rule="evenodd" d="M1365.89 103H1341.01C1341.01 90.3552 1352.15 80.1101 1365.89 80.1101C1379.64 80.1101 1390.78 90.3644 1390.78 103H1365.89Z" fill="#8299C2"/>
<path fill-rule="evenodd" clip-rule="evenodd" d="M1387.02 103H1368.03C1368.03 93.3549 1376.53 85.5372 1387.02 85.5372C1397.5 85.5372 1406 93.3549 1406 103H1387.02Z" fill="#8299C2"/>
<path fill-rule="evenodd" clip-rule="evenodd" d="M1286.64 103H1272C1272 95.5608 1278.56 89.5337 1286.64 89.5337C1294.72 89.5337 1301.28 95.5608 1301.28 103H1286.64Z" fill="#8299C2"/>
<path fill-rule="evenodd" clip-rule="evenodd" d="M1328.49 103H1296.96C1296.96 86.9863 1311.07 74 1328.49 74C1345.91 74 1360.02 86.9863 1360.02 103H1328.49Z" fill="#04315B"/>
</g>
<g clip-path="url(#clip1_1163_2460)">
<path d="M925.82 224V417.77H1104.41" stroke="white" stroke-width="0.57" stroke-miterlimit="22.93"/>
<path d="M926.441 224.48L930.241 230.34L928.991 231.15L926.561 227.4V417.03H1101.01L1097.26 414.59L1098.07 413.35L1103.93 417.15L1104.89 417.77L1103.93 418.39L1098.07 422.19L1097.66 421.57L1097.26 420.95L1101.02 418.51H925.821H925.081V417.77V227.4L922.641 231.15L922.021 230.75L921.391 230.34L925.191 224.48L925.821 223.52L926.441 224.48Z" fill="white" stroke="white" stroke-width="0.57" stroke-miterlimit="22.93"/>
<path d="M952.762 379.37L972.522 353.6H991.752L1016.06 321.89H1039.3L1090.39 255.24" stroke="white" stroke-width="4.25" stroke-miterlimit="22.93"/>
<path d="M953.16 384.09V396.61" stroke="white" stroke-width="2.83" stroke-miterlimit="22.93"/>
<path d="M973.762 359.86V396.61" stroke="white" stroke-width="2.83" stroke-miterlimit="22.93"/>
<path d="M992.328 358.65V396.61" stroke="white" stroke-width="2.83" stroke-miterlimit="22.93"/>
<path d="M1017.78 327.15V396.61" stroke="white" stroke-width="2.83" stroke-miterlimit="22.93"/>
<path d="M1039.99 327.15V396.61" stroke="white" stroke-width="2.83" stroke-miterlimit="22.93"/>
<path d="M1086.03 271.41V396.61" stroke="white" stroke-width="2.83" stroke-miterlimit="22.93"/>
</g>
<g clip-path="url(#clip2_1163_2460)">
<path d="M1329.63 171.015H1141.84V368.003H1329.63V171.015Z" fill="#282636"/>
<path fill-rule="evenodd" clip-rule="evenodd" d="M1134.91 391.005H1329.63V368.014H1232.27H1134.91V391.005Z" fill="#282636"/>
<path fill-rule="evenodd" clip-rule="evenodd" d="M1121.02 391.005H1343.51V414.008H1232.26H1121.02V391.005Z" fill="#282636"/>
<path fill-rule="evenodd" clip-rule="evenodd" d="M1104.54 437H1360V414.008H1232.26H1104.54V437Z" fill="#282636"/>
<path fill-rule="evenodd" clip-rule="evenodd" d="M1139.83 148.024L1187.74 58H1237.19L1334.55 148.024V171.015H1237.19H1139.83V148.024Z" fill="#8299C2"/>
<path fill-rule="evenodd" clip-rule="evenodd" d="M1090.37 148.024L1187.73 58L1285.09 148.024V171.015H1187.73H1090.37V148.024Z" fill="#C2CDE1"/>
<path d="M1118.04 171.015H1103.75V368.003H1118.04V171.015Z" fill="#C2CDE1"/>
<path d="M1156.12 171.015H1141.84V368.003H1156.12V171.015Z" fill="#C2CDE1"/>
<path d="M1194.2 171.015H1179.91V368.003H1194.2V171.015Z" fill="#C2CDE1"/>
<path d="M1232.27 171.015H1217.99V368.003H1232.27V171.015Z" fill="#C2CDE1"/>
<path d="M1270.35 171.015H1256.06V368.003H1270.35V171.015Z" fill="#C2CDE1"/>
<path fill-rule="evenodd" clip-rule="evenodd" d="M1090.37 391.005H1285.09V368.014H1187.73H1090.37V391.005Z" fill="#C2CDE1"/>
<path fill-rule="evenodd" clip-rule="evenodd" d="M1076.48 391.005H1298.98V414.008H1187.74H1076.48V391.005Z" fill="#C2CDE1"/>
<path fill-rule="evenodd" clip-rule="evenodd" d="M1060 437H1315.46V414.008H1187.74H1060V437Z" fill="#C2CDE1"/>
<path d="M1086.75 217.335C1071.97 213.862 1062.81 199.07 1066.29 184.297C1069.76 169.524 1084.55 160.363 1099.33 163.836C1114.1 167.31 1123.26 182.101 1119.79 196.875C1116.32 211.648 1101.52 220.809 1086.75 217.335Z" fill="#E9B317"/>
<path d="M1096.23 191.014C1096.62 191.607 1096.93 192.266 1097.17 192.992C1097.42 193.717 1097.52 194.531 1097.49 195.443C1097.47 196.354 1097.24 197.195 1096.84 197.978C1096.35 198.925 1095.62 199.708 1094.65 200.332C1093.68 200.951 1092.62 201.301 1091.49 201.376H1091.38L1091.36 202.991L1090.05 202.964L1090.07 201.292C1089.59 201.216 1089.08 201.088 1088.54 200.902C1086.18 200.048 1084.19 198.442 1082.55 196.089L1084.86 194.474C1086.17 196.35 1087.7 197.611 1089.48 198.261C1089.7 198.336 1089.92 198.398 1090.13 198.456L1090.24 190.302C1089.38 189.948 1088.66 189.541 1088.06 189.076C1087.47 188.612 1087 187.961 1086.64 187.13C1086.03 185.643 1086.03 184.263 1086.64 182.984C1087 182.241 1087.51 181.63 1088.19 181.148C1088.86 180.666 1089.6 180.387 1090.4 180.312L1090.43 178.697H1091.74L1091.71 180.365C1092.36 180.493 1092.97 180.754 1093.53 181.144C1094.1 181.533 1094.58 182.029 1094.98 182.635C1095.38 183.236 1095.65 183.9 1095.8 184.626L1093.05 185.183C1092.86 184.294 1092.4 183.661 1091.68 183.289L1091.6 187.829C1091.6 187.829 1091.69 187.855 1091.82 187.913C1092.3 188.099 1092.68 188.258 1092.96 188.386C1093.24 188.514 1093.6 188.705 1094.03 188.957C1094.47 189.209 1094.87 189.506 1095.23 189.846C1095.59 190.191 1095.92 190.585 1096.22 191.027L1096.23 191.014ZM1090.3 187.201L1090.36 183.166C1089.82 183.334 1089.43 183.666 1089.19 184.17C1088.93 184.71 1088.94 185.338 1089.24 186.063C1089.45 186.528 1089.8 186.909 1090.3 187.205L1090.3 187.201ZM1094.36 196.69C1094.66 195.965 1094.75 195.248 1094.64 194.531C1094.53 193.815 1094.28 193.164 1093.89 192.567C1093.41 191.842 1092.63 191.258 1091.55 190.815L1091.44 198.553C1092.01 198.478 1092.58 198.283 1093.12 197.969C1093.67 197.655 1094.09 197.226 1094.36 196.69Z" fill="#E6E6E6"/>
</g>
<path fill-rule="evenodd" clip-rule="evenodd" d="M1440 469V424.156C1361.76 415.053 1226.29 414.834 1145.14 422.364C1056.43 430.59 987.511 428.901 897.336 423.628C576.483 404.867 496.286 441.034 294.861 422.364C213.706 414.834 78.2434 415.053 0 424.156V469H1440Z" fill="#EDE7E4"/>
<g clip-path="url(#clip3_1163_2460)">
<path d="M1303.82 399.547H1308.6V430H1303.82V399.547Z" fill="white"/>
<path d="M1304.03 396.828C1278.73 396.828 1258.22 376.256 1258.22 350.88C1258.22 325.503 1278.73 304.931 1304.03 304.931C1329.32 304.931 1349.83 325.503 1349.83 350.88C1349.83 376.256 1329.32 396.828 1304.03 396.828Z" fill="#8299C2"/>
<path d="M1358 350.88C1358 365.828 1351.96 379.366 1342.19 389.165C1332.42 398.963 1318.93 405.022 1304.03 405.022C1289.12 405.022 1275.63 398.963 1265.86 389.165C1256.1 379.366 1250.06 365.832 1250.06 350.88H1266.39C1266.39 361.307 1270.6 370.744 1277.41 377.577C1284.23 384.409 1293.63 388.634 1304.03 388.634C1314.42 388.634 1323.83 384.409 1330.64 377.577C1337.45 370.744 1341.66 361.307 1341.66 350.88H1358Z" fill="white"/>
<path fill-rule="evenodd" clip-rule="evenodd" d="M1304.03 287.296C1302.21 287.296 1300.71 288.793 1300.71 290.628V314.433H1306.89V290.163C1306.89 288.588 1305.61 287.296 1304.03 287.296Z" fill="#F9C9B3"/>
<path d="M1246.52 314.845H1286.46C1288.72 314.845 1290.54 316.677 1290.54 318.938C1290.54 321.198 1288.72 323.031 1286.46 323.031H1246.52C1244.27 323.031 1242.44 321.198 1242.44 318.938C1242.44 316.677 1244.27 314.845 1246.52 314.845Z" fill="#F9C9B3"/>
<path fill-rule="evenodd" clip-rule="evenodd" d="M1249.96 318.099C1250.29 310.344 1249.96 301.455 1249.84 293.849L1254.74 283.726L1253.09 283.15L1246.79 291.595C1246.53 292.088 1246.38 293.043 1246.21 293.89L1241.71 316.284C1240.96 319.999 1242.48 322.212 1244.65 322.607C1246.9 323.018 1249.82 321.468 1249.96 318.099Z" fill="#F9C9B3"/>
<path fill-rule="evenodd" clip-rule="evenodd" d="M1290.54 318.938C1290.54 316.243 1288.35 314.038 1285.66 314.038H1269V323.841H1285.66C1288.35 323.841 1290.54 321.636 1290.54 318.942V318.938Z" fill="#DB4E1D"/>
<path fill-rule="evenodd" clip-rule="evenodd" d="M1290.19 347.601L1282.77 327.103C1281.52 323.746 1279.69 320.316 1281.77 316.614C1283.7 313.162 1286.49 314.088 1289.58 314.088H1325.93C1328.76 314.088 1331.07 316.725 1331.07 319.954C1331.07 321.628 1330.45 323.146 1329.45 324.215L1319.08 346.05L1290.18 347.601H1290.19Z" fill="#DB4E1D"/>
<path fill-rule="evenodd" clip-rule="evenodd" d="M1294.96 373.344L1248.7 386.487C1245.62 387.363 1243.31 385.816 1242.58 383.829C1241.8 381.698 1242.82 379.086 1245.86 377.856L1290.17 359.962C1295.43 357.84 1299.54 360.477 1300.57 364.117C1301.47 367.293 1300.25 371.842 1294.96 373.348V373.344Z" fill="#282636"/>
<path fill-rule="evenodd" clip-rule="evenodd" d="M1314.35 376.45L1276.77 385.063C1273.6 386.857 1270.64 385.767 1269.31 383.768C1267.88 381.629 1268.3 378.469 1271.34 376.297L1305.51 362.961C1310.75 359.21 1315.98 361.028 1318.09 364.763C1319.93 368.025 1319.8 373.373 1314.35 376.45Z" fill="#282636"/>
<path d="M1289.39 345.478H1319.38V368.77H1289.39V345.478Z" fill="#282636"/>
<path fill-rule="evenodd" clip-rule="evenodd" d="M1310.4 314.063H1297.27C1298.74 316.383 1301.13 317.893 1303.84 317.893C1306.54 317.893 1308.93 316.383 1310.41 314.063H1310.4Z" fill="#F9C9B3"/>
<path fill-rule="evenodd" clip-rule="evenodd" d="M1302.32 295.766L1301.12 289.694L1298.94 295.77L1302.32 295.766Z" fill="#F9C9B3"/>
<path fill-rule="evenodd" clip-rule="evenodd" d="M1250.68 385.392L1249.75 424.414H1249.76C1249.86 424.414 1249.84 428.367 1249.9 429.021C1249.94 429.416 1249.55 429.984 1249.05 429.984H1240.14C1238.59 430 1238.5 429.408 1240.59 429.037C1243.49 428.523 1246.68 427.162 1246.24 424.369H1246.26L1241.08 385.388C1240.57 381.554 1243 379.535 1245.81 379.703C1248.25 379.851 1250.77 381.674 1250.68 385.388V385.392Z" fill="#282636"/>
<path fill-rule="evenodd" clip-rule="evenodd" d="M1249.87 427.725C1249.87 428.326 1249.89 428.824 1249.91 429.021C1249.95 429.416 1249.55 429.984 1249.05 429.984H1240.14C1238.6 430 1238.5 429.408 1240.6 429.037C1241.94 428.799 1243.34 428.383 1244.41 427.725H1249.86H1249.87Z" fill="#DB4E1D"/>
<path d="M1284.99 425.204H1327.43V430H1284.99V425.204Z" fill="white"/>
<path fill-rule="evenodd" clip-rule="evenodd" d="M1327.1 319.826C1327.77 321.974 1326.57 324.281 1324.42 324.956L1286.3 336.918C1284.16 337.589 1281.86 336.383 1281.19 334.232C1280.52 332.085 1281.72 329.777 1283.87 329.102L1321.99 317.14C1324.13 316.47 1326.43 317.675 1327.1 319.826Z" fill="#F9C9B3"/>
<path fill-rule="evenodd" clip-rule="evenodd" d="M1329.44 319.094C1330.25 321.665 1328.8 324.429 1326.24 325.236L1310.34 330.225L1307.43 320.871L1323.32 315.881C1325.89 315.075 1328.64 316.523 1329.45 319.094H1329.44Z" fill="#DB4E1D"/>
<path fill-rule="evenodd" clip-rule="evenodd" d="M1280.71 332.949L1280.82 294.483L1282.24 293.466L1287.61 329.32C1289.07 332.862 1288.08 335.495 1286.13 336.47C1284.09 337.482 1280.7 336.445 1280.71 332.953L1280.71 332.949Z" fill="#F9C9B3"/>
<path fill-rule="evenodd" clip-rule="evenodd" d="M1305.13 290.468H1305.15V291.788C1305.33 292.989 1306.09 294.088 1307.59 294.252V290.468H1307.6C1307.6 288.069 1305.74 286.128 1303.44 286.128C1302.71 286.128 1301.99 286.35 1301.36 286.733C1301.61 287.531 1302.22 289.011 1303.48 289.011C1304.4 289.011 1305.04 289.637 1305.13 290.472L1305.13 290.468Z" fill="#001E60"/>
<path fill-rule="evenodd" clip-rule="evenodd" d="M1278.31 379.358L1276.96 423.677H1276.98C1277.08 423.677 1277.02 428.169 1277.08 428.914C1277.11 429.367 1276.7 430.004 1276.19 430L1267 429.91C1265.41 429.918 1265.32 429.243 1267.48 428.84C1270.47 428.285 1273.77 426.771 1273.35 423.591H1273.37L1268.41 379.259C1267.92 374.899 1270.45 372.628 1273.34 372.846C1275.86 373.039 1278.44 375.133 1278.31 379.35V379.358Z" fill="#282636"/>
<path fill-rule="evenodd" clip-rule="evenodd" d="M1277.05 427.437C1277.05 428.12 1277.06 428.688 1277.08 428.91C1277.12 429.362 1276.71 430 1276.19 429.996L1267 429.905C1265.41 429.914 1265.32 429.239 1267.48 428.836C1268.87 428.581 1270.31 428.116 1271.43 427.38L1277.05 427.433L1277.05 427.437Z" fill="#DB4E1D"/>
<path d="M1266.24 296.422C1252.55 293.193 1244.06 279.44 1247.28 265.704C1250.5 251.968 1264.21 243.45 1277.9 246.68C1291.59 249.909 1300.08 263.662 1296.86 277.398C1293.64 291.134 1279.93 299.652 1266.24 296.422Z" fill="#E9B317"/>
<path d="M1275.03 271.949C1275.39 272.5 1275.68 273.113 1275.9 273.788C1276.13 274.463 1276.23 275.219 1276.2 276.067C1276.17 276.914 1275.97 277.696 1275.59 278.424C1275.15 279.304 1274.47 280.032 1273.57 280.612C1272.66 281.188 1271.69 281.513 1270.64 281.583H1270.54L1270.51 283.085L1269.3 283.06L1269.32 281.505C1268.88 281.435 1268.4 281.316 1267.9 281.143C1265.72 280.349 1263.87 278.856 1262.36 276.667L1264.5 275.166C1265.7 276.91 1267.13 278.082 1268.78 278.687C1268.98 278.757 1269.18 278.815 1269.37 278.868L1269.47 271.287C1268.68 270.958 1268.01 270.579 1267.46 270.147C1266.91 269.715 1266.47 269.111 1266.14 268.337C1265.58 266.955 1265.58 265.672 1266.14 264.483C1266.47 263.792 1266.95 263.224 1267.58 262.776C1268.2 262.328 1268.89 262.068 1269.63 261.998L1269.65 260.497H1270.86L1270.84 262.048C1271.44 262.167 1272 262.41 1272.53 262.772C1273.05 263.134 1273.5 263.594 1273.87 264.158C1274.24 264.718 1274.49 265.335 1274.63 266.009L1272.08 266.527C1271.91 265.701 1271.48 265.112 1270.82 264.767L1270.74 268.987C1270.74 268.987 1270.82 269.012 1270.94 269.066C1271.39 269.238 1271.74 269.386 1272 269.506C1272.26 269.625 1272.59 269.802 1272.99 270.036C1273.4 270.271 1273.77 270.546 1274.1 270.863C1274.44 271.184 1274.74 271.55 1275.02 271.961L1275.03 271.949ZM1269.53 268.403L1269.58 264.652C1269.08 264.808 1268.72 265.117 1268.5 265.585C1268.26 266.087 1268.28 266.671 1268.56 267.346C1268.74 267.778 1269.07 268.132 1269.54 268.407L1269.53 268.403ZM1273.3 277.227C1273.57 276.552 1273.66 275.886 1273.56 275.219C1273.46 274.553 1273.22 273.948 1272.86 273.393C1272.41 272.718 1271.69 272.175 1270.69 271.764L1270.59 278.959C1271.12 278.889 1271.64 278.708 1272.15 278.416C1272.66 278.124 1273.04 277.725 1273.3 277.227Z" fill="#E6E6E6"/>
</g>
<defs>
<clipPath id="clip0_1163_2460">
<rect width="134" height="29" fill="white" transform="translate(1272 74)"/>
</clipPath>
<clipPath id="clip1_1163_2460">
<rect width="184.41" height="199.59" fill="white" transform="translate(921 223)"/>
</clipPath>
<clipPath id="clip2_1163_2460">
<rect width="300" height="379" fill="white" transform="translate(1060 58)"/>
</clipPath>
<clipPath id="clip3_1163_2460">
<rect width="119" height="184" fill="white" transform="matrix(-1 0 0 1 1358 246)"/>
</clipPath>
</defs>
</svg>
