<svg width="491" height="430" viewBox="0 0 491 430" fill="none" xmlns="http://www.w3.org/2000/svg">
<g clip-path="url(#clip0_1571_258)">
<path d="M432.629 69.3734H14.8789V298.707H432.629V69.3734Z" fill="#C2CDE1"/>
<path d="M432.629 298.707H14.8789V366.36H432.629V298.707Z" fill="#04315B"/>
<path fill-rule="evenodd" clip-rule="evenodd" d="M319.878 110.642C331.722 124.032 348.867 132.44 367.939 132.44C403.666 132.44 432.629 102.92 432.629 66.5067C432.629 30.0938 403.666 0.573334 367.939 0.573334C348.867 0.573334 331.722 8.98139 319.878 22.371C308.034 8.98139 290.888 0.573334 271.816 0.573334C252.744 0.573334 235.598 8.98139 223.754 22.371C211.91 8.98139 194.765 0.573334 175.692 0.573334C156.62 0.573334 139.475 8.98139 127.631 22.371C115.787 8.98139 98.6411 0.573334 79.569 0.573334C43.8427 0.573334 14.8789 30.0938 14.8789 66.5067C14.8789 102.92 43.8427 132.44 79.569 132.44C98.6411 132.44 115.787 124.032 127.631 110.642C139.475 124.032 156.62 132.44 175.692 132.44C194.765 132.44 211.91 124.032 223.754 110.642C235.598 124.032 252.744 132.44 271.816 132.44C290.888 132.44 308.034 124.032 319.878 110.642Z" fill="#C2CDE1"/>
<path fill-rule="evenodd" clip-rule="evenodd" d="M319.878 408.965C331.722 422.238 348.867 430.573 367.939 430.573C403.666 430.573 432.629 401.31 432.629 365.213C432.629 329.117 403.666 299.853 367.939 299.853C348.867 299.853 331.722 308.188 319.878 321.461C308.034 308.188 290.888 299.853 271.816 299.853C252.744 299.853 235.598 308.188 223.754 321.461C211.91 308.188 194.765 299.853 175.692 299.853C156.62 299.853 139.475 308.188 127.631 321.461C115.787 308.188 98.6411 299.853 79.569 299.853C43.8427 299.853 14.8789 329.117 14.8789 365.213C14.8789 401.31 43.8427 430.573 79.569 430.573C98.6411 430.573 115.787 422.225 127.631 408.965C139.475 422.238 156.62 430.573 175.692 430.573C194.765 430.573 211.91 422.225 223.754 408.965C235.598 422.238 252.744 430.573 271.816 430.573C290.888 430.573 308.034 422.225 319.878 408.965Z" fill="#04315B"/>
<path fill-rule="evenodd" clip-rule="evenodd" d="M204.795 65.7598H226.373C226.373 54.7212 216.716 45.7731 204.795 45.7731C192.873 45.7731 183.217 54.7212 183.217 65.7598H204.795Z" fill="#758AAF"/>
<path fill-rule="evenodd" clip-rule="evenodd" d="M186.476 65.7591H202.939C202.939 57.3336 195.573 50.5141 186.476 50.5141C177.379 50.5141 170.013 57.3463 170.013 65.7591H186.476Z" fill="#758AAF"/>
<path fill-rule="evenodd" clip-rule="evenodd" d="M273.501 65.7597H286.198C286.198 59.2589 280.511 53.9946 273.501 53.9946C266.491 53.9946 260.804 59.2589 260.804 65.7597H273.501Z" fill="#758AAF"/>
<path fill-rule="evenodd" clip-rule="evenodd" d="M237.213 65.7595H264.542C264.542 51.7764 252.303 40.4319 237.213 40.4319C222.124 40.4319 209.885 51.7764 209.885 65.7595H237.213Z" fill="#8299C2"/>
<path fill-rule="evenodd" clip-rule="evenodd" d="M325.978 110.177H347.556C347.556 99.1388 337.9 90.1907 325.978 90.1907C314.057 90.1907 304.4 99.1388 304.4 110.177H325.978Z" fill="#758AAF"/>
<path fill-rule="evenodd" clip-rule="evenodd" d="M307.66 110.177H324.123C324.123 101.751 316.756 94.9317 307.66 94.9317C298.563 94.9317 291.196 101.764 291.196 110.177H307.66Z" fill="#758AAF"/>
<path fill-rule="evenodd" clip-rule="evenodd" d="M394.685 110.177H407.382C407.382 103.677 401.695 98.4122 394.685 98.4122C387.674 98.4122 381.987 103.677 381.987 110.177H394.685Z" fill="#758AAF"/>
<path fill-rule="evenodd" clip-rule="evenodd" d="M358.397 110.177H385.726C385.726 96.194 373.486 84.8495 358.397 84.8495C343.308 84.8495 331.068 96.194 331.068 110.177H358.397Z" fill="#8299C2"/>
<path fill-rule="evenodd" clip-rule="evenodd" d="M302.822 235.996C340.008 235.996 370.153 265.992 370.153 302.994C370.153 315.614 366.645 327.414 360.549 337.492H245.095C238.999 327.414 235.491 315.614 235.491 302.994C235.491 265.992 265.636 235.996 302.822 235.996Z" fill="#8299C2"/>
<path fill-rule="evenodd" clip-rule="evenodd" d="M295.658 200.957C296.903 199.45 299.377 200.22 300.683 201.089C304.672 203.746 308.615 207 313.323 215.865L311.282 217.43C309.002 213.763 302.206 209.284 297.622 206.751C294.483 205.443 294.151 202.794 295.666 200.965L295.658 200.957Z" fill="#F9C9B3"/>
<path fill-rule="evenodd" clip-rule="evenodd" d="M247.205 183.887C248.65 180.81 252.429 179.441 255.58 180.856L298.518 200.166C298.955 200.374 299.36 200.583 299.733 200.784L297.145 206.29C296.978 206.244 296.812 206.197 296.653 206.136L250.317 192.046C246.999 191.041 245.76 186.965 247.205 183.887Z" fill="#F9C9B3"/>
<path fill-rule="evenodd" clip-rule="evenodd" d="M318.207 206.551C317.862 204.763 315.002 203.968 313.223 203.887C307.791 203.637 302.047 203.843 292.32 207.736L293.41 210.003C297.759 208.575 306.992 209.039 312.941 209.716C316.765 210.482 318.623 208.73 318.207 206.559V206.551Z" fill="#F9C9B3"/>
<path fill-rule="evenodd" clip-rule="evenodd" d="M375.027 220.557C375.573 216.989 372.761 213.511 368.785 212.859L314.634 204.005C314.072 203.922 313.549 203.864 313.059 203.815L312.087 210.208C312.28 210.265 312.473 210.323 312.666 210.373L366.817 225.851C370.697 226.958 374.488 224.125 375.035 220.557H375.027Z" fill="#F9C9B3"/>
<path fill-rule="evenodd" clip-rule="evenodd" d="M316.97 213.131C316.614 215.147 314.693 216.497 312.672 216.133C310.66 215.777 309.313 213.851 309.676 211.827C310.032 209.81 311.953 208.461 313.974 208.825C315.986 209.181 317.333 211.107 316.97 213.131Z" fill="#04315B"/>
<path fill-rule="evenodd" clip-rule="evenodd" d="M249.299 253.599L246.614 186.681C246.481 183.301 249.095 180.429 252.432 180.302C255.769 180.175 258.611 182.839 258.745 186.212L261.43 253.13C261.563 256.51 258.949 259.382 255.612 259.509C252.275 259.636 249.433 256.972 249.299 253.599Z" fill="#F9C9B3"/>
<path fill-rule="evenodd" clip-rule="evenodd" d="M249.325 253.902L247.845 217.43L259.972 217.508L261.43 253.447C261.563 256.655 258.946 259.383 255.616 259.509C252.287 259.634 249.459 257.109 249.325 253.902Z" fill="#034585"/>
<path fill-rule="evenodd" clip-rule="evenodd" d="M255.257 300.359H312.087V321.137C312.087 327.988 309.173 333.505 304.666 337.492H262.67C258.172 333.505 255.257 327.988 255.257 321.137V300.359Z" fill="#001E60"/>
<path fill-rule="evenodd" clip-rule="evenodd" d="M254.436 299.992L249.133 257.003C248.713 253.599 250.843 249.145 253.985 246.784C256.922 244.573 261.014 244.305 264.102 245L323.597 258.353C330.317 259.861 333.001 263.391 333.088 267.576C333.175 271.793 329.589 275.97 326.906 281.032L310.108 312.737L254.436 299.999V299.992Z" fill="#034585"/>
<path fill-rule="evenodd" clip-rule="evenodd" d="M306.884 208.909C309.653 209.577 311.375 212.4 310.709 215.176L301.306 254.299C300.639 257.074 297.822 258.8 295.053 258.132C292.284 257.464 290.562 254.641 291.228 251.866L300.631 212.742C301.298 209.967 304.115 208.241 306.884 208.909Z" fill="#F9C9B3"/>
<path fill-rule="evenodd" clip-rule="evenodd" d="M305.867 211.397L302.204 208.609C305.268 206.49 309.26 207.583 311.132 211.041C313.005 214.507 312.039 219.024 308.983 221.143C305.71 218.465 304.361 214.355 305.859 211.397H305.867Z" fill="#001E60"/>
<path fill-rule="evenodd" clip-rule="evenodd" d="M299.727 221.702L301.598 211.241L294.792 220.515L299.727 221.702Z" fill="#F9C9B3"/>
<path fill-rule="evenodd" clip-rule="evenodd" d="M268.538 338.36L180.767 287.185C174.695 283.646 172.936 278.045 175.051 274.603C177.122 271.227 181.398 269.039 189.132 272.785L282.232 317.016C289.603 320.585 290.107 327.707 287.695 333.53C286.938 335.348 285.891 337.032 284.555 338.375H268.538V338.36Z" fill="#A3A4A5"/>
<path fill-rule="evenodd" clip-rule="evenodd" d="M245.787 338.361L172.616 320.675C165.869 319.042 162.625 314.25 163.65 310.392C164.652 306.616 168.073 303.329 176.453 304.687L277.035 320.178C285.015 321.468 287.516 328.064 286.878 334.251C286.729 335.675 286.41 337.07 285.898 338.368H245.787V338.361Z" fill="#001E60"/>
<path fill-rule="evenodd" clip-rule="evenodd" d="M313.459 273.803L355.945 224.163C357.994 221.767 361.638 221.485 364.036 223.533C366.433 225.58 366.715 229.223 364.666 231.619L322.18 281.258C320.132 283.655 316.487 283.937 314.09 281.889C311.692 279.841 311.41 276.199 313.459 273.803Z" fill="#F9C9B3"/>
<path fill-rule="evenodd" clip-rule="evenodd" d="M313.459 273.802L336.788 246.553L345.168 254.41L322.18 281.266C320.132 283.662 316.487 283.944 314.09 281.896C311.692 279.849 311.41 276.206 313.459 273.81V273.802Z" fill="#034585"/>
<path fill-rule="evenodd" clip-rule="evenodd" d="M93.2671 280.984C92.4581 283.15 89.6227 282.467 88.3683 281.97C87.1139 281.473 88.1679 281.889 88.0714 281.844C86.8318 281.325 82.653 279.589 82.0592 279.352C80.6786 278.721 80.3297 277.897 80.6638 276.94L87.5815 258.527L88.4871 258.883C87.4108 263.245 84.3008 269.863 89.8973 275.664C90.9884 276.8 94.8259 276.829 93.2671 280.991V280.984Z" fill="#F9C9B3"/>
<path fill-rule="evenodd" clip-rule="evenodd" d="M172.079 317.787L85.9038 280.938L88.6056 274.091C89.0509 274.632 89.8006 275.626 92.161 276.353L177.371 302.579C188.586 306.029 183.613 322.721 172.079 317.787Z" fill="#A3A4A5"/>
<path d="M428.051 298.707H14.8784V337.693H428.051V298.707Z" fill="#8299C2"/>
<path fill-rule="evenodd" clip-rule="evenodd" d="M97.4325 295.598C97.8482 297.868 95.0647 298.736 93.7361 298.959C92.4075 299.174 93.5208 298.989 93.4169 299.003C92.0883 299.196 87.6125 299.849 86.9816 299.946C85.4749 300.116 84.7549 299.582 84.5471 298.588L81.0288 279.232L81.9863 279.076C83.3001 283.372 84.0349 290.65 91.8137 292.757C93.3353 293.165 96.6457 291.229 97.4399 295.598H97.4325Z" fill="#F9C9B3"/>
<path fill-rule="evenodd" clip-rule="evenodd" d="M183.981 286.762L91.1033 299.33L89.9009 292.067C90.5615 292.304 91.7194 292.772 94.1168 292.185L180.715 270.997C192.116 268.208 196.414 285.086 183.981 286.762Z" fill="#A3A4A5"/>
<path fill-rule="evenodd" clip-rule="evenodd" d="M93.1353 203.198H180.335L195.424 266.881H108.225L93.1353 203.198Z" fill="#C2CDE1"/>
<path fill-rule="evenodd" clip-rule="evenodd" d="M184.009 304.383H197.132V327.04H184.009C183.438 327.04 182.97 326.305 182.97 325.734V305.421C182.97 304.85 183.438 304.383 184.009 304.383Z" fill="#F7F7EF"/>
<path fill-rule="evenodd" clip-rule="evenodd" d="M184.275 324.54H197.138V327.04H184.275C182.531 327.04 182.531 324.54 184.275 324.54Z" fill="#034585"/>
<path fill-rule="evenodd" clip-rule="evenodd" d="M213.24 311.357L208.646 313.59L213.24 315.823H239.493V313.59V311.357H213.24Z" fill="#9AAACF"/>
<path fill-rule="evenodd" clip-rule="evenodd" d="M237.257 313.59C237.257 314.821 238.259 315.823 239.491 315.823C240.723 315.823 241.725 314.821 241.725 313.59C241.725 312.358 240.723 311.357 239.491 311.357C238.259 311.357 237.257 312.358 237.257 313.59Z" fill="#001E60"/>
<path fill-rule="evenodd" clip-rule="evenodd" d="M213.238 315.748L208.636 313.589L213.238 311.431C212.258 311.69 211.583 312.58 211.583 313.589C211.583 314.598 212.266 315.489 213.238 315.748Z" fill="#001E60"/>
<path fill-rule="evenodd" clip-rule="evenodd" d="M392.767 310.688C390.288 312.921 388.736 316.148 388.736 319.746C388.736 326.482 394.199 331.943 400.939 331.943C407.679 331.943 413.141 326.482 413.141 319.746C413.141 316.148 411.583 312.921 409.111 310.688C411.59 308.455 413.141 305.227 413.141 301.629C413.141 298.031 411.583 294.804 409.111 292.571C411.59 290.338 413.141 287.111 413.141 283.513C413.141 279.914 411.583 276.687 409.111 274.454C411.59 272.221 413.141 268.994 413.141 265.396C413.141 258.66 407.679 253.199 400.939 253.199C394.199 253.199 388.736 258.66 388.736 265.396C388.736 268.994 390.295 272.221 392.767 274.454C390.288 276.687 388.736 279.914 388.736 283.513C388.736 287.111 390.295 290.338 392.767 292.571C390.288 294.804 388.736 298.031 388.736 301.629C388.736 305.227 390.295 308.455 392.767 310.688Z" fill="#04315B"/>
<path fill-rule="evenodd" clip-rule="evenodd" d="M298.137 195.942C299.718 195.942 301.01 194.651 301.01 193.071C301.01 191.49 299.718 190.2 298.137 190.2C296.556 190.2 295.265 191.49 295.265 193.071C295.265 194.651 296.556 195.942 298.137 195.942Z" fill="#C2CDE1"/>
<path d="M353.254 326.846C356.615 318.862 352.864 309.667 344.876 306.308C336.889 302.948 327.689 306.697 324.328 314.681C320.967 322.664 324.717 331.86 332.705 335.219C340.693 338.578 349.893 334.83 353.254 326.846Z" fill="#EDEDE8"/>
<path fill-rule="evenodd" clip-rule="evenodd" d="M338.766 299.464C333.986 299.464 330.082 303.374 330.082 308.144V320.512C330.082 325.289 333.993 329.192 338.766 329.192C343.546 329.192 347.45 325.282 347.45 320.512V308.144C347.45 303.367 343.538 299.464 338.766 299.464Z" fill="#9AAACF"/>
<path fill-rule="evenodd" clip-rule="evenodd" d="M338.827 299.5C334.055 299.5 330.195 303.365 330.195 308.128C330.195 312.891 334.062 316.756 338.827 316.756C343.592 316.756 347.46 312.891 347.46 308.128C347.46 303.365 343.592 299.5 338.827 299.5Z" fill="#EDEDE8"/>
<path fill-rule="evenodd" clip-rule="evenodd" d="M330.529 310.525C331.568 314.13 334.886 316.764 338.828 316.764C342.769 316.764 346.087 314.13 347.126 310.525C346.087 306.919 342.769 304.286 338.828 304.286C334.886 304.286 331.568 306.919 330.529 310.525Z" fill="#E65E30"/>
<path d="M340.354 278.816C341.133 279.722 341.668 280.567 342.002 281.376C342.351 282.199 342.492 282.986 342.492 283.735C342.492 284.618 342.299 285.441 342.002 286.228C341.712 286.992 341.334 287.726 340.955 288.453C340.22 289.833 339.582 291.347 339.471 292.779C339.367 294.151 339.76 295.472 341.089 296.562L340.755 297.215C339.196 295.932 338.736 294.359 338.862 292.712C338.988 291.124 339.671 289.5 340.45 288.023C340.822 287.326 341.185 286.621 341.453 285.901C341.712 285.204 341.883 284.484 341.883 283.743C341.883 283.112 341.757 282.452 341.46 281.739C341.156 281.005 340.666 280.226 339.946 279.395L340.361 278.824L340.354 278.816Z" fill="white"/>
<path d="M336.542 278.816C337.321 279.722 337.856 280.567 338.19 281.376C338.539 282.199 338.68 282.986 338.68 283.735C338.68 284.618 338.487 285.441 338.19 286.228C337.9 286.992 337.522 287.726 337.143 288.453C336.408 289.833 335.77 291.347 335.659 292.779C335.555 294.151 335.948 295.472 337.277 296.562L336.943 297.215C335.384 295.932 334.924 294.359 335.05 292.712C335.176 291.124 335.859 289.5 336.638 288.023C337.01 287.326 337.373 286.621 337.64 285.901C337.9 285.204 338.071 284.484 338.071 283.743C338.071 283.112 337.945 282.452 337.648 281.739C337.344 281.005 336.854 280.226 336.134 279.395L336.549 278.824L336.542 278.816Z" fill="white"/>
<path d="M307.667 136.094C330.357 132.413 345.765 111.044 342.082 88.3648C338.399 65.686 317.019 50.2855 294.329 53.9668C271.639 57.6481 256.231 79.0171 259.914 101.696C263.597 124.375 284.977 139.775 307.667 136.094Z" fill="#E9B317"/>
<path d="M313.495 103.477L318.294 108.331C315.042 111.567 310.597 113.59 305.693 113.59C297.996 113.59 291.44 108.683 288.942 101.806H283.696V96.8518H287.899C287.846 96.4473 287.846 95.99 287.846 95.5855C287.846 95.1282 287.846 94.7237 287.899 94.2723H283.696V89.3184H288.948C291.498 82.4415 298.048 77.5345 305.699 77.5345C310.597 77.5345 315.048 79.5571 318.3 82.7932L313.501 87.6475C311.501 85.6249 308.748 84.3586 305.699 84.3586C301.85 84.3586 298.448 86.3284 296.5 89.3125H307.252V94.2664H294.651C294.651 94.7237 294.599 95.1282 294.599 95.5796C294.599 95.9842 294.599 96.4415 294.651 96.846H307.252V101.8H296.454C298.454 104.784 301.856 106.754 305.705 106.754C308.753 106.754 311.507 105.487 313.506 103.465L313.495 103.477Z" fill="white"/>
<path d="M63.2767 184.506H59.4639V229.755H63.2767V184.506Z" fill="#04315B"/>
<path d="M78.8778 165.941H75.0649V230.045H78.8778V165.941Z" fill="#04315B"/>
<path d="M95.3206 146.796H91.5078V229.755H95.3206V146.796Z" fill="#04315B"/>
<path d="M111.35 127.941H107.537V229.754H111.35V127.941Z" fill="#04315B"/>
<path d="M127.376 109.087H123.563V229.754H127.376V109.087Z" fill="#04315B"/>
<path d="M143.405 90.2319H139.592V229.754H143.405V90.2319Z" fill="#E9B317"/>
<path d="M37.2929 78.3995L40.6114 83.5278L39.5288 84.2335L37.3988 80.9519V246.669H189.935L186.652 244.54L187.358 243.458L192.477 246.774L193.324 247.316L192.477 247.868L187.358 251.185L187.005 250.644L186.652 250.103L189.935 247.974H36.7515H36.1043V247.316V80.9519L33.9625 84.2335L33.4212 83.8807L32.8799 83.5278L36.1985 78.3995L36.7515 77.5644L37.2929 78.3995Z" fill="#04315B"/>
</g>
<defs>
<clipPath id="clip0_1571_258">
<rect width="491" height="430" fill="white"/>
</clipPath>
</defs>
</svg>
