<svg width="1440" height="487" viewBox="0 0 1440 487" fill="none" xmlns="http://www.w3.org/2000/svg">
<path d="M1025.3 373.532C1176.8 271.369 1171.02 67.7797 1435.35 244.713C1494.25 284.143 1534.81 294.202 1565 288.133V448H716C841.68 400.791 935.555 434.018 1025.3 373.532Z" fill="#EDE7E4"/>
<g clip-path="url(#clip0_1169_3583)">
<path fill-rule="evenodd" clip-rule="evenodd" d="M1083.21 137.699H1075.22H1023.61H1015.63L1003.92 171.375H1023.61H1075.22H1094.92L1083.21 137.699Z" fill="#FC5E48"/>
<path d="M1048.94 171.375H1049.9V422.581H1048.94V171.375Z" fill="#617084"/>
<path d="M1070.79 171.375H1071.74V194.192H1070.79V171.375Z" fill="#617084"/>
<path fill-rule="evenodd" clip-rule="evenodd" d="M1071.27 194.183C1069.98 194.183 1068.95 195.226 1068.95 196.503C1068.95 197.781 1069.99 198.823 1071.27 198.823C1072.55 198.823 1073.6 197.781 1073.6 196.503C1073.6 195.226 1072.55 194.183 1071.27 194.183Z" fill="#617084"/>
<path fill-rule="evenodd" clip-rule="evenodd" d="M1028.87 406.434C1032.07 406.471 1032.52 410.473 1032.46 412.333C1032.4 414.193 1032.45 412.634 1032.43 412.784C1032.35 414.644 1032.06 420.881 1032.03 421.764C1031.86 423.85 1030.95 424.695 1029.54 424.714L1002.31 424.404L1002.34 423.061C1008.53 422.403 1018.61 423.314 1023.52 413.319C1024.48 411.365 1022.71 406.368 1028.87 406.434Z" fill="#F9C9B3"/>
<path fill-rule="evenodd" clip-rule="evenodd" d="M1039.59 286.702L1032.28 416.015L1022.09 415.734C1022.58 414.897 1023.52 413.451 1023.35 410.05L1017.29 286.993C1016.49 270.798 1040.57 269.389 1039.58 286.702H1039.59Z" fill="#A3A4A5"/>
<path fill-rule="evenodd" clip-rule="evenodd" d="M938.046 378.234C931.422 384.199 927.264 392.822 927.264 402.432C927.264 420.421 941.866 435 959.883 435C977.901 435 992.503 420.421 992.503 402.432C992.503 392.832 988.335 384.199 981.721 378.234C988.344 372.269 992.503 363.645 992.503 354.036C992.503 344.426 988.335 335.802 981.721 329.837C988.344 323.872 992.503 315.249 992.503 305.639C992.503 296.03 988.335 287.406 981.721 281.441C988.344 275.476 992.503 266.853 992.503 257.243C992.503 239.254 977.901 224.675 959.883 224.675C941.866 224.675 927.264 239.254 927.264 257.243C927.264 266.843 931.422 275.476 938.046 281.441C931.422 287.406 927.264 296.03 927.264 305.639C927.264 315.249 931.422 323.872 938.046 329.837C931.422 335.802 927.264 344.426 927.264 354.036C927.264 363.645 931.422 372.269 938.046 378.234Z" fill="#F7F7EF"/>
<path d="M1112.17 218.964H1248.21C1271.13 218.964 1289.7 237.511 1289.7 260.39V309.838C1289.7 332.717 1271.13 351.265 1248.21 351.265H1112.17C1089.26 351.265 1070.68 332.717 1070.68 309.838V260.39C1070.68 237.511 1089.26 218.964 1112.17 218.964Z" fill="#FC5E48"/>
<path d="M1109.97 312.008H1239.96C1255.11 312.008 1267.39 324.272 1267.39 339.4V401.615C1267.39 416.743 1255.11 429.007 1239.96 429.007H1109.97C1094.82 429.007 1082.53 416.743 1082.53 401.615V339.4C1082.53 324.272 1094.82 312.008 1109.97 312.008Z" fill="#CC4D3B"/>
<path fill-rule="evenodd" clip-rule="evenodd" d="M1312 313.812V390.079H1267.39V313.812C1267.39 301.515 1277.38 291.549 1289.69 291.549C1302.01 291.549 1312 301.515 1312 313.812Z" fill="#FC5E48"/>
<path fill-rule="evenodd" clip-rule="evenodd" d="M1289.7 367.816C1302.02 367.816 1312 377.783 1312 390.079C1312 402.376 1302.02 412.342 1289.7 412.342C1277.39 412.342 1267.4 402.376 1267.4 390.079C1267.4 377.783 1277.39 367.816 1289.7 367.816Z" fill="#CC4D3B"/>
<path fill-rule="evenodd" clip-rule="evenodd" d="M1216.98 232.049L1147.54 216.859C1143.3 215.929 1140.35 211.665 1140.96 207.362C1141.58 203.069 1145.55 200.308 1149.79 201.238L1219.23 216.427C1223.47 217.357 1226.42 221.622 1225.81 225.924C1225.19 230.217 1221.22 232.979 1216.98 232.049Z" fill="#F9C9B3"/>
<path fill-rule="evenodd" clip-rule="evenodd" d="M1218.34 232.35L1178.72 223.679L1181.55 208.189L1220.6 216.728C1224.08 217.489 1226.43 221.631 1225.81 225.924C1225.19 230.217 1221.83 233.11 1218.35 232.35H1218.34Z" fill="#232017"/>
<path fill-rule="evenodd" clip-rule="evenodd" d="M1180.49 275.147L1231.43 328.879L1209.67 349.452C1197.7 360.762 1178.63 360.245 1167.31 348.296L1157.57 338.019C1146.24 326.071 1146.76 307.03 1158.72 295.72L1180.49 275.147Z" fill="#A3A4A5"/>
<path fill-rule="evenodd" clip-rule="evenodd" d="M1180.22 275.373C1199 253.288 1197.05 241.856 1205.49 225.079C1207.49 221.096 1213 217.808 1218.09 217.508C1222.86 217.226 1227.47 219.875 1230.31 222.834L1284.96 279.994C1291.13 286.448 1291.49 292.187 1288.56 296.79C1285.62 301.412 1279.33 304.897 1272.18 306.898C1259.89 310.336 1246.18 315.249 1231.18 329.114L1180.21 275.373H1180.22Z" fill="#232017"/>
<path fill-rule="evenodd" clip-rule="evenodd" d="M1251.01 199.256C1254.48 199.237 1257.33 202.055 1257.35 205.512L1257.61 254.256C1257.63 257.713 1254.81 260.559 1251.34 260.578C1247.88 260.596 1245.03 257.778 1245.01 254.321L1244.75 205.578C1244.73 202.121 1247.55 199.274 1251.01 199.256Z" fill="#F9C9B3"/>
<path fill-rule="evenodd" clip-rule="evenodd" d="M1251.19 202.628L1245.86 200.674C1249.1 197.396 1254.4 197.367 1257.68 200.608C1260.97 203.849 1261 209.138 1257.75 212.416C1252.93 210.472 1250.12 206.348 1251.19 202.619V202.628Z" fill="#232017"/>
<path fill-rule="evenodd" clip-rule="evenodd" d="M1246.18 216.784L1245.28 203.013L1239.57 216.812L1246.18 216.784Z" fill="#F9C9B3"/>
<path fill-rule="evenodd" clip-rule="evenodd" d="M1082.53 315.315V391.582H1037.93V315.315C1037.93 303.018 1047.91 293.052 1060.23 293.052C1072.54 293.052 1082.52 303.018 1082.52 315.315H1082.53Z" fill="#FC5E48"/>
<path d="M1059.32 413.832C1047.01 413.322 1037.45 402.949 1037.96 390.664C1038.47 378.379 1048.86 368.834 1061.17 369.345C1073.47 369.855 1083.03 380.228 1082.52 392.513C1082.01 404.798 1071.62 414.343 1059.32 413.832Z" fill="#CC4D3B"/>
<path fill-rule="evenodd" clip-rule="evenodd" d="M1288.54 298.218L1230.6 363.392C1227.8 366.539 1222.93 366.83 1219.78 364.031C1216.63 361.241 1216.33 356.375 1219.14 353.228L1277.08 288.054C1279.88 284.907 1284.75 284.616 1287.9 287.415C1291.06 290.205 1291.35 295.071 1288.54 298.218Z" fill="#F9C9B3"/>
<path fill-rule="evenodd" clip-rule="evenodd" d="M1288.54 298.218L1256.72 333.999L1245.73 323.318L1277.08 288.054C1279.87 284.907 1284.74 284.616 1287.9 287.415C1291.05 290.205 1291.34 295.071 1288.53 298.218H1288.54Z" fill="#232017"/>
<path fill-rule="evenodd" clip-rule="evenodd" d="M1190.52 397.059C1199.48 397.059 1206.76 404.32 1206.76 413.272C1206.76 422.225 1199.48 429.486 1190.52 429.486C1181.55 429.486 1174.28 422.225 1174.28 413.272C1174.28 404.32 1181.55 397.059 1190.52 397.059Z" fill="#617084"/>
<path fill-rule="evenodd" clip-rule="evenodd" d="M1190.53 391.263C1195.47 391.263 1199.52 395.302 1199.52 400.234V413.019C1199.52 417.95 1195.47 421.99 1190.53 421.99C1185.6 421.99 1181.55 417.95 1181.55 413.019V400.234C1181.55 395.302 1185.6 391.263 1190.53 391.263Z" fill="#B8C4D2"/>
<path fill-rule="evenodd" clip-rule="evenodd" d="M1190.47 391.3C1195.41 391.3 1199.41 395.293 1199.41 400.224C1199.41 405.156 1195.41 409.149 1190.47 409.149C1185.53 409.149 1181.53 405.156 1181.53 400.224C1181.53 395.293 1185.53 391.3 1190.47 391.3Z" fill="#EFE8D6"/>
<path fill-rule="evenodd" clip-rule="evenodd" d="M1199.06 402.695C1197.99 406.415 1194.54 409.139 1190.47 409.139C1186.4 409.139 1182.95 406.415 1181.88 402.695C1182.95 398.975 1186.4 396.251 1190.47 396.251C1194.54 396.251 1197.99 398.975 1199.06 402.695Z" fill="#FC5E48"/>
<path d="M1189.1 374.148C1187.55 375.566 1187 376.806 1187 377.933C1187 379.267 1187.76 380.451 1188.54 381.606C1190.1 383.936 1191.3 386.735 1188.31 388.67" stroke="white" stroke-width="1.12" stroke-miterlimit="22.93"/>
<path d="M1193.05 374.148C1191.49 375.566 1190.94 376.806 1190.94 377.933C1190.94 379.267 1191.7 380.451 1192.48 381.606C1194.04 383.936 1195.24 386.735 1192.26 388.67" stroke="white" stroke-width="1.12" stroke-miterlimit="22.93"/>
<path fill-rule="evenodd" clip-rule="evenodd" d="M1252.66 407.007L1256.84 409.026L1252.66 411.055H1228.81V409.026V407.007H1252.66Z" fill="#617084"/>
<path d="M1228.36 411.005C1227.27 410.748 1226.59 409.655 1226.85 408.564C1227.11 407.474 1228.2 406.798 1229.29 407.056C1230.39 407.313 1231.06 408.406 1230.8 409.497C1230.55 410.587 1229.45 411.263 1228.36 411.005Z" fill="#B8C4D2"/>
<path fill-rule="evenodd" clip-rule="evenodd" d="M1252.66 410.99L1256.84 409.026L1252.66 407.073V410.99Z" fill="#B8C4D2"/>
<path d="M1118.25 408.81H1151.41C1152.25 408.81 1152.93 409.487 1152.93 410.323V423.258C1152.93 424.093 1152.25 424.77 1151.41 424.77H1118.25C1117.41 424.77 1116.73 424.093 1116.73 423.258V410.323C1116.73 409.487 1117.41 408.81 1118.25 408.81Z" fill="#B8C4D2"/>
<path fill-rule="evenodd" clip-rule="evenodd" d="M1151.53 416.795C1151.53 417.528 1150.92 418.129 1150.19 418.129C1149.46 418.129 1148.85 417.528 1148.85 416.795C1148.85 416.062 1149.46 415.461 1150.19 415.461C1150.92 415.461 1151.53 416.062 1151.53 416.795Z" fill="#617084"/>
<path fill-rule="evenodd" clip-rule="evenodd" d="M1193.52 358.733L1060.34 388.943C1051.28 391 1044.52 387.186 1043.46 381.954C1042.42 376.834 1044.56 370.86 1055.42 367.506L1185.3 326.268C1195.64 323.065 1202.57 329.49 1205.49 337.277C1208.62 345.609 1206.96 355.557 1193.52 358.733Z" fill="#A3A4A5"/>
<path fill-rule="evenodd" clip-rule="evenodd" d="M1166.65 333.116L1034.12 296.913C1025.09 294.451 1020.92 287.866 1022.45 282.719C1023.96 277.674 1028.69 273.4 1039.92 275.551L1174.77 300.416C1185.46 302.474 1188.56 311.445 1187.46 319.739C1186.27 328.607 1180.08 336.648 1166.65 333.106V333.116Z" fill="#A3A4A5"/>
<path fill-rule="evenodd" clip-rule="evenodd" d="M943.211 414.296C943.973 417.218 940.389 418.768 938.657 419.247C936.926 419.726 938.375 419.322 938.234 419.35C936.493 419.801 930.66 421.304 929.832 421.52C927.866 421.962 926.859 421.37 926.492 420.092L920 395.18L921.251 394.833C923.397 400.281 925.062 409.74 935.515 411.375C937.557 411.694 941.734 408.669 943.202 414.296H943.211Z" fill="#F9C9B3"/>
<path fill-rule="evenodd" clip-rule="evenodd" d="M1056.49 390.154L935.214 420.13L932.937 410.764C933.831 410.98 935.402 411.422 938.507 410.304L1050.69 369.911C1065.45 364.594 1072.73 386.143 1056.5 390.145L1056.49 390.154Z" fill="#A3A4A5"/>
<path d="M1125.9 254.678H1179.82V341.251H1125.9V254.678Z" fill="#232017"/>
<path fill-rule="evenodd" clip-rule="evenodd" d="M1100.89 240.259V326.841L1125.91 341.26V254.678L1100.89 240.259Z" fill="#617084"/>
<path fill-rule="evenodd" clip-rule="evenodd" d="M1108.7 301.572L1125.91 319.467V294.893L1121 289.783L1103.3 271.38L1100.9 268.882V293.456L1108.71 301.572H1108.7ZM1100.89 257.45L1112.52 269.539L1124.35 281.845L1125.9 283.461V290.675L1122.43 287.068L1100.88 264.673V257.459L1100.89 257.45Z" fill="white"/>
<path d="M1140.64 265.575H1144.56V269.708H1140.64V265.575Z" fill="#EDEDE8"/>
<path d="M1140.64 270.742H1144.56V274.875H1140.64V270.742Z" fill="#EDEDE8"/>
<path d="M1140.64 275.899H1144.56V280.032H1140.64V275.899Z" fill="#EDEDE8"/>
<path d="M1140.64 281.065H1144.56V285.199H1140.64V281.065Z" fill="#EDEDE8"/>
<path d="M1140.64 286.222H1144.56V290.356H1140.64V286.222Z" fill="#EDEDE8"/>
<path d="M1140.64 291.389H1144.56V295.522H1140.64V291.389Z" fill="#EDEDE8"/>
<path d="M1140.64 296.546H1144.56V300.679H1140.64V296.546Z" fill="#EDEDE8"/>
<path d="M1140.64 301.713H1144.56V305.846H1140.64V301.713Z" fill="#EDEDE8"/>
<path d="M1140.64 306.879H1144.56V311.012H1140.64V306.879Z" fill="#EDEDE8"/>
<path d="M1140.64 312.036H1144.56V316.17H1140.64V312.036Z" fill="#EDEDE8"/>
<path d="M1140.64 317.203H1144.56V321.336H1140.64V317.203Z" fill="#EDEDE8"/>
<path d="M1140.64 322.36H1144.56V326.493H1140.64V322.36Z" fill="#EDEDE8"/>
<path d="M1140.64 327.527H1144.56V331.66H1140.64V327.527Z" fill="#EDEDE8"/>
<path d="M1145.36 265.575H1149.29V269.708H1145.36V265.575Z" fill="#EDEDE8"/>
<path d="M1145.36 270.742H1149.29V274.875H1145.36V270.742Z" fill="#EDEDE8"/>
<path d="M1145.36 275.899H1149.29V280.032H1145.36V275.899Z" fill="#EDEDE8"/>
<path d="M1145.36 281.065H1149.29V285.199H1145.36V281.065Z" fill="#EDEDE8"/>
<path d="M1145.36 286.222H1149.29V290.356H1145.36V286.222Z" fill="#EDEDE8"/>
<path d="M1145.36 291.389H1149.29V295.522H1145.36V291.389Z" fill="#EDEDE8"/>
<path d="M1145.36 296.546H1149.29V300.679H1145.36V296.546Z" fill="#EDEDE8"/>
<path d="M1145.36 301.713H1149.29V305.846H1145.36V301.713Z" fill="#EDEDE8"/>
<path d="M1145.36 306.879H1149.29V311.012H1145.36V306.879Z" fill="#EDEDE8"/>
<path d="M1145.36 312.036H1149.29V316.17H1145.36V312.036Z" fill="#EDEDE8"/>
<path d="M1145.36 317.203H1149.29V321.336H1145.36V317.203Z" fill="#EDEDE8"/>
<path d="M1145.36 322.36H1149.29V326.493H1145.36V322.36Z" fill="#EDEDE8"/>
<path d="M1145.36 327.527H1149.29V331.66H1145.36V327.527Z" fill="#EDEDE8"/>
<path d="M1150.1 265.575H1154.02V269.708H1150.1V265.575Z" fill="#EDEDE8"/>
<path d="M1150.1 270.742H1154.02V274.875H1150.1V270.742Z" fill="#EDEDE8"/>
<path d="M1150.1 275.899H1154.02V280.032H1150.1V275.899Z" fill="#EDEDE8"/>
<path d="M1150.1 281.065H1154.02V285.199H1150.1V281.065Z" fill="#EDEDE8"/>
<path d="M1150.1 286.222H1154.02V290.356H1150.1V286.222Z" fill="#EDEDE8"/>
<path d="M1150.1 291.389H1154.02V295.522H1150.1V291.389Z" fill="#EDEDE8"/>
<path d="M1150.1 296.546H1154.02V300.679H1150.1V296.546Z" fill="#EDEDE8"/>
<path d="M1150.1 301.713H1154.02V305.846H1150.1V301.713Z" fill="#EDEDE8"/>
<path d="M1150.1 306.879H1154.02V311.012H1150.1V306.879Z" fill="#EDEDE8"/>
<path d="M1150.1 312.036H1154.02V316.17H1150.1V312.036Z" fill="#EDEDE8"/>
<path d="M1150.1 317.203H1154.02V321.336H1150.1V317.203Z" fill="#EDEDE8"/>
<path d="M1150.1 322.36H1154.02V326.493H1150.1V322.36Z" fill="#EDEDE8"/>
<path d="M1150.1 327.527H1154.02V331.66H1150.1V327.527Z" fill="#EDEDE8"/>
<path d="M1154.83 265.575H1158.75V269.708H1154.83V265.575Z" fill="#EDEDE8"/>
<path d="M1154.83 270.742H1158.75V274.875H1154.83V270.742Z" fill="#EDEDE8"/>
<path d="M1154.83 275.899H1158.75V280.032H1154.83V275.899Z" fill="#EDEDE8"/>
<path d="M1154.83 281.065H1158.75V285.199H1154.83V281.065Z" fill="#EDEDE8"/>
<path d="M1154.83 286.222H1158.75V290.356H1154.83V286.222Z" fill="#EDEDE8"/>
<path d="M1154.83 291.389H1158.75V295.522H1154.83V291.389Z" fill="#EDEDE8"/>
<path d="M1154.83 296.546H1158.75V300.679H1154.83V296.546Z" fill="#EDEDE8"/>
<path d="M1154.83 301.713H1158.75V305.846H1154.83V301.713Z" fill="#EDEDE8"/>
<path d="M1154.83 306.879H1158.75V311.012H1154.83V306.879Z" fill="#EDEDE8"/>
<path d="M1154.83 312.036H1158.75V316.17H1154.83V312.036Z" fill="#EDEDE8"/>
<path d="M1154.83 317.203H1158.75V321.336H1154.83V317.203Z" fill="#EDEDE8"/>
<path d="M1154.83 322.36H1158.75V326.493H1154.83V322.36Z" fill="#EDEDE8"/>
<path d="M1154.83 327.527H1158.75V331.66H1154.83V327.527Z" fill="#EDEDE8"/>
<path d="M1161.9 289.36H1172.72V306.748H1161.9V289.36Z" fill="#EDEDE8"/>
<path fill-rule="evenodd" clip-rule="evenodd" d="M1153.18 255.759C1150.95 256.698 1151.05 259.554 1151.66 261.179C1153.51 266.148 1156.1 271.221 1165.17 278.576L1167.73 276.801C1164.08 273.4 1160.98 264.955 1159.48 259.375C1158.95 255.665 1155.88 254.622 1153.18 255.768V255.759Z" fill="#F9C9B3"/>
<path fill-rule="evenodd" clip-rule="evenodd" d="M1146.95 200.984C1142.52 201.642 1139.53 205.192 1140.33 208.884L1151.16 259.093C1151.28 259.61 1151.42 260.089 1151.56 260.531L1159.48 259.356C1159.48 259.169 1159.46 258.99 1159.45 258.802L1156.43 206.508C1156.21 202.759 1151.38 200.336 1146.95 200.984Z" fill="#F9C9B3"/>
<path fill-rule="evenodd" clip-rule="evenodd" d="M1187.35 310.872C1188.46 308.936 1186.56 306.043 1185.06 304.644C1180.45 300.351 1175.2 296.255 1163.48 292.657L1162.64 295.607C1167.63 297.514 1175.43 304.841 1180.17 309.923C1182.94 313.502 1185.98 313.239 1187.35 310.881V310.872Z" fill="#F9C9B3"/>
<path fill-rule="evenodd" clip-rule="evenodd" d="M1227.23 364.453C1230.23 361.851 1230.27 356.891 1227.29 353.444L1186.78 306.56C1186.35 306.081 1185.94 305.649 1185.55 305.254L1180.18 309.913C1180.3 310.101 1180.43 310.289 1180.56 310.477L1216.37 362.913C1218.93 366.67 1224.23 367.055 1227.23 364.453Z" fill="#F9C9B3"/>
<path fill-rule="evenodd" clip-rule="evenodd" d="M1189.81 315.381C1187.92 316.949 1185.12 316.696 1183.54 314.808C1181.97 312.919 1182.23 310.12 1184.12 308.551C1186.01 306.983 1188.81 307.236 1190.38 309.124C1191.96 311.012 1191.7 313.812 1189.81 315.381Z" fill="#232017"/>
</g>
<path fill-rule="evenodd" clip-rule="evenodd" d="M1186.5 88C1199.48 88 1210 98.503 1210 111.463C1210 124.423 1199.48 134.926 1186.5 134.926C1173.52 134.926 1163 124.423 1163 111.463C1163 98.503 1173.52 88 1186.5 88Z" stroke="#617084" stroke-width="1.49" stroke-miterlimit="22.93"/>
<path d="M1186.5 111.463L1191 94.6735" stroke="#617084" stroke-width="1.49" stroke-miterlimit="22.93"/>
<path d="M1186.5 111.463L1198.81 123.761" stroke="#617084" stroke-width="1.49" stroke-miterlimit="22.93"/>
<path d="M1186.5 91.5902V94.4412" stroke="#617084" stroke-width="1.49" stroke-miterlimit="22.93"/>
<path d="M1186.5 128.491V131.335" stroke="#617084" stroke-width="1.49" stroke-miterlimit="22.93"/>
<path d="M1206.4 111.463H1203.55" stroke="#617084" stroke-width="1.49" stroke-miterlimit="22.93"/>
<path d="M1169.44 111.463H1166.6" stroke="#617084" stroke-width="1.49" stroke-miterlimit="22.93"/>
<path d="M1335.49 88.4515C1335.04 88.4515 1334.78 88.4233 1334.77 88.4233L1334.8 88.1419C1334.86 88.1419 1340.37 88.6578 1344.68 84.7838L1344.86 84.9996C1341.39 88.1138 1337.15 88.4515 1335.49 88.4515Z" fill="#FC5E48"/>
<path d="M1341.87 91.6876C1339.92 91.4062 1338.69 90.5151 1338.01 89.8116C1337.26 89.0518 1336.97 88.367 1336.97 88.3389L1337.23 88.2357C1337.23 88.2357 1338.34 90.8903 1341.92 91.4156L1341.88 91.697L1341.87 91.6876Z" fill="#FC5E48"/>
<path d="M1249.77 129.912H1239.48L1238.4 88.8268C1238.4 88.8268 1239.97 88.067 1242.42 87.8325C1245.74 87.5135 1248.75 87.6449 1248.75 87.6449L1249.77 129.912Z" fill="#BDBDBD"/>
<path d="M1276.17 129.912H1249.78L1248.75 87.6449L1276.17 88.8268V129.912Z" fill="#FC5E48"/>
<path d="M1266.6 129.912H1258.9V78.9307C1258.9 78.9307 1260.5 78.4804 1262.59 78.3116C1264.9 78.124 1267.88 78.3116 1267.88 78.3116L1266.59 129.912H1266.6Z" fill="#BDBDBD"/>
<path d="M1286.31 129.912H1266.6L1267.89 78.3116L1286.31 78.9307V129.912Z" fill="#FC5E48"/>
<path d="M1285.04 129.912H1279.25L1271.21 91.5376C1271.21 91.5376 1272.18 91.2843 1273.67 91.2093C1275.38 91.1249 1277 91.5376 1277 91.5376L1285.04 129.912Z" fill="#BDBDBD"/>
<path d="M1299.88 129.912H1285.04L1277 91.5376L1291.72 93.6575L1299.88 129.912Z" fill="#FC5E48"/>
<path d="M1238.58 94.2298L1238.5 93.9578C1238.5 93.9578 1240.73 93.3762 1243.13 93.5263C1245.48 93.667 1248.69 92.8884 1248.73 92.8791L1248.79 93.1511C1248.79 93.1511 1245.51 93.9484 1243.12 93.8077C1240.76 93.667 1238.61 94.2298 1238.59 94.2298H1238.58Z" fill="#FC5E48"/>
<path d="M1258.93 82.9735L1258.89 82.7015C1258.95 82.7015 1264.3 81.9135 1267.81 82.7015L1267.75 82.9735C1264.28 82.195 1258.99 82.9735 1258.93 82.9735Z" fill="#FC5E48"/>
<path d="M1267.65 85.7032C1264.77 84.4087 1258.98 84.8871 1258.92 84.8871L1258.89 84.6057C1259.14 84.5869 1264.8 84.1179 1267.76 85.4405L1267.64 85.6938L1267.65 85.7032Z" fill="#FC5E48"/>
<path d="M1258.93 123.524L1258.88 123.252C1259.1 123.215 1264.19 122.417 1266.8 123.252L1266.72 123.515C1264.16 122.699 1258.98 123.515 1258.93 123.515V123.524Z" fill="#FC5E48"/>
<path d="M1258.93 124.931L1258.89 124.659C1258.94 124.659 1263.85 124.012 1266.76 124.659L1266.71 124.931C1263.85 124.293 1258.99 124.931 1258.94 124.931H1258.93Z" fill="#FC5E48"/>
<path d="M1272.13 95.9463L1272.07 95.6743C1272.22 95.6462 1275.82 94.8864 1277.94 95.6743L1277.84 95.937C1275.8 95.1678 1272.17 95.937 1272.13 95.937V95.9463Z" fill="#FC5E48"/>
<path d="M1272.37 97.1189L1272.33 96.8468C1272.47 96.8187 1275.77 96.2465 1278.16 96.8468L1278.1 97.1189C1275.77 96.5279 1272.41 97.1189 1272.38 97.1189H1272.37Z" fill="#FC5E48"/>
<path d="M1277.82 123.158L1277.77 122.886C1277.92 122.858 1281.32 122.305 1283.62 122.886L1283.55 123.158C1281.31 122.586 1277.86 123.158 1277.82 123.158Z" fill="#FC5E48"/>
<path d="M1283.87 124.631C1280.97 124.003 1278.18 124.631 1278.15 124.631L1278.09 124.359C1278.09 124.359 1280.97 123.721 1283.93 124.359L1283.87 124.631Z" fill="#FC5E48"/>
<path d="M1338.3 120.598C1338.3 120.598 1338.11 121.085 1337.7 121.901C1337.69 121.92 1337.68 121.948 1337.66 121.967C1336.94 123.374 1335.58 125.7 1333.38 128.083C1332.63 128.899 1331.62 129.537 1330.44 130.006H1330.41C1330.16 130.119 1329.89 130.212 1329.62 130.297C1325.79 131.516 1320.53 131.254 1316.4 129.931L1315.69 129.687C1315.34 129.556 1315 129.424 1314.66 129.274C1313.59 128.805 1312.72 128.224 1312.01 127.567C1311.92 127.483 1311.84 127.398 1311.75 127.314C1308.89 124.453 1308.94 120.588 1308.94 120.588H1338.29L1338.3 120.598Z" fill="#BDBDBD"/>
<path d="M1339.24 114.754V118.984C1339.24 121.601 1332.15 123.721 1323.42 123.721C1314.69 123.721 1307.6 121.601 1307.6 118.984V114.754C1307.6 113.422 1311.69 112.287 1317.46 111.818C1319.3 111.668 1321.31 111.583 1323.42 111.583C1332.15 111.583 1339.24 113 1339.24 114.754Z" fill="#FC5E48"/>
<path d="M1339.24 114.754C1339.24 115.007 1339.09 115.26 1338.8 115.495C1337.14 116.883 1330.89 117.924 1323.42 117.924C1321.33 117.924 1319.33 117.84 1317.5 117.69C1311.69 117.221 1307.6 116.086 1307.6 114.744C1307.6 113.403 1311.69 112.277 1317.46 111.808C1319.3 111.658 1321.31 111.574 1323.42 111.574C1332.15 111.574 1339.24 112.99 1339.24 114.744V114.754Z" fill="#FC5E48"/>
<path d="M1324.38 70.9387C1322.86 71.9423 1322.13 71.6985 1321.78 71.0231C1321.43 70.3571 1321.6 69.5222 1323.11 68.5186C1325.88 66.6988 1327.84 67.0271 1327.84 67.0271C1327.84 67.0271 1327.17 69.0908 1324.37 70.9387H1324.38Z" fill="#FC5E48"/>
<path d="M1324.3 83.7333C1323.16 85.2342 1322.39 85.2623 1321.86 84.7652C1321.34 84.2586 1321.25 83.405 1322.4 81.9136C1324.5 79.1839 1326.45 78.7806 1326.45 78.7806C1326.45 78.7806 1326.41 80.9756 1324.29 83.7333H1324.3Z" fill="#FC5E48"/>
<path d="M1323.6 117.024L1323.27 116.996C1323.27 116.939 1323.69 111.161 1321.97 102.691C1320.37 94.877 1316.56 83.1142 1307.5 71.4452L1307.75 71.2013C1316.86 82.936 1320.69 94.7644 1322.29 102.625C1324.03 111.142 1323.61 116.967 1323.61 117.024H1323.6Z" fill="#FC5E48"/>
<path d="M1316.68 85.9376L1316.4 85.7406C1322.91 74.3155 1318.98 60.4422 1318.95 60.3015L1319.27 60.1889C1319.3 60.3296 1323.29 74.3624 1316.68 85.947V85.9376Z" fill="#FC5E48"/>
<path d="M1311.66 79.8781C1308.27 79.8781 1305.72 77.9739 1305.69 77.9551L1305.88 77.6456C1305.88 77.6456 1309.19 80.1032 1313.19 79.3622L1313.24 79.728C1312.7 79.8312 1312.17 79.8687 1311.67 79.8687L1311.66 79.8781Z" fill="#FC5E48"/>
<path d="M1323.04 108.61C1316.2 107.737 1310.66 103.995 1306.57 97.4848C1306.43 97.2597 1306.3 97.0439 1306.25 97.0064C1306.25 97.0064 1306.26 97.0158 1306.29 97.0252L1306.39 96.6687C1306.49 96.7063 1306.54 96.7907 1306.84 97.2691C1310.88 103.685 1316.34 107.372 1323.08 108.235L1323.04 108.61Z" fill="#FC5E48"/>
<path d="M1313.37 104.586L1313.06 104.492C1314.24 99.5953 1311.33 92.4006 1311.3 92.3256L1311.6 92.1661C1311.6 92.1661 1312.36 94.0234 1312.95 96.4623C1313.5 98.7135 1314.01 101.959 1313.38 104.586H1313.37Z" fill="#FC5E48"/>
<path d="M1307.28 69.3627C1309.04 71.145 1309.19 72.1393 1308.72 72.7209C1308.26 73.2931 1307.36 73.2274 1305.6 71.4452C1302.39 68.1996 1301.68 65.5825 1301.68 65.5825C1301.68 65.5825 1304.01 66.0609 1307.28 69.3627Z" fill="#FC5E48"/>
<path d="M1306.58 76.7449C1308.74 77.8518 1309.15 78.7523 1308.86 79.4558C1308.58 80.1593 1307.7 80.4032 1305.54 79.2963C1301.61 77.289 1300.22 75.0377 1300.22 75.0377C1300.22 75.0377 1302.59 74.7094 1306.57 76.7449H1306.58Z" fill="#FC5E48"/>
<path d="M1312.29 91.1062C1313.09 92.8603 1312.83 93.667 1312.22 94.0235C1311.61 94.3799 1310.87 94.1454 1310.06 92.3913C1308.6 89.1926 1308.99 87.007 1308.99 87.007C1308.99 87.007 1310.8 87.8606 1312.28 91.1062H1312.29Z" fill="#FC5E48"/>
<path d="M1315.06 73.9215C1315.47 75.8445 1315.03 76.5574 1314.37 76.7356C1313.69 76.9138 1313.04 76.4823 1312.63 74.5594C1311.9 71.0606 1312.76 69.0438 1312.76 69.0438C1312.76 69.0438 1314.32 70.3664 1315.06 73.9215Z" fill="#FC5E48"/>
<path d="M1317.77 102.606C1317.68 104.576 1317.09 105.129 1316.4 105.083C1315.72 105.036 1315.18 104.417 1315.28 102.447C1315.46 98.8541 1316.79 97.1938 1316.79 97.1938C1316.79 97.1938 1317.95 98.9573 1317.77 102.597V102.606Z" fill="#FC5E48"/>
<path d="M1308.08 97.1564C1309.2 98.676 1309.1 99.5296 1308.57 100.027C1308.05 100.524 1307.28 100.468 1306.15 98.948C1304.11 96.1809 1304.08 93.9484 1304.08 93.9484C1304.08 93.9484 1306 94.3517 1308.08 97.1658V97.1564Z" fill="#FC5E48"/>
<path d="M1319.96 58.6693C1320.51 61.2583 1320.14 62.1775 1319.46 62.3558C1318.79 62.534 1318.08 61.9149 1317.53 59.326C1316.53 54.6077 1317.25 52 1317.25 52C1317.25 52 1318.94 53.8854 1319.96 58.6693Z" fill="#FC5E48"/>
<path d="M1323.84 117.521C1323.84 117.521 1315.18 81.2006 1306.48 84.2117C1297.78 87.2227 1317.1 107.109 1319.32 117.774L1323.84 117.53V117.521Z" fill="#FC5E48"/>
<path d="M1322.57 115.889C1322.57 115.889 1309.29 86.7442 1301.02 91.0966C1292.74 95.4491 1314.52 108.413 1318.09 117.033L1322.57 115.889Z" fill="#FC5E48"/>
<path d="M1320 116.583C1315.46 105.101 1303.5 95.0927 1303.38 94.9895L1303.6 94.6612C1303.72 94.7644 1315.76 104.839 1320.34 116.414L1320 116.583Z" fill="#FC5E48"/>
<path d="M1347.71 95.2803C1344.61 99.7641 1350.04 105.617 1344.83 108.478C1339.62 111.339 1339.78 110.401 1339.27 114.463C1339.27 114.463 1339.36 115.082 1338.8 115.495C1337.14 116.892 1330.89 117.924 1323.42 117.924C1321.33 117.924 1319.33 117.84 1317.5 117.69C1317.05 116.376 1316.62 114.219 1317.46 111.808C1317.77 110.927 1318.25 110.007 1318.97 109.088C1322.86 104.107 1325.96 105.101 1325.08 95.8901C1324.19 86.6693 1335.29 90.6559 1338.06 87.5417C1340.84 84.4274 1342.72 80.938 1347.71 82.3075C1352.7 83.677 1350.82 90.7778 1347.71 95.2616V95.2803Z" fill="#BDBDBD"/>
<path d="M1325.75 118.252L1325.43 118.149C1325.46 117.99 1329.72 102.1 1349.02 83.1047L1349.23 83.3861C1330.02 102.306 1325.78 118.093 1325.75 118.252Z" fill="#FC5E48"/>
<path d="M1331.63 98.2351C1327.08 98.0475 1325.07 96.3965 1324.99 96.3309L1325.18 96.0307C1325.18 96.0307 1327.2 97.6816 1331.64 97.8598V98.2351H1331.63Z" fill="#FC5E48"/>
<path d="M1334.37 100.899C1332.57 100.139 1331.09 98.0005 1330.1 94.6987C1329.35 92.2317 1329.13 89.9523 1329.13 89.9241L1329.46 89.8866C1329.46 89.971 1330.35 98.7978 1334.5 100.543L1334.38 100.89L1334.37 100.899Z" fill="#FC5E48"/>
<path d="M1339.19 95.5431C1338.66 95.5431 1338.35 95.5149 1338.34 95.5055L1338.38 95.1303C1338.45 95.1303 1344.92 95.7963 1349.98 90.7404L1350.21 91.0218C1346.13 95.0928 1341.16 95.5337 1339.2 95.5337L1339.19 95.5431Z" fill="#FC5E48"/>
<path d="M1346.67 99.7736C1344.38 99.3984 1342.94 98.2352 1342.13 97.3253C1341.25 96.331 1340.92 95.4305 1340.9 95.393L1341.21 95.2523C1341.21 95.2523 1342.53 98.723 1346.72 99.3984L1346.67 99.7642V99.7736Z" fill="#FC5E48"/>
<path d="M1337.64 113.215C1332.68 113.215 1329.08 109.801 1329.05 109.754L1329.26 109.473C1329.26 109.473 1333.76 113.741 1339.54 112.662L1339.6 113.028C1338.92 113.15 1338.28 113.206 1337.64 113.206V113.215Z" fill="#FC5E48"/>
<path d="M1332.71 111.958L1332.43 111.761C1333.42 109.989 1335.73 107.597 1341.1 106.312C1344.29 105.552 1347.1 105.542 1347.13 105.542V105.918C1347.02 105.918 1336.04 105.993 1332.71 111.958Z" fill="#FC5E48"/>
<path d="M1350.76 134.865L1237 136V129.265H1349.75L1350.76 134.865Z" fill="#FC5E48"/>
<path fill-rule="evenodd" clip-rule="evenodd" d="M1440 487V432.67C1361.43 421.642 1225.4 421.376 1143.91 430.499C1054.83 440.465 985.625 438.419 895.075 432.03C572.885 409.301 492.354 453.118 290.089 430.499C208.597 421.376 72.5694 421.642 -6 432.67V487H1440Z" fill="#EDE7E4"/>
<defs>
<clipPath id="clip0_1169_3583">
<rect width="392" height="317" fill="white" transform="matrix(-1 0 0 1 1312 118)"/>
</clipPath>
</defs>
</svg>
