<svg width="1446" height="487" viewBox="0 0 1446 487" fill="none" xmlns="http://www.w3.org/2000/svg">
<ellipse cx="1174" cy="62.5" rx="24" ry="24.5" fill="#E9B317"/>
<path fill-rule="evenodd" clip-rule="evenodd" d="M1105.29 43.4753C1133.32 43.4753 1150.99 36.9905 1167.61 32.7369C1176.31 30.5058 1193.79 26.4607 1202.18 31.2147C1204.58 32.5909 1205.64 34.405 1206.51 36.2816C1209.98 43.9132 1214.26 42.4536 1217.75 43.0791C1220.7 43.6212 1221.46 48 1215.63 48H1105.27C1102.93 48 1101 46.9783 1101 45.7272C1101 44.4761 1102.93 43.4544 1105.27 43.4544L1105.29 43.4753Z" fill="#F7F7EF"/>
<path fill-rule="evenodd" clip-rule="evenodd" d="M1226.28 53.6236C1241.11 53.6236 1250.49 50.2166 1259.28 47.9663C1263.89 46.7886 1273.14 44.6646 1277.57 47.1672C1278.85 47.8822 1279.42 48.8496 1279.86 49.8381C1281.68 53.8549 1283.97 53.0768 1285.81 53.4132C1287.37 53.7077 1287.77 56 1284.69 56H1226.26C1225.03 56 1224 55.4532 1224 54.8013C1224 54.1493 1225.01 53.6025 1226.26 53.6025L1226.28 53.6236Z" fill="#F7F7EF"/>
<path fill-rule="evenodd" clip-rule="evenodd" d="M1316.28 84.6236C1331.11 84.6236 1340.49 81.2166 1349.28 78.9663C1353.89 77.7886 1363.14 75.6646 1367.57 78.1672C1368.85 78.8822 1369.42 79.8496 1369.86 80.8381C1371.68 84.8549 1373.97 84.0768 1375.81 84.4132C1377.37 84.7077 1377.77 87 1374.69 87H1316.26C1315.03 87 1314 86.4532 1314 85.8013C1314 85.1493 1315.01 84.6025 1316.26 84.6025L1316.28 84.6236Z" fill="#F7F7EF"/>
<path fill-rule="evenodd" clip-rule="evenodd" d="M1446 487V363.68C1367.43 338.647 1231.4 338.044 1149.91 358.751C1060.83 381.373 991.625 376.728 901.075 362.226C578.885 310.635 498.354 410.093 296.089 358.751C214.597 338.044 78.5694 338.647 0 363.68V487H1446Z" fill="#EDE7E4" fill-opacity="0.6"/>
<g clip-path="url(#clip0_1404_941)" filter="url(#filter0_d_1404_941)">
<path d="M1354.36 128.193H1340.79V361.573H1354.36V128.193Z" fill="#F7F7EF"/>
<path fill-rule="evenodd" clip-rule="evenodd" d="M1370 120.564L1211.98 92.3452V128.193H1370V120.564Z" fill="#F7F7EF"/>
<path d="M1326.57 128.193H1313V361.573H1326.57V128.193Z" fill="#F7F7EF"/>
<path d="M1298.78 128.193H1285.21V361.573H1298.78V128.193Z" fill="#F7F7EF"/>
<path d="M1270.99 128.193H1257.42V361.573H1270.99V128.193Z" fill="#F7F7EF"/>
<path d="M1243.2 128.193H1229.63V361.573H1243.2V128.193Z" fill="#F7F7EF"/>
<path fill-rule="evenodd" clip-rule="evenodd" d="M868.741 350.356H1331.66V386.931L1306.46 415.752H890.5L868.741 390.507V350.356Z" fill="#FC5E48"/>
<path fill-rule="evenodd" clip-rule="evenodd" d="M1128.32 350.356H1331.66V390.507L1306.46 415.752H1128.32V350.356Z" fill="#FC5E48"/>
<path d="M909.332 435.013C919.982 435.013 928.616 426.39 928.616 415.752C928.616 405.115 919.982 396.492 909.332 396.492C898.682 396.492 890.048 405.115 890.048 415.752C890.048 426.39 898.682 435.013 909.332 435.013Z" fill="#0C160F"/>
<path d="M1238.16 419.394C1240.18 408.951 1233.35 398.846 1222.89 396.823C1212.44 394.801 1202.32 401.627 1200.3 412.07C1198.27 422.513 1205.11 432.619 1215.56 434.641C1226.02 436.663 1236.13 429.837 1238.16 419.394Z" fill="#0C160F"/>
<path fill-rule="evenodd" clip-rule="evenodd" d="M971.606 350.356H1259.16V196.149H1032.62L971.606 350.356Z" fill="#FC5E48"/>
<path fill-rule="evenodd" clip-rule="evenodd" d="M978.34 350.343H1125.48V200.616H1037.57L978.34 350.343Z" fill="#A3A4A5"/>
<path d="M1110.92 364.773H1096.68V366.379H1110.92V364.773Z" fill="#8C4A2E"/>
<path fill-rule="evenodd" clip-rule="evenodd" d="M1327.95 370.306V382.276C1321.33 382.276 1315.97 376.918 1315.97 370.306C1315.97 363.694 1321.33 358.336 1327.95 358.336V370.306Z" fill="#CC4D3B"/>
<path d="M1241.97 350.356H1241.05V415.74H1241.97V350.356Z" fill="#8C4A2E"/>
<path d="M1128.77 350.356H1127.85V415.74H1128.77V350.356Z" fill="#8C4A2E"/>
<path d="M978.792 350.356H977.875V415.74H978.792V350.356Z" fill="#8C4A2E"/>
<path d="M1225.21 364.773H1210.98V366.379H1225.21V364.773Z" fill="#8C4A2E"/>
<path fill-rule="evenodd" clip-rule="evenodd" d="M1069.9 200.616H1099.57L1039.87 350.343H1010.21L1069.9 200.616Z" fill="#F7F7EF"/>
<path fill-rule="evenodd" clip-rule="evenodd" d="M1111.68 200.616H1120.33L1060.64 350.343H1051.98L1111.68 200.616Z" fill="#F7F7EF"/>
<path fill-rule="evenodd" clip-rule="evenodd" d="M1125.48 200.616H1037.57L998.365 299.715H1125.48V200.616Z" fill="white"/>
<path fill-rule="evenodd" clip-rule="evenodd" d="M1042.54 281.559C1042.8 279.689 1040.41 278.033 1038.79 277.406C1033.84 275.486 1028.45 273.93 1018.16 274.771L1018.43 277.33C1022.93 277.255 1031.33 280.555 1036.62 283.039C1039.91 284.972 1042.21 283.817 1042.54 281.546V281.559Z" fill="#F9C9B3"/>
<path fill-rule="evenodd" clip-rule="evenodd" d="M1081.98 299.715L1040.74 278.359C1040.25 278.121 1039.8 277.908 1039.37 277.719L1036.63 283.039C1036.78 283.152 1036.95 283.253 1037.11 283.353L1061.48 299.702H1082L1081.98 299.715Z" fill="#F9C9B3"/>
<path fill-rule="evenodd" clip-rule="evenodd" d="M1111.68 213.904C1114.84 214.732 1116.73 217.981 1115.9 221.131L1104.24 265.473C1103.42 268.622 1100.16 270.517 1097.01 269.689C1093.86 268.861 1091.96 265.611 1092.79 262.462L1104.45 218.12C1105.27 214.97 1108.53 213.075 1111.68 213.904Z" fill="#F9C9B3"/>
<path fill-rule="evenodd" clip-rule="evenodd" d="M1111.02 217.015L1106.64 213.941C1110.4 211.758 1115.21 213.013 1117.4 216.764C1119.58 220.516 1118.33 225.322 1114.57 227.505C1110.68 224.569 1109.12 220.14 1111 217.015H1111.02Z" fill="#0C160F"/>
<path fill-rule="evenodd" clip-rule="evenodd" d="M1103.01 228.647L1105.56 215.924L1097.01 227.078L1103.01 228.647Z" fill="#F9C9B3"/>
<path fill-rule="evenodd" clip-rule="evenodd" d="M909.332 408.6C913.289 408.6 916.493 411.8 916.493 415.752C916.493 419.705 913.289 422.904 909.332 422.904C905.374 422.904 902.171 419.705 902.171 415.752C902.171 411.8 905.374 408.6 909.332 408.6Z" fill="#C9C9C9"/>
<path fill-rule="evenodd" clip-rule="evenodd" d="M1219.23 408.6C1223.19 408.6 1226.39 411.8 1226.39 415.752C1226.39 419.705 1223.19 422.904 1219.23 422.904C1215.28 422.904 1212.07 419.705 1212.07 415.752C1212.07 411.8 1215.28 408.6 1219.23 408.6Z" fill="#C9C9C9"/>
<path fill-rule="evenodd" clip-rule="evenodd" d="M971.606 340.33V350.368C966.053 350.368 961.556 345.876 961.556 340.33C961.556 334.785 966.053 330.293 971.606 330.293V340.33Z" fill="#283825"/>
<path d="M1331.66 390.143H868.741V390.884H1331.66V390.143Z" fill="#8C4A2E"/>
<path d="M1240.14 200.616H1130.26V350.331H1240.14V200.616Z" fill="#A3A4A5"/>
<path fill-rule="evenodd" clip-rule="evenodd" d="M1189.72 200.616H1219.38L1159.68 350.343H1130.02L1189.72 200.616Z" fill="#F7F7EF"/>
<path fill-rule="evenodd" clip-rule="evenodd" d="M1231.49 200.616H1240.15L1180.45 350.343H1171.8L1231.49 200.616Z" fill="#F7F7EF"/>
<path fill-rule="evenodd" clip-rule="evenodd" d="M868 370.306V382.276C874.621 382.276 879.985 376.918 879.985 370.306C879.985 363.694 874.621 358.336 868 358.336V370.306Z" fill="#E9B317"/>
<path fill-rule="evenodd" clip-rule="evenodd" d="M1067.06 299.715C1066 293.654 1064.48 288.334 1064.31 280.881C1064.21 276.941 1067.51 271.057 1071.83 267.393C1075.88 263.955 1081.15 262.525 1085.02 262.512L1125.48 262.349V299.727H1067.06V299.715Z" fill="#CC4D3B"/>
<path fill-rule="evenodd" clip-rule="evenodd" d="M1122.72 276.226L1077.94 333.68C1075.78 336.453 1071.73 336.955 1068.96 334.797C1066.18 332.639 1065.68 328.599 1067.84 325.826L1112.62 268.372C1114.79 265.599 1118.83 265.097 1121.61 267.255C1124.38 269.413 1124.89 273.453 1122.72 276.226Z" fill="#F9C9B3"/>
<path fill-rule="evenodd" clip-rule="evenodd" d="M1122.72 276.226L1098.14 307.77L1088.39 299.451L1112.62 268.372C1114.79 265.599 1118.83 265.097 1121.61 267.255C1124.38 269.413 1124.89 273.453 1122.72 276.226Z" fill="#F9C9B3"/>
<path fill-rule="evenodd" clip-rule="evenodd" d="M1020.6 275.586C1022.02 274.582 1024.01 274.934 1025.01 276.352L1041.46 299.715H1033.73L1019.83 279.978C1018.83 278.56 1019.18 276.577 1020.6 275.574V275.586Z" fill="#283825"/>
<path d="M1240.14 200.616H1130.26V287.544H1240.14V200.616Z" fill="white"/>
<path fill-rule="evenodd" clip-rule="evenodd" d="M1215.28 214.468C1218.78 215.096 1221.12 218.433 1220.49 221.934C1219.86 225.435 1216.52 227.768 1213.01 227.141C1209.51 226.514 1207.17 223.176 1207.8 219.675C1208.43 216.175 1211.77 213.841 1215.28 214.468Z" fill="#0C160F"/>
<path fill-rule="evenodd" clip-rule="evenodd" d="M1225.46 207.931C1228.97 208.558 1231.31 211.896 1230.68 215.397C1230.05 218.897 1226.71 221.231 1223.2 220.604C1219.7 219.977 1217.36 216.639 1217.99 213.138C1218.62 209.638 1221.96 207.304 1225.46 207.931Z" fill="#0C160F"/>
<path fill-rule="evenodd" clip-rule="evenodd" d="M1204.6 221.419C1207.16 221.871 1208.88 224.343 1208.43 226.903L1201.96 263.152C1201.51 265.712 1199.03 267.431 1196.47 266.979C1193.91 266.527 1192.18 264.055 1192.64 261.496L1199.11 225.246C1199.56 222.687 1202.03 220.968 1204.6 221.419Z" fill="#F9C9B3"/>
<path fill-rule="evenodd" clip-rule="evenodd" d="M1204.2 226.928L1200.6 221.783C1203.45 219.801 1207.37 220.504 1209.36 223.339C1211.34 226.187 1210.64 230.102 1207.8 232.085L1204.21 226.94L1204.2 226.928Z" fill="#0C160F"/>
<path fill-rule="evenodd" clip-rule="evenodd" d="M1198.64 233.716L1199.86 223.427L1193.76 232.85L1198.64 233.716Z" fill="#F9C9B3"/>
<path fill-rule="evenodd" clip-rule="evenodd" d="M1170 272.161L1161.31 287.556H1147.6L1159.61 266.301C1161.22 263.44 1164.89 262.424 1167.74 264.043C1170.6 265.649 1171.62 269.313 1170 272.161Z" fill="#BD7757"/>
<path fill-rule="evenodd" clip-rule="evenodd" d="M1170 272.161L1161.31 287.556H1147.6L1159.61 266.301C1161.22 263.44 1164.89 262.424 1167.74 264.043C1170.6 265.649 1171.62 269.313 1170 272.161Z" fill="#F9C9B3"/>
<path fill-rule="evenodd" clip-rule="evenodd" d="M1168.19 260.68H1223.71C1228.71 260.68 1232.8 264.77 1232.8 269.764C1232.8 274.758 1228.71 278.849 1223.71 278.849H1220.8L1216.14 287.544H1166.88C1166.85 284.645 1167.66 281.634 1168.97 278.849H1168.19C1163.19 278.849 1159.09 274.758 1159.09 269.764C1159.09 264.77 1163.19 260.68 1168.19 260.68Z" fill="#F9C9B3"/>
<path fill-rule="evenodd" clip-rule="evenodd" d="M1166.88 287.556C1166.85 284.658 1167.66 281.647 1168.97 278.861L1175.8 260.68H1216.21L1220.58 278.861L1216.12 287.556H1166.9H1166.88Z" fill="#CC4D3B"/>
<path fill-rule="evenodd" clip-rule="evenodd" d="M1222.91 267.393L1252.47 213.879C1253.91 211.294 1257.19 210.34 1259.77 211.771C1262.36 213.201 1263.32 216.476 1261.88 219.061L1232.32 272.575C1230.89 275.16 1227.61 276.113 1225.02 274.683C1222.44 273.252 1221.48 269.978 1222.91 267.393Z" fill="#F9C9B3"/>
<path fill-rule="evenodd" clip-rule="evenodd" d="M1222.91 267.393L1237.01 241.872L1246.07 247.694L1232.31 272.587C1230.88 275.172 1227.6 276.126 1225.01 274.695C1222.42 273.265 1221.47 269.99 1222.9 267.405L1222.91 267.393Z" fill="#F9C9B3"/>
<path fill-rule="evenodd" clip-rule="evenodd" d="M1279.26 177.303C1278.28 175.973 1279.47 173.602 1280.48 172.385C1283.57 168.658 1287.14 165.019 1295.53 161.054L1296.37 163.175C1292.81 165.145 1287.6 171.494 1284.48 175.81C1282.7 178.796 1280.43 178.934 1279.25 177.303H1279.26Z" fill="#F9C9B3"/>
<path fill-rule="evenodd" clip-rule="evenodd" d="M1253.82 221.821C1251.39 220.19 1250.99 216.476 1252.94 213.565L1279.36 174.003C1279.64 173.602 1279.91 173.225 1280.16 172.886L1284.5 175.797C1284.42 175.948 1284.35 176.111 1284.26 176.262L1261.75 219.475C1260.14 222.574 1256.24 223.44 1253.83 221.808L1253.82 221.821Z" fill="#F9C9B3"/>
<path d="M1199.27 257.091C1200.87 254.243 1204.7 252.236 1209.2 250.931C1214.58 249.362 1221.14 248.735 1225.48 248.835L1226.72 248.86C1232.17 248.998 1236.81 250.178 1241.32 251.332C1247.91 253.014 1254.2 254.632 1261.97 251.332L1263.91 250.517C1268.32 248.647 1273.96 248.258 1279.53 248.823C1285.78 249.45 1292.1 251.282 1296.42 253.516C1301.95 256.376 1307.31 254.319 1312.68 252.273C1317.27 250.517 1321.87 248.748 1327.34 248.886V254.544C1323.92 254.457 1320.24 255.862 1316.57 257.28C1309.07 260.153 1301.57 263.026 1291.95 258.058C1288.63 256.339 1283.69 254.921 1278.73 254.431C1274.75 254.03 1270.87 254.256 1268.07 255.435L1266.13 256.251C1255.28 260.843 1247.29 258.798 1238.91 256.652C1235 255.649 1231 254.632 1226.71 254.519L1225.46 254.494C1221.98 254.406 1216.71 254.921 1212.36 256.176C1209.58 256.979 1207.32 258.045 1206.59 259.325L1199.25 257.091H1199.27Z" fill="#E9B317"/>
<path fill-rule="evenodd" clip-rule="evenodd" d="M1190.85 254.319H1208.59L1206.57 260.831H1188.83L1190.85 254.319Z" fill="#E9B317"/>
<path d="M1150.58 151.306C1152.73 149.16 1155.65 147.955 1158.7 147.955C1165.03 147.955 1170.17 153.087 1170.17 159.411" stroke="#FC5E48" stroke-width="2" stroke-miterlimit="10"/>
<path d="M1189.74 151.306C1187.59 149.16 1184.68 147.955 1181.63 147.955C1175.29 147.955 1170.16 153.087 1170.16 159.411" stroke="#FC5E48" stroke-width="2" stroke-miterlimit="10"/>
<path fill-rule="evenodd" clip-rule="evenodd" d="M1040.24 291.22C1041.07 289.514 1039.32 287.218 1037.98 286.151C1033.87 282.876 1029.23 279.802 1019.19 277.606L1018.64 280.141C1022.94 281.383 1029.9 286.992 1034.14 290.919C1036.67 293.73 1039.21 293.291 1040.22 291.22H1040.24Z" fill="#F9C9B3"/>
<path fill-rule="evenodd" clip-rule="evenodd" d="M1076.64 333.392C1079.03 330.995 1078.79 326.83 1076.1 324.144L1039.53 287.632C1039.14 287.268 1038.78 286.929 1038.43 286.615L1034.16 290.894C1034.27 291.045 1034.38 291.195 1034.51 291.333L1067.42 332.827C1069.79 335.801 1074.24 335.763 1076.63 333.367L1076.64 333.392Z" fill="#F9C9B3"/>
<path fill-rule="evenodd" clip-rule="evenodd" d="M1042.55 294.834C1041.04 296.277 1038.68 296.264 1037.25 294.796C1035.83 293.328 1035.89 290.957 1037.4 289.501C1038.91 288.058 1041.27 288.071 1042.7 289.539C1044.12 291.007 1044.06 293.378 1042.55 294.834Z" fill="#E3E3E3"/>
</g>
<defs>
<filter id="filter0_d_1404_941" x="864" y="87" width="510" height="356" filterUnits="userSpaceOnUse" color-interpolation-filters="sRGB">
<feFlood flood-opacity="0" result="BackgroundImageFix"/>
<feColorMatrix in="SourceAlpha" type="matrix" values="0 0 0 0 0 0 0 0 0 0 0 0 0 0 0 0 0 0 127 0" result="hardAlpha"/>
<feOffset dy="4"/>
<feGaussianBlur stdDeviation="2"/>
<feComposite in2="hardAlpha" operator="out"/>
<feColorMatrix type="matrix" values="0 0 0 0 0 0 0 0 0 0 0 0 0 0 0 0 0 0 0.25 0"/>
<feBlend mode="normal" in2="BackgroundImageFix" result="effect1_dropShadow_1404_941"/>
<feBlend mode="normal" in="SourceGraphic" in2="effect1_dropShadow_1404_941" result="shape"/>
</filter>
<clipPath id="clip0_1404_941">
<rect width="502" height="348" fill="white" transform="translate(868 87)"/>
</clipPath>
</defs>
</svg>
